<svg xmlns="http://www.w3.org/2000/svg" xmlns:xlink="http://www.w3.org/1999/xlink" width="93" height="93" viewBox="0 0 93 93">
  <defs>
    <clipPath id="clip-path">
      <rect id="Rectángulo_8826" data-name="Rectángulo 8826" width="63" height="63" fill="#fff" stroke="#707070" stroke-width="1"/>
    </clipPath>
  </defs>
  <g id="Grupo_1052718" data-name="Grupo 1052718" transform="translate(-1095 -950.465)">
    <g id="Enmascarar_grupo_84" data-name="Enmascarar grupo 84" transform="translate(1110 965.465)" clip-path="url(#clip-path)">
      <g id="working-at-home" transform="translate(0 1.967)">
        <g id="Grupo_70786" data-name="Grupo 70786">
          <path id="Trazado_108016" data-name="Trazado 108016" d="M44.395,26.268l1.589-9.531h2.461L51.4,31.5h3.764L51.767,14.529a1.847,1.847,0,0,0-1.81-1.483H46.6L48.086,4.12a1.845,1.845,0,0,0-3.641-.606L40.754,25.662a1.782,1.782,0,0,0,1.519,2.117A1.758,1.758,0,0,0,44.395,26.268Z" transform="translate(0 -1.967)" fill="#fff"/>
          <path id="Trazado_108017" data-name="Trazado 108017" d="M31.5,61.033h3.691a1.846,1.846,0,0,0,1.846-1.846V42.576a7.383,7.383,0,0,0-7.383-7.383H14.766a7.3,7.3,0,0,1-3.691-1.027v4.718a3.691,3.691,0,0,0,3.691,3.691H29.655V59.188A1.846,1.846,0,0,0,31.5,61.033Z" transform="translate(0 -1.967)" fill="#fff"/>
          <path id="Trazado_108018" data-name="Trazado 108018" d="M14.766,53.651v3.691H12.921a1.846,1.846,0,1,0,0,3.691H20.3a1.846,1.846,0,1,0,0-3.691H18.458V53.651h3.814a3.691,3.691,0,1,0,0-7.383H7.383V40.731c0-18.679-3.727-26.348-3.886-26.665A1.846,1.846,0,1,0,.2,15.717c.036.07,3.5,7.2,3.5,25.014v7.383a5.537,5.537,0,0,0,5.537,5.537Z" transform="translate(0 -1.967)" fill="#fff"/>
          <path id="Trazado_108019" data-name="Trazado 108019" d="M61.154,35.194H37.849a11.02,11.02,0,0,1,2.2,3.691H51.8v20.3a1.846,1.846,0,0,0,3.691,0v-20.3h5.66a1.846,1.846,0,1,0,0-3.691Z" transform="translate(0 -1.967)" fill="#fff"/>
        </g>
        <circle id="Elipse_4533" data-name="Elipse 4533" cx="5.537" cy="5.537" r="5.537" transform="translate(9.352 1.85)" fill="#fff"/>
        <path id="Trazado_108020" data-name="Trazado 108020" d="M11.2,18.583v9.228A3.691,3.691,0,0,0,14.889,31.5h12.92a1.846,1.846,0,0,0,1.846-1.846,5.537,5.537,0,0,0-5.537-5.537H18.581V18.583a3.691,3.691,0,1,0-7.383,0Z" transform="translate(0 -1.967)" fill="#fff"/>
      </g>
    </g>
    <g id="Trazado_773766" data-name="Trazado 773766" transform="translate(1095 950.465)" fill="none">
      <path d="M46.5,0A46.5,46.5,0,1,1,0,46.5,46.5,46.5,0,0,1,46.5,0Z" stroke="none"/>
      <path d="M 46.5 3 C 40.62621307373047 3 34.92972946166992 4.149711608886719 29.56875610351562 6.417213439941406 C 24.38916778564453 8.608001708984375 19.73678588867188 11.74492645263672 15.74085998535156 15.74085998535156 C 11.74492645263672 19.73678588867188 8.608001708984375 24.38916778564453 6.417213439941406 29.56875610351562 C 4.149711608886719 34.92972946166992 3 40.62621307373047 3 46.5 C 3 52.37378692626953 4.149711608886719 58.07027053833008 6.417213439941406 63.43124389648438 C 8.608001708984375 68.61082458496094 11.74492645263672 73.26321411132812 15.74085998535156 77.25914001464844 C 19.73678588867188 81.25507354736328 24.38916778564453 84.39199829101562 29.56875610351562 86.58278656005859 C 34.92972946166992 88.85028839111328 40.62621307373047 90 46.5 90 C 52.37378692626953 90 58.07027053833008 88.85028839111328 63.43124389648438 86.58278656005859 C 68.61082458496094 84.39199829101562 73.26319885253906 81.25507354736328 77.25914001464844 77.25914001464844 C 81.25507354736328 73.26319885253906 84.39199829101562 68.61082458496094 86.58278656005859 63.43124389648438 C 88.85028839111328 58.07027053833008 90 52.37378692626953 90 46.5 C 90 40.62621307373047 88.85028839111328 34.92972946166992 86.58278656005859 29.56875610351562 C 84.39199829101562 24.38916778564453 81.25507354736328 19.73678588867188 77.25914001464844 15.74085998535156 C 73.26321411132812 11.74492645263672 68.61082458496094 8.608001708984375 63.43124389648438 6.417213439941406 C 58.07027053833008 4.149711608886719 52.37378692626953 3 46.5 3 M 46.5 0 C 72.18122863769531 0 93 20.81875610351562 93 46.5 C 93 72.18122863769531 72.18122863769531 93 46.5 93 C 20.81875610351562 93 0 72.18122863769531 0 46.5 C 0 20.81875610351562 20.81875610351562 0 46.5 0 Z" stroke="none" fill="#fff"/>
    </g>
  </g>
</svg>
