<svg xmlns="http://www.w3.org/2000/svg" xmlns:xlink="http://www.w3.org/1999/xlink" width="93" height="93" viewBox="0 0 93 93">
  <defs>
    <clipPath id="clip-path">
      <rect id="Rectángulo_8828" data-name="Rectángulo 8828" width="63" height="63" fill="#ac394e" stroke="#707070" stroke-width="1"/>
    </clipPath>
  </defs>
  <g id="Grupo_1052506" data-name="Grupo 1052506" transform="translate(-598 -1557)">
    <g id="Enmascarar_grupo_88" data-name="Enmascarar grupo 88" transform="translate(613 1572)" clip-path="url(#clip-path)">
      <g id="amistad" transform="translate(4.203 0)">
        <path id="Trazado_108044" data-name="Trazado 108044" d="M52.925,16.13A27.82,27.82,0,0,0,29.409.092L28.4,0,27.47.023a21.693,21.693,0,0,0-9.028,2.336,21.94,21.94,0,0,0-12.13,19.7v3.909L.163,36.214a1.05,1.05,0,0,0,.9,1.59H7.634L7,47.268a5.215,5.215,0,0,0,4.149,6.011,1.037,1.037,0,0,0,.21.021,1.1,1.1,0,0,0,.113-.006L17.86,52.6V61.95A1.049,1.049,0,0,0,18.91,63h25.2a1.049,1.049,0,0,0,1.05-1.05V51.517l8.2-20.27a20.352,20.352,0,0,0-.435-15.118ZM51.4,30.5,43.133,50.927a1.048,1.048,0,0,0-.064.47c0,.022-.013.041-.013.063V60.9H19.96V51.453c0-.022-.012-.041-.013-.063s.01-.047.007-.07a.9.9,0,0,0-.056-.173.992.992,0,0,0-.044-.137,1.03,1.03,0,0,0-.162-.243c-.015-.018-.021-.04-.037-.058l-.04-.031a1.053,1.053,0,0,0-.294-.189,1.02,1.02,0,0,0-.525-.1l-7.389.8A3.16,3.16,0,0,1,9.08,47.516l.725-10.687A1.05,1.05,0,0,0,8.832,35.7H2.921l5.344-8.911a.42.42,0,0,0,.024-.067.919.919,0,0,0,.07-.2,1.06,1.06,0,0,0,.042-.21c0-.024.014-.045.014-.071V22.057A19.863,19.863,0,0,1,19.383,4.222,19.626,19.626,0,0,1,27.538,2.11h.84A25.779,25.779,0,0,1,51.01,16.975,18.244,18.244,0,0,1,51.4,30.5Zm0,0" transform="translate(-0.013 0)" fill="#ac394e"/>
        <path id="Trazado_108045" data-name="Trazado 108045" d="M40.957,25.755V23.107a7.369,7.369,0,0,0-5.1-6.985,7.349,7.349,0,1,0-12.9,0,7.37,7.37,0,0,0-5.1,6.985V37.8a1.049,1.049,0,0,0,1.05,1.05h8.947a9.448,9.448,0,1,0,13.1-13.1ZM29.409,7.359a5.249,5.249,0,1,1-5.249,5.249A5.25,5.25,0,0,1,29.409,7.359Zm-9.449,29.4V23.107a5.249,5.249,0,0,1,4.418-5.157,7.308,7.308,0,0,0,10.062,0,5.249,5.249,0,0,1,4.418,5.157v1.6A9.422,9.422,0,0,0,26.81,36.754Zm15.748,4.2a7.349,7.349,0,1,1,7.348-7.349A7.349,7.349,0,0,1,35.708,40.954Zm0,0" transform="translate(-0.013 0)" fill="#ac394e"/>
        <path id="Trazado_108046" data-name="Trazado 108046" d="M39.907,32.555h-3.15v-3.15a1.05,1.05,0,0,0-2.1,0v3.15H31.509a1.05,1.05,0,1,0,0,2.1h3.149V37.8a1.05,1.05,0,1,0,2.1,0V34.655h3.15a1.05,1.05,0,0,0,0-2.1Zm0,0" transform="translate(-0.013 0)" fill="#ac394e"/>
      </g>
    </g>
    <g id="Elipse_8066" data-name="Elipse 8066" transform="translate(598 1557)" fill="none" stroke="#9f0925" stroke-width="3">
      <circle cx="46.5" cy="46.5" r="46.5" stroke="none"/>
      <circle cx="46.5" cy="46.5" r="45" fill="none"/>
    </g>
  </g>
</svg>
