<svg xmlns="http://www.w3.org/2000/svg" xmlns:xlink="http://www.w3.org/1999/xlink" width="63" height="63" viewBox="0 0 63 63">
  <defs>
    <clipPath id="clip-path">
      <rect id="Rectángulo_8824" data-name="Rectángulo 8824" width="63" height="63" fill="#9f0925" stroke="#707070" stroke-width="1"/>
    </clipPath>
  </defs>
  <g id="Enmascarar_grupo_87" data-name="Enmascarar grupo 87" clip-path="url(#clip-path)">
    <g id="ecosistema_1_" data-name="ecosistema (1)" transform="translate(0 0.169)">
      <path id="Trazado_108032" data-name="Trazado 108032" d="M32.516,20.322a6.1,6.1,0,1,0-6.1-6.1A6.1,6.1,0,0,0,32.516,20.322Zm0-10.161a4.064,4.064,0,1,1-4.064,4.064,4.064,4.064,0,0,1,4.064-4.064Z" transform="translate(-1.016 -1.354)" fill="#9f0925"/>
      <path id="Trazado_108033" data-name="Trazado 108033" d="M58.712,24.387A27.679,27.679,0,0,0,41.533,6.612l.748-1.879-3.064.613a5.249,5.249,0,0,1-5.2-1.987l-1.5-2-1.5,2a5.248,5.248,0,0,1-5.2,1.987l-3.064-.613L23.5,6.611A27.349,27.349,0,0,0,6.375,24.2a9.2,9.2,0,0,0-5.283,7.12,9.1,9.1,0,0,0,4.15,8.9A2,2,0,0,1,6.1,41.915v1.778a4.057,4.057,0,0,0,3.58,4.016,27.765,27.765,0,0,0,7.6,7.611v6.664H5.081v2.032h54.87V61.984H45.726v-5.43a27.464,27.464,0,0,0,10.236-9.812h6.022V44.709H59.951V42.677h4.064V24.387Zm3.272,8.129H57.919v-6.1h4.064ZM51.822,40.645v-6.1h4.064v6.1Zm-6.1-6.1H49.79v6.1H45.726Zm0-2.032v-6.1H49.79v6.1Zm6.1,0v-6.1h4.064v6.1Zm-26-25.108a7.3,7.3,0,0,0,6.7-2.67,7.3,7.3,0,0,0,6.7,2.67,7.209,7.209,0,0,0,2.619,6.808,7.257,7.257,0,0,0-2.758,6.675,7.215,7.215,0,0,0-6.558,2.822,7.3,7.3,0,0,0-5.694-2.738,7.053,7.053,0,0,0-1,.07A7.208,7.208,0,0,0,23.2,14.224a7.211,7.211,0,0,0,2.632-6.818ZM6.338,38.509A7.111,7.111,0,0,1,9.328,25.45a7.585,7.585,0,0,1,.841-.047A7.032,7.032,0,0,1,14.9,27.21,7.108,7.108,0,0,1,14,38.5a3.965,3.965,0,0,0-1.8,3.163H11.177V35.377a3.048,3.048,0,1,0-2.032,0v6.284H8.114a3.961,3.961,0,0,0-1.776-3.152Zm2.808-5.993a1.016,1.016,0,1,1,1.016,1.016,1.016,1.016,0,0,1-1.016-1.016ZM8.129,43.693h4.064a2.032,2.032,0,1,1-4.064,0ZM37.6,45.726V50.38l-4.064-.813V61.984H29.468V47.534l-2.032.406V45.726ZM27.435,50.014v11.97H19.306V51.639Zm8.129,11.97V52.046l8.129,1.626v8.312Zm10.161-7.772V52.005l-6.1-1.219V43.693H37.6V41.661H35.564v2.032H33.532V39.629H31.5v4.064H29.468V41.661H27.435v2.032H25.4v4.654l-8.129,1.626v2.854A25.742,25.742,0,0,1,11.9,47.353a4.059,4.059,0,0,0,2.329-3.66V41.872a1.982,1.982,0,0,1,.876-1.665,9.144,9.144,0,0,0-6-16.776c-.111.012-.218.036-.328.052a25.318,25.318,0,0,1,15.1-14.852,5.184,5.184,0,0,1-2.526,4.407l-1.978,1.188,1.979,1.188A5.2,5.2,0,0,1,23.5,21.828l-.752,1.89,3.064-.613a5.25,5.25,0,0,1,5.2,1.987l1.5,2,1.6-2.129a5.2,5.2,0,0,1,5.014-2.02l2.855.465-.61-1.638a5.221,5.221,0,0,1,2.2-6.3l2.091-1.255-1.979-1.188a5.186,5.186,0,0,1-2.525-4.4A25.653,25.653,0,0,1,56.583,24.387H43.693v18.29h4.064v2.032H45.726v2.032h7.84a25.436,25.436,0,0,1-7.84,7.47Zm12.193-9.5H49.79V42.677h8.129Zm0-4.064v-6.1h4.064v6.1Z" transform="translate(-1.016 -1.354)" fill="#9f0925"/>
      <path id="Trazado_108034" data-name="Trazado 108034" d="M61.984,61.984h2.032v2.032H61.984Z" transform="translate(-1.016 -1.354)" fill="#9f0925"/>
      <path id="Trazado_108035" data-name="Trazado 108035" d="M1.016,61.984H3.048v2.032H1.016Z" transform="translate(-1.016 -1.354)" fill="#9f0925"/>
      <path id="Trazado_108036" data-name="Trazado 108036" d="M37.6,57.919h4.064v2.032H37.6Z" transform="translate(-1.016 -1.354)" fill="#9f0925"/>
      <path id="Trazado_108037" data-name="Trazado 108037" d="M21.339,53.855H25.4v2.032H21.339Z" transform="translate(-1.016 -1.354)" fill="#9f0925"/>
      <path id="Trazado_108038" data-name="Trazado 108038" d="M21.339,57.919H25.4v2.032H21.339Z" transform="translate(-1.016 -1.354)" fill="#9f0925"/>
      <path id="Trazado_108039" data-name="Trazado 108039" d="M25.4,29.468H39.629V31.5H25.4Z" transform="translate(-1.016 -1.354)" fill="#9f0925"/>
      <path id="Trazado_108040" data-name="Trazado 108040" d="M37.6,33.532h2.032v2.032H37.6Z" transform="translate(-1.016 -1.354)" fill="#9f0925"/>
      <path id="Trazado_108041" data-name="Trazado 108041" d="M29.468,33.532H31.5v2.032H29.468Z" transform="translate(-1.016 -1.354)" fill="#9f0925"/>
      <path id="Trazado_108042" data-name="Trazado 108042" d="M25.4,33.532h2.032v2.032H25.4Z" transform="translate(-1.016 -1.354)" fill="#9f0925"/>
      <path id="Trazado_108043" data-name="Trazado 108043" d="M33.532,33.532h2.032v2.032H33.532Z" transform="translate(-1.016 -1.354)" fill="#9f0925"/>
    </g>
  </g>
</svg>
