<svg xmlns="http://www.w3.org/2000/svg" xmlns:xlink="http://www.w3.org/1999/xlink" width="63" height="63" viewBox="0 0 63 63">
  <defs>
    <clipPath id="clip-path">
      <rect id="Rectángulo_8829" data-name="Rectángulo 8829" width="63" height="63" fill="#9f0925" stroke="#707070" stroke-width="1"/>
    </clipPath>
  </defs>
  <g id="Enmascarar_grupo_89" data-name="Enmascarar grupo 89" clip-path="url(#clip-path)">
    <g id="peligro-biologico" transform="translate(0 3.727)">
      <path id="Trazado_108047" data-name="Trazado 108047" d="M62.392,52.59,45.271,23.057a.929.929,0,1,0-1.608.932L60.784,53.523a2.592,2.592,0,0,1-2.242,3.892H4.458a2.592,2.592,0,0,1-2.242-3.892L29.258,6.877a2.592,2.592,0,0,1,4.485,0l7.934,13.685a.929.929,0,1,0,1.608-.932L35.351,5.945a4.451,4.451,0,0,0-7.7,0L.607,52.59a4.451,4.451,0,0,0,3.85,6.683H58.542a4.451,4.451,0,0,0,3.851-6.683Z" transform="translate(0 -3.727)" fill="#9f0925"/>
      <path id="Trazado_108048" data-name="Trazado 108048" d="M25.024,21.593a.929.929,0,1,0-1.608-.932L3.995,54.16a.929.929,0,0,0,.8,1.4H58.2a.929.929,0,0,0,.8-1.4l-3.8-6.568a.929.929,0,1,0-1.608.932l3,5.172H6.412Z" transform="translate(0 -3.727)" fill="#9f0925"/>
      <path id="Trazado_108049" data-name="Trazado 108049" d="M32.3,8.1a.929.929,0,0,0-1.608,0L25.4,17.233a.929.929,0,1,0,1.608.932L31.5,10.422,51.6,45.1a.929.929,0,0,0,1.608-.932Z" transform="translate(0 -3.727)" fill="#9f0925"/>
      <path id="Trazado_108050" data-name="Trazado 108050" d="M29.094,27.189a.929.929,0,1,0-.908-1.622A6.788,6.788,0,0,0,25.309,34.3a7.426,7.426,0,0,0-.554.99,6.8,6.8,0,0,0-5.591,8.55.93.93,0,1,0,1.791-.5,4.94,4.94,0,0,1,3.19-6.008,7.427,7.427,0,0,0,5.079,8.149l-.04.042a4.946,4.946,0,0,1-4.844,1.236.93.93,0,1,0-.514,1.787,6.8,6.8,0,0,0,6.666-1.7,6.874,6.874,0,0,0,.84-1.009H31.5c.106,0,.212,0,.317-.008a6.8,6.8,0,0,0,7.508,2.714.93.93,0,1,0-.514-1.787,4.946,4.946,0,0,1-4.844-1.236c-.027-.026-.052-.054-.077-.081a7.435,7.435,0,0,0,4.958-8.16,4.941,4.941,0,0,1,3.353,6.06.93.93,0,1,0,1.791.5,6.794,6.794,0,0,0-5.753-8.57,7.44,7.44,0,0,0-.545-.97,6.788,6.788,0,0,0-2.878-8.729.929.929,0,0,0-.908,1.622,4.938,4.938,0,0,1,2.378,5.531,7.413,7.413,0,0,0-9.567,0A4.939,4.939,0,0,1,29.1,27.192ZM25.926,38.4a5.572,5.572,0,0,1,.157-1.311A4.939,4.939,0,0,1,30.3,43.846,5.583,5.583,0,0,1,25.926,38.4Zm6.918,5.41A4.939,4.939,0,0,1,36.92,37.1a5.57,5.57,0,0,1-4.076,6.709ZM31.5,32.83a5.557,5.557,0,0,1,3.943,1.637,4.931,4.931,0,0,1-7.885,0A5.557,5.557,0,0,1,31.5,32.83Z" transform="translate(0 -3.727)" fill="#9f0925"/>
      <path id="Trazado_108051" data-name="Trazado 108051" d="M32.429,16.487v-.8a.929.929,0,1,0-1.859,0v.8a.929.929,0,0,0,1.859,0Z" transform="translate(0 -3.727)" fill="#9f0925"/>
      <path id="Trazado_108052" data-name="Trazado 108052" d="M10.824,50.25a.93.93,0,0,0,0,1.859h1.03a.93.93,0,0,0,0-1.859Z" transform="translate(0 -3.727)" fill="#9f0925"/>
      <path id="Trazado_108053" data-name="Trazado 108053" d="M52.328,52.109a.93.93,0,1,0,0-1.859H51.3a.93.93,0,0,0,0,1.859Z" transform="translate(0 -3.727)" fill="#9f0925"/>
    </g>
  </g>
</svg>
