<svg xmlns="http://www.w3.org/2000/svg" xmlns:xlink="http://www.w3.org/1999/xlink" width="63" height="63" viewBox="0 0 63 63">
  <defs>
    <clipPath id="clip-path">
      <rect id="Rectángulo_8827" data-name="Rectángulo 8827" width="63" height="63" fill="#9f0925" stroke="#707070" stroke-width="1"/>
    </clipPath>
  </defs>
  <g id="Enmascarar_grupo_85" data-name="Enmascarar grupo 85" clip-path="url(#clip-path)">
    <g id="brazo-mecanico">
      <g id="Grupo_70788" data-name="Grupo 70788" transform="translate(12.773 14.879)">
        <g id="Grupo_70787" data-name="Grupo 70787">
          <path id="Trazado_108021" data-name="Trazado 108021" d="M17.539,14.879l-4.765,15.5H19.42l4.62-15.028a8.931,8.931,0,0,1-6.5-.472Z" transform="translate(-12.773 -14.879)" fill="#9f0925"/>
        </g>
      </g>
      <g id="Grupo_70790" data-name="Grupo 70790" transform="translate(56.25 14.535)">
        <g id="Grupo_70789" data-name="Grupo 70789">
          <path id="Trazado_108022" data-name="Trazado 108022" d="M56.25,14.535v4.686a8.014,8.014,0,0,1,2.152-.03.747.747,0,0,1,.1.017V14.535a7.056,7.056,0,0,1-2.252,0Z" transform="translate(-56.25 -14.535)" fill="#9f0925"/>
        </g>
      </g>
      <g id="Grupo_70792" data-name="Grupo 70792" transform="translate(6.91 43.875)">
        <g id="Grupo_70791" data-name="Grupo 70791">
          <path id="Trazado_108023" data-name="Trazado 108023" d="M8.859,43.875,6.91,58.5H20.25V43.875Z" transform="translate(-6.91 -43.875)" fill="#9f0925"/>
        </g>
      </g>
      <g id="Grupo_70794" data-name="Grupo 70794" transform="translate(56.25 5.625)">
        <g id="Grupo_70793" data-name="Grupo 70793">
          <circle id="Elipse_4534" data-name="Elipse 4534" cx="1.125" cy="1.125" r="1.125" fill="#9f0925"/>
        </g>
      </g>
      <g id="Grupo_70796" data-name="Grupo 70796" transform="translate(51.75 1.125)">
        <g id="Grupo_70795" data-name="Grupo 70795">
          <path id="Trazado_108024" data-name="Trazado 108024" d="M57.375,1.125A5.625,5.625,0,1,0,63,6.75a5.625,5.625,0,0,0-5.625-5.625Zm0,9A3.375,3.375,0,1,1,60.75,6.75,3.375,3.375,0,0,1,57.375,10.125Z" transform="translate(-51.75 -1.125)" fill="#9f0925"/>
        </g>
      </g>
      <g id="Grupo_70798" data-name="Grupo 70798" transform="translate(14.625)">
        <g id="Grupo_70797" data-name="Grupo 70797">
          <path id="Trazado_108025" data-name="Trazado 108025" d="M21.375,0a6.75,6.75,0,1,0,6.75,6.75A6.75,6.75,0,0,0,21.375,0Zm0,11.25a4.5,4.5,0,1,1,4.5-4.5A4.5,4.5,0,0,1,21.375,11.25Z" transform="translate(-14.625)" fill="#9f0925"/>
        </g>
      </g>
      <g id="Grupo_70800" data-name="Grupo 70800" transform="translate(2.25 3.375)">
        <g id="Grupo_70799" data-name="Grupo 70799">
          <path id="Trazado_108026" data-name="Trazado 108026" d="M50.271,3.375H29.712a8.93,8.93,0,0,1,0,6.75H46.125v.012C39.7,10.287,33.75,12,33.75,24.75,33.75,35.82,24.036,36,23.625,36H22.5V32.625H6.75a4.5,4.5,0,0,0,0,9H22.5V38.25h1.125C23.749,38.25,36,38.1,36,24.75c0-11.464,4.876-12.375,11.25-12.375a1.125,1.125,0,0,0,1.125-1.125V10.125h1.9a7.778,7.778,0,0,1,0-6.75Z" transform="translate(-2.25 -3.375)" fill="#9f0925"/>
        </g>
      </g>
      <g id="Grupo_70802" data-name="Grupo 70802" transform="translate(51.75 21.376)">
        <g id="Grupo_70801" data-name="Grupo 70801">
          <path id="Trazado_108027" data-name="Trazado 108027" d="M59.19,21.681h0a5.184,5.184,0,0,0-1.066-.255,5.647,5.647,0,0,0-2.545.251l-.028.01A5.625,5.625,0,0,0,51.75,27v1.125a1.125,1.125,0,0,0,2.25,0V27a3.376,3.376,0,1,1,6.75.136v.989a1.125,1.125,0,0,0,2.25,0v-.893A5.831,5.831,0,0,0,59.19,21.681Z" transform="translate(-51.75 -21.376)" fill="#9f0925"/>
        </g>
      </g>
      <g id="Grupo_70804" data-name="Grupo 70804" transform="translate(0 60.75)">
        <g id="Grupo_70803" data-name="Grupo 70803">
          <path id="Trazado_108028" data-name="Trazado 108028" d="M25.875,60.75H1.125a1.125,1.125,0,0,0,0,2.25h24.75a1.125,1.125,0,0,0,0-2.25Z" transform="translate(0 -60.75)" fill="#9f0925"/>
        </g>
      </g>
      <g id="Grupo_70806" data-name="Grupo 70806" transform="translate(19.125 4.5)">
        <g id="Grupo_70805" data-name="Grupo 70805">
          <circle id="Elipse_4535" data-name="Elipse 4535" cx="2.25" cy="2.25" r="2.25" fill="#9f0925"/>
        </g>
      </g>
    </g>
  </g>
</svg>
