<svg xmlns="http://www.w3.org/2000/svg" width="820" height="256" viewBox="0 0 820 256">
  <g id="Grupo_1052761" data-name="Grupo 1052761" transform="translate(-390 -1096)">
    <g id="Trazado_773806" data-name="Trazado 773806" transform="translate(390 1096)" fill="#fff">
      <path d="M 171 255.5 L 17 255.5 C 12.59270000457764 255.5 8.449166297912598 253.7837066650391 5.332733154296875 250.6672668457031 C 2.216300010681152 247.5508270263672 0.5 243.4073028564453 0.5 239 L 0.5 17 C 0.5 12.59270000457764 2.216300010681152 8.449166297912598 5.332733154296875 5.332733154296875 C 8.449166297912598 2.216300010681152 12.59270000457764 0.5 17 0.5 L 171 0.5 C 175.4073028564453 0.5 179.5508270263672 2.216300010681152 182.6672668457031 5.332733154296875 C 185.7837066650391 8.449166297912598 187.5 12.59270000457764 187.5 17 L 187.5 239 C 187.5 243.4073028564453 185.7837066650391 247.5508270263672 182.6672668457031 250.6672668457031 C 179.5508270263672 253.7837066650391 175.4073028564453 255.5 171 255.5 Z" stroke="none"/>
      <path d="M 17 1 C 12.72622680664062 1 8.708297729492188 2.664306640625 5.686294555664062 5.686294555664062 C 2.664306640625 8.708297729492188 1 12.72622680664062 1 17 L 1 239 C 1 243.2737731933594 2.664306640625 247.2917022705078 5.686294555664062 250.3137054443359 C 8.708297729492188 253.335693359375 12.72622680664062 255 17 255 L 171 255 C 175.2737731933594 255 179.2917022705078 253.335693359375 182.3137054443359 250.3137054443359 C 185.335693359375 247.2917022705078 187 243.2737731933594 187 239 L 187 17 C 187 12.72622680664062 185.335693359375 8.708297729492188 182.3137054443359 5.686294555664062 C 179.2917022705078 2.664306640625 175.2737731933594 1 171 1 L 17 1 M 17 0 L 171 0 C 180.3888397216797 0 188 7.611160278320312 188 17 L 188 239 C 188 248.3888397216797 180.3888397216797 256 171 256 L 17 256 C 7.611160278320312 256 0 248.3888397216797 0 239 L 0 17 C 0 7.611160278320312 7.611160278320312 0 17 0 Z" stroke="none" fill="#9f0925"/>
    </g>
    <path id="Trazado_773817" data-name="Trazado 773817" d="M-28.906-7.126a9.013,9.013,0,0,1-.779,3.866A5.869,5.869,0,0,1-31.915-.7a6.169,6.169,0,0,1-3.327.9,6.211,6.211,0,0,1-3.312-.892,5.926,5.926,0,0,1-2.256-2.548,8.755,8.755,0,0,1-.81-3.809v-.738a8.965,8.965,0,0,1,.795-3.881,5.917,5.917,0,0,1,2.246-2.574,6.177,6.177,0,0,1,3.317-.9,6.177,6.177,0,0,1,3.317.9A5.917,5.917,0,0,1-29.7-11.664a8.94,8.94,0,0,1,.795,3.871ZM-32.023-7.8a6.283,6.283,0,0,0-.841-3.568,2.74,2.74,0,0,0-2.4-1.22,2.741,2.741,0,0,0-2.389,1.2A6.211,6.211,0,0,0-38.5-7.854v.728a6.361,6.361,0,0,0,.841,3.548,2.733,2.733,0,0,0,2.42,1.261,2.708,2.708,0,0,0,2.379-1.215,6.324,6.324,0,0,0,.841-3.543Zm8.429,2.543V0H-26.67V-14.93h5.824a6.738,6.738,0,0,1,2.958.615,4.534,4.534,0,0,1,1.964,1.748,4.875,4.875,0,0,1,.687,2.579,4.287,4.287,0,0,1-1.5,3.461A6.257,6.257,0,0,1-20.9-5.26Zm0-2.492h2.748a2.7,2.7,0,0,0,1.861-.574,2.088,2.088,0,0,0,.641-1.641,2.463,2.463,0,0,0-.646-1.774,2.413,2.413,0,0,0-1.784-.7h-2.82Zm21.708-4.686H-6.46V0H-9.536V-12.438h-4.512V-14.93H-1.887ZM3.138,0H.062V-14.93H3.138ZM16.929-12.438H12.356V0H9.28V-12.438H4.768V-14.93H16.929ZM27.665-6.491H21.759v4.02H28.69V0H18.683V-14.93H28.67v2.492H21.759V-8.88h5.906Zm8.172-3.292,2.8-5.147h3.538l-4.348,7.4L42.287,0H38.708L35.837-5.229,32.966,0H29.388l4.46-7.526L29.5-14.93h3.538Z" transform="translate(478 1297)" fill="#12263f"/>
    <path id="Trazado_773818" data-name="Trazado 773818" d="M58,0c32.033,0,58,26.191,58,58.5S90.033,117,58,117,0,90.809,0,58.5,25.967,0,58,0Z" transform="translate(426 1145)" fill="#ff6e33"/>
    <path id="Trazado_773819" data-name="Trazado 773819" d="M52.5,0A52.5,52.5,0,1,1,0,52.5,52.5,52.5,0,0,1,52.5,0Z" transform="translate(431 1151)" fill="#effefe"/>
    <path id="Trazado_772498" data-name="Trazado 772498" d="M1571.009,1733.352A46.384,46.384,0,1,0,1601.9,1814.3l14.514-44.044A46.461,46.461,0,0,0,1571.009,1733.352Zm.615,73.909a28.141,28.141,0,1,1,28.142-28.141A28.173,28.173,0,0,1,1571.624,1807.262Z" transform="translate(-1088.003 -576.443)" fill="#12263f"/>
    <g id="Trazado_773803" data-name="Trazado 773803" transform="translate(597 1096)" fill="#fff">
      <path d="M 171 255.5 L 17 255.5 C 12.59270000457764 255.5 8.449166297912598 253.7837066650391 5.332733154296875 250.6672668457031 C 2.216300010681152 247.5508270263672 0.5 243.4073028564453 0.5 239 L 0.5 17 C 0.5 12.59270000457764 2.216300010681152 8.449166297912598 5.332733154296875 5.332733154296875 C 8.449166297912598 2.216300010681152 12.59270000457764 0.5 17 0.5 L 171 0.5 C 175.4073028564453 0.5 179.5508270263672 2.216300010681152 182.6672668457031 5.332733154296875 C 185.7837066650391 8.449166297912598 187.5 12.59270000457764 187.5 17 L 187.5 239 C 187.5 243.4073028564453 185.7837066650391 247.5508270263672 182.6672668457031 250.6672668457031 C 179.5508270263672 253.7837066650391 175.4073028564453 255.5 171 255.5 Z" stroke="none"/>
      <path d="M 17 1 C 12.72622680664062 1 8.708297729492188 2.664306640625 5.686294555664062 5.686294555664062 C 2.664306640625 8.708297729492188 1 12.72622680664062 1 17 L 1 239 C 1 243.2737731933594 2.664306640625 247.2917022705078 5.686294555664062 250.3137054443359 C 8.708297729492188 253.335693359375 12.72622680664062 255 17 255 L 171 255 C 175.2737731933594 255 179.2917022705078 253.335693359375 182.3137054443359 250.3137054443359 C 185.335693359375 247.2917022705078 187 243.2737731933594 187 239 L 187 17 C 187 12.72622680664062 185.335693359375 8.708297729492188 182.3137054443359 5.686294555664062 C 179.2917022705078 2.664306640625 175.2737731933594 1 171 1 L 17 1 M 17 0 L 171 0 C 180.3888397216797 0 188 7.611160278320312 188 17 L 188 239 C 188 248.3888397216797 180.3888397216797 256 171 256 L 17 256 C 7.611160278320312 256 0 248.3888397216797 0 239 L 0 17 C 0 7.611160278320312 7.611160278320312 0 17 0 Z" stroke="none" fill="#9f0925"/>
    </g>
    <path id="Trazado_773807" data-name="Trazado 773807" d="M-37.032-3.076h-5.394L-43.451,0h-3.271l5.558-14.93h2.851L-32.725,0H-36Zm-4.563-2.492h3.732l-1.876-5.588Zm21.39-9.362V-5.1A5.035,5.035,0,0,1-21.738-1.22,5.91,5.91,0,0,1-25.927.205,5.976,5.976,0,0,1-30.08-1.179a4.949,4.949,0,0,1-1.569-3.8V-14.93h3.076v9.854a2.845,2.845,0,0,0,.7,2.138,2.7,2.7,0,0,0,1.943.672q2.594,0,2.635-2.728V-14.93ZM-17.683,0V-14.93h4.594a6.976,6.976,0,0,1,3.522.887A6.185,6.185,0,0,1-7.142-11.52,7.78,7.78,0,0,1-6.27-7.8v.687a7.8,7.8,0,0,1-.856,3.7A6.132,6.132,0,0,1-9.541-.9a7.029,7.029,0,0,1-3.517.9Zm3.076-12.438v9.967h1.487A3.341,3.341,0,0,0-10.362-3.65a5.329,5.329,0,0,0,.974-3.374v-.79a5.413,5.413,0,0,0-.943-3.45,3.329,3.329,0,0,0-2.758-1.174ZM4.178-3.076H-1.215L-2.24,0H-5.511L.046-14.93H2.9L8.485,0H5.214ZM-.385-5.568H3.348L1.471-11.156Zm21.769.595a5.283,5.283,0,0,1-1.779,3.794A6.248,6.248,0,0,1,15.376.205a5.618,5.618,0,0,1-4.517-1.933A7.925,7.925,0,0,1,9.213-7.034v-.913a8.95,8.95,0,0,1,.759-3.794,5.686,5.686,0,0,1,2.169-2.517,6.075,6.075,0,0,1,3.276-.877A6.087,6.087,0,0,1,19.58-13.75a5.677,5.677,0,0,1,1.825,3.886H18.329a3.118,3.118,0,0,0-.8-2.1,2.981,2.981,0,0,0-2.107-.651,2.614,2.614,0,0,0-2.3,1.1,6.178,6.178,0,0,0-.784,3.42v1.128a6.612,6.612,0,0,0,.733,3.538,2.565,2.565,0,0,0,2.312,1.118A3.037,3.037,0,0,0,17.5-2.958a2.941,2.941,0,0,0,.8-2.015Zm11-1.518H26.481v4.02h6.932V0H23.4V-14.93h9.987v2.492H26.481V-8.88h5.906ZM42.959-3.917a1.579,1.579,0,0,0-.615-1.338,8.07,8.07,0,0,0-2.215-.984A15.7,15.7,0,0,1,37.6-7.26a4.138,4.138,0,0,1-2.543-3.7,3.605,3.605,0,0,1,.682-2.158A4.448,4.448,0,0,1,37.693-14.6a7.372,7.372,0,0,1,2.866-.533,6.71,6.71,0,0,1,2.851.579,4.539,4.539,0,0,1,1.943,1.635,4.28,4.28,0,0,1,.692,2.4H42.969a2.013,2.013,0,0,0-.646-1.594,2.655,2.655,0,0,0-1.815-.569,2.837,2.837,0,0,0-1.753.477,1.5,1.5,0,0,0-.625,1.256,1.44,1.44,0,0,0,.733,1.22,8.283,8.283,0,0,0,2.158.923A9.326,9.326,0,0,1,44.845-6.85a3.9,3.9,0,0,1,1.2,2.912A3.593,3.593,0,0,1,44.579-.9a6.419,6.419,0,0,1-3.948,1.1,7.623,7.623,0,0,1-3.138-.631,4.965,4.965,0,0,1-2.158-1.728A4.425,4.425,0,0,1,34.592-4.7h3.086q0,2.471,2.953,2.471a2.873,2.873,0,0,0,1.712-.446A1.451,1.451,0,0,0,42.959-3.917Z" transform="translate(686 1297)" fill="#12263f"/>
    <path id="Trazado_773808" data-name="Trazado 773808" d="M59,0c32.585,0,59,26.191,59,58.5S91.585,117,59,117,0,90.809,0,58.5,26.415,0,59,0Z" transform="translate(633 1145)" fill="#ea526f"/>
    <path id="Trazado_773809" data-name="Trazado 773809" d="M53,0c29.271,0,53,23.505,53,52.5S82.271,105,53,105,0,81.495,0,52.5,23.729,0,53,0Z" transform="translate(639 1151)" fill="#effefe"/>
    <path id="Trazado_772499" data-name="Trazado 772499" d="M1867.817,1247.725c-5.809.088-12.832-1.661-19.459-5.069-2.951-1.518-3.256-2.315-1.822-5.324q9.584-20.1,19.227-40.172a5.3,5.3,0,0,0,.018-5.2c-1.43-2.742-2.635-5.6-4.016-8.371a7.989,7.989,0,0,0-1.44-1.6,8.312,8.312,0,0,0-1.422,1.647q-6.306,13.122-12.533,26.283-4.762,10.007-9.534,20.009c-1.149,2.4-1.936,2.515-3.524.46a46.271,46.271,0,0,1-10-26.192,46.445,46.445,0,0,1,31.244-46.909c1.856-.655,2.9-.218,3.788,1.675q16.531,35.152,33.207,70.236c1.231,2.6,2.431,5.217,3.685,7.808.852,1.762.511,2.969-1.258,4.01C1886.179,1245.609,1878.6,1247.734,1867.817,1247.725Z" transform="translate(-1178.06 2.386)" fill="#0071cd"/>
    <path id="Trazado_772500" data-name="Trazado 772500" d="M1937.676,1152.2c17.038,1.963,30.037,10.243,37.61,25.719,7.932,16.208,6.464,32.164-3.462,47.268-1.546,2.353-2.476,2.207-3.707-.388q-16.6-35-33.211-70C1933.733,1152.323,1933.983,1152.088,1937.676,1152.2Z" transform="translate(-1242.116 5.17)" fill="#0071cd"/>
    <g id="Trazado_773804" data-name="Trazado 773804" transform="translate(805 1096)" fill="#fff">
      <path d="M 171 255.5 L 17 255.5 C 12.59270000457764 255.5 8.449166297912598 253.7837066650391 5.332733154296875 250.6672668457031 C 2.216300010681152 247.5508270263672 0.5 243.4073028564453 0.5 239 L 0.5 17 C 0.5 12.59270000457764 2.216300010681152 8.449166297912598 5.332733154296875 5.332733154296875 C 8.449166297912598 2.216300010681152 12.59270000457764 0.5 17 0.5 L 171 0.5 C 175.4073028564453 0.5 179.5508270263672 2.216300010681152 182.6672668457031 5.332733154296875 C 185.7837066650391 8.449166297912598 187.5 12.59270000457764 187.5 17 L 187.5 239 C 187.5 243.4073028564453 185.7837066650391 247.5508270263672 182.6672668457031 250.6672668457031 C 179.5508270263672 253.7837066650391 175.4073028564453 255.5 171 255.5 Z" stroke="none"/>
      <path d="M 17 1 C 12.72622680664062 1 8.708297729492188 2.664306640625 5.686294555664062 5.686294555664062 C 2.664306640625 8.708297729492188 1 12.72622680664062 1 17 L 1 239 C 1 243.2737731933594 2.664306640625 247.2917022705078 5.686294555664062 250.3137054443359 C 8.708297729492188 253.335693359375 12.72622680664062 255 17 255 L 171 255 C 175.2737731933594 255 179.2917022705078 253.335693359375 182.3137054443359 250.3137054443359 C 185.335693359375 247.2917022705078 187 243.2737731933594 187 239 L 187 17 C 187 12.72622680664062 185.335693359375 8.708297729492188 182.3137054443359 5.686294555664062 C 179.2917022705078 2.664306640625 175.2737731933594 1 171 1 L 17 1 M 17 0 L 171 0 C 180.3888397216797 0 188 7.611160278320312 188 17 L 188 239 C 188 248.3888397216797 180.3888397216797 256 171 256 L 17 256 C 7.611160278320312 256 0 248.3888397216797 0 239 L 0 17 C 0 7.611160278320312 7.611160278320312 0 17 0 Z" stroke="none" fill="#9f0925"/>
    </g>
    <path id="Trazado_773810" data-name="Trazado 773810" d="M-27.156-1.977A5.594,5.594,0,0,1-29.616-.36,10.3,10.3,0,0,1-33.14.215,6.98,6.98,0,0,1-36.7-.671a5.911,5.911,0,0,1-2.363-2.573,9.055,9.055,0,0,1-.854-3.964V-8.271a9.616,9.616,0,0,1,.79-4.055,5.841,5.841,0,0,1,2.277-2.621,6.56,6.56,0,0,1,3.486-.908,6.533,6.533,0,0,1,4.351,1.327,5.67,5.67,0,0,1,1.858,3.862h-3.137a3.119,3.119,0,0,0-.951-1.966,3.036,3.036,0,0,0-2.025-.623,2.858,2.858,0,0,0-2.5,1.235,6.5,6.5,0,0,0-.87,3.674v1a6.184,6.184,0,0,0,.935,3.717,3.2,3.2,0,0,0,2.739,1.257,3.575,3.575,0,0,0,2.589-.773v-2.7h-2.933V-8.218h6.155ZM-15.136-6.8h-6.187v4.211h7.262V0H-24.546V-15.641h10.463v2.61h-7.24V-9.3h6.188Zm8.755,1.074H-8.948V0h-3.223V-15.641h5.812a6.57,6.57,0,0,1,4.275,1.235,4.264,4.264,0,0,1,1.5,3.491,4.812,4.812,0,0,1-.693,2.669,4.725,4.725,0,0,1-2.1,1.7L.011-.15V0H-3.448Zm-2.567-2.61h2.6a2.662,2.662,0,0,0,1.88-.618,2.208,2.208,0,0,0,.666-1.7,2.363,2.363,0,0,0-.628-1.74,2.612,2.612,0,0,0-1.928-.634H-8.948ZM1.869,0V-15.641H7.348a7.194,7.194,0,0,1,4.318,1.09,3.728,3.728,0,0,1,1.472,3.2,3.534,3.534,0,0,1-.591,2.025A3.413,3.413,0,0,1,10.9-8.046a3.3,3.3,0,0,1,1.9,1.214A3.589,3.589,0,0,1,13.492-4.6a4.128,4.128,0,0,1-1.439,3.416A6.48,6.48,0,0,1,7.949,0ZM5.092-6.811v4.222H7.853A2.664,2.664,0,0,0,9.63-3.131a1.86,1.86,0,0,0,.639-1.5A1.964,1.964,0,0,0,8.046-6.811Zm0-2.277H7.477q2.438-.043,2.438-1.944A1.8,1.8,0,0,0,9.3-12.563a3.249,3.249,0,0,0-1.95-.467H5.092ZM25.319-6.8H19.132v4.211h7.262V0H15.909V-15.641H26.372v2.61h-7.24V-9.3h6.188Zm8.755,1.074H31.507V0H28.284V-15.641H34.1a6.57,6.57,0,0,1,4.275,1.235,4.264,4.264,0,0,1,1.5,3.491,4.812,4.812,0,0,1-.693,2.669,4.725,4.725,0,0,1-2.1,1.7L40.466-.15V0H37.007Zm-2.567-2.61h2.6a2.662,2.662,0,0,0,1.88-.618,2.208,2.208,0,0,0,.666-1.7,2.363,2.363,0,0,0-.628-1.74A2.612,2.612,0,0,0,34.1-13.03H31.507Z" transform="translate(896 1296.999)" fill="#12263f"/>
    <path id="Trazado_773811" data-name="Trazado 773811" d="M58.5,0A58.5,58.5,0,1,1,0,58.5,58.5,58.5,0,0,1,58.5,0Z" transform="translate(841 1144)" fill="#7897ea"/>
    <path id="Trazado_773812" data-name="Trazado 773812" d="M52.5,0A52.5,52.5,0,1,1,0,52.5,52.5,52.5,0,0,1,52.5,0Z" transform="translate(846 1150)" fill="#effefe"/>
    <path id="Trazado_772501" data-name="Trazado 772501" d="M1891.1,1606.567l-.3-.251h0c-.289-.292-4.8-4.825-6.715-6.853a2.923,2.923,0,0,0-2.357-.966q-21.144.042-42.288.023c-.47,0-.94.052-1.41.079-.635.056-.4.56-.4.871-.014,9.96,0,19.92-.027,29.879,0,.811.245,1.053,1.05,1.051,10.906-.021,21.813-.011,32.719-.026.35,0,.922.274.963-.458q.029-5.787.053-11.575c0-.256.084-.591-.334-.646h0c-.519-.021-1.037-.061-1.555-.061q-9.437-.007-18.872-.01a.884.884,0,0,1-.326-.073,1.623,1.623,0,0,1-.974-1.479,36.172,36.172,0,0,1,.139-4.743l.012-.01c8.953.008,17.906.034,26.859,0,1.053,0,1.349.245,1.342,1.324q-.075,11.375,0,22.751c.01,1.2-.4,1.363-1.449,1.361q-22.25-.046-44.5.006c-1.132,0-1.4-.307-1.4-1.413q.06-21.471.031-42.942a.3.3,0,0,0,.142-.209c.031-.013.063-.025.093-.035a3.329,3.329,0,0,0,1.166.041q21.141.013,42.282.006a4.848,4.848,0,0,0,1.131-.04c.22-.053.245-.246.111-.437-.169-.087-8.73-8.691-12.159-12.087h0c-.432-.441-.985-.245-1.481-.245q-19.16-.017-38.32,0a17.264,17.264,0,0,0-2.769.427h0a3.561,3.561,0,0,0-2.731,2.763c.018.425.055,41.736.052,61.966,0,.661-.04,1.322-.062,1.982.155,1.875,2.695,3.218,4.927,3.22q31.277.03,62.554.008a4.792,4.792,0,0,0,4.879-3.814C1891.156,1645.473,1891.1,1619.221,1891.1,1606.567Z" transform="translate(-953.26 -413.914)" fill="#f3aa14"/>
    <g id="Trazado_773805" data-name="Trazado 773805" transform="translate(1022 1096)" fill="#fff">
      <path d="M 171 255.5 L 17 255.5 C 12.59270000457764 255.5 8.449166297912598 253.7837066650391 5.332733154296875 250.6672668457031 C 2.216300010681152 247.5508270263672 0.5 243.4073028564453 0.5 239 L 0.5 17 C 0.5 12.59270000457764 2.216300010681152 8.449166297912598 5.332733154296875 5.332733154296875 C 8.449166297912598 2.216300010681152 12.59270000457764 0.5 17 0.5 L 171 0.5 C 175.4073028564453 0.5 179.5508270263672 2.216300010681152 182.6672668457031 5.332733154296875 C 185.7837066650391 8.449166297912598 187.5 12.59270000457764 187.5 17 L 187.5 239 C 187.5 243.4073028564453 185.7837066650391 247.5508270263672 182.6672668457031 250.6672668457031 C 179.5508270263672 253.7837066650391 175.4073028564453 255.5 171 255.5 Z" stroke="none"/>
      <path d="M 17 1 C 12.72622680664062 1 8.708297729492188 2.664306640625 5.686294555664062 5.686294555664062 C 2.664306640625 8.708297729492188 1 12.72622680664062 1 17 L 1 239 C 1 243.2737731933594 2.664306640625 247.2917022705078 5.686294555664062 250.3137054443359 C 8.708297729492188 253.335693359375 12.72622680664062 255 17 255 L 171 255 C 175.2737731933594 255 179.2917022705078 253.335693359375 182.3137054443359 250.3137054443359 C 185.335693359375 247.2917022705078 187 243.2737731933594 187 239 L 187 17 C 187 12.72622680664062 185.335693359375 8.708297729492188 182.3137054443359 5.686294555664062 C 179.2917022705078 2.664306640625 175.2737731933594 1 171 1 L 17 1 M 17 0 L 171 0 C 180.3888397216797 0 188 7.611160278320312 188 17 L 188 239 C 188 248.3888397216797 180.3888397216797 256 171 256 L 17 256 C 7.611160278320312 256 0 248.3888397216797 0 239 L 0 17 C 0 7.611160278320312 7.611160278320312 0 17 0 Z" stroke="none" fill="#9f0925"/>
    </g>
    <path id="Trazado_773813" data-name="Trazado 773813" d="M-35.793-2.589h6.843V0H-39.016V-15.641h3.223Zm18.1-4.211H-23.88v4.211h7.262V0H-27.1V-15.641H-16.64v2.61h-7.24V-9.3h6.188ZM-2.449-5.21A5.535,5.535,0,0,1-4.313-1.235,6.546,6.546,0,0,1-8.744.215,5.886,5.886,0,0,1-13.476-1.81,8.3,8.3,0,0,1-15.2-7.369v-.956a9.376,9.376,0,0,1,.795-3.975,5.957,5.957,0,0,1,2.272-2.637A6.364,6.364,0,0,1-8.7-15.855a6.376,6.376,0,0,1,4.361,1.45,5.948,5.948,0,0,1,1.912,4.071H-5.65a3.266,3.266,0,0,0-.843-2.2A3.123,3.123,0,0,0-8.7-13.213a2.738,2.738,0,0,0-2.412,1.155,6.472,6.472,0,0,0-.822,3.583v1.182a6.927,6.927,0,0,0,.768,3.706A2.687,2.687,0,0,0-8.744-2.417,3.182,3.182,0,0,0-6.515-3.1,3.081,3.081,0,0,0-5.672-5.21Zm13.578-7.82H6.338V0H3.115V-13.03H-1.611v-2.61h12.74Zm7.627,7.3H16.188V0H12.966V-15.641h5.812a6.57,6.57,0,0,1,4.275,1.235,4.264,4.264,0,0,1,1.5,3.491,4.812,4.812,0,0,1-.693,2.669,4.725,4.725,0,0,1-2.1,1.7L25.147-.15V0H21.688Zm-2.567-2.61h2.6a2.662,2.662,0,0,0,1.88-.618,2.208,2.208,0,0,0,.666-1.7,2.363,2.363,0,0,0-.628-1.74,2.612,2.612,0,0,0-1.928-.634H16.188ZM35.836-3.223h-5.65L29.111,0H25.685l5.822-15.641h2.986L40.348,0H36.921Zm-4.78-2.61h3.91L33-11.687Z" transform="translate(1113 1296.999)" fill="#12263f"/>
    <path id="Trazado_773814" data-name="Trazado 773814" d="M58,0c32.033,0,58,26.191,58,58.5S90.033,117,58,117,0,90.809,0,58.5,25.967,0,58,0Z" transform="translate(1058 1144)" fill="#0ce6ea"/>
    <path id="Trazado_773815" data-name="Trazado 773815" d="M52.5,0A52.5,52.5,0,1,1,0,52.5,52.5,52.5,0,0,1,52.5,0Z" transform="translate(1064 1150)" fill="#effefe"/>
    <path id="Trazado_773816" data-name="Trazado 773816" d="M0,0H56.537V11.269H0Z" transform="translate(1089.411 1163.229)" fill="#a22428"/>
    <path id="Trazado_772502" data-name="Trazado 772502" d="M1752.832,1654.46v-23.08h23.292v-10.8h-34.091v44.678h56.536v-10.8Z" transform="translate(-652.621 -423.003)" fill="#0c0c0e"/>
  </g>
</svg>
