<svg xmlns="http://www.w3.org/2000/svg" xmlns:xlink="http://www.w3.org/1999/xlink" width="284.234" height="190.742" viewBox="0 0 284.234 190.742">
  <defs>
    <linearGradient id="linear-gradient" x1="0.447" y1="0.064" x2="0.563" y2="1.019" gradientUnits="objectBoundingBox">
      <stop offset="0" stop-color="#edffff"/>
      <stop offset="1" stop-color="#888681" stop-opacity="0.4"/>
    </linearGradient>
    <linearGradient id="linear-gradient-2" x1="0.5" y1="-0.013" x2="0.5" y2="0.584" gradientUnits="objectBoundingBox">
      <stop offset="0" stop-color="#8bcee5"/>
      <stop offset="1" stop-color="#888681"/>
    </linearGradient>
  </defs>
  <g id="Grupo_1052725" data-name="Grupo 1052725" transform="translate(9206.234 9169.973)">
    <g id="Grupo_1052563" data-name="Grupo 1052563" transform="translate(24.509 -251.667)">
      <g id="Grupo_1052547" data-name="Grupo 1052547" transform="translate(-9230.743 -8730.38)">
        <g id="Grupo_69777" data-name="Grupo 69777" transform="translate(10.641 0)">
          <path id="Trazado_106435" data-name="Trazado 106435" d="M6925.034,2623.243H6654.256a1.408,1.408,0,0,1,0-2.817h270.778a1.408,1.408,0,0,1,0,2.817Z" transform="translate(-6652.849 -2620.427)" fill="#40404c"/>
        </g>
        <g id="Grupo_69778" data-name="Grupo 69778" transform="translate(0 0)">
          <path id="Trazado_106436" data-name="Trazado 106436" d="M6636.234,2623.243h-3.6a1.408,1.408,0,1,1,0-2.817h3.6a1.408,1.408,0,0,1,0,2.817Z" transform="translate(-6631.227 -2620.427)" fill="#40404c"/>
        </g>
      </g>
      <g id="Grupo_1052538" data-name="Grupo 1052538" transform="translate(-9059.808 -8918.306)">
        <g id="Grupo_69784" data-name="Grupo 69784" transform="translate(45.056 97.275)">
          <g id="Grupo_69780" data-name="Grupo 69780" transform="translate(23.235 0.531)">
            <path id="Trazado_106437" data-name="Trazado 106437" d="M7129.89,2524.413a5.626,5.626,0,0,1-5.6-5.111l-6.969-75.842a5.626,5.626,0,0,1,11.205-1.03l6.967,75.842a5.625,5.625,0,0,1-5.086,6.117C7130.236,2524.406,7130.061,2524.413,7129.89,2524.413Z" transform="translate(-7117.301 -2437.319)" fill="#0075a4"/>
          </g>
          <g id="Grupo_69781" data-name="Grupo 69781" transform="translate(5.749)">
            <path id="Trazado_106438" data-name="Trazado 106438" d="M7092.736,2523.865a5.627,5.627,0,0,1-5.606-5.233l-5.344-76.373a5.626,5.626,0,0,1,11.225-.785l5.344,76.372a5.626,5.626,0,0,1-5.22,6.005C7093,2523.861,7092.868,2523.865,7092.736,2523.865Z" transform="translate(-7081.772 -2436.24)" fill="#0075a4"/>
          </g>
          <g id="Grupo_69782" data-name="Grupo 69782" transform="translate(0 82)">
            <path id="Trazado_106439" data-name="Trazado 106439" d="M7070.091,2608.24l11.181-5.389h11.373v9.611h-22.554Z" transform="translate(-7070.091 -2602.851)" fill="#5c6863"/>
            <rect id="Rectángulo_7249" data-name="Rectángulo 7249" width="22.554" height="2.662" transform="translate(0 6.95)" fill="#e6eaed"/>
          </g>
          <g id="Grupo_69783" data-name="Grupo 69783" transform="translate(30.143 82)">
            <path id="Trazado_106440" data-name="Trazado 106440" d="M7153.892,2608.24l-11.183-5.389h-11.372v9.611h22.554Z" transform="translate(-7131.338 -2602.851)" fill="#5c6863"/>
            <rect id="Rectángulo_7250" data-name="Rectángulo 7250" width="22.554" height="2.662" transform="translate(0 6.95)" fill="#e6eaed"/>
          </g>
        </g>
        <path id="Trazado_106441" data-name="Trazado 106441" d="M7109.459,2432.827l-27.818,2.039c-.781-3.739-1.188-10.465-1.444-15.385,10.438-3.163,18.438-4.254,28.613-.663C7108.811,2422.938,7109.459,2426.125,7109.459,2432.827Z" transform="translate(-7030.167 -2328.978)" fill="#0075a4"/>
        <path id="Trazado_106442" data-name="Trazado 106442" d="M7106.4,2369.6l-28.613.663c-1.665-12.2-2.087-33.371-2.339-47.976,10.437-3.163,18.8-3.768,28.971-.178C7105.536,2336.889,7104.671,2351.781,7106.4,2369.6Z" transform="translate(-7027.753 -2279.758)" fill="#ea526f"/>
        <path id="Trazado_106443" data-name="Trazado 106443" d="M7105.1,2321.92v-1.774a39.568,39.568,0,0,0-13.288.188v1.586a6.644,6.644,0,0,0,6.645,6.644h0A6.644,6.644,0,0,0,7105.1,2321.92Z" transform="translate(-7036.067 -2279.767)" fill="#881228"/>
        <g id="Grupo_69785" data-name="Grupo 69785" transform="translate(8.951 42.013)">
          <path id="Trazado_106444" data-name="Trazado 106444" d="M7010.491,2357.392a59.2,59.2,0,0,1-10.789-1.118,3.639,3.639,0,1,1,1.336-7.154c19.319,3.606,22.486-2.606,28.233-13.883,1.49-2.922,3.178-6.234,5.294-9.586a3.639,3.639,0,0,1,6.153,3.886c-1.937,3.068-3.475,6.086-4.963,9C7030.663,2348.534,7026.149,2357.392,7010.491,2357.392Z" transform="translate(-6996.73 -2323.954)" fill="#e38e4a"/>
        </g>
        <g id="Grupo_69786" data-name="Grupo 69786" transform="translate(65.422 43.618)">
          <path id="Trazado_106445" data-name="Trazado 106445" d="M7115.108,2368.12a3.64,3.64,0,0,1-.985-7.143c7.407-2.088,14.128-4.173,15-6.72,1.17-3.4-5.127-12.65-11.44-21.249a3.639,3.639,0,1,1,5.866-4.308c10.18,13.862,14.64,21.577,12.457,27.924-2.036,5.918-9.2,8.339-19.912,11.358A3.655,3.655,0,0,1,7115.108,2368.12Z" transform="translate(-7111.47 -2327.215)" fill="#e38e4a"/>
        </g>
        <path id="Trazado_106446" data-name="Trazado 106446" d="M7102.015,2322.873h0a3.634,3.634,0,0,1-3.884-3.366l-.406-5.665,7.251-.519.4,5.665A3.634,3.634,0,0,1,7102.015,2322.873Z" transform="translate(-7039.068 -2276.543)" fill="#e38e4a"/>
        <path id="Trazado_106447" data-name="Trazado 106447" d="M7101.337,2313.4h0a3.635,3.635,0,0,1-3.885-3.366l-.578-8.085,7.251-.519.579,8.084A3.635,3.635,0,0,1,7101.337,2313.4Z" transform="translate(-7038.636 -2270.501)" fill="#d26b3e"/>
        <path id="Trazado_106448" data-name="Trazado 106448" d="M7069.84,2334.934l-6.2,7.584-11.439-5.36c8.386-14.045,11.65-14.19,17.34-15.244Z" transform="translate(-7015.95 -2280.905)" fill="#ea526f"/>
        <path id="Trazado_106449" data-name="Trazado 106449" d="M7119.3,2334.4l8.576,7.888,9.378-7.854c-4.116-5.744-5.028-10.626-15.018-12.515Z" transform="translate(-7050.024 -2280.905)" fill="#ea526f"/>
        <g id="Grupo_69793" data-name="Grupo 69793" transform="translate(45.82)">
          <path id="Trazado_106450" data-name="Trazado 106450" d="M7078.638,2286.869c1.463,1.973,1.371,4.521-.207,5.693s-4.043.521-5.508-1.452-1.37-4.521.207-5.692S7077.174,2284.9,7078.638,2286.869Z" transform="translate(-7071.765 -2262.075)" fill="#e38e4a"/>
          <path id="Rectángulo_7251" data-name="Rectángulo 7251" d="M10.089,0H11.5A10.089,10.089,0,0,1,21.592,10.089V21.753a10.8,10.8,0,0,1-10.8,10.8h0A10.8,10.8,0,0,1,0,21.753V10.089A10.089,10.089,0,0,1,10.089,0Z" transform="translate(3.281 6.3) rotate(-3.39)" fill="#e38e4a"/>
          <path id="Trazado_106451" data-name="Trazado 106451" d="M7085.693,2239.3a21.073,21.073,0,0,1,4.364,2.1q-.313-1.281-.628-2.562c3.688-.231,8.219,3.132,7.582,7.138a5.925,5.925,0,0,1,3.346,2.872,9.051,9.051,0,0,1,.827,3.563,19.636,19.636,0,0,1-2.8,11.233c-1.123-2.231-2.028-4.1-3-6.389a11.2,11.2,0,0,1,0-8.33c-5.506,4.517-9.356,6.264-9.222,5.331a3.139,3.139,0,0,1,.722-2.228q-.959.817-1.989,1.544a6.652,6.652,0,0,1-2.219,1.134,3.956,3.956,0,0,1-4.663-3.585c-.467.941-.853,2.5-1.283,2.8s-1.211.058-1.176-.467c.192,3.248,1.071,6.73.566,10-1.754-1.257-4.134-3.85-4.442-9.057-.4-6.75,2.418-9.087,3.609-9.327a3.525,3.525,0,0,1-1.819-.116c.336-3.375,3.619-5.913,6.988-6.3A12.149,12.149,0,0,1,7085.693,2239.3Z" transform="translate(-7071.642 -2238.591)" fill="#452015"/>
          <path id="Trazado_106452" data-name="Trazado 106452" d="M7123.076,2286.593c-.071,2.426.348,3.439,1.923,3.6,1.063.111,2.568-1.333,3.389-3.618.77-2.146-.379-4.754-1.937-4.468C7125.34,2282.316,7123.179,2283.062,7123.076,2286.593Z" transform="translate(-7097.758 -2260.681)" fill="#e38e4a"/>
          <path id="Trazado_106453" data-name="Trazado 106453" d="M7111.392,2286.2a2.841,2.841,0,0,0,.274-1.417,1.883,1.883,0,1,0-3.632.215,2.854,2.854,0,0,0,.439,1.375Z" transform="translate(-7090.121 -2260.899)" fill="#452015"/>
          <path id="Trazado_106454" data-name="Trazado 106454" d="M7089.053,2287.519a2.861,2.861,0,0,0,.274-1.417,1.883,1.883,0,1,0-3.633.216,2.843,2.843,0,0,0,.439,1.375Z" transform="translate(-7078.776 -2261.571)" fill="#452015"/>
          <path id="Trazado_106455" data-name="Trazado 106455" d="M7096.977,2302.3l.73-.044a4.184,4.184,0,0,0,3.581-2.486l.254-.573-8.685.514h0A4.187,4.187,0,0,0,7096.977,2302.3Z" transform="translate(-7082.416 -2269.367)" fill="#632015"/>
          <path id="Trazado_106456" data-name="Trazado 106456" d="M7101.427,2299.568c.078-.18.133-.311.133-.311l-7.638.452h0c.011.031.022.062.034.092a1.711,1.711,0,0,0,1.7,1.061l4.289-.254A1.728,1.728,0,0,0,7101.427,2299.568Z" transform="translate(-7082.957 -2269.399)" fill="#fff"/>
          <path id="Trazado_106457" data-name="Trazado 106457" d="M7087.7,2275.838c-1.626-.214-4.556.227-5.343,1.922a.4.4,0,0,0,.459.568,19.188,19.188,0,0,1,4.691-.748C7088.5,2277.649,7088.687,2275.968,7087.7,2275.838Z" transform="translate(-7077.061 -2257.48)" fill="#452015"/>
          <path id="Trazado_106458" data-name="Trazado 106458" d="M7105.509,2274.92c1.59-.4,4.552-.312,5.533,1.278a.4.4,0,0,1-.389.618,19.141,19.141,0,0,0-4.746-.19C7104.933,2276.813,7104.546,2275.166,7105.509,2274.92Z" transform="translate(-7088.559 -2256.937)" fill="#452015"/>
          <g id="Grupo_69789" data-name="Grupo 69789" transform="translate(26.465 22.411)">
            <g id="Grupo_69787" data-name="Grupo 69787">
              <path id="Trazado_106459" data-name="Trazado 106459" d="M7126.039,2290.118a.486.486,0,0,1-.473-.376c-.493-2.132.219-4.8,2.265-5.583a.485.485,0,0,1,.346.906c-1.53.583-2.056,2.769-1.665,4.458a.485.485,0,0,1-.364.582A.447.447,0,0,1,7126.039,2290.118Z" transform="translate(-7125.416 -2284.126)" fill="#d26b3e"/>
            </g>
            <g id="Grupo_69788" data-name="Grupo 69788" transform="translate(0.508 2.537)">
              <path id="Trazado_106460" data-name="Trazado 106460" d="M7127.867,2291.978a.492.492,0,0,1-.295-.1.486.486,0,0,1-.091-.68.652.652,0,0,0,.069-.8.356.356,0,0,0-.443-.118.485.485,0,0,1-.349-.906,1.324,1.324,0,0,1,1.568.442,1.624,1.624,0,0,1-.074,1.968A.487.487,0,0,1,7127.867,2291.978Z" transform="translate(-7126.448 -2289.28)" fill="#d26b3e"/>
            </g>
          </g>
          <g id="Grupo_69792" data-name="Grupo 69792" transform="translate(1.095 24.033)">
            <g id="Grupo_69790" data-name="Grupo 69790">
              <path id="Trazado_106461" data-name="Trazado 106461" d="M7076.822,2293.155a.485.485,0,0,1-.482-.441l-.048-.554c-.221-2.622-.474-3.854-1.909-3.764a.486.486,0,1,1-.058-.969c2.521-.145,2.744,2.4,2.934,4.652l.046.548a.485.485,0,0,1-.439.527Z" transform="translate(-7073.868 -2287.421)" fill="#d26b3e"/>
            </g>
            <g id="Grupo_69791" data-name="Grupo 69791" transform="translate(0.543 2.362)">
              <path id="Trazado_106462" data-name="Trazado 106462" d="M7075.95,2295a.48.48,0,0,1-.288-.094,1.412,1.412,0,0,1-.591-1.718,1.806,1.806,0,0,1,2.02-.932.485.485,0,0,1-.159.958.873.873,0,0,0-.966.352c-.1.238.126.453.272.559a.485.485,0,0,1-.288.876Z" transform="translate(-7074.972 -2292.221)" fill="#d26b3e"/>
            </g>
          </g>
        </g>
        <g id="Grupo_69797" data-name="Grupo 69797" transform="translate(58.961 74.601)">
          <path id="Trazado_106463" data-name="Trazado 106463" d="M7112.478,2396.558c.083,3.617-3.064,3.71-6.948,3.8s-7.033.14-7.115-3.477a7.051,7.051,0,0,1,14.063-.322Z" transform="translate(-7098.378 -2390.168)" fill="#e38e4a"/>
          <g id="Grupo_69794" data-name="Grupo 69794" transform="translate(2.904 6.415)">
            <path id="Trazado_106464" data-name="Trazado 106464" d="M7104.729,2406.82a.486.486,0,0,1-.462-.634c.422-1.318,1.814-2.206,4.652-2.966a.485.485,0,1,1,.251.937c-2.447.656-3.674,1.373-3.98,2.326A.485.485,0,0,1,7104.729,2406.82Z" transform="translate(-7104.244 -2403.203)" fill="#d26b3e"/>
          </g>
          <g id="Grupo_69795" data-name="Grupo 69795" transform="translate(0.949 3.657)">
            <path id="Trazado_106465" data-name="Trazado 106465" d="M7100.755,2403.562a.469.469,0,0,1-.121-.016.483.483,0,0,1-.349-.589,7.356,7.356,0,0,1,5.146-5.34.485.485,0,1,1,.25.937,6.384,6.384,0,0,0-4.457,4.642A.485.485,0,0,1,7100.755,2403.562Z" transform="translate(-7100.27 -2397.601)" fill="#d26b3e"/>
          </g>
          <g id="Grupo_69796" data-name="Grupo 69796" transform="translate(0 1.735)">
            <path id="Trazado_106466" data-name="Trazado 106466" d="M7098.828,2399.645l-.052,0a.486.486,0,0,1-.432-.533,6.526,6.526,0,0,1,4.673-5.4.485.485,0,1,1,.251.937,5.52,5.52,0,0,0-3.959,4.562A.485.485,0,0,1,7098.828,2399.645Z" transform="translate(-7098.342 -2393.694)" fill="#d26b3e"/>
          </g>
        </g>
        <g id="Grupo_69801" data-name="Grupo 69801" transform="translate(0 63.446)">
          <path id="Trazado_106467" data-name="Trazado 106467" d="M6992.679,2373.894c.083,3.617-3.065,3.71-6.948,3.8s-7.033.14-7.115-3.477a7.051,7.051,0,0,1,14.063-.322Z" transform="translate(-6978.58 -2367.504)" fill="#e38e4a"/>
          <g id="Grupo_69798" data-name="Grupo 69798" transform="translate(2.905 6.415)">
            <path id="Trazado_106468" data-name="Trazado 106468" d="M6984.929,2384.155a.5.5,0,0,1-.147-.023.485.485,0,0,1-.313-.611c.422-1.319,1.814-2.207,4.652-2.967a.485.485,0,0,1,.251.937c-2.447.656-3.674,1.374-3.98,2.326A.486.486,0,0,1,6984.929,2384.155Z" transform="translate(-6984.445 -2380.538)" fill="#d26b3e"/>
          </g>
          <g id="Grupo_69799" data-name="Grupo 69799" transform="translate(0.948 3.657)">
            <path id="Trazado_106469" data-name="Trazado 106469" d="M6980.955,2380.9a.485.485,0,0,1-.47-.605,7.356,7.356,0,0,1,5.146-5.34.485.485,0,1,1,.251.937,6.385,6.385,0,0,0-4.458,4.642A.485.485,0,0,1,6980.955,2380.9Z" transform="translate(-6980.47 -2374.935)" fill="#d26b3e"/>
          </g>
          <g id="Grupo_69800" data-name="Grupo 69800" transform="translate(0 1.735)">
            <path id="Trazado_106470" data-name="Trazado 106470" d="M6979.028,2376.98l-.051,0a.486.486,0,0,1-.432-.533,6.522,6.522,0,0,1,4.673-5.4.485.485,0,1,1,.25.937,5.524,5.524,0,0,0-3.959,4.562A.485.485,0,0,1,6979.028,2376.98Z" transform="translate(-6978.543 -2371.029)" fill="#d26b3e"/>
          </g>
        </g>
      </g>
      <g id="Grupo_1052540" data-name="Grupo 1052540" transform="translate(-9213.356 -8844.926)">
        <path id="Trazado_106471" data-name="Trazado 106471" d="M6666.556,2487.841h202.8A10.562,10.562,0,0,1,6858.8,2498.4H6677.118a10.562,10.562,0,0,1-10.562-10.562Z" transform="translate(-6666.556 -2438.548)" fill="#40404c"/>
        <rect id="Rectángulo_7252" data-name="Rectángulo 7252" width="202.803" height="24.646" transform="translate(0 24.646)" fill="#5c6863"/>
        <rect id="Rectángulo_7253" data-name="Rectángulo 7253" width="45.067" height="24.646" transform="translate(0 24.646)" fill="#40404c"/>
        <path id="Trazado_106472" data-name="Trazado 106472" d="M6666.556,2412.332h202.8l-19.548-20.526a13.278,13.278,0,0,0-9.614-4.12H6674.771a8.215,8.215,0,0,0-8.215,8.215Z" transform="translate(-6666.556 -2387.686)" fill="#5c6863"/>
        <path id="Trazado_106473" data-name="Trazado 106473" d="M6949.582,2412.332h63.508l-20-21a11.743,11.743,0,0,0-8.5-3.644h-35Z" transform="translate(-6810.287 -2387.686)" fill="#798675"/>
        <path id="Trazado_106474" data-name="Trazado 106474" d="M6666.556,2412.332h63.561l-20-21a11.745,11.745,0,0,0-8.5-3.644h-26.84a8.215,8.215,0,0,0-8.215,8.215Z" transform="translate(-6666.556 -2387.686)" fill="#798675"/>
        <path id="Trazado_106475" data-name="Trazado 106475" d="M6942.221,2412.332h28.505l-20-21a11.742,11.742,0,0,0-8.5-3.644h0Z" transform="translate(-6806.549 -2387.686)" fill="#40404c"/>
        <path id="Trazado_106476" data-name="Trazado 106476" d="M6666.556,2412.332h45.067l-20-21a11.741,11.741,0,0,0-8.5-3.644h-8.346a8.215,8.215,0,0,0-8.215,8.215Z" transform="translate(-6666.556 -2387.686)" fill="#40404c"/>
        <g id="Grupo_69803" data-name="Grupo 69803" transform="translate(4.458 59.855)">
          <rect id="Rectángulo_7254" data-name="Rectángulo 7254" width="13.607" height="53.752" transform="translate(14.487)" fill="#40404c"/>
          <rect id="Rectángulo_7255" data-name="Rectángulo 7255" width="5.14" height="53.752" transform="translate(22.954)" fill="#5c6863"/>
          <path id="Rectángulo_7256" data-name="Rectángulo 7256" d="M9.858,0H32.894a9.858,9.858,0,0,1,9.858,9.858v0a0,0,0,0,1,0,0H0a0,0,0,0,1,0,0v0A9.858,9.858,0,0,1,9.858,0Z" transform="translate(0 46.241)" fill="#5c6863"/>
          <path id="Rectángulo_7257" data-name="Rectángulo 7257" d="M9.858,0H25.507a9.858,9.858,0,0,1,9.858,9.858v0a0,0,0,0,1,0,0H0a0,0,0,0,1,0,0v0A9.858,9.858,0,0,1,9.858,0Z" transform="translate(0 46.241)" fill="#40404c"/>
        </g>
        <g id="Grupo_69804" data-name="Grupo 69804" transform="translate(155.594 59.855)">
          <rect id="Rectángulo_7258" data-name="Rectángulo 7258" width="13.607" height="53.752" transform="translate(14.487)" fill="#40404c"/>
          <rect id="Rectángulo_7259" data-name="Rectángulo 7259" width="5.14" height="53.752" transform="translate(22.954)" fill="#5c6863"/>
          <path id="Rectángulo_7260" data-name="Rectángulo 7260" d="M9.858,0H32.893a9.858,9.858,0,0,1,9.858,9.858v0a0,0,0,0,1,0,0H0a0,0,0,0,1,0,0v0A9.858,9.858,0,0,1,9.858,0Z" transform="translate(0 46.241)" fill="#5c6863"/>
          <path id="Rectángulo_7261" data-name="Rectángulo 7261" d="M9.858,0H25.507a9.858,9.858,0,0,1,9.858,9.858v0a0,0,0,0,1,0,0H0a0,0,0,0,1,0,0v0A9.858,9.858,0,0,1,9.858,0Z" transform="translate(0 46.241)" fill="#40404c"/>
        </g>
        <g id="Grupo_69810" data-name="Grupo 69810" transform="translate(145.857 4.559)">
          <path id="Trazado_106477" data-name="Trazado 106477" d="M7020.975,2402.069c-.627-2.4-2.3-4.1-4.076-4.1h-53.983l5.087,19.972h53.32c1.905,0,3.182-2.37,2.538-4.83Z" transform="translate(-6962.916 -2397.468)" fill="#e6eaed"/>
          <path id="Trazado_106478" data-name="Trazado 106478" d="M6971.149,2430.291l1.035,4.065H7025.5c1.706,0,2.9-1.9,2.673-4.065Z" transform="translate(-6967.097 -2413.881)" fill="#ccd1cf"/>
          <path id="Trazado_106479" data-name="Trazado 106479" d="M6968.1,2397.972h-5.187l5.086,19.972h4.327v-3.734Z" transform="translate(-6962.916 -2397.468)" fill="#b0bdb0"/>
          <g id="Grupo_69805" data-name="Grupo 69805" transform="translate(11.177 3.934)">
            <path id="Trazado_106480" data-name="Trazado 106480" d="M6989.272,2407.314c.293,1.284-.257,2.313-1.227,2.313a2.853,2.853,0,0,1-2.327-2.313c-.321-1.3.22-2.371,1.213-2.371A2.867,2.867,0,0,1,6989.272,2407.314Z" transform="translate(-6985.625 -2404.943)" fill="#f17483"/>
            <path id="Trazado_106481" data-name="Trazado 106481" d="M6992.881,2421.292c.272,1.2-.268,2.154-1.2,2.154a2.679,2.679,0,0,1-2.224-2.154c-.3-1.212.233-2.205,1.191-2.205A2.685,2.685,0,0,1,6992.881,2421.292Z" transform="translate(-6987.528 -2412.126)" fill="#404656"/>
          </g>
          <g id="Grupo_69807" data-name="Grupo 69807" transform="translate(44.218 4.078)">
            <g id="Grupo_69806" data-name="Grupo 69806">
              <path id="Trazado_106482" data-name="Trazado 106482" d="M7055.646,2408.121h-1.834c-.229,0-.479-.249-.56-.555l-.466-1.776c-.08-.308.041-.557.269-.557h1.842c.229,0,.479.249.558.557l.461,1.776C7055.995,2407.873,7055.874,2408.121,7055.646,2408.121Z" transform="translate(-7052.761 -2405.234)" fill="#404656"/>
              <path id="Trazado_106483" data-name="Trazado 106483" d="M7057.753,2416.2h-1.826a.689.689,0,0,1-.556-.549l-.461-1.76c-.08-.305.04-.552.268-.552h1.833a.689.689,0,0,1,.555.552l.457,1.76C7058.1,2415.952,7057.981,2416.2,7057.753,2416.2Z" transform="translate(-7053.841 -2409.349)" fill="#404656"/>
              <path id="Trazado_106484" data-name="Trazado 106484" d="M7059.842,2424.2h-1.82a.686.686,0,0,1-.552-.544l-.458-1.744c-.079-.3.042-.547.268-.547h1.825a.688.688,0,0,1,.553.547l.451,1.744C7060.188,2423.96,7060.068,2424.2,7059.842,2424.2Z" transform="translate(-7054.907 -2413.427)" fill="#404656"/>
              <path id="Trazado_106485" data-name="Trazado 106485" d="M7062.654,2408.121h-1.835c-.228,0-.477-.249-.557-.555l-.458-1.776c-.08-.308.042-.557.271-.557h1.841c.229,0,.478.249.557.557l.453,1.776C7063,2407.873,7062.882,2408.121,7062.654,2408.121Z" transform="translate(-7056.326 -2405.234)" fill="#404656"/>
              <path id="Trazado_106486" data-name="Trazado 106486" d="M7064.729,2416.2H7062.9a.689.689,0,0,1-.553-.549l-.455-1.76c-.078-.305.042-.552.27-.552H7064c.228,0,.476.247.553.552l.45,1.76C7065.077,2415.952,7064.956,2416.2,7064.729,2416.2Z" transform="translate(-7057.386 -2409.349)" fill="#404656"/>
              <path id="Trazado_106487" data-name="Trazado 106487" d="M7066.787,2424.2h-1.82a.682.682,0,0,1-.55-.544l-.451-1.744c-.078-.3.042-.547.27-.547h1.824a.682.682,0,0,1,.551.547l.446,1.744C7067.134,2423.96,7067.013,2424.2,7066.787,2424.2Z" transform="translate(-7058.439 -2413.427)" fill="#404656"/>
              <path id="Trazado_106488" data-name="Trazado 106488" d="M7069.659,2408.121h-1.835c-.228,0-.476-.249-.554-.555l-.452-1.776c-.078-.308.044-.557.272-.557h1.842c.229,0,.477.249.554.557l.447,1.776C7070.01,2407.873,7069.887,2408.121,7069.659,2408.121Z" transform="translate(-7059.888 -2405.234)" fill="#404656"/>
              <path id="Trazado_106489" data-name="Trazado 106489" d="M7071.7,2416.2h-1.828a.683.683,0,0,1-.55-.549l-.449-1.76c-.078-.305.045-.552.272-.552h1.833c.228,0,.475.247.552.552l.443,1.76C7072.054,2415.952,7071.932,2416.2,7071.7,2416.2Z" transform="translate(-7060.933 -2409.349)" fill="#404656"/>
              <path id="Trazado_106490" data-name="Trazado 106490" d="M7073.732,2424.2h-1.821a.68.68,0,0,1-.548-.544l-.444-1.744c-.076-.3.045-.547.272-.547h1.825a.678.678,0,0,1,.548.547l.438,1.744C7074.079,2423.96,7073.957,2424.2,7073.732,2424.2Z" transform="translate(-7061.971 -2413.427)" fill="#404656"/>
            </g>
          </g>
          <path id="Trazado_106491" data-name="Trazado 106491" d="M7000.046,2416.569H7024.2l-2.969-11.335h-24.06Z" transform="translate(-6980.313 -2401.156)" fill="#404656"/>
          <g id="Grupo_69808" data-name="Grupo 69808" transform="translate(22.951 6.581)">
            <path id="Trazado_106492" data-name="Trazado 106492" d="M7009.549,2410.321h1.884l.76.528.6,2.341-.492.528h-1.345l.541,2.12h-.541Zm1.224,2.687h1.43l-.5-1.978h-1.432Z" transform="translate(-7009.549 -2410.321)" fill="#8bcc43"/>
            <path id="Trazado_106493" data-name="Trazado 106493" d="M7016.912,2413.639l.56,2.2h-.539l-1.405-5.516h1.938l.76.528.576,2.262-.491.528,1.43,2.2h-.6l-1.414-2.2Zm-.182-.709h1.485l-.483-1.9h-1.484Z" transform="translate(-7012.585 -2410.321)" fill="#8bcc43"/>
            <path id="Trazado_106494" data-name="Trazado 106494" d="M7021.834,2410.321h.54l1.405,5.516h-.54Z" transform="translate(-7015.788 -2410.321)" fill="#8bcc43"/>
            <path id="Trazado_106495" data-name="Trazado 106495" d="M7025.974,2415.837h-.541l-1.405-5.516h.491l3.016,4.168h.012l-1.062-4.168h.54l1.405,5.516h-.491l-3.016-4.169h-.011Z" transform="translate(-7016.901 -2410.321)" fill="#8bcc43"/>
            <path id="Trazado_106496" data-name="Trazado 106496" d="M7033.575,2415.837h-.539l-1.226-4.807h-1.074l-.181-.709h2.689l.18.709h-1.074Z" transform="translate(-7020.217 -2410.321)" fill="#8bcc43"/>
            <path id="Trazado_106497" data-name="Trazado 106497" d="M7042.269,2424.05h-3.521l-.168-.662h3.521Z" transform="translate(-7024.292 -2416.957)" fill="#8bcc43"/>
          </g>
          <g id="Grupo_69809" data-name="Grupo 69809" transform="translate(4.599)">
            <path id="Trazado_106498" data-name="Trazado 106498" d="M6977.215,2417.511c.022-.291.045-.558.064-.806.264-3.233.226-3.368-1.876-10.76-.632-2.221-1.443-5.074-2.53-9l-.612.206c1.1,3.917,1.922,6.766,2.562,8.982,2.112,7.328,2.112,7.328,1.875,10.389-.019.25-.04.519-.061.812Z" transform="translate(-6972.262 -2396.949)" fill="#798675"/>
          </g>
        </g>
      </g>
      <g id="Grupo_1052541" data-name="Grupo 1052541" transform="translate(-9160.936 -8831.964)">
        <path id="Trazado_106499" data-name="Trazado 106499" d="M6893.824,2505.28h-93.655a18.778,18.778,0,0,1-18.778-18.778v-57.273c0-7.778-3.845-10.728-8.322-15.2h87.894a14.082,14.082,0,0,1,14.083,14.083V2486.5a18.778,18.778,0,0,0,18.779,18.778Z" transform="translate(-6773.068 -2414.024)" fill="#e6eaed"/>
        <path id="Trazado_106500" data-name="Trazado 106500" d="M6883.5,2505.28h-78.633a18.778,18.778,0,0,1-18.777-18.778v-57.273c0-7.778-7.384-15.2-13.018-15.2h83.669a14.083,14.083,0,0,1,14.083,14.083V2486.5c0,10.371,7.937,18.778,18.309,18.778Z" transform="translate(-6773.068 -2414.024)" fill="url(#linear-gradient)"/>
        <g id="Grupo_69814" data-name="Grupo 69814" transform="translate(19.904 65.988)">
          <g id="Grupo_69813" data-name="Grupo 69813">
            <g id="Grupo_69812" data-name="Grupo 69812">
              <path id="Trazado_106501" data-name="Trazado 106501" d="M6813.51,2561.21v-4.8l6.668-.979-6.668-.864v-5.433l8.123-1.036.008.082a5.249,5.249,0,0,0,2.067,3.674l.041.027,0,.05a5.658,5.658,0,0,1-1.764,3.2,6.666,6.666,0,0,0,3-2.918l.028-.058.059.018a5.925,5.925,0,0,0,4.488-.4l.074-.045,2.411,6.069-.079.026a5.6,5.6,0,0,0-3.52,3.633l-.015.061-.059,0Zm.151-4.658v4.5l14.652.307a5.724,5.724,0,0,1,3.524-3.657l-2.282-5.744a6.125,6.125,0,0,1-4.471.386,6.5,6.5,0,0,1-3.426,3.067l-.374.11.308-.251a5.974,5.974,0,0,0,2-3.306,5.425,5.425,0,0,1-2.09-3.685l-7.837,1v5.147l7.688,1Z" transform="translate(-6813.51 -2548.101)" fill="#6d6875"/>
            </g>
          </g>
        </g>
        <g id="Grupo_69817" data-name="Grupo 69817" transform="translate(38.875 65.988)">
          <g id="Grupo_69816" data-name="Grupo 69816">
            <g id="Grupo_69815" data-name="Grupo 69815">
              <path id="Trazado_106502" data-name="Trazado 106502" d="M6852.056,2561.21v-4.8l6.667-.979-6.667-.864v-5.433l8.123-1.036.007.082a5.247,5.247,0,0,0,2.068,3.674l.04.027-.006.05a5.654,5.654,0,0,1-1.763,3.2,6.659,6.659,0,0,0,3-2.918l.029-.058.06.018a5.923,5.923,0,0,0,4.487-.4l.074-.045,2.411,6.069-.08.026a5.6,5.6,0,0,0-3.519,3.633l-.015.061-.059,0Zm.15-4.658v4.5l14.652.307a5.657,5.657,0,0,1,.7-1.449,5.59,5.59,0,0,1,2.827-2.208l-2.281-5.744a6.126,6.126,0,0,1-4.471.386,6.5,6.5,0,0,1-3.426,3.067l-.374.11.307-.251a5.962,5.962,0,0,0,2-3.306,5.436,5.436,0,0,1-2.089-3.685l-7.837,1v5.147l7.689,1Z" transform="translate(-6852.056 -2548.101)" fill="#6d6875"/>
            </g>
          </g>
        </g>
        <g id="Grupo_69820" data-name="Grupo 69820" transform="translate(58.308 65.988)">
          <g id="Grupo_69819" data-name="Grupo 69819">
            <g id="Grupo_69818" data-name="Grupo 69818">
              <path id="Trazado_106503" data-name="Trazado 106503" d="M6891.542,2561.21v-4.8l6.668-.979-6.668-.864v-5.433l8.123-1.036.008.082a5.247,5.247,0,0,0,2.067,3.674l.04.027,0,.05a5.658,5.658,0,0,1-1.765,3.2,6.672,6.672,0,0,0,3-2.918l.028-.058.059.018a5.924,5.924,0,0,0,4.488-.4l.074-.045,2.412,6.069-.08.026a5.6,5.6,0,0,0-3.519,3.633l-.015.061-.059,0Zm.151-4.658v4.5l14.651.307a5.647,5.647,0,0,1,.7-1.449,5.59,5.59,0,0,1,2.827-2.208l-2.282-5.744a6.125,6.125,0,0,1-4.471.386,6.5,6.5,0,0,1-3.427,3.067l-.374.11.308-.251a5.962,5.962,0,0,0,2-3.306,5.432,5.432,0,0,1-2.089-3.685l-7.837,1v5.147l7.688,1Z" transform="translate(-6891.542 -2548.101)" fill="#6d6875"/>
            </g>
          </g>
        </g>
        <path id="Trazado_106504" data-name="Trazado 106504" d="M6846.122,2580.25h96.954a9.077,9.077,0,0,0,9.076-9.077h0v-.312a8.763,8.763,0,0,1,8.764-8.763h-96.329a9.076,9.076,0,0,0-9.076,9.076v.313h0a8.764,8.764,0,0,1-8.763,8.764Z" transform="translate(-6810.168 -2489.222)" fill="#b0bdb0"/>
        <path id="Trazado_106505" data-name="Trazado 106505" d="M6855.66,2580.25h92.26a9.077,9.077,0,0,0,9.077-9.077h0v-.312a8.762,8.762,0,0,1,8.763-8.763h-91.634a9.077,9.077,0,0,0-9.077,9.076v.313h0a8.763,8.763,0,0,1-8.762,8.764Z" transform="translate(-6815.011 -2489.222)" fill="#40404c"/>
        <g id="Grupo_69823" data-name="Grupo 69823" transform="translate(77.279 65.988)">
          <g id="Grupo_69822" data-name="Grupo 69822">
            <g id="Grupo_69821" data-name="Grupo 69821">
              <path id="Trazado_106506" data-name="Trazado 106506" d="M6930.088,2561.21v-4.8l6.667-.979-6.667-.864v-5.433l8.122-1.036.007.082a5.248,5.248,0,0,0,2.07,3.674l.039.027,0,.05a5.655,5.655,0,0,1-1.764,3.2,6.669,6.669,0,0,0,3-2.918l.028-.058.06.018a5.921,5.921,0,0,0,4.486-.4l.074-.045,2.411,6.069-.079.026a5.6,5.6,0,0,0-3.519,3.633l-.015.061-.059,0Zm.15-4.658v4.5l14.652.307a5.727,5.727,0,0,1,3.525-3.657l-2.283-5.744a6.123,6.123,0,0,1-4.47.386,6.5,6.5,0,0,1-3.427,3.067l-.374.11.308-.251a5.968,5.968,0,0,0,2-3.306,5.429,5.429,0,0,1-2.09-3.685l-7.837,1v5.147l7.688,1Z" transform="translate(-6930.088 -2548.101)" fill="#6d6875"/>
            </g>
          </g>
        </g>
        <path id="Trazado_106507" data-name="Trazado 106507" d="M6999.88,2591.986h-96.955a9.181,9.181,0,0,1-9.076-9.076v-12.049a8.763,8.763,0,0,0-8.763-8.763h96.328a9.075,9.075,0,0,1,9.076,9.076v12.049a8.764,8.764,0,0,0,8.763,8.764Z" transform="translate(-6829.638 -2489.222)" fill="#e6eaed"/>
        <path id="Trazado_106508" data-name="Trazado 106508" d="M6995.186,2591.986H6907.62a9.181,9.181,0,0,1-9.076-9.076v-12.049a8.763,8.763,0,0,0-8.762-8.763h86.939a9.076,9.076,0,0,1,9.076,9.076v12.049a8.764,8.764,0,0,0,8.763,8.764Z" transform="translate(-6829.638 -2489.222)" fill="url(#linear-gradient-2)"/>
        <g id="Grupo_69824" data-name="Grupo 69824" transform="translate(77.298 94.698)">
          <path id="Trazado_106509" data-name="Trazado 106509" d="M6938.854,2606.437a8.758,8.758,0,0,1-8.728,8.066h96.329a9.075,9.075,0,0,0,9.017-8.066Z" transform="translate(-6930.125 -2606.437)" fill="#b0bdb0"/>
          <path id="Trazado_106510" data-name="Trazado 106510" d="M6949.347,2606.437a8.758,8.758,0,0,1-8.728,8.066h86.47a9.075,9.075,0,0,0,9.017-8.066Z" transform="translate(-6935.455 -2606.437)" fill="#40404c"/>
        </g>
      </g>
      <g id="Grupo_1052542" data-name="Grupo 1052542" transform="translate(-9143.798 -8813.487)">
        <g id="Grupo_69852" data-name="Grupo 69852" transform="translate(0 0.462)">
          <g id="Grupo_69828" data-name="Grupo 69828">
            <g id="Grupo_69827" data-name="Grupo 69827">
              <g id="Grupo_69826" data-name="Grupo 69826">
                <path id="Trazado_106511" data-name="Trazado 106511" d="M6807.888,2494.953l.189-41.528.084.007c.028,0,2.9.218,3.6-.881l.031-.048,3.912,1.03-.008.07c0,.023-.269,2.245-.268,2.726v.072l-1.808.2,1.825.289-.012.079a4.019,4.019,0,0,0,.118,1.493,2.51,2.51,0,0,0,2.058,1.868l.075.016-.013.077-.725,4.385a22.093,22.093,0,0,0-.085,4.577c.138.407.716,2.61.925,3.6a35.342,35.342,0,0,1,.385,4.812c-.026,1.424-.142,16.947-.143,17.1l0,.08h-.078Zm.345-41.355-.188,41.2,9.831.025c.009-1.213.118-15.653.143-17.025a35.007,35.007,0,0,0-.382-4.774c-.207-.984-.783-3.175-.919-3.579a21.824,21.824,0,0,1,.078-4.656c.171-1.029.631-3.812.714-4.309a2.677,2.677,0,0,1-2.1-1.969,4.135,4.135,0,0,1-.131-1.478l-2.845-.45,2.848-.322c.017-.545.215-2.231.258-2.6l-3.672-.967C6811.135,2453.717,6808.725,2453.628,6808.233,2453.6Z" transform="translate(-6807.888 -2452.503)" fill="#6d6875"/>
              </g>
            </g>
          </g>
          <g id="Grupo_69851" data-name="Grupo 69851" transform="translate(4.882 0.309)">
            <g id="Grupo_69830" data-name="Grupo 69830" transform="translate(0.106)">
              <g id="Grupo_69829" data-name="Grupo 69829">
                <path id="Trazado_106512" data-name="Trazado 106512" d="M6818.1,2453.429a.079.079,0,0,1-.074-.082l0-.139a.077.077,0,0,1,.08-.078.081.081,0,0,1,.077.082l0,.138a.079.079,0,0,1-.08.078Z" transform="translate(-6818.023 -2453.131)" fill="#6d6875"/>
              </g>
            </g>
            <g id="Grupo_69833" data-name="Grupo 69833" transform="translate(0.037 0.732)">
              <g id="Grupo_69832" data-name="Grupo 69832">
                <g id="Grupo_69831" data-name="Grupo 69831">
                  <path id="Trazado_106513" data-name="Trazado 106513" d="M6817.958,2456.855a.08.08,0,0,1-.075-.083l.008-.3a.078.078,0,0,1,.08-.079.08.08,0,0,1,.077.083l-.008.3a.08.08,0,0,1-.081.079Zm.022-.89a.081.081,0,0,1-.074-.083l.007-.3a.08.08,0,0,1,.08-.078.082.082,0,0,1,.077.083l-.008.3a.079.079,0,0,1-.08.078Zm.023-.89a.081.081,0,0,1-.074-.083l.008-.3a.079.079,0,0,1,.08-.078.08.08,0,0,1,.076.082l-.007.3a.079.079,0,0,1-.081.078Z" transform="translate(-6817.883 -2454.618)" fill="#6d6875"/>
                </g>
              </g>
            </g>
            <g id="Grupo_69835" data-name="Grupo 69835" transform="translate(0 3.402)">
              <g id="Grupo_69834" data-name="Grupo 69834">
                <path id="Trazado_106514" data-name="Trazado 106514" d="M6817.808,2460.969l.022-.847a.078.078,0,0,1,.08-.078.071.071,0,0,1,.024,0,.065.065,0,0,1,.023,0,.079.079,0,0,1,.056.1Z" transform="translate(-6817.808 -2460.044)" fill="#6d6875"/>
              </g>
            </g>
            <g id="Grupo_69838" data-name="Grupo 69838" transform="translate(0.192 0.89)">
              <g id="Grupo_69837" data-name="Grupo 69837">
                <g id="Grupo_69836" data-name="Grupo 69836">
                  <path id="Trazado_106515" data-name="Trazado 106515" d="M6818.272,2457.056l-.015,0a.081.081,0,0,1-.057-.1l.07-.28a.078.078,0,0,1,.1-.057.082.082,0,0,1,.057.1l-.07.28A.079.079,0,0,1,6818.272,2457.056Zm.21-.839-.015,0a.079.079,0,0,1-.056-.1l.07-.28a.078.078,0,0,1,.1-.058.08.08,0,0,1,.057.1l-.07.28A.079.079,0,0,1,6818.482,2456.218Zm.21-.839-.015,0a.081.081,0,0,1-.057-.1l.07-.28a.079.079,0,0,1,.1-.058.08.08,0,0,1,.055.1l-.069.28A.079.079,0,0,1,6818.693,2455.379Z" transform="translate(-6818.198 -2454.938)" fill="#6d6875"/>
                </g>
              </g>
            </g>
            <g id="Grupo_69840" data-name="Grupo 69840" transform="translate(0.824 0.163)">
              <g id="Grupo_69839" data-name="Grupo 69839">
                <path id="Trazado_106516" data-name="Trazado 106516" d="M6819.555,2453.79l-.015,0a.081.081,0,0,1-.056-.1l.058-.228.207.1a.081.081,0,0,1,.038.107.077.077,0,0,1-.1.038l-.037-.018-.01.041A.079.079,0,0,1,6819.555,2453.79Z" transform="translate(-6819.481 -2453.462)" fill="#6d6875"/>
              </g>
            </g>
            <g id="Grupo_69843" data-name="Grupo 69843" transform="translate(1.544 0.529)">
              <g id="Grupo_69842" data-name="Grupo 69842">
                <g id="Grupo_69841" data-name="Grupo 69841">
                  <path id="Trazado_106517" data-name="Trazado 106517" d="M6822.149,2454.913a.105.105,0,0,1-.029-.008l-.283-.136a.081.081,0,0,1-.038-.107.077.077,0,0,1,.1-.039l.283.136a.082.082,0,0,1,.038.107A.08.08,0,0,1,6822.149,2454.913Zm-.847-.41a.086.086,0,0,1-.029-.007l-.282-.137a.081.081,0,0,1-.038-.107.078.078,0,0,1,.1-.038l.282.137a.08.08,0,0,1-.037.152Z" transform="translate(-6820.945 -2454.206)" fill="#6d6875"/>
                </g>
              </g>
            </g>
            <g id="Grupo_69845" data-name="Grupo 69845" transform="translate(3.238 1.348)">
              <g id="Grupo_69844" data-name="Grupo 69844">
                <path id="Trazado_106518" data-name="Trazado 106518" d="M6824.534,2456.218a.076.076,0,0,1-.024-.005.083.083,0,0,1-.044-.1l.023-.058-.057-.027a.081.081,0,0,1-.037-.107.078.078,0,0,1,.1-.039l.189.092-.028.071s-.019.046-.05.127A.078.078,0,0,1,6824.534,2456.218Z" transform="translate(-6824.388 -2455.871)" fill="#6d6875"/>
              </g>
            </g>
            <g id="Grupo_69848" data-name="Grupo 69848" transform="translate(2.7 2.126)">
              <g id="Grupo_69847" data-name="Grupo 69847">
                <g id="Grupo_69846" data-name="Grupo 69846">
                  <path id="Trazado_106519" data-name="Trazado 106519" d="M6823.367,2458.807a.074.074,0,0,1-.018,0,.08.08,0,0,1-.053-.1c.029-.1.06-.2.091-.3a.077.077,0,0,1,.1-.052.08.08,0,0,1,.05.1c-.03.1-.061.2-.091.3A.077.077,0,0,1,6823.367,2458.807Zm.288-.9a.06.06,0,0,1-.021,0,.08.08,0,0,1-.048-.1c.036-.1.071-.2.1-.3a.078.078,0,0,1,.1-.047.081.081,0,0,1,.046.1c-.034.093-.069.192-.1.3A.077.077,0,0,1,6823.655,2457.907Z" transform="translate(-6823.293 -2457.45)" fill="#6d6875"/>
                </g>
              </g>
            </g>
            <g id="Grupo_69850" data-name="Grupo 69850" transform="translate(2.512 3.933)">
              <g id="Grupo_69849" data-name="Grupo 69849">
                <path id="Trazado_106520" data-name="Trazado 106520" d="M6822.986,2461.418l-.011,0a.079.079,0,0,1-.062-.094c.008-.045.019-.09.028-.137a.079.079,0,0,1,.094-.06.081.081,0,0,1,.059.1c-.011.046-.02.091-.029.134A.079.079,0,0,1,6822.986,2461.418Z" transform="translate(-6822.912 -2461.122)" fill="#6d6875"/>
              </g>
            </g>
          </g>
        </g>
        <g id="Grupo_69879" data-name="Grupo 69879" transform="translate(40.085 1.152)">
          <g id="Grupo_69855" data-name="Grupo 69855">
            <g id="Grupo_69854" data-name="Grupo 69854">
              <g id="Grupo_69853" data-name="Grupo 69853">
                <path id="Trazado_106521" data-name="Trazado 106521" d="M6891.352,2496.51l-2.016-41.477.084,0c.029,0,2.912.056,3.55-1.081l.028-.049,3.962.81-.005.07c0,.023-.149,2.257-.122,2.736l0,.073-1.794.3,1.838.186-.007.08a4,4,0,0,0,.2,1.484,2.5,2.5,0,0,0,2.154,1.75l.075.012-.008.077s-.364,3.279-.492,4.419a22.142,22.142,0,0,0,.159,4.575c.16.4.854,2.565,1.114,3.541a35.275,35.275,0,0,1,.641,4.783c.05,1.424.758,16.929.765,17.085l0,.08-.078,0ZM6889.5,2455.2l2,41.145,9.817-.524c-.055-1.212-.713-15.637-.761-17.008a35.011,35.011,0,0,0-.635-4.747c-.26-.97-.95-3.126-1.108-3.522a21.778,21.778,0,0,1-.17-4.655c.116-1.036.428-3.842.484-4.342a2.669,2.669,0,0,1-2.206-1.848,4.124,4.124,0,0,1-.209-1.468l-2.864-.29,2.826-.48c-.011-.545.1-2.24.122-2.614l-3.719-.76C6892.4,2455.153,6889.991,2455.2,6889.5,2455.2Z" transform="translate(-6889.336 -2453.904)" fill="#6d6875"/>
              </g>
            </g>
          </g>
          <g id="Grupo_69878" data-name="Grupo 69878" transform="translate(4.767 0.243)">
            <g id="Grupo_69857" data-name="Grupo 69857">
              <g id="Grupo_69856" data-name="Grupo 69856">
                <path id="Trazado_106522" data-name="Trazado 106522" d="M6899.1,2454.7a.079.079,0,0,1-.078-.078l0-.138a.078.078,0,1,1,.156,0l0,.138a.08.08,0,0,1-.077.082Z" transform="translate(-6899.022 -2454.398)" fill="#6d6875"/>
              </g>
            </g>
            <g id="Grupo_69860" data-name="Grupo 69860" transform="translate(0.02 0.732)">
              <g id="Grupo_69859" data-name="Grupo 69859">
                <g id="Grupo_69858" data-name="Grupo 69858">
                  <path id="Trazado_106523" data-name="Trazado 106523" d="M6899.2,2458.122a.079.079,0,0,1-.078-.078l-.007-.3a.079.079,0,0,1,.075-.083.08.08,0,0,1,.081.078l.008.3a.079.079,0,0,1-.075.083Zm-.024-.89a.079.079,0,0,1-.078-.078l-.008-.3a.079.079,0,0,1,.076-.083.081.081,0,0,1,.081.078l.008.3a.079.079,0,0,1-.076.082Zm-.023-.89a.079.079,0,0,1-.079-.078l-.009-.3a.079.079,0,1,1,.157,0l.008.3a.079.079,0,0,1-.076.083Z" transform="translate(-6899.062 -2455.885)" fill="#6d6875"/>
                </g>
              </g>
            </g>
            <g id="Grupo_69862" data-name="Grupo 69862" transform="translate(0.093 3.402)">
              <g id="Grupo_69861" data-name="Grupo 69861">
                <path id="Trazado_106524" data-name="Trazado 106524" d="M6899.233,2462.241l-.023-.848a.08.08,0,0,1,.076-.083.058.058,0,0,1,.024,0,.064.064,0,0,1,.023,0,.08.08,0,0,1,.061.094Z" transform="translate(-6899.21 -2461.311)" fill="#6d6875"/>
              </g>
            </g>
            <g id="Grupo_69865" data-name="Grupo 69865" transform="translate(0.233 0.857)">
              <g id="Grupo_69864" data-name="Grupo 69864">
                <g id="Grupo_69863" data-name="Grupo 69863">
                  <path id="Trazado_106525" data-name="Trazado 106525" d="M6899.573,2458.281l-.015,0a.079.079,0,0,1-.061-.094l.055-.284a.079.079,0,0,1,.092-.063.081.081,0,0,1,.062.094l-.056.284A.079.079,0,0,1,6899.573,2458.281Zm.167-.849h-.016a.08.08,0,0,1-.061-.095l.056-.283a.078.078,0,0,1,.092-.063.081.081,0,0,1,.062.095l-.056.283A.079.079,0,0,1,6899.74,2457.431Zm.166-.849-.016,0a.081.081,0,0,1-.062-.094l.056-.283a.078.078,0,0,1,.093-.063.08.08,0,0,1,.06.094l-.055.283A.078.078,0,0,1,6899.905,2456.582Z" transform="translate(-6899.496 -2456.138)" fill="#6d6875"/>
                </g>
              </g>
            </g>
            <g id="Grupo_69867" data-name="Grupo 69867" transform="translate(0.73 0.124)">
              <g id="Grupo_69866" data-name="Grupo 69866">
                <path id="Trazado_106526" data-name="Trazado 106526" d="M6900.584,2454.977h-.015a.082.082,0,0,1-.062-.095l.045-.231.213.088a.082.082,0,0,1,.042.1.076.076,0,0,1-.1.044l-.038-.015-.007.04A.078.078,0,0,1,6900.584,2454.977Z" transform="translate(-6900.505 -2454.65)" fill="#6d6875"/>
              </g>
            </g>
            <g id="Grupo_69870" data-name="Grupo 69870" transform="translate(1.46 0.448)">
              <g id="Grupo_69869" data-name="Grupo 69869">
                <g id="Grupo_69868" data-name="Grupo 69868">
                  <path id="Trazado_106527" data-name="Trazado 106527" d="M6903.224,2455.952a.083.083,0,0,1-.03-.006l-.289-.121a.081.081,0,0,1-.043-.1.078.078,0,0,1,.1-.044l.29.121a.08.08,0,0,1,.042.1A.078.078,0,0,1,6903.224,2455.952Zm-.868-.362a.071.071,0,0,1-.03-.007l-.289-.12a.081.081,0,0,1-.042-.1.078.078,0,0,1,.1-.044l.29.121a.082.082,0,0,1,.043.1A.079.079,0,0,1,6902.356,2455.59Z" transform="translate(-6901.989 -2455.309)" fill="#6d6875"/>
                </g>
              </g>
            </g>
            <g id="Grupo_69872" data-name="Grupo 69872" transform="translate(3.196 1.172)">
              <g id="Grupo_69871" data-name="Grupo 69871">
                <path id="Trazado_106528" data-name="Trazado 106528" d="M6905.676,2457.122a.058.058,0,0,1-.025,0,.08.08,0,0,1-.05-.1l.02-.06-.058-.023a.08.08,0,0,1-.042-.1.076.076,0,0,1,.1-.044l.194.081-.024.072s-.016.047-.043.13A.077.077,0,0,1,6905.676,2457.122Z" transform="translate(-6905.515 -2456.779)" fill="#6d6875"/>
              </g>
            </g>
            <g id="Grupo_69875" data-name="Grupo 69875" transform="translate(2.762 1.956)">
              <g id="Grupo_69874" data-name="Grupo 69874">
                <g id="Grupo_69873" data-name="Grupo 69873">
                  <path id="Trazado_106529" data-name="Trazado 106529" d="M6904.712,2459.75l-.018,0a.081.081,0,0,1-.058-.1c.024-.1.049-.205.076-.307a.077.077,0,0,1,.1-.058.081.081,0,0,1,.056.1q-.04.152-.075.3A.078.078,0,0,1,6904.712,2459.75Zm.24-.915a.069.069,0,0,1-.022,0,.081.081,0,0,1-.053-.1c.031-.106.061-.208.089-.3a.078.078,0,0,1,.1-.053.082.082,0,0,1,.052.1l-.089.3A.076.076,0,0,1,6904.952,2458.835Z" transform="translate(-6904.634 -2458.372)" fill="#6d6875"/>
                </g>
              </g>
            </g>
            <g id="Grupo_69877" data-name="Grupo 69877" transform="translate(2.615 3.792)">
              <g id="Grupo_69876" data-name="Grupo 69876">
                <path id="Trazado_106530" data-name="Trazado 106530" d="M6904.413,2462.4h-.011a.081.081,0,0,1-.067-.091c.008-.045.014-.092.023-.138a.077.077,0,0,1,.089-.066.08.08,0,0,1,.064.093c-.008.046-.014.091-.021.135A.079.079,0,0,1,6904.413,2462.4Z" transform="translate(-6904.334 -2462.102)" fill="#6d6875"/>
              </g>
            </g>
          </g>
        </g>
        <g id="Grupo_69906" data-name="Grupo 69906" transform="translate(67.917 0.167)">
          <g id="Grupo_69882" data-name="Grupo 69882">
            <g id="Grupo_69881" data-name="Grupo 69881">
              <g id="Grupo_69880" data-name="Grupo 69880">
                <path id="Trazado_106531" data-name="Trazado 106531" d="M6947.344,2494.51l-1.459-41.477.06,0c.021,0,2.107.056,2.569-1.081l.021-.05,2.866.81,0,.07c0,.022-.108,2.256-.089,2.736l0,.072-1.3.3,1.33.186-.005.079a5.439,5.439,0,0,0,.144,1.484,2.071,2.071,0,0,0,1.558,1.75l.055.011-.006.077s-.264,3.279-.357,4.419a30.5,30.5,0,0,0,.115,4.575c.115.4.618,2.566.806,3.541a48,48,0,0,1,.463,4.783c.036,1.424.548,16.929.553,17.085l0,.08-.056,0ZM6946,2453.2l1.446,41.145,7.1-.524c-.04-1.212-.516-15.637-.551-17.008a47.656,47.656,0,0,0-.459-4.747c-.188-.97-.688-3.126-.8-3.522a30.024,30.024,0,0,1-.123-4.654c.084-1.037.31-3.842.35-4.342a2.29,2.29,0,0,1-1.6-1.848,5.613,5.613,0,0,1-.151-1.468l-2.072-.29,2.044-.48c-.008-.545.07-2.24.088-2.614l-2.691-.76C6948.1,2453.153,6946.359,2453.2,6946,2453.2Z" transform="translate(-6945.885 -2451.904)" fill="#6d6875"/>
              </g>
            </g>
          </g>
          <g id="Grupo_69905" data-name="Grupo 69905" transform="translate(3.449 0.243)">
            <g id="Grupo_69884" data-name="Grupo 69884">
              <g id="Grupo_69883" data-name="Grupo 69883">
                <path id="Trazado_106532" data-name="Trazado 106532" d="M6952.951,2452.7c-.031,0-.056-.034-.057-.078l0-.138c0-.044.023-.082.056-.083s.057.033.057.078l0,.138c0,.044-.023.081-.055.082Z" transform="translate(-6952.892 -2452.398)" fill="#6d6875"/>
              </g>
            </g>
            <g id="Grupo_69887" data-name="Grupo 69887" transform="translate(0.014 0.732)">
              <g id="Grupo_69886" data-name="Grupo 69886">
                <g id="Grupo_69885" data-name="Grupo 69885">
                  <path id="Trazado_106533" data-name="Trazado 106533" d="M6953.018,2456.122c-.03,0-.056-.034-.056-.078l-.006-.3c0-.044.023-.081.055-.083s.059.034.059.079l0,.3c0,.044-.023.081-.055.083Zm-.017-.89c-.03,0-.056-.034-.057-.078l-.005-.3c0-.044.023-.081.054-.082s.057.033.059.078l0,.3c0,.044-.023.081-.054.082Zm-.018-.89c-.03,0-.056-.034-.057-.078l-.005-.3c0-.045.023-.082.055-.083s.057.033.059.078l.005.3c0,.044-.022.081-.055.082Z" transform="translate(-6952.92 -2453.885)" fill="#6d6875"/>
                </g>
              </g>
            </g>
            <g id="Grupo_69889" data-name="Grupo 69889" transform="translate(0.067 3.402)">
              <g id="Grupo_69888" data-name="Grupo 69888">
                <path id="Trazado_106534" data-name="Trazado 106534" d="M6953.045,2460.24l-.018-.847c0-.044.024-.081.056-.082a.032.032,0,0,1,.017,0,.044.044,0,0,1,.018,0,.083.083,0,0,1,.044.094Z" transform="translate(-6953.027 -2459.311)" fill="#6d6875"/>
              </g>
            </g>
            <g id="Grupo_69892" data-name="Grupo 69892" transform="translate(0.169 0.857)">
              <g id="Grupo_69891" data-name="Grupo 69891">
                <g id="Grupo_69890" data-name="Grupo 69890">
                  <path id="Trazado_106535" data-name="Trazado 106535" d="M6953.292,2456.281l-.011,0a.082.082,0,0,1-.045-.094l.041-.284c.006-.043.036-.071.066-.063a.085.085,0,0,1,.044.095l-.04.283C6953.342,2456.255,6953.318,2456.281,6953.292,2456.281Zm.12-.849-.012,0a.083.083,0,0,1-.044-.094l.04-.283c.007-.044.036-.072.066-.063a.083.083,0,0,1,.044.095l-.04.283C6953.461,2455.405,6953.438,2455.432,6953.412,2455.432Zm.12-.849-.011,0a.084.084,0,0,1-.045-.095l.041-.283c.005-.043.036-.072.067-.063a.084.084,0,0,1,.043.094l-.04.283C6953.582,2454.556,6953.558,2454.583,6953.532,2454.583Z" transform="translate(-6953.235 -2454.139)" fill="#6d6875"/>
                </g>
              </g>
            </g>
            <g id="Grupo_69894" data-name="Grupo 69894" transform="translate(0.528 0.124)">
              <g id="Grupo_69893" data-name="Grupo 69893">
                <path id="Trazado_106536" data-name="Trazado 106536" d="M6954.022,2452.976h-.012a.083.083,0,0,1-.044-.095l.032-.23.154.088a.1.1,0,0,1,.031.1c-.011.041-.045.061-.074.044l-.027-.015-.006.04C6954.072,2452.95,6954.048,2452.976,6954.022,2452.976Z" transform="translate(-6953.965 -2452.65)" fill="#6d6875"/>
              </g>
            </g>
            <g id="Grupo_69897" data-name="Grupo 69897" transform="translate(1.056 0.448)">
              <g id="Grupo_69896" data-name="Grupo 69896">
                <g id="Grupo_69895" data-name="Grupo 69895">
                  <path id="Trazado_106537" data-name="Trazado 106537" d="M6955.932,2453.951a.042.042,0,0,1-.021-.006l-.21-.121a.1.1,0,0,1-.031-.1c.012-.041.044-.061.073-.044l.21.121a.1.1,0,0,1,.031.1A.061.061,0,0,1,6955.932,2453.951Zm-.627-.362a.038.038,0,0,1-.021-.006l-.21-.121a.094.094,0,0,1-.031-.1c.012-.041.044-.061.074-.044l.209.121a.1.1,0,0,1,.031.1C6955.347,2453.571,6955.326,2453.59,6955.3,2453.59Z" transform="translate(-6955.038 -2453.308)" fill="#6d6875"/>
                </g>
              </g>
            </g>
            <g id="Grupo_69899" data-name="Grupo 69899" transform="translate(2.312 1.172)">
              <g id="Grupo_69898" data-name="Grupo 69898">
                <path id="Trazado_106538" data-name="Trazado 106538" d="M6957.705,2455.123a.038.038,0,0,1-.018,0,.092.092,0,0,1-.036-.1l.015-.059-.042-.024a.1.1,0,0,1-.03-.1c.011-.041.044-.061.074-.044l.14.081-.017.072s-.012.047-.031.13C6957.751,2455.1,6957.729,2455.123,6957.705,2455.123Z" transform="translate(-6957.589 -2454.779)" fill="#6d6875"/>
              </g>
            </g>
            <g id="Grupo_69902" data-name="Grupo 69902" transform="translate(1.998 1.956)">
              <g id="Grupo_69901" data-name="Grupo 69901">
                <g id="Grupo_69900" data-name="Grupo 69900">
                  <path id="Trazado_106539" data-name="Trazado 106539" d="M6957.009,2457.749a.033.033,0,0,1-.013,0,.086.086,0,0,1-.042-.1c.018-.1.036-.2.055-.307.008-.043.039-.069.069-.057a.087.087,0,0,1,.04.1c-.019.1-.037.2-.054.3C6957.058,2457.725,6957.035,2457.749,6957.009,2457.749Zm.173-.915a.032.032,0,0,1-.015,0,.087.087,0,0,1-.039-.1c.021-.107.043-.208.063-.3.009-.042.042-.066.071-.053a.09.09,0,0,1,.038.1q-.031.142-.063.3C6957.229,2456.812,6957.207,2456.835,6957.183,2456.835Z" transform="translate(-6956.952 -2456.372)" fill="#6d6875"/>
                </g>
              </g>
            </g>
            <g id="Grupo_69904" data-name="Grupo 69904" transform="translate(1.892 3.792)">
              <g id="Grupo_69903" data-name="Grupo 69903">
                <path id="Trazado_106540" data-name="Trazado 106540" d="M6956.792,2460.4h-.008a.08.08,0,0,1-.047-.091c0-.045.009-.092.016-.139s.034-.073.064-.066a.082.082,0,0,1,.047.093c-.007.046-.011.091-.015.135S6956.82,2460.4,6956.792,2460.4Z" transform="translate(-6956.736 -2460.101)" fill="#6d6875"/>
              </g>
            </g>
          </g>
        </g>
        <g id="Grupo_69913" data-name="Grupo 69913" transform="translate(12.485 0)">
          <g id="Grupo_69909" data-name="Grupo 69909" transform="translate(0 0.39)">
            <g id="Grupo_69908" data-name="Grupo 69908">
              <g id="Grupo_69907" data-name="Grupo 69907">
                <path id="Trazado_106541" data-name="Trazado 106541" d="M6841.983,2495.668c-.6,0-1.424-.027-2.466-.127-2.32-.221-6.146-.348-6.184-.35l-.076,0v-19.105a28.9,28.9,0,0,1,.7-4.621c.067-.3.154-.627.238-.941a9.8,9.8,0,0,0,.362-1.735,34.079,34.079,0,0,0-.836-8.218l-.023-.11.108.013c.043,0,1.068.1,1.743-1.246l.045-.09,2.945,2.549-1.874-3.023.006-.031a8.278,8.278,0,0,0-.623-4.528l-.035-.076,3.873-1.668-.014.135a4.463,4.463,0,0,0,.826,3,3.1,3.1,0,0,0,2.408,1l.077,0v39.125l-.07.008A11.337,11.337,0,0,1,6841.983,2495.668Zm-8.569-.634c.551.018,3.973.143,6.117.348a20.68,20.68,0,0,0,3.5.091v-38.824a3.218,3.218,0,0,1-2.447-1.055,4.449,4.449,0,0,1-.873-2.985l-3.482,1.5a8.477,8.477,0,0,1,.605,4.519l2.39,3.854-3.578-3.1a2.046,2.046,0,0,1-1.747,1.248,34.2,34.2,0,0,1,.818,8.16,9.91,9.91,0,0,1-.367,1.769c-.083.314-.169.638-.236.936a29.6,29.6,0,0,0-.7,4.585Z" transform="translate(-6833.257 -2452.357)" fill="#6d6875"/>
              </g>
            </g>
          </g>
          <g id="Grupo_69912" data-name="Grupo 69912" transform="translate(2.752)">
            <g id="Grupo_69911" data-name="Grupo 69911">
              <g id="Grupo_69910" data-name="Grupo 69910">
                <path id="Trazado_106542" data-name="Trazado 106542" d="M6845.874,2462.115h-.269a.08.08,0,0,1,0-.161h.269a.08.08,0,0,1,0,.161Zm-.81,0h-.27a.08.08,0,0,1,0-.161h.27a.08.08,0,0,1,0,.161Zm-.811,0h-.27a.08.08,0,0,1,0-.161h.27a.08.08,0,0,1,0,.161Zm-.811,0h-.27a.08.08,0,0,1,0-.161h.27a.08.08,0,0,1,0,.161Zm-.81,0h-.271a.08.08,0,0,1,0-.161h.271a.08.08,0,0,1,0,.161Zm-.64-.323a.077.077,0,0,1-.065-.037l-.146-.233a.08.08,0,0,1,.023-.11.076.076,0,0,1,.107.024l.147.233a.083.083,0,0,1-.024.111A.082.082,0,0,1,6841.993,2461.792Zm-.437-.7a.083.083,0,0,1-.067-.036l-.146-.234a.082.082,0,0,1,.023-.111.078.078,0,0,1,.109.024l.145.233a.081.081,0,0,1-.023.111A.079.079,0,0,1,6841.555,2461.092Zm-.439-.7a.077.077,0,0,1-.065-.037l-.147-.233a.08.08,0,0,1,.024-.111.076.076,0,0,1,.107.024l.147.233a.082.082,0,0,1-.024.111A.076.076,0,0,1,6841.116,2460.393Zm-.437-.7a.077.077,0,0,1-.066-.037l-.146-.233a.081.081,0,0,1,.022-.111.077.077,0,0,1,.108.024l.147.233a.083.083,0,0,1-.023.111A.075.075,0,0,1,6840.678,2459.694Zm-.438-.7a.077.077,0,0,1-.066-.037l-.147-.233a.082.082,0,0,1,.023-.11.077.077,0,0,1,.108.024l.147.233a.083.083,0,0,1-.023.111A.075.075,0,0,1,6840.24,2458.994Zm-.438-.7a.078.078,0,0,1-.066-.037l-.146-.233a.081.081,0,0,1,.023-.111.076.076,0,0,1,.108.024l.146.233a.081.081,0,0,1-.022.111A.077.077,0,0,1,6839.8,2458.295Zm-.129-.779h0a.078.078,0,0,1-.073-.084c0-.09.006-.182.007-.274a.082.082,0,0,1,.081-.079.079.079,0,0,1,.076.082c0,.093,0,.187-.008.279A.081.081,0,0,1,6839.672,2457.516Zm0-.831a.079.079,0,0,1-.078-.077c0-.091-.01-.183-.016-.275a.08.08,0,0,1,.072-.086.079.079,0,0,1,.084.074c.006.093.012.187.016.279a.08.08,0,0,1-.075.084Zm-.072-.829a.078.078,0,0,1-.077-.07c-.011-.09-.023-.182-.039-.272a.08.08,0,0,1,.065-.092.079.079,0,0,1,.09.067c.014.092.027.185.039.277a.079.079,0,0,1-.067.089Zm6.128-.047h-.054a.08.08,0,0,1-.077-.082.078.078,0,0,1,.079-.079,2.241,2.241,0,0,0,.26-.009.08.08,0,0,1,.019.159A1.878,1.878,0,0,1,6845.731,2455.81Zm-.591-.057h-.014c-.091-.018-.182-.04-.27-.065a.081.081,0,0,1-.055-.1.078.078,0,0,1,.1-.056c.084.024.169.045.257.061a.08.08,0,0,1,.061.094A.078.078,0,0,1,6845.14,2455.752Zm-.768-.26a.079.079,0,0,1-.035-.008c-.083-.042-.165-.088-.243-.138a.082.082,0,0,1-.025-.111.077.077,0,0,1,.108-.025c.074.046.151.09.229.13a.081.081,0,0,1,.036.108A.077.077,0,0,1,6844.372,2455.492Zm-4.906-.455a.079.079,0,0,1-.077-.064c-.018-.089-.038-.179-.059-.268a.081.081,0,0,1,.058-.1.079.079,0,0,1,.1.06c.021.09.04.182.06.272a.081.081,0,0,1-.061.1Zm4.242-.016a.077.077,0,0,1-.054-.022c-.066-.065-.131-.133-.191-.205a.08.08,0,0,1,.007-.113.075.075,0,0,1,.109.008c.058.068.119.133.183.193a.082.082,0,0,1,0,.114A.077.077,0,0,1,6843.708,2455.021Zm-.5-.648a.076.076,0,0,1-.066-.039c-.047-.08-.09-.164-.131-.25a.081.081,0,0,1,.037-.107.076.076,0,0,1,.1.037c.04.082.081.162.125.238a.081.081,0,0,1-.028.11A.077.077,0,0,1,6843.207,2454.373Zm-3.939-.142a.081.081,0,0,1-.076-.058c-.024-.089-.052-.177-.078-.263a.08.08,0,0,1,.05-.1.079.079,0,0,1,.1.052c.027.087.054.177.081.267a.081.081,0,0,1-.053.1A.086.086,0,0,1,6839.268,2454.231Zm3.613-.616a.078.078,0,0,1-.074-.055c-.028-.088-.053-.179-.075-.271a.08.08,0,0,1,.056-.1.078.078,0,0,1,.1.058c.021.089.046.177.072.261a.08.08,0,0,1-.051.1A.062.062,0,0,1,6842.881,2453.615Zm-3.875-.171a.079.079,0,0,1-.073-.051c-.032-.081-.05-.125-.051-.126l-.034-.075.2-.084a.077.077,0,0,1,.1.044.08.08,0,0,1-.042.1l-.053.022c.007.016.014.034.022.055a.082.082,0,0,1-.043.1A.073.073,0,0,1,6839.005,2453.444Zm.573-.392a.078.078,0,0,1-.072-.05.079.079,0,0,1,.042-.1l.25-.1a.077.077,0,0,1,.1.044.081.081,0,0,1-.043.1l-.25.1A.064.064,0,0,1,6839.578,2453.052Zm3.124-.245a.078.078,0,0,1-.077-.069c-.013-.09-.024-.184-.034-.278a.08.08,0,0,1,.071-.088.077.077,0,0,1,.084.072c.01.092.021.183.034.271a.082.082,0,0,1-.067.091Zm-2.375-.071a.079.079,0,0,1-.072-.05.08.08,0,0,1,.042-.1l.251-.105a.077.077,0,0,1,.1.044.081.081,0,0,1-.043.1l-.248.105A.081.081,0,0,1,6840.327,2452.736Zm.75-.316a.08.08,0,0,1-.073-.05.081.081,0,0,1,.042-.1l.25-.106a.078.078,0,0,1,.1.044.081.081,0,0,1-.042.1l-.25.105A.077.077,0,0,1,6841.077,2452.42Zm.749-.317a.08.08,0,0,1-.028-.154l.25-.105a.076.076,0,0,1,.1.043.08.08,0,0,1-.042.1l-.25.105A.067.067,0,0,1,6841.826,2452.1Zm.81-.124a.08.08,0,0,1-.079-.078c0-.039,0-.077,0-.117a.077.077,0,0,1-.051-.047.081.081,0,0,1,.042-.1l.165-.069v.119c0,.073,0,.144,0,.213a.079.079,0,0,1-.076.082Z" transform="translate(-6838.848 -2451.564)" fill="#6d6875"/>
              </g>
            </g>
          </g>
        </g>
        <g id="Grupo_69921" data-name="Grupo 69921" transform="translate(24.621 0.242)">
          <g id="Grupo_69916" data-name="Grupo 69916">
            <g id="Grupo_69915" data-name="Grupo 69915">
              <g id="Grupo_69914" data-name="Grupo 69914">
                <path id="Trazado_106543" data-name="Trazado 106543" d="M6870.436,2472.145h-4.053l-.919-6.361-1.53,6.361h-4.4l-1.619-9.465.1.006c.028,0,2.774.144,3.1-2.066.007-.045.013-.089.017-.135s.008-.085.011-.126c.095-1.9-1.923-4.108-1.944-4.13l-.061-.067,4.706-3.475,1.643,9.266,2.006-9.9.1.245c.011.029,1.179,2.927,3.193,3.528l.058.017,0,.062Zm-3.917-.161h3.765l.4-16.019c-1.733-.557-2.815-2.663-3.136-3.372l-2.066,10.2-1.743-9.827-4.361,3.22c.349.395,2.015,2.382,1.924,4.181,0,.044,0,.089-.01.135s-.01.1-.018.143a2.4,2.4,0,0,1-1.776,2,4.511,4.511,0,0,1-1.394.208l1.563,9.134h4.144l1.692-7.029Z" transform="translate(-6857.915 -2452.056)" fill="#6d6875"/>
              </g>
            </g>
          </g>
          <g id="Grupo_69920" data-name="Grupo 69920" transform="translate(3.192 8.204)">
            <g id="Grupo_69919" data-name="Grupo 69919">
              <g id="Grupo_69918" data-name="Grupo 69918">
                <g id="Grupo_69917" data-name="Grupo 69917">
                  <path id="Trazado_106544" data-name="Trazado 106544" d="M6868.573,2474.407l0-.08a6.7,6.7,0,0,0-1.045-3.344,5.809,5.809,0,0,0-3.056-1.807l-.069-.019.012-.072c.007-.044.013-.088.017-.134s.007-.085.009-.126l0-.1.094.025a6.226,6.226,0,0,1,3.3,1.945,6.98,6.98,0,0,1,1.152,3.61l0,.081-.21.009-.021-.146-.036.149Zm-4-5.368a5.912,5.912,0,0,1,3.064,1.836,6.039,6.039,0,0,1,1.046,3l.07-.291a5.694,5.694,0,0,0-1.038-2.785,6.028,6.028,0,0,0-3.13-1.872l0,.036C6864.581,2468.991,6864.578,2469.015,6864.575,2469.039Z" transform="translate(-6864.399 -2468.726)" fill="#6d6875"/>
                </g>
              </g>
            </g>
          </g>
        </g>
        <g id="Grupo_69924" data-name="Grupo 69924" transform="translate(24.478 24.189)">
          <g id="Grupo_69923" data-name="Grupo 69923">
            <g id="Grupo_69922" data-name="Grupo 69922">
              <path id="Trazado_106545" data-name="Trazado 106545" d="M6870.4,2520.423h-4.678l-.954-7.093-.843,7.093h-5.3l-1.009-8.64.08-.008a5.1,5.1,0,0,0,3.583-2.2l.026-.043.049.006a5.419,5.419,0,0,1,3.118,1.876,6.785,6.785,0,0,0-2.846-3.193l-.056-.03.018-.062a6.806,6.806,0,0,0-.385-4.773l-.044-.078,5.917-2.565.027.085a5.632,5.632,0,0,0,3.541,3.743l.06.016v.063Zm-4.542-.16h4.389l.3-15.585a5.243,5.243,0,0,1-1.412-.742,5.875,5.875,0,0,1-2.153-3.007l-5.6,2.427a7.043,7.043,0,0,1,.376,4.756,6.694,6.694,0,0,1,2.991,3.644l.106.4-.245-.328a5.8,5.8,0,0,0-3.224-2.122,5.261,5.261,0,0,1-3.592,2.223l.975,8.336h5.018l.971-8.178Z" transform="translate(-6857.624 -2500.712)" fill="#6d6875"/>
            </g>
          </g>
        </g>
        <g id="Grupo_69932" data-name="Grupo 69932" transform="translate(53.412 0.242)">
          <g id="Grupo_69927" data-name="Grupo 69927">
            <g id="Grupo_69926" data-name="Grupo 69926">
              <g id="Grupo_69925" data-name="Grupo 69925">
                <path id="Trazado_106546" data-name="Trazado 106546" d="M6928.934,2472.145h-4.052l-.919-6.361-1.531,6.361h-4.4l-1.62-9.465.1.006c.027,0,2.774.144,3.1-2.066.008-.045.014-.089.018-.135s.008-.085.009-.126c.1-1.9-1.923-4.108-1.943-4.13l-.061-.067,4.707-3.475,1.642,9.266,2-9.9.1.245c.011.029,1.178,2.927,3.192,3.528l.059.017,0,.062Zm-3.917-.161h3.765l.4-16.019c-1.733-.557-2.814-2.663-3.136-3.372l-2.067,10.2-1.741-9.827-4.362,3.22c.349.395,2.016,2.382,1.925,4.181,0,.044-.006.089-.01.135s-.011.1-.018.143a2.4,2.4,0,0,1-1.776,2,4.515,4.515,0,0,1-1.394.208l1.564,9.134h4.144l1.691-7.029Z" transform="translate(-6916.414 -2452.056)" fill="#6d6875"/>
              </g>
            </g>
          </g>
          <g id="Grupo_69931" data-name="Grupo 69931" transform="translate(3.192 8.204)">
            <g id="Grupo_69930" data-name="Grupo 69930">
              <g id="Grupo_69929" data-name="Grupo 69929">
                <g id="Grupo_69928" data-name="Grupo 69928">
                  <path id="Trazado_106547" data-name="Trazado 106547" d="M6927.072,2474.407l0-.08a6.665,6.665,0,0,0-1.044-3.344,5.806,5.806,0,0,0-3.056-1.807l-.068-.019.011-.072c.007-.044.012-.088.017-.134s.007-.085.009-.126l.005-.1.092.025a6.225,6.225,0,0,1,3.3,1.945,6.988,6.988,0,0,1,1.151,3.61l0,.081-.21.009-.021-.146-.035.149Zm-4-5.368a5.913,5.913,0,0,1,3.065,1.836,6.038,6.038,0,0,1,1.045,3l.07-.291a5.7,5.7,0,0,0-1.038-2.785,6.032,6.032,0,0,0-3.131-1.872l0,.036C6923.08,2468.991,6923.078,2469.015,6923.074,2469.039Z" transform="translate(-6922.899 -2468.726)" fill="#6d6875"/>
                </g>
              </g>
            </g>
          </g>
        </g>
        <g id="Grupo_69935" data-name="Grupo 69935" transform="translate(53.269 24.189)">
          <g id="Grupo_69934" data-name="Grupo 69934">
            <g id="Grupo_69933" data-name="Grupo 69933">
              <path id="Trazado_106548" data-name="Trazado 106548" d="M6928.9,2520.423h-4.677l-.955-7.093-.843,7.093h-5.3l-1.009-8.64.079-.008a5.1,5.1,0,0,0,3.583-2.2l.026-.043.048.006a5.423,5.423,0,0,1,3.119,1.876,6.79,6.79,0,0,0-2.846-3.193l-.057-.03.017-.062a6.8,6.8,0,0,0-.385-4.773l-.044-.078,5.917-2.565.026.085a5.633,5.633,0,0,0,3.542,3.743l.059.016v.063Zm-4.541-.16h4.389l.3-15.585a5.243,5.243,0,0,1-1.413-.742,5.867,5.867,0,0,1-2.152-3.007l-5.6,2.427a7.037,7.037,0,0,1,.375,4.756,6.686,6.686,0,0,1,2.991,3.644l.107.4-.244-.328a5.807,5.807,0,0,0-3.225-2.122,5.262,5.262,0,0,1-3.592,2.223l.975,8.336h5.019l.972-8.178Z" transform="translate(-6916.122 -2500.712)" fill="#6d6875"/>
            </g>
          </g>
        </g>
      </g>
    </g>
  </g>
</svg>
