<svg xmlns="http://www.w3.org/2000/svg" width="579.107" height="497.066" viewBox="0 0 579.107 497.066">
  <g id="Grupo_1052718" data-name="Grupo 1052718" transform="translate(-840.894 -4570.763)">
    <rect id="Rectángulo_355814" data-name="Rectángulo 355814" width="169" height="366.289" rx="81" transform="translate(1199 4570.763)" fill="#1448d3"/>
    <g id="Grupo_1043443" data-name="Grupo 1043443" transform="translate(500.459 117.59)">
      <g id="Grupo_70005" data-name="Grupo 70005" transform="translate(340.435 4637)">
        <path id="Trazado_106702" data-name="Trazado 106702" d="M505.547,749.072,398.574,686.977,575.838,584.634l106.973,62.1Z" transform="translate(-398.574 -435.834)" fill="#0075a4" style="mix-blend-mode: multiply;isolation: isolate"/>
        <g id="Grupo_70004" data-name="Grupo 70004" transform="translate(12.344)">
          <path id="Trazado_106703" data-name="Trazado 106703" d="M453.2,654.754c-.574,4.87,1.72,5.441,1.431,8.587s-7.728.285-12.594,4.292a22.184,22.184,0,0,1-16.893,4.87c-5.434-.86,5.73-9.733,5.73-9.733l13.739-8.3s-.285-5.152-.86-12.879-8.013-33.493-6.586-52.673,6.586-26.333,6.586-26.333l18.035,15.459s-.286,3.436-3.721,23.757-1.431,7.728.856,14.6S453.766,649.887,453.2,654.754Z" transform="translate(-346.535 -492.452)" fill="#a767c8"/>
          <path id="Trazado_106704" data-name="Trazado 106704" d="M456.1,678.556a18.2,18.2,0,0,0,1.149,3.721c.856,2-2.294,8.016-5.73,11.163s-7.153,7.16-12.594,7.731-5.152-3.15-4.006-4.3,12.308-14.888,12.308-14.888a61.376,61.376,0,0,0,1.145-24.9c-2.29-13.165-4.581-15.17-8.017-22.326s-8.587-53.244-8.587-53.244l27.767-19.172s5.152,4.577,5.723,17.746S457.249,611,454.67,622.166s1.431,15.17,4.577,22.041S456.1,678.556,456.1,678.556Z" transform="translate(-325.683 -493.069)" fill="#a767c8"/>
          <path id="Trazado_106705" data-name="Trazado 106705" d="M431.648,558.813s1.145,10.446-.289,15.887-4.866,10.018-2.287,12.309,2,8.013,2,8.013L428.5,606.758s13.168,11.449,26.622,7.442,17.746-12.023,17.746-12.023.574-6.3-2.29-9.443-4.006-3.436-4.006-3.436-2.005-5.441-2.005-8.873,7.731-14.6,5.441-19.465S456.55,548.937,447.962,549.8c-2.537.253-4.724.417-6.629.742C436.792,551.306,433.863,552.962,431.648,558.813Z" transform="translate(-335.005 -525.465)" fill="#ea526f"/>
          <path id="Trazado_106706" data-name="Trazado 106706" d="M437.425,578.086s7.874-6.126,10.161-12.455c4.3-11.877.264-13.133-2.576-14.742-11.88-6.725-12.173,4.156-13.168,7.874C429.123,568.924,437.425,578.086,437.425,578.086Z" transform="translate(-326.901 -527.991)" fill="#fd8e79"/>
          <g id="Grupo_69997" data-name="Grupo 69997" transform="translate(71.009 167.257)">
            <path id="Trazado_106707" data-name="Trazado 106707" d="M457.844,600.929c-.328,3.618-8.873.328-14.46,4.927a25.444,25.444,0,0,1-19.39,5.591c-6.24-.985,6.575-11.174,6.575-11.174l15.776-9.529s.9,4.106,4.845,2.876,5.013-2.551,5.013-2.551C455.543,596.658,458.176,597.315,457.844,600.929Z" transform="translate(-421.054 -587.404)" fill="#fc62a2"/>
            <path id="Trazado_106708" data-name="Trazado 106708" d="M428.173,615.341a22.572,22.572,0,0,1-3.489-.268c-1.844-.292-2.469-1.263-2.668-2.026-.874-3.318,5.769-9.033,8.666-11.341l17.385-10.51.368,1.688a3.269,3.269,0,0,0,1.284,1.891,2.431,2.431,0,0,0,1.984.068c3.411-1.067,4.449-2.173,4.449-2.173l2.594-2.861-.432,3.81a9.358,9.358,0,0,0,.806,5.516,8.177,8.177,0,0,1,.838,4.31c-.253,2.786-3.211,2.993-6.065,3.2-2.783.193-6.24.435-8.837,2.576A27.155,27.155,0,0,1,428.173,615.341Zm-3.767-2.922a1.476,1.476,0,0,0,.664.21,24.435,24.435,0,0,0,18.416-5.323c3.2-2.64,7.267-2.925,10.232-3.136,2.244-.157,3.717-.307,3.778-.953a5.855,5.855,0,0,0-.656-3.125,11.586,11.586,0,0,1-1.077-4.214,21.1,21.1,0,0,1-3.321,1.32,4.792,4.792,0,0,1-3.975-.293,4.993,4.993,0,0,1-1.844-1.951l-14.531,8.78C427.874,607.1,424.074,611.366,424.406,612.419Z" transform="translate(-421.937 -589.807)" fill="#b53e77"/>
          </g>
          <path id="Trazado_106709" data-name="Trazado 106709" d="M449.742,609.8c-3.436,3.147-7.153,7.16-12.594,7.731s-5.152-3.15-4.006-4.3,12.308-14.888,12.308-14.888,2.005,2.009,5.223.075,3.65-3.507,3.65-3.507a18.2,18.2,0,0,0,1.149,3.721C456.327,600.643,453.177,606.655,449.742,609.8Z" transform="translate(-323.905 -409.43)" fill="#fc62a2"/>
          <g id="Grupo_70003" data-name="Grupo 70003" transform="translate(0 64.238)">
            <g id="Grupo_70001" data-name="Grupo 70001">
              <g id="Grupo_69998" data-name="Grupo 69998" transform="translate(158.249 9.479)">
                <path id="Trazado_106710" data-name="Trazado 106710" d="M446.39,563.588v86.934l91.65,53.261V616.85Z" transform="translate(-446.39 -563.588)" fill="#98c4da"/>
                <path id="Trazado_106711" data-name="Trazado 106711" d="M472.079,580.6V667.53l5-2.888V577.708Z" transform="translate(-380.429 -527.335)" fill="#7a9dc2"/>
              </g>
              <g id="Grupo_70000" data-name="Grupo 70000" style="isolation: isolate">
                <g id="Grupo_69999" data-name="Grupo 69999" transform="translate(4.725 98.116)">
                  <path id="Trazado_106712" data-name="Trazado 106712" d="M403.358,588.433v86.934l91.65,53.261V641.694Z" transform="translate(-403.358 -588.433)" fill="#98c4da"/>
                  <path id="Trazado_106713" data-name="Trazado 106713" d="M429.047,605.441v86.934l5-2.888V602.552Z" transform="translate(-337.397 -552.179)" fill="#7a9dc2"/>
                </g>
                <path id="Trazado_106714" data-name="Trazado 106714" d="M402.034,588.433v5.334l91.65,53.261v-5.334Z" transform="translate(-402.034 -490.317)" fill="#7a9dc2"/>
                <path id="Trazado_106715" data-name="Trazado 106715" d="M427.723,673.978v5.334L597.667,581.2V575.86Z" transform="translate(-336.073 -522.601)" fill="#557999"/>
                <path id="Trazado_106716" data-name="Trazado 106716" d="M402.034,659.048l91.65,53.261,169.944-98.118-91.66-53.259Z" transform="translate(-402.034 -560.931)" fill="#98c4da"/>
              </g>
            </g>
            <path id="Trazado_106717" data-name="Trazado 106717" d="M626.471,602.878,473.656,691.116l-68.668-39.643L557.8,563.234l8.967,5.176-36.917,21.157,49.418-13.187Z" transform="translate(-394.448 -555.018)" fill="#4e2567"/>
            <path id="Trazado_106718" data-name="Trazado 106718" d="M437.239,609.3s.614,2.308-.153,3.643a8.99,8.99,0,0,1-2.308,2.4s18.927,1.156,18.466,1.423-20.774.442-20.774.442a10.909,10.909,0,0,1-5.694,3.289,81.421,81.421,0,0,1-10,1.688l4.617,7.107s11.541-.268,16.622,1.42S444.317,634,444.317,634l81.407-47-27.7-15.994s-22.622,13.771-25.391,16.083-10,8.973-14.467,12.262S437.239,609.3,437.239,609.3Z" transform="translate(-364.193 -535.063)" fill="#fddaa5"/>
            <path id="Trazado_106719" data-name="Trazado 106719" d="M435.276,571.481l2.722-.713s6.868,1.216,7.442,2.144a9.467,9.467,0,0,0,2.647,2.508c.571.286.86.714-.646.714a5.063,5.063,0,0,1-2.576-.714l-8.231-2.076s6.3,2.362,6.871,3.364a3.867,3.867,0,0,0,2.362,1.93c.931.214.931,1.074-.214,1.288s-1.216-.143-1.216-.143,1.645,1.288.571,1.431-2.144-.285-3.935-.928a8.5,8.5,0,0,1-3.507-2.508l-4.506-2.433s4.221,3.079,4.72,4.224a8.176,8.176,0,0,0,2.362,2.933c.432.143.646.788-.785.788a6.1,6.1,0,0,1-3.792-1.934c-.218-.5-4.367-3.146-5.869-4.292s-.071-5.512-.071-5.512Z" transform="translate(-332.768 -535.677)" fill="#fbab79"/>
            <path id="Trazado_106720" data-name="Trazado 106720" d="M448.782,582.237c1.127-.87,8.323-11.52,8.323-11.52l-1.777-1.573L448.044,580.8,431.3,593.215a10.336,10.336,0,0,0,4.274-1.431C440.473,588.987,448.022,582.826,448.782,582.237Z" transform="translate(-326.895 -539.844)" fill="#98c4da"/>
            <path id="Trazado_106721" data-name="Trazado 106721" d="M449.193,582.283c1.127-.874,8.323-11.52,8.323-11.52l-1.777-1.573-7.285,11.656-17.146,12.291a9.964,9.964,0,0,0,4.674-1.306C440.884,589.034,448.433,582.872,449.193,582.283Z" transform="translate(-326.866 -539.726)" fill="#7a9dc2"/>
            <g id="Grupo_70002" data-name="Grupo 70002" transform="translate(103.928 32.329)">
              <path id="Trazado_106722" data-name="Trazado 106722" d="M454.718,573.32c-.082-.089-5.519,3.086-5.519,3.086l-18.035,8.041s8.573-5.294,13.111-7.706a79.211,79.211,0,0,0,9.326-6.1l2.365.592Z" transform="translate(-431.164 -568.329)" fill="#d4f6ff"/>
              <path id="Trazado_106723" data-name="Trazado 106723" d="M455.124,573.366c-.082-.089-5.523,3.089-5.523,3.089l-18.438,8.038s8.98-5.291,13.514-7.7a79.7,79.7,0,0,0,9.329-6.1l2.365.6Z" transform="translate(-431.164 -568.214)" fill="#557999"/>
              <path id="Trazado_106724" data-name="Trazado 106724" d="M448.044,570.082c-.9-.6-3.585,2.023-6.283,2.1,0,0-3.471.335-4.249,3.225s2.166,4.727,4.452,4.206C445.536,578.8,450.335,571.606,448.044,570.082Zm-6.011,7.1c-1.8.414-2.911-.532-2.883-1.359a1.381,1.381,0,0,1,.053-.31,1.786,1.786,0,0,1,1.623-1.177,11.085,11.085,0,0,0,4.517-1.63c.414-.221,1.2-1.117,1.263-.307a3.589,3.589,0,0,1-.525,1.613A6.713,6.713,0,0,1,442.033,577.178Z" transform="translate(-415.19 -569.993)" fill="#b53e77"/>
              <path id="Trazado_106725" data-name="Trazado 106725" d="M447.156,570.365c-.314-1.035-3.589,2.023-6.286,2.1,0,0-2.233-.05-3.011,2.836s1.259,4.167,3.543,3.646C444.976,578.135,448.116,573.568,447.156,570.365Zm-5.491,6.779c-1.8.41-2.911-.532-2.886-1.363a1.414,1.414,0,0,1,.054-.31,1.779,1.779,0,0,1,1.623-1.174,11.035,11.035,0,0,0,4.517-1.634c.414-.221,1.2-1.113,1.267-.3a3.635,3.635,0,0,1-.525,1.609A6.74,6.74,0,0,1,441.665,577.143Z" transform="translate(-414.408 -569.587)" fill="#fb4ea1"/>
            </g>
            <path id="Trazado_106726" data-name="Trazado 106726" d="M444.676,567.7c-2.208-.674-5.937,4.517-6.629,5.726s-.988,1.934,1.045,2.772a5.8,5.8,0,0,0,4.991-.706C445.849,573.931,448.643,568.911,444.676,567.7Zm-1.513,5.016c-1.231.953-2.355.935-2.512-.036s.25-1.713,1.481-2.665,2.43-.813,2.587.161S444.394,571.762,443.163,572.714Z" transform="translate(-310.901 -543.711)" fill="#b53e77"/>
            <path id="Trazado_106727" data-name="Trazado 106727" d="M444.893,567.786c-2.226-.621-6.222,5.216-6.918,6.426s-.185,1.213,1.852,2.051c1.456.6,3.507-.353,4.51-1.238C446.1,573.466,447.947,568.643,444.893,567.786Zm-1.8,5.715c-1.231.953-2.355.935-2.512-.036s.714-2.529,1.944-3.482,2.355-.935,2.512.036S444.326,572.549,443.1,573.5Z" transform="translate(-310.497 -543.449)" fill="#fb4ea1"/>
            <path id="Trazado_106728" data-name="Trazado 106728" d="M493.862,577.721s-8.776-4.121-14.075-4.245-39.558,6.532-39.558,6.532,42.516-13.557,47.814-13.186S493.862,577.721,493.862,577.721Z" transform="translate(-303.96 -545.827)" fill="#734393"/>
          </g>
          <path id="Trazado_106729" data-name="Trazado 106729" d="M450.936,567.928l.86-17.46s-14.313,3.721-16.6,12.309-.571,8.587-5.152,15.744-9.447,10.874-7.157,19.751,12.883,24.042,15.173,25.188,8.873,5.726,8.873,5.726,8.3-3.935,8.873-5.366-11.306-4.51-12.451-5.084-6.729-11.021-6.729-14.742-2.287-8.587-2.287-8.587,8.3-24.043,13.454-25.477S450.936,567.928,450.936,567.928Z" transform="translate(-350.001 -523.56)" fill="#fbab79"/>
          <path id="Trazado_106730" data-name="Trazado 106730" d="M453.025,569.67s-3.864-18.034-9.447-17.817-6.012,10.3-6.012,10.3,1.72,5.152,4.081,6.657,8.156,17.817,8.156,17.817-2.576,1.934-2.576,4.724,1.074,7.3.86,10.089a46.274,46.274,0,0,1-1.934,7.945,10.616,10.616,0,0,1-2.144.5c-.646,0-2.041,1.68-2.687,2.54a15.3,15.3,0,0,0-1.252,3.493,11.215,11.215,0,0,0,2.269.453c.464-1.52,1.06-3.018,3.671-2.836.678.046-1.145,4.438-1.145,4.438l-2.576,3.432s-1.934-.214-2.79.86-1.074,0,1.93,1.288,5.583-2.148,6.226-2.576,3.222-1.288,3.436-4.51a57.52,57.52,0,0,1,.646-7.728c.428-1.716,6.44-15.241,6.868-20.824S453.025,569.67,453.025,569.67Z" transform="translate(-310.798 -520.008)" fill="#fbab79"/>
          <path id="Trazado_106731" data-name="Trazado 106731" d="M434.284,561.675l-2.576,1.288-.717-2.29-.285-4.724s-1.145-13.165,11.595-13.022,9.875,17.175,9.875,17.175-1.862,4.866-2.29,5.009a43.926,43.926,0,0,1-11.306-.717C434.712,563.391,434.284,561.675,434.284,561.675Z" transform="translate(-328.483 -542.926)" fill="#4e2567"/>
          <path id="Trazado_106732" data-name="Trazado 106732" d="M431.927,547.706s-1.859-2.719-1.716-1a14.8,14.8,0,0,0,.856,5.013,6.414,6.414,0,0,1,.717,2.144s.285,7.585,1.431,9.447,4.153,7.442,5.441,8.445,4.006.86,4.724.143,6.725-6.154,7.585-8.588,1.716-5.869,1.716-5.869,2.576-2.719,2.719-4.866.574-3.578-.428-2.433-3.15,6.871-3.15,6.871-.143-4.866-2.144-5.294c-2.187-.471-3.15,2.144-7.589,2.576s-6.725-3.578-7.727-3.864-1.573,2-1.573,2Z" transform="translate(-329.704 -534.684)" fill="#fbab79"/>
          <path id="Trazado_106733" data-name="Trazado 106733" d="M437.665,558.839a7.427,7.427,0,0,0,.574,6.729c2.148,3.289,7.157,7.153,7.442,10.161a13.457,13.457,0,0,0,1.716,5.294s9.3.285,10.307-3.721-5.3-30.628-16.461-25.33C435.553,554.668,437.665,558.839,437.665,558.839Z" transform="translate(-311.971 -521.484)" fill="#ea526f"/>
          <path id="Trazado_106734" data-name="Trazado 106734" d="M448.669,557.852l-.86-7.585s-11.163,3.721-14.313,7.014-5.009,12.023-5.009,13.6-4.581,10.3-4.581,10.3,1.288,6.871,6.729,7.3a6.411,6.411,0,0,0,6.871-4.149s2.287-10.878,5.009-11.738,5.58-2,5.58-2Z" transform="translate(-345.872 -524.076)" fill="#ea526f"/>
          <path id="Trazado_106735" data-name="Trazado 106735" d="M438.479,610.637a.31.31,0,0,1-.157-.578l4.285-2.472a.309.309,0,1,1,.31.535l-4.285,2.472A.3.3,0,0,1,438.479,610.637Zm-4.281-.132a.315.315,0,0,1-.157-.043l-4.281-2.472a.308.308,0,1,1,.307-.535l4.285,2.472a.313.313,0,0,1,.114.421A.317.317,0,0,1,434.2,610.505Zm12.847-4.813a.31.31,0,0,1-.154-.578l4.281-2.472a.309.309,0,0,1,.311.535l-4.285,2.472A.293.293,0,0,1,447.045,605.692Zm-21.413-.136a.311.311,0,0,1-.157-.039l-4.281-2.472a.31.31,0,0,1,.307-.539l4.285,2.476a.31.31,0,0,1,.114.421A.3.3,0,0,1,425.632,605.557Zm-1.805-3.9a.306.306,0,0,1-.268-.153.314.314,0,0,1,.114-.425l4.281-2.472a.311.311,0,0,1,.31.539l-4.285,2.472A.288.288,0,0,1,423.826,601.654Zm31.784-.91a.307.307,0,0,1-.154-.574l2.915-1.684-.435-.253a.313.313,0,0,1-.114-.425.305.305,0,0,1,.421-.111l1.366.788-3.846,2.219A.289.289,0,0,1,455.611,600.744Zm-23.218-4.035a.313.313,0,0,1-.268-.154.31.31,0,0,1,.114-.424l4.281-2.472a.308.308,0,0,1,.307.535l-4.281,2.472A.292.292,0,0,1,432.392,596.709Zm21.413-.91a.34.34,0,0,1-.153-.039l-4.285-2.472a.317.317,0,0,1-.114-.425.311.311,0,0,1,.425-.114l4.285,2.473a.312.312,0,0,1,.111.424A.305.305,0,0,1,453.805,595.8Zm-12.847-4.035a.311.311,0,0,1-.157-.578l3.086-1.78,1.509.87a.309.309,0,1,1-.31.535l-1.2-.692-2.776,1.6A.293.293,0,0,1,440.958,591.764Z" transform="translate(-353.238 -423.58)" fill="#d4f6ff"/>
          <path id="Trazado_106736" data-name="Trazado 106736" d="M445.068,617.6l-.71-.442a.314.314,0,0,1-.1-.428.309.309,0,0,1,.424-.1l.4.246,3.557-2.055a.309.309,0,1,1,.31.535Zm-4.738-3.018a.3.3,0,0,1-.164-.047l-4.588-2.872,2.8-1.962a.309.309,0,1,1,.353.507l-2.037,1.427,3.8,2.376a.31.31,0,0,1-.164.571Zm12.747-1.656a.307.307,0,0,1-.153-.574l4.281-2.476a.311.311,0,1,1,.31.539l-4.285,2.472A.29.29,0,0,1,453.077,612.924Zm8.566-4.945a.31.31,0,0,1-.157-.578l4.285-2.472a.309.309,0,1,1,.311.535L461.8,607.94A.337.337,0,0,1,461.643,607.979Zm-19.033-.553a.3.3,0,0,1-.253-.132.309.309,0,0,1,.078-.428l4.053-2.836a.31.31,0,0,1,.353.51l-4.053,2.833A.326.326,0,0,1,442.61,607.426Zm27.6-4.392a.309.309,0,0,1-.153-.578l4.281-2.472a.309.309,0,0,1,.31.535l-4.285,2.472A.293.293,0,0,1,470.209,603.034Zm-19.49-1.274a.318.318,0,0,1-.257-.132.313.313,0,0,1,.078-.432l4.053-2.836a.306.306,0,0,1,.428.078.313.313,0,0,1-.075.432l-4.053,2.833A.328.328,0,0,1,450.719,601.761Zm28.056-3.671a.31.31,0,0,1-.153-.578l4.281-2.472a.308.308,0,0,1,.307.535l-4.281,2.472A.292.292,0,0,1,478.775,598.089Zm-19.954-2a.309.309,0,0,1-.175-.564l4.053-2.836a.309.309,0,1,1,.353.506L459,596.034A.3.3,0,0,1,458.821,596.092Zm28.52-2.951a.306.306,0,0,1-.268-.153.309.309,0,0,1,.111-.421l4.285-2.472a.311.311,0,0,1,.425.111.316.316,0,0,1-.114.425l-4.285,2.472A.289.289,0,0,1,487.341,593.141Zm-20.414-2.719a.309.309,0,0,1-.175-.563l4.053-2.836a.3.3,0,0,1,.428.078.308.308,0,0,1-.075.428l-4.053,2.836A.3.3,0,0,1,466.927,590.422Zm28.98-2.226a.309.309,0,0,1-.157-.578l4.285-2.472a.311.311,0,1,1,.31.539l-4.285,2.472A.306.306,0,0,1,495.907,588.2Zm-20.874-3.443a.31.31,0,0,1-.178-.564l4.056-2.836a.307.307,0,0,1,.428.079.313.313,0,0,1-.075.432l-4.057,2.833A.292.292,0,0,1,475.033,584.753Zm29.44-1.5a.313.313,0,0,1-.268-.154.31.31,0,0,1,.114-.425L508.6,580.2a.308.308,0,1,1,.307.535l-4.281,2.476A.327.327,0,0,1,504.473,583.252Zm-21.242-4.014a.308.308,0,0,1-.132-.585,25.3,25.3,0,0,1,4.7-1.709.309.309,0,0,1,.153.6,24.626,24.626,0,0,0-4.584,1.663A.3.3,0,0,1,483.231,579.238Zm24.1-.71a29.319,29.319,0,0,0-4.809-1.374.311.311,0,0,1-.243-.364.3.3,0,0,1,.364-.243,27.663,27.663,0,0,1,4.8,1.384.309.309,0,0,1-.114.6Zm-14.592-1.83a.306.306,0,0,1-.307-.278.313.313,0,0,1,.278-.339,34.774,34.774,0,0,1,4.988-.125.31.31,0,0,1,.292.325.322.322,0,0,1-.321.293,34.612,34.612,0,0,0-4.9.125Z" transform="translate(-315.902 -458.215)" fill="#d4f6ff"/>
          <path id="Trazado_106737" data-name="Trazado 106737" d="M433.093,552.3s9.733-1.145,11.021,4.292.656,7.2,2.576,8.159c2.29,1.145,4.438-1,4.438-1s-4.866.143-3.578-4.581.31-11.12-3.864-12.023C436.386,545.575,433.093,552.3,433.093,552.3Z" transform="translate(-322.283 -532.695)" fill="#4e2567"/>
        </g>
      </g>
      <g id="Grupo_70027" data-name="Grupo 70027" transform="translate(635.304 4641.015)">
        <path id="Trazado_106738" data-name="Trazado 106738" d="M498.415,751.539l106.973-62.1L428.124,587.1,321.151,649.2Z" transform="translate(-321.151 -446.331)" fill="#0075a4" style="mix-blend-mode: multiply;isolation: isolate"/>
        <g id="Grupo_70026" data-name="Grupo 70026" transform="translate(12.479)">
          <g id="Grupo_70010" data-name="Grupo 70010" transform="translate(167.479 63.571)">
            <g id="Grupo_70006" data-name="Grupo 70006" transform="translate(4.611 99.798)">
              <path id="Trazado_106739" data-name="Trazado 106739" d="M391.415,598.11s-7.685,9.708-10.114,10.92-6.875,2.426-7.685,6.472-.5,5.055,2.429,5.259,10.111-1.013,13.044-5.059,3.739-5.458,6.671-5.862,8.7-1.52,7.585-6.979-7.282-9-7.282-9Z" transform="translate(-371.996 -592.341)" fill="#a3c8d8"/>
              <path id="Trazado_106740" data-name="Trazado 106740" d="M377.6,623.111c-.271,0-.521-.007-.753-.025a4.327,4.327,0,0,1-3.325-1.341c-.87-1.142-.753-2.776-.232-5.391.8-4,4.556-5.648,7.039-6.74.475-.207.917-.4,1.306-.6,1.588-.8,6.789-6.91,9.7-10.582l5.455-5,.781.45c.271.153,6.664,3.885,7.877,9.825a6.04,6.04,0,0,1-.856,4.884c-1.752,2.476-5.277,3.218-7.774,3.564-2.112.293-2.718,1.035-5.216,4.506l-.621.86C388.008,621.62,381.23,623.111,377.6,623.111Zm15.609-23.061c-1.448,1.827-7.959,9.929-10.467,11.181-.421.211-.9.421-1.416.646-2.372,1.045-5.059,2.226-5.608,4.963-.146.724-.585,2.933-.228,3.407.068.086.346.292,1.527.375,2.943.214,9.49-1.142,11.962-4.549l.614-.853c2.5-3.479,3.65-5.063,6.889-5.512,1.174-.161,4.756-.653,6.09-2.54a3.629,3.629,0,0,0,.45-2.965c-.767-3.764-4.356-6.6-5.937-7.692Z" transform="translate(-372.885 -593.435)" fill="#fb4ea1"/>
            </g>
            <g id="Grupo_70007" data-name="Grupo 70007" transform="translate(4.611 98.179)">
              <path id="Trazado_106741" data-name="Trazado 106741" d="M391.415,597.654s-7.685,9.707-10.114,10.92-6.875,2.43-7.685,6.472-.5,5.055,2.429,5.259,10.111-1.01,13.044-5.055,3.739-5.459,6.671-5.865,8.7-1.516,7.585-6.978-7.282-9-7.282-9Z" transform="translate(-371.996 -591.885)" fill="#557999"/>
              <path id="Trazado_106742" data-name="Trazado 106742" d="M377.6,622.66c-.271,0-.521-.011-.753-.025a4.328,4.328,0,0,1-3.325-1.342c-.87-1.145-.753-2.779-.232-5.394.8-4,4.556-5.648,7.039-6.736.475-.211.917-.4,1.306-.6,1.588-.8,6.789-6.914,9.7-10.585l5.455-5,.781.45c.271.157,6.664,3.889,7.877,9.825a6.049,6.049,0,0,1-.856,4.888c-1.752,2.476-5.277,3.218-7.774,3.564-2.116.289-2.718,1.035-5.219,4.506l-.617.856C388.008,621.169,381.23,622.66,377.6,622.66ZM393.21,599.6c-1.448,1.823-7.959,9.925-10.467,11.181-.421.211-.9.421-1.416.646-2.372,1.042-5.059,2.223-5.608,4.959-.146.728-.585,2.936-.228,3.407.068.086.346.3,1.527.375,2.943.21,9.49-1.138,11.962-4.545l.614-.853c2.5-3.479,3.65-5.066,6.889-5.512,1.174-.164,4.752-.657,6.09-2.544a3.621,3.621,0,0,0,.45-2.961c-.767-3.767-4.356-6.6-5.937-7.692Z" transform="translate(-372.885 -592.981)" fill="#fb4ea1"/>
            </g>
            <path id="Trazado_106743" data-name="Trazado 106743" d="M394.406,568.523s-25.074,51.774-22.647,58.242,21.435,31.146,21.031,35.191,6.875,3.236,9.3,1.616,1.213-7.278,1.213-7.278-4.046-19.012-6.878-23.461a69.817,69.817,0,0,0-5.662-7.685l19.818-38.424,1.62-17.392Z" transform="translate(-371.593 -557.602)" fill="#4e2567"/>
            <g id="Grupo_70008" data-name="Grupo 70008" transform="translate(34.989 119.201)">
              <path id="Trazado_106744" data-name="Trazado 106744" d="M389.671,601.446s-.71,9.1-2.426,12.537-7.685,9.2-4.652,13.247,10.314.407,12.943-3.539,2.629-9.1,4.449-11.831-1.113-8.191-1.62-11.427S389.671,601.446,389.671,601.446Z" transform="translate(-380.509 -597.991)" fill="#98c4da"/>
              <path id="Trazado_106745" data-name="Trazado 106745" d="M387.248,631.116a5.682,5.682,0,0,1-4.752-2.262c-2.8-3.735.389-8.348,2.726-11.713a27.356,27.356,0,0,0,1.809-2.829c1.32-2.64,2.109-9.615,2.3-12.08l.054-.685.607-.317c1.52-.785,6.668-3.261,9.126-2.009a2.5,2.5,0,0,1,1.363,1.905,24.73,24.73,0,0,0,.9,3.279c.992,3.111,2.116,6.636.524,9.023a15.951,15.951,0,0,0-1.6,4.509,23.333,23.333,0,0,1-2.847,7.325c-1.859,2.79-6.108,5.744-9.989,5.851C387.394,631.116,387.319,631.116,387.248,631.116Zm4.485-27.992c-.207,2.248-.956,9.223-2.49,12.294a28.037,28.037,0,0,1-1.991,3.132c-2.558,3.689-4.385,6.679-2.776,8.82a3.3,3.3,0,0,0,2.922,1.27c2.669-.071,6.332-2.251,8-4.752a21.191,21.191,0,0,0,2.508-6.572,17.525,17.525,0,0,1,1.937-5.259c.935-1.4-.039-4.449-.821-6.9a25.883,25.883,0,0,1-.988-3.65C397.533,601.023,394.7,601.69,391.732,603.124Z" transform="translate(-381.4 -598.874)" fill="#fb4ea1"/>
            </g>
            <g id="Grupo_70009" data-name="Grupo 70009" transform="translate(34.989 117.582)">
              <path id="Trazado_106746" data-name="Trazado 106746" d="M389.671,600.99s-.71,9.1-2.426,12.54-7.685,9.2-4.652,13.247,10.314.4,12.943-3.539,2.629-9.1,4.449-11.831-1.113-8.191-1.62-11.427S389.671,600.99,389.671,600.99Z" transform="translate(-380.509 -597.535)" fill="#557999"/>
              <path id="Trazado_106747" data-name="Trazado 106747" d="M387.248,630.662A5.688,5.688,0,0,1,382.5,628.4c-2.8-3.739.389-8.348,2.726-11.713a27.35,27.35,0,0,0,1.809-2.829c1.32-2.64,2.109-9.618,2.3-12.08l.054-.689.607-.314c1.52-.788,6.668-3.264,9.126-2.012a2.51,2.51,0,0,1,1.363,1.909,24.858,24.858,0,0,0,.9,3.279c.992,3.111,2.116,6.636.524,9.023a15.925,15.925,0,0,0-1.6,4.506,23.333,23.333,0,0,1-2.847,7.324c-1.859,2.794-6.108,5.744-9.989,5.851Zm4.485-27.992c-.207,2.248-.956,9.222-2.49,12.3a28.038,28.038,0,0,1-1.991,3.133c-2.558,3.685-4.385,6.679-2.776,8.819a3.286,3.286,0,0,0,2.922,1.27c2.669-.075,6.332-2.251,8-4.752a21.257,21.257,0,0,0,2.508-6.571,17.544,17.544,0,0,1,1.937-5.263c.935-1.395-.039-4.445-.821-6.9a25.905,25.905,0,0,1-.988-3.653C397.533,600.572,394.7,601.24,391.732,602.67Z" transform="translate(-381.4 -598.42)" fill="#fb4ea1"/>
            </g>
            <path id="Trazado_106748" data-name="Trazado 106748" d="M379.688,575.17s7.685,21.031,7.685,25.48-5.259,40.446-3.236,47.325,10.921,31.952,9.708,34.785.81,6.065.81,6.065,8.495,3.236,10.111,0S408,685.186,408,685.186s3.236-31.549,0-34.382a17.722,17.722,0,0,1-4.449-5.662s12.943-50.557,10.518-63.5a20.927,20.927,0,0,0-13.753-16.18Z" transform="translate(-350.807 -565.462)" fill="#61317c"/>
          </g>
          <g id="Grupo_70016" data-name="Grupo 70016" transform="translate(0 59.686)">
            <g id="Grupo_70011" data-name="Grupo 70011" transform="translate(152.529 102.599)">
              <path id="Trazado_106749" data-name="Trazado 106749" d="M367.778,604.367c.332,3.617,8.873.332,14.46,4.93a25.473,25.473,0,0,0,19.39,5.59c6.243-.988-6.575-11.177-6.575-11.177l-15.773-9.526s-.9,4.106-4.848,2.872-5.013-2.547-5.013-2.547C370.079,600.1,367.446,600.753,367.778,604.367Z" transform="translate(-366.512 -590.425)" fill="#fc62a2"/>
              <path id="Trazado_106750" data-name="Trazado 106750" d="M399.221,619.086a27.121,27.121,0,0,1-16.879-6.129c-2.6-2.137-6.058-2.38-8.837-2.576-2.858-.2-5.812-.41-6.069-3.193a8.153,8.153,0,0,1,.842-4.313,9.373,9.373,0,0,0,.806-5.512l-.5-4.231,2.686,3.3s1.038,1.092,4.424,2.148a2.425,2.425,0,0,0,1.994-.071,3.366,3.366,0,0,0,1.274-1.887l.371-1.684,17.253,10.421c3.025,2.394,9.672,8.109,8.794,11.431-.2.76-.824,1.734-2.665,2.023A22.7,22.7,0,0,1,399.221,619.086Zm-27.589-19.465a11.592,11.592,0,0,1-1.074,4.213,5.84,5.84,0,0,0-.66,3.129c.061.642,1.534.792,3.782.953,2.965.207,7.025.492,10.229,3.132a24.413,24.413,0,0,0,18.416,5.326,1.261,1.261,0,0,0,.674-.228c.325-1.035-3.475-5.3-7.828-8.758l-14.4-8.687a5.008,5.008,0,0,1-1.844,1.948,4.789,4.789,0,0,1-3.974.3A21.036,21.036,0,0,1,371.633,599.621Z" transform="translate(-367.402 -593.131)" fill="#b53e77"/>
            </g>
            <g id="Grupo_70015" data-name="Grupo 70015">
              <g id="Grupo_70012" data-name="Grupo 70012" transform="translate(6.692 9.479)">
                <path id="Trazado_106751" data-name="Trazado 106751" d="M419.577,567.03v86.934l-91.65,53.261V620.291Z" transform="translate(-322.924 -567.03)" fill="#98c4da"/>
                <path id="Trazado_106752" data-name="Trazado 106752" d="M331.527,584.037v86.934l-5-2.888V581.149Z" transform="translate(-326.525 -530.776)" fill="#7a9dc2"/>
              </g>
              <g id="Grupo_70014" data-name="Grupo 70014" style="isolation: isolate">
                <g id="Grupo_70013" data-name="Grupo 70013" transform="translate(160.216 98.116)">
                  <path id="Trazado_106753" data-name="Trazado 106753" d="M462.609,591.875v86.934l-91.65,53.261V645.136Z" transform="translate(-365.956 -591.875)" fill="#98c4da"/>
                  <path id="Trazado_106754" data-name="Trazado 106754" d="M374.559,608.882v86.934l-5-2.888V605.994Z" transform="translate(-369.557 -555.621)" fill="#7a9dc2"/>
                </g>
                <path id="Trazado_106755" data-name="Trazado 106755" d="M463.934,591.875v5.334l-91.65,53.261v-5.334Z" transform="translate(-202.34 -493.758)" fill="#7a9dc2"/>
                <path id="Trazado_106756" data-name="Trazado 106756" d="M494.593,677.419v5.334L324.649,584.637V579.3Z" transform="translate(-324.649 -526.042)" fill="#557999"/>
                <path id="Trazado_106757" data-name="Trazado 106757" d="M586.243,662.489l-91.65,53.261L324.649,617.632l91.659-53.259Z" transform="translate(-324.649 -564.373)" fill="#98c4da"/>
              </g>
            </g>
          </g>
          <path id="Trazado_106758" data-name="Trazado 106758" d="M473.215,689.474,332.428,608.19l69.842-40.323,140.787,81.283Z" transform="translate(-304.675 -495.715)" fill="#f8e1e1"/>
          <g id="Grupo_70017" data-name="Grupo 70017" transform="translate(103.213 80.732)">
            <path id="Trazado_106759" data-name="Trazado 106759" d="M387.222,600.05l-33.643-19.426,17.763-10.254Zm-25.887-19.426,14.114,8.152-6.661-12.454Z" transform="translate(-353.579 -570.02)" fill="#cf94b3"/>
            <path id="Trazado_106760" data-name="Trazado 106760" d="M387.222,599.952l-33.643-19.422,17.763-10.257Zm-25.887-19.422,14.114,8.149-6.661-12.451Z" transform="translate(-353.579 -570.272)" fill="#e6bbeb"/>
          </g>
          <g id="Grupo_70021" data-name="Grupo 70021" transform="translate(123.543)">
            <g id="Grupo_70019" data-name="Grupo 70019" transform="translate(0 20.623)">
              <g id="Grupo_70018" data-name="Grupo 70018" transform="translate(0 8.484)">
                <path id="Trazado_106761" data-name="Trazado 106761" d="M398.02,570.835a39.782,39.782,0,0,1-1.923,9c-1.416,3.539-8.9,24.267-9.5,25.48a73.861,73.861,0,0,1-4.855,6.169,9.173,9.173,0,0,0-1.82,2.933c-.2,1.113-1.113,3.439-2.629,3.439s-1.919-1.217-1.313-2.326,1.616-1.213,1.616-2.429v-2.426s-8.491-.5-9.1-.4a23.632,23.632,0,0,0-3.336.91,9.3,9.3,0,0,1-3.639.706c-.71-.2-1.819-1.213-.91-1.716s1.516-.71,2.829-1.416,6.878-1.213,6.878-1.213l-7.988-.407a8.153,8.153,0,0,1-2.529-.507,1.112,1.112,0,0,1-.2-1.716,4.2,4.2,0,0,1,1.516-.407s-1.213-1.01-.5-1.416a6.881,6.881,0,0,1,1.516-.607s-.3-.806,0-1.01,9.807,1.113,12.74.91a15.707,15.707,0,0,0,5.462-1.516s2.223-21.335,3.336-24.167,6.268-12.74,6.268-12.74Z" transform="translate(-359.278 -534.854)" fill="#fd8e79"/>
                <path id="Trazado_106762" data-name="Trazado 106762" d="M385.743,574.087,379.271,592.8s-3.643,3.032-7.585,1.01a9.58,9.58,0,0,1-4.752-6.169s4.146-30.232,8.694-31.752S385.743,574.087,385.743,574.087Z" transform="translate(-339.619 -555.802)" fill="#cc3451"/>
              </g>
              <path id="Trazado_106763" data-name="Trazado 106763" d="M369.314,565.127s12.337,24.571,14.563,26.9,13.347,13.957,13.55,15.066a20.94,20.94,0,0,0,.91,2.933s10.011,10.214,23.154,6.069,13.65-14.866,13.65-14.866S422.808,589.091,422.1,581s-20.828-26.19-29.626-27.1S368.4,551.984,369.314,565.127Z" transform="translate(-333.607 -553.424)" fill="#ea526f"/>
              <path id="Trazado_106764" data-name="Trazado 106764" d="M419.76,568.5l-9.908-.71s-9.911,5.462-12.744,9.1-12.233,7.482-12.233,7.482c-1.213,1.213-2.833,3.439-5.562,2.932-1.6-.3-7.381,3.34-9.1,3.136s-2.023,1.113-.706,2.123,8.191-1.01,8.191-1.01-3.111,5.073-2.158,6.507l-.371.467s-2.326,10.617-1.416,11.224,1.62.607,1.82.2.1-5.562,1.113-7.785c.564-1.245,1.027-2.376,1.334-3.147.136.032.271.064.414.1a100.647,100.647,0,0,0,.678,10.732c.507,2.223,2.326,1.819,2.023.806-.385-1.291.517-8.955.756-10.881.335,2.034,1.32,10.089,2.38,10.881,1.213.914,1.82,0,1.82,0l-1-10.531c.257,1.2,1.73,8.359,3.118,8.915,1.516.607,1.516.507,1.62.1s-.81-2.932-1.013-4.042c-.157-.867-.621-4.606-.817-6.222a40.038,40.038,0,0,0,2.84-7.531s26.19-13.853,27.706-17.392S419.76,568.5,419.76,568.5Z" transform="translate(-335.112 -516.546)" fill="#fd8e79"/>
              <path id="Trazado_106765" data-name="Trazado 106765" d="M384.885,559.07s-6.472,4.449-6.472,10.111,3.133,13.75,3.133,16.076a79.681,79.681,0,0,0,1.213,8.8s4.349,5.359,8.7,2.833l4.349-2.53s4.146-24.67,0-32.052S384.885,559.07,384.885,559.07Z" transform="translate(-310.144 -541.905)" fill="#f16882"/>
            </g>
            <g id="Grupo_70020" data-name="Grupo 70020" transform="translate(22.385)">
              <path id="Trazado_106766" data-name="Trazado 106766" d="M368.56,567.432a8.394,8.394,0,0,1-2.476-3.136,10.284,10.284,0,0,1,3.236-11.124c4.349-3.639,10.767-5.762,14.41-5.508s10.514,4.9,11.577,10.717a21.356,21.356,0,0,1-1.434,11.31s-.738,3.657-.738,4.517.3,1.77-2.53,3.386a22.911,22.911,0,0,1-5.309,2.226l-5.055-1.113-3.693-5.562Z" transform="translate(-365.552 -547.643)" fill="#4e2567"/>
              <path id="Trazado_106767" data-name="Trazado 106767" d="M393.141,562.743s-.4,4.313,3.236,5.8,4.046.268,5.8,5.8-1.616,10.785-4.988,11.863-6.472,1.213-7.952-.539-8.63-9.3-8.63-9.3-4.028,1.62-5.241,1.62-2.073-1.516-2.479-1.82-1.516-1.466-1.313-1.923l.2-.453s-.81-.457-1.063-.66-.2-1.969-.2-1.969a15.821,15.821,0,0,1-2.526-.557.894.894,0,0,1-.457-1.466c.407-.457,1.163-.606,1.267-1.67s.15-3.539.15-3.539-2.276-1.163-2.526-2.933-1.366-6.875.4-10.011,3.236,6.322,6.219,9.4,7.938,3.339,9.454,4.652a4.087,4.087,0,0,1,1.113,3.539s2.679-4.752,2.679-6.218.3-3.032,2.073-3.693,3.386,1.217,3.236,2.933-.76,3.693-1.466,3.693h-.71s1.366,1.466,2.023.96S393.141,562.743,393.141,562.743Z" transform="translate(-364.82 -540.695)" fill="#fd8e79"/>
            </g>
          </g>
          <g id="Grupo_70022" data-name="Grupo 70022" transform="translate(54.182 96.108)">
            <path id="Trazado_106768" data-name="Trazado 106768" d="M479.91,629.039l-26.536,15.32-.325-.153c-.275-.128-27.446-12.911-36.761-18.434s-32.252-13.307-43.172-15.855c-10.635-2.487-30.2-13.314-31.024-13.775l-.293-.164,11.538-8.962s9.718,3.1,14.053,4.527c-1.113-.589-12.494-6.629-12.494-6.629l11.8-10.332.392.168c.264.114,26.469,11.292,34.82,12.947,8.152,1.616,18.395-4.367,18.445-4.41l.5-.292.268.382c.089.128,9.212,13.09,16.961,18.862,7.774,5.79,41.185,26.4,41.521,26.611Zm-26.6,14.6,25.305-14.609c-3.407-2.105-33.871-20.949-41.271-26.461-7.082-5.277-15.266-16.447-16.829-18.62-2.212,1.22-11.2,5.787-18.912,4.256-8.017-1.588-31.228-11.388-34.674-12.854l-10.821,9.479c5.177,2.751,15.548,8.252,15.548,8.252l-.3.2c-.132.071-.189.1-.6-.046-.621-.232-10.457-3.386-17.157-5.523l-10.567,8.206c2.537,1.391,20.664,11.217,30.432,13.5,10.992,2.569,34.092,10.41,43.486,15.98C425.677,630.57,450.194,642.168,453.309,643.638Z" transform="translate(-334.798 -574.582)" fill="#ae89b3"/>
            <path id="Trazado_106769" data-name="Trazado 106769" d="M446.335,640.589l-.66.382-.656-.382.656-.378Zm-3.289-1.894-.657.378-2.629-1.52.657-.378Zm-5.259-3.036-.656.378-2.629-1.52.656-.378Zm-5.259-3.04-.656.382-2.629-1.52.656-.378Zm-5.259-3.036-.656.382-2.629-1.52.656-.378Zm-5.259-3.036-.656.382-2.633-1.52.66-.378Zm-5.259-3.036-.66.382-2.629-1.52.66-.378Zm-5.259-3.036-.66.382-2.629-1.52.66-.378Zm-5.262-3.036-.657.378-2.629-1.516.657-.378Zm-5.259-3.036-.656.378-2.629-1.516.656-.382Zm-5.259-3.036-.656.378-2.629-1.516.656-.382Zm-5.259-3.036-.656.378-2.629-1.517.656-.382Zm-5.259-3.036-.656.378-2.629-1.516.656-.382Zm-5.259-3.036-.656.378-2.629-1.516.656-.382Zm-5.259-3.036-.656.378-2.629-1.516.656-.382Zm-5.259-3.036-.66.378-2.629-1.52.66-.378Zm-5.259-3.04-.66.382-2.629-1.52.66-.378ZM358.9,590.11l-.66.382-2.629-1.52.656-.378Zm-5.262-3.036-.656.382-2.629-1.52.656-.378Zm-5.259-3.036-.656.382-2.629-1.52.656-.378ZM343.122,581l-.656.382-2.629-1.52.656-.378Z" transform="translate(-339.836 -561.993)" fill="#ae89b3"/>
            <path id="Trazado_106770" data-name="Trazado 106770" d="M400.374,577.4l-2.629,1.516-.66-.378,2.633-1.52Zm-5.259,3.036-2.629,1.516-.66-.378,2.629-1.52Zm-5.259,3.036-2.629,1.516-.66-.378,2.629-1.52Zm-5.262,3.036-2.629,1.516-.656-.378,2.629-1.52Zm-5.259,3.036-2.629,1.516-.656-.378,2.629-1.52Zm-5.259,3.036-2.629,1.516-.656-.378,2.629-1.516Zm-5.259,3.036-2.629,1.52-.656-.382,2.629-1.516Zm-5.259,3.036-2.629,1.52-.656-.382,2.629-1.516ZM358.3,601.69l-2.629,1.52-.656-.382,2.629-1.516Zm-5.259,3.036-2.629,1.52-.656-.382,2.629-1.516Z" transform="translate(-314.365 -568.322)" fill="#ae89b3"/>
            <path id="Trazado_106771" data-name="Trazado 106771" d="M436.265,629.174l-.66.382-1.641-.949.656-.382Zm-4.274-2.465-.657.378-2.629-1.516.656-.382Zm-5.259-3.036-.656.378-2.629-1.516.657-.382Zm-5.259-3.036-.657.378-2.633-1.516.66-.382Zm-5.259-3.036-.66.378-2.629-1.52.66-.378Zm-5.259-3.036-.66.378-2.629-1.52.66-.378Zm-5.262-3.04-.656.382-2.629-1.52.656-.378Zm-5.259-3.036-.656.382-2.629-1.52.656-.378Zm-5.259-3.036-.657.382-2.629-1.52.657-.378Zm-5.259-3.036-.656.382-2.629-1.52.657-.378Zm-5.259-3.036-.657.382-2.629-1.52.657-.378Zm-5.259-3.036-.656.378-2.629-1.516.657-.378Zm-5.259-3.036-.657.378-2.633-1.516.66-.378Zm-5.259-3.036-.66.378-2.629-1.516.66-.382Zm-5.259-3.036-.66.378-2.629-1.516.66-.382Zm-5.262-3.036-.656.378-2.63-1.516.657-.382Zm-5.259-3.036-.656.378-2.629-1.516.657-.382Z" transform="translate(-314.208 -561.584)" fill="#ae89b3"/>
            <path id="Trazado_106772" data-name="Trazado 106772" d="M369.511,575.416l-2.629,1.516-.656-.378,2.629-1.52Zm-5.259,3.036-2.629,1.516-.66-.378,2.629-1.52Zm-5.259,3.036L356.364,583l-.66-.378,2.629-1.516Zm-5.259,3.036-2.633,1.52-.656-.382,2.629-1.516Zm-5.262,3.036-2.629,1.52-.656-.382,2.629-1.516Zm-5.259,3.036-2.629,1.52-.656-.382,2.629-1.516Z" transform="translate(-339.6 -573.421)" fill="#ae89b3"/>
          </g>
          <g id="Grupo_70023" data-name="Grupo 70023" transform="translate(153.833 109.553)">
            <path id="Trazado_106773" data-name="Trazado 106773" d="M432.776,629.245c-4.873.275-8.648-4.082-8.648-8.8s-8.644-13.889-19.337-19.515-36.786-18.334-36.943-19.7.788-4.445,7.7-1.359,47.792,18.334,63.355,32.947C443.772,617.386,446.868,628.46,432.776,629.245Z" transform="translate(-367.601 -577.847)" fill="#ae89b3"/>
            <path id="Trazado_106774" data-name="Trazado 106774" d="M432.711,629.053c-4.873.271-8.648-4.085-8.648-8.805s-8.648-13.885-19.337-19.512-36.786-18.334-36.943-19.7.785-4.449,7.7-1.363,47.792,18.334,63.355,32.947C443.707,617.194,446.8,628.264,432.711,629.053Z" transform="translate(-367.768 -578.351)" fill="#e6bbeb"/>
          </g>
          <g id="Grupo_70024" data-name="Grupo 70024" transform="translate(18.984 105.992)">
            <path id="Trazado_106775" data-name="Trazado 106775" d="M329.97,580.478l61.153,35.307,5.188-3-61.153-35.307Z" transform="translate(-329.97 -577.018)" fill="#ae89b3"/>
            <path id="Trazado_106776" data-name="Trazado 106776" d="M329.97,580.348l61.153,35.306,5.188-2.995-61.153-35.307Z" transform="translate(-329.97 -577.352)" fill="#e6bbeb"/>
          </g>
          <g id="Grupo_70025" data-name="Grupo 70025" transform="translate(157.253 174.179)">
            <path id="Trazado_106777" data-name="Trazado 106777" d="M371.548,615.1s-6.133-2.087-.314-9.258,18.548-11.256,24.053-8.259,3.143,6.172-.945,9.076-12.105,2.815-15.562,4.449S375.479,615.74,371.548,615.1Z" transform="translate(-368.726 -596.131)" fill="#ae89b3"/>
            <path id="Trazado_106778" data-name="Trazado 106778" d="M371.548,614.975s-6.133-2.087-.314-9.258,18.548-11.256,24.053-8.259,3.143,6.172-.945,9.076-12.105,2.811-15.562,4.445S375.479,615.61,371.548,614.975Z" transform="translate(-368.726 -596.465)" fill="#e6bbeb"/>
          </g>
        </g>
      </g>
    </g>
  </g>
</svg>
