<svg xmlns="http://www.w3.org/2000/svg" width="143.229" height="123.333" viewBox="0 0 143.229 123.333">
  <g id="Grupo_70172" data-name="Grupo 70172" transform="translate(6774 9550.607)">
    <g id="Grupo_69186" data-name="Grupo 69186" transform="translate(-6774 -9550.607)">
      <path id="Rectángulo_7188" data-name="Rectángulo 7188" d="M0,0H143.229V112.321H7.538A7.538,7.538,0,0,1,0,104.783Z" transform="translate(0 11.011)" fill="#fff"/>
      <g id="_95" data-name="95" transform="translate(11.81 37.136)">
        <g id="Grupo_69182" data-name="Grupo 69182" transform="translate(0 0)">
          <g id="Grupo_69181" data-name="Grupo 69181" transform="translate(0 0)">
            <rect id="Rectángulo_7181" data-name="Rectángulo 7181" width="126.393" height="2.302" transform="translate(0 72.563)" fill="#e4dad8"/>
            <g id="Grupo_69156" data-name="Grupo 69156" transform="translate(19.677 3.565)">
              <g id="Grupo_69152" data-name="Grupo 69152">
                <rect id="Rectángulo_7182" data-name="Rectángulo 7182" width="69.161" height="49.709" fill="#e4dad8"/>
                <rect id="Rectángulo_7183" data-name="Rectángulo 7183" width="61.965" height="41.979" transform="translate(3.598 3.865)" fill="#fec377"/>
                <path id="Trazado_106117" data-name="Trazado 106117" d="M267.778,82.639h.312v41.979h-.312Zm8.615,0h.312v41.979h-.312Zm-2.871,0h.312v41.979h-.312Zm-2.871,0h.312v41.979h-.312Zm-5.738,0h.312v41.979h-.312Zm-2.871,0h.312v41.979h-.316V82.639Zm-2.871,0h.312v41.979h-.312Zm-2.871,0h.312v41.979H256.3Zm-2.871,0h.312v41.979h-.312Zm-2.871,0h.312v41.979h-.312Zm-2.871,0H248v41.979h-.312Zm-2.871,0h.312v41.979h-.312Zm-2.871,0h.312v41.979h-.312Zm-2.871,0h.312v41.979h-.312Zm-2.871,0h.312v41.979H236.2Zm-2.871,0h.312v41.979h-.312Zm-2.871,0h.312v41.979h-.317V82.639Zm-2.871,0h.312v41.979h-.312Zm-2.871,0h.311v41.979h-.312V82.639Zm-2.871,0h.312v41.979h-.312Zm-2.871,0h.312v41.979h-.312Z" transform="translate(-213.255 -78.774)" fill="#eda568" fill-rule="evenodd"/>
                <path id="Trazado_106118" data-name="Trazado 106118" d="M265.334,135.965v.312H203.369v-.312Zm0-2.871v.312H203.369v-.312Zm0-2.871v.312H203.369v-.312Zm0-2.871v.312H203.369v-.312Zm0-2.871v.311H203.369v-.311Zm0-2.871v.312H203.369v-.312Zm0-2.871v.312H203.369v-.312Zm0-2.871v.312H203.369v-.312Zm0-2.871v.312H203.369v-.312Zm0-2.871v.312H203.369v-.312Zm0-2.871v.312H203.369v-.312Zm0-2.871v.312H203.369v-.312Zm0-2.871v.312H203.369v-.312Zm0-2.871v.312H203.369v-.312Z" transform="translate(-199.771 -92.601)" fill="#eda568" fill-rule="evenodd"/>
                <g id="Grupo_69151" data-name="Grupo 69151" transform="translate(0.918 1.049)">
                  <path id="Trazado_106119" data-name="Trazado 106119" d="M184.886,64.4a1.268,1.268,0,1,0-1.269-1.268,1.268,1.268,0,0,0,1.269,1.268Z" transform="translate(-183.617 -61.864)" fill="#a39691" fill-rule="evenodd"/>
                  <path id="Trazado_106120" data-name="Trazado 106120" d="M184.886,396.863a1.268,1.268,0,1,0-1.269-1.268,1.268,1.268,0,0,0,1.269,1.268Z" transform="translate(-183.617 -349.251)" fill="#a39691" fill-rule="evenodd"/>
                  <path id="Trazado_106121" data-name="Trazado 106121" d="M662.729,64.4a1.268,1.268,0,1,0-1.268-1.268A1.268,1.268,0,0,0,662.729,64.4Z" transform="translate(-596.673 -61.864)" fill="#a39691" fill-rule="evenodd"/>
                  <path id="Trazado_106122" data-name="Trazado 106122" d="M662.729,396.863a1.268,1.268,0,1,0-1.268-1.268A1.268,1.268,0,0,0,662.729,396.863Z" transform="translate(-596.673 -349.251)" fill="#a39691" fill-rule="evenodd"/>
                </g>
              </g>
              <g id="Grupo_69155" data-name="Grupo 69155" transform="translate(13.477 5.871)">
                <g id="Grupo_69153" data-name="Grupo 69153" transform="translate(0 3.508)">
                  <path id="Trazado_106123" data-name="Trazado 106123" d="M276.92,141.333c-.106.066-.331-.016-.5-.184s-.222-.358-.115-.424a7.992,7.992,0,0,0,.932-.762,13.134,13.134,0,0,1,1.9-1.481,14.826,14.826,0,0,1,7.47-1.78,6.785,6.785,0,0,0,2.638-.377c.484-.277,1.206-2.2,1.666-3.429.138-.367.253-.678.333-.862.049-.115.247-.094.443.046s.313.347.264.461c-.08.186-.194.49-.329.852-.473,1.26-1.206,3.225-1.768,3.543a6.911,6.911,0,0,1-2.789.421,14.549,14.549,0,0,0-7.308,1.734,12.974,12.974,0,0,0-1.86,1.456A7.98,7.98,0,0,1,276.92,141.333Z" transform="translate(-276.248 -130.783)" fill="#fff" fill-rule="evenodd"/>
                  <path id="Trazado_106124" data-name="Trazado 106124" d="M318.013,126.381a1.878,1.878,0,0,0,.887,1.432,1.6,1.6,0,0,0,.76.179,1.679,1.679,0,0,0,.861-.244,2.273,2.273,0,0,0,.991-1.79v-.013a1.713,1.713,0,0,0-.951-1.71,2.276,2.276,0,0,0-.984-.259,1.607,1.607,0,0,0-.98.271,2.033,2.033,0,0,0-.59,2.136Zm.895,1.96a3.091,3.091,0,0,1-1.615-2.278,2.3,2.3,0,0,1,.684-2.418,1.96,1.96,0,0,1,1.187-.325,3.229,3.229,0,0,1,1.389.377,2.8,2.8,0,0,1,1.687,2.666v.017a2.508,2.508,0,0,1-1.1,1.975,2.024,2.024,0,0,1-1.04.289,2.525,2.525,0,0,1-1.188-.3Z" transform="translate(-311.674 -123.317)" fill="#fff" fill-rule="evenodd"/>
                  <path id="Trazado_106125" data-name="Trazado 106125" d="M300.384,141.076c.049-.115.247-.094.443.046s.313.347.264.461a7.505,7.505,0,0,0-.473,1.922,4.674,4.674,0,0,1-2.832,4.146c-.666.357-1.514.764-2.421,1.2-.666.32-1.364.655-2.056,1,.173.014.322.03.437.045a7.892,7.892,0,0,0,2.638-.087,1.684,1.684,0,0,0,1.248-.852c.047-.116.244-.1.44.041s.314.345.266.461a1.914,1.914,0,0,1-1.419.992,8.425,8.425,0,0,1-2.819.093c-.106-.014-.268-.03-.478-.047-.377-.029-.877-.057-1.437-.066a17.175,17.175,0,0,0-3.29,2.167l.23.021a34.1,34.1,0,0,0,7.327-.678l.189-.035a6.319,6.319,0,0,1,3.769.483,6.864,6.864,0,0,1,2.51,1.981,5.907,5.907,0,0,1,1.206,2.594,4.117,4.117,0,0,1-.28,2.452c-.528,1.155-1.069,1.335-1.616,1.1l-.031-.013a3.612,3.612,0,0,1-1.1-.949,2.758,2.758,0,0,0-.625-.59c-.344-.151-.758.109-1.341,1.432-.322.73-.729.841-1.176.644a3.651,3.651,0,0,1-1.226-1.152,3.249,3.249,0,0,0-.568-.632c-.13-.051-.282.082-.475.572-.583,1.483-1.107,1.793-1.545,1.621a2.284,2.284,0,0,1-1.075-1.442c-.023-.06.459.1.21,0-.574-.24-.876.492-1.121,1.088-.151.371-.288.7-.5.789-.934.4-1.417.062-1.7-.575l-.012-.026a3.1,3.1,0,0,1-.168-1.032c-.014-.283.309-.528.14-.54-.789-.054-.882.754-.963,1.471a4.04,4.04,0,0,1-.141.792c-.131.389-.391.594-.973.4a2.74,2.74,0,0,1-.789-.421,3.865,3.865,0,0,1-1.293-3.162,11.691,11.691,0,0,1,.65-3.71,8.53,8.53,0,0,1,1.1-2.261,1.467,1.467,0,0,1-.935-1.5l.008-.063c.122-.829,1.35-1.213,2.776-1.372a19.371,19.371,0,0,1,2.3-.1c1.027-.548,2.106-1.067,3.114-1.551.877-.421,1.7-.815,2.412-1.2a4.476,4.476,0,0,0,2.714-3.972,7.775,7.775,0,0,1,.489-1.989Zm-12,12.043c-.066.075-.127.151-.184.226a8.207,8.207,0,0,0-1.087,2.229,11.381,11.381,0,0,0-.634,3.607,3.044,3.044,0,0,0,.785,2.392,1.307,1.307,0,0,0,.377.2c.249.084.377-.048.452-.277a3.914,3.914,0,0,0,.127-.733c.1-.829.2-1.768,1.294-1.694.9.061.943.789.98,1.563a2.837,2.837,0,0,0,.116.829l.452-.191c.127-.054.245-.34.377-.664.3-.721.662-1.606,1.714-1.165.347.146.452.421.59.776.1.272.243.656.248.657.181.071.476-.256.98-1.53.273-.693.634-.824,1.043-.663a3.348,3.348,0,0,1,1.221,1.131,3.2,3.2,0,0,0,.619.678c.151.068.335-.06.565-.581.678-1.539,1.326-1.768,1.952-1.492a3.666,3.666,0,0,1,1.171.994,2.769,2.769,0,0,0,.574.552l.014.007c.262.109.574-.095,1.008-1.041a3.778,3.778,0,0,0,.262-2.25,4.966,4.966,0,0,0-1-2.186,5.239,5.239,0,0,0-1.919-1.512,5.578,5.578,0,0,0-3.335-.4l-.188.033a34.46,34.46,0,0,1-7.451.678,7.828,7.828,0,0,1-1.125-.162Zm-.519-.728a12.071,12.071,0,0,1,2.544-1.907c-.193.014-.384.03-.571.051-1.315.146-2.442.478-2.54,1.159l0,.041C287.275,152.036,287.492,152.247,287.869,152.391Z" transform="translate(-284.465 -138.603)" fill="#fff" fill-rule="evenodd"/>
                  <path id="Trazado_106126" data-name="Trazado 106126" d="M335.216,277.535c.075.175-.014.28-.2.236a.778.778,0,0,1-.473-.4,15.847,15.847,0,0,1-.577-2.228c-.234-1.115-.48-2.46-.67-3.676a22.876,22.876,0,0,1-.035-5.658A7.443,7.443,0,0,1,334,263.24a1.842,1.842,0,0,1,1.7-1.091,2.8,2.8,0,0,1,1.042.267c1.858.834,1.7,4.635,1.575,7.562a11.512,11.512,0,0,0,.057,3.046c.081.176,0,.288-.185.249a.779.779,0,0,1-.48-.39,10.426,10.426,0,0,1-.118-3.31c.112-2.666.258-6.13-.764-6.588a1.918,1.918,0,0,0-.715-.183,1.583,1.583,0,0,0-1.423.966,7.212,7.212,0,0,0-.71,2.478,22.421,22.421,0,0,0,.033,5.544c.193,1.233.436,2.563.663,3.648a15.632,15.632,0,0,0,.535,2.1Z" transform="translate(-325.392 -243.323)" fill="#fff" fill-rule="evenodd"/>
                </g>
                <g id="Grupo_69154" data-name="Grupo 69154" transform="translate(23.377 0)">
                  <path id="Trazado_106127" data-name="Trazado 106127" d="M494.181,103.651a3.177,3.177,0,0,1-2.6-1.683,3.074,3.074,0,0,1-.32-1.481,3.977,3.977,0,0,1,.306-1.414,2.441,2.441,0,0,1,1.682-1.609,2.815,2.815,0,0,1,2.9,1.879,4.5,4.5,0,0,1,.412,1.7,3.306,3.306,0,0,1-.286,1.565,1.885,1.885,0,0,1-2.1,1.046Zm-1.952-1.576a1.915,1.915,0,0,0,1.594.926,1.591,1.591,0,0,0,1.753-.915,3,3,0,0,0,.262-1.418,3.88,3.88,0,0,0-.35-1.464,1.667,1.667,0,0,0-1.743-1.089,2.2,2.2,0,0,0-1.473,1.462,3.687,3.687,0,0,0-.285,1.309,2.477,2.477,0,0,0,.243,1.19Z" transform="translate(-485.485 -97.438)" fill="#fff" fill-rule="evenodd"/>
                  <path id="Trazado_106128" data-name="Trazado 106128" d="M449,121.664c-.2-.129-.332-.336-.3-.462s.219-.124.417,0a11.664,11.664,0,0,0,4.183,1.814,10.376,10.376,0,0,0,4.715-.263,18.273,18.273,0,0,0,5.673-3.159c1.545-1.227,2.81-2.61,3.109-3.8.032-.127.219-.124.416,0s.332.336.3.463c-.312,1.246-1.608,2.672-3.187,3.926a18.55,18.55,0,0,1-5.771,3.206,10.864,10.864,0,0,1-4.944.264A12.848,12.848,0,0,1,449,121.664Z" transform="translate(-448.694 -113.229)" fill="#fff" fill-rule="evenodd"/>
                  <path id="Trazado_106129" data-name="Trazado 106129" d="M521.069,148.285c-.031-.16.1-.226.3-.139a.732.732,0,0,1,.415.441.468.468,0,0,0,.026.09c.167.4,1.169.669,2.318.816a13.03,13.03,0,0,0,3.618-.025,3.181,3.181,0,0,0,.314-.075.937.937,0,0,1,.092-.044.166.166,0,0,1,.1-.026c.386,0,.591.173.594.528a.122.122,0,0,1-.075.127,1.509,1.509,0,0,1-.174.061l-.226.172a8.068,8.068,0,0,0-.776.7c-1.192,1.211-2.671,3.355-1.051,4.95.3.3.579.563.834.809,2.527,2.427,2.928,2.813,1.971,7.56-.271,1.347-1.388,4.892-2.042,6.766-.133.383-.249.7-.333.91a1.561,1.561,0,0,1-.119.245c.008.035,0,.046-.025.038-.2.293-.433.217-.687-.3a.333.333,0,0,1-.035-.116.343.343,0,0,1,0-.065c.007-.1.1-.142.226-.112-.049-.087-.075-.158-.063-.192.083-.208.2-.519.329-.9.653-1.87,1.765-5.4,2.035-6.729.894-4.434.55-4.766-1.619-6.849-.258-.248-.54-.519-.849-.823-2.078-2.045-.528-4.448.776-5.767l.084-.084a15.344,15.344,0,0,1-2.538-.1c-1.544-.2-2.949-.7-3.346-1.627l-.006-.014A1.12,1.12,0,0,1,521.069,148.285Z" transform="translate(-511.248 -141.238)" fill="#fff" fill-rule="evenodd"/>
                  <path id="Trazado_106130" data-name="Trazado 106130" d="M481.716,209.409c-.056.11-.259.082-.452-.062s-.3-.35-.247-.46c.216-.424.938-2.695,1.636-5.02.746-2.488,1.462-5.025,1.5-5.428.3-3.1.221-5.131-.571-6.8-.763-1.606-2.244-2.927-4.754-4.647h-.005a14.714,14.714,0,0,0-1.744-.822c-.9-.385-1.671-.715-1.671-1.1,0-.145.164-.175.365-.067a34.9,34.9,0,0,1,3.19,1.55l.014.009c2.746,1.885,4.381,3.356,5.265,5.216.854,1.8.951,3.906.638,7.092-.041.425-.764,2.988-1.514,5.486C482.667,206.687,481.939,208.975,481.716,209.409Z" transform="translate(-471.784 -173.071)" fill="#fff" fill-rule="evenodd"/>
                </g>
              </g>
            </g>
            <g id="Grupo_69164" data-name="Grupo 69164" transform="translate(99.027 0.491)">
              <g id="Grupo_69158" data-name="Grupo 69158" transform="translate(0 26.976)">
                <path id="Trazado_106131" data-name="Trazado 106131" d="M773.039,230.575c-.261,1.924-1.954,3.941-4.062,5.491-2.2,1.62-4.9,2.756-6.89,2.742a2.1,2.1,0,0,0,.121-.712,2.194,2.194,0,0,0-.042-.427,11.908,11.908,0,0,0,6.137-2.523c1.885-1.386,3.392-3.132,3.607-4.723Z" transform="translate(-762.087 -230.423)" fill="#fab433" fill-rule="evenodd"/>
                <path id="Trazado_106132" data-name="Trazado 106132" d="M763.756,256.168a7.127,7.127,0,0,1-1.667.21,2.1,2.1,0,0,0,.121-.712,2.193,2.193,0,0,0-.042-.427,11.908,11.908,0,0,0,6.137-2.523,13.266,13.266,0,0,0,2.167-1.968.518.518,0,0,1,.151.151c.5.78-1.649,2.723-4.812,4.339C765.107,255.594,764.413,255.907,763.756,256.168Z" transform="translate(-762.088 -247.992)" fill="#fcc846" fill-rule="evenodd"/>
                <g id="Grupo_69157" data-name="Grupo 69157" transform="translate(0.245 1.635)">
                  <path id="Trazado_106133" data-name="Trazado 106133" d="M823.7,250.665l.04.047.286.331a.032.032,0,0,1-.005.046.032.032,0,0,1-.023.01.032.032,0,0,1-.023-.01l-.286-.331-.034-.039Z" transform="translate(-815.557 -249.555)" fill="#ac273d" fill-rule="evenodd"/>
                  <path id="Trazado_106134" data-name="Trazado 106134" d="M826.133,247.7l.05.058.273.317a.033.033,0,0,1-.005.046.032.032,0,0,1-.046,0l-.273-.317-.041-.048Z" transform="translate(-817.658 -246.994)" fill="#ac273d" fill-rule="evenodd"/>
                  <path id="Trazado_106135" data-name="Trazado 106135" d="M828.059,245.073l.014.017.259.3a.033.033,0,0,1-.005.046.032.032,0,0,1-.023.01.033.033,0,0,1-.023-.01l-.259-.3v0Z" transform="translate(-819.326 -244.722)" fill="#ac273d" fill-rule="evenodd"/>
                  <path id="Trazado_106136" data-name="Trazado 106136" d="M809.79,263.6l.044.068.28.429a.034.034,0,0,1-.011.045.031.031,0,0,1-.045-.007l-.28-.429-.043-.065Z" transform="translate(-803.521 -260.737)" fill="#ac273d" fill-rule="evenodd"/>
                  <path id="Trazado_106137" data-name="Trazado 106137" d="M812.366,261.556l.3.456a.034.034,0,0,1-.01.045.032.032,0,0,1-.045-.007l-.294-.452Z" transform="translate(-805.749 -258.97)" fill="#ac273d" fill-rule="evenodd"/>
                  <path id="Trazado_106138" data-name="Trazado 106138" d="M814.983,259.349l.041.063.268.413a.034.034,0,0,1-.01.045.032.032,0,0,1-.045-.007l-.268-.413-.037-.057Z" transform="translate(-808.009 -257.062)" fill="#ac273d" fill-rule="evenodd"/>
                  <path id="Trazado_106139" data-name="Trazado 106139" d="M817.573,257.006l.08.107.287.384a.034.034,0,0,1-.008.046.032.032,0,0,1-.023.008.032.032,0,0,1-.022-.011l-.287-.384-.075-.1Z" transform="translate(-810.253 -255.037)" fill="#ac273d" fill-rule="evenodd"/>
                  <path id="Trazado_106140" data-name="Trazado 106140" d="M796.633,272.4l.033.068.234.48a.035.035,0,0,1-.016.044.031.031,0,0,1-.044-.012l-.234-.48-.032-.067Z" transform="translate(-792.144 -268.344)" fill="#ac273d" fill-rule="evenodd"/>
                  <path id="Trazado_106141" data-name="Trazado 106141" d="M799.207,270.872l.06.1.263.462a.034.034,0,0,1-.013.045.031.031,0,0,1-.024.005.031.031,0,0,1-.02-.014l-.263-.462-.06-.106Z" transform="translate(-794.37 -267.023)" fill="#ac273d" fill-rule="evenodd"/>
                  <path id="Trazado_106142" data-name="Trazado 106142" d="M801.988,269.12l.054.093.262.461a.035.035,0,0,1-.014.045.031.031,0,0,1-.044-.009l-.262-.461-.053-.093Z" transform="translate(-796.775 -265.508)" fill="#ac273d" fill-rule="evenodd"/>
                  <path id="Trazado_106143" data-name="Trazado 106143" d="M804.716,267.3l.047.083.259.457a.035.035,0,0,1-.013.045.031.031,0,0,1-.024.005.031.031,0,0,1-.02-.014l-.259-.457-.046-.081Z" transform="translate(-799.133 -263.933)" fill="#ac273d" fill-rule="evenodd"/>
                  <path id="Trazado_106144" data-name="Trazado 106144" d="M783.531,278.863l.03.08.188.492a.035.035,0,0,1-.02.044.03.03,0,0,1-.042-.015l-.187-.491-.032-.083Z" transform="translate(-780.815 -273.931)" fill="#ac273d" fill-rule="evenodd"/>
                  <path id="Trazado_106145" data-name="Trazado 106145" d="M786.017,277.806l.021.044.231.475a.035.035,0,0,1-.016.044.031.031,0,0,1-.024,0,.031.031,0,0,1-.019-.015l-.231-.475-.024-.049Z" transform="translate(-782.964 -273.017)" fill="#ac273d" fill-rule="evenodd"/>
                  <path id="Trazado_106146" data-name="Trazado 106146" d="M789,276.433l.023.048.232.478a.035.035,0,0,1-.016.045.031.031,0,0,1-.044-.011l-.233-.478-.025-.051Z" transform="translate(-785.543 -271.83)" fill="#ac273d" fill-rule="evenodd"/>
                  <path id="Trazado_106147" data-name="Trazado 106147" d="M791.929,274.974l.026.054.234.48a.035.035,0,0,1-.016.045.031.031,0,0,1-.044-.011l-.234-.48-.027-.056Z" transform="translate(-788.076 -270.569)" fill="#ac273d" fill-rule="evenodd"/>
                  <path id="Trazado_106148" data-name="Trazado 106148" d="M769.252,283.171l.016.075.1.473a.036.036,0,0,1-.025.041.029.029,0,0,1-.038-.022l-.1-.473-.017-.081Z" transform="translate(-768.469 -277.654)" fill="#ac273d" fill-rule="evenodd"/>
                  <path id="Trazado_106149" data-name="Trazado 106149" d="M771.988,282.606l.011.036.151.471a.036.036,0,0,1-.022.042.03.03,0,0,1-.041-.017l-.151-.471-.014-.046Z" transform="translate(-770.834 -277.166)" fill="#ac273d" fill-rule="evenodd"/>
                  <path id="Trazado_106150" data-name="Trazado 106150" d="M775.153,281.784l.024.075.151.482a.035.035,0,0,1-.022.042.03.03,0,0,1-.041-.017l-.151-.482-.026-.084Z" transform="translate(-773.571 -276.455)" fill="#ac273d" fill-rule="evenodd"/>
                  <path id="Trazado_106151" data-name="Trazado 106151" d="M777.932,280.929l.009.024.182.479a.035.035,0,0,1-.02.044.031.031,0,0,1-.025,0,.03.03,0,0,1-.018-.017l-.182-.479-.012-.032Z" transform="translate(-775.974 -275.716)" fill="#ac273d" fill-rule="evenodd"/>
                  <path id="Trazado_106152" data-name="Trazado 106152" d="M763.961,283.812l.09.43a.036.036,0,0,1-.025.041.03.03,0,0,1-.024,0,.03.03,0,0,1-.015-.019l-.093-.445Z" transform="translate(-763.895 -278.209)" fill="#ac273d" fill-rule="evenodd"/>
                  <path id="Trazado_106153" data-name="Trazado 106153" d="M766.778,283.551q.017.085.036.174c.025.117.045.216.066.314s.044.212.062.3a.036.036,0,0,1-.025.041.029.029,0,0,1-.024,0,.03.03,0,0,1-.015-.019c-.024-.113-.044-.206-.063-.3-.023-.111-.046-.221-.066-.314l-.039-.185Z" transform="translate(-766.332 -277.982)" fill="#ac273d" fill-rule="evenodd"/>
                  <path id="Trazado_106154" data-name="Trazado 106154" d="M780.911,279.884l.08.21c.043.112.083.217.123.323l.121.32a.035.035,0,0,1-.02.044.03.03,0,0,1-.024,0,.031.031,0,0,1-.018-.017c-.042-.11-.082-.216-.121-.32s-.083-.219-.123-.323c-.028-.075-.055-.143-.081-.215Z" transform="translate(-778.55 -274.813)" fill="#ac273d" fill-rule="evenodd"/>
                  <path id="Trazado_106155" data-name="Trazado 106155" d="M794.434,273.64l.106.216c.053.108.1.213.151.318s.1.215.154.318a.035.035,0,0,1-.016.044.031.031,0,0,1-.024,0,.031.031,0,0,1-.019-.015c-.053-.108-.1-.213-.154-.319s-.1-.214-.151-.318l-.106-.217Z" transform="translate(-790.243 -269.415)" fill="#ac273d" fill-rule="evenodd"/>
                  <path id="Trazado_106156" data-name="Trazado 106156" d="M807.2,265.535l.156.241c.063.095.126.193.189.291l.185.286a.034.034,0,0,1-.01.046.032.032,0,0,1-.045-.007l-.186-.286-.189-.29-.156-.24Z" transform="translate(-801.284 -262.41)" fill="#ac273d" fill-rule="evenodd"/>
                  <path id="Trazado_106157" data-name="Trazado 106157" d="M819.566,255.084l.175.2.2.234.2.236a.033.033,0,0,1-.005.046.033.033,0,0,1-.046,0l-.2-.236-.2-.234-.173-.2Z" transform="translate(-811.977 -253.375)" fill="#ac273d" fill-rule="evenodd"/>
                  <path id="Trazado_106158" data-name="Trazado 106158" d="M829.722,242.5l.133.157.165.193a.033.033,0,0,1-.005.046.032.032,0,0,1-.046,0l-.165-.193-.119-.139Z" transform="translate(-820.766 -242.5)" fill="#ac273d" fill-rule="evenodd"/>
                  <path id="Trazado_106159" data-name="Trazado 106159" d="M821.61,252.983l.019.022.3.344a.033.033,0,0,1-.005.046.032.032,0,0,1-.046,0l-.3-.344-.015-.017Z" transform="translate(-813.746 -251.559)" fill="#ac273d" fill-rule="evenodd"/>
                </g>
              </g>
              <g id="Grupo_69159" data-name="Grupo 69159" transform="translate(6.019 0)">
                <path id="Trazado_106160" data-name="Trazado 106160" d="M860.872,31.456a2.757,2.757,0,0,1,1.654,4.962,3.7,3.7,0,0,0-3.309,0,2.757,2.757,0,0,1,1.654-4.962Z" transform="translate(-851.114 -31.456)" fill="#e79c75" fill-rule="evenodd"/>
                <path id="Trazado_106161" data-name="Trazado 106161" d="M860.872,31.456a2.75,2.75,0,0,1,2.058.923,2.94,2.94,0,0,1-1.007,3.8,3.752,3.752,0,0,0-1.051-.147,3.543,3.543,0,0,0-1.654.39,2.757,2.757,0,0,1,1.654-4.962Z" transform="translate(-851.114 -31.456)" fill="#ebae92" fill-rule="evenodd"/>
                <path id="Trazado_106162" data-name="Trazado 106162" d="M861.4,65.17a2.748,2.748,0,0,1,2.675,1.478c-.862.029-1.756.044-2.675.044s-1.809-.015-2.674-.044A2.748,2.748,0,0,1,861.4,65.17Z" transform="translate(-851.641 -60.599)" fill="#e79c75" fill-rule="evenodd"/>
                <path id="Trazado_106163" data-name="Trazado 106163" d="M818.938,76.188c-.791,3.376,1.3,4.278,3.343,4.994,2.071.725,2.9.748,3.618,2.789.214.611.138.687-.3,1.171a10.992,10.992,0,0,0-1.924,3.79c-.725,2.7-2.882,4.917-2.638,8.191.278,3.694,2.332,4.861,3.1,8.557a33.355,33.355,0,0,1,.263,9.49c-3.56,2.059-12.74,2.059-16.3,0a32.451,32.451,0,0,1,.319-9.747c.785-3.494,2.776-4.69,3.047-8.3.246-3.273-1.91-5.489-2.638-8.191a10.991,10.991,0,0,0-1.924-3.79c-.433-.484-.51-.56-.3-1.171.716-2.042,1.548-2.066,3.618-2.789,2.047-.716,4.134-1.618,3.343-4.994Z" transform="translate(-806.499 -70.123)" fill="#ebae92" fill-rule="evenodd"/>
                <path id="Trazado_106164" data-name="Trazado 106164" d="M870.28,374.683v2.527h-3.039v-2.527a20.048,20.048,0,0,0,3.039,0Z" transform="translate(-859.003 -328.147)" fill="#e58f60" fill-rule="evenodd"/>
                <path id="Trazado_106165" data-name="Trazado 106165" d="M870.28,374.683v1.095a20.056,20.056,0,0,1-3.039,0v-1.095a20.048,20.048,0,0,0,3.039,0Z" transform="translate(-859.003 -328.147)" fill="#cd7e58" fill-rule="evenodd"/>
                <rect id="Rectángulo_7184" data-name="Rectángulo 7184" width="1.223" height="13.999" transform="translate(9.146 49.063)" fill="#e58f60"/>
                <path id="Trazado_106166" data-name="Trazado 106166" d="M867.624,496.573a2.767,2.767,0,0,1,1.185,2.47,2.933,2.933,0,0,1-.98,2.337H866.2a2.934,2.934,0,0,1-.98-2.337,2.767,2.767,0,0,1,1.185-2.47Z" transform="translate(-857.259 -433.512)" fill="#cd7e58" fill-rule="evenodd"/>
                <path id="Trazado_106167" data-name="Trazado 106167" d="M865.914,501.118a3.18,3.18,0,0,1-.689-2.069,2.767,2.767,0,0,1,1.185-2.47h1.03a3.1,3.1,0,0,1,.617,1.914c0,1.456-.883,2.638-1.973,2.638a1.516,1.516,0,0,1-.17-.013Z" transform="translate(-857.26 -433.513)" fill="#e58f60" fill-rule="evenodd"/>
                <path id="Trazado_106168" data-name="Trazado 106168" d="M815.477,549.953h.941c1.383,0,4.4-.05,5.258-2.307h2.651c.854,2.262,3.875,2.307,5.258,2.307h.941a1.192,1.192,0,0,1,1.173,1.206v.285a1.252,1.252,0,0,1-.008.143H814.313a1.222,1.222,0,0,1-.008-.143v-.289A1.192,1.192,0,0,1,815.477,549.953Z" transform="translate(-813.244 -477.659)" fill="#cd7e58" fill-rule="evenodd"/>
                <path id="Trazado_106169" data-name="Trazado 106169" d="M866.2,548.283a2.933,2.933,0,0,0,.335-.639h2.65a2.924,2.924,0,0,0,.336.639Z" transform="translate(-858.104 -477.659)" fill="#ba7051" fill-rule="evenodd"/>
                <path id="Trazado_106170" data-name="Trazado 106170" d="M815.478,549.953h.941c1.383,0,4.4-.05,5.258-2.307h2.2a6.725,6.725,0,0,1-3.795,3.939h-5.765a1.22,1.22,0,0,1-.008-.142v-.287A1.192,1.192,0,0,1,815.478,549.953Z" transform="translate(-813.245 -477.659)" fill="#e58f60" fill-rule="evenodd"/>
                <path id="Trazado_106171" data-name="Trazado 106171" d="M866.2,548.283a2.933,2.933,0,0,0,.335-.639h2.2a4.994,4.994,0,0,1-.243.639Z" transform="translate(-858.104 -477.659)" fill="#d8865c" fill-rule="evenodd"/>
                <path id="Trazado_106172" data-name="Trazado 106172" d="M863.724,532.052h2.367a.947.947,0,0,1,.94.95v.226a.948.948,0,0,1-.94.95h-2.367a.947.947,0,0,1-.94-.95V533a.947.947,0,0,1,.94-.95Z" transform="translate(-855.15 -464.18)" fill="#cd7e58" fill-rule="evenodd"/>
                <path id="Trazado_106173" data-name="Trazado 106173" d="M863.725,532.052h2.442a.754.754,0,0,1,.354.575c0,.69-1.41,1.249-3.15,1.249q-.167,0-.329-.007a.952.952,0,0,1-.253-.646V533a.947.947,0,0,1,.936-.945Z" transform="translate(-855.151 -464.18)" fill="#e58f60" fill-rule="evenodd"/>
                <rect id="Rectángulo_7185" data-name="Rectángulo 7185" width="1.223" height="1.395" transform="translate(9.146 49.063)" fill="#cd7e58"/>
                <rect id="Rectángulo_7186" data-name="Rectángulo 7186" width="0.429" height="8.058" transform="translate(9.366 55.003)" fill="#e9a480"/>
                <path id="Trazado_106174" data-name="Trazado 106174" d="M870.547,498.42c.362,0,.6.528.544,1.181s-.4,1.181-.767,1.181-.6-.528-.544-1.181S870.184,498.42,870.547,498.42Z" transform="translate(-861.189 -435.108)" fill="#e9a480" fill-rule="evenodd"/>
                <circle id="Elipse_4380" data-name="Elipse 4380" cx="1.606" cy="1.606" r="1.606" transform="translate(7.672 0.366)" fill="#e9bba3"/>
                <path id="Trazado_106175" data-name="Trazado 106175" d="M819.913,116.37a19.578,19.578,0,0,1-3.728.348,19.971,19.971,0,0,1-7.722-1.353l-.026-.013-.135-.07-.041-.022c-.052-.028-.1-.057-.151-.086a32.537,32.537,0,0,1,.315-9.729c.784-3.508,2.779-4.7,3.052-8.318.246-3.273-1.91-5.489-2.638-8.191a10.992,10.992,0,0,0-1.924-3.79c-.434-.484-.51-.56-.3-1.171.716-2.042,1.548-2.066,3.618-2.789,2.047-.716,4.134-1.618,3.343-4.994H815.7c-.362,1.376-.772,4.063.017,5.272a3.222,3.222,0,0,0,2.181,1.206c4.309.942,2.065,6.989.945,9.641a20.177,20.177,0,0,0-1.8,10.851C817.559,107.4,820.485,109.346,819.913,116.37Z" transform="translate(-806.5 -70.124)" fill="#e9bba3" fill-rule="evenodd"/>
              </g>
              <g id="Grupo_69161" data-name="Grupo 69161" transform="translate(6.497 10.823)">
                <path id="Trazado_106176" data-name="Trazado 106176" d="M811.344,153.066c-.216-2.647-.521-5.894-.7-9.112h0a42.712,42.712,0,0,1-.052-4.316,22.545,22.545,0,0,1,.485-3.939,11.92,11.92,0,0,1,.841-2.445c.308-.663.666-1.3,1-1.943a9.338,9.338,0,0,0,1.2-3.876,7.885,7.885,0,0,0-.823-3.912c-.436-.976-.959-1.915-1.368-2.9l-.051-.17a5.343,5.343,0,0,0,.519-3.346,5.913,5.913,0,0,0-2.4-4.2c.678-.942,1.589-1.131,3.015-1.617a10.5,10.5,0,0,0,12.536,0c.659.226,1.206.388,1.674.59a2.974,2.974,0,0,1,1.281,1.062,5.955,5.955,0,0,0-2.35,4.166,5.466,5.466,0,0,0,.435,3.191c-.423,1.108-1.015,2.145-1.5,3.228a7.883,7.883,0,0,0-.823,3.912,9.341,9.341,0,0,0,1.2,3.876c.339.647.7,1.281,1,1.943a12.075,12.075,0,0,1,.749,2.069h-7.945v19.65a16.57,16.57,0,0,1-7.784-1.667l-.138-.08Z" transform="translate(-810 -111.282)" fill="#e55b59" fill-rule="evenodd"/>
                <path id="Trazado_106177" data-name="Trazado 106177" d="M811.933,120.618h0v-.006l-.05-.164a5.343,5.343,0,0,0,.519-3.346,5.913,5.913,0,0,0-2.4-4.2c.678-.942,1.589-1.131,3.015-1.617a9.148,9.148,0,0,0,6.268,2.077h.38l.116,0h.005l.115-.005h.012l.1-.005h.022l.1-.006h.023l.1-.008h.019l.095-.008h.033l.082-.008.044,0,.075-.008.043,0,.075-.009.042-.005.064-.008.066-.008.042-.005.075-.011h.01l.035-.005h.006l.063-.01h0l.035-.005h.008l.063-.01.035-.006h.005l.2-.035.035-.006.069-.013.035-.007c1.682,1.695,2.865,3.594,2.273,5.189-.274.74-1.265,1.447-1.734,1.943a12.007,12.007,0,0,0-1.628,15.053h-1.257v19.65h-.139a16.48,16.48,0,0,1-7.645-1.666l-.138-.08-.013-.159c-.216-2.647-.521-5.894-.7-9.112h0a42.7,42.7,0,0,1-.052-4.316,22.539,22.539,0,0,1,.485-3.939,11.927,11.927,0,0,1,.84-2.445c.308-.663.667-1.3,1.005-1.943a9.339,9.339,0,0,0,1.2-3.876,7.886,7.886,0,0,0-.823-3.912C812.865,122.544,812.341,121.605,811.933,120.618Z" transform="translate(-810 -111.282)" fill="#e86b6a" fill-rule="evenodd"/>
                <g id="Grupo_69160" data-name="Grupo 69160" transform="translate(1.912 1.299)">
                  <path id="Trazado_106178" data-name="Trazado 106178" d="M878.009,128.687a.082.082,0,0,0-.164,0v.819a.082.082,0,1,0,.164,0v-.82Zm-.163,21.323a.082.082,0,0,0,.164,0v-.421a.082.082,0,0,0-.164,0Zm0-.9a.082.082,0,0,0,.164,0v-.82a.082.082,0,0,0-.164,0v.82Zm0-1.306a.082.082,0,0,0,.164,0v-.82a.082.082,0,0,0-.164,0Zm0-1.306a.082.082,0,0,0,.164,0v-.82a.082.082,0,1,0-.164,0Zm0-1.306a.082.082,0,0,0,.164,0v-.826a.082.082,0,0,0-.164,0v.82Zm0-1.306a.082.082,0,0,0,.164,0v-.82a.082.082,0,1,0-.164,0Zm0-1.306a.082.082,0,0,0,.164,0v-.82a.082.082,0,1,0-.164,0Zm0-1.306a.082.082,0,0,0,.164,0v-.82a.082.082,0,1,0-.164,0v.82Zm0-1.306a.082.082,0,0,0,.164,0v-.82a.082.082,0,1,0-.164,0Zm0-1.306a.082.082,0,0,0,.164,0v-.82a.082.082,0,1,0-.164,0Zm0-1.306a.082.082,0,0,0,.164,0v-.82a.082.082,0,1,0-.164,0v.818Zm0-1.306a.082.082,0,0,0,.164,0v-.82a.082.082,0,1,0-.164,0v.82Zm0-1.306a.082.082,0,0,0,.164,0v-.82a.082.082,0,1,0-.164,0Zm0-1.306a.082.082,0,0,0,.164,0v-.82a.082.082,0,0,0-.164,0v.817Zm0-1.306a.082.082,0,0,0,.164,0V131.3a.082.082,0,1,0-.164,0v.82Zm0-1.306a.082.082,0,0,0,.164,0V130a.082.082,0,0,0-.164,0Z" transform="translate(-870.561 -127.556)" fill="#9f3432" fill-rule="evenodd"/>
                  <path id="Trazado_106179" data-name="Trazado 106179" d="M826.918,164.6a.081.081,0,0,0,.028.161c.268-.048.535-.1.805-.14a.081.081,0,0,0-.009-.162h-.017q-.4.065-.807.14Zm13.809.157a.081.081,0,0,0,.038-.158c-.25-.061-.557-.1-.815-.142a.082.082,0,1,0-.026.161q.4.064.8.139Zm-1.285-.213a.082.082,0,1,0,.025-.161q-.406-.059-.813-.108a.08.08,0,0,0-.056.014.081.081,0,0,0,.036.151c.27.033.538.069.807.107Zm-1.294-.162a.081.081,0,0,0,.033-.159h-.016c-.271-.025-.543-.054-.815-.075a.082.082,0,0,0-.015.163c.271.023.541.054.813.075Zm-1.3-.116a.082.082,0,1,0,.014-.163c-.273-.021-.546-.035-.819-.051a.081.081,0,1,0-.023.161h.014c.271.017.542.032.813.051Zm-1.3-.075a.081.081,0,0,0,.026-.16h-.02c-.273-.011-.545-.019-.818-.025a.082.082,0,1,0,0,.164q.407.009.815.025Zm-1.3-.032a.082.082,0,0,0,0-.164h-.819a.082.082,0,1,0,0,.164h.817Zm-1.3.008a.082.082,0,0,0,0-.164q-.409.008-.818.025a.082.082,0,0,0,0,.164c.27,0,.549-.02.821-.025Zm-1.3.048a.081.081,0,1,0,0-.163h-.013c-.272.014-.545.031-.816.051a.081.081,0,0,0,0,.163c.268-.008.55-.038.821-.051Zm-1.3.09a.081.081,0,0,0-.005-.163c-.259.009-.562.051-.823.075a.082.082,0,0,0,.017.162q.405-.044.811-.075Zm-1.3.133a.082.082,0,0,0-.019-.162c-.271.034-.542.069-.813.108a.081.081,0,0,0,.01.162h.014q.4-.057.807-.106Z" transform="translate(-826.481 -158.15)" fill="#9f3432" fill-rule="evenodd"/>
                  <path id="Trazado_106180" data-name="Trazado 106180" d="M838.788,294.758a.082.082,0,0,0-.029-.161c-.266.05-.537.095-.8.136a.082.082,0,0,0,.026.161c.269-.041.539-.088.807-.137ZM824.22,294.6a.082.082,0,0,0-.032.161l.268.047a.082.082,0,1,0,.036-.159c-.087-.02-.184-.033-.273-.049Zm.746.127a.082.082,0,1,0-.026.161q.4.064.81.119a.082.082,0,0,0,.024-.161c-.27-.038-.539-.075-.808-.119Zm1.291.181a.082.082,0,1,0-.033.16h.013q.406.05.813.091a.082.082,0,1,0,.025-.161c-.263-.039-.55-.059-.818-.092Zm1.3.137a.082.082,0,1,0-.014.163c.271.023.544.041.816.065a.082.082,0,0,0,.043-.151.083.083,0,0,0-.032-.009c-.26-.031-.547-.041-.813-.065Zm1.3.1a.081.081,0,1,0-.023.161h.014c.272.016.544.029.817.04a.081.081,0,0,0,.021-.161h-.014c-.271-.012-.543-.024-.814-.04Zm1.3.057a.082.082,0,0,0,0,.164q.409.011.818.017a.081.081,0,0,0,.014-.162h-.013q-.408,0-.815-.017Zm1.3.02a.082.082,0,0,0,0,.164c.271,0,.55,0,.822-.007a.082.082,0,1,0,0-.164q-.407.007-.815.007Zm1.3-.017a.081.081,0,0,0-.011.162h.016q.409-.011.817-.03a.082.082,0,1,0-.006-.164c-.272.011-.543.023-.816.03Zm1.3-.055a.081.081,0,1,0,.008.163c.273-.017.545-.033.817-.054a.081.081,0,1,0,0-.163h-.015q-.406.032-.813.054Zm1.3-.094a.081.081,0,0,0,0,.163h.014q.407-.035.814-.08a.081.081,0,0,0-.016-.162c-.271.028-.541.056-.813.079Zm1.3-.135a.082.082,0,0,0,.019.162c.271-.034.542-.068.813-.107a.081.081,0,0,0-.015-.162c-.266.024-.549.075-.816.106Z" transform="translate(-824.122 -271.041)" fill="#9f3432" fill-rule="evenodd"/>
                  <path id="Trazado_106181" data-name="Trazado 106181" d="M826.093,120.906a.082.082,0,0,0-.128.1l.1.127c.048.065.1.129.144.194.075.11.158.222.232.335a.082.082,0,1,0,.136-.09c-.06-.092-.124-.184-.189-.274l-.1-.133-.151-.2-.05-.064Zm3.553,41.475a.082.082,0,1,0,.164,0c0-.1,0-.216.005-.321a.081.081,0,0,0-.163,0c0,.107,0,.214-.005.321Zm.011-.808a.081.081,0,0,0,.163,0c0-.273,0-.546.007-.819a.082.082,0,0,0-.164,0c0,.272,0,.545-.007.817Zm.011-1.306a.082.082,0,1,0,.163,0l.005-.816a.082.082,0,1,0-.164,0c0,.272,0,.545-.005.817Zm.009-1.306a.081.081,0,0,0,.163,0c0-.272,0-.545.005-.818a.082.082,0,0,0-.164,0c0,.272,0,.545,0,.818Zm.008-1.306a.082.082,0,1,0,.163,0c0-.272,0-.545,0-.818a.082.082,0,1,0-.164,0C829.689,157.108,829.689,157.381,829.685,157.654Zm.008-1.306a.082.082,0,0,0,.164,0c0-.272,0-.545,0-.818a.082.082,0,1,0-.164,0C829.7,155.8,829.7,156.074,829.692,156.347Zm.008-1.306a.082.082,0,1,0,.164,0c0-.272,0-.545.005-.817a.082.082,0,1,0-.164,0l-.005.816Zm.008-1.306a.082.082,0,1,0,.164,0c0-.272,0-.545.006-.817a.082.082,0,0,0-.164,0c0,.272,0,.545-.006.818Zm.01-1.306a.082.082,0,0,0,.164,0c0-.272,0-.545.007-.817a.082.082,0,0,0-.164,0c-.007.271-.006.547-.008.819Zm.014-1.307a.082.082,0,0,0,.164,0c.006-.273.013-.545.019-.818a.081.081,0,0,0-.163,0c0,.271-.014.546-.019.817Zm.03-1.306a.082.082,0,1,0,.164,0c0-.27.012-.547.018-.817a.081.081,0,1,0-.163-.005q-.008.409-.018.818Zm.029-1.306a.081.081,0,1,0,.163.005l.016-.818a.082.082,0,1,0-.163,0l-.017.818Zm.026-1.306a.082.082,0,1,0,.164,0l.014-.816a.082.082,0,1,0-.164,0c-.006.273-.01.545-.014.818Zm.023-1.306a.081.081,0,0,0,.163.005c.007-.272.008-.547.011-.819a.081.081,0,0,0-.163,0c-.007.272-.008.547-.012.819Zm.017-1.306a.081.081,0,0,0,.162.015.075.075,0,0,0,0-.013l.008-.816a.082.082,0,1,0-.164,0c0,.272-.005.545-.008.817Zm.011-1.306a.082.082,0,0,0,.164,0v-.818a.082.082,0,1,0-.164,0v.819Zm0-1.306a.081.081,0,0,0,.162.014.1.1,0,0,0,0-.015v-.817a.081.081,0,0,0-.162-.014.1.1,0,0,0,0,.015v.816Zm-.005-1.306a.082.082,0,1,0,.163.008v-.009q0-.409-.009-.817a.082.082,0,0,0-.163-.006C829.845,140.114,829.861,140.407,829.863,140.674Zm-.017-1.306a.081.081,0,0,0,.162,0q-.007-.409-.017-.817a.081.081,0,0,0-.162-.011.08.08,0,0,0,0,.014q.01.408.017.816Zm-.029-1.3a.082.082,0,1,0,.164,0q-.011-.409-.026-.816a.081.081,0,0,0-.163.006q.014.408.026.816Zm-.044-1.3a.081.081,0,1,0,.163,0c0-.267-.023-.554-.036-.822a.081.081,0,0,0-.163.005c.01.272.026.545.036.818Zm-.062-1.3a.081.081,0,1,0,.163-.008c-.016-.272-.032-.544-.049-.817a.082.082,0,0,0-.163.007c.012.271.034.546.049.818Zm-.082-1.3a.081.081,0,1,0,.163,0v-.01q-.029-.408-.063-.815a.081.081,0,0,0-.163.005c.009.265.044.553.063.822Zm-.106-1.3a.082.082,0,1,0,.163-.015q-.038-.407-.081-.813a.081.081,0,1,0-.163,0,.091.091,0,0,0,0,.017q.043.406.081.812Zm-.134-1.3a.082.082,0,0,0,.162-.018c-.034-.271-.066-.542-.1-.813a.082.082,0,0,0-.162.022C829.326,131.015,829.357,131.286,829.388,131.555Zm-.167-1.294a.082.082,0,0,0,.163-.01v-.014q-.058-.4-.124-.809a.082.082,0,1,0-.161.026c.049.263.085.54.124.806Zm-.205-1.288a.082.082,0,0,0,.161-.029q-.071-.4-.151-.8a.081.081,0,1,0-.161.023v.01q.081.4.151.8Zm-.251-1.282a.082.082,0,0,0,.159-.035q-.088-.4-.185-.8a.081.081,0,0,0-.16.032c.053.263.128.536.186.8Zm-.306-1.266a.081.081,0,1,0,.159-.035c-.057-.256-.151-.542-.226-.795a.082.082,0,1,0-.156.048q.118.39.226.782Zm-.372-1.247a.081.081,0,1,0,.155-.05c-.085-.26-.178-.519-.274-.775a.081.081,0,0,0-.151.057c.1.255.185.51.272.768Zm-.452-1.22a.081.081,0,0,0,.155-.049l0-.014c-.1-.253-.215-.5-.332-.754a.083.083,0,1,0-.151.07c.115.245.226.492.329.743Zm-.544-1.179a.082.082,0,1,0,.145-.075c-.126-.243-.259-.483-.4-.718a.082.082,0,0,0-.146.075l.007.013c.143.229.275.468.4.707Z" transform="translate(-825.699 -120.873)" fill="#9f3432" fill-rule="evenodd"/>
                  <path id="Trazado_106182" data-name="Trazado 106182" d="M904.872,121a.082.082,0,1,0-.126-.1,7.966,7.966,0,0,0-.485.671.081.081,0,1,0,.13.1l.006-.008c.151-.226.308-.444.474-.657Zm-4.059,23.176a.081.081,0,1,0,.163.008v-.415a.081.081,0,1,0-.163,0v.409Zm-.007-.9a.081.081,0,0,0,.162.014.124.124,0,0,0,0-.015v-.816a.081.081,0,1,0-.163-.008v.826Zm0-1.307a.082.082,0,1,0,.164,0v-.819a.082.082,0,0,0-.164,0v.818Zm.005-1.307a.082.082,0,1,0,.164,0c0-.271.005-.545.009-.817a.082.082,0,1,0-.163-.005c-.007.271-.009.548-.009.819Zm.016-1.307a.082.082,0,0,0,.164,0q.008-.409.016-.817a.081.081,0,0,0-.161-.023.088.088,0,0,0,0,.019q-.01.409-.017.817Zm.029-1.307a.082.082,0,0,0,.164,0q.011-.408.026-.816a.081.081,0,0,0-.16-.028.109.109,0,0,0,0,.022q-.014.408-.026.816Zm.045-1.306a.081.081,0,0,0,.162.015v-.008q.017-.408.036-.815a.081.081,0,0,0-.155-.04.091.091,0,0,0-.008.032q-.02.408-.036.816Zm.062-1.306a.081.081,0,1,0,.161.023.084.084,0,0,0,0-.014q.022-.407.049-.814a.082.082,0,0,0-.161-.025.126.126,0,0,0,0,.014q-.027.408-.049.816Zm.082-1.3a.082.082,0,1,0,.163.013c.017-.271.041-.544.063-.814a.082.082,0,0,0-.163-.014C901.086,133.592,901.064,133.864,901.046,134.136Zm.106-1.3a.082.082,0,0,0,.163.015c.024-.27.05-.542.08-.811a.082.082,0,0,0-.159-.034.125.125,0,0,0,0,.017c-.029.271-.056.543-.081.813Zm.134-1.3a.082.082,0,0,0,.162.021c.034-.271.065-.54.1-.811a.081.081,0,0,0-.161-.023c-.034.271-.069.541-.1.813Zm.167-1.3a.082.082,0,0,0,.161.025c.039-.269.08-.538.124-.807a.082.082,0,0,0-.161-.026q-.066.4-.124.809Zm.207-1.293a.081.081,0,0,0,.156.045.141.141,0,0,0,0-.017c.047-.267.1-.534.151-.8a.083.083,0,0,0-.164-.032q-.081.4-.151.8Zm.253-1.282a.082.082,0,1,0,.16.035c.057-.265.118-.528.184-.793a.082.082,0,0,0-.158-.04c-.066.265-.128.528-.185.8Zm.308-1.274a.082.082,0,1,0,.157.043c.07-.261.143-.524.226-.782a.082.082,0,1,0-.151-.063l-.006.014c-.08.261-.151.528-.226.788Zm.377-1.257a.082.082,0,0,0,.155.053c.083-.257.176-.515.271-.767a.081.081,0,1,0-.151-.058q-.145.384-.274.773Zm.452-1.231a.082.082,0,1,0,.151.067c.112-.25.212-.5.33-.747a.082.082,0,0,0-.146-.075c-.121.24-.231.5-.333.754Zm.551-1.192a.082.082,0,1,0,.145.075c.126-.24.256-.476.4-.708a.081.081,0,1,0-.139-.084c-.145.232-.277.47-.4.713Z" transform="translate(-890.406 -120.869)" fill="#9f3432" fill-rule="evenodd"/>
                </g>
              </g>
              <g id="Grupo_69163" data-name="Grupo 69163" transform="translate(9.403 26.059)">
                <path id="Trazado_106183" data-name="Trazado 106183" d="M831.452,223.661h12.775a3.838,3.838,0,0,0,0,1.143H831.448a3.838,3.838,0,0,0,0-1.143Z" transform="translate(-831.448 -223.661)" fill="#fab433" fill-rule="evenodd"/>
                <path id="Trazado_106184" data-name="Trazado 106184" d="M831.452,223.661h12.315a.208.208,0,0,1,.007.047c0,.434-1.452.825-3.762,1.1h-8.563a3.838,3.838,0,0,0,0-1.143Z" transform="translate(-831.448 -223.661)" fill="#fcc846" fill-rule="evenodd"/>
                <g id="Grupo_69162" data-name="Grupo 69162" transform="translate(0.326)">
                  <path id="Trazado_106185" data-name="Trazado 106185" d="M833.914,223.661v.586a.033.033,0,1,1-.066,0v-.587Z" transform="translate(-833.848 -223.661)" fill="#ac273d" fill-rule="evenodd"/>
                  <path id="Trazado_106186" data-name="Trazado 106186" d="M848.764,223.661v.586a.033.033,0,1,1-.066,0v-.587Z" transform="translate(-846.684 -223.661)" fill="#ac273d" fill-rule="evenodd"/>
                  <path id="Trazado_106187" data-name="Trazado 106187" d="M863.648,223.661v.586a.033.033,0,0,1-.066,0v-.587Z" transform="translate(-859.55 -223.661)" fill="#ac273d" fill-rule="evenodd"/>
                  <path id="Trazado_106188" data-name="Trazado 106188" d="M878.5,223.661v.586a.033.033,0,1,1-.066,0v-.587Z" transform="translate(-872.387 -223.661)" fill="#ac273d" fill-rule="evenodd"/>
                  <path id="Trazado_106189" data-name="Trazado 106189" d="M893.416,223.661v.586a.033.033,0,1,1-.065,0v-.587Z" transform="translate(-885.282 -223.661)" fill="#ac273d" fill-rule="evenodd"/>
                  <path id="Trazado_106190" data-name="Trazado 106190" d="M908.266,223.661v.586a.033.033,0,1,1-.065,0v-.587Z" transform="translate(-898.119 -223.661)" fill="#ac273d" fill-rule="evenodd"/>
                  <path id="Trazado_106191" data-name="Trazado 106191" d="M923.078,223.661v.586a.033.033,0,1,1-.065,0v-.587Z" transform="translate(-910.925 -223.661)" fill="#ac273d" fill-rule="evenodd"/>
                  <path id="Trazado_106192" data-name="Trazado 106192" d="M836.617,223.661V224a.033.033,0,0,1-.066,0v-.336Z" transform="translate(-836.185 -223.661)" fill="#ac273d" fill-rule="evenodd"/>
                  <path id="Trazado_106193" data-name="Trazado 106193" d="M839.757,223.661V224a.033.033,0,0,1-.066,0v-.336Z" transform="translate(-838.899 -223.661)" fill="#ac273d" fill-rule="evenodd"/>
                  <path id="Trazado_106194" data-name="Trazado 106194" d="M842.9,223.661V224a.033.033,0,0,1-.066,0v-.336Z" transform="translate(-841.619 -223.661)" fill="#ac273d" fill-rule="evenodd"/>
                  <path id="Trazado_106195" data-name="Trazado 106195" d="M846.045,223.661V224a.033.033,0,1,1-.065,0v-.336Z" transform="translate(-844.334 -223.661)" fill="#ac273d" fill-rule="evenodd"/>
                  <path id="Trazado_106196" data-name="Trazado 106196" d="M851.188,223.661V224a.033.033,0,1,1-.066,0v-.336Z" transform="translate(-848.78 -223.661)" fill="#ac273d" fill-rule="evenodd"/>
                  <path id="Trazado_106197" data-name="Trazado 106197" d="M854.328,223.661V224a.033.033,0,0,1-.066,0v-.336Z" transform="translate(-851.494 -223.661)" fill="#ac273d" fill-rule="evenodd"/>
                  <path id="Trazado_106198" data-name="Trazado 106198" d="M857.479,223.661V224a.033.033,0,1,1-.066,0v-.336Z" transform="translate(-854.215 -223.661)" fill="#ac273d" fill-rule="evenodd"/>
                  <path id="Trazado_106199" data-name="Trazado 106199" d="M860.615,223.661V224a.032.032,0,0,1-.065,0v-.336Z" transform="translate(-856.929 -223.661)" fill="#ac273d" fill-rule="evenodd"/>
                  <path id="Trazado_106200" data-name="Trazado 106200" d="M866.35,223.661V224a.033.033,0,1,1-.066,0v-.336Z" transform="translate(-861.886 -223.661)" fill="#ac273d" fill-rule="evenodd"/>
                  <path id="Trazado_106201" data-name="Trazado 106201" d="M869.491,223.661V224a.033.033,0,1,1-.066,0v-.336Z" transform="translate(-864.601 -223.661)" fill="#ac273d" fill-rule="evenodd"/>
                  <path id="Trazado_106202" data-name="Trazado 106202" d="M872.638,223.661V224a.033.033,0,0,1-.066,0v-.336Z" transform="translate(-867.321 -223.661)" fill="#ac273d" fill-rule="evenodd"/>
                  <path id="Trazado_106203" data-name="Trazado 106203" d="M875.779,223.661V224a.033.033,0,0,1-.066,0v-.336Z" transform="translate(-870.036 -223.661)" fill="#ac273d" fill-rule="evenodd"/>
                  <path id="Trazado_106204" data-name="Trazado 106204" d="M880.921,223.661V224a.032.032,0,1,1-.065,0v-.336Z" transform="translate(-874.482 -223.661)" fill="#ac273d" fill-rule="evenodd"/>
                  <path id="Trazado_106205" data-name="Trazado 106205" d="M884.062,223.661V224a.033.033,0,1,1-.065,0v-.336Z" transform="translate(-877.196 -223.661)" fill="#ac273d" fill-rule="evenodd"/>
                  <path id="Trazado_106206" data-name="Trazado 106206" d="M887.209,223.661V224a.033.033,0,1,1-.066,0v-.336Z" transform="translate(-879.917 -223.661)" fill="#ac273d" fill-rule="evenodd"/>
                  <path id="Trazado_106207" data-name="Trazado 106207" d="M890.349,223.661V224a.033.033,0,1,1-.065,0v-.336Z" transform="translate(-882.632 -223.661)" fill="#ac273d" fill-rule="evenodd"/>
                  <path id="Trazado_106208" data-name="Trazado 106208" d="M896.5,223.661V224a.033.033,0,1,1-.065,0v-.336Z" transform="translate(-887.95 -223.661)" fill="#ac273d" fill-rule="evenodd"/>
                  <path id="Trazado_106209" data-name="Trazado 106209" d="M899.642,223.661V224a.033.033,0,1,1-.066,0v-.336Z" transform="translate(-890.664 -223.661)" fill="#ac273d" fill-rule="evenodd"/>
                  <path id="Trazado_106210" data-name="Trazado 106210" d="M902.789,223.661V224a.033.033,0,1,1-.066,0v-.336Z" transform="translate(-893.385 -223.661)" fill="#ac273d" fill-rule="evenodd"/>
                  <path id="Trazado_106211" data-name="Trazado 106211" d="M905.93,223.661V224a.033.033,0,1,1-.066,0v-.336Z" transform="translate(-896.1 -223.661)" fill="#ac273d" fill-rule="evenodd"/>
                  <path id="Trazado_106212" data-name="Trazado 106212" d="M911.073,223.661V224a.033.033,0,1,1-.066,0v-.336Z" transform="translate(-900.546 -223.661)" fill="#ac273d" fill-rule="evenodd"/>
                  <path id="Trazado_106213" data-name="Trazado 106213" d="M914.213,223.661V224a.033.033,0,1,1-.065,0v-.336Z" transform="translate(-903.26 -223.661)" fill="#ac273d" fill-rule="evenodd"/>
                  <path id="Trazado_106214" data-name="Trazado 106214" d="M917.36,223.661V224a.033.033,0,1,1-.066,0v-.336Z" transform="translate(-905.98 -223.661)" fill="#ac273d" fill-rule="evenodd"/>
                  <path id="Trazado_106215" data-name="Trazado 106215" d="M920.5,223.661V224a.033.033,0,1,1-.065,0v-.336Z" transform="translate(-908.696 -223.661)" fill="#ac273d" fill-rule="evenodd"/>
                </g>
              </g>
            </g>
            <g id="Grupo_69174" data-name="Grupo 69174" transform="translate(6.572 26.112)">
              <rect id="Rectángulo_7187" data-name="Rectángulo 7187" width="37.034" height="0.776" transform="translate(3.698 1.298)" fill="#a39691"/>
              <path id="Trazado_106216" data-name="Trazado 106216" d="M107.461,230h.678v44.848a.342.342,0,0,1-.341.341h0a.342.342,0,0,1-.341-.341Z" transform="translate(-103.762 -228.702)" fill="#a39691" fill-rule="evenodd"/>
              <path id="Trazado_106217" data-name="Trazado 106217" d="M375.581,230h.678v44.848a.342.342,0,0,1-.341.341h0a.342.342,0,0,1-.341-.341Z" transform="translate(-335.529 -228.702)" fill="#a39691" fill-rule="evenodd"/>
              <g id="Grupo_69167" data-name="Grupo 69167" transform="translate(2.84 0.342)">
                <g id="Grupo_69165" data-name="Grupo 69165" transform="translate(0 0)">
                  <path id="Trazado_106218" data-name="Trazado 106218" d="M102.461,225.639a1.343,1.343,0,1,0-1.343-1.343,1.343,1.343,0,0,0,1.343,1.343Z" transform="translate(-101.118 -222.952)" fill="#ce8156" fill-rule="evenodd"/>
                  <path id="Trazado_106219" data-name="Trazado 106219" d="M105.529,228.105a.621.621,0,1,0-.621-.621A.621.621,0,0,0,105.529,228.105Z" transform="translate(-104.395 -226.332)" fill="#e58f60" fill-rule="evenodd"/>
                </g>
                <g id="Grupo_69166" data-name="Grupo 69166" transform="translate(36.068 0)">
                  <path id="Trazado_106220" data-name="Trazado 106220" d="M368.492,225.639a1.343,1.343,0,1,0-1.343-1.343A1.343,1.343,0,0,0,368.492,225.639Z" transform="translate(-367.149 -222.952)" fill="#ce8156" fill-rule="evenodd"/>
                  <path id="Trazado_106221" data-name="Trazado 106221" d="M371.56,228.105a.621.621,0,1,0-.621-.621A.621.621,0,0,0,371.56,228.105Z" transform="translate(-370.425 -226.332)" fill="#e58f60" fill-rule="evenodd"/>
                </g>
              </g>
              <path id="Trazado_106222" data-name="Trazado 106222" d="M81.514,555.983H86.93a1.336,1.336,0,0,1,1.332,1.332v.46h-8.08v-.46a1.336,1.336,0,0,1,1.332-1.332Z" transform="translate(-80.182 -510.488)" fill="#e58f60" fill-rule="evenodd"/>
              <path id="Trazado_106223" data-name="Trazado 106223" d="M349.634,555.983h5.416a1.336,1.336,0,0,1,1.332,1.332v.46H348.3v-.46a1.336,1.336,0,0,1,1.334-1.332Z" transform="translate(-311.95 -510.488)" fill="#e58f60" fill-rule="evenodd"/>
              <g id="Grupo_69171" data-name="Grupo 69171" transform="translate(6.918 0)">
                <path id="Trazado_106224" data-name="Trazado 106224" d="M156.082,225.011h0a.472.472,0,0,0,.133-.677c-.027-.037-.02-.06-.029-.06a1.934,1.934,0,0,1-1.37-.568h0a1.937,1.937,0,0,1,0-2.742h0a1.937,1.937,0,0,1,2.742,0h0a1.942,1.942,0,0,1,.461.733h-.829a1.187,1.187,0,1,0-1,1.824.829.829,0,0,1,.634.366,1.252,1.252,0,0,1,.176.334,1.231,1.231,0,0,1,.068.4,1.162,1.162,0,0,1-.071.4,14.2,14.2,0,0,1,3.911.629c1.292.433,2.122,1.076,2.2,1.83a.377.377,0,0,1-.336.412H150a.377.377,0,0,1-.377-.377.386.386,0,0,1,.008-.075c.1-.739.925-1.369,2.2-1.794a14.554,14.554,0,0,1,4.253-.637Zm2.043-2.543h-.754a.108.108,0,0,1-.006.044,1.185,1.185,0,0,1-.041.176.377.377,0,0,0,.719.226,1.917,1.917,0,0,0,.067-.287q.012-.075.017-.156Zm2.543,3.894a15.747,15.747,0,0,0-8.6,0,3.812,3.812,0,0,0-1.468.777h11.534A3.811,3.811,0,0,0,160.668,226.362Z" transform="translate(-147.127 -220.395)" fill="#e79c75" fill-rule="evenodd"/>
                <g id="Grupo_69169" data-name="Grupo 69169" transform="translate(0 4.967)">
                  <g id="Grupo_69168" data-name="Grupo 69168" transform="translate(0 0.972)">
                    <path id="Trazado_106225" data-name="Trazado 106225" d="M229.1,267.579l.385-2.707,1.612-.645c2.488,2.211,2.618,10.668,3.211,15.535a3.249,3.249,0,0,1-1.952.4L231.4,275.1C230.84,272.141,230.477,269.46,229.1,267.579Z" transform="translate(-215.827 -264.227)" fill="#d7314c" fill-rule="evenodd"/>
                    <path id="Trazado_106226" data-name="Trazado 106226" d="M136.411,267.579q-.192-1.357-.385-2.707l-1.612-.645c-2.488,2.211-2.617,10.668-3.211,15.535a3.249,3.249,0,0,0,1.952.4l.957-5.068C134.669,272.141,135.034,269.46,136.411,267.579Z" transform="translate(-131.204 -264.227)" fill="#d7314c" fill-rule="evenodd"/>
                  </g>
                  <path id="Trazado_106227" data-name="Trazado 106227" d="M155.522,280.72a39.85,39.85,0,0,1-.491-6.457,12.689,12.689,0,0,1,.318-2.387,6.86,6.86,0,0,1,.551-1.483c.2-.4.436-.785.658-1.177a5.357,5.357,0,0,0,.785-2.35,4.479,4.479,0,0,0-.539-2.372c-.285-.592-.628-1.161-.9-1.759a9.485,9.485,0,0,0,.271-2.132,3.563,3.563,0,0,0-1.539-2.526l.011-.014-.011-.006a1.762,1.762,0,0,1,.352-.342,2.209,2.209,0,0,1,.489-.281c.306-.122.665-.22,1.1-.357l.01.008.026-.008a7.271,7.271,0,0,0,8.178,0l.026.008.01-.008c.432.137.791.235,1.1.357a2.2,2.2,0,0,1,.489.281,1.762,1.762,0,0,1,.352.342l-.011.006.011.014a3.563,3.563,0,0,0-1.539,2.526,9.482,9.482,0,0,0,.271,2.132c-.268.6-.611,1.168-.9,1.759a4.479,4.479,0,0,0-.54,2.372,5.362,5.362,0,0,0,.785,2.35c.222.393.456.776.659,1.177a6.853,6.853,0,0,1,.55,1.483,12.692,12.692,0,0,1,.318,2.387,39.606,39.606,0,0,1-.492,6.457l-.008.1-.09.048c-2.513,1.348-7.651,1.347-10.164,0l-.09-.048Z" transform="translate(-151.463 -257.076)" fill="#e55b59" fill-rule="evenodd"/>
                </g>
                <g id="Grupo_69170" data-name="Grupo 69170" transform="translate(0 4.967)">
                  <path id="Trazado_106228" data-name="Trazado 106228" d="M136.411,267.579q-.192-1.357-.385-2.707l-1.612-.645c-2.488,2.211-2.617,10.668-3.211,15.535a3.249,3.249,0,0,0,1.952.4l.957-5.068C134.669,272.141,135.034,269.46,136.411,267.579Z" transform="translate(-131.204 -263.255)" fill="#dc4658" fill-rule="evenodd"/>
                  <path id="Trazado_106229" data-name="Trazado 106229" d="M155.522,280.72a39.85,39.85,0,0,1-.491-6.457,12.689,12.689,0,0,1,.318-2.387,6.86,6.86,0,0,1,.551-1.483c.2-.4.436-.785.658-1.177a5.357,5.357,0,0,0,.785-2.35,4.479,4.479,0,0,0-.539-2.372c-.285-.592-.628-1.161-.9-1.759a9.485,9.485,0,0,0,.271-2.132,3.563,3.563,0,0,0-1.539-2.526l.011-.014-.011-.006a1.762,1.762,0,0,1,.352-.342,2.209,2.209,0,0,1,.489-.281c.306-.122.665-.22,1.1-.357l.01.008.026-.008a5.109,5.109,0,0,0,2.379,1.086c.691,1.592,3.38,1.879,3.775,3.758.442,2.1-1.45,5.825-1.45,8.169a30.354,30.354,0,0,1-2.229,11.7,9.69,9.69,0,0,1-3.468-.929l-.09-.048Z" transform="translate(-151.463 -257.076)" fill="#e76862" fill-rule="evenodd"/>
                </g>
              </g>
              <g id="Grupo_69173" data-name="Grupo 69173" transform="translate(21.775 0)">
                <path id="Trazado_106230" data-name="Trazado 106230" d="M247.224,225.011h0a.487.487,0,0,0,.226-.39.481.481,0,0,0-.027-.156.488.488,0,0,0-.066-.13c-.027-.037-.02-.06-.029-.06a1.934,1.934,0,0,1-1.37-.568h0a1.937,1.937,0,0,1,0-2.742h0a1.937,1.937,0,0,1,2.742,0h0a1.94,1.94,0,0,1,.461.733h-.829a1.187,1.187,0,1,0-1,1.824.829.829,0,0,1,.634.366,1.256,1.256,0,0,1,.176.334,1.236,1.236,0,0,1,.068.4,1.163,1.163,0,0,1-.071.4,14.2,14.2,0,0,1,3.911.629c1.292.433,2.122,1.076,2.2,1.83a.377.377,0,0,1-.335.412H241.146a.377.377,0,0,1-.377-.377.387.387,0,0,1,.007-.075c.1-.739.925-1.369,2.2-1.794a14.555,14.555,0,0,1,4.253-.637Zm2.043-2.543h-.754a.108.108,0,0,1-.006.044,1.2,1.2,0,0,1-.041.176.377.377,0,0,0,.719.226,1.951,1.951,0,0,0,.067-.287q.012-.075.017-.156Zm2.543,3.894a15.748,15.748,0,0,0-8.6,0,3.812,3.812,0,0,0-1.468.777h11.534A3.814,3.814,0,0,0,251.81,226.362Z" transform="translate(-240.769 -220.395)" fill="#e79c75" fill-rule="evenodd"/>
                <g id="Grupo_69172" data-name="Grupo 69172" transform="translate(1.132 4.649)">
                  <path id="Trazado_106231" data-name="Trazado 106231" d="M249.946,288.466c-.212-2.594-.568-13.934-.452-16.56a13.668,13.668,0,0,1,.294-2.387,7.223,7.223,0,0,1,.51-1.483c.187-.4.4-.785.609-1.177a5.658,5.658,0,0,0,.726-2.35,4.778,4.778,0,0,0-.5-2.372c-.264-.592-.581-1.161-.829-1.759l-.032-.1c.011-.019.022-.038.032-.057l-.014-.036a3.317,3.317,0,0,0,.264-1.934,3.61,3.61,0,0,0-1.423-2.526l.01-.014-.01-.006a1.711,1.711,0,0,1,.326-.342,2.017,2.017,0,0,1,.452-.281c.283-.122.615-.22,1.015-.357l.009.008.025-.008a6.313,6.313,0,0,0,7.566,0l.025.008.009-.008c.4.137.732.235,1.015.357a2.008,2.008,0,0,1,.452.281,1.713,1.713,0,0,1,.326.342l-.01.006.01.014a3.61,3.61,0,0,0-1.423,2.526,3.317,3.317,0,0,0,.264,1.934l-.014.036.032.057-.031.1c-.248.6-.565,1.168-.829,1.759a4.779,4.779,0,0,0-.5,2.372,5.661,5.661,0,0,0,.726,2.35c.205.392.422.776.609,1.178a7.222,7.222,0,0,1,.51,1.483,13.672,13.672,0,0,1,.294,2.387c.114,2.627-.243,13.966-.452,16.56l-.008.1-.084.048a11.44,11.44,0,0,1-9.4,0l-.084-.048Z" transform="translate(-249.131 -254.719)" fill="#059485" fill-rule="evenodd"/>
                  <path id="Trazado_106232" data-name="Trazado 106232" d="M249.946,288.466c-.212-2.594-.568-13.934-.452-16.56a13.668,13.668,0,0,1,.294-2.387,7.223,7.223,0,0,1,.51-1.483c.187-.4.4-.785.609-1.177a5.658,5.658,0,0,0,.726-2.35,4.778,4.778,0,0,0-.5-2.372c-.264-.592-.581-1.161-.829-1.759l-.032-.1c.011-.019.022-.038.032-.057l-.014-.036a3.317,3.317,0,0,0,.264-1.934,3.61,3.61,0,0,0-1.423-2.526l.01-.014-.01-.006a1.711,1.711,0,0,1,.326-.342,2.017,2.017,0,0,1,.452-.281c.283-.122.615-.22,1.015-.357l.009.008.025-.008a4.485,4.485,0,0,0,2.068,1.055c.806,1.46,3.594,2.37,4.157,4.324.377,1.3-1.4,3.529-1.156,5a46.313,46.313,0,0,1,.6,7.569c0,6.793-1.4,12.857-3.583,16.849a8.237,8.237,0,0,1-3.015-.9l-.084-.048Z" transform="translate(-249.131 -254.719)" fill="#05a08b" fill-rule="evenodd"/>
                </g>
              </g>
            </g>
            <g id="Grupo_69180" data-name="Grupo 69180" transform="translate(73.144)">
              <path id="Trazado_106233" data-name="Trazado 106233" d="M666.831,319.231h3.735a15.919,15.919,0,0,1-1.04-3.462c-.115-.6.584-7.725.343-12.26a22.947,22.947,0,0,0-.806-3.521c.146-2.675.3-5.455.563-7.777,2.048-18.042-11.711-11.256-8.8.624.732,2.986,2.659,5.37,2.075,7.011-2.06,5.8,1.04,11.678,3.487,16.514A3.3,3.3,0,0,1,666.831,319.231Z" transform="translate(-648.324 -246.792)" fill="#feceb4" fill-rule="evenodd"/>
              <path id="Trazado_106234" data-name="Trazado 106234" d="M666.842,295.144a2.829,2.829,0,0,0,.1.361c.081.265.164.528.241.793a10.187,10.187,0,0,1,.416,2.316c.075,1.45.057,2.919.017,4.372-.047,1.713-.136,3.424-.231,5.134,0,.064-.008.128-.01.192a13.43,13.43,0,0,1-6.031,0c-.366-.84-.711-1.689-1.021-2.557-1.275-3.572-1.885-7.319-.651-11.015a4.483,4.483,0,0,0-.5-2.451,27.769,27.769,0,0,1-1.474-4.127,13.436,13.436,0,0,1,.911-9.144c.975-1.86,2.833-3.777,5-3.468,1.674.24,2.706,1.723,3.253,3.306.887,2.563.784,5.912.5,8.584C667.1,289.991,666.974,292.582,666.842,295.144Z" transform="translate(-645.625 -241.937)" fill="#16c0a1" fill-rule="evenodd"/>
              <path id="Trazado_106235" data-name="Trazado 106235" d="M658.276,282.77a11.511,11.511,0,0,1,1.178-3.755c.976-1.86,2.833-3.777,5-3.468,1.674.241,2.706,1.723,3.253,3.306a12.636,12.636,0,0,1,.577,2.691c-1.492.754-4.6,1.267-8.2,1.267C659.47,282.816,658.863,282.8,658.276,282.77Z" transform="translate(-646.47 -241.936)" fill="#01ab92" fill-rule="evenodd"/>
              <path id="Trazado_106236" data-name="Trazado 106236" d="M659.04,306.575a14.823,14.823,0,0,1,0-2.252,9.511,9.511,0,0,1,.02,2.127l-.017.125Zm.445-7.011c-.1-.318-.226-.613-.314-.835A27.769,27.769,0,0,1,657.7,294.6a13.436,13.436,0,0,1,.911-9.144,8.082,8.082,0,0,1,1.979-2.488,5.827,5.827,0,0,1,.939,2.43c.459,2.666-.151,6.031-.816,8.679q-.684,2.729-1.224,5.489Z" transform="translate(-645.624 -248.381)" fill="#01ab92" fill-rule="evenodd"/>
              <path id="Trazado_106237" data-name="Trazado 106237" d="M679.33,412.856c-.163-2.165.035-5.179-.032-6.508-.407-8.148-4.041-7.594-5.3-3.813-1.161,3.479-.559,7.034.645,10.409C675.617,415.681,679.58,416.179,679.33,412.856Z" transform="translate(-659.518 -349.44)" fill="#36ceb0" fill-rule="evenodd"/>
              <path id="Trazado_106238" data-name="Trazado 106238" d="M612.352,317.808h3.468a15.823,15.823,0,0,1-.629-3.462c-.273-3.326.538-7.193.833-10.968.118-1.5-.467-2.9-.286-4.384.348-2.846.8-5.6,1.3-8.074,3.649-18.042-9.649-12.1-8.1-.22.391,2.987,1.863,5.991,1.162,7.633-2.473,5.8.316,11.77,2.119,16.606A3.427,3.427,0,0,1,612.352,317.808Z" transform="translate(-603.713 -245.368)" fill="#feceb4" fill-rule="evenodd"/>
              <path id="Trazado_106239" data-name="Trazado 106239" d="M606.528,306.874a34.671,34.671,0,0,1-1.41-4.918,14.986,14.986,0,0,1,.637-8.79,4.819,4.819,0,0,0-.1-2.391c-.277-1.26-.651-2.488-.9-3.758-.07-.36-.13-.723-.176-1.087a13.889,13.889,0,0,1,1.68-8.907c1.04-1.693,2.98-3.57,5.1-3.091,1.658.377,2.488,2.019,2.843,3.589a22.646,22.646,0,0,1-.336,8.679c-.518,2.648-.931,5.332-1.249,8.016a5.071,5.071,0,0,0-.007,1.009,20.5,20.5,0,0,1,.287,3.342c-.054.712-.125,1.422-.2,2.133-.167,1.519-.371,3.035-.51,4.557-.049.534-.09,1.073-.116,1.615a11.35,11.35,0,0,1-5.538,0Z" transform="translate(-599.94 -240.501)" fill="#3ed1b4" fill-rule="evenodd"/>
              <path id="Trazado_106240" data-name="Trazado 106240" d="M608.446,279.933a11.7,11.7,0,0,1,1.266-2.91c1.04-1.693,2.98-3.57,5.1-3.091,1.659.377,2.488,2.019,2.844,3.589a14.832,14.832,0,0,1,.28,3.845q-.452.011-.917.011C613.136,281.38,609.806,280.78,608.446,279.933Z" transform="translate(-603.396 -240.501)" fill="#1ec6a5" fill-rule="evenodd"/>
              <path id="Trazado_106241" data-name="Trazado 106241" d="M613.612,354.9c.118-1.174.262-2.344.385-3.518.072-.682.136-1.365.186-2.05a21.414,21.414,0,0,0-.266-3.119,6.152,6.152,0,0,1,.009-1.165,21.953,21.953,0,0,0,.013-3.2,22.608,22.608,0,0,0-1.055-6.432c-1.664-4.594-5.685-3.6-4.549,2.537.226,1.227.614,1.96.869,3.183a7.331,7.331,0,0,1,.01,3.336,14.4,14.4,0,0,0-.542,8.057c.151.812.346,1.612.568,2.4C609.908,357.324,613.367,357.315,613.612,354.9Z" transform="translate(-603.124 -291.243)" fill="#62ddc4" fill-rule="evenodd"/>
              <g id="Grupo_69175" data-name="Grupo 69175" transform="translate(6.935 72.076)">
                <path id="Trazado_106242" data-name="Trazado 106242" d="M623.938,559.457c.62,0,1.241.067,1.8.088.559-.021,1.18-.088,1.8-.088a1.5,1.5,0,0,1,1.587,1.4,1.252,1.252,0,0,1-.106.505H622.46a1.247,1.247,0,0,1-.107-.505,1.5,1.5,0,0,1,1.585-1.4Z" transform="translate(-622.351 -559.454)" fill="#c22c44" fill-rule="evenodd"/>
                <path id="Trazado_106243" data-name="Trazado 106243" d="M623.007,573.912h6.137a.266.266,0,0,0,.265-.265V573.5h-6.668v.151A.266.266,0,0,0,623.007,573.912Z" transform="translate(-622.689 -571.591)" fill="#254b4b" fill-rule="evenodd"/>
                <path id="Trazado_106244" data-name="Trazado 106244" d="M625.276,561.006a28.1,28.1,0,0,0-2.88.186,1.25,1.25,0,0,1-.046-.336,1.5,1.5,0,0,1,1.587-1.4c.62,0,1.241.067,1.8.088.559-.021,1.18-.088,1.8-.088a1.791,1.791,0,0,1,.354.035C627.9,560.235,627.542,561.006,625.276,561.006Z" transform="translate(-622.35 -559.454)" fill="#df4157" fill-rule="evenodd"/>
              </g>
              <g id="Grupo_69176" data-name="Grupo 69176" transform="translate(17.256 72.068)">
                <path id="Trazado_106245" data-name="Trazado 106245" d="M699.9,559.454c.62,0,1.248.067,1.809.088.557-.021,1.172-.088,1.792-.088a1.689,1.689,0,0,1,1.723,1.4,1.192,1.192,0,0,1-.058.505H698.61a1.29,1.29,0,0,1,1.3-1.9Z" transform="translate(-698.449 -559.443)" fill="#c22c44" fill-rule="evenodd"/>
                <path id="Trazado_106246" data-name="Trazado 106246" d="M699.546,573.912h6.137a.238.238,0,0,0,.24-.265l-.014-.151h-6.668l.014.151A.3.3,0,0,0,699.546,573.912Z" transform="translate(-699.136 -571.583)" fill="#254b4b" fill-rule="evenodd"/>
                <path id="Trazado_106247" data-name="Trazado 106247" d="M701.392,561a27.6,27.6,0,0,0-2.865.186,1.315,1.315,0,0,1-.075-.336,1.339,1.339,0,0,1,1.452-1.4c.62,0,1.248.067,1.809.088.557-.021,1.172-.088,1.792-.088a1.85,1.85,0,0,1,.357.035C703.942,560.234,703.658,561,701.392,561Z" transform="translate(-698.45 -559.445)" fill="#df4157" fill-rule="evenodd"/>
              </g>
              <path id="Trazado_106248" data-name="Trazado 106248" d="M587,29.945c-2.019-1.155-5.147.851-4.614,3.1a2.722,2.722,0,0,0-1.29,1.583c-.342,1.141.1.632-.926,1.211a3.214,3.214,0,0,0-1.669,2.948,3.1,3.1,0,0,0,.363,1.308c.528.98.433.795-.419,1.554a3.159,3.159,0,0,0-1.073,2.524,3.092,3.092,0,0,0,.161.841c.293.864.265.771-.467,1.226a3.193,3.193,0,0,0-1.535,2.869,3.1,3.1,0,0,0,.216.99c.574,1.44.774.377-.139,1.562a2.611,2.611,0,0,0-.546,1.734,2.739,2.739,0,0,0,2.924,2.539c7.6-.387,8.131-.895,20.7-1.535a3.125,3.125,0,0,0,3.024-3.22,3.039,3.039,0,0,0-1.678-2.544c-1.367-.7-.538-.26-.616-1.781a2.648,2.648,0,0,0-1.239-2.1c-1.189-.759-.629-.253-.709-1.848a2.634,2.634,0,0,0-1.043-1.96c-.806-.617-.709-.634-.443-1.6a2.59,2.59,0,0,0,.09-.825,2.676,2.676,0,0,0-1.678-2.326c-.792-.328-.587-.519-.4-1.206C595.027,31.249,590.816,27.144,587,29.945Z" transform="translate(-574.535 -28.859)" fill="#1c5f5b" fill-rule="evenodd"/>
              <path id="Trazado_106249" data-name="Trazado 106249" d="M620.9,63.9a1.98,1.98,0,0,0-2.8,2.035,1.761,1.761,0,0,0-.783,1.037c-.208.747.059.414-.562.793a2.158,2.158,0,0,0-.793,2.789c.32.644.263.521-.255,1.018a2.169,2.169,0,0,0-.554,2.2c.178.565.161.505-.283.8a2.136,2.136,0,0,0-.933,1.879,2.165,2.165,0,0,0,.131.648c.348.942.47.246-.084,1.022a1.8,1.8,0,0,0-.332,1.135,1.711,1.711,0,0,0,1.776,1.658c4.616-.253,4.939-.586,12.572-1a2.024,2.024,0,0,0,.818-3.774c-.829-.458-.327-.17-.377-1.166a1.761,1.761,0,0,0-.754-1.373c-.722-.5-.381-.166-.431-1.211a1.766,1.766,0,0,0-.634-1.282c-.489-.4-.43-.415-.268-1.045a1.821,1.821,0,0,0,.055-.54,1.747,1.747,0,0,0-1.019-1.523c-.481-.215-.356-.34-.241-.789C625.773,64.755,623.215,62.067,620.9,63.9Z" transform="translate(-607.889 -58.488)" fill="#254b4b" fill-rule="evenodd"/>
              <path id="Trazado_106250" data-name="Trazado 106250" d="M622.38,151.066c.022,1.263-3.782,2.288-8.5,2.288s-8.552-1.024-8.574-2.288c0-.028.069-1.677.193-4.082.266-5.178-1.112-12.728-.509-16.278.211-1.242,4.806-3.419,8.443-3.419s8.556,1.809,8.83,3.046c.78,3.532-.7,10.4-.28,15.555C622.234,148.878,622.38,151.033,622.38,151.066Z" transform="translate(-600.279 -113.802)" fill="#d7314c" fill-rule="evenodd"/>
              <path id="Trazado_106251" data-name="Trazado 106251" d="M629.137,256.008a22.847,22.847,0,0,1-6.494.808c-3.352,0-6.261-.518-7.67-1.272,1.72-5.046,4.791-8.567,7.94-8.567C626.157,246.976,628.546,250.715,629.137,256.008Z" transform="translate(-609.037 -217.265)" fill="#dd4556" fill-rule="evenodd"/>
              <path id="Trazado_106252" data-name="Trazado 106252" d="M711.085,206.009a40.339,40.339,0,0,0-.088,5.96c.115,1.4.208,2.624.274,3.527-1.691-1.1-2.754-4.146-3.059-5.422a19.663,19.663,0,0,1-.334-5.661c0-.458,1.831-.727,2.02-.673C710.275,204.553,710.676,205.309,711.085,206.009Z" transform="translate(-689.286 -179.885)" fill="#ac273d" fill-rule="evenodd"/>
              <path id="Trazado_106253" data-name="Trazado 106253" d="M608.868,206.495c.031-.65.07-1.457.117-2.375a45.5,45.5,0,0,0-.106-5.126,41.134,41.134,0,0,0,6.532-5.609c.2.011,1.734,1.067,1.5,1.616a33.388,33.388,0,0,1-3.276,6.634A17.923,17.923,0,0,1,608.868,206.495Z" transform="translate(-603.761 -170.939)" fill="#ac273d" fill-rule="evenodd"/>
              <path id="Trazado_106254" data-name="Trazado 106254" d="M606.181,165.579c.024-.495.052-1.051.083-1.654.266-5.178-.98-11.887-.377-15.437a1.337,1.337,0,0,1,.423-.661c2.549-2.094,5.658-.356,5.6,1.9-.1,3.468-3.015,8.952-3.131,13.057a2.876,2.876,0,0,1-2.593,2.792Z" transform="translate(-601.039 -130.744)" fill="#ac273d" fill-rule="evenodd"/>
              <path id="Trazado_106255" data-name="Trazado 106255" d="M642.987,96.839c-.356-.276-.444-.534.037-.718,1.717-.657,1.287-2.85,1.215-5.079-.015-.474,1-.62,2-.551,1-.069,2.013.075,2,.551-.075,2.229-.5,4.42,1.215,5.079.481.184.393.442.037.718C648.32,97.743,644.154,97.743,642.987,96.839Z" transform="translate(-632.998 -81.982)" fill="#fea682" fill-rule="evenodd"/>
              <path id="Trazado_106256" data-name="Trazado 106256" d="M644.335,114.2a16.576,16.576,0,0,1,3.85,3.647c-1.718.35-4.315.184-5.2-.5-.356-.276-.444-.534.037-.718C644.029,116.244,644.3,115.335,644.335,114.2Z" transform="translate(-632.998 -102.491)" fill="#febea0" fill-rule="evenodd"/>
              <path id="Trazado_106257" data-name="Trazado 106257" d="M645.466,55.866a1.82,1.82,0,0,1-.2.023h-.343a1.819,1.819,0,0,1-.2-.023,4.649,4.649,0,0,1-3.348-4.448c-.049-2.464.5-4.3,2.354-4.693a9.561,9.561,0,0,1,3.076.093c1.583.541,2.059,2.292,2.013,4.6A4.644,4.644,0,0,1,645.466,55.866Z" transform="translate(-631.853 -44.092)" fill="#feceb4" fill-rule="evenodd"/>
              <path id="Trazado_106258" data-name="Trazado 106258" d="M647.221,69.062a1.533,1.533,0,0,1-.177.02h-.3a1.574,1.574,0,0,1-.179-.02,4.252,4.252,0,0,1-3.064-3.891,8.646,8.646,0,0,1,.066-1.832c.706-.578,2.424.1,2.744-1.175.79,1.019,2.563,1.118,3.56,1.455a9.478,9.478,0,0,1,.137,1.552A3.888,3.888,0,0,1,647.221,69.062Z" transform="translate(-633.682 -57.509)" fill="#fedfcd" fill-rule="evenodd"/>
              <path id="Trazado_106259" data-name="Trazado 106259" d="M581.935,145.635c-.414,3.468-3.674,8.853-4.163,12.958a3.261,3.261,0,0,1-3.668,2.793,3.454,3.454,0,0,1-2.908-3.578,33.787,33.787,0,0,1,3.683-12.913C577.983,139.509,582.263,142.884,581.935,145.635Z" transform="translate(-571.194 -126.551)" fill="#d7314c" fill-rule="evenodd"/>
              <path id="Trazado_106260" data-name="Trazado 106260" d="M693.726,143.711c.381,3.491,3.606,9.226,4.059,13.361a3.73,3.73,0,0,0,3.662,3.208,3.021,3.021,0,0,0,2.96-3.208c.081-2.186-1.327-9.067-3.576-13.258C697.764,138.1,693.424,140.94,693.726,143.711Z" transform="translate(-677.101 -125.225)" fill="#d7314c" fill-rule="evenodd"/>
              <path id="Trazado_106261" data-name="Trazado 106261" d="M707.935,198.725a31.9,31.9,0,0,1,2.145,7.155,3.73,3.73,0,0,0,3.661,3.208,3.021,3.021,0,0,0,2.96-3.208c.022-.6-5.648-7.022-6.676-8.907-.226-.054-2.022.175-2.026.632C708,197.769,707.958,198.168,707.935,198.725Z" transform="translate(-689.396 -174.038)" fill="#ac273d" fill-rule="evenodd"/>
              <path id="Trazado_106262" data-name="Trazado 106262" d="M662.442,147.852a12.7,12.7,0,0,0,7.964-.066l-1.681,12.554a14.323,14.323,0,0,1-6.2-.088Q662.48,154.053,662.442,147.852Z" transform="translate(-650.071 -131.523)" fill="#fff" fill-rule="evenodd"/>
              <path id="Trazado_106263" data-name="Trazado 106263" d="M696.035,163.24c.256.672.4.317.5-.084.146-.612.262-.706.388-.715.161-.011.226.226.211.821a9.021,9.021,0,0,1-.351,2.488,1.168,1.168,0,0,1-1.307.467,17.26,17.26,0,0,1-2.161-3.183c-.075-.151-.485-.931,0-.458.207.2.54.474.427.136a3.991,3.991,0,0,1-.292-1.314.133.133,0,0,1,.243-.018c.2.253.562.95.642.833.06-.089-.131-.868-.121-1.171.005-.142.175-.133.281.026.219.329.418,1.162.587,1.147.231-.022.195-.535.21-.841.012-.245.131-.268.277-.03C695.867,161.841,695.8,162.628,696.035,163.24Z" transform="translate(-676.553 -142.895)" fill="#febea0" fill-rule="evenodd"/>
              <path id="Trazado_106264" data-name="Trazado 106264" d="M660.287,162.9c-.5.512-.5.13-.421-.277.112-.619.044-.754-.068-.811-.142-.075-.3.118-.523.667a9.008,9.008,0,0,0-.678,2.42,1.168,1.168,0,0,0,1.009.953,17.257,17.257,0,0,0,3.258-2.046c.127-.107.819-.657.185-.419-.271.1-.684.217-.445-.048a3.983,3.983,0,0,0,.8-1.086.133.133,0,0,0-.215-.115c-.284.151-.9.644-.923.505-.02-.106.469-.742.581-1.023.053-.132-.106-.192-.268-.089-.332.214-.85.9-1,.814-.2-.113.037-.568.146-.854.087-.226-.012-.3-.241-.139C661,161.689,660.746,162.437,660.287,162.9Z" transform="translate(-646.745 -143.179)" fill="#febea0" fill-rule="evenodd"/>
              <path id="Trazado_106265" data-name="Trazado 106265" d="M709.9,196.687c-.189-.054-2.016.215-2.02.673a19.659,19.659,0,0,0,.334,5.661c.339,1.415,1.615,5.029,3.652,5.713a3.6,3.6,0,0,0,4.175-1.247,1.9,1.9,0,0,0,.165-1.588C715.855,204.876,712.369,202.016,709.9,196.687Z" transform="translate(-689.286 -173.788)" fill="#d7314c" fill-rule="evenodd"/>
              <path id="Trazado_106266" data-name="Trazado 106266" d="M623.728,281.735c-1.9-2.783-1.648-12.024-1.436-19.85.1-3.744.193-7.161.039-9.335-.046-.648-.111-1.228-.192-1.744.389-.488.712-.932.942-1.269l.02-.029a18.321,18.321,0,0,1,.424,2.96c.156,2.207.063,5.661-.039,9.448-.207,7.65-.452,16.683,1.23,19.147Z" transform="translate(-615.231 -219.451)" fill="#fab433" fill-rule="evenodd"/>
              <path id="Trazado_106267" data-name="Trazado 106267" d="M623.791,318.4c-1.9-2.783-1.648-12.024-1.436-19.85.058-2.153.114-4.2.121-5.955a1.49,1.49,0,0,1,1.11-.669.619.619,0,0,1,.084,0c.005,1.917-.057,4.216-.122,6.652-.206,7.65-.452,16.683,1.23,19.147Z" transform="translate(-615.295 -256.117)" fill="#fccc51" fill-rule="evenodd"/>
              <path id="Trazado_106268" data-name="Trazado 106268" d="M622.376,253.4c-.012-.3-.027-.587-.046-.854-.046-.648-.111-1.228-.192-1.744.389-.488.712-.932.942-1.269l.02-.029a17.783,17.783,0,0,1,.4,2.7C623.153,252.607,622.773,253.016,622.376,253.4Z" transform="translate(-615.231 -219.451)" fill="#e99b36" fill-rule="evenodd"/>
              <path id="Trazado_106269" data-name="Trazado 106269" d="M585.149,185.965c.2.011,1.734,1.067,1.5,1.616a33.388,33.388,0,0,1-3.276,6.634c-1.055,1.555-4.117,5.361-6.341,5.361a3.166,3.166,0,0,1-2.488-5.134C575.4,193.359,580.091,191.344,585.149,185.965Z" transform="translate(-573.499 -164.525)" fill="#dc4251" fill-rule="evenodd"/>
              <path id="Trazado_106270" data-name="Trazado 106270" d="M587.065,31.182c-2.019-1.155-5.213,1.222-4.68,3.475a2.723,2.723,0,0,0-1.29,1.583c-.342,1.141.1.632-.926,1.211A3.214,3.214,0,0,0,578.5,40.4a3.1,3.1,0,0,0,.363,1.308c.528.98.433.795-.419,1.554a3.16,3.16,0,0,0-1.073,2.524,3.089,3.089,0,0,0,.161.841c.293.864.265.771-.467,1.226a3.193,3.193,0,0,0-1.535,2.869,3.1,3.1,0,0,0,.216.99c.574,1.44.774.377-.139,1.562a2.6,2.6,0,0,0-.18,2.935,31.066,31.066,0,0,1,2.789-7.4,8.26,8.26,0,0,1,1.031-1.441h0c.064-.377.537-.845,1.266-1.309a3.087,3.087,0,0,1,.252-.219,3.183,3.183,0,0,1,.859-3.006,3.171,3.171,0,0,1,1.24-3.957l.075-.044c.012-.051.026-.1.04-.155a10.175,10.175,0,0,1,1.138-2.461c.087-1.78,2.823-.183,3.079-2.043C587.989,33.986,588.454,31.22,587.065,31.182Z" transform="translate(-574.535 -30.468)" fill="#2f887d" fill-rule="evenodd"/>
              <path id="Trazado_106271" data-name="Trazado 106271" d="M660.64,28.528c-2.035,5.486,4.3,3.628,4.436,5.045.61-.08.712.461,1.026.748.528.48.112,2.111.547,2.575.533.573,1.306.672,1.476,1.122.389,1.03-.377,2.127-.174,2.292,1.378,1.131,1.008,1.759.894,2.865a4.6,4.6,0,0,1,.98.678,7.565,7.565,0,0,1,2.075,2.57,29.852,29.852,0,0,1,2.153,5.5,1.848,1.848,0,0,0,1.289-1.765,3.039,3.039,0,0,0-1.678-2.544c-1.367-.7-.538-.26-.616-1.781a2.649,2.649,0,0,0-1.239-2.1c-1.19-.759-.629-.253-.71-1.848a2.634,2.634,0,0,0-1.043-1.96c-.806-.617-.709-.634-.442-1.6a2.592,2.592,0,0,0,.091-.825,2.676,2.676,0,0,0-1.678-2.326c-.792-.328-.6-.523-.4-1.206C668.78,30.1,663.994,26.221,660.64,28.528Z" transform="translate(-648.165 -27.836)" fill="#23756c" fill-rule="evenodd"/>
              <g id="Grupo_69179" data-name="Grupo 69179" transform="translate(8.313 5.629)">
                <g id="Grupo_69177" data-name="Grupo 69177" transform="translate(0 0)">
                  <path id="Trazado_106272" data-name="Trazado 106272" d="M632.56,70.217a1.788,1.788,0,0,0,.458,1.631c.349.416.792.674,1.006.329a13.235,13.235,0,0,1-.117-2.584C633.571,69.131,632.73,69.322,632.56,70.217Z" transform="translate(-632.517 -69.35)" fill="#feceb4" fill-rule="evenodd"/>
                  <path id="Trazado_106273" data-name="Trazado 106273" d="M636.362,73.3c-.341.047-.541,1.311.335,1.675a2.06,2.06,0,0,1-.168-.585,2.612,2.612,0,0,1,.021-.934C636.609,73.249,636.614,73.267,636.362,73.3Z" transform="translate(-635.589 -72.748)" fill="#fea682" fill-rule="evenodd"/>
                </g>
                <g id="Grupo_69178" data-name="Grupo 69178" transform="translate(8.345 0)">
                  <path id="Trazado_106274" data-name="Trazado 106274" d="M695.522,70.217a1.788,1.788,0,0,1-.458,1.631c-.349.416-.792.674-1.006.329a13.24,13.24,0,0,0,.118-2.584C694.51,69.131,695.349,69.322,695.522,70.217Z" transform="translate(-694.058 -69.35)" fill="#feceb4" fill-rule="evenodd"/>
                  <path id="Trazado_106275" data-name="Trazado 106275" d="M697.328,73.3c.34.047.541,1.311-.335,1.675a2.054,2.054,0,0,0,.168-.585,2.617,2.617,0,0,0-.021-.934C697.082,73.249,697.074,73.267,697.328,73.3Z" transform="translate(-696.595 -72.748)" fill="#fea682" fill-rule="evenodd"/>
                </g>
              </g>
              <path id="Trazado_106276" data-name="Trazado 106276" d="M585.291,152.753a20.05,20.05,0,0,1-1.456,4.564c-.032.079-2.191,1.352-4,2.743-1.977,1.523-3.6,3.091-3.3,1.081a29.305,29.305,0,0,1,2.906-9C582.014,147.676,585.563,150.471,585.291,152.753Z" transform="translate(-575.781 -133.237)" fill="#dc4251" fill-rule="evenodd"/>
              <path id="Trazado_106277" data-name="Trazado 106277" d="M576.954,224.266c-.029.014-.057.03-.086.046-.986.561-1.614,2.011-1.983,3.815a26.466,26.466,0,0,0-.377,6.268,17.129,17.129,0,0,0,.975,5.721l-1.037.589a18.041,18.041,0,0,1-1.131-6.257,27.657,27.657,0,0,1,.4-6.563c.433-2.119,1.235-3.859,2.563-4.614a3.06,3.06,0,0,1,1.386-.4,2.279,2.279,0,0,1,1.035.188C578.072,223.515,577.486,223.913,576.954,224.266Z" transform="translate(-572.998 -196.429)" fill="#fab433" fill-rule="evenodd"/>
              <path id="Trazado_106278" data-name="Trazado 106278" d="M575.464,243.366a10.908,10.908,0,0,0-.579,1.974,26.469,26.469,0,0,0-.377,6.268,17.131,17.131,0,0,0,.975,5.721l-1.037.589a18.041,18.041,0,0,1-1.131-6.257,27.644,27.644,0,0,1,.4-6.563,11.63,11.63,0,0,1,.7-2.317h.008a1.416,1.416,0,0,1,1.041.584Z" transform="translate(-572.998 -213.642)" fill="#fccc51" fill-rule="evenodd"/>
              <path id="Trazado_106279" data-name="Trazado 106279" d="M601.717,194.455c-.528.956-1.234,2.32-2.019,3.679-1.324,2.3-2.836,3.614-4.074,3.9a2.056,2.056,0,0,1-2.1-.426c-.957-1.109.18-2.421,1.143-3.1a38.634,38.634,0,0,0,5.969-4.775C601.84,192.526,602.189,193.6,601.717,194.455Z" transform="translate(-590.185 -170.773)" fill="#e35357" fill-rule="evenodd"/>
              <path id="Trazado_106280" data-name="Trazado 106280" d="M709.834,204.473a19.9,19.9,0,0,0,.389,3.539c.272,1.282,1.516,4.412,2.673,5.03,1.614.863,2.6-.27,2-2.381-.226-.808-1.876-2.893-3.355-6.546C710.76,202.18,709.779,202.461,709.834,204.473Z" transform="translate(-691.036 -179.082)" fill="#dc4251" fill-rule="evenodd"/>
            </g>
          </g>
        </g>
      </g>
      <g id="Grupo_69185" data-name="Grupo 69185" transform="translate(0 0)">
        <g id="Grupo_69183" data-name="Grupo 69183" transform="translate(0)">
          <path id="Trazado_106281" data-name="Trazado 106281" d="M319.752,776.732a11.231,11.231,0,1,1,22.462,0c0,.026,0,.052,0,.075l-22.456-.036A.251.251,0,0,1,319.752,776.732Z" transform="translate(-319.752 -765.5)" fill="#7e1a2d"/>
        </g>
        <g id="Grupo_69184" data-name="Grupo 69184" transform="translate(120.764)">
          <path id="Trazado_106282" data-name="Trazado 106282" d="M2298.665,776.732a11.231,11.231,0,1,0-22.462,0,.73.73,0,0,1,0,.075l22.456-.036A.191.191,0,0,0,2298.665,776.732Z" transform="translate(-2276.203 -765.5)" fill="#7e1a2d"/>
        </g>
        <path id="Trazado_106283" data-name="Trazado 106283" d="M558.875,765.585l-60.354-.085.876.415a13.772,13.772,0,0,1,3.886,2.73,12.061,12.061,0,0,1,3.217,5.729,58.849,58.849,0,0,0,2.394,7.9,41.919,41.919,0,0,0,1.832,4.38,16.4,16.4,0,0,0,1.373,2.332,13.552,13.552,0,0,0,3.58,3.816h0a15.831,15.831,0,0,0,5.509,3.343c2.666,1.116,6.347,1.892,12.455,1.892.176,0,.345-.01.509-.012.115,0,.226,0,.34,0h48.828c.111,0,.226.007.34,0,.164,0,.333.012.509.012,6.106,0,9.788-.776,12.455-1.892a15.831,15.831,0,0,0,5.509-3.343h0a13.552,13.552,0,0,0,3.58-3.816,16.4,16.4,0,0,0,1.373-2.332,41.868,41.868,0,0,0,1.831-4.38,58.816,58.816,0,0,0,2.393-7.9,12.049,12.049,0,0,1,3.214-5.729,13.731,13.731,0,0,1,3.878-2.731l.86-.415Z" transform="translate(-487.291 -765.5)" fill="#e63a5b"/>
      </g>
      <path id="Trazado_106284" data-name="Trazado 106284" d="M3.3,13.849H1.31V4.2H3.3ZM6.805,6.68l.06.8a2.519,2.519,0,0,1,2.06-.934,1.912,1.912,0,0,1,1.9,1.093,2.461,2.461,0,0,1,2.16-1.093,2.138,2.138,0,0,1,1.734.678,3.122,3.122,0,0,1,.57,2.044v4.58H13.368V9.267a1.37,1.37,0,0,0-.238-.893,1.055,1.055,0,0,0-.841-.282,1.2,1.2,0,0,0-1.193.823l.006,4.934H9.188V9.273a1.357,1.357,0,0,0-.245-.9,1.066,1.066,0,0,0-.834-.279,1.24,1.24,0,0,0-1.179.678v5.081H5.014V6.68Zm16.4,3.651a4.3,4.3,0,0,1-.754,2.654,2.412,2.412,0,0,1-2.031,1,2.234,2.234,0,0,1-1.756-.754v3.379H16.755V6.68h1.775l.066.7a2.25,2.25,0,0,1,1.815-.834,2.427,2.427,0,0,1,2.06.98,4.416,4.416,0,0,1,.736,2.7ZM21.3,10.185a2.837,2.837,0,0,0-.354-1.548,1.153,1.153,0,0,0-1.03-.545,1.253,1.253,0,0,0-1.239.691v2.944a1.275,1.275,0,0,0,1.252.711q1.375,0,1.375-2.253Zm2.8.014a4.252,4.252,0,0,1,.411-1.9,3.007,3.007,0,0,1,1.183-1.292,3.45,3.45,0,0,1,1.792-.457,3.264,3.264,0,0,1,2.369.888,3.563,3.563,0,0,1,1.024,2.412l.014.49a3.747,3.747,0,0,1-.921,2.647,3.2,3.2,0,0,1-2.471,1,3.217,3.217,0,0,1-2.475-.994,3.813,3.813,0,0,1-.924-2.7Zm1.915.136A2.68,2.68,0,0,0,26.4,11.9a1.38,1.38,0,0,0,2.186.007,2.932,2.932,0,0,0,.391-1.709,2.653,2.653,0,0,0-.391-1.553,1.271,1.271,0,0,0-1.1-.551,1.25,1.25,0,0,0-1.086.547,2.981,2.981,0,0,0-.381,1.7ZM36.1,8.476a5.2,5.2,0,0,0-.689-.053,1.4,1.4,0,0,0-1.425.736v4.69H32.072V6.68h1.809l.053.855a1.775,1.775,0,0,1,1.6-.988,2.007,2.007,0,0,1,.6.086Zm3.543-3.558V6.68h1.226V8.085H39.645v3.578a.854.854,0,0,0,.151.57.765.765,0,0,0,.583.173,3.054,3.054,0,0,0,.563-.047V13.81a3.942,3.942,0,0,1-1.159.173,1.828,1.828,0,0,1-2.054-2.035V8.085H36.683V6.68H37.73V4.918Zm6.448,8.931a2.126,2.126,0,0,1-.192-.643,2.317,2.317,0,0,1-1.809.775,2.545,2.545,0,0,1-1.746-.61,1.96,1.96,0,0,1-.692-1.537,2.026,2.026,0,0,1,.845-1.749,4.168,4.168,0,0,1,2.442-.616h.881V9.058a1.181,1.181,0,0,0-.255-.8,1,1,0,0,0-.805-.3A1.141,1.141,0,0,0,44,8.194a.788.788,0,0,0-.275.636H41.812A1.923,1.923,0,0,1,42.2,7.677a2.54,2.54,0,0,1,1.086-.829,3.96,3.96,0,0,1,1.577-.3,3.128,3.128,0,0,1,2.1.666,2.329,2.329,0,0,1,.775,1.873v3.105a3.427,3.427,0,0,0,.285,1.544v.115Zm-1.583-1.332a1.649,1.649,0,0,0,.782-.188,1.24,1.24,0,0,0,.528-.507V10.59H45.1q-1.438,0-1.53.994l-.007.112a.767.767,0,0,0,.252.589.98.98,0,0,0,.691.232ZM50.974,6.68l.06.829a2.5,2.5,0,0,1,2.057-.962,2.08,2.08,0,0,1,1.7.669,3.122,3.122,0,0,1,.57,2v4.632H53.442v-4.6a1.247,1.247,0,0,0-.265-.887,1.185,1.185,0,0,0-.881-.276,1.317,1.317,0,0,0-1.212.691v5.07H49.171V6.68ZM59.1,4.918V6.68h1.223V8.085H59.1v3.578a.854.854,0,0,0,.151.57.765.765,0,0,0,.583.173,3.054,3.054,0,0,0,.563-.047V13.81a3.942,3.942,0,0,1-1.159.173,1.828,1.828,0,0,1-2.054-2.035V8.085H56.142V6.68H57.19V4.918ZM64.7,13.981a3.519,3.519,0,0,1-2.568-.967,3.438,3.438,0,0,1-.991-2.577v-.185a4.331,4.331,0,0,1,.418-1.931A3.064,3.064,0,0,1,62.74,7.008a3.317,3.317,0,0,1,1.746-.461,2.975,2.975,0,0,1,2.316.927,3.769,3.769,0,0,1,.845,2.63v.782H63.079a1.779,1.779,0,0,0,.56,1.126,1.692,1.692,0,0,0,1.183.424,2.067,2.067,0,0,0,1.729-.8l.941,1.055a2.874,2.874,0,0,1-1.166.951,3.826,3.826,0,0,1-1.63.34Zm-.222-5.89a1.2,1.2,0,0,0-.924.386A2,2,0,0,0,63.1,9.582h2.666V9.432a1.426,1.426,0,0,0-.345-.988,1.235,1.235,0,0,0-.945-.352Z" transform="translate(41.892 6.962)" fill="#fff"/>
    </g>
  </g>
</svg>
