<svg xmlns="http://www.w3.org/2000/svg" width="118" height="117" viewBox="0 0 118 117">
  <g id="Grupo_1052719" data-name="Grupo 1052719" transform="translate(-633 -1106)">
    <g id="Grupo_1043001" data-name="Grupo 1043001" transform="translate(633.036 1106.397)">
      <ellipse id="Elipse_6022" data-name="Elipse 6022" cx="59" cy="58.5" rx="59" ry="58.5" transform="translate(-0.036 -0.397)" fill="#ea526f"/>
      <ellipse id="Elipse_6023" data-name="Elipse 6023" cx="53" cy="52.5" rx="53" ry="52.5" transform="translate(5.964 5.603)" fill="#effefe"/>
    </g>
    <g id="Grupo_1043005" data-name="Grupo 1043005" transform="translate(645.164 1118.347)">
      <path id="Trazado_772499" data-name="Trazado 772499" d="M1867.817,1247.725c-5.809.088-12.832-1.661-19.459-5.069-2.951-1.518-3.256-2.315-1.822-5.324q9.584-20.1,19.227-40.172a5.3,5.3,0,0,0,.018-5.2c-1.43-2.742-2.635-5.6-4.016-8.371a7.989,7.989,0,0,0-1.44-1.6,8.312,8.312,0,0,0-1.422,1.647q-6.306,13.122-12.533,26.283-4.762,10.007-9.534,20.009c-1.149,2.4-1.936,2.515-3.524.46a46.271,46.271,0,0,1-10-26.192,46.445,46.445,0,0,1,31.244-46.909c1.856-.655,2.9-.218,3.788,1.675q16.531,35.152,33.207,70.236c1.231,2.6,2.431,5.217,3.685,7.808.852,1.762.511,2.969-1.258,4.01C1886.179,1245.609,1878.6,1247.734,1867.817,1247.725Z" transform="translate(-1823.223 -1154.961)" fill="#0071cd"/>
      <path id="Trazado_772500" data-name="Trazado 772500" d="M1937.676,1152.2c17.038,1.963,30.037,10.243,37.61,25.719,7.932,16.208,6.464,32.164-3.462,47.268-1.546,2.353-2.476,2.207-3.707-.388q-16.6-35-33.211-70C1933.733,1152.323,1933.983,1152.088,1937.676,1152.2Z" transform="translate(-1887.28 -1152.177)" fill="#0071cd"/>
    </g>
  </g>
</svg>
