<svg xmlns="http://www.w3.org/2000/svg" width="117" height="117" viewBox="0 0 117 117">
  <g id="Grupo_1052720" data-name="Grupo 1052720" transform="translate(-841 -1105)">
    <g id="Grupo_1043002" data-name="Grupo 1043002" transform="translate(840.506 1105.409)">
      <circle id="Elipse_6024" data-name="Elipse 6024" cx="58.5" cy="58.5" r="58.5" transform="translate(0.494 -0.409)" fill="#7897ea"/>
      <circle id="Elipse_6025" data-name="Elipse 6025" cx="52.5" cy="52.5" r="52.5" transform="translate(5.494 5.591)" fill="#effefe"/>
    </g>
    <path id="Trazado_772501" data-name="Trazado 772501" d="M1891.1,1606.567l-.3-.251h0c-.289-.292-4.8-4.825-6.715-6.853a2.923,2.923,0,0,0-2.357-.966q-21.144.042-42.288.023c-.47,0-.94.052-1.41.079-.635.056-.4.56-.4.871-.014,9.96,0,19.92-.027,29.879,0,.811.245,1.053,1.05,1.051,10.906-.021,21.813-.011,32.719-.026.35,0,.922.274.963-.458q.029-5.787.053-11.575c0-.256.084-.591-.334-.646h0c-.519-.021-1.037-.061-1.555-.061q-9.437-.007-18.872-.01a.884.884,0,0,1-.326-.073,1.623,1.623,0,0,1-.974-1.479,36.172,36.172,0,0,1,.139-4.743l.012-.01c8.953.008,17.906.034,26.859,0,1.053,0,1.349.245,1.342,1.324q-.075,11.375,0,22.751c.01,1.2-.4,1.363-1.449,1.361q-22.25-.046-44.5.006c-1.132,0-1.4-.307-1.4-1.413q.06-21.471.031-42.942a.3.3,0,0,0,.142-.209c.031-.013.063-.025.093-.035a3.329,3.329,0,0,0,1.166.041q21.141.013,42.282.006a4.848,4.848,0,0,0,1.131-.04c.22-.053.245-.246.111-.437-.169-.087-8.73-8.691-12.159-12.087h0c-.432-.441-.985-.245-1.481-.245q-19.16-.017-38.32,0a17.264,17.264,0,0,0-2.769.427h0a3.561,3.561,0,0,0-2.731,2.763c.018.425.055,41.736.052,61.966,0,.661-.04,1.322-.062,1.982.155,1.875,2.695,3.218,4.927,3.22q31.277.03,62.554.008a4.792,4.792,0,0,0,4.879-3.814C1891.156,1645.473,1891.1,1619.221,1891.1,1606.567Z" transform="translate(-953.26 -452.914)" fill="#f3aa14"/>
  </g>
</svg>
