<svg xmlns="http://www.w3.org/2000/svg" width="150" height="150" viewBox="0 0 150 150">
  <g id="Grupo_1052718" data-name="Grupo 1052718" transform="translate(6894 7710)">
    <rect id="Rectángulo_356250" data-name="Rectángulo 356250" width="150" height="150" transform="translate(-6894 -7710)" fill="none"/>
    <g id="Grupo_1043209" data-name="Grupo 1043209" transform="translate(-6873.353 -7697.711)">
      <path id="Trazado_773519" data-name="Trazado 773519" d="M53,0A53,53,0,1,1,0,53,53,53,0,0,1,53,0Z" transform="translate(2.706 19.423)" fill="#9b1f36"/>
      <g id="group_2_" data-name="group (2)">
        <path id="Trazado_107162" data-name="Trazado 107162" d="M52.8,312.453a12.282,12.282,0,0,0-6-3.432l-8.5-2.036,0,.006,0-.006V301.8H27.929V307h0l-8.476,2.025A12.313,12.313,0,0,0,10,321v13.885H28.789Z" transform="translate(-7.934 -231.459)" fill="#fff"/>
        <path id="Trazado_107163" data-name="Trazado 107163" d="M106.766,301.8v5.328l-5.386,12.9L96,307.143V301.8Z" transform="translate(-76.171 -231.459)" fill="#fff"/>
        <path id="Trazado_107164" data-name="Trazado 107164" d="M89.086,215.261v7.186a11.567,11.567,0,0,1-11.568,11.567h0a11.567,11.567,0,0,1-11.568-11.567v-7.186Z" transform="translate(-52.328 -162.798)" fill="#fff"/>
        <path id="Trazado_107165" data-name="Trazado 107165" d="M89.086,171.137v-2.785a11.567,11.567,0,0,0-11.568-11.567h0a11.567,11.567,0,0,0-11.568,11.567v2.785h7.974A27.581,27.581,0,0,0,88.1,167.215h0" transform="translate(-52.328 -116.4)" fill="#fff"/>
        <path id="Trazado_107166" data-name="Trazado 107166" d="M294.79,312.453a12.283,12.283,0,0,1,6-3.432l8.5-2.036,0,.006,0-.006V301.8h10.378V307h0l8.476,2.025A12.313,12.313,0,0,1,337.59,321v13.885H318.8Z" transform="translate(-233.899 -231.459)" fill="#fff"/>
        <path id="Trazado_107167" data-name="Trazado 107167" d="M124.953,352.4l-11.837,2.836a17.151,17.151,0,0,0-13.154,16.679V383.3h64.419V371.928a17.151,17.151,0,0,0-13.166-16.682l-11.806-2.82Z" transform="translate(-79.314 -271.612)" fill="#fff"/>
        <g id="Grupo_70215" data-name="Grupo 70215" transform="translate(45.168 70.338)">
          <path id="Trazado_107168" data-name="Trazado 107168" d="M374.646,301.8v5.346l-5.38,12.882-5.386-12.9V301.8Z" transform="translate(-333.887 -301.797)" fill="#fff"/>
          <path id="Trazado_107169" data-name="Trazado 107169" d="M226.386,346.537l7.707-17.5a6.362,6.362,0,0,1-.9-3.262V324.1H219.569v1.682a6.361,6.361,0,0,1-.9,3.257Z" transform="translate(-218.674 -319.49)" fill="#fff"/>
        </g>
        <path id="Trazado_107170" data-name="Trazado 107170" d="M210.224,191.525v11.117a16.112,16.112,0,0,1-16.111,16.112h0A16.111,16.111,0,0,1,178,202.642V191.525Z" transform="translate(-141.234 -143.964)" fill="#fff"/>
        <path id="Trazado_107171" data-name="Trazado 107171" d="M194.111,115.437h0A16.111,16.111,0,0,0,178,131.548v3.878h7.877a17.7,17.7,0,0,0,13.567-6.332h0l10.778,6.332v-3.878A16.111,16.111,0,0,0,194.111,115.437Z" transform="translate(-141.232 -83.593)" fill="#fff"/>
        <path id="Trazado_107172" data-name="Trazado 107172" d="M334.045,215.261v7.186a11.567,11.567,0,0,0,11.568,11.567h0a11.567,11.567,0,0,0,11.568-11.567v-7.186Z" transform="translate(-265.046 -162.798)" fill="#fff"/>
        <path id="Trazado_107173" data-name="Trazado 107173" d="M334.045,171.137v-2.785a11.567,11.567,0,0,1,11.568-11.567h0a11.567,11.567,0,0,1,11.568,11.567v2.785h-7.974a27.581,27.581,0,0,1-14.176-3.922h0" transform="translate(-265.046 -116.4)" fill="#fff"/>
        <path id="Trazado_107175" data-name="Trazado 107175" d="M94.718,151.217l-6.89-1.646v-2.733a13.632,13.632,0,0,0,6.372-11.53v-7.7a13.625,13.625,0,0,0-23.833-9.032A18.21,18.21,0,0,0,52.9,105.437h0a18.21,18.21,0,0,0-17.478,13.178,13.624,13.624,0,0,0-23.864,9v7.7a13.632,13.632,0,0,0,6.372,11.53v2.733l-6.89,1.646A14.333,14.333,0,0,0,0,165.2v13.885a2.066,2.066,0,0,0,2.066,2.066H18.582v6.2a2.066,2.066,0,0,0,2.066,2.066h22.66a2.066,2.066,0,0,0,0-4.131H34.087v-9.091a2.066,2.066,0,0,0-4.131,0v9.091H22.713v-9.319a15.038,15.038,0,0,1,11.57-14.67l10.159-2.434,6.537,14.871a2.065,2.065,0,0,0,1.891,1.234h0a2.065,2.065,0,0,0,1.891-1.234l6.53-14.849L71.42,161.3A15.036,15.036,0,0,1,83,175.974v2.3a2.069,2.069,0,0,0,0,1.616v5.389H75.8v-9.091a2.066,2.066,0,0,0-4.131,0v9.091H61.554a2.066,2.066,0,0,0,0,4.131H85.066a2.066,2.066,0,0,0,2.066-2.066v-6.2h16.559a2.066,2.066,0,0,0,2.066-2.066V165.2A14.333,14.333,0,0,0,94.718,151.217Zm-11.017.1-3.154,7.551-3.111-7.452a2.064,2.064,0,0,0,.014-.226c0-.019,0-.039,0-.058v-2.551a13.539,13.539,0,0,0,6.247,0V151.2C83.7,151.238,83.7,151.275,83.7,151.313Zm-40.128,1.659a14.342,14.342,0,0,0-4.222-1.76l-6.914-1.657v-2.709a13.73,13.73,0,0,0,4.269-4.256,18.308,18.308,0,0,0,6.867,7.342Zm-4.72-18.636v-4.778h5.812a19.713,19.713,0,0,0,13.96-5.771l8.308,4.881v6.153a14.044,14.044,0,0,1-28.08-.485ZM62.16,149.971a18.306,18.306,0,0,0,6.914-7.345,13.739,13.739,0,0,0,4.246,4.22v2.709L66.4,151.212a14.346,14.346,0,0,0-4.245,1.775v-3.016Zm18.407-5.162a9.513,9.513,0,0,1-9.5-9.5v-.337c.007-.211.012-5.554.012-5.554a29.654,29.654,0,0,0,13.084,3.044h5.908v2.848A9.513,9.513,0,0,1,80.566,144.81Zm0-26.7a9.513,9.513,0,0,1,9.5,9.5v.719H84.16a25.521,25.521,0,0,1-12.713-3.393A9.52,9.52,0,0,1,80.566,118.109Zm-41.713,5.505a14.046,14.046,0,0,1,28.093,0v.269l-7.666-4.5a2.065,2.065,0,0,0-2.629.454,15.6,15.6,0,0,1-11.985,5.593H38.853Zm-23.165,4a9.5,9.5,0,0,1,18.621-2.674A25.523,25.523,0,0,1,21.6,128.33H15.688v-.719Zm0,4.85H21.6a29.653,29.653,0,0,0,13.1-3.049v5.9a9.5,9.5,0,0,1-19,0S15.688,132.46,15.688,132.46Zm9.5,16.48a13.624,13.624,0,0,0,3.117-.364v2.493c0,.039,0,.078,0,.116,0,.065.006.13.012.194l-3.125,7.483-3.137-7.514c0-.049.006-.1.006-.149v-2.627A13.623,13.623,0,0,0,25.19,148.941Zm-6.608,27.024v1.057H12.393v-9.177a2.066,2.066,0,1,0-4.131,0v9.177H4.131V165.2A10.215,10.215,0,0,1,12,155.235l6.547-1.564,4.273,10.236A19.175,19.175,0,0,0,18.582,175.964Zm14.739-18.687a19.415,19.415,0,0,0-3.492,1.2l2.012-4.817,6.548,1.569a10.234,10.234,0,0,1,1.482.478ZM52.87,167.768,47.7,156.015v-4.26a18.192,18.192,0,0,0,10.324.019v4.264Zm12.977-12.044a10.255,10.255,0,0,1,1.52-.494l6.533-1.565,2.02,4.839a19.419,19.419,0,0,0-3.54-1.219Zm35.778,21.3H97.494v-9.177a2.066,2.066,0,1,0-4.131,0v9.177H87.132v-1.047a19.174,19.174,0,0,0-4.224-12.043l4.287-10.264,6.563,1.568a10.215,10.215,0,0,1,7.867,9.967Z" transform="translate(0 -75.658)" fill="#9b1f36"/>
        <path id="Trazado_107176" data-name="Trazado 107176" d="M214.526,231.25a2.067,2.067,0,1,0,1.46.605A2.081,2.081,0,0,0,214.526,231.25Z" transform="translate(-168.575 -175.484)" fill="#9f0925"/>
        <path id="Trazado_107177" data-name="Trazado 107177" d="M281.4,235.381a2.066,2.066,0,1,0-1.46-.605A2.08,2.08,0,0,0,281.4,235.381Z" transform="translate(-221.633 -175.484)" fill="#9f0925"/>
        <path id="Trazado_107178" data-name="Trazado 107178" d="M241.97,265.518a2.066,2.066,0,0,0-2.921,0,1.568,1.568,0,0,1-2.215,0,2.066,2.066,0,0,0-2.921,2.921,5.7,5.7,0,0,0,8.058,0A2.066,2.066,0,0,0,241.97,265.518Z" transform="translate(-185.116 -202.194)" fill="#9f0925"/>
        <path id="Trazado_107179" data-name="Trazado 107179" d="M398.686,58.131H400.1a2.066,2.066,0,1,0,0-4.131h-1.417a2.066,2.066,0,0,0,0,4.131Z" transform="translate(-314.696 -34.846)" fill="#9b1f36"/>
        <path id="Trazado_107180" data-name="Trazado 107180" d="M447.207,58.131h1.417a2.066,2.066,0,0,0,0-4.131h-1.417a2.066,2.066,0,0,0,0,4.131Z" transform="translate(-353.195 -34.846)" fill="#9b1f36"/>
        <path id="Trazado_107181" data-name="Trazado 107181" d="M426.377,80.379a2.066,2.066,0,0,0,2.066-2.066V76.9a2.066,2.066,0,0,0-4.131,0v1.417A2.066,2.066,0,0,0,426.377,80.379Z" transform="translate(-336.667 -51.374)" fill="#9b1f36"/>
        <path id="Trazado_107182" data-name="Trazado 107182" d="M426.377,31.858a2.066,2.066,0,0,0,2.066-2.066V28.376a2.066,2.066,0,1,0-4.131,0v1.417A2.066,2.066,0,0,0,426.377,31.858Z" transform="translate(-336.667 -12.876)" fill="#9b1f36"/>
        <path id="Trazado_107183" data-name="Trazado 107183" d="M41.51,58.131h1.417a2.066,2.066,0,0,0,0-4.131H41.51a2.066,2.066,0,0,0,0,4.131Z" transform="translate(-31.297 -34.846)" fill="#9b1f36"/>
        <path id="Trazado_107184" data-name="Trazado 107184" d="M90.031,58.131h1.417a2.066,2.066,0,1,0,0-4.131H90.031a2.066,2.066,0,1,0,0,4.131Z" transform="translate(-69.795 -34.846)" fill="#9b1f36"/>
        <path id="Trazado_107185" data-name="Trazado 107185" d="M69.2,80.379a2.066,2.066,0,0,0,2.066-2.066V76.9a2.066,2.066,0,0,0-4.131,0v1.417A2.066,2.066,0,0,0,69.2,80.379Z" transform="translate(-53.267 -51.374)" fill="#9b1f36"/>
        <path id="Trazado_107186" data-name="Trazado 107186" d="M69.2,31.858a2.066,2.066,0,0,0,2.066-2.066V28.376a2.066,2.066,0,0,0-4.131,0v1.417A2.066,2.066,0,0,0,69.2,31.858Z" transform="translate(-53.267 -12.876)" fill="#9b1f36"/>
        <path id="Trazado_107187" data-name="Trazado 107187" d="M248.066,47.653a2.066,2.066,0,0,0,2.066-2.066V40.153a2.066,2.066,0,0,0-4.131,0v5.434A2.066,2.066,0,0,0,248.066,47.653Z" transform="translate(-192.187 -30.22)" fill="#9b1f36"/>
        <path id="Trazado_107188" data-name="Trazado 107188" d="M248.066,4.131a2.067,2.067,0,0,0,2.066-2.066,2.066,2.066,0,1,0-3.526,1.46A2.082,2.082,0,0,0,248.066,4.131Z" transform="translate(-192.187)" fill="#9b1f36"/>
        <path id="Trazado_107189" data-name="Trazado 107189" d="M192.877,29.105a2.066,2.066,0,1,0,2.921-2.921l-3.023-3.023a2.066,2.066,0,1,0-2.921,2.921Z" transform="translate(-147.159 -17.897)" fill="#9b1f36"/>
        <path id="Trazado_107190" data-name="Trazado 107190" d="M289.691,29.261a2.059,2.059,0,0,0,1.461-.6l3.124-3.124a2.066,2.066,0,0,0-2.921-2.921l-3.124,3.124a2.066,2.066,0,0,0,1.461,3.526Z" transform="translate(-225.215 -17.461)" fill="#9b1f36"/>
      </g>
    </g>
  </g>
</svg>
