<svg xmlns="http://www.w3.org/2000/svg" width="118" height="118" viewBox="0 0 118 118">
  <g id="Grupo_1052782" data-name="Grupo 1052782" transform="translate(-345 -3345)">
    <g id="Grupo_1052781" data-name="Grupo 1052781">
      <g id="Grupo_1052780" data-name="Grupo 1052780">
        <g id="Grupo_1052779" data-name="Grupo 1052779">
          <g id="Grupo_1052778" data-name="Grupo 1052778">
            <g id="Grupo_1052777" data-name="Grupo 1052777">
              <g id="Grupo_1043263" data-name="Grupo 1043263" transform="translate(272 -703)">
                <g id="Grupo_1052752" data-name="Grupo 1052752">
                  <g id="Grupo_1052769" data-name="Grupo 1052769">
                    <g id="Grupo_1052768" data-name="Grupo 1052768">
                      <g id="Grupo_1052767" data-name="Grupo 1052767">
                        <g id="Grupo_1052766" data-name="Grupo 1052766">
                          <g id="Grupo_1052765" data-name="Grupo 1052765">
                            <g id="Grupo_1052764" data-name="Grupo 1052764">
                              <g id="Grupo_1052751" data-name="Grupo 1052751">
                                <g id="Grupo_1052750" data-name="Grupo 1052750">
                                  <circle id="Elipse_8038" data-name="Elipse 8038" cx="59" cy="59" r="59" transform="translate(73 4048)" fill="#9b1f36"/>
                                </g>
                              </g>
                            </g>
                          </g>
                        </g>
                      </g>
                    </g>
                  </g>
                </g>
                <g id="Grupo_1052776" data-name="Grupo 1052776" transform="translate(-0.072 -5.178)">
                  <g id="Grupo_1052775" data-name="Grupo 1052775">
                    <g id="Grupo_1052774" data-name="Grupo 1052774">
                      <g id="Grupo_1052773" data-name="Grupo 1052773">
                        <g id="Grupo_1052772" data-name="Grupo 1052772">
                          <g id="Grupo_1052771" data-name="Grupo 1052771">
                            <g id="Grupo_1052770" data-name="Grupo 1052770">
                              <g id="presupuesto_1_" data-name="presupuesto (1)" transform="translate(92.451 4073.022)">
                                <path id="Trazado_107116" data-name="Trazado 107116" d="M152,21.3V67.513c0,.092,0,.184-.006.277a5.966,5.966,0,0,1-5.96,5.688H112.49a5.966,5.966,0,0,1-5.967-5.965V14.01a5.957,5.957,0,0,1,5.967-5.966h26.643a5.947,5.947,0,0,1,2.591.594c1.612.776,2.066,1.756,4.962,4.718,3.332,3.618,4.128,3.989,4.807,5.556A5.9,5.9,0,0,1,152,21.3Z" transform="translate(-89.765 -6.814)" fill="#ffc477"/>
                                <path id="Trazado_107117" data-name="Trazado 107117" d="M177.546,21.3V67.513c0,.092,0,.184-.006.277a5.985,5.985,0,0,1-1.347.152H142.652a5.966,5.966,0,0,1-5.967-5.965V8.474c0-.094,0-.186.006-.278a5.993,5.993,0,0,1,1.347-.152h26.643a5.975,5.975,0,0,1,4.36,1.895l3.194,3.417,3.657,3.826a6,6,0,0,1,1.655,4.121Z" transform="translate(-115.314 -6.813)" fill="#ffdaaa"/>
                                <path id="Trazado_107118" data-name="Trazado 107118" d="M289.187,183.328v33.545a8.432,8.432,0,0,1-8.432,8.431h-21.91a8.432,8.432,0,0,1-8.432-8.431V183.328a8.428,8.428,0,0,1,8.432-8.432h21.91A8.431,8.431,0,0,1,289.187,183.328Z" transform="translate(-211.648 -148.145)" fill="#4cba68"/>
                                <path id="Trazado_107119" data-name="Trazado 107119" d="M308.493,183.328v33.545a8.387,8.387,0,0,1-1.633,4.987,8.4,8.4,0,0,1-3.312.677h-21.91a8.432,8.432,0,0,1-8.432-8.431V180.56a8.387,8.387,0,0,1,1.633-4.987,8.4,8.4,0,0,1,3.312-.677h21.91A8.431,8.431,0,0,1,308.493,183.328Z" transform="translate(-230.953 -148.145)" fill="#7ccc92"/>
                                <path id="Trazado_107120" data-name="Trazado 107120" d="M362.5,367.23v3.94a1.26,1.26,0,0,1-1.259,1.261H357.3a1.261,1.261,0,0,1-1.261-1.261v-3.94a1.261,1.261,0,0,1,1.261-1.261h3.941A1.26,1.26,0,0,1,362.5,367.23Z" transform="translate(-301.117 -309.993)" fill="#2c733f"/>
                                <path id="Trazado_107121" data-name="Trazado 107121" d="M315.481,209.8v4.221a2.719,2.719,0,0,1-2.719,2.719H291.016a2.72,2.72,0,0,1-2.719-2.719V209.8a2.72,2.72,0,0,1,2.719-2.719h21.747A2.719,2.719,0,0,1,315.481,209.8Z" transform="translate(-243.736 -175.405)" fill="#1e81ce"/>
                                <path id="Trazado_107122" data-name="Trazado 107122" d="M341.029,209.8v4.221a2.719,2.719,0,0,1-2.719,2.719H321.177a2.72,2.72,0,0,1-2.719-2.719V209.8a2.72,2.72,0,0,1,2.719-2.719H338.31A2.719,2.719,0,0,1,341.029,209.8Z" transform="translate(-269.284 -175.405)" fill="#3d9ae2"/>
                                <g id="Grupo_70209" data-name="Grupo 70209" transform="translate(44.561 45.673)">
                                  <path id="Trazado_107123" data-name="Trazado 107123" d="M294.76,367.23v3.94a1.261,1.261,0,0,1-1.261,1.261h-3.941a1.262,1.262,0,0,1-1.261-1.261v-3.94a1.262,1.262,0,0,1,1.261-1.261H293.5A1.261,1.261,0,0,1,294.76,367.23Z" transform="translate(-288.297 -355.666)" fill="#2c733f"/>
                                  <path id="Trazado_107124" data-name="Trazado 107124" d="M362.5,299.869v3.94a1.26,1.26,0,0,1-1.259,1.261H357.3a1.261,1.261,0,0,1-1.261-1.261v-3.94a1.261,1.261,0,0,1,1.261-1.261h3.941A1.26,1.26,0,0,1,362.5,299.869Z" transform="translate(-345.678 -298.608)" fill="#2c733f"/>
                                </g>
                                <path id="Trazado_107125" data-name="Trazado 107125" d="M431.058,299.869v3.94a1.261,1.261,0,0,1-1.261,1.261h-3.94a1.261,1.261,0,0,1-1.261-1.261v-3.94a1.261,1.261,0,0,1,1.261-1.261h3.94A1.261,1.261,0,0,1,431.058,299.869Z" transform="translate(-359.188 -252.935)" fill="#ee8700"/>
                                <g id="Grupo_70210" data-name="Grupo 70210" transform="translate(44.561 45.673)">
                                  <path id="Trazado_107126" data-name="Trazado 107126" d="M294.76,299.869v3.94a1.261,1.261,0,0,1-1.261,1.261h-3.941a1.262,1.262,0,0,1-1.261-1.261v-3.94a1.262,1.262,0,0,1,1.261-1.261H293.5A1.261,1.261,0,0,1,294.76,299.869Z" transform="translate(-288.297 -298.608)" fill="#2c733f"/>
                                  <path id="Trazado_107127" data-name="Trazado 107127" d="M362.5,431.29v3.941a1.26,1.26,0,0,1-1.259,1.261H357.3a1.261,1.261,0,0,1-1.261-1.261V431.29a1.26,1.26,0,0,1,1.261-1.259h3.941A1.26,1.26,0,0,1,362.5,431.29Z" transform="translate(-345.678 -409.93)" fill="#2c733f"/>
                                  <path id="Trazado_107128" data-name="Trazado 107128" d="M294.76,431.29v3.941a1.261,1.261,0,0,1-1.261,1.261h-3.941a1.262,1.262,0,0,1-1.261-1.261V431.29a1.261,1.261,0,0,1,1.261-1.259H293.5A1.26,1.26,0,0,1,294.76,431.29Z" transform="translate(-288.297 -409.93)" fill="#2c733f"/>
                                </g>
                                <path id="Trazado_107129" data-name="Trazado 107129" d="M431.058,367.841v12.236a2.15,2.15,0,0,1-2.15,2.151h-2.162a2.15,2.15,0,0,1-2.15-2.151V367.841a1.873,1.873,0,0,1,1.873-1.873h2.716A1.872,1.872,0,0,1,431.058,367.841Z" transform="translate(-359.188 -309.992)" fill="#ee8700"/>
                                <g id="Grupo_70211" data-name="Grupo 70211" transform="translate(44.561 45.673)">
                                  <path id="Trazado_107130" data-name="Trazado 107130" d="M362.5,367.23V368.4a1.26,1.26,0,0,1-1.259,1.261H357.3a1.261,1.261,0,0,1-1.261-1.261V367.23a1.261,1.261,0,0,1,1.261-1.261h3.941A1.26,1.26,0,0,1,362.5,367.23Z" transform="translate(-345.678 -355.666)" fill="#317f46"/>
                                  <path id="Trazado_107131" data-name="Trazado 107131" d="M294.76,367.23V368.4a1.261,1.261,0,0,1-1.261,1.261h-3.941A1.262,1.262,0,0,1,288.3,368.4V367.23a1.262,1.262,0,0,1,1.261-1.261H293.5A1.261,1.261,0,0,1,294.76,367.23Z" transform="translate(-288.297 -355.666)" fill="#317f46"/>
                                  <path id="Trazado_107132" data-name="Trazado 107132" d="M362.5,299.869v1.172a1.26,1.26,0,0,1-1.259,1.261H357.3a1.261,1.261,0,0,1-1.261-1.261v-1.172a1.261,1.261,0,0,1,1.261-1.261h3.941A1.26,1.26,0,0,1,362.5,299.869Z" transform="translate(-345.678 -298.608)" fill="#317f46"/>
                                </g>
                                <path id="Trazado_107133" data-name="Trazado 107133" d="M431.058,299.869v1.172A1.261,1.261,0,0,1,429.8,302.3h-3.94a1.261,1.261,0,0,1-1.261-1.261v-1.172a1.261,1.261,0,0,1,1.261-1.261h3.94A1.261,1.261,0,0,1,431.058,299.869Z" transform="translate(-359.188 -252.935)" fill="#ff9811"/>
                                <g id="Grupo_70212" data-name="Grupo 70212" transform="translate(44.561 45.673)">
                                  <path id="Trazado_107134" data-name="Trazado 107134" d="M294.76,299.869v1.172A1.261,1.261,0,0,1,293.5,302.3h-3.941a1.262,1.262,0,0,1-1.261-1.261v-1.172a1.262,1.262,0,0,1,1.261-1.261H293.5A1.261,1.261,0,0,1,294.76,299.869Z" transform="translate(-288.297 -298.608)" fill="#317f46"/>
                                  <path id="Trazado_107135" data-name="Trazado 107135" d="M362.5,431.29v1.173a1.26,1.26,0,0,1-1.259,1.261H357.3a1.261,1.261,0,0,1-1.261-1.261V431.29a1.26,1.26,0,0,1,1.261-1.259h3.941A1.26,1.26,0,0,1,362.5,431.29Z" transform="translate(-345.678 -409.93)" fill="#317f46"/>
                                  <path id="Trazado_107136" data-name="Trazado 107136" d="M294.76,431.29v1.173a1.261,1.261,0,0,1-1.261,1.261h-3.941a1.262,1.262,0,0,1-1.261-1.261V431.29a1.261,1.261,0,0,1,1.261-1.259H293.5A1.26,1.26,0,0,1,294.76,431.29Z" transform="translate(-288.297 -409.93)" fill="#317f46"/>
                                </g>
                                <path id="Trazado_107137" data-name="Trazado 107137" d="M431.058,367.841v9.468a2.15,2.15,0,0,1-2.15,2.151h-2.162a2.15,2.15,0,0,1-2.15-2.151v-9.468a1.873,1.873,0,0,1,1.873-1.873h2.716A1.872,1.872,0,0,1,431.058,367.841Z" transform="translate(-359.188 -309.992)" fill="#ff9811"/>
                                <path id="Trazado_107138" data-name="Trazado 107138" d="M346.431,22.2h-7.476a2.294,2.294,0,0,1-2.294-2.294v-7.98a5.959,5.959,0,0,1,1.768,1.3l3.2,3.417,3.656,3.827A5.907,5.907,0,0,1,346.431,22.2Z" transform="translate(-284.703 -10.1)" fill="#ffb655"/>
                                <path id="Trazado_107139" data-name="Trazado 107139" d="M93.2,464.573a2.93,2.93,0,0,1-2.922,2.922h-17.9a2.922,2.922,0,0,1,0-5.843h17.9A2.93,2.93,0,0,1,93.2,464.573Z" transform="translate(-58.367 -391.04)" fill="#aa6100"/>
                                <path id="Trazado_107140" data-name="Trazado 107140" d="M93.2,426.368a2.93,2.93,0,0,1-2.922,2.922h-17.9a2.922,2.922,0,0,1,0-5.843h17.9A2.93,2.93,0,0,1,93.2,426.368Z" transform="translate(-58.367 -358.679)" fill="#cc7400"/>
                                <path id="Trazado_107141" data-name="Trazado 107141" d="M93.2,388.164a2.93,2.93,0,0,1-2.922,2.922h-17.9a2.922,2.922,0,0,1,0-5.843h17.9A2.93,2.93,0,0,1,93.2,388.164Z" transform="translate(-58.367 -326.318)" fill="#ee8700"/>
                                <path id="Trazado_107142" data-name="Trazado 107142" d="M93.2,349.958a2.93,2.93,0,0,1-2.922,2.922h-17.9a2.93,2.93,0,0,1-2.922-2.922,2.93,2.93,0,0,1,2.922-2.922h17.9A2.931,2.931,0,0,1,93.2,349.958Z" transform="translate(-58.367 -293.956)" fill="#ff9811"/>
                                <path id="Trazado_107143" data-name="Trazado 107143" d="M90.276,314.677h-17.9a2.93,2.93,0,0,1-2.922-2.922h0a2.93,2.93,0,0,1,2.922-2.922h17.9a2.93,2.93,0,0,1,2.922,2.922h0A2.93,2.93,0,0,1,90.276,314.677Z" transform="translate(-58.367 -261.597)" fill="#ffa733"/>
                                <path id="Trazado_107144" data-name="Trazado 107144" d="M31.391,386.731a9.506,9.506,0,0,0-9.907-9.1H17.759a9.519,9.519,0,0,0,.814,19.021h2.911v0c.266.011.533.013.8,0a9.671,9.671,0,0,0,1.768-.241,9.52,9.52,0,0,0,7.337-8.924v-.011C31.4,387.226,31.4,386.98,31.391,386.731Z" transform="translate(-6.839 -319.861)" fill="#cc7400"/>
                                <path id="Trazado_107145" data-name="Trazado 107145" d="M76.233,388.857v.011a9.519,9.519,0,0,1-7.337,8.924,9.523,9.523,0,0,1-7.327-8.861c0-.022,0-.041,0-.063v-.011a9.523,9.523,0,0,1,7.335-9.6,9.522,9.522,0,0,1,7.33,8.862C76.243,388.366,76.243,388.612,76.233,388.857Z" transform="translate(-51.679 -321.247)" fill="#ee8700"/>
                                <path id="Trazado_107146" data-name="Trazado 107146" d="M69.108,25.6H63.463V14.489a7.215,7.215,0,0,0-1.994-4.972L57.821,5.7c-3.1-3.189-3.486-4.09-5.33-4.985A7.213,7.213,0,0,0,49.368,0H22.725a7.2,7.2,0,0,0-7.2,7.2v38.81H14.01a4.149,4.149,0,0,0-2.946,7.074A4.137,4.137,0,0,0,9.858,56a4.259,4.259,0,0,0,.082.821,10.466,10.466,0,0,0,1.5,20.869l20.474-.008a4.149,4.149,0,0,0,2.946-7.074,4.13,4.13,0,0,0,1.2-2.716h1.558v.832A9.6,9.6,0,0,0,47.2,78.312h21.91a9.6,9.6,0,0,0,9.585-9.585V35.182A9.6,9.6,0,0,0,69.108,25.6ZM53.189,4.35c4.832,5.107,5.92,6.259,6.125,6.476,0,0,0,0,0,0h0a.033.033,0,0,0,.006.008l0,0a.026.026,0,0,0,.009.009.021.021,0,0,1,0,.006s0,0,0,0,0,0,0,0,0,0,.006.006H53.189V4.35ZM14.01,48.467h17.9a1.691,1.691,0,1,1,0,3.383H14.01a1.691,1.691,0,1,1,0-3.383Zm0,5.843h17.9a1.691,1.691,0,1,1,0,3.383H19.546a10.019,10.019,0,0,0-1.558-.563,10.371,10.371,0,0,0-2.46-.361c-.241-.006-.483,0-.724.006h-2.3A1.663,1.663,0,0,1,12.319,56,1.7,1.7,0,0,1,14.01,54.31ZM33.6,61.845a1.694,1.694,0,0,1-1.692,1.691H25.025a10.348,10.348,0,0,0-2.088-3.383H31.91A1.7,1.7,0,0,1,33.6,61.845ZM8.025,59.637a10.615,10.615,0,0,0-1.938,2.485H4.654A8.124,8.124,0,0,1,8.025,59.637ZM3.346,64.429H5.137A10.62,10.62,0,0,0,4.8,66.273H2.909A8.084,8.084,0,0,1,3.346,64.429Zm.2,6.1a8.07,8.07,0,0,1-.578-1.947H4.845a9.283,9.283,0,0,0,.44,1.947Zm1.535,2.307c.755,0,1.193,0,1.3,0a10.388,10.388,0,0,0,1.655,2A8.127,8.127,0,0,1,5.079,72.833Zm10.5,2.554a8.161,8.161,0,1,1,5.17-14.164A8.154,8.154,0,0,1,15.576,75.387Zm16.334-.163H21.98a10.538,10.538,0,0,0,2.643-3.383H31.91a1.692,1.692,0,1,1,0,3.383Zm1.678-7.329A1.692,1.692,0,0,1,31.91,69.38H25.473A10.569,10.569,0,0,0,25.622,66H31.91A1.693,1.693,0,0,1,33.587,67.895Zm4.026-2.461H35.393a4.081,4.081,0,0,0-.537-.667,4.143,4.143,0,0,0,0-5.843,4.143,4.143,0,0,0,0-5.843,4.155,4.155,0,0,0-2.946-7.074H17.988V7.2A4.742,4.742,0,0,1,22.725,2.46h28V12.1a1.23,1.23,0,0,0,1.23,1.23h8.9c.257,1,.1.667.146,12.27H47.2a9.6,9.6,0,0,0-9.585,9.585V65.434Zm38.773,3.292a7.286,7.286,0,0,1-7.278,7.278H47.2a7.287,7.287,0,0,1-7.278-7.278V35.182A7.287,7.287,0,0,1,47.2,27.9h21.91a7.286,7.286,0,0,1,7.278,7.278V68.727Z" fill="#fff"/>
                                <path id="Trazado_107147" data-name="Trazado 107147" d="M288.813,209.2h-4.184a1.57,1.57,0,0,1-1.565-1.565V203.41a1.57,1.57,0,0,1,1.565-1.565h21.747a1.567,1.567,0,0,1,1.565,1.565v4.221a1.567,1.567,0,0,1-1.565,1.565H293.786a1.153,1.153,0,0,0,0,2.307h12.589a3.876,3.876,0,0,0,3.872-3.872V203.41a3.876,3.876,0,0,0-3.872-3.872H284.629a3.872,3.872,0,0,0-3.872,3.872v4.221a3.872,3.872,0,0,0,3.872,3.872h4.184a1.153,1.153,0,0,0,0-2.307Z" transform="translate(-237.349 -169.018)" fill="#fff"/>
                                <path id="Trazado_107148" data-name="Trazado 107148" d="M283.171,367.2h3.941a2.416,2.416,0,0,0,2.414-2.414v-3.94a2.416,2.416,0,0,0-2.414-2.414h-3.941a2.417,2.417,0,0,0-2.414,2.414v3.94A2.417,2.417,0,0,0,283.171,367.2Zm-.108-6.354a.108.108,0,0,1,.108-.108h3.941a.108.108,0,0,1,.108.108v3.94a.108.108,0,0,1-.108.108h-3.941a.108.108,0,0,1-.108-.108Z" transform="translate(-237.349 -303.607)" fill="#fff"/>
                                <path id="Trazado_107149" data-name="Trazado 107149" d="M423.41,291.068h-3.94a2.416,2.416,0,0,0-2.414,2.414v3.94a2.416,2.416,0,0,0,2.414,2.414h3.94a2.416,2.416,0,0,0,2.414-2.414v-3.94A2.416,2.416,0,0,0,423.41,291.068Zm.108,6.354a.107.107,0,0,1-.108.108h-3.94a.108.108,0,0,1-.108-.108c.048-3.9-.1-4.047.108-4.047h3.94a.107.107,0,0,1,.108.108Z" transform="translate(-352.801 -246.548)" fill="#fff"/>
                                <path id="Trazado_107150" data-name="Trazado 107150" d="M283.171,299.836h3.941a2.416,2.416,0,0,0,2.414-2.414v-3.94a2.416,2.416,0,0,0-2.414-2.414h-3.941a2.417,2.417,0,0,0-2.414,2.414v3.94A2.417,2.417,0,0,0,283.171,299.836Zm-.108-6.354a.108.108,0,0,1,.108-.108h3.941a.108.108,0,0,1,.108.108v3.94a.108.108,0,0,1-.108.108h-3.941a.108.108,0,0,1-.108-.108Z" transform="translate(-237.349 -246.549)" fill="#fff"/>
                                <path id="Trazado_107151" data-name="Trazado 107151" d="M288.9,423.3a2.413,2.413,0,0,0-1.807-.813h-3.941a2.407,2.407,0,0,0-1.805.813,3.3,3.3,0,0,0-.609,2.46v3.08a2.417,2.417,0,0,0,2.414,2.414h3.941a2.416,2.416,0,0,0,2.414-2.414v-3.08A3.326,3.326,0,0,0,288.9,423.3Zm-1.807,5.648c-3.894-.048-4.049.1-4.049-.108,0-4.172-.046-4.047.108-4.047h3.941c.189,0,.072.263.108.967C287.2,425.765,287.3,428.953,287.09,428.953Z" transform="translate(-237.327 -357.87)" fill="#fff"/>
                                <path id="Trazado_107152" data-name="Trazado 107152" d="M422.8,358.428h-2.716a3.03,3.03,0,0,0-3.026,3.026V373.69a3.308,3.308,0,0,0,3.3,3.3h2.162a3.307,3.307,0,0,0,3.3-3.3V361.454A3.029,3.029,0,0,0,422.8,358.428Zm.72,15.262a1,1,0,0,1-1,1h-2.162a1,1,0,0,1-1-1V361.454a.721.721,0,0,1,.72-.72H422.8a.721.721,0,0,1,.72.72V373.69Z" transform="translate(-352.8 -303.606)" fill="#fff"/>
                                <path id="Trazado_107153" data-name="Trazado 107153" d="M167.592,175.2h0c-1.406-.517-2.422-.89-2.422-2.193,0-1.187.789-1.789,2.344-1.789,1.651,0,2.1.727,2.677.727a1.108,1.108,0,0,0,.983-1.136c0-.961-1.567-1.437-2.968-1.563v-.866a1.093,1.093,0,0,0-2.186,0v1a3.574,3.574,0,0,0-2.968,3.739c0,2.684,1.976,3.427,3.564,4.024,1.555.584,2.783,1.046,2.783,2.821,0,1.466-.814,2.21-2.42,2.21-2.351,0-2.373-1.587-3.269-1.587a1.153,1.153,0,0,0-1,1.136c0,.909,1.353,2.1,3.313,2.413v.837a1.093,1.093,0,0,0,2.186,0v-.86a3.948,3.948,0,0,0,3.313-4.265C171.518,176.644,169.341,175.844,167.592,175.2Z" transform="translate(-137.355 -141.701)" fill="#0075a4"/>
                                <path id="Trazado_107154" data-name="Trazado 107154" d="M354.833,422.491h-3.941a2.413,2.413,0,0,0-1.807.813,3.312,3.312,0,0,0-.607,2.46v3.08a2.416,2.416,0,0,0,2.414,2.414h3.941a2.416,2.416,0,0,0,2.413-2.414V424.9a2.417,2.417,0,0,0-2.413-2.413Zm0,6.462c-3.894-.048-4.049.1-4.049-.108V424.9a.108.108,0,0,1,.108-.106h3.941a.106.106,0,0,1,.106.106C354.893,428.807,355.038,428.953,354.833,428.953Z" transform="translate(-294.709 -357.87)" fill="#fff"/>
                                <path id="Trazado_107155" data-name="Trazado 107155" d="M354.855,291.068h-3.941a2.416,2.416,0,0,0-2.414,2.414v3.94a2.416,2.416,0,0,0,2.414,2.414h3.941a2.377,2.377,0,0,0,.878-.166,2.417,2.417,0,0,0,1.535-2.248v-3.94A2.417,2.417,0,0,0,354.855,291.068Zm.106,6.354a.107.107,0,0,1-.106.108h-3.941a.108.108,0,0,1-.108-.108v-3.94c0-.208.143-.061,4.049-.108a.107.107,0,0,1,.106.108v3.94Z" transform="translate(-294.73 -246.548)" fill="#fff"/>
                                <path id="Trazado_107156" data-name="Trazado 107156" d="M355.733,358.594a2.378,2.378,0,0,0-.878-.166h-3.941a2.416,2.416,0,0,0-2.414,2.414v3.94a2.416,2.416,0,0,0,2.414,2.414h3.941a2.416,2.416,0,0,0,2.413-2.414v-3.94A2.417,2.417,0,0,0,355.733,358.594Zm-.772,6.188a.107.107,0,0,1-.106.108h-3.941a.108.108,0,0,1-.108-.108v-3.94a.108.108,0,0,1,.108-.108h3.941a.107.107,0,0,1,.106.108Z" transform="translate(-294.73 -303.606)" fill="#fff"/>
                                <path id="Trazado_107157" data-name="Trazado 107157" d="M321.2,105.349h2.9a1.153,1.153,0,1,0,0-2.307h-2.9a1.153,1.153,0,1,0,0,2.307Z" transform="translate(-270.63 -87.281)" fill="#0075a4"/>
                                <path id="Trazado_107158" data-name="Trazado 107158" d="M157.323,105.349h20.452a1.153,1.153,0,1,0,0-2.307H157.323a1.153,1.153,0,1,0,0,2.307Z" transform="translate(-131.818 -87.281)" fill="#0075a4"/>
                                <path id="Trazado_107159" data-name="Trazado 107159" d="M160.989,142.779a1.153,1.153,0,1,0,0-2.307h-3.666a1.153,1.153,0,1,0,0,2.307Z" transform="translate(-131.818 -118.986)" fill="#0075a4"/>
                                <path id="Trazado_107160" data-name="Trazado 107160" d="M232.289,141.625a1.154,1.154,0,0,0-1.153-1.153H211.452a1.153,1.153,0,1,0,0,2.307h19.683A1.154,1.154,0,0,0,232.289,141.625Z" transform="translate(-177.668 -118.986)" fill="#0075a4"/>
                                <path id="Trazado_107161" data-name="Trazado 107161" d="M79.873,402.29c0-.29.107-.373.207-.428a1.982,1.982,0,0,1,1.672.113,1.319,1.319,0,0,0,.624.19c1.138,0,2.037-2.114-.68-2.581v-.073a1.169,1.169,0,1,0-2.337,0v.222a2.622,2.622,0,0,0-1.783,2.626c0,1.967,1.429,2.5,2.473,2.9,1,.374,1.339.538,1.339,1.215,0,.423-.114.815-.941.815-1.206,0-1.061-.953-1.963-.953a1.2,1.2,0,0,0-1.114,1.195c0,.8.831,1.557,1.99,1.865v.087a1.169,1.169,0,0,0,2.337,0v-.118a2.889,2.889,0,0,0,1.989-2.96C83.686,402.9,79.873,403.422,79.873,402.29Z" transform="translate(-65.07 -337.415)" fill="#0075a4"/>
                              </g>
                            </g>
                          </g>
                        </g>
                      </g>
                    </g>
                  </g>
                </g>
              </g>
            </g>
          </g>
        </g>
      </g>
    </g>
  </g>
</svg>
