<svg xmlns="http://www.w3.org/2000/svg" width="150" height="150" viewBox="0 0 150 150">
  <g id="Grupo_1052718" data-name="Grupo 1052718" transform="translate(6894 7710)">
    <rect id="Rectángulo_356250" data-name="Rectángulo 356250" width="150" height="150" transform="translate(-6894 -7710)" fill="none"/>
    <g id="Grupo_1043210" data-name="Grupo 1043210" transform="translate(-6878 -7694)">
      <path id="Trazado_773520" data-name="Trazado 773520" d="M58.933,0A58.933,58.933,0,1,1,0,58.933,58.933,58.933,0,0,1,58.933,0Z" transform="translate(0 0)" fill="#fff"/>
      <g id="XMLID_1031_" transform="translate(0.001 0)">
        <g id="XMLID_1564_" transform="translate(17.354 17.354)">
          <g id="XMLID_1185_">
            <ellipse id="XMLID_1207_" cx="41.787" cy="41.787" rx="41.787" ry="41.787" fill="#9b1f36"/>
            <g id="XMLID_1187_" transform="translate(36.142 36.142)">
              <ellipse id="XMLID_1205_" cx="5.645" cy="5.645" rx="5.645" ry="5.645" fill="#9b1f36"/>
            </g>
          </g>
        </g>
        <g id="XMLID_971_">
          <g id="XMLID_977_">
            <path id="XMLID_1030_" d="M105.66,22.625h3.655a2.309,2.309,0,1,0,0-4.617h-8.773a2.309,2.309,0,0,0-2.309,2.309v8.773a2.309,2.309,0,1,0,4.617,0v-2.54A54.523,54.523,0,1,1,59.14,4.617a55.345,55.345,0,0,1,6.652.4A2.309,2.309,0,0,0,66.349.435,59.98,59.98,0,0,0,59.14,0,59.14,59.14,0,0,0,17.322,100.959,59.14,59.14,0,0,0,105.66,22.625Z" fill="#9b1f36"/>
            <path id="XMLID_1029_" d="M75.174,85a2.309,2.309,0,0,0-3.186.716,44.083,44.083,0,1,0,13.8-13.77,2.309,2.309,0,0,0,2.462,3.906,39.482,39.482,0,1,1-6.892,61.34,39.732,39.732,0,0,1-5.467-49.006A2.309,2.309,0,0,0,75.174,85Z" transform="translate(-50.131 -50.132)" fill="#fff"/>
            <path id="XMLID_1028_" d="M378.478,250.947h2.847a2.309,2.309,0,0,0,0-4.617h-2.847a2.309,2.309,0,0,0,0,4.617Z" transform="translate(-289.325 -189.461)" fill="#fff"/>
            <path id="XMLID_1004_" d="M103.835,248.315a2.309,2.309,0,0,0,2.309,2.309h2.847a2.309,2.309,0,0,0,0-4.617h-2.847A2.309,2.309,0,0,0,103.835,248.315Z" transform="translate(-79.863 -189.212)" fill="#fff"/>
            <path id="XMLID_1001_" d="M250.947,108.991v-2.847a2.309,2.309,0,0,0-4.617,0v2.847a2.309,2.309,0,0,0,4.617,0Z" transform="translate(-189.461 -79.863)" fill="#fff"/>
            <path id="XMLID_1415_" d="M246.006,378.478v2.847a2.309,2.309,0,0,0,4.617,0v-2.847a2.309,2.309,0,0,0-4.617,0Z" transform="translate(-189.212 -289.325)" fill="#fff"/>
            <path id="XMLID_996_" d="M192.914,163.12a2.309,2.309,0,0,0-3.265,3.265l7.824,7.824a7.953,7.953,0,1,0,14.026,0l15.787-15.787a2.309,2.309,0,1,0-3.265-3.265l-15.787,15.787a7.936,7.936,0,0,0-7.5,0Zm14.908,14.837a3.336,3.336,0,1,1-3.336-3.336A3.34,3.34,0,0,1,207.821,177.957Z" transform="translate(-145.345 -118.817)" fill="#fff"/>
            <path id="XMLID_980_" d="M122.119,122.119a2.307,2.307,0,1,0-1.632.676A2.318,2.318,0,0,0,122.119,122.119Z" transform="translate(-90.895 -90.895)" fill="#530b18"/>
            <path id="XMLID_979_" d="M317.747,14.5a2.31,2.31,0,1,0-1.632-.676A2.318,2.318,0,0,0,317.747,14.5Z" transform="translate(-242.614 -7.598)" fill="#530b18"/>
          </g>
        </g>
      </g>
    </g>
  </g>
</svg>
