<svg xmlns="http://www.w3.org/2000/svg" width="85" height="85" viewBox="0 0 85 85">
  <g id="Grupo_1052682" data-name="Grupo 1052682" transform="translate(3079 8104)">
    <g id="Grupo_1052826" data-name="Grupo 1052826">
      <g id="Grupo_1052825" data-name="Grupo 1052825">
        <g id="Grupo_1052801" data-name="Grupo 1052801">
          <g id="Grupo_1052800" data-name="Grupo 1052800">
            <g id="Grupo_1052799" data-name="Grupo 1052799">
              <g id="Elipse_8072" data-name="Elipse 8072" transform="translate(-3079 -8104)" fill="#fff" stroke="#25ced1" stroke-width="4">
                <circle cx="42.5" cy="42.5" r="42.5" stroke="none"/>
                <circle cx="42.5" cy="42.5" r="40.5" fill="none"/>
              </g>
            </g>
          </g>
        </g>
      </g>
    </g>
    <g id="Grupo_1043288" data-name="Grupo 1043288" transform="translate(-3068 -8087)">
      <g id="Grupo_70451" data-name="Grupo 70451">
        <g id="Grupo_70443" data-name="Grupo 70443">
          <g id="Grupo_70393" data-name="Grupo 70393">
            <g id="Grupo_70381" data-name="Grupo 70381" transform="translate(11.692 21.266)">
              <g id="Grupo_70374" data-name="Grupo 70374">
                <path id="Trazado_107284" data-name="Trazado 107284" d="M895.343,269.5v-2.126l-18.96-10.953v2.126l4.5,2.6v15.179l-4.5-2.6v2.126l18.96,10.953V285.74l-2.311-2.4-10.308-5.958V262.205Z" transform="translate(-876.383 -256.418)" fill="#9cafab"/>
              </g>
              <g id="Grupo_70375" data-name="Grupo 70375" transform="translate(18.96 28.594)">
                <path id="Trazado_107285" data-name="Trazado 107285" d="M924.374,329.523l1.263-.728v1.063l-1.263.728Z" transform="translate(-924.374 -328.796)" fill="#5b6664"/>
              </g>
              <g id="Grupo_70376" data-name="Grupo 70376" transform="translate(16.649 26.196)">
                <path id="Trazado_107286" data-name="Trazado 107286" d="M918.526,323.456l1.263-.728,2.311,2.4-1.262.728Z" transform="translate(-918.526 -322.728)" fill="#b1c7c2"/>
              </g>
              <g id="Grupo_70377" data-name="Grupo 70377" transform="translate(6.341 20.238)">
                <path id="Trazado_107287" data-name="Trazado 107287" d="M893.695,307.646l-1.263.728,10.308,5.958L904,313.6Z" transform="translate(-892.432 -307.646)" fill="#bdd4cf"/>
              </g>
              <g id="Grupo_70378" data-name="Grupo 70378" transform="translate(6.341 13.824)">
                <path id="Trazado_107288" data-name="Trazado 107288" d="M892.433,291.41l1.262.729v5.686l-1.263.728Z" transform="translate(-892.432 -291.41)" fill="#5b6664"/>
              </g>
              <g id="Grupo_70379" data-name="Grupo 70379" transform="translate(0 16.578)">
                <path id="Trazado_107289" data-name="Trazado 107289" d="M877.645,298.38l-1.262.728,4.5,2.6v-1.457Z" transform="translate(-876.383 -298.38)" fill="#bdd4cf"/>
              </g>
              <g id="Grupo_70380" data-name="Grupo 70380" transform="translate(18.915 10.147)">
                <path id="Trazado_107290" data-name="Trazado 107290" d="M924.375,285.155l1.262-.728V282.3l-1.262.728Z" transform="translate(-924.33 -282.223)" fill="#fff"/>
                <path id="Trazado_107291" data-name="Trazado 107291" d="M924.261,285.114v-2.231l1.353-.779v2.23Zm.09-2.178v2.022l1.172-.676V282.26Z" transform="translate(-924.261 -282.104)" fill="#231f20"/>
              </g>
            </g>
            <g id="Grupo_70389" data-name="Grupo 70389" transform="translate(37.198 6.493)">
              <g id="Grupo_70382" data-name="Grupo 70382" transform="translate(0.09)">
                <path id="Trazado_107292" data-name="Trazado 107292" d="M960.135,232.1v-2.126l-18.96-10.953v2.126l4.5,2.6v15.179l-4.5-2.6v2.126l18.96,10.953v-1.063l-2.311-2.4-10.308-5.958V224.812Z" transform="translate(-941.175 -219.025)" fill="#9cafab"/>
              </g>
              <g id="Grupo_70383" data-name="Grupo 70383" transform="translate(19.05 28.594)">
                <path id="Trazado_107293" data-name="Trazado 107293" d="M989.167,292.131l1.262-.728v1.063l-1.262.728Z" transform="translate(-989.167 -291.403)" fill="#5b6664"/>
              </g>
              <g id="Grupo_70384" data-name="Grupo 70384" transform="translate(16.74 26.196)">
                <path id="Trazado_107294" data-name="Trazado 107294" d="M983.318,286.063l1.262-.728,2.311,2.4-1.262.728Z" transform="translate(-983.318 -285.335)" fill="#b1c7c2"/>
              </g>
              <g id="Grupo_70385" data-name="Grupo 70385" transform="translate(6.431 20.238)">
                <path id="Trazado_107295" data-name="Trazado 107295" d="M958.487,270.253l-1.262.728,10.308,5.958,1.262-.728Z" transform="translate(-957.225 -270.253)" fill="#bdd4cf"/>
              </g>
              <g id="Grupo_70386" data-name="Grupo 70386" transform="translate(6.386 13.746)">
                <path id="Trazado_107296" data-name="Trazado 107296" d="M957.225,254.017l1.263.729v5.686l-1.262.728Z" transform="translate(-957.18 -253.939)" fill="#fff"/>
                <path id="Trazado_107297" data-name="Trazado 107297" d="M957.111,261.118v-7.3l1.353.781v5.738Zm.09-7.142v6.986l1.172-.676v-5.634Z" transform="translate(-957.111 -253.819)" fill="#231f20"/>
              </g>
              <g id="Grupo_70387" data-name="Grupo 70387" transform="translate(0 16.526)">
                <path id="Trazado_107298" data-name="Trazado 107298" d="M942.438,260.987l-1.263.728,4.5,2.6v-1.457Z" transform="translate(-941.085 -260.935)" fill="#fff"/>
                <path id="Trazado_107299" data-name="Trazado 107299" d="M945.581,264.312l-4.635-2.676,1.353-.779,3.282,1.894Zm-4.454-2.676,4.364,2.519V262.8L942.3,260.96Z" transform="translate(-940.946 -260.856)" fill="#231f20"/>
              </g>
              <g id="Grupo_70388" data-name="Grupo 70388" transform="translate(19.05 10.225)">
                <path id="Trazado_107300" data-name="Trazado 107300" d="M989.167,247.762l1.262-.728v-2.126l-1.262.728Z" transform="translate(-989.167 -244.908)" fill="#5b6664"/>
              </g>
            </g>
            <g id="Grupo_70390" data-name="Grupo 70390" transform="translate(21.862 12.622)">
              <path id="Trazado_107301" data-name="Trazado 107301" d="M941.568,236.446l-39.441,22.772v-1.906l39.441-22.772Z" transform="translate(-902.127 -234.54)" fill="#b3a584"/>
            </g>
            <g id="Grupo_70391" data-name="Grupo 70391">
              <path id="Trazado_107302" data-name="Trazado 107302" d="M908.091,215.212,868.65,237.984l-21.862-12.622,39.441-22.772Z" transform="translate(-846.788 -202.59)" fill="#f3e8cc"/>
            </g>
            <g id="Grupo_70392" data-name="Grupo 70392" transform="translate(0 22.772)">
              <path id="Trazado_107303" data-name="Trazado 107303" d="M846.788,260.231v1.906L868.65,274.76v-1.906Z" transform="translate(-846.788 -260.231)" fill="#d4c398"/>
            </g>
          </g>
          <g id="Grupo_70394" data-name="Grupo 70394" transform="translate(4.23 2.442)">
            <path id="Trazado_107304" data-name="Trazado 107304" d="M910.338,221.394l-30.981,17.888-21.862-12.622,30.982-17.888Z" transform="translate(-857.495 -208.771)" fill="#0075a4"/>
          </g>
          <g id="Grupo_70395" data-name="Grupo 70395" transform="translate(26.092 15.065)">
            <path id="Trazado_107305" data-name="Trazado 107305" d="M912.833,258.609V271l30.982-17.888V240.722Z" transform="translate(-912.833 -240.722)" fill="#005171"/>
          </g>
          <g id="Grupo_70402" data-name="Grupo 70402" transform="translate(18.806 11.664)">
            <g id="Grupo_70398" data-name="Grupo 70398">
              <g id="Grupo_70396" data-name="Grupo 70396" transform="translate(0 6.166)">
                <path id="Trazado_107306" data-name="Trazado 107306" d="M905.522,250.952l-5.616,3.242-5.4-3.118,5.616-3.242Z" transform="translate(-894.46 -247.789)" fill="#0075a4"/>
                <path id="Trazado_107307" data-name="Trazado 107307" d="M899.837,254.171a.047.047,0,0,1-.023-.006l-5.4-3.118a.045.045,0,0,1,0-.079l5.616-3.242a.046.046,0,0,1,.045,0l5.4,3.118a.046.046,0,0,1,.022.039.045.045,0,0,1-.022.039l-5.616,3.243A.045.045,0,0,1,899.837,254.171Zm-5.31-3.163,5.31,3.066,5.526-3.191-5.31-3.066Z" transform="translate(-894.391 -247.72)" fill="#fff"/>
              </g>
              <g id="Grupo_70397" data-name="Grupo 70397" transform="translate(5.616)">
                <path id="Trazado_107308" data-name="Trazado 107308" d="M914.122,241.51l7.979-7.725-2.7-1.559-10.679,6.166Z" transform="translate(-908.676 -232.182)" fill="#0075a4"/>
                <path id="Trazado_107309" data-name="Trazado 107309" d="M914.052,241.487a.048.048,0,0,1-.023-.006l-5.4-3.118a.045.045,0,0,1,0-.078l10.679-6.166a.046.046,0,0,1,.045,0l2.7,1.559a.045.045,0,0,1,.009.072l-7.979,7.725A.044.044,0,0,1,914.052,241.487Zm-5.31-3.163,5.3,3.062,7.911-7.659-2.625-1.516Z" transform="translate(-908.607 -232.113)" fill="#fff"/>
              </g>
            </g>
            <g id="Grupo_70401" data-name="Grupo 70401" transform="translate(8.708 3.468)">
              <g id="Grupo_70399" data-name="Grupo 70399" transform="translate(7.979)">
                <path id="Trazado_107310" data-name="Trazado 107310" d="M936.743,244.248l5.616-3.242,5.4,3.118-5.616,3.242Z" transform="translate(-936.698 -240.961)" fill="#0075a4"/>
                <path id="Trazado_107311" data-name="Trazado 107311" d="M942.075,247.343a.046.046,0,0,1-.022-.006l-5.4-3.118a.046.046,0,0,1,0-.079l5.616-3.242a.046.046,0,0,1,.045,0l5.4,3.118a.045.045,0,0,1,0,.078l-5.616,3.243A.046.046,0,0,1,942.075,247.343Zm-5.31-3.163,5.31,3.066,5.526-3.191-5.31-3.066Z" transform="translate(-936.629 -240.892)" fill="#fff"/>
              </g>
              <g id="Grupo_70400" data-name="Grupo 70400" transform="translate(0 3.242)">
                <path id="Trazado_107312" data-name="Trazado 107312" d="M924.526,249.213l-7.979,7.725,2.7,1.559,10.679-6.166Z" transform="translate(-916.502 -249.168)" fill="#0075a4"/>
                <path id="Trazado_107313" data-name="Trazado 107313" d="M919.178,258.474a.047.047,0,0,1-.023-.006l-2.7-1.559a.045.045,0,0,1-.009-.072l7.979-7.725a.047.047,0,0,1,.054-.007l5.4,3.119a.045.045,0,0,1,0,.078L919.2,258.468A.045.045,0,0,1,919.178,258.474Zm-2.626-1.614,2.626,1.517,10.589-6.114-5.3-3.062Z" transform="translate(-916.432 -249.1)" fill="#fff"/>
              </g>
            </g>
          </g>
          <g id="Grupo_70442" data-name="Grupo 70442" transform="translate(31.673 2.159)">
            <g id="Grupo_70403" data-name="Grupo 70403" transform="translate(0 0.692)">
              <path id="Trazado_107314" data-name="Trazado 107314" d="M947.835,222.459,926.96,210.407v-.6l20.875,12.053Z" transform="translate(-926.96 -209.808)" fill="#d6973a"/>
            </g>
            <g id="Grupo_70440" data-name="Grupo 70440">
              <g id="Grupo_70404" data-name="Grupo 70404">
                <path id="Trazado_107315" data-name="Trazado 107315" d="M947.835,220.8,926.96,208.747l1.2-.692,20.875,12.052Z" transform="translate(-926.96 -208.055)" fill="#f5b659"/>
              </g>
              <g id="Grupo_70439" data-name="Grupo 70439" transform="translate(1.997 0.835)">
                <g id="Grupo_70405" data-name="Grupo 70405">
                  <path id="Trazado_107316" data-name="Trazado 107316" d="M932.06,210.65a.045.045,0,0,1-.022-.084l.681-.393a.046.046,0,0,1,.062.017.045.045,0,0,1-.016.062l-.681.393A.047.047,0,0,1,932.06,210.65Z" transform="translate(-932.014 -210.167)" fill="#a90d01"/>
                </g>
                <g id="Grupo_70406" data-name="Grupo 70406" transform="translate(0.875 0.312)">
                  <path id="Trazado_107317" data-name="Trazado 107317" d="M934.275,211.246a.045.045,0,0,1-.023-.084l.346-.2a.045.045,0,0,1,.045.079l-.346.2A.045.045,0,0,1,934.275,211.246Z" transform="translate(-934.23 -210.956)" fill="#a90d01"/>
                </g>
                <g id="Grupo_70407" data-name="Grupo 70407" transform="translate(1.415 0.624)">
                  <path id="Trazado_107318" data-name="Trazado 107318" d="M935.642,212.036a.045.045,0,0,1-.023-.085l.346-.2a.044.044,0,0,1,.062.017.046.046,0,0,1-.017.062l-.346.2A.052.052,0,0,1,935.642,212.036Z" transform="translate(-935.597 -211.746)" fill="#a90d01"/>
                </g>
                <g id="Grupo_70408" data-name="Grupo 70408" transform="translate(1.956 0.936)">
                  <path id="Trazado_107319" data-name="Trazado 107319" d="M937.01,212.826a.045.045,0,0,1-.039-.023.046.046,0,0,1,.017-.062l.346-.2a.045.045,0,0,1,.045.079l-.346.2A.046.046,0,0,1,937.01,212.826Z" transform="translate(-936.965 -212.537)" fill="#a90d01"/>
                </g>
                <g id="Grupo_70409" data-name="Grupo 70409" transform="translate(2.496 1.248)">
                  <path id="Trazado_107320" data-name="Trazado 107320" d="M938.378,213.615a.045.045,0,0,1-.022-.084l.346-.2a.045.045,0,0,1,.045.078l-.346.2A.047.047,0,0,1,938.378,213.615Z" transform="translate(-938.332 -213.326)" fill="#a90d01"/>
                </g>
                <g id="Grupo_70410" data-name="Grupo 70410" transform="translate(2.701 1.56)">
                  <path id="Trazado_107321" data-name="Trazado 107321" d="M938.9,214.6a.045.045,0,0,1-.023-.084l.681-.393a.046.046,0,0,1,.062.017.045.045,0,0,1-.017.062l-.681.393A.046.046,0,0,1,938.9,214.6Z" transform="translate(-938.852 -214.115)" fill="#a90d01"/>
                </g>
                <g id="Grupo_70411" data-name="Grupo 70411" transform="translate(3.576 1.872)">
                  <path id="Trazado_107322" data-name="Trazado 107322" d="M941.112,215.194a.045.045,0,0,1-.023-.084l.346-.2a.045.045,0,0,1,.045.079l-.346.2A.047.047,0,0,1,941.112,215.194Z" transform="translate(-941.067 -214.905)" fill="#a90d01"/>
                </g>
                <g id="Grupo_70412" data-name="Grupo 70412" transform="translate(4.117 2.183)">
                  <path id="Trazado_107323" data-name="Trazado 107323" d="M942.48,215.984a.045.045,0,0,1-.023-.085l.346-.2a.045.045,0,1,1,.045.078l-.346.2A.049.049,0,0,1,942.48,215.984Z" transform="translate(-942.435 -215.694)" fill="#a90d01"/>
                </g>
                <g id="Grupo_70413" data-name="Grupo 70413" transform="translate(4.657 2.495)">
                  <path id="Trazado_107324" data-name="Trazado 107324" d="M943.847,216.773a.045.045,0,0,1-.023-.084l.346-.2a.045.045,0,0,1,.045.079l-.346.2A.047.047,0,0,1,943.847,216.773Z" transform="translate(-943.802 -216.483)" fill="#a90d01"/>
                </g>
                <g id="Grupo_70414" data-name="Grupo 70414" transform="translate(5.197 2.807)">
                  <path id="Trazado_107325" data-name="Trazado 107325" d="M945.215,217.563a.045.045,0,0,1-.023-.085l.346-.2a.045.045,0,1,1,.045.078l-.346.2A.042.042,0,0,1,945.215,217.563Z" transform="translate(-945.17 -217.274)" fill="#a90d01"/>
                </g>
                <g id="Grupo_70415" data-name="Grupo 70415" transform="translate(5.403 3.12)">
                  <path id="Trazado_107326" data-name="Trazado 107326" d="M945.735,218.547a.045.045,0,0,1-.022-.084l.681-.393a.046.046,0,0,1,.062.017.046.046,0,0,1-.017.062l-.681.393A.047.047,0,0,1,945.735,218.547Z" transform="translate(-945.69 -218.064)" fill="#a90d01"/>
                </g>
                <g id="Grupo_70416" data-name="Grupo 70416" transform="translate(6.277 3.431)">
                  <path id="Trazado_107327" data-name="Trazado 107327" d="M947.95,219.142a.045.045,0,0,1-.023-.084l.346-.2a.045.045,0,1,1,.046.078l-.346.2A.046.046,0,0,1,947.95,219.142Z" transform="translate(-947.904 -218.853)" fill="#a90d01"/>
                </g>
                <g id="Grupo_70417" data-name="Grupo 70417" transform="translate(6.818 3.743)">
                  <path id="Trazado_107328" data-name="Trazado 107328" d="M949.318,219.932a.045.045,0,0,1-.023-.085l.346-.2a.045.045,0,1,1,.045.078l-.346.2A.052.052,0,0,1,949.318,219.932Z" transform="translate(-949.272 -219.642)" fill="#a90d01"/>
                </g>
                <g id="Grupo_70418" data-name="Grupo 70418" transform="translate(7.358 4.055)">
                  <path id="Trazado_107329" data-name="Trazado 107329" d="M950.685,220.721a.045.045,0,0,1-.022-.084l.346-.2a.046.046,0,0,1,.062.017.045.045,0,0,1-.017.062l-.346.2A.046.046,0,0,1,950.685,220.721Z" transform="translate(-950.64 -220.432)" fill="#a90d01"/>
                </g>
                <g id="Grupo_70419" data-name="Grupo 70419" transform="translate(7.898 4.367)">
                  <path id="Trazado_107330" data-name="Trazado 107330" d="M952.052,221.511a.045.045,0,0,1-.022-.085l.346-.2a.045.045,0,1,1,.045.078l-.346.2A.047.047,0,0,1,952.052,221.511Z" transform="translate(-952.007 -221.221)" fill="#a90d01"/>
                </g>
                <g id="Grupo_70420" data-name="Grupo 70420" transform="translate(8.104 4.679)">
                  <path id="Trazado_107331" data-name="Trazado 107331" d="M952.572,222.493a.045.045,0,0,1-.023-.084l.681-.393a.046.046,0,0,1,.062.017.045.045,0,0,1-.017.062l-.681.393A.045.045,0,0,1,952.572,222.493Z" transform="translate(-952.527 -222.01)" fill="#a90d01"/>
                </g>
                <g id="Grupo_70421" data-name="Grupo 70421" transform="translate(8.979 4.99)">
                  <path id="Trazado_107332" data-name="Trazado 107332" d="M954.788,223.089a.045.045,0,0,1-.023-.084l.346-.2a.045.045,0,0,1,.062.017.046.046,0,0,1-.017.062l-.346.2A.047.047,0,0,1,954.788,223.089Z" transform="translate(-954.742 -222.799)" fill="#a90d01"/>
                </g>
                <g id="Grupo_70422" data-name="Grupo 70422" transform="translate(9.519 5.303)">
                  <path id="Trazado_107333" data-name="Trazado 107333" d="M956.155,223.88a.045.045,0,0,1-.023-.085l.346-.2a.045.045,0,1,1,.045.078l-.346.2A.049.049,0,0,1,956.155,223.88Z" transform="translate(-956.11 -223.59)" fill="#a90d01"/>
                </g>
                <g id="Grupo_70423" data-name="Grupo 70423" transform="translate(10.059 5.615)">
                  <path id="Trazado_107334" data-name="Trazado 107334" d="M957.522,224.669a.045.045,0,0,1-.023-.084l.346-.2a.045.045,0,1,1,.045.079l-.346.2A.046.046,0,0,1,957.522,224.669Z" transform="translate(-957.477 -224.379)" fill="#a90d01"/>
                </g>
                <g id="Grupo_70424" data-name="Grupo 70424" transform="translate(10.6 5.926)">
                  <path id="Trazado_107335" data-name="Trazado 107335" d="M958.89,225.458a.045.045,0,0,1-.039-.023.046.046,0,0,1,.017-.062l.346-.2a.045.045,0,1,1,.045.078l-.346.2A.045.045,0,0,1,958.89,225.458Z" transform="translate(-958.845 -225.169)" fill="#a90d01"/>
                </g>
                <g id="Grupo_70425" data-name="Grupo 70425" transform="translate(10.805 6.239)">
                  <path id="Trazado_107336" data-name="Trazado 107336" d="M959.41,226.442a.045.045,0,0,1-.023-.084l.681-.393a.046.046,0,0,1,.062.017.045.045,0,0,1-.017.062l-.681.393A.047.047,0,0,1,959.41,226.442Z" transform="translate(-959.364 -225.959)" fill="#a90d01"/>
                </g>
                <g id="Grupo_70426" data-name="Grupo 70426" transform="translate(11.68 6.55)">
                  <path id="Trazado_107337" data-name="Trazado 107337" d="M961.625,227.037a.045.045,0,0,1-.022-.084l.346-.2a.045.045,0,0,1,.045.079l-.346.2A.045.045,0,0,1,961.625,227.037Z" transform="translate(-961.58 -226.747)" fill="#a90d01"/>
                </g>
                <g id="Grupo_70427" data-name="Grupo 70427" transform="translate(12.22 6.862)">
                  <path id="Trazado_107338" data-name="Trazado 107338" d="M962.992,227.827a.045.045,0,0,1-.023-.085l.346-.2a.045.045,0,1,1,.045.078l-.346.2A.052.052,0,0,1,962.992,227.827Z" transform="translate(-962.947 -227.537)" fill="#a90d01"/>
                </g>
                <g id="Grupo_70428" data-name="Grupo 70428" transform="translate(12.761 7.174)">
                  <path id="Trazado_107339" data-name="Trazado 107339" d="M964.36,228.617a.045.045,0,0,1-.023-.084l.346-.2a.045.045,0,0,1,.045.079l-.346.2A.041.041,0,0,1,964.36,228.617Z" transform="translate(-964.315 -228.327)" fill="#a90d01"/>
                </g>
                <g id="Grupo_70429" data-name="Grupo 70429" transform="translate(13.301 7.486)">
                  <path id="Trazado_107340" data-name="Trazado 107340" d="M965.727,229.407a.045.045,0,0,1-.023-.085l.346-.2a.045.045,0,1,1,.045.078l-.346.2A.047.047,0,0,1,965.727,229.407Z" transform="translate(-965.682 -229.117)" fill="#a90d01"/>
                </g>
                <g id="Grupo_70430" data-name="Grupo 70430" transform="translate(13.506 7.798)">
                  <path id="Trazado_107341" data-name="Trazado 107341" d="M966.247,230.389a.045.045,0,0,1-.039-.022.046.046,0,0,1,.017-.062l.681-.393a.046.046,0,0,1,.062.017.045.045,0,0,1-.017.062l-.681.393A.046.046,0,0,1,966.247,230.389Z" transform="translate(-966.202 -229.906)" fill="#a90d01"/>
                </g>
                <g id="Grupo_70431" data-name="Grupo 70431" transform="translate(14.381 8.11)">
                  <path id="Trazado_107342" data-name="Trazado 107342" d="M968.463,230.985a.044.044,0,0,1-.039-.023.045.045,0,0,1,.016-.062l.346-.2a.045.045,0,0,1,.062.016.046.046,0,0,1-.017.062l-.346.2A.047.047,0,0,1,968.463,230.985Z" transform="translate(-968.417 -230.696)" fill="#a90d01"/>
                </g>
                <g id="Grupo_70432" data-name="Grupo 70432" transform="translate(14.921 8.422)">
                  <path id="Trazado_107343" data-name="Trazado 107343" d="M969.83,231.775a.045.045,0,0,1-.023-.085l.346-.2a.045.045,0,0,1,.045.078l-.346.2A.052.052,0,0,1,969.83,231.775Z" transform="translate(-969.784 -231.485)" fill="#a90d01"/>
                </g>
                <g id="Grupo_70433" data-name="Grupo 70433" transform="translate(15.462 8.734)">
                  <path id="Trazado_107344" data-name="Trazado 107344" d="M971.2,232.564a.045.045,0,0,1-.023-.084l.346-.2a.045.045,0,0,1,.045.079l-.346.2A.047.047,0,0,1,971.2,232.564Z" transform="translate(-971.152 -232.274)" fill="#a90d01"/>
                </g>
                <g id="Grupo_70434" data-name="Grupo 70434" transform="translate(16.002 9.045)">
                  <path id="Trazado_107345" data-name="Trazado 107345" d="M972.565,233.354a.045.045,0,0,1-.023-.085l.346-.2a.045.045,0,0,1,.045.078l-.346.2A.046.046,0,0,1,972.565,233.354Z" transform="translate(-972.52 -233.064)" fill="#a90d01"/>
                </g>
                <g id="Grupo_70435" data-name="Grupo 70435" transform="translate(16.207 9.358)">
                  <path id="Trazado_107346" data-name="Trazado 107346" d="M973.085,234.337a.045.045,0,0,1-.023-.084l.68-.393a.046.046,0,0,1,.062.017.046.046,0,0,1-.017.062l-.681.393A.047.047,0,0,1,973.085,234.337Z" transform="translate(-973.039 -233.854)" fill="#a90d01"/>
                </g>
                <g id="Grupo_70436" data-name="Grupo 70436" transform="translate(17.083 9.67)">
                  <path id="Trazado_107347" data-name="Trazado 107347" d="M975.3,234.933a.045.045,0,0,1-.022-.084l.346-.2a.046.046,0,0,1,.062.017.045.045,0,0,1-.017.062l-.346.2A.045.045,0,0,1,975.3,234.933Z" transform="translate(-975.255 -234.644)" fill="#a90d01"/>
                </g>
                <g id="Grupo_70437" data-name="Grupo 70437" transform="translate(17.623 9.981)">
                  <path id="Trazado_107348" data-name="Trazado 107348" d="M976.667,235.723a.045.045,0,0,1-.023-.085l.346-.2a.045.045,0,1,1,.045.078l-.346.2A.053.053,0,0,1,976.667,235.723Z" transform="translate(-976.622 -235.433)" fill="#a90d01"/>
                </g>
                <g id="Grupo_70438" data-name="Grupo 70438" transform="translate(18.163 10.293)">
                  <path id="Trazado_107349" data-name="Trazado 107349" d="M978.035,236.512a.045.045,0,0,1-.023-.084l.346-.2a.045.045,0,0,1,.045.079l-.346.2A.047.047,0,0,1,978.035,236.512Z" transform="translate(-977.989 -236.222)" fill="#a90d01"/>
                </g>
              </g>
            </g>
            <g id="Grupo_70441" data-name="Grupo 70441" transform="translate(20.875 12.052)">
              <path id="Trazado_107350" data-name="Trazado 107350" d="M979.8,239.255v.6l1.2-.692v-.6Z" transform="translate(-979.8 -238.563)" fill="#bf7b17"/>
            </g>
          </g>
        </g>
        <g id="Grupo_70450" data-name="Grupo 70450" transform="translate(17.575 9.018)">
          <g id="Grupo_70446" data-name="Grupo 70446" transform="translate(0 3.229)">
            <g id="Grupo_70444" data-name="Grupo 70444">
              <path id="Trazado_107351" data-name="Trazado 107351" d="M895.332,233.7l2.686.726,1.258,1.551-3.944,2.277-3.944-2.277Z" transform="translate(-891.343 -233.659)" fill="#0075a4"/>
              <path id="Trazado_107352" data-name="Trazado 107352" d="M895.263,238.234a.045.045,0,0,1-.022-.006l-3.944-2.277a.045.045,0,0,1-.023-.039.045.045,0,0,1,.023-.039l3.944-2.277a.044.044,0,0,1,.034,0l2.686.727a.042.042,0,0,1,.023.015l1.258,1.551a.045.045,0,0,1,.009.037.045.045,0,0,1-.022.031l-3.944,2.277A.045.045,0,0,1,895.263,238.234Zm-3.853-2.322,3.853,2.225,3.876-2.237-1.216-1.5-2.654-.718Z" transform="translate(-891.274 -233.589)" fill="#fff"/>
            </g>
            <g id="Grupo_70445" data-name="Grupo 70445" transform="translate(1.153 1.612)">
              <path id="Trazado_107353" data-name="Trazado 107353" d="M898.182,240.036a.046.046,0,0,1-.022-.006l-3.944-2.277a.045.045,0,0,1-.017-.062.046.046,0,0,1,.062-.017l3.944,2.277a.045.045,0,0,1-.023.085Z" transform="translate(-894.193 -237.669)" fill="#fff"/>
            </g>
          </g>
          <g id="Grupo_70449" data-name="Grupo 70449" transform="translate(5.592)">
            <g id="Grupo_70447" data-name="Grupo 70447">
              <path id="Trazado_107354" data-name="Trazado 107354" d="M909.487,225.532l2.686.726,1.258,1.551-3.944,2.277-3.944-2.277Z" transform="translate(-905.498 -225.486)" fill="#0075a4"/>
              <path id="Trazado_107355" data-name="Trazado 107355" d="M909.418,230.061a.048.048,0,0,1-.023-.006l-3.943-2.277a.046.046,0,0,1-.023-.04.046.046,0,0,1,.023-.039l3.943-2.277a.044.044,0,0,1,.034,0l2.686.727a.046.046,0,0,1,.023.015l1.258,1.551a.045.045,0,0,1-.012.068l-3.944,2.277A.047.047,0,0,1,909.418,230.061Zm-3.854-2.322,3.854,2.225,3.875-2.238-1.216-1.5-2.653-.718Z" transform="translate(-905.429 -225.417)" fill="#fff"/>
            </g>
            <g id="Grupo_70448" data-name="Grupo 70448" transform="translate(1.153 1.612)">
              <path id="Trazado_107356" data-name="Trazado 107356" d="M912.336,231.863a.047.047,0,0,1-.023-.006l-3.943-2.277a.045.045,0,0,1-.017-.062.046.046,0,0,1,.062-.017l3.944,2.277a.045.045,0,0,1-.023.084Z" transform="translate(-908.348 -229.496)" fill="#fff"/>
            </g>
          </g>
        </g>
      </g>
      <g id="Grupo_70472" data-name="Grupo 70472" transform="translate(16.762 26.879)">
        <g id="Grupo_70471" data-name="Grupo 70471">
          <g id="Grupo_70469" data-name="Grupo 70469">
            <g id="Grupo_70452" data-name="Grupo 70452" transform="translate(2.322 4.427)">
              <path id="Trazado_107357" data-name="Trazado 107357" d="M895.093,281.833v.221h.1v-.176Z" transform="translate(-895.093 -281.833)" fill="#161313"/>
            </g>
            <g id="Grupo_70453" data-name="Grupo 70453" transform="translate(0 3.117)">
              <path id="Trazado_107358" data-name="Trazado 107358" d="M889.217,278.516v.226l.1.034-.048-.26Z" transform="translate(-889.217 -278.516)" fill="#161313"/>
            </g>
            <g id="Grupo_70468" data-name="Grupo 70468">
              <g id="Grupo_70454" data-name="Grupo 70454" transform="translate(3.387 0.008)">
                <path id="Trazado_107359" data-name="Trazado 107359" d="M898.536,273.626l1.967-2.9v-.074a.8.8,0,0,0-.476.193c-.2.177-2.237,2.185-2.237,2.185l.478.338-.1.252Z" transform="translate(-897.791 -270.647)" fill="#5f6a73"/>
              </g>
              <g id="Grupo_70455" data-name="Grupo 70455" transform="translate(3.387)">
                <path id="Trazado_107360" data-name="Trazado 107360" d="M898.536,273.539l1.967-2.9a.6.6,0,0,0-.476.119c-.2.176-2.237,2.184-2.237,2.184l.478.338-.1.252Z" transform="translate(-897.791 -270.627)" fill="#d1d1d1"/>
              </g>
              <g id="Grupo_70456" data-name="Grupo 70456" transform="translate(2.439 3.999)">
                <path id="Trazado_107361" data-name="Trazado 107361" d="M895.391,280.775v.2l.185-.222Z" transform="translate(-895.391 -280.749)" fill="#161313"/>
              </g>
              <g id="Grupo_70457" data-name="Grupo 70457" transform="translate(4.499 3.694)">
                <path id="Trazado_107362" data-name="Trazado 107362" d="M900.753,279.977v.254l-.148-.058Z" transform="translate(-900.605 -279.977)" fill="#161313"/>
              </g>
              <g id="Grupo_70458" data-name="Grupo 70458" transform="translate(3.051 0.676)">
                <path id="Trazado_107363" data-name="Trazado 107363" d="M896.941,274.01l4.618-1.673s.132.19-.134.333-3.328,1.657-3.328,1.657l-.661-.212-.412.1Z" transform="translate(-896.941 -272.337)" fill="#5f6a73"/>
              </g>
              <g id="Grupo_70459" data-name="Grupo 70459" transform="translate(3.051 0.657)">
                <path id="Trazado_107364" data-name="Trazado 107364" d="M896.941,273.92l4.6-1.631s.147.148-.119.291-3.328,1.657-3.328,1.657l-.661-.212-.412.1Z" transform="translate(-896.941 -272.289)" fill="#e1e1e1"/>
              </g>
              <g id="Grupo_70460" data-name="Grupo 70460" transform="translate(3.839 2.093)">
                <path id="Trazado_107365" data-name="Trazado 107365" d="M899.006,276.17a.387.387,0,0,0,.351,0,.107.107,0,0,0,0-.2.389.389,0,0,0-.351,0A.107.107,0,0,0,899.006,276.17Z" transform="translate(-898.933 -275.925)" fill="#5f6a73"/>
              </g>
              <g id="Grupo_70461" data-name="Grupo 70461" transform="translate(3.838 2.03)">
                <ellipse id="Elipse_4476" data-name="Elipse 4476" cx="0.248" cy="0.143" rx="0.248" ry="0.143" fill="#d1d1d1"/>
              </g>
              <g id="Grupo_70463" data-name="Grupo 70463" transform="translate(3.935 2.093)">
                <g id="Grupo_70462" data-name="Grupo 70462">
                  <path id="Trazado_107366" data-name="Trazado 107366" d="M899.209,276.072l.011,0,.235-.082a.032.032,0,0,0-.021-.06l-.235.082a.032.032,0,0,0,.011.062Z" transform="translate(-899.177 -275.926)" fill="#5f6a73"/>
                </g>
              </g>
              <g id="Grupo_70464" data-name="Grupo 70464" transform="translate(2.321 2.866)">
                <path id="Trazado_107367" data-name="Trazado 107367" d="M896.208,280.005a2.077,2.077,0,0,0,1.086-.675.49.49,0,0,0-.144-.766c-.1-.04-.316-.127-.262-.238a1.027,1.027,0,0,1,.165-.222v-.222l-.626.179-.915.989-.117,0-.186.211.076.043s-.385.35-.069.58A1.4,1.4,0,0,0,896.208,280.005Zm-.167-1.01a1.744,1.744,0,0,1,.4-.322s.471-.113.561.276-.677.748-.677.748a1.038,1.038,0,0,1-.688.083C895.372,279.682,895.77,279.251,896.041,279Z" transform="translate(-895.093 -277.881)" fill="#161313"/>
              </g>
              <g id="Grupo_70465" data-name="Grupo 70465" transform="translate(0 2.342)">
                <path id="Trazado_107368" data-name="Trazado 107368" d="M889.642,278.006a1.45,1.45,0,0,0,.966-.163l.091.033.316-.15L891,277.66l1.477-.727v-.222l-.208-.121a2.352,2.352,0,0,1-.341.141.644.644,0,0,1-.459-.1,1.924,1.924,0,0,0-1.327.082,1.485,1.485,0,0,0-.91.757C889.2,277.549,889.184,277.877,889.642,278.006Zm.089-.257c-.249-.141-.006-.406-.006-.406a1.739,1.739,0,0,1,1.122-.542c.677-.033.587.257.587.257a2.088,2.088,0,0,1-.46.294C890.6,277.558,889.955,277.875,889.731,277.749Z" transform="translate(-889.217 -276.554)" fill="#161313"/>
              </g>
              <g id="Grupo_70466" data-name="Grupo 70466" transform="translate(2.321 2.822)">
                <path id="Trazado_107369" data-name="Trazado 107369" d="M896.208,279.716a2.075,2.075,0,0,0,1.086-.675.49.49,0,0,0-.144-.766c-.1-.04-.316-.127-.262-.238a1.027,1.027,0,0,1,.165-.222l-.626-.044-.915.989-.117,0-.186.211.076.043s-.385.35-.069.58A1.4,1.4,0,0,0,896.208,279.716Zm-.167-1.01a1.754,1.754,0,0,1,.4-.322s.471-.113.561.276-.677.749-.677.749a1.041,1.041,0,0,1-.688.083C895.372,279.392,895.77,278.961,896.041,278.706Z" transform="translate(-895.093 -277.77)" fill="#354645"/>
              </g>
              <g id="Grupo_70467" data-name="Grupo 70467" transform="translate(0 2.12)">
                <path id="Trazado_107370" data-name="Trazado 107370" d="M889.642,277.443a1.45,1.45,0,0,0,.966-.163l.091.033.316-.15L891,277.1l1.477-.727-.208-.344a2.356,2.356,0,0,1-.341.141.643.643,0,0,1-.459-.1,1.923,1.923,0,0,0-1.327.083,1.485,1.485,0,0,0-.91.757C889.2,276.986,889.184,277.314,889.642,277.443Zm.089-.257c-.249-.141-.006-.406-.006-.406a1.742,1.742,0,0,1,1.122-.542c.677-.033.587.257.587.257a2.089,2.089,0,0,1-.46.294C890.6,277,889.955,277.312,889.731,277.186Z" transform="translate(-889.217 -275.992)" fill="#354645"/>
              </g>
            </g>
          </g>
          <g id="Grupo_70470" data-name="Grupo 70470" transform="translate(1.481 3.291)">
            <path id="Trazado_107371" data-name="Trazado 107371" d="M893.283,278.958v.222l-.316.15v-.222Z" transform="translate(-892.967 -278.958)" fill="#161313"/>
          </g>
        </g>
      </g>
    </g>
  </g>
</svg>
