<svg id="Grupo_1043325" data-name="Grupo 1043325" xmlns="http://www.w3.org/2000/svg" width="357.72" height="301.392" viewBox="0 0 357.72 301.392">
  <g id="Grupo_70451" data-name="Grupo 70451">
    <g id="Grupo_70443" data-name="Grupo 70443">
      <g id="Grupo_70393" data-name="Grupo 70393">
        <g id="Grupo_70381" data-name="Grupo 70381" transform="translate(68.224 124.091)">
          <g id="Grupo_70374" data-name="Grupo 70374">
            <path id="Trazado_107284" data-name="Trazado 107284" d="M987.019,332.738V320.331L876.384,256.418v12.407l26.254,15.158v88.574L876.383,357.4v12.407l110.634,63.913v-6.2l-13.483-13.988L913.382,378.76V290.186Z" transform="translate(-876.383 -256.418)" fill="#9cafab"/>
          </g>
          <g id="Grupo_70375" data-name="Grupo 70375" transform="translate(110.634 166.851)">
            <path id="Trazado_107285" data-name="Trazado 107285" d="M924.374,333.042l7.367-4.246V335l-7.367,4.246Z" transform="translate(-924.374 -328.796)" fill="#5b6664"/>
          </g>
          <g id="Grupo_70376" data-name="Grupo 70376" transform="translate(97.151 152.863)">
            <path id="Trazado_107286" data-name="Trazado 107286" d="M918.526,326.975l7.367-4.247,13.483,13.988-7.367,4.246Z" transform="translate(-918.526 -322.728)" fill="#b1c7c2"/>
          </g>
          <g id="Grupo_70377" data-name="Grupo 70377" transform="translate(36.999 118.095)">
            <path id="Trazado_107287" data-name="Trazado 107287" d="M899.8,307.646l-7.367,4.247,60.152,34.768,7.367-4.247Z" transform="translate(-892.432 -307.646)" fill="#bdd4cf"/>
          </g>
          <g id="Grupo_70378" data-name="Grupo 70378" transform="translate(36.999 80.665)">
            <path id="Trazado_107288" data-name="Trazado 107288" d="M892.433,291.41l7.367,4.253v33.176l-7.367,4.247Z" transform="translate(-892.432 -291.41)" fill="#5b6664"/>
          </g>
          <g id="Grupo_70379" data-name="Grupo 70379" transform="translate(0 96.734)">
            <path id="Trazado_107289" data-name="Trazado 107289" d="M883.75,298.38l-7.367,4.246,26.254,15.157v-8.5Z" transform="translate(-876.383 -298.38)" fill="#bdd4cf"/>
          </g>
          <g id="Grupo_70380" data-name="Grupo 70380" transform="translate(110.373 59.213)">
            <path id="Trazado_107290" data-name="Trazado 107290" d="M924.375,298.954l7.367-4.246V282.3l-7.367,4.246Z" transform="translate(-924.112 -281.847)" fill="#fff"/>
            <path id="Trazado_107291" data-name="Trazado 107291" d="M924.261,299.668V286.65l7.894-4.546v13.011Zm.526-12.711v11.8l6.84-3.942v-11.8Z" transform="translate(-924.261 -282.104)" fill="#231f20"/>
          </g>
        </g>
        <g id="Grupo_70389" data-name="Grupo 70389" transform="translate(217.061 37.889)">
          <g id="Grupo_70382" data-name="Grupo 70382" transform="translate(0.528)">
            <path id="Trazado_107292" data-name="Trazado 107292" d="M1051.811,295.345V282.938L941.177,219.025v12.407l26.255,15.157v88.574l-26.255-15.158v12.407l110.634,63.913v-6.2l-13.483-13.987-60.152-34.768V252.793Z" transform="translate(-941.175 -219.025)" fill="#9cafab"/>
          </g>
          <g id="Grupo_70383" data-name="Grupo 70383" transform="translate(111.163 166.851)">
            <path id="Trazado_107293" data-name="Trazado 107293" d="M989.167,295.649l7.367-4.246v6.2l-7.367,4.247Z" transform="translate(-989.167 -291.403)" fill="#5b6664"/>
          </g>
          <g id="Grupo_70384" data-name="Grupo 70384" transform="translate(97.68 152.863)">
            <path id="Trazado_107294" data-name="Trazado 107294" d="M983.318,289.582l7.367-4.247,13.483,13.988-7.367,4.246Z" transform="translate(-983.318 -285.335)" fill="#b1c7c2"/>
          </g>
          <g id="Grupo_70385" data-name="Grupo 70385" transform="translate(37.527 118.095)">
            <path id="Trazado_107295" data-name="Trazado 107295" d="M964.592,270.254l-7.367,4.247,60.152,34.768,7.367-4.247Z" transform="translate(-957.225 -270.254)" fill="#bdd4cf"/>
          </g>
          <g id="Grupo_70386" data-name="Grupo 70386" transform="translate(37.265 80.209)">
            <path id="Trazado_107296" data-name="Trazado 107296" d="M957.225,254.017l7.367,4.253v33.177l-7.367,4.247Z" transform="translate(-956.962 -253.561)" fill="#fff"/>
            <path id="Trazado_107297" data-name="Trazado 107297" d="M957.111,296.409v-42.59L965,258.377v33.482Zm.526-41.677V295.5l6.84-3.942V258.681Z" transform="translate(-957.111 -253.819)" fill="#231f20"/>
          </g>
          <g id="Grupo_70387" data-name="Grupo 70387" transform="translate(0 96.431)">
            <path id="Trazado_107298" data-name="Trazado 107298" d="M948.542,260.987l-7.367,4.246,26.255,15.158v-8.5Z" transform="translate(-940.647 -260.684)" fill="#fff"/>
            <path id="Trazado_107299" data-name="Trazado 107299" d="M967.992,281.02,940.946,265.4l7.9-4.548,19.15,11.054ZM942,265.4l25.464,14.7v-7.891l-18.624-10.75Z" transform="translate(-940.946 -260.856)" fill="#231f20"/>
          </g>
          <g id="Grupo_70388" data-name="Grupo 70388" transform="translate(111.164 59.666)">
            <path id="Trazado_107300" data-name="Trazado 107300" d="M989.167,261.561l7.366-4.246V244.908l-7.367,4.246Z" transform="translate(-989.167 -244.908)" fill="#5b6664"/>
          </g>
        </g>
        <g id="Grupo_70390" data-name="Grupo 70390" transform="translate(127.571 73.655)">
          <path id="Trazado_107301" data-name="Trazado 107301" d="M1132.275,245.664,902.126,378.544V367.42l230.149-132.88Z" transform="translate(-902.126 -234.54)" fill="#b3a584"/>
        </g>
        <g id="Grupo_70391" data-name="Grupo 70391">
          <path id="Trazado_107302" data-name="Trazado 107302" d="M1204.507,276.245,974.359,409.124,846.788,335.47l230.148-132.88Z" transform="translate(-846.788 -202.59)" fill="#f3e8cc"/>
        </g>
        <g id="Grupo_70392" data-name="Grupo 70392" transform="translate(0 132.88)">
          <path id="Trazado_107303" data-name="Trazado 107303" d="M846.788,260.231v11.124L974.359,345.01V333.886Z" transform="translate(-846.788 -260.231)" fill="#d4c398"/>
        </g>
      </g>
      <g id="Grupo_70394" data-name="Grupo 70394" transform="translate(24.682 14.25)">
        <path id="Trazado_107304" data-name="Trazado 107304" d="M1165.851,282.426,985.066,386.805,857.495,313.15,1038.28,208.771Z" transform="translate(-857.495 -208.771)" fill="#0075a4"/>
      </g>
      <g id="Grupo_70395" data-name="Grupo 70395" transform="translate(152.253 87.905)">
        <path id="Trazado_107305" data-name="Trazado 107305" d="M912.833,345.1v72.326l180.785-104.379V240.722Z" transform="translate(-912.833 -240.722)" fill="#005171"/>
      </g>
      <g id="Grupo_70402" data-name="Grupo 70402" transform="translate(109.738 68.06)">
        <g id="Grupo_70398" data-name="Grupo 70398">
          <g id="Grupo_70396" data-name="Grupo 70396" transform="translate(0 35.979)">
            <path id="Trazado_107306" data-name="Trazado 107306" d="M958.791,266.029,926.02,284.95l-31.515-18.2,32.77-18.92Z" transform="translate(-894.241 -247.572)" fill="#0075a4"/>
            <path id="Trazado_107307" data-name="Trazado 107307" d="M926.169,285.361a.274.274,0,0,1-.131-.035l-31.514-18.193a.264.264,0,0,1,0-.459l32.77-18.919a.267.267,0,0,1,.263,0l31.516,18.193a.266.266,0,0,1,.131.228.263.263,0,0,1-.131.228L926.3,285.326A.262.262,0,0,1,926.169,285.361ZM895.182,266.9l30.987,17.891,32.244-18.618-30.988-17.889Z" transform="translate(-894.391 -247.72)" fill="#fff"/>
          </g>
          <g id="Grupo_70397" data-name="Grupo 70397" transform="translate(32.772)">
            <path id="Trazado_107308" data-name="Trazado 107308" d="M940.235,286.4l46.559-45.077-15.758-9.1-62.316,35.979Z" transform="translate(-908.458 -231.965)" fill="#0075a4"/>
            <path id="Trazado_107309" data-name="Trazado 107309" d="M940.383,286.813a.277.277,0,0,1-.132-.037l-31.513-18.193a.264.264,0,0,1,0-.456l62.315-35.979a.271.271,0,0,1,.265,0l15.757,9.1a.264.264,0,0,1,.05.417l-46.557,45.075A.26.26,0,0,1,940.383,286.813ZM909.4,268.354l30.946,17.866,46.163-44.695-15.321-8.845Z" transform="translate(-908.607 -232.113)" fill="#fff"/>
          </g>
        </g>
        <g id="Grupo_70401" data-name="Grupo 70401" transform="translate(50.811 20.238)">
          <g id="Grupo_70399" data-name="Grupo 70399" transform="translate(46.559)">
            <path id="Trazado_107310" data-name="Trazado 107310" d="M936.743,259.927l32.771-18.921,31.515,18.2-32.77,18.92Z" transform="translate(-936.48 -240.743)" fill="#0075a4"/>
            <path id="Trazado_107311" data-name="Trazado 107311" d="M968.407,278.535a.268.268,0,0,1-.131-.035L936.76,260.3a.266.266,0,0,1,0-.459l32.772-18.92a.267.267,0,0,1,.263,0l31.513,18.2a.264.264,0,0,1,.134.228.261.261,0,0,1-.134.228L968.539,278.5A.265.265,0,0,1,968.407,278.535ZM937.42,260.077l30.987,17.891,32.244-18.618-30.987-17.891Z" transform="translate(-936.629 -240.892)" fill="#fff"/>
          </g>
          <g id="Grupo_70400" data-name="Grupo 70400" transform="translate(0 18.921)">
            <path id="Trazado_107312" data-name="Trazado 107312" d="M963.106,249.214,916.547,294.29l15.757,9.1,62.316-35.979Z" transform="translate(-916.283 -248.951)" fill="#0075a4"/>
            <path id="Trazado_107313" data-name="Trazado 107313" d="M932.454,303.8a.272.272,0,0,1-.132-.035l-15.757-9.1a.262.262,0,0,1-.053-.417l46.56-45.078a.271.271,0,0,1,.315-.039l31.514,18.2a.264.264,0,0,1,0,.457l-62.317,35.978A.261.261,0,0,1,932.454,303.8Zm-15.324-9.417,15.324,8.85,61.788-35.674L963.3,249.691Z" transform="translate(-916.432 -249.1)" fill="#fff"/>
          </g>
        </g>
      </g>
      <g id="Grupo_70442" data-name="Grupo 70442" transform="translate(184.818 12.599)">
        <g id="Grupo_70403" data-name="Grupo 70403" transform="translate(0 4.04)">
          <path id="Trazado_107314" data-name="Trazado 107314" d="M1048.771,283.632,926.96,213.3v-3.495l121.812,70.33Z" transform="translate(-926.96 -209.808)" fill="#d6973a"/>
        </g>
        <g id="Grupo_70440" data-name="Grupo 70440">
          <g id="Grupo_70404" data-name="Grupo 70404">
            <path id="Trazado_107315" data-name="Trazado 107315" d="M1048.771,282.425,926.96,212.1l7-4.04,121.812,70.329Z" transform="translate(-926.96 -208.055)" fill="#f5b659"/>
          </g>
          <g id="Grupo_70439" data-name="Grupo 70439" transform="translate(11.653 4.87)">
            <g id="Grupo_70405" data-name="Grupo 70405">
              <path id="Trazado_107316" data-name="Trazado 107316" d="M932.279,212.986a.258.258,0,0,1-.228-.131.261.261,0,0,1,.1-.36l3.972-2.294a.267.267,0,0,1,.359.1.263.263,0,0,1-.1.36l-3.972,2.294A.273.273,0,0,1,932.279,212.986Z" transform="translate(-932.015 -210.167)" fill="#a90d01"/>
            </g>
            <g id="Grupo_70406" data-name="Grupo 70406" transform="translate(5.108 1.819)">
              <path id="Trazado_107317" data-name="Trazado 107317" d="M934.493,212.648a.263.263,0,0,1-.132-.491l2.017-1.167a.265.265,0,0,1,.265.459l-2.02,1.164A.259.259,0,0,1,934.493,212.648Z" transform="translate(-934.23 -210.956)" fill="#a90d01"/>
            </g>
            <g id="Grupo_70407" data-name="Grupo 70407" transform="translate(8.259 3.639)">
              <path id="Trazado_107318" data-name="Trazado 107318" d="M935.86,213.438a.264.264,0,0,1-.132-.493l2.019-1.162a.26.26,0,0,1,.36.1.267.267,0,0,1-.1.36l-2.017,1.164A.3.3,0,0,1,935.86,213.438Z" transform="translate(-935.597 -211.746)" fill="#a90d01"/>
            </g>
            <g id="Grupo_70408" data-name="Grupo 70408" transform="translate(11.413 5.462)">
              <path id="Trazado_107319" data-name="Trazado 107319" d="M937.228,214.227A.262.262,0,0,1,937,214.1a.266.266,0,0,1,.1-.36l2.017-1.166a.265.265,0,0,1,.266.459l-2.019,1.164A.267.267,0,0,1,937.228,214.227Z" transform="translate(-936.965 -212.537)" fill="#a90d01"/>
            </g>
            <g id="Grupo_70409" data-name="Grupo 70409" transform="translate(14.565 7.281)">
              <path id="Trazado_107320" data-name="Trazado 107320" d="M938.6,215.016a.263.263,0,0,1-.131-.491l2.017-1.164a.263.263,0,0,1,.263.456l-2.018,1.164A.27.27,0,0,1,938.6,215.016Z" transform="translate(-938.332 -213.326)" fill="#a90d01"/>
            </g>
            <g id="Grupo_70410" data-name="Grupo 70410" transform="translate(15.762 9.101)">
              <path id="Trazado_107321" data-name="Trazado 107321" d="M939.115,216.934a.263.263,0,0,1-.131-.491l3.972-2.294a.267.267,0,0,1,.36.1.261.261,0,0,1-.1.36l-3.972,2.294A.269.269,0,0,1,939.115,216.934Z" transform="translate(-938.852 -214.115)" fill="#a90d01"/>
            </g>
            <g id="Grupo_70411" data-name="Grupo 70411" transform="translate(20.869 10.921)">
              <path id="Trazado_107322" data-name="Trazado 107322" d="M941.332,216.6a.263.263,0,0,1-.133-.491l2.019-1.166a.264.264,0,0,1,.263.459l-2.017,1.164A.269.269,0,0,1,941.332,216.6Z" transform="translate(-941.067 -214.905)" fill="#a90d01"/>
            </g>
            <g id="Grupo_70412" data-name="Grupo 70412" transform="translate(24.023 12.741)">
              <path id="Trazado_107323" data-name="Trazado 107323" d="M942.7,217.386a.264.264,0,0,1-.131-.493l2.017-1.164a.264.264,0,1,1,.265.456l-2.019,1.167A.288.288,0,0,1,942.7,217.386Z" transform="translate(-942.435 -215.694)" fill="#a90d01"/>
            </g>
            <g id="Grupo_70413" data-name="Grupo 70413" transform="translate(27.174 14.56)">
              <path id="Trazado_107324" data-name="Trazado 107324" d="M944.064,218.175a.263.263,0,0,1-.131-.491l2.017-1.167a.265.265,0,0,1,.265.459L944.2,218.14A.273.273,0,0,1,944.064,218.175Z" transform="translate(-943.802 -216.483)" fill="#a90d01"/>
            </g>
            <g id="Grupo_70414" data-name="Grupo 70414" transform="translate(30.327 16.382)">
              <path id="Trazado_107325" data-name="Trazado 107325" d="M945.433,218.964a.265.265,0,0,1-.132-.493l2.017-1.162a.263.263,0,1,1,.263.456l-2.017,1.162A.245.245,0,0,1,945.433,218.964Z" transform="translate(-945.17 -217.274)" fill="#a90d01"/>
            </g>
            <g id="Grupo_70415" data-name="Grupo 70415" transform="translate(31.526 18.204)">
              <path id="Trazado_107326" data-name="Trazado 107326" d="M945.953,220.881a.263.263,0,0,1-.132-.491l3.972-2.294a.269.269,0,0,1,.36.1.266.266,0,0,1-.1.36l-3.972,2.294A.273.273,0,0,1,945.953,220.881Z" transform="translate(-945.69 -218.064)" fill="#a90d01"/>
            </g>
            <g id="Grupo_70416" data-name="Grupo 70416" transform="translate(36.631 20.022)">
              <path id="Trazado_107327" data-name="Trazado 107327" d="M948.169,220.543a.263.263,0,0,1-.132-.491l2.017-1.164a.264.264,0,1,1,.266.456l-2.019,1.164A.268.268,0,0,1,948.169,220.543Z" transform="translate(-947.904 -218.853)" fill="#a90d01"/>
            </g>
            <g id="Grupo_70417" data-name="Grupo 70417" transform="translate(39.784 21.842)">
              <path id="Trazado_107328" data-name="Trazado 107328" d="M949.537,221.334a.264.264,0,0,1-.134-.493l2.017-1.164a.264.264,0,1,1,.265.456l-2.017,1.167A.3.3,0,0,1,949.537,221.334Z" transform="translate(-949.272 -219.642)" fill="#a90d01"/>
            </g>
            <g id="Grupo_70418" data-name="Grupo 70418" transform="translate(42.937 23.662)">
              <path id="Trazado_107329" data-name="Trazado 107329" d="M950.9,222.122a.263.263,0,0,1-.131-.491l2.017-1.167a.269.269,0,0,1,.36.1.262.262,0,0,1-.1.36l-2.017,1.167A.265.265,0,0,1,950.9,222.122Z" transform="translate(-950.64 -220.432)" fill="#a90d01"/>
            </g>
            <g id="Grupo_70419" data-name="Grupo 70419" transform="translate(46.089 25.481)">
              <path id="Trazado_107330" data-name="Trazado 107330" d="M952.27,222.913a.264.264,0,0,1-.131-.493l2.019-1.164a.263.263,0,0,1,.263.456l-2.017,1.164A.276.276,0,0,1,952.27,222.913Z" transform="translate(-952.007 -221.221)" fill="#a90d01"/>
            </g>
            <g id="Grupo_70420" data-name="Grupo 70420" transform="translate(47.287 27.301)">
              <path id="Trazado_107331" data-name="Trazado 107331" d="M952.791,224.829a.263.263,0,0,1-.132-.491l3.972-2.294a.267.267,0,0,1,.36.1.262.262,0,0,1-.1.36l-3.972,2.294A.262.262,0,0,1,952.791,224.829Z" transform="translate(-952.527 -222.01)" fill="#a90d01"/>
            </g>
            <g id="Grupo_70421" data-name="Grupo 70421" transform="translate(52.394 29.12)">
              <path id="Trazado_107332" data-name="Trazado 107332" d="M955.006,224.491a.263.263,0,0,1-.132-.491l2.018-1.164a.262.262,0,0,1,.36.1.269.269,0,0,1-.1.362l-2.017,1.162A.274.274,0,0,1,955.006,224.491Z" transform="translate(-954.742 -222.799)" fill="#a90d01"/>
            </g>
            <g id="Grupo_70422" data-name="Grupo 70422" transform="translate(55.547 30.943)">
              <path id="Trazado_107333" data-name="Trazado 107333" d="M956.373,225.282a.264.264,0,0,1-.131-.493l2.017-1.164a.264.264,0,1,1,.265.456l-2.019,1.167A.286.286,0,0,1,956.373,225.282Z" transform="translate(-956.11 -223.59)" fill="#a90d01"/>
            </g>
            <g id="Grupo_70423" data-name="Grupo 70423" transform="translate(58.699 32.763)">
              <path id="Trazado_107334" data-name="Trazado 107334" d="M957.74,226.071a.263.263,0,0,1-.131-.491l2.02-1.167a.264.264,0,0,1,.263.459l-2.017,1.164A.274.274,0,0,1,957.74,226.071Z" transform="translate(-957.477 -224.379)" fill="#a90d01"/>
            </g>
            <g id="Grupo_70424" data-name="Grupo 70424" transform="translate(61.852 34.582)">
              <path id="Trazado_107335" data-name="Trazado 107335" d="M959.108,226.859a.261.261,0,0,1-.228-.131.266.266,0,0,1,.1-.36l2.017-1.164a.264.264,0,1,1,.263.457l-2.017,1.164A.263.263,0,0,1,959.108,226.859Z" transform="translate(-958.845 -225.169)" fill="#a90d01"/>
            </g>
            <g id="Grupo_70425" data-name="Grupo 70425" transform="translate(63.049 36.404)">
              <path id="Trazado_107336" data-name="Trazado 107336" d="M959.629,228.776a.263.263,0,0,1-.132-.491l3.972-2.294a.269.269,0,0,1,.36.1.263.263,0,0,1-.1.36l-3.972,2.294A.273.273,0,0,1,959.629,228.776Z" transform="translate(-959.365 -225.959)" fill="#a90d01"/>
            </g>
            <g id="Grupo_70426" data-name="Grupo 70426" transform="translate(68.157 38.222)">
              <path id="Trazado_107337" data-name="Trazado 107337" d="M961.843,228.439a.263.263,0,0,1-.131-.491l2.017-1.166a.264.264,0,0,1,.262.459l-2.017,1.164A.264.264,0,0,1,961.843,228.439Z" transform="translate(-961.58 -226.747)" fill="#a90d01"/>
            </g>
            <g id="Grupo_70427" data-name="Grupo 70427" transform="translate(71.309 40.042)">
              <path id="Trazado_107338" data-name="Trazado 107338" d="M963.212,229.229a.264.264,0,0,1-.134-.493l2.019-1.164a.263.263,0,0,1,.263.457l-2.017,1.166A.3.3,0,0,1,963.212,229.229Z" transform="translate(-962.947 -227.537)" fill="#a90d01"/>
            </g>
            <g id="Grupo_70428" data-name="Grupo 70428" transform="translate(74.462 41.864)">
              <path id="Trazado_107339" data-name="Trazado 107339" d="M964.578,230.016a.263.263,0,0,1-.131-.491l2.017-1.164a.265.265,0,0,1,.265.459l-2.02,1.162A.238.238,0,0,1,964.578,230.016Z" transform="translate(-964.315 -228.327)" fill="#a90d01"/>
            </g>
            <g id="Grupo_70429" data-name="Grupo 70429" transform="translate(77.614 43.685)">
              <path id="Trazado_107340" data-name="Trazado 107340" d="M965.945,230.809a.265.265,0,0,1-.132-.493l2.017-1.164a.264.264,0,1,1,.264.457l-2.017,1.164A.276.276,0,0,1,965.945,230.809Z" transform="translate(-965.682 -229.117)" fill="#a90d01"/>
            </g>
            <g id="Grupo_70430" data-name="Grupo 70430" transform="translate(78.812 45.504)">
              <path id="Trazado_107341" data-name="Trazado 107341" d="M966.465,232.725a.261.261,0,0,1-.228-.131.266.266,0,0,1,.1-.36l3.972-2.294a.267.267,0,0,1,.36.1.262.262,0,0,1-.1.36L966.6,232.69A.269.269,0,0,1,966.465,232.725Z" transform="translate(-966.202 -229.906)" fill="#a90d01"/>
            </g>
            <g id="Grupo_70431" data-name="Grupo 70431" transform="translate(83.919 47.324)">
              <path id="Trazado_107342" data-name="Trazado 107342" d="M968.682,232.386a.259.259,0,0,1-.228-.131.264.264,0,0,1,.094-.36l2.02-1.164a.264.264,0,0,1,.359.095.268.268,0,0,1-.1.362l-2.017,1.164A.271.271,0,0,1,968.682,232.386Z" transform="translate(-968.417 -230.696)" fill="#a90d01"/>
            </g>
            <g id="Grupo_70432" data-name="Grupo 70432" transform="translate(87.071 49.144)">
              <path id="Trazado_107343" data-name="Trazado 107343" d="M970.049,233.177a.268.268,0,0,1-.229-.131.265.265,0,0,1,.1-.362l2.017-1.164a.263.263,0,0,1,.263.456l-2.018,1.167A.3.3,0,0,1,970.049,233.177Z" transform="translate(-969.784 -231.485)" fill="#a90d01"/>
            </g>
            <g id="Grupo_70433" data-name="Grupo 70433" transform="translate(90.223 50.963)">
              <path id="Trazado_107344" data-name="Trazado 107344" d="M971.417,233.966a.263.263,0,0,1-.134-.491l2.017-1.166a.265.265,0,0,1,.265.459l-2.017,1.164A.27.27,0,0,1,971.417,233.966Z" transform="translate(-971.152 -232.274)" fill="#a90d01"/>
            </g>
            <g id="Grupo_70434" data-name="Grupo 70434" transform="translate(93.377 52.783)">
              <path id="Trazado_107345" data-name="Trazado 107345" d="M972.783,234.757a.265.265,0,0,1-.131-.493l2.017-1.164a.263.263,0,1,1,.263.456l-2.017,1.164A.268.268,0,0,1,972.783,234.757Z" transform="translate(-972.52 -233.064)" fill="#a90d01"/>
            </g>
            <g id="Grupo_70435" data-name="Grupo 70435" transform="translate(94.574 54.605)">
              <path id="Trazado_107346" data-name="Trazado 107346" d="M973.3,236.673a.263.263,0,0,1-.131-.491l3.97-2.294a.27.27,0,0,1,.362.1.266.266,0,0,1-.1.36l-3.972,2.294A.271.271,0,0,1,973.3,236.673Z" transform="translate(-973.039 -233.854)" fill="#a90d01"/>
            </g>
            <g id="Grupo_70436" data-name="Grupo 70436" transform="translate(99.681 56.425)">
              <path id="Trazado_107347" data-name="Trazado 107347" d="M975.518,236.334a.262.262,0,0,1-.228-.131.264.264,0,0,1,.1-.36l2.017-1.166a.268.268,0,0,1,.36.1.265.265,0,0,1-.1.362l-2.017,1.164A.265.265,0,0,1,975.518,236.334Z" transform="translate(-975.255 -234.644)" fill="#a90d01"/>
            </g>
            <g id="Grupo_70437" data-name="Grupo 70437" transform="translate(102.833 58.244)">
              <path id="Trazado_107348" data-name="Trazado 107348" d="M976.887,237.125a.264.264,0,0,1-.134-.493l2.02-1.164a.263.263,0,1,1,.262.456l-2.017,1.167A.309.309,0,0,1,976.887,237.125Z" transform="translate(-976.622 -235.433)" fill="#a90d01"/>
            </g>
            <g id="Grupo_70438" data-name="Grupo 70438" transform="translate(105.985 60.064)">
              <path id="Trazado_107349" data-name="Trazado 107349" d="M978.253,237.914a.263.263,0,0,1-.131-.491l2.017-1.167a.265.265,0,0,1,.265.459l-2.019,1.164A.273.273,0,0,1,978.253,237.914Z" transform="translate(-977.989 -236.222)" fill="#a90d01"/>
            </g>
          </g>
        </g>
        <g id="Grupo_70441" data-name="Grupo 70441" transform="translate(121.811 70.329)">
          <path id="Trazado_107350" data-name="Trazado 107350" d="M979.8,242.6V246.1l7-4.041v-3.495Z" transform="translate(-979.8 -238.563)" fill="#bf7b17"/>
        </g>
      </g>
    </g>
    <g id="Grupo_70450" data-name="Grupo 70450" transform="translate(102.553 52.623)">
      <g id="Grupo_70446" data-name="Grupo 70446" transform="translate(0 18.84)">
        <g id="Grupo_70444" data-name="Grupo 70444">
          <path id="Trazado_107351" data-name="Trazado 107351" d="M914.4,233.7l15.672,4.238,7.341,9.048L914.4,260.278l-23.013-13.287Z" transform="translate(-891.124 -233.439)" fill="#0075a4"/>
          <path id="Trazado_107352" data-name="Trazado 107352" d="M914.55,260.692a.264.264,0,0,1-.131-.035L891.408,247.37a.261.261,0,0,1-.134-.228.264.264,0,0,1,.134-.228l23.011-13.288a.261.261,0,0,1,.2-.028l15.671,4.239a.247.247,0,0,1,.136.088l7.343,9.051a.265.265,0,0,1,.053.214.26.26,0,0,1-.127.18l-23.014,13.287A.265.265,0,0,1,914.55,260.692Zm-22.485-13.55,22.485,12.981,22.615-13.055-7.094-8.744-15.484-4.189Z" transform="translate(-891.274 -233.589)" fill="#fff"/>
        </g>
        <g id="Grupo_70445" data-name="Grupo 70445" transform="translate(6.729 9.406)">
          <path id="Trazado_107353" data-name="Trazado 107353" d="M917.469,251.482a.264.264,0,0,1-.131-.035L894.324,238.16a.265.265,0,0,1-.1-.359.268.268,0,0,1,.361-.1L917.6,250.989a.264.264,0,0,1-.132.493Z" transform="translate(-894.193 -237.669)" fill="#fff"/>
        </g>
      </g>
      <g id="Grupo_70449" data-name="Grupo 70449" transform="translate(32.631)">
        <g id="Grupo_70447" data-name="Grupo 70447">
          <path id="Trazado_107354" data-name="Trazado 107354" d="M928.556,225.532l15.672,4.238,7.341,9.049-23.013,13.287-23.013-13.287Z" transform="translate(-905.28 -225.267)" fill="#0075a4"/>
          <path id="Trazado_107355" data-name="Trazado 107355" d="M928.705,252.518a.275.275,0,0,1-.134-.035L905.56,239.2a.269.269,0,0,1-.131-.231.266.266,0,0,1,.131-.228l23.012-13.285a.253.253,0,0,1,.2-.028l15.673,4.239a.264.264,0,0,1,.136.088l7.34,9.048a.266.266,0,0,1-.071.4l-23.013,13.285A.278.278,0,0,1,928.705,252.518Zm-22.486-13.551,22.486,12.983,22.613-13.057-7.094-8.74-15.482-4.191Z" transform="translate(-905.429 -225.417)" fill="#fff"/>
        </g>
        <g id="Grupo_70448" data-name="Grupo 70448" transform="translate(6.729 9.405)">
          <path id="Trazado_107356" data-name="Trazado 107356" d="M931.623,243.309a.274.274,0,0,1-.132-.035L908.48,229.987a.262.262,0,0,1-.1-.36.266.266,0,0,1,.359-.1l23.013,13.288a.263.263,0,0,1-.133.491Z" transform="translate(-908.348 -229.496)" fill="#fff"/>
        </g>
      </g>
    </g>
  </g>
  <g id="Grupo_70472" data-name="Grupo 70472" transform="translate(97.81 156.845)">
    <g id="Grupo_70471" data-name="Grupo 70471">
      <g id="Grupo_70469" data-name="Grupo 70469">
        <g id="Grupo_70452" data-name="Grupo 70452" transform="translate(13.547 25.834)">
          <path id="Trazado_107357" data-name="Trazado 107357" d="M895.093,281.833v1.288h.563V282.1Z" transform="translate(-895.093 -281.833)" fill="#161313"/>
        </g>
        <g id="Grupo_70453" data-name="Grupo 70453" transform="translate(0.001 18.187)">
          <path id="Trazado_107358" data-name="Trazado 107358" d="M889.217,278.516v1.317l.556.2-.278-1.517Z" transform="translate(-889.217 -278.516)" fill="#161313"/>
        </g>
        <g id="Grupo_70468" data-name="Grupo 70468">
          <g id="Grupo_70454" data-name="Grupo 70454" transform="translate(19.766 0.047)">
            <path id="Trazado_107359" data-name="Trazado 107359" d="M902.141,288.031l11.48-16.946v-.433a4.663,4.663,0,0,0-2.775,1.127c-1.147,1.031-13.054,12.748-13.054,12.748l2.788,1.971L900,287.969Z" transform="translate(-897.791 -270.647)" fill="#5f6a73"/>
          </g>
          <g id="Grupo_70455" data-name="Grupo 70455" transform="translate(19.766)">
            <path id="Trazado_107360" data-name="Trazado 107360" d="M902.141,287.625l11.48-16.946a3.478,3.478,0,0,0-2.775.7c-1.147,1.028-13.054,12.746-13.054,12.746l2.788,1.971L900,287.564Z" transform="translate(-897.791 -270.627)" fill="#d1d1d1"/>
          </g>
          <g id="Grupo_70456" data-name="Grupo 70456" transform="translate(14.234 23.335)">
            <path id="Trazado_107361" data-name="Trazado 107361" d="M895.391,280.9v1.143l1.082-1.3Z" transform="translate(-895.391 -280.749)" fill="#161313"/>
          </g>
          <g id="Grupo_70457" data-name="Grupo 70457" transform="translate(26.253 21.555)">
            <path id="Trazado_107362" data-name="Trazado 107362" d="M901.467,279.977v1.481l-.863-.338Z" transform="translate(-900.605 -279.977)" fill="#161313"/>
          </g>
          <g id="Grupo_70458" data-name="Grupo 70458" transform="translate(17.806 3.943)">
            <path id="Trazado_107363" data-name="Trazado 107363" d="M896.941,282.1l26.946-9.761s.772,1.109-.781,1.943-19.422,9.671-19.422,9.671l-3.854-1.236-2.407.588Z" transform="translate(-896.941 -272.337)" fill="#5f6a73"/>
          </g>
          <g id="Grupo_70459" data-name="Grupo 70459" transform="translate(17.806 3.832)">
            <path id="Trazado_107364" data-name="Trazado 107364" d="M896.941,281.805l26.861-9.516s.858.864-.7,1.7-19.422,9.671-19.422,9.671l-3.854-1.236-2.407.586Z" transform="translate(-896.941 -272.289)" fill="#e1e1e1"/>
          </g>
          <g id="Grupo_70460" data-name="Grupo 70460" transform="translate(22.399 12.215)">
            <path id="Trazado_107365" data-name="Trazado 107365" d="M899.357,277.352a2.256,2.256,0,0,0,2.047,0,.625.625,0,0,0,0-1.183,2.272,2.272,0,0,0-2.047,0A.625.625,0,0,0,899.357,277.352Z" transform="translate(-898.933 -275.925)" fill="#5f6a73"/>
          </g>
          <g id="Grupo_70461" data-name="Grupo 70461" transform="translate(22.399 11.844)">
            <ellipse id="Elipse_4476" data-name="Elipse 4476" cx="1.447" cy="0.836" rx="1.447" ry="0.836" fill="#d1d1d1"/>
          </g>
          <g id="Grupo_70463" data-name="Grupo 70463" transform="translate(22.962 12.216)">
            <g id="Grupo_70462" data-name="Grupo 70462">
              <path id="Trazado_107366" data-name="Trazado 107366" d="M899.363,276.777a.2.2,0,0,0,.062-.011l1.37-.48a.186.186,0,0,0-.124-.35l-1.37.479a.186.186,0,0,0,.062.362Z" transform="translate(-899.177 -275.926)" fill="#5f6a73"/>
            </g>
          </g>
          <g id="Grupo_70464" data-name="Grupo 70464" transform="translate(13.546 16.724)">
            <path id="Trazado_107367" data-name="Trazado 107367" d="M901.6,290.277c.721-.185,4.534-1.321,6.339-3.938s-.281-4.242-.841-4.472-1.847-.742-1.526-1.39a6,6,0,0,1,.964-1.3v-1.3l-3.651,1.042-5.339,5.77-.682.023-1.083,1.229.442.254s-2.248,2.04-.4,3.384S900.876,290.463,901.6,290.277Zm-.978-5.892a10.178,10.178,0,0,1,2.321-1.881s2.748-.66,3.271,1.611-3.953,4.366-3.953,4.366-2.312,1.132-4.014.486C896.718,288.388,899.044,285.876,900.623,284.384Z" transform="translate(-895.093 -277.881)" fill="#161313"/>
          </g>
          <g id="Grupo_70465" data-name="Grupo 70465" transform="translate(0 13.665)">
            <path id="Trazado_107368" data-name="Trazado 107368" d="M891.7,285.023c2.667.754,5.636-.95,5.636-.95l.529.194,1.844-.874L899.6,283l8.619-4.244v-1.3l-1.212-.708a13.776,13.776,0,0,1-1.99.821,3.758,3.758,0,0,1-2.679-.563,11.229,11.229,0,0,0-7.746.48c-4.044,1.579-5.15,3.972-5.309,4.419S889.028,284.269,891.7,285.023Zm.519-1.5c-1.452-.823-.035-2.368-.035-2.368a10.149,10.149,0,0,1,6.544-3.165c3.954-.191,3.424,1.5,3.424,1.5a12.189,12.189,0,0,1-2.686,1.713C897.276,282.411,893.526,284.262,892.216,283.522Z" transform="translate(-889.217 -276.554)" fill="#161313"/>
          </g>
          <g id="Grupo_70466" data-name="Grupo 70466" transform="translate(13.546 16.468)">
            <path id="Trazado_107369" data-name="Trazado 107369" d="M901.6,289.124c.721-.184,4.534-1.319,6.339-3.937s-.281-4.242-.841-4.472-1.847-.742-1.526-1.39a6,6,0,0,1,.964-1.3l-3.651-.256-5.339,5.77-.682.023-1.083,1.229.442.254s-2.248,2.04-.4,3.384S900.876,289.31,901.6,289.124Zm-.978-5.892a10.246,10.246,0,0,1,2.321-1.881s2.748-.659,3.271,1.611-3.953,4.369-3.953,4.369-2.312,1.13-4.014.486C896.718,287.236,899.044,284.723,900.623,283.231Z" transform="translate(-895.093 -277.77)" fill="#354645"/>
          </g>
          <g id="Grupo_70467" data-name="Grupo 70467" transform="translate(0 12.368)">
            <path id="Trazado_107370" data-name="Trazado 107370" d="M891.7,284.46c2.667.754,5.636-.95,5.636-.95l.529.194,1.844-.874-.106-.39,8.619-4.244-1.212-2.006a13.791,13.791,0,0,1-1.99.821,3.757,3.757,0,0,1-2.679-.563,11.223,11.223,0,0,0-7.746.482c-4.044,1.577-5.15,3.972-5.309,4.417S889.028,283.706,891.7,284.46Zm.519-1.5c-1.452-.823-.035-2.368-.035-2.368a10.161,10.161,0,0,1,6.544-3.165c3.954-.191,3.424,1.5,3.424,1.5a12.2,12.2,0,0,1-2.686,1.713C897.276,281.85,893.526,283.7,892.216,282.959Z" transform="translate(-889.217 -275.992)" fill="#354645"/>
          </g>
        </g>
      </g>
      <g id="Grupo_70470" data-name="Grupo 70470" transform="translate(8.644 19.206)">
        <path id="Trazado_107371" data-name="Trazado 107371" d="M894.812,278.958v1.3l-1.846.874v-1.3Z" transform="translate(-892.967 -278.958)" fill="#161313"/>
      </g>
    </g>
  </g>
</svg>
