<svg xmlns="http://www.w3.org/2000/svg" width="85" height="85" viewBox="0 0 85 85">
  <g id="Grupo_1052784" data-name="Grupo 1052784" transform="translate(-653 -3632)">
    <g id="Grupo_1052783" data-name="Grupo 1052783">
      <g id="Grupo_1052782" data-name="Grupo 1052782">
        <g id="Grupo_1052614" data-name="Grupo 1052614" transform="translate(460 8)">
          <g id="Elipse_8045" data-name="Elipse 8045" transform="translate(193 3624)" fill="#fff" stroke="#25ced1" stroke-width="4">
            <circle cx="42.5" cy="42.5" r="42.5" stroke="none"/>
            <circle cx="42.5" cy="42.5" r="40.5" fill="none"/>
          </g>
          <circle id="Elipse_8046" data-name="Elipse 8046" cx="42.5" cy="42.5" r="42.5" transform="translate(193 3624)" fill="#fff" opacity="0.25"/>
          <g id="Grupo_1043287" data-name="Grupo 1043287" transform="translate(210.946 3635.85)">
            <g id="Grupo_70234" data-name="Grupo 70234" transform="translate(33.619)">
              <g id="Grupo_70222" data-name="Grupo 70222" transform="translate(4.374)">
                <path id="Trazado_107191" data-name="Trazado 107191" d="M607.577,198.434l1.419.819,1.419-.819L609,197.614Z" transform="translate(-607.577 -197.614)" fill="#bdd4cf"/>
              </g>
              <g id="Grupo_70233" data-name="Grupo 70233" transform="translate(0 0.819)">
                <g id="Grupo_70223" data-name="Grupo 70223" transform="translate(17.233 41.361)">
                  <path id="Trazado_107192" data-name="Trazado 107192" d="M635.094,291.088l1.419.819V288.7l-1.419-.819Z" transform="translate(-635.094 -287.88)" fill="#9cafab"/>
                </g>
                <g id="Grupo_70224" data-name="Grupo 70224" transform="translate(0.054 30.118)">
                  <path id="Trazado_107193" data-name="Trazado 107193" d="M598.331,265.2l18.6,10.683V274.5l-18.6-10.683Z" transform="translate(-598.331 -263.821)" fill="#9cafab"/>
                </g>
                <g id="Grupo_70227" data-name="Grupo 70227" transform="translate(0.054)">
                  <g id="Grupo_70225" data-name="Grupo 70225" transform="translate(0 29.299)">
                    <path id="Trazado_107194" data-name="Trazado 107194" d="M598.331,262.887l18.6,10.683,1.419-.819-18.6-10.683Z" transform="translate(-598.331 -262.068)" fill="#bdd4cf"/>
                  </g>
                  <g id="Grupo_70226" data-name="Grupo 70226" transform="translate(5.74)">
                    <path id="Trazado_107195" data-name="Trazado 107195" d="M610.613,200.186v32.607l1.419-.819V199.367Z" transform="translate(-610.613 -199.367)" fill="#5b6664"/>
                  </g>
                </g>
                <g id="Grupo_70228" data-name="Grupo 70228" transform="translate(4.374)">
                  <path id="Trazado_107196" data-name="Trazado 107196" d="M607.577,199.367v32.607l1.419.819V200.186Z" transform="translate(-607.577 -199.367)" fill="#9cafab"/>
                </g>
                <g id="Grupo_70229" data-name="Grupo 70229" transform="translate(18.652 39.982)">
                  <path id="Trazado_107197" data-name="Trazado 107197" d="M639.549,284.929v1.379l-1.419.819v-1.379Z" transform="translate(-638.13 -284.929)" fill="#5b6664"/>
                </g>
                <g id="Grupo_70230" data-name="Grupo 70230" transform="translate(18.652 41.361)">
                  <path id="Trazado_107198" data-name="Trazado 107198" d="M638.13,288.7v3.208l1.419-.819V287.88Z" transform="translate(-638.13 -287.88)" fill="#5b6664"/>
                </g>
                <g id="Grupo_70231" data-name="Grupo 70231" transform="translate(0 31.405)">
                  <path id="Trazado_107199" data-name="Trazado 107199" d="M598.331,269.98l1.419.819v-3.208l-1.419-.819Z" transform="translate(-598.277 -266.679)" fill="#fff"/>
                  <path id="Trazado_107200" data-name="Trazado 107200" d="M599.742,270.787l-1.526-.881v-3.331l1.526.881Zm-1.419-.943,1.312.757v-3.085l-1.312-.757Z" transform="translate(-598.216 -266.574)" fill="#231f20"/>
                </g>
                <g id="Grupo_70232" data-name="Grupo 70232" transform="translate(1.419 32.224)">
                  <path id="Trazado_107201" data-name="Trazado 107201" d="M601.367,268.524v3.208l1.419-.819v-1.57Z" transform="translate(-601.314 -268.432)" fill="#fff"/>
                  <path id="Trazado_107202" data-name="Trazado 107202" d="M601.253,271.72v-3.393l1.525.88v1.632Zm.107-3.208v3.023l1.312-.757v-1.508Z" transform="translate(-601.253 -268.327)" fill="#231f20"/>
                </g>
              </g>
            </g>
            <g id="Grupo_70245" data-name="Grupo 70245" transform="translate(5.652 29.661)">
              <g id="Grupo_70236" data-name="Grupo 70236" transform="translate(29.14 1.521)">
                <g id="Grupo_70235" data-name="Grupo 70235">
                  <path id="Trazado_107203" data-name="Trazado 107203" d="M601.272,269.384l6.95-4.012a.55.55,0,1,0-.55-.953l-6.945,4.01A2.522,2.522,0,0,0,601.272,269.384Z" transform="translate(-600.726 -264.345)" fill="#9cafab"/>
                </g>
              </g>
              <g id="Grupo_70244" data-name="Grupo 70244">
                <g id="Grupo_70241" data-name="Grupo 70241" transform="translate(0 15.948)">
                  <g id="Grupo_70239" data-name="Grupo 70239">
                    <g id="Grupo_70237" data-name="Grupo 70237">
                      <path id="Trazado_107204" data-name="Trazado 107204" d="M545.975,302.326c0,2.426-1.7,3.409-3.8,2.2a8.408,8.408,0,0,1-3.8-6.589c0-2.426,1.7-3.409,3.8-2.2A8.408,8.408,0,0,1,545.975,302.326Z" transform="translate(-538.367 -295.218)" fill="#0075a4"/>
                    </g>
                    <g id="Grupo_70238" data-name="Grupo 70238" transform="translate(2.745 3.544)">
                      <path id="Trazado_107205" data-name="Trazado 107205" d="M546.359,304.782c0,.675-.474.949-1.059.612a2.342,2.342,0,0,1-1.059-1.835c0-.676.474-.95,1.059-.612A2.342,2.342,0,0,1,546.359,304.782Z" transform="translate(-544.241 -302.802)" fill="#5b6664"/>
                    </g>
                  </g>
                  <g id="Grupo_70240" data-name="Grupo 70240" transform="translate(2.745 3.551)">
                    <path id="Trazado_107206" data-name="Trazado 107206" d="M546.02,304.875a2.338,2.338,0,0,1-1.059-1.834,1.207,1.207,0,0,1,.019-.208c-.427-.089-.739.188-.739.734A2.342,2.342,0,0,0,545.3,305.4c.52.3.95.115,1.04-.4A1.071,1.071,0,0,1,546.02,304.875Z" transform="translate(-544.241 -302.816)" fill="#9cafab"/>
                  </g>
                </g>
                <g id="Grupo_70243" data-name="Grupo 70243" transform="translate(1.116)">
                  <g id="Grupo_70242" data-name="Grupo 70242">
                    <path id="Trazado_107207" data-name="Trazado 107207" d="M574.862,268.2a8.407,8.407,0,0,0-3.8-6.589,2.7,2.7,0,0,0-2.648-.286l0,0-.032.019-.015.008-27.606,15.943a2.676,2.676,0,0,1,2.688.267,8.409,8.409,0,0,1,3.8,6.589,2.723,2.723,0,0,1-1.033,2.407l0,0,27.477-15.871c.036-.019.071-.039.105-.061l.061-.035,0-.005A2.743,2.743,0,0,0,574.862,268.2Z" transform="translate(-540.755 -261.09)" fill="#003950"/>
                  </g>
                </g>
              </g>
            </g>
            <g id="Grupo_70256" data-name="Grupo 70256" transform="translate(5.652 20.043)">
              <g id="Grupo_70247" data-name="Grupo 70247" transform="translate(29.14 1.521)">
                <g id="Grupo_70246" data-name="Grupo 70246">
                  <path id="Trazado_107208" data-name="Trazado 107208" d="M601.272,248.8l6.95-4.013a.55.55,0,0,0-.55-.953l-6.945,4.01A2.529,2.529,0,0,0,601.272,248.8Z" transform="translate(-600.726 -243.763)" fill="#9cafab"/>
                </g>
              </g>
              <g id="Grupo_70255" data-name="Grupo 70255">
                <g id="Grupo_70252" data-name="Grupo 70252" transform="translate(0 15.948)">
                  <g id="Grupo_70250" data-name="Grupo 70250">
                    <g id="Grupo_70248" data-name="Grupo 70248">
                      <path id="Trazado_107209" data-name="Trazado 107209" d="M545.975,281.743c0,2.426-1.7,3.409-3.8,2.2a8.41,8.41,0,0,1-3.8-6.589c0-2.426,1.7-3.409,3.8-2.2A8.407,8.407,0,0,1,545.975,281.743Z" transform="translate(-538.367 -274.635)" fill="#25ced1"/>
                    </g>
                    <g id="Grupo_70249" data-name="Grupo 70249" transform="translate(2.745 3.544)">
                      <path id="Trazado_107210" data-name="Trazado 107210" d="M546.359,284.2c0,.676-.474.95-1.059.612a2.341,2.341,0,0,1-1.059-1.835c0-.675.474-.949,1.059-.612A2.342,2.342,0,0,1,546.359,284.2Z" transform="translate(-544.241 -282.22)" fill="#5b6664"/>
                    </g>
                  </g>
                  <g id="Grupo_70251" data-name="Grupo 70251" transform="translate(2.745 3.551)">
                    <path id="Trazado_107211" data-name="Trazado 107211" d="M546.02,284.293a2.34,2.34,0,0,1-1.059-1.835,1.2,1.2,0,0,1,.019-.208c-.427-.089-.739.187-.739.733a2.342,2.342,0,0,0,1.059,1.835c.52.3.95.115,1.04-.4A1.057,1.057,0,0,1,546.02,284.293Z" transform="translate(-544.241 -282.234)" fill="#9cafab"/>
                  </g>
                </g>
                <g id="Grupo_70254" data-name="Grupo 70254" transform="translate(1.116)">
                  <g id="Grupo_70253" data-name="Grupo 70253">
                    <path id="Trazado_107212" data-name="Trazado 107212" d="M574.862,247.614a8.409,8.409,0,0,0-3.8-6.589,2.7,2.7,0,0,0-2.648-.286l0,0-.032.019-.015.009-27.606,15.943a2.675,2.675,0,0,1,2.688.267,8.407,8.407,0,0,1,3.8,6.589,2.723,2.723,0,0,1-1.033,2.406l0,0L573.693,250.1c.036-.019.071-.039.105-.061l.061-.036,0-.005A2.742,2.742,0,0,0,574.862,247.614Z" transform="translate(-540.755 -240.507)" fill="#046163"/>
                  </g>
                </g>
              </g>
            </g>
            <g id="Grupo_70267" data-name="Grupo 70267" transform="translate(5.652 10.425)">
              <g id="Grupo_70258" data-name="Grupo 70258" transform="translate(29.14 1.521)">
                <g id="Grupo_70257" data-name="Grupo 70257">
                  <path id="Trazado_107213" data-name="Trazado 107213" d="M601.272,228.219l6.95-4.012a.55.55,0,1,0-.55-.953l-6.945,4.01A2.522,2.522,0,0,0,601.272,228.219Z" transform="translate(-600.726 -223.18)" fill="#9cafab"/>
                </g>
              </g>
              <g id="Grupo_70266" data-name="Grupo 70266">
                <g id="Grupo_70263" data-name="Grupo 70263" transform="translate(0 15.948)">
                  <g id="Grupo_70261" data-name="Grupo 70261">
                    <g id="Grupo_70259" data-name="Grupo 70259">
                      <path id="Trazado_107214" data-name="Trazado 107214" d="M545.975,261.161c0,2.426-1.7,3.409-3.8,2.2a8.409,8.409,0,0,1-3.8-6.589c0-2.426,1.7-3.409,3.8-2.2A8.408,8.408,0,0,1,545.975,261.161Z" transform="translate(-538.367 -254.053)" fill="#ff8a5b"/>
                    </g>
                    <g id="Grupo_70260" data-name="Grupo 70260" transform="translate(2.745 3.544)">
                      <path id="Trazado_107215" data-name="Trazado 107215" d="M546.359,263.617c0,.675-.474.949-1.059.611a2.34,2.34,0,0,1-1.059-1.834c0-.676.474-.95,1.059-.612A2.342,2.342,0,0,1,546.359,263.617Z" transform="translate(-544.241 -261.637)" fill="#5b6664"/>
                    </g>
                  </g>
                  <g id="Grupo_70262" data-name="Grupo 70262" transform="translate(2.745 3.551)">
                    <path id="Trazado_107216" data-name="Trazado 107216" d="M546.02,263.71a2.338,2.338,0,0,1-1.059-1.835,1.205,1.205,0,0,1,.019-.208c-.427-.089-.739.188-.739.733a2.34,2.34,0,0,0,1.059,1.835c.52.3.95.115,1.04-.4A1.072,1.072,0,0,1,546.02,263.71Z" transform="translate(-544.241 -261.651)" fill="#9cafab"/>
                  </g>
                </g>
                <g id="Grupo_70265" data-name="Grupo 70265" transform="translate(1.116)">
                  <g id="Grupo_70264" data-name="Grupo 70264">
                    <path id="Trazado_107217" data-name="Trazado 107217" d="M574.862,227.031a8.407,8.407,0,0,0-3.8-6.588,2.7,2.7,0,0,0-2.648-.286l0,0-.032.019-.015.008-27.606,15.943a2.675,2.675,0,0,1,2.688.267,8.408,8.408,0,0,1,3.8,6.589,2.723,2.723,0,0,1-1.033,2.407l0,0,27.477-15.871c.036-.019.071-.039.105-.061l.061-.035,0-.005A2.743,2.743,0,0,0,574.862,227.031Z" transform="translate(-540.755 -219.925)" fill="#ff6324"/>
                  </g>
                </g>
              </g>
            </g>
            <g id="Grupo_70278" data-name="Grupo 70278" transform="translate(5.652 0.807)">
              <g id="Grupo_70269" data-name="Grupo 70269" transform="translate(29.14 1.521)">
                <g id="Grupo_70268" data-name="Grupo 70268">
                  <path id="Trazado_107218" data-name="Trazado 107218" d="M601.272,207.637l6.95-4.013a.55.55,0,0,0-.55-.953l-6.945,4.01A2.527,2.527,0,0,0,601.272,207.637Z" transform="translate(-600.726 -202.598)" fill="#9cafab"/>
                </g>
              </g>
              <g id="Grupo_70277" data-name="Grupo 70277">
                <g id="Grupo_70274" data-name="Grupo 70274" transform="translate(0 15.948)">
                  <g id="Grupo_70272" data-name="Grupo 70272">
                    <g id="Grupo_70270" data-name="Grupo 70270">
                      <path id="Trazado_107219" data-name="Trazado 107219" d="M545.975,240.578c0,2.426-1.7,3.409-3.8,2.2a8.41,8.41,0,0,1-3.8-6.589c0-2.426,1.7-3.409,3.8-2.2A8.407,8.407,0,0,1,545.975,240.578Z" transform="translate(-538.367 -233.47)" fill="#ea526f"/>
                    </g>
                    <g id="Grupo_70271" data-name="Grupo 70271" transform="translate(2.745 3.544)">
                      <path id="Trazado_107220" data-name="Trazado 107220" d="M546.359,243.034c0,.676-.474.95-1.059.612a2.342,2.342,0,0,1-1.059-1.835c0-.675.474-.949,1.059-.612A2.342,2.342,0,0,1,546.359,243.034Z" transform="translate(-544.241 -241.055)" fill="#5b6664"/>
                    </g>
                  </g>
                  <g id="Grupo_70273" data-name="Grupo 70273" transform="translate(2.745 3.551)">
                    <path id="Trazado_107221" data-name="Trazado 107221" d="M546.02,243.128a2.34,2.34,0,0,1-1.059-1.835,1.2,1.2,0,0,1,.019-.208c-.427-.089-.739.187-.739.733a2.342,2.342,0,0,0,1.059,1.835c.52.3.95.115,1.04-.4A1.057,1.057,0,0,1,546.02,243.128Z" transform="translate(-544.241 -241.069)" fill="#9cafab"/>
                  </g>
                </g>
                <g id="Grupo_70276" data-name="Grupo 70276" transform="translate(1.116)">
                  <g id="Grupo_70275" data-name="Grupo 70275">
                    <path id="Trazado_107222" data-name="Trazado 107222" d="M574.862,206.449a8.408,8.408,0,0,0-3.8-6.589,2.7,2.7,0,0,0-2.648-.286l0,0-.032.019-.015.009-27.606,15.943a2.674,2.674,0,0,1,2.688.267,8.407,8.407,0,0,1,3.8,6.588,2.723,2.723,0,0,1-1.033,2.407l0,0,27.477-15.871c.036-.019.071-.04.105-.061l.061-.036,0-.005A2.742,2.742,0,0,0,574.862,206.449Z" transform="translate(-540.755 -199.342)" fill="#981d34"/>
                  </g>
                </g>
              </g>
            </g>
            <g id="Grupo_70291" data-name="Grupo 70291" transform="translate(0 19.444)">
              <g id="Grupo_70279" data-name="Grupo 70279" transform="translate(4.321)">
                <path id="Trazado_107223" data-name="Trazado 107223" d="M535.518,240.043l1.419.819,1.419-.819-1.419-.819Z" transform="translate(-535.518 -239.224)" fill="#bdd4cf"/>
              </g>
              <g id="Grupo_70290" data-name="Grupo 70290" transform="translate(0 0.819)">
                <g id="Grupo_70280" data-name="Grupo 70280" transform="translate(17.179 41.361)">
                  <path id="Trazado_107224" data-name="Trazado 107224" d="M563.035,332.7l1.419.819v-3.208l-1.419-.819Z" transform="translate(-563.035 -329.489)" fill="#9cafab"/>
                </g>
                <g id="Grupo_70281" data-name="Grupo 70281" transform="translate(0 30.118)">
                  <path id="Trazado_107225" data-name="Trazado 107225" d="M526.271,306.809l18.6,10.683v-1.379l-18.6-10.683Z" transform="translate(-526.271 -305.43)" fill="#9cafab"/>
                </g>
                <g id="Grupo_70284" data-name="Grupo 70284">
                  <g id="Grupo_70282" data-name="Grupo 70282" transform="translate(0 29.299)">
                    <path id="Trazado_107226" data-name="Trazado 107226" d="M526.271,304.5l18.6,10.683,1.419-.819-18.6-10.683Z" transform="translate(-526.271 -303.677)" fill="#bdd4cf"/>
                  </g>
                  <g id="Grupo_70283" data-name="Grupo 70283" transform="translate(5.739)">
                    <path id="Trazado_107227" data-name="Trazado 107227" d="M538.554,241.8V274.4l1.419-.819V240.977Z" transform="translate(-538.554 -240.977)" fill="#5b6664"/>
                  </g>
                </g>
                <g id="Grupo_70285" data-name="Grupo 70285" transform="translate(4.321)">
                  <path id="Trazado_107228" data-name="Trazado 107228" d="M535.518,240.977v32.607l1.419.819V241.8Z" transform="translate(-535.518 -240.977)" fill="#9cafab"/>
                </g>
                <g id="Grupo_70286" data-name="Grupo 70286" transform="translate(18.598 39.982)">
                  <path id="Trazado_107229" data-name="Trazado 107229" d="M567.49,326.538v1.379l-1.419.819v-1.379Z" transform="translate(-566.071 -326.538)" fill="#5b6664"/>
                </g>
                <g id="Grupo_70287" data-name="Grupo 70287" transform="translate(18.598 41.361)">
                  <path id="Trazado_107230" data-name="Trazado 107230" d="M566.071,330.308v3.208l1.419-.819v-3.208Z" transform="translate(-566.071 -329.489)" fill="#5b6664"/>
                </g>
                <g id="Grupo_70288" data-name="Grupo 70288" transform="translate(0 31.497)">
                  <path id="Trazado_107231" data-name="Trazado 107231" d="M526.271,311.589l1.419.819V309.2l-1.419-.819Z" transform="translate(-526.271 -308.381)" fill="#9cafab"/>
                </g>
                <g id="Grupo_70289" data-name="Grupo 70289" transform="translate(1.419 32.316)">
                  <path id="Trazado_107232" data-name="Trazado 107232" d="M529.307,310.134v3.208l1.419-.819v-1.57Z" transform="translate(-529.307 -310.134)" fill="#5b6664"/>
                </g>
              </g>
            </g>
            <g id="Grupo_70300" data-name="Grupo 70300" transform="translate(2.652 20.792)">
              <g id="Grupo_70293" data-name="Grupo 70293" transform="translate(0 28.854)">
                <g id="Grupo_70292" data-name="Grupo 70292">
                  <path id="Trazado_107233" data-name="Trazado 107233" d="M539.172,303.856l-6.95,4.013a.55.55,0,0,0,.55.953l6.945-4.01A2.522,2.522,0,0,0,539.172,303.856Z" transform="translate(-531.948 -303.856)" fill="#bdd4cf"/>
                </g>
              </g>
              <g id="Grupo_70295" data-name="Grupo 70295" transform="translate(0 19.236)">
                <g id="Grupo_70294" data-name="Grupo 70294">
                  <path id="Trazado_107234" data-name="Trazado 107234" d="M539.172,283.274l-6.95,4.013a.55.55,0,1,0,.55.952l6.945-4.01A2.517,2.517,0,0,0,539.172,283.274Z" transform="translate(-531.948 -283.274)" fill="#bdd4cf"/>
                </g>
              </g>
              <g id="Grupo_70297" data-name="Grupo 70297" transform="translate(0 9.618)">
                <g id="Grupo_70296" data-name="Grupo 70296">
                  <path id="Trazado_107235" data-name="Trazado 107235" d="M539.172,262.691l-6.95,4.013a.55.55,0,0,0,.55.953l6.945-4.01A2.522,2.522,0,0,0,539.172,262.691Z" transform="translate(-531.948 -262.691)" fill="#bdd4cf"/>
                </g>
              </g>
              <g id="Grupo_70299" data-name="Grupo 70299">
                <g id="Grupo_70298" data-name="Grupo 70298">
                  <path id="Trazado_107236" data-name="Trazado 107236" d="M539.172,242.109l-6.95,4.012a.55.55,0,1,0,.55.953l6.945-4.01A2.516,2.516,0,0,0,539.172,242.109Z" transform="translate(-531.948 -242.109)" fill="#bdd4cf"/>
                </g>
              </g>
            </g>
          </g>
        </g>
      </g>
    </g>
  </g>
</svg>
