<svg xmlns="http://www.w3.org/2000/svg" width="85" height="85" viewBox="0 0 85 85">
  <g id="Grupo_1052789" data-name="Grupo 1052789" transform="translate(-1010 -3632)">
    <g id="Grupo_1052788" data-name="Grupo 1052788">
      <g id="Grupo_1052787" data-name="Grupo 1052787">
        <g id="Grupo_1052786" data-name="Grupo 1052786">
          <g id="Grupo_1052785" data-name="Grupo 1052785">
            <g id="Grupo_1052618" data-name="Grupo 1052618" transform="translate(817 -374)">
              <g id="Elipse_8050" data-name="Elipse 8050" transform="translate(193 4006)" fill="#fff" stroke="#25ced1" stroke-width="4">
                <circle cx="42.5" cy="42.5" r="42.5" stroke="none"/>
                <circle cx="42.5" cy="42.5" r="40.5" fill="none"/>
              </g>
              <g id="Grupo_1043321" data-name="Grupo 1043321" transform="translate(207.882 4020.585)">
                <g id="Grupo_70370" data-name="Grupo 70370">
                  <g id="Grupo_70315" data-name="Grupo 70315" transform="translate(31.082 11.629)">
                    <g id="Grupo_70305" data-name="Grupo 70305" transform="translate(0 9.957)">
                      <g id="Grupo_70302" data-name="Grupo 70302" transform="translate(0 0.601)">
                        <path id="Trazado_107237" data-name="Trazado 107237" d="M757.186,251.892v1.06l25.153,14.52v-1.06Z" transform="translate(-757.186 -251.892)" fill="#9cafab"/>
                      </g>
                      <g id="Grupo_70303" data-name="Grupo 70303">
                        <path id="Trazado_107238" data-name="Trazado 107238" d="M757.186,250.789l1.041-.6,25.153,14.52-1.041.6Z" transform="translate(-757.186 -250.188)" fill="#bdd4cf"/>
                      </g>
                      <g id="Grupo_70304" data-name="Grupo 70304" transform="translate(25.153 14.52)">
                        <path id="Trazado_107239" data-name="Trazado 107239" d="M828.524,293.031l1.041-.595V291.37l-1.041.6Z" transform="translate(-828.524 -291.37)" fill="#5b6664"/>
                      </g>
                    </g>
                    <g id="Grupo_70308" data-name="Grupo 70308" transform="translate(3.614)">
                      <g id="Grupo_70306" data-name="Grupo 70306">
                        <path id="Trazado_107240" data-name="Trazado 107240" d="M768.254,222.551v12.431l-.7-.406V222.145Z" transform="translate(-767.51 -222.075)" fill="#fff"/>
                        <path id="Trazado_107241" data-name="Trazado 107241" d="M768.22,234.924l-.784-.453V221.947l.784.453Zm-.7-.5.623.36V222.446l-.623-.36Z" transform="translate(-767.436 -221.947)" fill="#231f20"/>
                      </g>
                      <g id="Grupo_70307" data-name="Grupo 70307" transform="translate(0.704)">
                        <path id="Trazado_107242" data-name="Trazado 107242" d="M770.25,222.145v12.431l-.7.406V222.551Z" transform="translate(-769.506 -222.075)" fill="#fff"/>
                        <path id="Trazado_107243" data-name="Trazado 107243" d="M769.432,234.924V222.4l.784-.453v12.524Zm.08-12.477v12.338l.623-.36V222.086Z" transform="translate(-769.432 -221.947)" fill="#231f20"/>
                      </g>
                    </g>
                    <g id="Grupo_70311" data-name="Grupo 70311" transform="translate(11.823 4.728)">
                      <g id="Grupo_70309" data-name="Grupo 70309">
                        <path id="Trazado_107244" data-name="Trazado 107244" d="M791.536,235.96v12.431l-.7-.406V235.554Z" transform="translate(-790.792 -235.484)" fill="#fff"/>
                        <path id="Trazado_107245" data-name="Trazado 107245" d="M791.5,248.333l-.784-.453V235.356l.784.453Zm-.7-.5.623.36V235.855l-.623-.36Z" transform="translate(-790.718 -235.356)" fill="#231f20"/>
                      </g>
                      <g id="Grupo_70310" data-name="Grupo 70310" transform="translate(0.703)">
                        <path id="Trazado_107246" data-name="Trazado 107246" d="M793.531,235.554v12.431l-.7.406V235.96Z" transform="translate(-792.787 -235.484)" fill="#fff"/>
                        <path id="Trazado_107247" data-name="Trazado 107247" d="M792.713,248.333V235.809l.785-.453V247.88Zm.081-12.477v12.338l.623-.36V235.5Z" transform="translate(-792.713 -235.356)" fill="#231f20"/>
                      </g>
                    </g>
                    <g id="Grupo_70314" data-name="Grupo 70314" transform="translate(20.072 9.526)">
                      <g id="Grupo_70312" data-name="Grupo 70312">
                        <path id="Trazado_107248" data-name="Trazado 107248" d="M814.818,249.37V261.8l-.7-.406V248.964Z" transform="translate(-814.114 -248.964)" fill="#9cafab"/>
                      </g>
                      <g id="Grupo_70313" data-name="Grupo 70313" transform="translate(0.704)">
                        <path id="Trazado_107249" data-name="Trazado 107249" d="M816.813,248.964v12.431l-.7.406V249.37Z" transform="translate(-816.11 -248.964)" fill="#5b6664"/>
                      </g>
                    </g>
                  </g>
                  <g id="Grupo_70329" data-name="Grupo 70329" transform="translate(0 29.636)">
                    <g id="Grupo_70319" data-name="Grupo 70319" transform="translate(0 9.888)">
                      <g id="Grupo_70316" data-name="Grupo 70316" transform="translate(0 0.601)">
                        <path id="Trazado_107250" data-name="Trazado 107250" d="M669.033,302.765v1.06l25.153,14.52v-1.06Z" transform="translate(-669.033 -302.765)" fill="#9cafab"/>
                      </g>
                      <g id="Grupo_70317" data-name="Grupo 70317">
                        <path id="Trazado_107251" data-name="Trazado 107251" d="M669.033,301.662l1.041-.6,25.153,14.52-1.041.6Z" transform="translate(-669.033 -301.061)" fill="#bdd4cf"/>
                      </g>
                      <g id="Grupo_70318" data-name="Grupo 70318" transform="translate(25.153 14.52)">
                        <path id="Trazado_107252" data-name="Trazado 107252" d="M740.371,343.9l1.041-.595v-1.067l-1.041.6Z" transform="translate(-740.371 -342.243)" fill="#5b6664"/>
                      </g>
                    </g>
                    <g id="Grupo_70322" data-name="Grupo 70322" transform="translate(3.654)">
                      <g id="Grupo_70320" data-name="Grupo 70320">
                        <path id="Trazado_107253" data-name="Trazado 107253" d="M680.1,273.424v12.431l-.7-.406V273.017Z" transform="translate(-679.397 -273.017)" fill="#9cafab"/>
                      </g>
                      <g id="Grupo_70321" data-name="Grupo 70321" transform="translate(0.704)">
                        <path id="Trazado_107254" data-name="Trazado 107254" d="M682.1,273.017v12.431l-.7.406V273.424Z" transform="translate(-681.393 -273.017)" fill="#5b6664"/>
                      </g>
                    </g>
                    <g id="Grupo_70325" data-name="Grupo 70325" transform="translate(11.863 4.728)">
                      <g id="Grupo_70323" data-name="Grupo 70323">
                        <path id="Trazado_107255" data-name="Trazado 107255" d="M703.383,286.833v12.431l-.7-.406V286.427Z" transform="translate(-702.679 -286.427)" fill="#9cafab"/>
                      </g>
                      <g id="Grupo_70324" data-name="Grupo 70324" transform="translate(0.704)">
                        <path id="Trazado_107256" data-name="Trazado 107256" d="M705.379,286.427v12.431l-.7.406V286.833Z" transform="translate(-704.675 -286.427)" fill="#5b6664"/>
                      </g>
                    </g>
                    <g id="Grupo_70328" data-name="Grupo 70328" transform="translate(20.072 9.456)">
                      <g id="Grupo_70326" data-name="Grupo 70326">
                        <path id="Trazado_107257" data-name="Trazado 107257" d="M726.665,300.243v12.431l-.7-.406V299.836Z" transform="translate(-725.961 -299.836)" fill="#9cafab"/>
                      </g>
                      <g id="Grupo_70327" data-name="Grupo 70327" transform="translate(0.704)">
                        <path id="Trazado_107258" data-name="Trazado 107258" d="M728.66,299.836v12.431l-.7.406V300.243Z" transform="translate(-727.957 -299.836)" fill="#5b6664"/>
                      </g>
                    </g>
                  </g>
                  <g id="Grupo_70333" data-name="Grupo 70333" transform="translate(31.042 8.284)">
                    <g id="Grupo_70330" data-name="Grupo 70330" transform="translate(0 0.531)">
                      <path id="Trazado_107259" data-name="Trazado 107259" d="M757.186,214.164v1.06l25.153,14.52v-1.06Z" transform="translate(-757.146 -214.094)" fill="#fff"/>
                      <path id="Trazado_107260" data-name="Trazado 107260" d="M782.306,229.686l-.061-.035-25.173-14.532v-1.153l.06.035,25.173,14.532Zm-25.153-14.613,25.073,14.474v-.967l-25.073-14.474Z" transform="translate(-757.072 -213.966)" fill="#231f20"/>
                    </g>
                    <g id="Grupo_70331" data-name="Grupo 70331" transform="translate(0.04)">
                      <path id="Trazado_107261" data-name="Trazado 107261" d="M757.186,213.06l1.041-.6,25.153,14.52-1.041.6Z" transform="translate(-757.186 -212.459)" fill="#bdd4cf"/>
                    </g>
                    <g id="Grupo_70332" data-name="Grupo 70332" transform="translate(25.193 14.52)">
                      <path id="Trazado_107262" data-name="Trazado 107262" d="M828.524,255.3l1.041-.595v-1.066l-1.041.6Z" transform="translate(-828.524 -253.642)" fill="#5b6664"/>
                    </g>
                  </g>
                  <g id="Grupo_70340" data-name="Grupo 70340" transform="translate(1.041 8.885)">
                    <g id="Grupo_70336" data-name="Grupo 70336">
                      <g id="Grupo_70334" data-name="Grupo 70334" transform="translate(12.159 7.02)">
                        <path id="Trazado_107263" data-name="Trazado 107263" d="M736.513,235.134l-30.042,17.343v-1.06l30.042-17.343Z" transform="translate(-706.472 -234.074)" fill="#b3a584"/>
                      </g>
                      <g id="Grupo_70335" data-name="Grupo 70335">
                        <path id="Trazado_107264" data-name="Trazado 107264" d="M714.187,221.183l-30.042,17.343-12.159-7.02,30.042-17.343Z" transform="translate(-671.986 -214.163)" fill="#f3e8cc"/>
                      </g>
                    </g>
                    <g id="Grupo_70339" data-name="Grupo 70339" transform="translate(12.994 7.5)">
                      <g id="Grupo_70337" data-name="Grupo 70337" transform="translate(12.159 7.02)">
                        <path id="Trazado_107265" data-name="Trazado 107265" d="M773.365,256.405l-30.042,17.343v-1.06l30.042-17.343Z" transform="translate(-743.324 -255.345)" fill="#b3a584"/>
                      </g>
                      <g id="Grupo_70338" data-name="Grupo 70338">
                        <path id="Trazado_107266" data-name="Trazado 107266" d="M751.039,242.455,721,259.8l-12.159-7.02,30.042-17.343Z" transform="translate(-708.838 -235.434)" fill="#f3e8cc"/>
                      </g>
                    </g>
                  </g>
                  <g id="Grupo_70343" data-name="Grupo 70343" transform="translate(33.693 0.079)">
                    <g id="Grupo_70342" data-name="Grupo 70342">
                      <g id="Grupo_70341" data-name="Grupo 70341">
                        <path id="Trazado_107267" data-name="Trazado 107267" d="M768.988,202.222a.229.229,0,0,1-.115-.031l-4.167-2.406a.229.229,0,0,1-.115-.2V189.416a.229.229,0,1,1,.458,0v10.038l4.053,2.339a.229.229,0,0,1-.115.428Z" transform="translate(-764.592 -189.187)" fill="#9cafab"/>
                      </g>
                    </g>
                  </g>
                  <g id="Grupo_70344" data-name="Grupo 70344" transform="translate(3.592 2.623)">
                    <path id="Trazado_107268" data-name="Trazado 107268" d="M714.191,208.172a16.533,16.533,0,0,1-6.929-7.8l-1.7-3.968L679.22,211.58l1.7,3.968a16.538,16.538,0,0,0,6.929,7.8l10.478,6.049,26.34-15.178Z" transform="translate(-679.22 -196.402)" fill="#0075a4"/>
                  </g>
                  <g id="Grupo_70348" data-name="Grupo 70348" transform="translate(0 26.221)">
                    <g id="Grupo_70345" data-name="Grupo 70345" transform="translate(0 0.601)">
                      <path id="Trazado_107269" data-name="Trazado 107269" d="M669.033,265.036v1.06l25.153,14.52v-1.06Z" transform="translate(-669.033 -265.036)" fill="#9cafab"/>
                    </g>
                    <g id="Grupo_70346" data-name="Grupo 70346">
                      <path id="Trazado_107270" data-name="Trazado 107270" d="M669.033,263.933l1.041-.6,25.153,14.52-1.041.6Z" transform="translate(-669.033 -263.332)" fill="#bdd4cf"/>
                    </g>
                    <g id="Grupo_70347" data-name="Grupo 70347" transform="translate(25.153 14.52)">
                      <path id="Trazado_107271" data-name="Trazado 107271" d="M740.371,306.176l1.041-.595v-1.067l-1.041.6Z" transform="translate(-740.371 -304.515)" fill="#5b6664"/>
                    </g>
                  </g>
                  <g id="Grupo_70359" data-name="Grupo 70359" transform="translate(3.355)">
                    <g id="Grupo_70350" data-name="Grupo 70350" transform="translate(27.126 0.787)">
                      <g id="Grupo_70349" data-name="Grupo 70349">
                        <path id="Trazado_107272" data-name="Trazado 107272" d="M755.765,193.8l3.6-2.076a.285.285,0,0,0-.142-.531.287.287,0,0,0-.142.038l-3.594,2.075A1.3,1.3,0,0,0,755.765,193.8Z" transform="translate(-755.483 -191.197)" fill="#bdd4cf"/>
                      </g>
                    </g>
                    <g id="Grupo_70358" data-name="Grupo 70358">
                      <g id="Grupo_70355" data-name="Grupo 70355" transform="translate(0 15.178)">
                        <g id="Grupo_70353" data-name="Grupo 70353">
                          <g id="Grupo_70351" data-name="Grupo 70351">
                            <path id="Trazado_107273" data-name="Trazado 107273" d="M682.486,235.691c0,1.256-.881,1.764-1.969,1.137a4.352,4.352,0,0,1-1.969-3.41c0-1.255.882-1.764,1.969-1.136A4.351,4.351,0,0,1,682.486,235.691Z" transform="translate(-678.549 -232.013)" fill="#118dbf"/>
                          </g>
                          <g id="Grupo_70352" data-name="Grupo 70352" transform="translate(1.421 1.834)">
                            <path id="Trazado_107274" data-name="Trazado 107274" d="M683.674,238.239c0,.35-.245.491-.548.317a1.212,1.212,0,0,1-.548-.949c0-.349.245-.491.548-.316A1.211,1.211,0,0,1,683.674,238.239Z" transform="translate(-682.578 -237.215)" fill="#440301"/>
                          </g>
                        </g>
                        <g id="Grupo_70354" data-name="Grupo 70354" transform="translate(1.421 1.837)">
                          <path id="Trazado_107275" data-name="Trazado 107275" d="M683.5,238.289a1.211,1.211,0,0,1-.548-.95.634.634,0,0,1,.01-.108c-.221-.046-.382.1-.382.379a1.212,1.212,0,0,0,.548.949c.269.155.492.06.538-.209A.563.563,0,0,1,683.5,238.289Z" transform="translate(-682.578 -237.224)" fill="#a90d01"/>
                        </g>
                      </g>
                      <g id="Grupo_70357" data-name="Grupo 70357" transform="translate(0.578)">
                        <g id="Grupo_70356" data-name="Grupo 70356">
                          <path id="Trazado_107276" data-name="Trazado 107276" d="M709.884,192.641a4.351,4.351,0,0,0-1.969-3.41,1.394,1.394,0,0,0-1.37-.148h0l-.017.01-.008,0-26.333,15.176a1.384,1.384,0,0,1,1.391.138,4.35,4.35,0,0,1,1.968,3.41,1.409,1.409,0,0,1-.534,1.245v0l26.265-15.138.054-.031.032-.018v0A1.419,1.419,0,0,0,709.884,192.641Z" transform="translate(-680.187 -188.964)" fill="#035b7e"/>
                        </g>
                      </g>
                    </g>
                  </g>
                  <g id="Grupo_70361" data-name="Grupo 70361" transform="translate(3.653 17.462)">
                    <g id="Grupo_70360" data-name="Grupo 70360">
                      <path id="Trazado_107277" data-name="Trazado 107277" d="M683.788,251.525a.231.231,0,0,1-.114-.03l-4.167-2.406a.229.229,0,0,1-.115-.2V238.72a.229.229,0,1,1,.458,0v10.038L683.9,251.1a.229.229,0,0,1-.115.428Z" transform="translate(-679.392 -238.49)" fill="#9cafab"/>
                    </g>
                  </g>
                  <g id="Grupo_70363" data-name="Grupo 70363" transform="translate(1.803 17.267)">
                    <g id="Grupo_70362" data-name="Grupo 70362">
                      <path id="Trazado_107278" data-name="Trazado 107278" d="M677.885,237.937l-3.6,2.076a.285.285,0,0,0,.285.493l3.594-2.075A1.3,1.3,0,0,0,677.885,237.937Z" transform="translate(-674.147 -237.937)" fill="#bdd4cf"/>
                    </g>
                  </g>
                  <g id="Grupo_70365" data-name="Grupo 70365" transform="translate(33.854 5.023)">
                    <g id="Grupo_70364" data-name="Grupo 70364">
                      <path id="Trazado_107279" data-name="Trazado 107279" d="M770.393,206.614a.225.225,0,0,1-.113-.03l-5.118-2.955a.225.225,0,0,1,.225-.39l5.119,2.955a.225.225,0,0,1-.112.42Z" transform="translate(-765.049 -203.209)" fill="#5b6664"/>
                    </g>
                  </g>
                  <g id="Grupo_70367" data-name="Grupo 70367" transform="translate(8.944 7.98)">
                    <g id="Grupo_70366" data-name="Grupo 70366">
                      <path id="Trazado_107280" data-name="Trazado 107280" d="M694.626,229.429a.226.226,0,0,0,.112-.03l30.028-17.382a.225.225,0,0,0-.225-.39l-30.028,17.382a.225.225,0,0,0,.112.42Z" transform="translate(-694.401 -211.597)" fill="#9cafab"/>
                    </g>
                  </g>
                  <g id="Grupo_70369" data-name="Grupo 70369" transform="translate(3.814 22.407)">
                    <g id="Grupo_70368" data-name="Grupo 70368">
                      <path id="Trazado_107281" data-name="Trazado 107281" d="M685.192,255.918a.226.226,0,0,1-.112-.03l-5.118-2.955a.225.225,0,0,1,.225-.39L685.3,255.5a.225.225,0,0,1-.113.42Z" transform="translate(-679.849 -252.513)" fill="#bdd4cf"/>
                    </g>
                  </g>
                </g>
              </g>
            </g>
          </g>
        </g>
      </g>
    </g>
  </g>
</svg>
