<svg xmlns="http://www.w3.org/2000/svg" xmlns:xlink="http://www.w3.org/1999/xlink" width="85" height="85" viewBox="0 0 85 85">
  <defs>
    <clipPath id="clip-path">
      <circle id="Elipse_8051" data-name="Elipse 8051" cx="37.5" cy="37.5" r="37.5" transform="translate(-0.252 -0.314)" fill="#ea526f"/>
    </clipPath>
  </defs>
  <g id="Grupo_1052616" data-name="Grupo 1052616" transform="translate(-193 -3815)">
    <g id="Elipse_8048" data-name="Elipse 8048" transform="translate(193 3815)" fill="#fff" stroke="#25ced1" stroke-width="4">
      <circle cx="42.5" cy="42.5" r="42.5" stroke="none"/>
      <circle cx="42.5" cy="42.5" r="40.5" fill="none"/>
    </g>
    <g id="Enmascarar_grupo_668" data-name="Enmascarar grupo 668" transform="translate(198.252 3820.314)" clip-path="url(#clip-path)">
      <g id="Grupo_1043320" data-name="Grupo 1043320" transform="translate(8.414 2.626)">
        <path id="Trazado_773530" data-name="Trazado 773530" d="M461.367,179.261c-2.955.154-.255,4.751-1.871,8.471-.982,2.262-4.219,4.845-4.219,4.845l1.647.764c2.784-1.308,5.493-2.305,6.248-4.655S464.323,179.106,461.367,179.261Z" transform="translate(-429.803 -167.209)" fill="#dbc29e"/>
        <path id="Trazado_773531" data-name="Trazado 773531" d="M424.832,289.032c2.111-2.654.04-5.83-3.908-5.431a21.748,21.748,0,0,0-4.151.8l-15.566-8.945-17.026,9.895,36.091,20.738L437.3,296.2Z" transform="translate(-383.84 -229.4)" fill="#e6e6e6" style="mix-blend-mode: multiply;isolation: isolate"/>
        <g id="Grupo_1043294" data-name="Grupo 1043294" transform="translate(27.777)">
          <path id="Trazado_773532" data-name="Trazado 773532" d="M484.643,149.164c-.261-5.409-3.346-4.412-4-2.289l1.578,3.31c2.1,2.564,1.509,6.735.726,8.982C484.686,157.588,484.9,154.572,484.643,149.164Z" transform="translate(-473.98 -145.174)"/>
          <g id="Grupo_1043290" data-name="Grupo 1043290" transform="translate(3.943 51.423)">
            <path id="Trazado_773533" data-name="Trazado 773533" d="M474.881,293.991a19.8,19.8,0,0,0,1.515-2.334l1.724-.974.19-.043v3.892a10.511,10.511,0,0,0-1.041.747c-2.069,1.688-4.062,2.124-4.3,1.342S474.58,294.338,474.881,293.991Z" transform="translate(-472.946 -290.64)" fill="#e8ac15"/>
          </g>
          <path id="Trazado_773534" data-name="Trazado 773534" d="M465.7,227.113l5.569-.136s-1.589,8.008-2.156,8.894c-.347.547-2.669,3.983-2.443,4.426s2.623.164,4.767,9.585c-.528,1.137-.594,1.46-1.828,1.212.1-1.564-6.319-8.438-7.053-9.916S464.51,229.3,465.7,227.113Z" transform="translate(-462.206 -198.059)" fill="#b58c74"/>
          <path id="Trazado_773535" data-name="Trazado 773535" d="M481.073,282.67c.284.923.568,1.985.848,3.218-.528,1.137-.594,1.46-1.828,1.212a6.446,6.446,0,0,0-1.446-2.7A6.686,6.686,0,0,0,481.073,282.67Z" transform="translate(-472.689 -234.064)" fill="#ebebeb"/>
          <g id="Grupo_1043291" data-name="Grupo 1043291" transform="translate(2.392 55.843)">
            <path id="Trazado_773536" data-name="Trazado 773536" d="M476.132,303.749c-1.129-1.454-2.663-.023-4.269,1.483a8.9,8.9,0,0,1-1.924,1.154c-1.311.664-2.15,2.095-.337,2.618a5.58,5.58,0,0,0,4.779-.523,18.042,18.042,0,0,1,2.014-.9,6.647,6.647,0,0,0,.263-2.678A3.007,3.007,0,0,0,476.132,303.749Z" transform="translate(-468.559 -303.144)" fill="#ffcd40"/>
          </g>
          <path id="Trazado_773537" data-name="Trazado 773537" d="M481.06,227.141a37.577,37.577,0,0,1-6.89-1.175c-.564,4.779,1.865,5.427,3.022,16.96.211,2.1.436,9.729.044,10.873.764,1.007,1.029,1.415,2.348.747a27.582,27.582,0,0,0,1.624-12.992C480.005,233.186,482.71,231.141,481.06,227.141Z" transform="translate(-469.74 -197.405)" fill="#d4a488"/>
          <path id="Trazado_773538" data-name="Trazado 773538" d="M483,294.649a29.559,29.559,0,0,0,.2-5.5,9.385,9.385,0,0,0,3.625.665,21.78,21.78,0,0,1-1.474,5.578C484.027,296.065,483.762,295.656,483,294.649Z" transform="translate(-475.502 -238.256)" fill="#fff"/>
          <path id="Trazado_773539" data-name="Trazado 773539" d="M473.975,200.753a15.466,15.466,0,0,0,.139-4.336c-.39-2.029-1.388-4.02-1.8-6.014.083-.447.145-.817.174-1.088q-.174-.036-.336-.084c-.2-3.152,2.09-5.223,1.791-8.461-.15-1.63-4.909-4.143-7.732-3.6.022-.019.043-.042.065-.06a2.191,2.191,0,0,0-1.216.536,13.028,13.028,0,0,0-1.517,4.1c-.286,1.131-1.062,4.008.707,4.623a30.791,30.791,0,0,1-2.462,16.9,4.734,4.734,0,0,0,.461.458c-.068.949-.135,1.84-.234,2.619,3.63,3.731,10.366,2.339,12.085,1.54C473.862,207.335,473.506,205.087,473.975,200.753Z" transform="translate(-461.792 -165.813)" fill="#0075a4"/>
          <g id="Grupo_1043293" data-name="Grupo 1043293" transform="translate(0.812 1.509)">
            <path id="Trazado_773540" data-name="Trazado 773540" d="M479.122,149.747c-.2.362.1.9.655,1.2s1.166.249,1.362-.11-.1-.9-.658-1.2S479.315,149.387,479.122,149.747Z" transform="translate(-473.769 -149.441)" fill="#7f7f7f"/>
            <path id="Trazado_773541" data-name="Trazado 773541" d="M477.527,167.591a5.991,5.991,0,0,0,.478,2.458,2.849,2.849,0,0,1-2.655,1.412c-1.062-.266-1.425-1.981-1.5-2.867l2.143-3.64Z" transform="translate(-470.4 -159.47)" fill="#dbc29e"/>
            <path id="Trazado_773542" data-name="Trazado 773542" d="M464.262,157.73c-.134-.909.234-.2.234-.2l4.719-1.07,1.244,2.164c.087,2.681-.708,5.945-3.081,6.17-1.212.115-2.431-3.225-2.78-5.167C464.4,158.53,464.262,157.73,464.262,157.73Z" transform="translate(-464.182 -153.98)" fill="#f2ddbb"/>
            <g id="Grupo_1043292" data-name="Grupo 1043292" transform="translate(0.204 5.222)">
              <path id="Trazado_773543" data-name="Trazado 773543" d="M469.329,171.6c-.993.074-.6-.1-.806-.678,0,.035-.048.513-.045.548a.288.288,0,0,0,.218.245.471.471,0,0,0,.1.011A1.012,1.012,0,0,0,469.329,171.6Z" transform="translate(-467.131 -168.553)" fill="#936a55"/>
              <path id="Trazado_773544" data-name="Trazado 773544" d="M470.222,176.233a1.082,1.082,0,0,0,1.15-.241A2.125,2.125,0,0,1,470.222,176.233Z" transform="translate(-468.258 -171.828)" fill="#936a55"/>
              <path id="Trazado_773545" data-name="Trazado 773545" d="M469.811,164.681a.135.135,0,0,1,.034-.2,1.727,1.727,0,0,1,1.038-.259,1.961,1.961,0,0,1,1.069.46,1.872,1.872,0,0,0-1.072-.306,1.541,1.541,0,0,0-.87.335A.143.143,0,0,1,469.811,164.681Z" transform="translate(-467.971 -164.214)" fill="#262626"/>
              <path id="Trazado_773546" data-name="Trazado 773546" d="M465.572,165.16a.134.134,0,0,1-.187.033.8.8,0,0,0-.328-.183c-.16-.056-.324.07-.389.255a.554.554,0,0,1,.105-.275.4.4,0,0,1,.294-.134,1.061,1.061,0,0,1,.458.111A.124.124,0,0,1,465.572,165.16Z" transform="translate(-464.667 -164.629)" fill="#262626"/>
            </g>
            <path id="Trazado_773547" data-name="Trazado 773547" d="M464.768,156.621c-.835-1.864-1.413-4.53,1.484-6.05,1.956-1.025,4.636-.894,5.343,1.954.661,2.66-.407,3.445-.342,6.065a2.644,2.644,0,0,1-.913-1.928c-.122-.623-.707-.968-.777-.608s-.369,1.363-.919-.59a2.524,2.524,0,0,0-2.8-2.137c-.857.122-1.612.207-1.458,1.305A16.732,16.732,0,0,0,464.768,156.621Z" transform="translate(-464.09 -149.793)" fill="#262626"/>
            <path id="Trazado_773548" data-name="Trazado 773548" d="M481,164.659a.8.8,0,0,0-.688-.886.793.793,0,0,0-.74.833c0,.11-.017.543-.019.673-.016.469.194.855.467.865C480.547,166.164,480.99,165.02,481,164.659Z" transform="translate(-474.086 -158.707)" fill="#f2ddbb"/>
          </g>
        </g>
        <g id="Grupo_1043295" data-name="Grupo 1043295" transform="translate(15.912 22.811)">
          <path id="Trazado_773549" data-name="Trazado 773549" d="M429.906,209.7l-.071,24.937a.388.388,0,0,1-.234.318,1.214,1.214,0,0,1-1.133,0,.388.388,0,0,1-.24-.323L428.3,209.7a.4.4,0,0,0,.238.328,1.232,1.232,0,0,0,1.135,0,.391.391,0,0,0,.235-.324Z" transform="translate(-428.228 -209.701)" fill="#efefef"/>
        </g>
        <g id="Grupo_1043296" data-name="Grupo 1043296" transform="translate(49.808 42.281)" style="isolation: isolate">
          <path id="Trazado_773550" data-name="Trazado 773550" d="M525.79,264.779l-.071,24.936a.405.405,0,0,1-.234.325,1.252,1.252,0,0,1-1.134,0,.4.4,0,0,1-.238-.329l.07-24.934a.394.394,0,0,0,.241.327,1.213,1.213,0,0,0,1.131,0,.392.392,0,0,0,.235-.325Z" transform="translate(-524.113 -264.777)" fill="#efefef"/>
        </g>
        <g id="Grupo_1043297" data-name="Grupo 1043297" transform="translate(2.074 30.855)" style="isolation: isolate">
          <path id="Trazado_773551" data-name="Trazado 773551" d="M390.758,232.458l-.07,24.935a.4.4,0,0,1-.232.327,1.267,1.267,0,0,1-1.137,0,.4.4,0,0,1-.236-.332l.069-24.93a.4.4,0,0,0,.237.325,1.223,1.223,0,0,0,1.135,0,.4.4,0,0,0,.234-.324Z" transform="translate(-389.083 -232.457)" fill="#efefef"/>
        </g>
        <g id="Grupo_1043298" data-name="Grupo 1043298" transform="translate(35.968 50.32)" style="isolation: isolate">
          <path id="Trazado_773552" data-name="Trazado 773552" d="M486.642,287.524l-.072,24.937a.4.4,0,0,1-.237.325,1.248,1.248,0,0,1-1.134,0,.4.4,0,0,1-.235-.331l.07-24.936a.4.4,0,0,0,.236.33,1.236,1.236,0,0,0,1.137,0,.4.4,0,0,0,.235-.325Z" transform="translate(-484.964 -287.519)" fill="#efefef"/>
        </g>
        <g id="Grupo_1043299" data-name="Grupo 1043299" transform="translate(0 20.787)">
          <path id="Trazado_773553" data-name="Trazado 773553" d="M502.339,262.649l0,1.256L485.313,273.8l0-1.257Z" transform="translate(-449.222 -241.907)" fill="#76abb8"/>
          <path id="Trazado_773554" data-name="Trazado 773554" d="M419.311,252.7l0,1.257L383.217,233.22V231.96Z" transform="translate(-383.217 -222.067)" fill="#86c3d1"/>
          <path id="Trazado_773555" data-name="Trazado 773555" d="M436.334,224.716l-17.023,9.89-36.095-20.738,17.026-9.893Z" transform="translate(-383.217 -203.975)" fill="#a8d8e5"/>
        </g>
        <path id="Trazado_773556" data-name="Trazado 773556" d="M445.37,248.322l1.481,7.206,2.906,1.67v-1.259l12.877-8.573v-.47L450.3,245.625Z" transform="translate(-423.399 -210.115)" fill="#e6e6e6" style="mix-blend-mode: multiply;isolation: isolate"/>
        <g id="Grupo_1043305" data-name="Grupo 1043305" transform="translate(4.519 24.661)">
          <path id="Trazado_773557" data-name="Trazado 773557" d="M401.426,225.818a4.924,4.924,0,0,0-4.469-.045c-1.251.7-1.28,1.861-.063,2.588a4.923,4.923,0,0,0,4.469.045C402.614,227.7,402.643,226.546,401.426,225.818Z" transform="translate(-396 -221.61)" fill="#cecece" style="mix-blend-mode: multiply;isolation: isolate"/>
          <g id="Grupo_1043300" data-name="Grupo 1043300" transform="translate(3.575 0)">
            <path id="Trazado_773558" data-name="Trazado 773558" d="M406.844,216.254a.18.18,0,0,1-.157-.041.058.058,0,0,1-.02-.053l-.554,2.433a.027.027,0,0,0,.01.025.084.084,0,0,0,.076.02.028.028,0,0,0,.023-.018l.667-2.4A.058.058,0,0,1,406.844,216.254Z" transform="translate(-406.112 -215.727)" fill="#e5e5e5"/>
            <path id="Trazado_773559" data-name="Trazado 773559" d="M407.9,215.251a.062.062,0,0,1,0-.008c0-.005,0-.011,0-.021V215.2a.187.187,0,0,0,0-.021h0s0-.011,0-.022l0-.02c0-.011-.008-.024-.011-.035l-.008-.018-.011-.019-.008-.012-.007-.009-.013-.016-.012-.013-.01-.008A.068.068,0,0,0,407.8,215l0,0-.013-.01-.012-.008-.013-.007-.012-.006h0l-.006,0-.006,0-.012,0-.012,0-.012,0-.012,0-.012,0-.013,0h-.056l-.015,0-.018,0-.016,0-.022.007-.016.007-.026.013-.016.01-.024.019h0l-.014.014a.29.29,0,0,0-.027.033l-.011.017a.193.193,0,0,0-.015.03.081.081,0,0,0-.006.014v0l-.007.02h0v.006h0l0,.017c0,.007,0,.016,0,.023v.017c0,.007,0,.016,0,.023l0,.017,0,.022,0,.017a.224.224,0,0,0,.008.023l.007.014a.177.177,0,0,0,.013.024l.009.014.02.025.011.011.016.015.012.009.014.01.012.008,0,0,0,0,0,0,.012.006.012.005h0l.009,0h0l.011,0,.012,0,.006,0h.006l.012,0h.07l.014,0,.02,0,.016,0h0l.028-.009.015-.007.024-.013.014-.009.019-.015,0,0,.006-.005,0,0,.016-.017h0l.007-.009,0,0a.059.059,0,0,1,.007-.01.1.1,0,0,1,.009-.013l.006-.01a.029.029,0,0,1,0-.009l0-.006,0-.006.006-.016,0-.012.005-.017A.15.15,0,0,0,407.9,215.251Z" transform="translate(-406.917 -214.935)" fill="#c93939"/>
          </g>
          <g id="Grupo_1043301" data-name="Grupo 1043301" transform="translate(0.704 0.649)">
            <path id="Trazado_773560" data-name="Trazado 773560" d="M398.848,218a.18.18,0,0,1-.154.054.057.057,0,0,1-.046-.032l.9,2.325a.027.027,0,0,0,.022.016.085.085,0,0,0,.075-.026.026.026,0,0,0,.008-.027l-.793-2.365A.058.058,0,0,1,398.848,218Z" transform="translate(-398.415 -217.532)" fill="#e5e5e5"/>
            <path id="Trazado_773561" data-name="Trazado 773561" d="M398.513,216.927l0-.006-.01-.018,0,0,0,0-.007-.011a.134.134,0,0,0-.013-.017h0l-.015-.017-.014-.015-.03-.022-.017-.01-.019-.01-.013-.006-.012,0-.019-.006-.017,0-.013,0h-.07l-.013,0h-.014l-.012,0a.053.053,0,0,0-.012,0l-.012,0-.012,0-.012,0-.011.006-.011.006-.012.007-.012.008-.012.01-.012.01-.014.013-.011.012-.015.019-.01.015c0,.008-.009.017-.013.025l-.008.017c0,.01-.007.02-.009.03v0l0,.019a.329.329,0,0,0,0,.042v.021a.251.251,0,0,0,0,.033l0,.014v.006l.006.02h0l0,.006h0l.007.016.011.02.009.014.013.019.011.012.017.017.013.011.019.014.015.008a.157.157,0,0,0,.024.012l.015.007.031.009.015,0,.022,0h.06l.014,0,.012,0h0l.008,0h0l.012,0,.012,0,.005,0,0,0h0l.011,0,.012-.006.011-.006.012-.008.011-.007.013-.01.011-.01.014-.014.01-.011v0h0l0,0c.006-.008.012-.016.018-.024l.009-.014.012-.024.006-.015c0-.007.006-.016.008-.023l0-.006a.04.04,0,0,0,0-.007v0c0-.007,0-.016,0-.023h0s0-.007,0-.011v0a.06.06,0,0,1,0-.011.118.118,0,0,0,0-.017v-.011s0-.007,0-.01v-.012l0-.017,0-.012-.006-.017A.161.161,0,0,0,398.513,216.927Z" transform="translate(-397.99 -216.77)" fill="#c93939"/>
          </g>
          <g id="Grupo_1043302" data-name="Grupo 1043302" transform="translate(4.94 1.655)">
            <path id="Trazado_773562" data-name="Trazado 773562" d="M411.417,220.822a.179.179,0,0,1-.136-.089.057.057,0,0,1,0-.056l-1.3,2.13a.031.031,0,0,0,0,.027.09.09,0,0,0,.067.043.027.027,0,0,0,.026-.011l1.4-2.064A.058.058,0,0,1,411.417,220.822Z" transform="translate(-409.975 -220.302)" fill="#e5e5e5"/>
            <path id="Trazado_773563" data-name="Trazado 773563" d="M413.982,220.018a.027.027,0,0,1,0-.006l.008-.019,0,0v0l0-.012c0-.008,0-.013.006-.02h0s0-.011,0-.022l0-.02a.244.244,0,0,0,0-.036l0-.02c0-.007,0-.014,0-.022a.12.12,0,0,0,0-.014l0-.012c0-.006-.005-.013-.008-.019l-.007-.016-.007-.011-.009-.016,0,0-.009-.013-.01-.011-.01-.011-.01-.01h0l0,0,0,0-.01-.008-.01-.007-.011-.007-.01-.007-.011-.006-.012-.006-.012,0-.013-.005-.013,0-.015,0-.015,0-.019,0h-.058l-.028,0-.019,0-.029.01,0,0h0l-.018.008a.286.286,0,0,0-.036.023l-.016.012-.024.024a.054.054,0,0,1-.009.011l0,0-.012.017h0l0,.006h0l-.008.015-.01.02-.006.017c0,.006,0,.015-.006.021l0,.017c0,.007,0,.016,0,.023v.016c0,.008,0,.017,0,.025v.016l0,.027,0,.016a.251.251,0,0,0,.011.031l.006.014.011.018.008.013.01.014.008.011,0,0,0,0,0,0,.009.009.01.009h0l.007.005,0,0,.01.008.011.007,0,0,0,0,0,0,.011.006.011.005.012.005.013,0,.013,0,.016,0,.014,0,.02,0,.015,0h.034l.016,0,.027,0,.016,0,.023-.008.006,0,.007,0h0l.021-.01h0l.009-.006,0,0,.009-.007.012-.01.009-.008a.033.033,0,0,0,.007-.007l0,0,0,0,.012-.013.007-.01.01-.015Z" transform="translate(-412.234 -219.617)" fill="#c93939"/>
          </g>
          <path id="Trazado_773564" data-name="Trazado 773564" d="M401.613,229.554a4.573,4.573,0,0,1-4.152-.042,1.448,1.448,0,0,1-.83-1.189l0,.6a1.448,1.448,0,0,0,.83,1.19,4.579,4.579,0,0,0,4.152.042,1.481,1.481,0,0,0,.889-1.216v-.6A1.479,1.479,0,0,1,401.613,229.554Z" transform="translate(-396.407 -223.59)" fill="#f7b523"/>
          <path id="Trazado_773565" data-name="Trazado 773565" d="M402.486,222.654l-.036-.229c-.023-.1-.06-.241-.09-.344l-.078-.21c-.019-.045-.044-.1-.069-.147-.016-.034-.033-.067-.05-.1l-.045-.087-.117-.184c-.027-.038-.059-.08-.093-.122-.022-.027-.042-.055-.064-.081-.034-.042-.068-.084-.1-.12l-.145-.148a2.986,2.986,0,0,0-.355-.288l-.162-.1c-.058-.037-.122-.071-.188-.1h0c-.045-.022-.092-.044-.139-.064l-.017-.008-.048-.021-.058-.023-.058-.023-.067-.022-.013,0-.068-.023-.148-.04-.14-.031-.138-.023-.135-.016c-.04,0-.092-.008-.133-.011l-.132,0-.131,0-.068,0-.041,0-.024,0c-.04,0-.094.009-.135.014H399.2c-.026,0-.052.008-.078.011l-.052.008-.047.01-.088.017-.01,0-.1.025-.117.033-.085.027-.027.011-.086.032-.037.013c-.029.011-.061.026-.094.041l-.062.028-.029.013-.158.082c-.069.039-.141.083-.212.132h0a2.792,2.792,0,0,0-.89.96,2.745,2.745,0,0,0-.2.419l-.071.214a3.058,3.058,0,0,0-.107.578c0,.07-.007.164-.01.234a1.448,1.448,0,0,0,.83,1.189,4.573,4.573,0,0,0,4.152.042,1.479,1.479,0,0,0,.89-1.215C402.5,222.9,402.494,222.76,402.486,222.654Z" transform="translate(-396.41 -218.258)" fill="#ffe845"/>
          <g id="Grupo_1043303" data-name="Grupo 1043303" transform="translate(2.072 1.695)">
            <path id="Trazado_773566" data-name="Trazado 773566" d="M402.341,220.191l.3,1.767a.03.03,0,0,0,.019.02.087.087,0,0,0,.078-.011.029.029,0,0,0,.014-.025l-.212-1.751Z" transform="translate(-402.172 -220.028)" fill="#e5e5e5"/>
            <path id="Trazado_773567" data-name="Trazado 773567" d="M402.4,219.94a.06.06,0,0,0,0-.007l-.006-.02v0l0,0,0-.012a.13.13,0,0,0-.009-.019h0l-.011-.019-.012-.017-.024-.028-.014-.014-.018-.013-.012-.008-.01-.006-.018-.01-.017-.007-.012,0-.017-.005h-.006l-.016,0-.014,0-.014,0h-.053l-.013,0-.012,0-.012,0-.012,0-.012,0-.014.005-.013,0-.014.007-.013.007-.016.01-.013.01-.018.016-.013.012-.018.022-.011.016c-.005.008-.011.018-.016.027v0l-.008.018a.151.151,0,0,0-.012.041l0,.021a.211.211,0,0,0,0,.034v.019l0,.021h0a.017.017,0,0,0,0,.007h0l0,.017.006.021.006.016c0,.007.007.015.009.021l.009.014a.211.211,0,0,0,.013.02l.01.013.016.018.012.011.021.017.013.01c.008.006.019.011.028.016l.015.006.02.007.015,0,.016,0,.015,0h.065l.013,0h.012l.013,0,.012,0,.012,0,.014,0,.012-.005.014-.007.013-.007.017-.011.012-.009h0l.022-.02.012-.012.018-.022.008-.013.012-.022,0-.006,0-.007v0l.008-.021h0a.052.052,0,0,0,0-.01l0,0,0-.012a.12.12,0,0,0,0-.016l0-.011a.044.044,0,0,1,0-.01v-.043l0-.018C402.4,219.951,402.4,219.947,402.4,219.94Z" transform="translate(-401.862 -219.731)" fill="#c93939"/>
          </g>
          <g id="Grupo_1043304" data-name="Grupo 1043304" transform="translate(4.069 2.107)">
            <path id="Trazado_773568" data-name="Trazado 773568" d="M408.093,221.254l-.583,1.694a.027.027,0,0,0,.007.026.086.086,0,0,0,.074.028.029.029,0,0,0,.024-.016l.652-1.638Z" transform="translate(-407.509 -221.127)" fill="#e5e5e5"/>
            <path id="Trazado_773569" data-name="Trazado 773569" d="M409.042,221.241a.027.027,0,0,1,0-.007c0-.005,0-.011,0-.02v-.008l0-.013c0-.009,0-.013,0-.021h0s0-.011,0-.022l0-.019c0-.012-.006-.025-.008-.036l-.006-.018-.009-.02-.006-.013-.005-.01-.012-.017-.01-.015-.009-.01a.068.068,0,0,0-.012-.013l0,0-.012-.011-.012-.009-.012-.008-.011-.008h0l-.005,0-.005,0-.011-.006a.072.072,0,0,0-.012-.005l-.011,0-.012,0-.012,0-.013,0-.012,0-.014,0-.014,0h-.049l-.016,0-.023,0-.017,0-.027.01-.017.009-.026.017h0l-.016.012a.271.271,0,0,0-.03.03l-.013.016c-.009.013-.012.019-.018.028l-.007.013,0,0-.008.019h0a.047.047,0,0,1,0,.007h0l-.005.017,0,.022,0,.017c0,.007,0,.016,0,.022v.017c0,.007,0,.016,0,.023l0,.016a.139.139,0,0,0,0,.024l.005.016.01.025.008.014c0,.01.011.018.017.028l.01.012.014.017.01.01.013.012.011.009,0,0,0,0,0,0,.011.007.012.007h0l.007,0h0l.012,0,.011,0,.005,0,0,0h0l.012,0,.012,0,.013,0,.014,0h.064l.016,0h0l.029-.007.016,0,.025-.01.014-.007.021-.013,0,0,.006,0,0,0,.018-.015h0l.008-.008,0,0,.007-.009.01-.012.007-.009a.046.046,0,0,0,.005-.008l0-.005,0,0,.009-.016.006-.012.006-.016A.064.064,0,0,0,409.042,221.241Z" transform="translate(-408.154 -220.896)" fill="#c93939"/>
          </g>
        </g>
        <g id="Grupo_1043315" data-name="Grupo 1043315" transform="translate(31.378 40.578)">
          <path id="Trazado_773570" data-name="Trazado 773570" d="M483.334,260.363l-.1.028a8.521,8.521,0,0,0-.863.316,3.931,3.931,0,0,0,.484-.451l.109-.136h-.174a.744.744,0,0,0-.113.008l-.016,0-.014.008-.223.129-.125.073-.077-.019-.028.016c-.564.313-1.7.962-3.007,1.79-1.028.479-1.91.9-2.17,1.027l-2.084.615a1.307,1.307,0,0,1-.375.049,3.724,3.724,0,0,1-.779-.109,2.163,2.163,0,0,0-.46-.048,1.88,1.88,0,0,0-.928.224.624.624,0,0,0,.006,1.172,2.037,2.037,0,0,0,1.857,0,.762.762,0,0,0,.392-.466.582.582,0,0,1,.461-.464c.61-.155,1.5-.377,2.247-.558l.247-.059c-.345.488-.776,1.067-1.018,1.39-.074.1-.28.225-.846.27a1.783,1.783,0,0,0-.747.217.624.624,0,0,0,.006,1.172,2.037,2.037,0,0,0,1.857,0,.767.767,0,0,0,.391-.465.532.532,0,0,0-.082-.423c-.175-.267-.245-.44-.112-.592l1.052-1.205c.075-.052.6-.422,1.316-.937h0l.046-.033.387-.281c.7-.374,2.063-1.115,3.327-1.9a.342.342,0,0,0,.144-.16.245.245,0,0,0,.017-.09Zm-9.317,4.463a1.545,1.545,0,0,1-1.393,0,.371.371,0,0,1,0-.711,1.548,1.548,0,0,1,1.394,0,.447.447,0,0,1,.267.357A.441.441,0,0,1,474.016,264.826Zm2.6,1.5a1.548,1.548,0,0,1-1.394,0,.445.445,0,0,1-.266-.357.439.439,0,0,1,.262-.355,1.546,1.546,0,0,1,1.392,0,.446.446,0,0,1,.267.357A.439.439,0,0,1,476.614,266.326Z" transform="translate(-471.98 -260.064)" fill="#e7e7e7" style="mix-blend-mode: multiply;isolation: isolate"/>
          <g id="Grupo_1043306" data-name="Grupo 1043306" transform="translate(11.258 0.186)" style="isolation: isolate">
            <path id="Trazado_773571" data-name="Trazado 773571" d="M503.84,260.488v.2a.151.151,0,0,1-.012.057v-.2a.148.148,0,0,0,.012-.057Z" transform="translate(-503.827 -260.488)" fill="#cbcbcb"/>
          </g>
          <path id="Trazado_773572" data-name="Trazado 773572" d="M488.314,262.723l-1.064.518-.028.014a.221.221,0,0,0-.128.179v.2a.22.22,0,0,1,.129-.179l.028-.014,1.063-.518c.177-.084,3.209-1.537,4.7-2.073v-.2C491.522,261.186,488.49,262.638,488.314,262.723Z" transform="translate(-481.75 -260.407)" fill="#d2d2d2"/>
          <g id="Grupo_1043307" data-name="Grupo 1043307" transform="translate(5.343 3.027)" style="isolation: isolate">
            <path id="Trazado_773573" data-name="Trazado 773573" d="M487.094,268.531v0Z" transform="translate(-487.093 -268.526)" fill="#b8b8b8"/>
          </g>
          <path id="Trazado_773574" data-name="Trazado 773574" d="M487.1,268.707v.2l-.005-.166v-.2Z" transform="translate(-481.75 -265.508)" fill="#a5a5a5"/>
          <g id="Grupo_1043308" data-name="Grupo 1043308" transform="translate(5.347 0.327)">
            <path id="Trazado_773575" data-name="Trazado 773575" d="M493.018,260.886v.121a.261.261,0,0,1-.11.121c-1.98,1.225-4.276,2.4-4.49,2.5a8.467,8.467,0,0,1-1.311.338v-.121a8.548,8.548,0,0,0,1.311-.338c.215-.1,2.51-1.272,4.49-2.5a.261.261,0,0,0,.11-.121Z" transform="translate(-487.107 -260.886)" fill="#adadad"/>
          </g>
          <path id="Trazado_773576" data-name="Trazado 773576" d="M493.01,260.886a.261.261,0,0,1-.11.121c-1.98,1.225-4.275,2.4-4.49,2.5a8.548,8.548,0,0,1-1.311.338l0-.166a.217.217,0,0,1,.128-.184l.028-.014,1.056-.514C488.491,262.874,491.523,261.422,493.01,260.886Z" transform="translate(-481.752 -260.559)" fill="#dcdcdc"/>
          <g id="Grupo_1043309" data-name="Grupo 1043309" transform="translate(0.292 3.578)">
            <path id="Trazado_773577" data-name="Trazado 773577" d="M474.9,270.692v.2a.524.524,0,0,0-.309-.431,1.627,1.627,0,0,0-1.477,0,.517.517,0,0,0-.3.425v-.2a.52.52,0,0,1,.3-.425,1.627,1.627,0,0,1,1.477,0,.522.522,0,0,1,.308.431Z" transform="translate(-472.807 -270.084)" fill="#adadad"/>
          </g>
          <g id="Grupo_1043310" data-name="Grupo 1043310" transform="translate(0.083 3.199)">
            <path id="Trazado_773578" data-name="Trazado 773578" d="M477.48,269.01v.2c-.761.183-1.642.405-2.248.559a.668.668,0,0,0-.522.527.681.681,0,0,1-.352.413,1.956,1.956,0,0,1-1.773,0,.626.626,0,0,1-.37-.517v-.2a.626.626,0,0,0,.37.517,1.955,1.955,0,0,0,1.772,0,.682.682,0,0,0,.353-.413.667.667,0,0,1,.521-.527c.606-.153,1.488-.375,2.248-.559Z" transform="translate(-472.215 -269.01)" fill="#adadad"/>
          </g>
          <path id="Trazado_773579" data-name="Trazado 773579" d="M477.48,263.5c-.76.184-1.642.406-2.248.559a.667.667,0,0,0-.521.527.683.683,0,0,1-.353.413,1.955,1.955,0,0,1-1.772,0,.542.542,0,0,1-.005-1.027,1.956,1.956,0,0,1,1.329-.166,2.5,2.5,0,0,0,1.195.059l2.091-.618c.257-.123,5.136-2.469,6.208-2.76a.152.152,0,0,1-.012.058c-1.487.536-4.52,1.988-4.7,2.073l-1.064.518-.028.014a.216.216,0,0,0-.128.184Zm-3.27,1.413a.452.452,0,0,0,0-.855,1.627,1.627,0,0,0-1.477,0,.452.452,0,0,0,0,.856,1.627,1.627,0,0,0,1.477,0Z" transform="translate(-472.132 -260.3)" fill="#c6c6c6"/>
          <g id="Grupo_1043314" data-name="Grupo 1043314" transform="translate(2.681)">
            <path id="Trazado_773580" data-name="Trazado 773580" d="M500.976,260.1v.051l.077-.019s.185-.04.192-.04a.453.453,0,0,0,.181-.107A1.307,1.307,0,0,0,500.976,260.1Z" transform="translate(-493.406 -259.976)" fill="#c6c6c6"/>
            <path id="Trazado_773581" data-name="Trazado 773581" d="M495.588,259.983a1.393,1.393,0,0,0-.422.161c-.526.308-1.119.664-1.612.982-.853.551-1.342.878-1.559,1.025a.108.108,0,0,0-.056.086v.2a.108.108,0,0,1,.056-.086c.216-.147.706-.473,1.559-1.025.555-.358,1.239-.765,1.811-1.1l.222-.129v-.121Z" transform="translate(-487.564 -259.976)" fill="#d2d2d2"/>
            <g id="Grupo_1043311" data-name="Grupo 1043311" transform="translate(4.375 2.261)" style="isolation: isolate">
              <path id="Trazado_773582" data-name="Trazado 773582" d="M492,266.452v.2a.116.116,0,0,1-.064-.093v-.2a.115.115,0,0,0,.064.094Z" transform="translate(-491.939 -266.358)" fill="#ededed"/>
            </g>
            <path id="Trazado_773583" data-name="Trazado 773583" d="M492.429,266.814v.2l-.309-.191v-.2Z" transform="translate(-487.68 -264.268)" fill="#d6d6d6"/>
            <path id="Trazado_773584" data-name="Trazado 773584" d="M495.691,259.962a33.853,33.853,0,0,1-3.376,2.629l-.309-.191c-.081-.05-.086-.128-.008-.18.216-.146.705-.473,1.543-1.015l.015-.01c.555-.358,1.239-.765,1.811-1.1l.223-.129A.672.672,0,0,1,495.691,259.962Z" transform="translate(-487.566 -259.962)" fill="#dcdcdc"/>
            <g id="Grupo_1043312" data-name="Grupo 1043312" transform="translate(0.209 5.078)">
              <path id="Trazado_773585" data-name="Trazado 773585" d="M482.244,274.935v.2a.524.524,0,0,0-.309-.431,1.629,1.629,0,0,0-1.477,0,.517.517,0,0,0-.3.425v-.2a.519.519,0,0,1,.3-.425,1.627,1.627,0,0,1,1.477,0,.522.522,0,0,1,.308.431Z" transform="translate(-480.155 -274.328)" fill="#adadad"/>
            </g>
            <g id="Grupo_1043313" data-name="Grupo 1043313">
              <path id="Trazado_773586" data-name="Trazado 773586" d="M488.485,262.522a.139.139,0,0,1-.1-.007h0v-.007c-.772.557-1.338.955-1.369.976l-1.058,1.213a.336.336,0,0,0-.089.228v.2a.344.344,0,0,1,.09-.228l1.059-1.213c.03-.021.6-.419,1.369-.976v-.076h0v.076a33.642,33.642,0,0,0,3.376-2.629v-.121A32.442,32.442,0,0,1,488.485,262.522Z" transform="translate(-483.64 -259.962)" fill="#adadad"/>
              <path id="Trazado_773587" data-name="Trazado 773587" d="M481.707,276.546a1.955,1.955,0,0,1-1.773,0,.627.627,0,0,1-.37-.517v.2a.627.627,0,0,0,.37.517,1.954,1.954,0,0,0,1.773,0,.622.622,0,0,0,.364-.51v-.2A.623.623,0,0,1,481.707,276.546Z" transform="translate(-479.563 -270.349)" fill="#adadad"/>
            </g>
            <path id="Trazado_773588" data-name="Trazado 773588" d="M484,262.362c.216-.147.705-.474,1.559-1.025.506-.326,1.119-.694,1.657-1.008l-.077-.019c-.706.392-2.307,1.306-4,2.44a.846.846,0,0,0-.236.232c-.327.495-.961,1.352-1.346,1.866a1.357,1.357,0,0,1-.907.3,1.709,1.709,0,0,0-.712.206.543.543,0,0,0,.005,1.027,1.955,1.955,0,0,0,1.773,0c.358-.208.452-.512.282-.77-.148-.226-.294-.477-.105-.692l1.058-1.213c.031-.021.6-.419,1.369-.976l-.308-.191C483.924,262.492,483.919,262.414,484,262.362ZM481.56,266.3a1.628,1.628,0,0,1-1.478,0,.452.452,0,0,1,0-.855,1.627,1.627,0,0,1,1.477,0A.452.452,0,0,1,481.56,266.3Z" transform="translate(-479.565 -260.188)" fill="#c6c6c6"/>
          </g>
          <path id="Trazado_773589" data-name="Trazado 773589" d="M486.936,269.03l-.093.077c0,.014.049.025.062.036a.763.763,0,0,0,.274-.029C486.967,269.124,486.936,269.03,486.936,269.03Z" transform="translate(-481.589 -265.824)" fill="#adadad"/>
          <path id="Trazado_773590" data-name="Trazado 773590" d="M490.962,266.79a.107.107,0,0,1,0,.2.385.385,0,0,1-.35,0,.107.107,0,0,1,0-.2A.385.385,0,0,1,490.962,266.79Z" transform="translate(-483.979 -264.349)" fill="#adadad"/>
        </g>
        <path id="Trazado_773591" data-name="Trazado 773591" d="M427,222.048l-5.184,1.867,3.158-3.15L423,219.515l-11.653,8.88a3.638,3.638,0,0,0-1.428,2.791l-.227,8.678,15.567,14.742.726-15.061a1.687,1.687,0,0,1,.774-1.336l12.81-8.192Z" transform="translate(-400.332 -193.235)" fill="#ea526f"/>
        <path id="Trazado_773592" data-name="Trazado 773592" d="M452.639,213.906a1.443,1.443,0,0,0-1.322-.243,2.211,2.211,0,0,0-1.783,2.6c.162,1.884,1.325,3.418,1.658,2.4.625-1.9,2.476-2.518,2.463-3.516Z" transform="translate(-426.08 -189.403)" fill="#dbc29e"/>
        <path id="Trazado_773593" data-name="Trazado 773593" d="M439.128,247.317l-11.546,6.863a4.866,4.866,0,0,1-5.05-.053l-11.9-7.419a3.631,3.631,0,0,0-.714,2.058l-.227,8.678,15.567,14.742.726-15.061a1.687,1.687,0,0,1,.774-1.336l12.81-8.192Z" transform="translate(-400.332 -210.815)" fill="#e6e6e6" style="mix-blend-mode: multiply;isolation: isolate"/>
        <g id="Grupo_1043319" data-name="Grupo 1043319" transform="translate(19.259 23.081)">
          <path id="Trazado_773594" data-name="Trazado 773594" d="M456.8,220.36a.645.645,0,0,0-.289-.5l-.157-.091a.646.646,0,0,1,.289.5,2.172,2.172,0,0,1-.629,1.625,1.925,1.925,0,0,1-.242.214.809.809,0,0,1-.875.165l.157.091a.808.808,0,0,0,.874-.165,1.881,1.881,0,0,0,.242-.214A2.17,2.17,0,0,0,456.8,220.36Z" transform="translate(-448.819 -216.48)" fill="#ffbf4d"/>
          <g id="Grupo_1043316" data-name="Grupo 1043316" transform="translate(5.38 4.807)" style="isolation: isolate">
            <path id="Trazado_773595" data-name="Trazado 773595" d="M453.545,225.533l-.157-.091a.847.847,0,0,1-.379-.656,1.8,1.8,0,0,1,0-.437.282.282,0,0,0-.093-.285l.157.091a.284.284,0,0,1,.093.286,1.719,1.719,0,0,0,0,.437.845.845,0,0,0,.379.656Z" transform="translate(-452.915 -224.064)" fill="#f7b523"/>
          </g>
          <path id="Trazado_773596" data-name="Trazado 773596" d="M455.008,218.493a1.067,1.067,0,0,0-1.15.217l-1.4,1.034.156.091,1.4-1.034a1.066,1.066,0,0,1,1.149-.217Z" transform="translate(-447.242 -215.596)" fill="#ffbf4d"/>
          <path id="Trazado_773597" data-name="Trazado 773597" d="M449.829,226.112l-.157-.091-.017-.038.157.091Z" transform="translate(-445.427 -220.498)" fill="#dea320"/>
          <path id="Trazado_773598" data-name="Trazado 773598" d="M449.465,225.29l-.157-.091-.189-.429.157.091Z" transform="translate(-445.081 -219.713)" fill="#dea320"/>
          <path id="Trazado_773599" data-name="Trazado 773599" d="M449.253,224.813l-.157-.091-.012-.026.157.091Z" transform="translate(-445.059 -219.665)" fill="#dea320"/>
          <path id="Trazado_773600" data-name="Trazado 773600" d="M446.969,226.817l-.157-.091,1.005-.743.157.091Z" transform="translate(-443.59 -220.498)" fill="#999"/>
          <path id="Trazado_773601" data-name="Trazado 773601" d="M439.538,231.886l-.157-.091,2.627-3.71.157.091Z" transform="translate(-438.786 -221.856)" fill="#b8b8b8"/>
          <path id="Trazado_773602" data-name="Trazado 773602" d="M438.447,227.8a.907.907,0,0,1,.115-.1l3.617-2.674.19.429-1.005.743-3.217,2.378A1.036,1.036,0,0,1,438.447,227.8Z" transform="translate(-437.985 -219.88)" fill="#aaa"/>
          <path id="Trazado_773603" data-name="Trazado 773603" d="M452.12,218.968c.739-.545,1.423-.349,1.528.441a2.848,2.848,0,0,1-.826,2.134,2.506,2.506,0,0,1-.317.28c-.737.544-1.421.348-1.528-.439a1.721,1.721,0,0,1,0-.437c.028-.246-.115-.392-.313-.245l-.916.677-.017-.038-.19-.429-.012-.026,1.193-.883Zm1.21.675c-.081-.6-.6-.75-1.164-.334a1.894,1.894,0,0,0-.241.214,2.172,2.172,0,0,0-.63,1.625c.082.6.6.75,1.163.334a1.877,1.877,0,0,0,.242-.214,2.17,2.17,0,0,0,.629-1.625Z" transform="translate(-445.346 -215.763)" fill="#ecad21"/>
          <path id="Trazado_773604" data-name="Trazado 773604" d="M449.241,223.173l-.157-.091,1.194-.883.156.091Z" transform="translate(-445.059 -218.051)" fill="#f0b022"/>
          <path id="Trazado_773605" data-name="Trazado 773605" d="M453.1,212a.492.492,0,0,0-.1-.08l-.157-.091a.5.5,0,0,1,.1.08c.334.336.233,1.134-.226,1.781a2.34,2.34,0,0,1-.218.265c-.379.395-.821.549-1.114.379l.157.092c.293.17.734.016,1.114-.379a2.29,2.29,0,0,0,.218-.265C453.334,213.135,453.435,212.338,453.1,212Z" transform="translate(-446.547 -211.348)" fill="#f2a830"/>
          <g id="Grupo_1043317" data-name="Grupo 1043317" transform="translate(0.595 9.938)" style="isolation: isolate">
            <path id="Trazado_773606" data-name="Trazado 773606" d="M439.587,238.709l-.157-.091a.274.274,0,0,1-.049-.039l.157.091a.243.243,0,0,0,.049.039Z" transform="translate(-439.381 -238.579)" fill="#9e9e9e"/>
          </g>
          <path id="Trazado_773607" data-name="Trazado 773607" d="M442.452,226.984l1.005-.743.006.014-2.954,4.17a1.094,1.094,0,0,1-.1.127c-.2.211-.444.278-.58.142Z" transform="translate(-439.073 -220.664)" fill="#979797"/>
          <g id="Grupo_1043318" data-name="Grupo 1043318" transform="translate(4.025)">
            <path id="Trazado_773608" data-name="Trazado 773608" d="M449.833,220.234c.129.075.148.309,0,.521l-.747,1.056.157.092.748-1.057c.149-.211.13-.445,0-.52Z" transform="translate(-449.084 -216.781)" fill="#f2a830"/>
            <path id="Trazado_773609" data-name="Trazado 773609" d="M451.928,210.556c-.384-.223-.963-.022-1.46.5a2.982,2.982,0,0,0-.288.351c-.6.85-.735,1.9-.3,2.34a.653.653,0,0,0,.135.1l.157.092a.668.668,0,0,1-.135-.1c-.438-.443-.306-1.49.3-2.34a3.006,3.006,0,0,1,.288-.351c.5-.518,1.076-.719,1.46-.5Z" transform="translate(-449.433 -210.466)" fill="#f2a830"/>
          </g>
          <path id="Trazado_773610" data-name="Trazado 773610" d="M452.16,210.92c.439.44.307,1.489-.3,2.34l-1.142,1.612-1.193.883.748-1.057c.162-.229.126-.485-.034-.536a.635.635,0,0,1-.265-.161c-.438-.443-.306-1.49.3-2.34a3.01,3.01,0,0,1,.288-.351C451.124,210.726,451.787,210.545,452.16,210.92Zm-.486,2.148c.459-.648.56-1.445.225-1.782-.283-.286-.79-.146-1.217.3a2.275,2.275,0,0,0-.218.266c-.458.648-.559,1.445-.226,1.781.284.286.79.146,1.217-.3a2.3,2.3,0,0,0,.218-.265Z" transform="translate(-445.346 -210.633)" fill="#db950b"/>
          <path id="Trazado_773611" data-name="Trazado 773611" d="M441.735,224.77l-3.617,2.674a.918.918,0,0,0-.115.1,1.04,1.04,0,0,0-.3.774l.158.091a1.036,1.036,0,0,1,.3-.775.908.908,0,0,1,.115-.1l3.617-2.674Z" transform="translate(-437.697 -219.713)" fill="#c4c4c4"/>
        </g>
        <path id="Trazado_773612" data-name="Trazado 773612" d="M439.421,230.581l-2.491,3.357a20.935,20.935,0,0,0,2.843-.131c.076-.029,1.742-3.98,1.742-3.98Z" transform="translate(-417.942 -199.902)" fill="#d65086"/>
        <path id="Trazado_773613" data-name="Trazado 773613" d="M472.623,184.82a2.332,2.332,0,0,0-1.652,2.6c1.252,9.42.1,9.1-4.614,16.154a4.305,4.305,0,0,0-2.435.525c-2.369,1.164-1.768,1.91-1.377,1.976a6.726,6.726,0,0,0,2.641-.2c.848-.02.947-.151,1.611-.193a1.312,1.312,0,0,0,1.008-.444l.035.022c6.3-7.22,7.158-8.036,7.4-11.134l-.175-7.2A1.928,1.928,0,0,0,472.623,184.82Z" transform="translate(-434.264 -170.762)" fill="#f2ddbb"/>
        <path id="Trazado_773614" data-name="Trazado 773614" d="M452.858,214.812a2.069,2.069,0,0,0-.226,2.013c.26.516.6,1.084.827,1.48.1.178.377.217.41.014a2.468,2.468,0,0,0-.215-1.289c-.295-.639.364-1.075.323-1.558S453.5,213.963,452.858,214.812Z" transform="translate(-427.983 -189.985)" fill="#f2ddbb"/>
      </g>
    </g>
  </g>
</svg>
