<svg xmlns="http://www.w3.org/2000/svg" xmlns:xlink="http://www.w3.org/1999/xlink" width="85" height="85" viewBox="0 0 85 85">
  <defs>
    <clipPath id="clip-path">
      <path id="Trazado_107670" data-name="Trazado 107670" d="M5217.439,2357.676a.028.028,0,0,1-.017,0l-.361-.086a.027.027,0,0,1-.02-.024.026.026,0,0,1,.018-.025l.247-.08-.064-.131a.024.024,0,0,1,0-.02.026.026,0,0,1,.014-.014l.213-.1-.049-.087a.024.024,0,0,1,0-.02.023.023,0,0,1,.012-.015l.2-.107-.044-.068a.029.029,0,0,1,0-.025.027.027,0,0,1,.021-.014l.274-.021a.025.025,0,0,1,.026.018.026.026,0,0,1-.013.03l-.189.1.062.1a.025.025,0,0,1,0,.021.03.03,0,0,1-.014.016l-.217.1.086.153a.027.027,0,0,1,0,.007.026.026,0,0,1-.013.034h0l-.235.077.07.144,0,.006a.026.026,0,0,1-.013.034Zm-.278-.114.22.053-.052-.107Zm.194-.117.213-.07-.075-.135-.194.089Zm.121-.338.038.068.194-.089-.048-.075Zm.179-.2.023.036.083-.044Z" transform="translate(-5217.042 -2356.838)" fill="#272a2d"/>
    </clipPath>
    <clipPath id="clip-path-2">
      <path id="Trazado_107679" data-name="Trazado 107679" d="M5200.867,2359.116a.024.024,0,0,1-.015-.006l-.291-.231a.026.026,0,0,1,.019-.046l.257.03,0-.146a.027.027,0,0,1,.008-.019.025.025,0,0,1,.019-.008h.234l-.008-.1a.026.026,0,0,1,.007-.019.025.025,0,0,1,.018-.009l.229-.012-.011-.081a.025.025,0,0,1,.01-.024.026.026,0,0,1,.025,0l.256.1a.026.026,0,0,1,.017.028.027.027,0,0,1-.024.022l-.214.011.016.114a.022.022,0,0,1-.006.02.025.025,0,0,1-.02.009h-.238l.014.175a.021.021,0,0,1,0,.008.026.026,0,0,1-.025.026h0l-.247-.029,0,.161v.007a.027.027,0,0,1-.026.026Zm-.2-.22.177.14,0-.12Zm.225-.026.223.027-.012-.154h-.214Zm.252-.257.006.078h.214l-.012-.089Zm.246-.107.006.042.095,0Z" transform="translate(-5200.551 -2358.441)" fill="#272a2d"/>
    </clipPath>
  </defs>
  <g id="Grupo_1052718" data-name="Grupo 1052718" transform="translate(-1210 -3684)">
    <g id="Grupo_1043289" data-name="Grupo 1043289" transform="translate(1220.649 3700.992)">
      <path id="Trazado_107551" data-name="Trazado 107551" d="M5042.167,2329.954s-4.334.175-2.634,4.062,8.188,12.985,8.188,12.985l17.929-4.133s-1.552-4.737-1.674-5.495,16.3,8.161,16.3,8.161,3.02,2.357,7.563,0,14.63-7.39,14.906-8.752-7.611-2.241-7.611-2.241,6.678-2.45,7.1-3.222-1.146-2.381-12.637-4.473C5066.941,2325.135,5042.167,2329.954,5042.167,2329.954Z" transform="translate(-5039.138 -2295.978)" fill="#809aaa"/>
      <path id="Trazado_107552" data-name="Trazado 107552" d="M5219.89,2326.174l-10.133-2.687.736-.812,9.707,2.432Z" transform="translate(-5158.637 -2293.314)" fill="#0059a5"/>
      <path id="Trazado_107553" data-name="Trazado 107553" d="M5210.194,2331.672l-7.658-2.084.736-.812,7.231,1.829Z" transform="translate(-5153.58 -2297.587)" fill="#0059a5"/>
      <path id="Trazado_107554" data-name="Trazado 107554" d="M5188.633,2297.278c-2.788-.606-2.955-1.749-2.955-3.458a2.686,2.686,0,0,1,2.686-2.686l9.836-.308s-2.814.6-3.044,3.18,2.692,3.777,2.692,3.777Z" transform="translate(-5141.772 -2271.008)" fill="#dddb00"/>
      <path id="Trazado_107555" data-name="Trazado 107555" d="M5222.807,2294.314a3.487,3.487,0,1,1-3.487-3.487A3.487,3.487,0,0,1,5222.807,2294.314Z" transform="translate(-5162.893 -2271.008)" fill="#b6cc00"/>
      <path id="Trazado_107556" data-name="Trazado 107556" d="M5225.653,2301.264a.9.9,0,0,1,0-1.8h2.326v1.8Z" transform="translate(-5169.141 -2277.059)" fill="#009ee2"/>
      <g id="Grupo_70592" data-name="Grupo 70592" transform="translate(1.175 0)">
        <path id="Trazado_107557" data-name="Trazado 107557" d="M5163.61,2320.427l12.662-3.968v-7.435l1.457-1.308,1.026-2.951v-5.949H5163.61Z" transform="translate(-5127.492 -2276.604)" fill="#0059a5"/>
        <path id="Trazado_107558" data-name="Trazado 107558" d="M5125.328,2322.984l-16.377-8.312v-12.206l16.377,1.865Z" transform="translate(-5089.209 -2279.16)" fill="#006fb6"/>
        <path id="Trazado_107559" data-name="Trazado 107559" d="M5134.494,2317.987l-12.456-4.612v-9.227l12.456,1.484Z" transform="translate(-5098.375 -2280.338)" fill="#0059a5"/>
        <path id="Trazado_107560" data-name="Trazado 107560" d="M5126.13,2307.594s-13.488-2.1-15.052-2.36c-1.4-.23-1.265-1.935.177-1.783s14.876,1.686,14.876,1.686Z" transform="translate(-5090.012 -2279.844)" fill="#81cff4"/>
        <path id="Trazado_107561" data-name="Trazado 107561" d="M5108.7,2316.161v1.771c1.6.378,16.452,4.461,16.452,4.461v-2.457S5110.217,2316.449,5108.7,2316.161Z" transform="translate(-5089.033 -2288.752)" fill="#81cff4"/>
        <path id="Trazado_107562" data-name="Trazado 107562" d="M5108.7,2334.161v1.772c1.72.647,16.452,7.267,16.452,7.267v-2.456S5110.36,2334.717,5108.7,2334.161Z" transform="translate(-5089.033 -2301.359)" fill="#81cff4"/>
        <path id="Trazado_107563" data-name="Trazado 107563" d="M5073.34,2252.749l-15.6-3.606v2.734l13.854,4.741v7.34l.436-1.013h2.814v-8.215Z" transform="translate(-5053.343 -2241.814)" fill="#006fb6"/>
        <path id="Trazado_107564" data-name="Trazado 107564" d="M5069.515,2229.385s-9.781,5.121-10.762,6.071-.356,1.08.3.693,10.465-5.682,10.465-5.682Z" transform="translate(-5053.694 -2227.976)" fill="#009ee2"/>
        <path id="Trazado_107565" data-name="Trazado 107565" d="M5069.515,2233.88s-9.781,5.12-10.762,6.071-.356,1.08.3.693,10.465-5.683,10.465-5.683Z" transform="translate(-5053.694 -2231.124)" fill="#009ee2"/>
        <path id="Trazado_107566" data-name="Trazado 107566" d="M5120.771,2298.868v-2.288l-16.788-1.734v2.1Z" transform="translate(-5085.73 -2273.824)" fill="#009ee2"/>
        <path id="Trazado_107567" data-name="Trazado 107567" d="M5120.771,2294.469v-1.575l-16.788-1.308v.965Z" transform="translate(-5085.73 -2271.54)" fill="#006fb6"/>
        <path id="Trazado_107568" data-name="Trazado 107568" d="M5073.759,2336.847v2.912c0,.652,1.173.678,1.173,0s0-2.2,0-2.2l-.007-.852Z" transform="translate(-5064.561 -2303.142)" fill="#00529d"/>
        <path id="Trazado_107569" data-name="Trazado 107569" d="M5052.022,2343.386l8.43-1.7-.594-.462-8.181,1.687Z" transform="translate(-5049.096 -2306.305)" fill="#807773"/>
        <g id="Grupo_70578" data-name="Grupo 70578" transform="translate(10.872 33.186)">
          <path id="Trazado_107570" data-name="Trazado 107570" d="M5081.73,2337.175c.135,1.034.063,1.9-.923,2.024s-1.278-.686-1.413-1.719-.026-1.9.924-2.025S5081.595,2336.141,5081.73,2337.175Z" transform="translate(-5079.347 -2335.443)" fill="#1d1d1b"/>
          <path id="Trazado_107571" data-name="Trazado 107571" d="M5080.915,2339.222c.085.649.046,1.19-.087,1.207s-.309-.495-.394-1.144-.045-1.189.087-1.207S5080.83,2338.573,5080.915,2339.222Z" transform="translate(-5080.077 -2337.288)" fill="#bfb8b9"/>
        </g>
        <path id="Trazado_107572" data-name="Trazado 107572" d="M5067.393,2340.363l-.487,1.008-11.176-8.634s-8.152,1.417-8.207,1.435l-.423-1,7.953-1.3-.413-1.844,1.3.6.324,1.315Z" transform="translate(-5045.89 -2298.468)" fill="#00529d"/>
        <path id="Trazado_107573" data-name="Trazado 107573" d="M5050.193,2299.789a5.109,5.109,0,0,1,2.284-9.68h6.634s-5.354,1.134-5.791,6.049,3.1,6.651,3.1,6.651Z" transform="translate(-5046.078 -2270.506)" fill="#dddb00"/>
        <circle id="Elipse_4484" data-name="Elipse 4484" cx="6.633" cy="6.633" r="6.633" transform="translate(6.106 32.562) rotate(-87.403)" fill="#b6cc00"/>
        <path id="Trazado_107574" data-name="Trazado 107574" d="M5084.048,2306.739l-1.9-.18a1.779,1.779,0,0,0-1.779,1.779,1.833,1.833,0,0,0,1.779,1.779l1.777.243s.894-.081.894-1.7C5084.822,2306.833,5084.048,2306.739,5084.048,2306.739Z" transform="translate(-5069.193 -2282.027)" fill="#837877"/>
        <path id="Trazado_107575" data-name="Trazado 107575" d="M5089.82,2308.971a1.811,1.811,0,1,1-1.811-1.811A1.811,1.811,0,0,1,5089.82,2308.971Z" transform="translate(-5073.273 -2282.448)" fill="#aea5a3"/>
        <path id="Trazado_107576" data-name="Trazado 107576" d="M5066.717,2327.112a.912.912,0,0,0-.04-.42l-5.149-14.651-.3.034a1.435,1.435,0,0,0,.038-.326,1.452,1.452,0,1,0-2.756.637l-.731.083s-4,11.349-5.283,15.752l-5.91-8.15,1.833-6.464-.655-.521s-1.56,4.808-2.142,6.953c.123.429,6.5,9.655,6.5,9.655v3c0,.767,1.379.8,1.379,0v-2.666s9.476-1.641,11.849-2.07v2.421c0,.766,1.379.8,1.379,0v-3.273Zm-12.942,1.383,4.938-14.916,2.05-.189,4.585,13.118Z" transform="translate(-5044.854 -2284.646)" fill="#006fb6"/>
        <g id="Grupo_70579" data-name="Grupo 70579" transform="translate(0 35.262)">
          <path id="Trazado_107577" data-name="Trazado 107577" d="M5045.566,2344.15c.172,1.078.122,1.982-.907,2.146s-1.358-.68-1.529-1.759-.083-1.988.909-2.146S5045.4,2343.072,5045.566,2344.15Z" transform="translate(-5043.06 -2342.372)" fill="#1d1d1b"/>
          <path id="Trazado_107578" data-name="Trazado 107578" d="M5044.717,2346.386c.107.677.083,1.244-.057,1.266s-.338-.509-.445-1.186-.082-1.244.057-1.266S5044.609,2345.709,5044.717,2346.386Z" transform="translate(-5043.823 -2344.353)" fill="#bfb8b9"/>
        </g>
        <path id="Trazado_107579" data-name="Trazado 107579" d="M5092.518,2313.619a.716.716,0,1,1-.716-.716A.716.716,0,0,1,5092.518,2313.619Z" transform="translate(-5076.696 -2286.471)" fill="#009ee2"/>
        <path id="Trazado_107580" data-name="Trazado 107580" d="M5062.576,2232.8a43.9,43.9,0,0,0-4.184,2.113,20.49,20.49,0,0,0-3.632,2.239s-1.149,1.531-1.333,6.681-.914,4.953-1.946,6.36c-.909,1.238-.331.975,3.233.858s3.4-.117,3.4-.117-.473-.207.458-1.32c1.643-1.965,1.855-3.357,2.436-8.586C5061.841,2233.581,5062.576,2232.8,5062.576,2232.8Z" transform="translate(-5048.69 -2230.368)" fill="#b1ca07"/>
        <path id="Trazado_107581" data-name="Trazado 107581" d="M5074.212,2289.621s.343.071.872-.642a2.4,2.4,0,0,1,2-.943h-2.2S5073.685,2289.3,5074.212,2289.621Z" transform="translate(-5064.784 -2269.054)" fill="#80ba27"/>
        <path id="Trazado_107582" data-name="Trazado 107582" d="M5080.11,2288.035a4.772,4.772,0,0,1,2.774.941,8.7,8.7,0,0,0-2.611-.32H5078.4A2.3,2.3,0,0,1,5080.11,2288.035Z" transform="translate(-5067.81 -2269.053)" fill="#4ead33"/>
        <g id="Grupo_70580" data-name="Grupo 70580" transform="translate(36.119 38.037)">
          <path id="Trazado_107583" data-name="Trazado 107583" d="M5163.61,2355.427l12.627-3.793,7.923,1.9-12.963,5.752Z" transform="translate(-5163.61 -2351.634)" fill="#006fb6"/>
          <path id="Trazado_107584" data-name="Trazado 107584" d="M5171.3,2370.2l-7.688-3.918v-1.994l7.688,3.806Z" transform="translate(-5163.61 -2360.5)" fill="#00529d"/>
          <path id="Trazado_107585" data-name="Trazado 107585" d="M5202.132,2360.089l-12.861,5.686v-2.106l12.861-5.686Z" transform="translate(-5181.583 -2356.081)" fill="#00529d"/>
        </g>
        <path id="Trazado_107586" data-name="Trazado 107586" d="M5170.435,2253.1a3.987,3.987,0,0,1-.686-.059.115.115,0,0,1,.042-.226h0a2.619,2.619,0,0,0,1.645-.189.619.619,0,0,0,.25-.469.713.713,0,0,0-.2-.569,2.183,2.183,0,0,0-1.084-.533,4.917,4.917,0,0,0-1.062-.137.115.115,0,1,1,0-.23,5.193,5.193,0,0,1,1.116.144,2.368,2.368,0,0,1,1.2.6.944.944,0,0,1,.261.743.852.852,0,0,1-.339.633A1.94,1.94,0,0,1,5170.435,2253.1Z" transform="translate(-5131.422 -2242.896)" fill="#00529d"/>
        <path id="Trazado_107587" data-name="Trazado 107587" d="M5084.188,2248.147s1.947.95,6.654-.617c3.253-1.045,5.045-1.272,7.651-2.173l-4.589-1.693a45.585,45.585,0,0,1-8.995-.7A48.126,48.126,0,0,0,5084.188,2248.147Z" transform="translate(-5071.865 -2237.486)" fill="#80ba27"/>
        <path id="Trazado_107588" data-name="Trazado 107588" d="M5089.9,2236.215" transform="translate(-5075.866 -2232.759)" fill="#4ead33"/>
        <path id="Trazado_107589" data-name="Trazado 107589" d="M5086.905,2237.46a3.932,3.932,0,0,1,.749-1.208c.493-.509.37-.443.37-.443l-.861.465S5086.948,2237.235,5086.905,2237.46Z" transform="translate(-5073.769 -2232.473)" fill="#4ead33"/>
        <path id="Trazado_107590" data-name="Trazado 107590" d="M5115.894,2256.265v-1.552s-14.676,3.137-16.638,3.657c-1.41.427-.988,1.345,0,1.151Z" transform="translate(-5081.784 -2245.715)" fill="#009ee2"/>
        <path id="Trazado_107591" data-name="Trazado 107591" d="M5102.886,2251.8l-2.307-.851s-10.635,2.984-12.558,3.633c-1.378.52-.9,1.407.077,1.148Z" transform="translate(-5073.951 -2243.079)" fill="#009ee2"/>
        <g id="Grupo_70583" data-name="Grupo 70583" transform="translate(4.399)">
          <path id="Trazado_107592" data-name="Trazado 107592" d="M5118.019,2229.8l-22.155-5.122v3.883l19.22,7.091v14.2l1.078.122v-5.69h4v-11.668Z" transform="translate(-5084.442 -2224.68)" fill="#006fb6"/>
          <path id="Trazado_107593" data-name="Trazado 107593" d="M5095.864,2226.41v2.873s3.024.685,3.024.221v-1.569C5098.888,2227.051,5095.864,2226.41,5095.864,2226.41Z" transform="translate(-5084.442 -2225.892)" fill="#81cff4"/>
          <path id="Trazado_107594" data-name="Trazado 107594" d="M5100.615,2230.908a.578.578,0,1,1-.558-.7A.637.637,0,0,1,5100.615,2230.908Z" transform="translate(-5086.976 -2228.554)" fill="#006fb6"/>
          <path id="Trazado_107595" data-name="Trazado 107595" d="M5094.323,2226.41s-.66.143-.66,1.569c0,1.184.66,1.3.66,1.3Z" transform="translate(-5082.9 -2225.892)" fill="#d3ecfb"/>
          <path id="Trazado_107596" data-name="Trazado 107596" d="M5057.742,2249.7s.607-.2.607.959a1.666,1.666,0,0,1-.607,1.374Z" transform="translate(-5057.742 -2242.198)" fill="#d3ecfb"/>
          <g id="Grupo_70581" data-name="Grupo 70581" transform="translate(26.992 4.272)">
            <path id="Trazado_107597" data-name="Trazado 107597" d="M5150.03,2238.94v2.873s2.305.6,2.305.133v-1.569C5152.335,2239.492,5150.03,2238.94,5150.03,2238.94Z" transform="translate(-5149.371 -2238.94)" fill="#81cff4"/>
            <path id="Trazado_107598" data-name="Trazado 107598" d="M5153.106,2243.146a.578.578,0,1,1-.558-.7A.637.637,0,0,1,5153.106,2243.146Z" transform="translate(-5150.731 -2241.397)" fill="#006fb6"/>
            <path id="Trazado_107599" data-name="Trazado 107599" d="M5148.489,2238.94s-.659.143-.659,1.568c0,1.184.659,1.3.659,1.3Z" transform="translate(-5147.831 -2238.94)" fill="#d3ecfb"/>
          </g>
          <g id="Grupo_70582" data-name="Grupo 70582" transform="translate(31.623 6.659)">
            <path id="Trazado_107600" data-name="Trazado 107600" d="M5163.924,2247.768s.129-.864-.637-.864v2.939c.766,0,.637-.864.637-.864s.671.009.676-.606S5163.924,2247.768,5163.924,2247.768Z" transform="translate(-5163.287 -2246.904)" fill="#81cff4"/>
            <path id="Trazado_107601" data-name="Trazado 107601" d="M5167.67,2251.792v0Z" transform="translate(-5166.357 -2250.323)" fill="#009ee2"/>
          </g>
          <path id="Trazado_107602" data-name="Trazado 107602" d="M5159.71,2246.9h-.749v.892s-.781-.124-.781.6c0,.645.765.569.765.569v.883h.765Z" transform="translate(-5128.088 -2240.246)" fill="#d3ecfb"/>
          <path id="Trazado_107603" data-name="Trazado 107603" d="M5163.088,2258.7a.537.537,0,0,1-.536.536h-.491a.536.536,0,0,1-.536-.536h0a.537.537,0,0,1,.536-.537h.491a.537.537,0,0,1,.536.537Z" transform="translate(-5130.431 -2248.133)" fill="#81cff4"/>
          <path id="Trazado_107604" data-name="Trazado 107604" d="M5168.561,2256.6a.537.537,0,0,1-.536.537h-.491a.536.536,0,0,1-.535-.537h0a.536.536,0,0,1,.535-.536h.491a.536.536,0,0,1,.536.536Z" transform="translate(-5134.264 -2246.664)" fill="#81cff4"/>
          <path id="Trazado_107605" data-name="Trazado 107605" d="M5166.863,2254.948a3.805,3.805,0,0,1-.548-.042,5.77,5.77,0,0,1-1.146-.294.115.115,0,0,1,.083-.214,5.655,5.655,0,0,0,1.1.281,1.8,1.8,0,0,0,1.59-.341,1.093,1.093,0,0,0,.271-1.177c-.1-.228-.484-.758-1.766-.758a.115.115,0,0,1,0-.23,2.024,2.024,0,0,1,1.975.893,1.314,1.314,0,0,1-.307,1.422,1.364,1.364,0,0,1-.833.427A2.6,2.6,0,0,1,5166.863,2254.948Z" transform="translate(-5132.931 -2243.936)" fill="#00529d"/>
        </g>
        <path id="Trazado_107606" data-name="Trazado 107606" d="M5123.309,2265.308c-.3-2.151-1.237-10.368-1.237-10.368l-3.114-1.149-8.846,2.34s.8,6.189,1.152,8.714c.232,1.674,1.058,1.965,1.058,1.965l12.336,1.188S5123.615,2267.5,5123.309,2265.308Z" transform="translate(-5090.021 -2245.069)" fill="#b6cc00"/>
        <path id="Trazado_107607" data-name="Trazado 107607" d="M5120.682,2268.66v-1.743l-16.826,2.891v1.173Z" transform="translate(-5085.64 -2254.262)" fill="#009ee2"/>
        <g id="Grupo_70584" data-name="Grupo 70584" transform="translate(36.119 19.603)">
          <path id="Trazado_107608" data-name="Trazado 107608" d="M5165.947,2297.514l-2.336-.518v-6.887h2.336Z" transform="translate(-5163.61 -2290.109)" fill="#009ee2"/>
          <path id="Trazado_107609" data-name="Trazado 107609" d="M5176.86,2296.982l-5.452.532v-7.405h5.452Z" transform="translate(-5169.072 -2290.109)" fill="#81cff4"/>
          <path id="Trazado_107610" data-name="Trazado 107610" d="M5177.578,2296.07l-4.38.191v-4.031h4.38Z" transform="translate(-5170.325 -2291.595)" fill="#006fb6"/>
          <path id="Trazado_107611" data-name="Trazado 107611" d="M5178.315,2296.787l-3.277.107v-2.874h3.277Z" transform="translate(-5171.614 -2292.849)" fill="#d3ecfb"/>
          <circle id="Elipse_4485" data-name="Elipse 4485" cx="0.648" cy="0.648" r="0.648" transform="translate(2.872 5.423)" fill="#006fb6"/>
          <path id="Trazado_107612" data-name="Trazado 107612" d="M5180.285,2309.319a.28.28,0,1,1-.28-.281A.28.28,0,0,1,5180.285,2309.319Z" transform="translate(-5174.897 -2303.366)" fill="#006fb6"/>
          <path id="Trazado_107613" data-name="Trazado 107613" d="M5183.343,2309.139a.281.281,0,1,1-.28-.28A.281.281,0,0,1,5183.343,2309.139Z" transform="translate(-5177.038 -2303.241)" fill="#006fb6"/>
          <path id="Trazado_107614" data-name="Trazado 107614" d="M5186.249,2308.958a.281.281,0,1,1-.28-.281A.281.281,0,0,1,5186.249,2308.958Z" transform="translate(-5179.073 -2303.114)" fill="#006fb6"/>
          <path id="Trazado_107615" data-name="Trazado 107615" d="M5176.282,2309.614a.324.324,0,0,1-.324.324h-.6a.324.324,0,0,1-.325-.324h0a.324.324,0,0,1,.325-.324h.6a.324.324,0,0,1,.324.324Z" transform="translate(-5171.614 -2303.543)" fill="#d3ecfb"/>
        </g>
        <path id="Trazado_107616" data-name="Trazado 107616" d="M5159.284,2314.951a2.285,2.285,0,0,1-1.009-.209,1.339,1.339,0,0,1-.733-.924,2.963,2.963,0,0,1,.25-1.716,19.913,19.913,0,0,0,1.12-3.571,2.949,2.949,0,0,0-.089-1.987.637.637,0,0,0-.571-.279v-.275a.907.907,0,0,1,.8.4c.687,1.013-.167,3.721-1,5.815-.462,1.156-.341,1.948.349,2.29a2.63,2.63,0,0,0,1.772.056,2.358,2.358,0,0,0,1.377-.847,2.65,2.65,0,0,0,.31-1.566,6.466,6.466,0,0,0-.393-1.714,11.334,11.334,0,0,0-.927-1.938l.233-.147a11.371,11.371,0,0,1,.952,1.987,6.74,6.74,0,0,1,.41,1.79,2.922,2.922,0,0,1-.348,1.73,2.592,2.592,0,0,1-1.542.971A3.689,3.689,0,0,1,5159.284,2314.951Z" transform="translate(-5123.211 -2281.629)" fill="#d3ecfb"/>
        <path id="Trazado_107617" data-name="Trazado 107617" d="M5161.53,2313.16a1.351,1.351,0,0,1-.5-.1,1.056,1.056,0,0,1-.616-.6,1.866,1.866,0,0,1-.083-.9,11.145,11.145,0,0,1,.639-2.238,10.146,10.146,0,0,0,.645-2.321,1.592,1.592,0,0,0-.347-1.224,2.015,2.015,0,0,0-1.271-.582l.014-.276a2.276,2.276,0,0,1,1.464.675,1.861,1.861,0,0,1,.416,1.427,10.345,10.345,0,0,1-.661,2.393,10.9,10.9,0,0,0-.624,2.176c-.073.656.094,1.042.526,1.216a1.143,1.143,0,0,0,1.319-.37,4.455,4.455,0,0,0,.521-4.562l.252-.113a5.01,5.01,0,0,1,.361,2.736,3.94,3.94,0,0,1-.935,2.13A1.554,1.554,0,0,1,5161.53,2313.16Z" transform="translate(-5124.958 -2280.876)" fill="#d3ecfb"/>
        <path id="Trazado_107618" data-name="Trazado 107618" d="M5157.072,2314.659c-.048,0-.1,0-.146,0a3.259,3.259,0,0,1-1.864-.7,2.5,2.5,0,0,1-.928-1.592,3.56,3.56,0,0,1,.573-2.327l.367-.618c1.34-2.259,2.5-4.209,2.041-5.011-.171-.3-.576-.446-1.239-.446v-.276c.771,0,1.254.191,1.479.586.251.441.155,1.119-.3,2.135a34.905,34.905,0,0,1-1.744,3.153q-.18.3-.365.618a3.293,3.293,0,0,0-.539,2.146,2.23,2.23,0,0,0,.828,1.418,2.981,2.981,0,0,0,1.705.636,2.169,2.169,0,0,0,1.59-.51c.453-.415.92-1.446.583-4a21.527,21.527,0,0,0-.621-2.951l.264-.079a21.806,21.806,0,0,1,.631,2.994,10.374,10.374,0,0,1,.079,2.4,2.838,2.838,0,0,1-.748,1.842A2.4,2.4,0,0,1,5157.072,2314.659Z" transform="translate(-5120.835 -2280.016)" fill="#d3ecfb"/>
        <g id="Grupo_70586" data-name="Grupo 70586" transform="translate(43.782 25.847)">
          <circle id="Elipse_4486" data-name="Elipse 4486" cx="1.878" cy="1.878" r="1.878" transform="matrix(1, -0.014, 0.014, 1, 0, 0.051)" fill="#81cff4"/>
          <g id="Grupo_70585" data-name="Grupo 70585" transform="translate(0.025 0.025)">
            <path id="Trazado_107619" data-name="Trazado 107619" d="M5190.058,2312.91a1.878,1.878,0,0,1,1.485-1.837,1.9,1.9,0,0,0-.394-.042,1.878,1.878,0,1,0,.394,3.714A1.878,1.878,0,0,1,5190.058,2312.91Z" transform="translate(-5189.271 -2311.031)" fill="#009ee2"/>
          </g>
        </g>
        <g id="Grupo_70588" data-name="Grupo 70588" transform="translate(43.003 29.963)">
          <path id="Trazado_107620" data-name="Trazado 107620" d="M5188.4,2325.589a.9.9,0,1,1-.9-.9A.9.9,0,0,1,5188.4,2325.589Z" transform="translate(-5186.587 -2324.685)" fill="#81cff4"/>
          <g id="Grupo_70587" data-name="Grupo 70587">
            <path id="Trazado_107621" data-name="Trazado 107621" d="M5186.967,2325.589a.9.9,0,0,1,.715-.884.87.87,0,0,0-.189-.02.9.9,0,1,0,.189,1.788A.9.9,0,0,1,5186.967,2325.589Z" transform="translate(-5186.587 -2324.685)" fill="#009ee2"/>
          </g>
        </g>
        <g id="Grupo_70590" data-name="Grupo 70590" transform="translate(39.543 30.208)">
          <path id="Trazado_107622" data-name="Trazado 107622" d="M5176.847,2326.407a.9.9,0,1,1-.9-.9A.9.9,0,0,1,5176.847,2326.407Z" transform="translate(-5175.038 -2325.503)" fill="#81cff4"/>
          <g id="Grupo_70589" data-name="Grupo 70589">
            <path id="Trazado_107623" data-name="Trazado 107623" d="M5175.417,2326.407a.905.905,0,0,1,.715-.885.947.947,0,0,0-.189-.02.9.9,0,1,0,.189,1.789A.905.905,0,0,1,5175.417,2326.407Z" transform="translate(-5175.038 -2325.503)" fill="#009ee2"/>
          </g>
        </g>
        <g id="Grupo_70591" data-name="Grupo 70591" transform="translate(40.634 34.824)">
          <path id="Trazado_107624" data-name="Trazado 107624" d="M5185.019,2341.9a1.155,1.155,0,0,1-.8,1.18l-4.084,1.593a1.332,1.332,0,0,1-1.425-.98l-.026-.278a1.155,1.155,0,0,1,.8-1.18l4.532-1.288c.491-.139,1.5.1,1.559.946Z" transform="translate(-5178.68 -2340.909)" fill="#006fb6"/>
          <path id="Trazado_107625" data-name="Trazado 107625" d="M5186.963,2342.811a1.156,1.156,0,0,1-.8,1.179l-4.532,1.288a.744.744,0,0,1-.976-.675l-.026-.278a1.155,1.155,0,0,1,.8-1.179l4.532-1.288a.744.744,0,0,1,.977.675Z" transform="translate(-5180.042 -2341.55)" fill="#81cff4"/>
        </g>
      </g>
      <path id="Trazado_107626" data-name="Trazado 107626" d="M5234.313,2300.365a.9.9,0,1,1-.9-.9A.9.9,0,0,1,5234.313,2300.365Z" transform="translate(-5174.577 -2277.059)" fill="#d3ecfb"/>
      <path id="Trazado_107627" data-name="Trazado 107627" d="M5230.571,2301.508c-.2-.481-.765-.576-.924,0-.033.121-2.176,10.546-2.176,10.546v2.05c0,.547,1.088.227,1.088-.346v-1.616l3.224-1.039v1.427c0,.624,1.012.312,1.012-.233v-1.974S5230.774,2301.989,5230.571,2301.508Zm-1.894,9.57,1.541-7.411,1.54,6.4Z" transform="translate(-5171.044 -2278.211)" fill="#006fb6"/>
      <g id="Grupo_70653" data-name="Grupo 70653" transform="translate(42.329 8.509)">
        <g id="Grupo_70650" data-name="Grupo 70650" transform="translate(0 0.396)">
          <g id="Grupo_70596" data-name="Grupo 70596" transform="translate(0 15.294)">
            <g id="Grupo_70595" data-name="Grupo 70595">
              <g id="Grupo_70594" data-name="Grupo 70594">
                <g id="Grupo_70593" data-name="Grupo 70593">
                  <path id="Trazado_107628" data-name="Trazado 107628" d="M5182.734,2305.661l0,0a1.549,1.549,0,0,0-.825-.2c-.249.071-.3.215-.176.561-1.247.6-1.432.6-1.274.881.113.169,1.014-.312,1.014-.312s-.075.081.058.24.224.087.224.087-.037.1.13.217c.138.1.2.027.2.027s.013.216.179.265.785-.226,1.11-.991Z" transform="translate(-5180.415 -2305.447)" fill="#f7c4bd"/>
                  <path id="Trazado_107629" data-name="Trazado 107629" d="M5187.618,2308.527s.094-.274-.443-.516c.291.092.437-.055.448-.111s-.069.079-.317.013-.262-.113-.262-.113a.155.155,0,0,1-.02.193.213.213,0,0,1,.068.142.228.228,0,0,1,.239.2C5187.534,2308.284,5187.618,2308.527,5187.618,2308.527Z" transform="translate(-5185.044 -2307.095)" fill="#f3aea9"/>
                  <path id="Trazado_107630" data-name="Trazado 107630" d="M5184.645,2307.675a1.625,1.625,0,0,1-.43-.414,1.272,1.272,0,0,0,.225.311c-.123.061-.485.247-.485.247a3.224,3.224,0,0,0,.513-.219.925.925,0,0,0,.179.145.368.368,0,0,0,.237-.121c.05.077,0,.11-.078.166s-.569.363-.569.363a3.78,3.78,0,0,0,.7-.39.2.2,0,0,1,.225.176c0,.165-.583.451-.583.451-.078.066.421-.158.564-.308a.241.241,0,0,0,.074-.14.266.266,0,0,1,.215.149c.027.057.041.065.044-.007a.244.244,0,0,0-.261-.188c-.025-.131-.111-.158-.248-.194a.161.161,0,0,0-.038-.133.148.148,0,0,0,.016-.111c.229.111.481.065.339.028a1.083,1.083,0,0,1-.559-.276C5185.028,2307.519,5184.781,2307.625,5184.645,2307.675Z" transform="translate(-5182.893 -2306.682)" fill="#e98a88"/>
                </g>
              </g>
            </g>
          </g>
          <g id="Grupo_70649" data-name="Grupo 70649" transform="translate(2.319)">
            <g id="Grupo_70604" data-name="Grupo 70604" transform="translate(4.307)">
              <g id="Grupo_70603" data-name="Grupo 70603">
                <g id="Grupo_70602" data-name="Grupo 70602">
                  <g id="Grupo_70600" data-name="Grupo 70600">
                    <path id="Trazado_107631" data-name="Trazado 107631" d="M5210.79,2276.594l-.968-.059s-.038.255-.078.43a5.308,5.308,0,0,0,.569.977l.5-.911C5210.8,2276.853,5210.79,2276.594,5210.79,2276.594Z" transform="translate(-5207.583 -2269.904)" fill="#f3aea9"/>
                    <path id="Trazado_107632" data-name="Trazado 107632" d="M5209.911,2276.676a1.133,1.133,0,0,0,1.009.193l-.018-.337-.961-.038Z" transform="translate(-5207.7 -2269.875)" fill="#e98a88"/>
                    <path id="Trazado_107633" data-name="Trazado 107633" d="M5207.662,2261.5a6.675,6.675,0,0,1-.485-1.836,3.758,3.758,0,0,1-1.622.221h-.021a3.765,3.765,0,0,1-1.582-.418,6.7,6.7,0,0,1-.706,1.762c-1.076-.124-.8,1.455-.083,1.359a1.994,1.994,0,0,0,2.079,2.052h.021a1.994,1.994,0,0,0,2.315-1.781C5208.278,2263.045,5208.746,2261.511,5207.662,2261.5Z" transform="translate(-5202.53 -2257.951)" fill="#f7c4bd"/>
                    <g id="Grupo_70597" data-name="Grupo 70597" transform="translate(0.257 3.609)">
                      <path id="Trazado_107634" data-name="Trazado 107634" d="M5203.8,2266.564c.009-.154-.388-.208-.413.2a.364.364,0,0,0,.375.423s-.171-.156-.123-.312S5203.792,2266.718,5203.8,2266.564Z" transform="translate(-5203.388 -2266.449)" fill="#e98a88"/>
                      <path id="Trazado_107635" data-name="Trazado 107635" d="M5219.66,2267.526c-.01.155.093.165.121.325s-.159.3-.159.3a.364.364,0,0,0,.423-.373C5220.07,2267.367,5219.669,2267.372,5219.66,2267.526Z" transform="translate(-5214.758 -2267.135)" fill="#e98a88"/>
                    </g>
                    <g id="Grupo_70598" data-name="Grupo 70598" transform="translate(0.633 1.34)">
                      <path id="Trazado_107636" data-name="Trazado 107636" d="M5204.925,2270.412a1.936,1.936,0,0,0-.282-.526,1.971,1.971,0,0,0,1.607,1.992C5205.274,2271.553,5205.2,2271.05,5204.925,2270.412Z" transform="translate(-5204.643 -2266.587)" fill="#f3aea9"/>
                      <path id="Trazado_107637" data-name="Trazado 107637" d="M5209.325,2261.087c-.2-1.076-.437-2.009-.437-2.009a5.633,5.633,0,0,0-1.633.029l-.027.012-.025-.015a5.631,5.631,0,0,0-1.617-.229s-.348.9-.679,1.94a4.936,4.936,0,0,0,.75-1.234,7.625,7.625,0,0,0,3.058.114A2.5,2.5,0,0,0,5209.325,2261.087Z" transform="translate(-5204.828 -2258.875)" fill="#f3aea9"/>
                      <path id="Trazado_107638" data-name="Trazado 107638" d="M5214.715,2271.277c-.349.6-.486,1.09-1.494,1.294a1.971,1.971,0,0,0,1.839-1.781A1.925,1.925,0,0,0,5214.715,2271.277Z" transform="translate(-5210.65 -2267.22)" fill="#f3aea9"/>
                    </g>
                    <g id="Grupo_70599" data-name="Grupo 70599" transform="translate(0.357)">
                      <path id="Trazado_107639" data-name="Trazado 107639" d="M5212.712,2254.422l.083.005.083.005Z" transform="translate(-5210.019 -2254.416)" fill="#511414"/>
                      <path id="Trazado_107640" data-name="Trazado 107640" d="M5208.42,2255.35a2.581,2.581,0,0,0-4.533,2.324l.187,0a3.65,3.65,0,0,0,.708-1.761,3.77,3.77,0,0,0,1.589.463h.009a3.777,3.777,0,0,0,1.636-.261,3.648,3.648,0,0,0,.481,1.836l.186.019A2.312,2.312,0,0,0,5208.42,2255.35Z" transform="translate(-5203.721 -2254.402)" fill="#62433f"/>
                      <path id="Trazado_107641" data-name="Trazado 107641" d="M5208.42,2255.35a2.581,2.581,0,0,0-4.533,2.324,2.456,2.456,0,0,1,.7-2.489,2.9,2.9,0,0,1,3.718.248,2.5,2.5,0,0,1,.374,2.542A2.312,2.312,0,0,0,5208.42,2255.35Z" transform="translate(-5203.721 -2254.402)" fill="#7b5c59"/>
                    </g>
                    <path id="Trazado_107642" data-name="Trazado 107642" d="M5210.741,2265.54a2.638,2.638,0,0,0-.426.783c-.11.353-.237.593.446.635-.211-.08-.374-.063-.286-.441C5210.589,2266.019,5210.789,2265.473,5210.741,2265.54Z" transform="translate(-5207.921 -2262.199)" fill="#f3aea9"/>
                    <path id="Trazado_107643" data-name="Trazado 107643" d="M5211.265,2265.543s.072-.093-.081.573-.029.771.343.719c-.1.189-.556.123-.552-.171A6.19,6.19,0,0,1,5211.265,2265.543Z" transform="translate(-5208.445 -2262.202)" fill="#fbdfde"/>
                    <path id="Trazado_107644" data-name="Trazado 107644" d="M5211.478,2267.058c0,.049,0,.1,0,.139-.011.184-.306.14-.306.14s-.3.007-.286-.177a5.617,5.617,0,0,1,.189-.908c.032-.111-.056.024-.125.255a3.371,3.371,0,0,0-.145.675c0,.157.119.237.361.251s.374-.049.389-.205a.879.879,0,0,0-.02-.169s0-.034-.02-.038C5211.474,2267.014,5211.478,2267.058,5211.478,2267.058Z" transform="translate(-5208.324 -2262.674)" fill="#e98a88"/>
                    <path id="Trazado_107645" data-name="Trazado 107645" d="M5203.239,2265.406a.641.641,0,0,0-.708.509.57.57,0,0,1,.71-.587A.039.039,0,1,1,5203.239,2265.406Z" transform="translate(-5202.531 -2262.051)" fill="#fbdfde"/>
                    <path id="Trazado_107646" data-name="Trazado 107646" d="M5219.57,2266.325a.64.64,0,0,1,.639.592c.02-.319-.09-.651-.632-.669A.039.039,0,1,0,5219.57,2266.325Z" transform="translate(-5214.438 -2262.698)" fill="#fbdfde"/>
                  </g>
                  <g id="Grupo_70601" data-name="Grupo 70601" transform="translate(1.512 2.594)">
                    <path id="Trazado_107647" data-name="Trazado 107647" d="M5208.317,2263.119a.871.871,0,0,0-.693.025c-.069.021-.053.1,0,.085a.838.838,0,0,1,.671.033C5208.416,2263.316,5208.454,2263.172,5208.317,2263.119Z" transform="translate(-5207.578 -2263.059)" fill="#000100"/>
                    <path id="Trazado_107648" data-name="Trazado 107648" d="M5215.2,2263.594a.868.868,0,0,0-.676-.155c-.145.026-.135.175-.007.145a.837.837,0,0,1,.666.094C5215.235,2263.7,5215.267,2263.628,5215.2,2263.594Z" transform="translate(-5212.37 -2263.315)" fill="#000100"/>
                  </g>
                </g>
                <path id="Trazado_107649" data-name="Trazado 107649" d="M5214.721,2265.3a.311.311,0,1,0,.247.331A.293.293,0,0,0,5214.721,2265.3Z" transform="translate(-5210.857 -2262.035)" fill="#000100"/>
                <path id="Trazado_107650" data-name="Trazado 107650" d="M5214.957,2265.874a.064.064,0,1,1-.059-.07A.064.064,0,0,1,5214.957,2265.874Z" transform="translate(-5211.144 -2262.388)" fill="#fff"/>
                <path id="Trazado_107651" data-name="Trazado 107651" d="M5207.972,2264.776a.311.311,0,1,0,.247.331A.292.292,0,0,0,5207.972,2264.776Z" transform="translate(-5206.131 -2261.667)" fill="#000100"/>
                <path id="Trazado_107652" data-name="Trazado 107652" d="M5208.208,2265.35a.064.064,0,1,1-.059-.07A.064.064,0,0,1,5208.208,2265.35Z" transform="translate(-5206.417 -2262.021)" fill="#fff"/>
              </g>
            </g>
            <g id="Grupo_70648" data-name="Grupo 70648" transform="translate(0 7.015)">
              <g id="Grupo_70609" data-name="Grupo 70609" transform="translate(9.594 1.27)">
                <g id="Grupo_70608" data-name="Grupo 70608">
                  <g id="Grupo_70607" data-name="Grupo 70607" transform="translate(0)">
                    <path id="Trazado_107653" data-name="Trazado 107653" d="M5224.413,2312.508c-.065-.255-.175-.734-.273-.994l-1-.01s-.379.91-.541,1.36c.278.128.434-.062.579-.423a2.689,2.689,0,0,1-.125,1.44c-.07.128.182.278.248.147a4.064,4.064,0,0,0,.263-1.062,5.972,5.972,0,0,1-.046,1.1c-.018.14.265.215.3.018a9.118,9.118,0,0,0,.1-1.158,4.212,4.212,0,0,1,.043,1.064c-.018.146.249.178.283.027a4.165,4.165,0,0,0-.026-1.188s.132.687.147.846.275.1.257-.052A11.2,11.2,0,0,0,5224.413,2312.508Z" transform="translate(-5221.876 -2302.68)" fill="#f7c4bd"/>
                    <path id="Trazado_107654" data-name="Trazado 107654" d="M5224.138,2311.5l1,0,.1.317a4.24,4.24,0,0,0-1.21-.041Z" transform="translate(-5222.87 -2302.68)" fill="#f3aea9"/>
                    <g id="Grupo_70606" data-name="Grupo 70606">
                      <g id="Grupo_70605" data-name="Grupo 70605">
                        <path id="Trazado_107655" data-name="Trazado 107655" d="M5220.312,2286.2c.594.771,1.046,3.264,1.142,4.851l1.156,0s.417-6.652-2.3-8.776C5220.312,2282.281,5220.266,2283.2,5220.312,2286.2Z" transform="translate(-5220.257 -2282.213)" fill="#f29100"/>
                        <path id="Trazado_107656" data-name="Trazado 107656" d="M5222.563,2290.934l-1.221,0v-.032a19.176,19.176,0,0,0-.384-2.726,6.038,6.038,0,0,0-.75-2.106l-.007-.009v-.011c-.045-2.964,0-3.914,0-3.923l0-.066.052.041a5.064,5.064,0,0,1,1.516,2.283,13.015,13.015,0,0,1,.665,2.925,22.329,22.329,0,0,1,.131,3.6Zm-1.157-.073,1.092,0a22.3,22.3,0,0,0-.133-3.553,12.9,12.9,0,0,0-.661-2.909,5.062,5.062,0,0,0-1.44-2.21c-.009.261-.036,1.319,0,3.839a5.738,5.738,0,0,1,.757,2.124A19.207,19.207,0,0,1,5221.405,2290.861Z" transform="translate(-5220.177 -2282.055)" fill="#f29100"/>
                      </g>
                    </g>
                  </g>
                  <path id="Trazado_107657" data-name="Trazado 107657" d="M5220.921,2289.757a18.492,18.492,0,0,0-.725-2.959c-.041.911-.009,1.62,0,2.593a6.6,6.6,0,0,1,.887,2.75c.166.9.241,2.107.241,2.107l1.223.009C5221.441,2294.106,5221.7,2293.36,5220.921,2289.757Z" transform="translate(-5220.176 -2285.376)" fill="#e8550d"/>
                </g>
              </g>
              <g id="Grupo_70616" data-name="Grupo 70616" transform="translate(0 1.264)">
                <g id="Grupo_70612" data-name="Grupo 70612">
                  <g id="Grupo_70611" data-name="Grupo 70611">
                    <g id="Grupo_70610" data-name="Grupo 70610">
                      <path id="Trazado_107658" data-name="Trazado 107658" d="M5192.617,2286.935c-.145.566.025,1.162-3.626,3.219-.3-.078-.838-.89-.838-.89s2.685-1.909,3.007-2.875c.514-2.785.985-3.981,1.448-4.354,0,0,.027.33.034,1.971C5192.646,2284.87,5192.635,2285.633,5192.617,2286.935Z" transform="translate(-5188.153 -2282.035)" fill="#f29100"/>
                    </g>
                  </g>
                </g>
                <g id="Grupo_70615" data-name="Grupo 70615" transform="translate(0 1.971)">
                  <g id="Grupo_70614" data-name="Grupo 70614">
                    <g id="Grupo_70613" data-name="Grupo 70613">
                      <path id="Trazado_107659" data-name="Trazado 107659" d="M5188.153,2293.871s.538.813.838.891c3.762-2.127,3.481-2.653,3.626-3.219.018-1.3.028-2.065.025-2.929a26.108,26.108,0,0,1-.541,2.671,3.074,3.074,0,0,1-1.541,2.046C5189.343,2294.049,5188.8,2294.463,5188.153,2293.871Z" transform="translate(-5188.153 -2288.614)" fill="#e8550d"/>
                    </g>
                  </g>
                </g>
              </g>
              <g id="Grupo_70632" data-name="Grupo 70632" transform="translate(2.627 9.72)">
                <g id="Grupo_70617" data-name="Grupo 70617" transform="translate(1.815)">
                  <path id="Trazado_107660" data-name="Trazado 107660" d="M5203.011,2311.779a4.509,4.509,0,0,1,.3-1.523,4.967,4.967,0,0,0,2.2.274,4.916,4.916,0,0,0,2.206-.257,4.5,4.5,0,0,1,.292,1.525c.053.55.012,2.938.214,5.443.25,3.12.747,6.41.747,6.41l-1.247.558s-.818-3.354-1.292-6.243c-.421-2.562-.537-4.409-.693-5.342l-.469,0c-.449,1.473-.78,12.047-.78,12.047l-1.328-.006S5202.882,2313.013,5203.011,2311.779Z" transform="translate(-5202.978 -2310.256)" fill="#847018"/>
                  <path id="Trazado_107661" data-name="Trazado 107661" d="M5203.274,2311.316a3.342,3.342,0,0,1,.248-1.059,4.989,4.989,0,0,0,2.21.274,4.914,4.914,0,0,0,2.2-.256,3.658,3.658,0,0,1,.239,1.071,12.68,12.68,0,0,0-2.447-.18A12.456,12.456,0,0,0,5203.274,2311.316Z" transform="translate(-5203.186 -2310.257)" fill="#3a6c8e"/>
                  <path id="Trazado_107662" data-name="Trazado 107662" d="M5205.121,2317.351c-1.439-.348-.141-.3.84-.305h.006c.98.009,2.28-.025.837.312.343,9.975,2.624,11.049,2.624,11.049l-1.248.558a73.443,73.443,0,0,1-1.985-11.585l-.466,0c-.45,1.473-.742,12.048-.742,12.048l-1.367-.006S5204.966,2328.9,5205.121,2317.351Z" transform="translate(-5203.429 -2315.011)" fill="#665517"/>
                </g>
                <g id="Grupo_70622" data-name="Grupo 70622" transform="translate(5.275 13.384)">
                  <path id="Trazado_107663" data-name="Trazado 107663" d="M5214.558,2359.6s-.024.047.055.192c.051.07.352.219,1.038-.094a11.474,11.474,0,0,0,1.255-.757l.069.152.774-.353-.139-.3a2.055,2.055,0,0,0-.639.193A9.424,9.424,0,0,1,5214.558,2359.6Z" transform="translate(-5214.547 -2357.389)" fill="#4d5357"/>
                  <g id="Grupo_70618" data-name="Grupo 70618" transform="translate(0 0.046)">
                    <path id="Trazado_107664" data-name="Trazado 107664" d="M5216.976,2355.08l-1.051.48-.7.875a1.42,1.42,0,0,1-.223.221c-.5.39-.5.415-.461.635,0,0,.227.4,1.165-.131.712-.4.97-.656,1.29-.8l.587-.268A5.757,5.757,0,0,0,5216.976,2355.08Z" transform="translate(-5214.529 -2355.08)" fill="#000100"/>
                    <path id="Trazado_107665" data-name="Trazado 107665" d="M5221.9,2360.28l-.07-.153-.246.137Z" transform="translate(-5219.467 -2358.615)" fill="#000100"/>
                  </g>
                  <path id="Trazado_107666" data-name="Trazado 107666" d="M5217.711,2356.452l-.5,1.029-.347-.086.7-.875Z" transform="translate(-5216.163 -2355.995)" fill="#4d5357"/>
                  <path id="Trazado_107667" data-name="Trazado 107667" d="M5218.2,2359.584l-.282-.1-.012.032.3.109.008-.006a.822.822,0,0,1,.919-.1l.02-.028A.842.842,0,0,0,5218.2,2359.584Z" transform="translate(-5216.892 -2358.042)" fill="#4d5357"/>
                  <g id="Grupo_70621" data-name="Grupo 70621" transform="translate(0.727)">
                    <g id="Grupo_70620" data-name="Grupo 70620" transform="translate(0.026 0.572)">
                      <path id="Trazado_107668" data-name="Trazado 107668" d="M5217.439,2357.676a.028.028,0,0,1-.017,0l-.361-.086a.027.027,0,0,1-.02-.024.026.026,0,0,1,.018-.025l.247-.08-.064-.131a.024.024,0,0,1,0-.02.026.026,0,0,1,.014-.014l.213-.1-.049-.087a.024.024,0,0,1,0-.02.023.023,0,0,1,.012-.015l.2-.107-.044-.068a.029.029,0,0,1,0-.025.027.027,0,0,1,.021-.014l.274-.021a.025.025,0,0,1,.026.018.026.026,0,0,1-.013.03l-.189.1.062.1a.025.025,0,0,1,0,.021.03.03,0,0,1-.014.016l-.217.1.086.153a.027.027,0,0,1,0,.007.026.026,0,0,1-.013.034h0l-.235.077.07.144,0,.006a.026.026,0,0,1-.013.034Zm-.278-.114.22.053-.052-.107Zm.194-.117.213-.07-.075-.135-.194.089Zm.121-.338.038.068.194-.089-.048-.075Zm.179-.2.023.036.083-.044Z" transform="translate(-5217.042 -2356.838)" fill="#272a2d"/>
                      <g id="Grupo_70619" data-name="Grupo 70619" clip-path="url(#clip-path)">
                        <path id="Trazado_107669" data-name="Trazado 107669" d="M5217.366,2356.352h0c-.055,0-.184-.007-.208-.075-.012-.035.007-.072.057-.109a.243.243,0,0,1,.151-.054.428.428,0,0,1,.275.142.03.03,0,0,1,0,.022.022.022,0,0,1-.013.018A.617.617,0,0,1,5217.366,2356.352Zm0-.187a.189.189,0,0,0-.119.043c-.034.026-.042.044-.04.052s.059.04.159.04h0a.63.63,0,0,0,.211-.036A.342.342,0,0,0,5217.366,2356.166Z" transform="translate(-5217.121 -2356.331)" fill="#272a2d"/>
                      </g>
                    </g>
                    <path id="Trazado_107671" data-name="Trazado 107671" d="M5217.977,2354.93a.353.353,0,0,0-.111.03.486.486,0,0,0-.217.471,1.2,1.2,0,0,0-.145-.171c-.141-.137-.274-.183-.387-.132a.026.026,0,0,0,.021.047c.115-.052.243.038.331.122a1.221,1.221,0,0,1,.132.156.7.7,0,0,0-.563-.045c-.053.024-.083.058-.083.095s.037.08.108.113l.005,0a.217.217,0,0,0-.025.054.025.025,0,0,0,.049.015.169.169,0,0,1,.025-.05.682.682,0,0,0,.5-.034.588.588,0,0,0,.076-.041.684.684,0,0,0,.142-.047c.248-.113.393-.347.356-.48C5218.178,2354.988,5218.133,2354.913,5217.977,2354.93Zm-.893.637c-.072-.032-.078-.058-.078-.066s.019-.034.052-.049a.631.631,0,0,1,.441.01c-.034,0-.067,0-.1,0a.466.466,0,0,0-.3.109Zm.51-.013a.634.634,0,0,1-.438.04.468.468,0,0,1,.246-.077,1.24,1.24,0,0,1,.214,0l.02.013A.412.412,0,0,1,5217.594,2355.555Zm.547-.508c.031.111-.106.318-.328.419a.562.562,0,0,1-.072.027.048.048,0,0,0-.014-.007h0l-.024-.006c-.007-.115-.005-.388.184-.475a.3.3,0,0,1,.1-.025C5218.044,2354.974,5218.122,2354.98,5218.141,2355.047Z" transform="translate(-5216.955 -2354.928)" fill="#272a2d"/>
                  </g>
                </g>
                <g id="Grupo_70627" data-name="Grupo 70627" transform="translate(0 13.898)">
                  <path id="Trazado_107672" data-name="Trazado 107672" d="M5196.954,2361.547s-.042.033-.031.2c.018.086.228.348.982.351a11.475,11.475,0,0,0,1.456-.163v.168l.851,0v-.336a2.059,2.059,0,0,0-.661-.093A9.378,9.378,0,0,1,5196.954,2361.547Z" transform="translate(-5196.921 -2360.078)" fill="#4d5357"/>
                  <g id="Grupo_70623" data-name="Grupo 70623" transform="translate(0.019 0.51)">
                    <path id="Trazado_107673" data-name="Trazado 107673" d="M5200.121,2358.351l-1.156,0-1,.5a1.384,1.384,0,0,1-.294.108c-.621.143-.628.168-.686.385,0,0,.04.458,1.114.37.815-.067,1.156-.19,1.507-.188l.646,0A5.862,5.862,0,0,0,5200.121,2358.351Z" transform="translate(-5196.986 -2358.346)" fill="#000100"/>
                    <path id="Trazado_107674" data-name="Trazado 107674" d="M5204.407,2363.008v-.168l-.281.022Z" transform="translate(-5201.988 -2361.493)" fill="#000100"/>
                  </g>
                  <path id="Trazado_107675" data-name="Trazado 107675" d="M5201.421,2358.347l-.885.728-.28-.224,1-.5Z" transform="translate(-5199.256 -2357.836)" fill="#4d5357"/>
                  <path id="Trazado_107676" data-name="Trazado 107676" d="M5201.336,2360.818l-.212-.212-.024.024.227.226.01,0c.006,0,.62-.151.875.3l.03-.017A.84.84,0,0,0,5201.336,2360.818Z" transform="translate(-5199.848 -2359.418)" fill="#4d5357"/>
                  <g id="Grupo_70626" data-name="Grupo 70626" transform="translate(1.088)">
                    <g id="Grupo_70625" data-name="Grupo 70625" transform="translate(0 0.539)">
                      <path id="Trazado_107677" data-name="Trazado 107677" d="M5200.867,2359.116a.024.024,0,0,1-.015-.006l-.291-.231a.026.026,0,0,1,.019-.046l.257.03,0-.146a.027.027,0,0,1,.008-.019.025.025,0,0,1,.019-.008h.234l-.008-.1a.026.026,0,0,1,.007-.019.025.025,0,0,1,.018-.009l.229-.012-.011-.081a.025.025,0,0,1,.01-.024.026.026,0,0,1,.025,0l.256.1a.026.026,0,0,1,.017.028.027.027,0,0,1-.024.022l-.214.011.016.114a.022.022,0,0,1-.006.02.025.025,0,0,1-.02.009h-.238l.014.175a.021.021,0,0,1,0,.008.026.026,0,0,1-.025.026h0l-.247-.029,0,.161v.007a.027.027,0,0,1-.026.026Zm-.2-.22.177.14,0-.12Zm.225-.026.223.027-.012-.154h-.214Zm.252-.257.006.078h.214l-.012-.089Zm.246-.107.006.042.095,0Z" transform="translate(-5200.551 -2358.441)" fill="#272a2d"/>
                      <g id="Grupo_70624" data-name="Grupo 70624" clip-path="url(#clip-path-2)">
                        <path id="Trazado_107678" data-name="Trazado 107678" d="M5202.173,2357.5h0c-.156,0-.4-.107-.41-.2,0-.03.011-.07.1-.09a.262.262,0,0,1,.285.129.5.5,0,0,1,.063.132.026.026,0,0,1,0,.022.025.025,0,0,1-.02.01Zm-.251-.249a.237.237,0,0,0-.048.006c-.038.009-.059.022-.058.034.006.051.182.147.333.157C5202.123,2357.381,5202.051,2357.248,5201.921,2357.248Z" transform="translate(-5201.399 -2357.569)" fill="#272a2d"/>
                      </g>
                    </g>
                    <path id="Trazado_107680" data-name="Trazado 107680" d="M5202.646,2356.824a.386.386,0,0,0-.113-.019c-.212,0-.337.207-.395.338a1.2,1.2,0,0,0-.06-.217c-.07-.185-.173-.282-.3-.283a.025.025,0,0,0-.025.025.025.025,0,0,0,.025.026c.126,0,.2.137.249.25a1.245,1.245,0,0,1,.055.2.7.7,0,0,0-.493-.279c-.059,0-.1.018-.115.052s0,.088.051.148l0,0a.218.218,0,0,0-.045.039.025.025,0,0,0,0,.036.026.026,0,0,0,.037,0,.165.165,0,0,1,.042-.035.681.681,0,0,0,.468.179.642.642,0,0,0,.087-.005.686.686,0,0,0,.149.016c.272,0,.5-.151.524-.288C5202.8,2356.961,5202.795,2356.874,5202.646,2356.824Zm-1.078.206c-.052-.06-.046-.086-.043-.093s.032-.022.067-.022a.632.632,0,0,1,.4.194,1,1,0,0,0-.093-.039.462.462,0,0,0-.314-.026Zm.469.2a.632.632,0,0,1-.414-.148.479.479,0,0,1,.255.033,1.176,1.176,0,0,1,.192.093l.013.021Zm.709-.233c-.019.114-.23.245-.473.244a.617.617,0,0,1-.077-.005.045.045,0,0,0-.01-.012h0l-.02-.015c.041-.108.159-.356.367-.355a.3.3,0,0,1,.1.017C5202.688,2356.893,5202.757,2356.931,5202.746,2357Z" transform="translate(-5201.196 -2356.642)" fill="#272a2d"/>
                  </g>
                </g>
                <g id="Grupo_70631" data-name="Grupo 70631" transform="translate(2.114 0.107)">
                  <g id="Grupo_70628" data-name="Grupo 70628">
                    <path id="Trazado_107681" data-name="Trazado 107681" d="M5208.14,2311.276a.383.383,0,0,0,.086.336l-.581,0,.021-.335Z" transform="translate(-5206.546 -2311.076)" fill="#000100"/>
                    <path id="Trazado_107682" data-name="Trazado 107682" d="M5204.091,2310.614a2.56,2.56,0,0,0,.809.174s.011.369-.022.358c-.018-.006-.9-.052-.9-.052Z" transform="translate(-5203.979 -2310.614)" fill="#000100"/>
                  </g>
                  <g id="Grupo_70629" data-name="Grupo 70629" transform="translate(2.801 0.083)">
                    <path id="Trazado_107683" data-name="Trazado 107683" d="M5213.418,2311.3a.384.384,0,0,1-.089.334l.58,0-.018-.335Z" transform="translate(-5213.329 -2311.176)" fill="#000100"/>
                    <path id="Trazado_107684" data-name="Trazado 107684" d="M5216.669,2310.891a3.5,3.5,0,0,1-.812.13s-.012.34.021.33c.017-.006.867-.025.867-.025Z" transform="translate(-5215.098 -2310.891)" fill="#000100"/>
                  </g>
                  <g id="Grupo_70630" data-name="Grupo 70630" transform="translate(1.528 0.165)">
                    <path id="Trazado_107685" data-name="Trazado 107685" d="M5209.211,2311.28l.567,0h.2l.567,0s.1.4-.2.4h-.933C5209.1,2311.68,5209.211,2311.28,5209.211,2311.28Z" transform="translate(-5209.158 -2311.246)" fill="#fff"/>
                    <path id="Trazado_107686" data-name="Trazado 107686" d="M5210.264,2311.639h-.935a.232.232,0,0,1-.194-.086.486.486,0,0,1-.038-.359.035.035,0,0,1,.034-.026h0l1.334.006a.035.035,0,0,1,.033.026.479.479,0,0,1-.04.358A.23.23,0,0,1,5210.264,2311.639Zm-1.105-.4a.378.378,0,0,0,.031.274.166.166,0,0,0,.14.058h.934v0a.165.165,0,0,0,.14-.058.379.379,0,0,0,.032-.273Z" transform="translate(-5209.079 -2311.165)" fill="#5985ac"/>
                  </g>
                </g>
              </g>
              <g id="Grupo_70647" data-name="Grupo 70647" transform="translate(3.962)">
                <path id="Trazado_107687" data-name="Trazado 107687" d="M5209.411,2279.111a1.1,1.1,0,0,1,.654.139c.143,1.3.281,5.11-1.066,5.544-1.33-.329-1.087-5.09-.989-5.544a3.165,3.165,0,0,1,.622-.124,5.882,5.882,0,0,0,.387.62C5209.187,2279.746,5209.331,2279.111,5209.411,2279.111Z" transform="translate(-5205.964 -2278.719)" fill="#fff"/>
                <g id="Grupo_70646" data-name="Grupo 70646">
                  <path id="Trazado_107688" data-name="Trazado 107688" d="M5210.336,2285.735a9.027,9.027,0,0,1-1.071,3.478,12.187,12.187,0,0,1-.9-3.358c.349,1.056.912,2.659.912,2.659A14.96,14.96,0,0,0,5210.336,2285.735Z" transform="translate(-5206.27 -2283.362)" fill="#a7d1e7"/>
                  <path id="Trazado_107689" data-name="Trazado 107689" d="M5210.083,2278.785a1.455,1.455,0,0,1-.243,1.382.62.62,0,0,0-1.074-.1.557.557,0,0,1,.209-.37s-.4-.147-.666.471a1.54,1.54,0,0,1-.194-1.382l.017.4.134.643s.232-.786.847-.342l-.093.167s.493-.64.879.136A3.161,3.161,0,0,0,5210.083,2278.785Z" transform="translate(-5206.038 -2278.494)" fill="#a7d1e7"/>
                  <g id="Grupo_70634" data-name="Grupo 70634" transform="translate(2.957 9.338)">
                    <g id="Grupo_70633" data-name="Grupo 70633">
                      <path id="Trazado_107690" data-name="Trazado 107690" d="M5211.4,2308.981h0Z" transform="translate(-5211.247 -2308.981)" fill="#eee9e3"/>
                    </g>
                  </g>
                  <g id="Grupo_70635" data-name="Grupo 70635" transform="translate(2.923 0.641)">
                    <path id="Trazado_107691" data-name="Trazado 107691" d="M5212.613,2280.1a4.47,4.47,0,0,1,1.312.628c.045,1.5.015,3.679-.02,4.777a45.389,45.389,0,0,0,.251,4.629s.229,1.6.218,1.635a13.033,13.033,0,0,1-2.047.08c-.7-.274-1.08-1.535-1.08-1.535v-4.553A10.134,10.134,0,0,0,5212.613,2280.1Z" transform="translate(-5211.212 -2280.06)" fill="#f29100"/>
                    <path id="Trazado_107692" data-name="Trazado 107692" d="M5212.246,2291.781h-.006l-.006,0c-.7-.278-1.085-1.505-1.1-1.557l0,0v-4.57l.007-.009a6.336,6.336,0,0,0,.684-1.416,12.34,12.34,0,0,0,.675-4.224v-.046l.043.012a4.451,4.451,0,0,1,1.325.634l.012.01v.015c.045,1.54.012,3.749-.02,4.78a45.651,45.651,0,0,0,.25,4.624s.058.4.113.8a6.368,6.368,0,0,1,.1.846c-.01.027-.017.051-.575.077C5213.475,2291.767,5212.99,2291.781,5212.246,2291.781Zm-1.046-1.575c.027.085.4,1.245,1.053,1.506a17.082,17.082,0,0,0,2-.068c-.011-.144-.132-1.021-.216-1.608a45.419,45.419,0,0,1-.251-4.634c.032-1.026.065-3.223.02-4.76a4.352,4.352,0,0,0-1.244-.6,12.364,12.364,0,0,1-.68,4.2,6.551,6.551,0,0,1-.686,1.421Z" transform="translate(-5211.131 -2279.953)" fill="#f29100"/>
                  </g>
                  <g id="Grupo_70636" data-name="Grupo 70636" transform="translate(0.004 0.688)">
                    <path id="Trazado_107693" data-name="Trazado 107693" d="M5203.212,2280.257a4.11,4.11,0,0,0-1.242.568c-.018.886,0,3.967,0,5.065,0,1.618-.245,4.354-.245,4.354s-.229,1.6-.218,1.635a11.265,11.265,0,0,0,1.952.08c.8-.3,1.115-1.955,1.115-1.955v-3.452a5.737,5.737,0,0,0-.41-1.8A16.328,16.328,0,0,1,5203.212,2280.257Z" transform="translate(-5201.469 -2280.213)" fill="#f29100"/>
                    <path id="Trazado_107694" data-name="Trazado 107694" d="M5203.383,2291.891h-.006c-.739,0-1.2-.015-1.457-.027-.51-.024-.519-.05-.527-.076a6.045,6.045,0,0,1,.1-.846c.054-.391.109-.782.113-.8,0-.062.244-2.763.244-4.351,0-.289,0-.712,0-1.2,0-1.355-.007-3.21.006-3.864v-.016l.013-.01a4.092,4.092,0,0,1,1.254-.574l.041-.011,0,.042a16.442,16.442,0,0,0,.947,4.489,5.816,5.816,0,0,1,.413,1.807v3.461a5.477,5.477,0,0,1-.26.872,1.785,1.785,0,0,1-.877,1.109Zm-1.923-.135a14.861,14.861,0,0,0,1.911.067c.754-.287,1.071-1.844,1.088-1.924v-3.449a5.771,5.771,0,0,0-.408-1.781,16.309,16.309,0,0,1-.949-4.469,4,4,0,0,0-1.177.541c-.013.667-.009,2.5-.005,3.846,0,.49,0,.914,0,1.2,0,1.6-.242,4.33-.245,4.357v0C5201.593,2290.735,5201.47,2291.613,5201.46,2291.756Z" transform="translate(-5201.391 -2280.11)" fill="#f29100"/>
                  </g>
                  <g id="Grupo_70637" data-name="Grupo 70637" transform="translate(2.868 1.514)">
                    <path id="Trazado_107695" data-name="Trazado 107695" d="M5211.178,2282.982a.115.115,0,1,1-.115-.115A.115.115,0,0,1,5211.178,2282.982Z" transform="translate(-5210.947 -2282.867)" fill="#8db8d6"/>
                    <path id="Trazado_107696" data-name="Trazado 107696" d="M5211.178,2289.45a.115.115,0,1,1-.115-.115A.115.115,0,0,1,5211.178,2289.45Z" transform="translate(-5210.947 -2287.397)" fill="#8db8d6"/>
                  </g>
                  <path id="Trazado_107697" data-name="Trazado 107697" d="M5210.877,2285.337a.025.025,0,0,1-.025-.025c0-.032-.043-3.179-.043-3.586,0-.09,0-.168,0-.237a1.3,1.3,0,0,1,.055-.527,1.508,1.508,0,0,0-.317.264l0,0a.434.434,0,0,0-.1.123.827.827,0,0,0-.1.405c0,.433-.008,3.212-.008,3.241a.025.025,0,0,1-.025.025h0a.026.026,0,0,1-.026-.026c0-.028.008-2.808.008-3.24a.731.731,0,0,1,.21-.567,1.41,1.41,0,0,1,.394-.306.028.028,0,0,1,.029.006.026.026,0,0,1,0,.029,1.151,1.151,0,0,0-.076.569c0,.069,0,.147,0,.238,0,.407.043,3.553.043,3.585a.025.025,0,0,1-.024.026Z" transform="translate(-5207.617 -2279.963)" fill="#8db8d6"/>
                  <g id="Grupo_70640" data-name="Grupo 70640" transform="translate(2.034)">
                    <g id="Grupo_70638" data-name="Grupo 70638" transform="translate(0.837)">
                      <path id="Trazado_107698" data-name="Trazado 107698" d="M5212.032,2279.233c-.309-.779-.8-.271-.958-.092a4.908,4.908,0,0,0,.673-1.212C5212.487,2277.93,5212.156,2278.778,5212.032,2279.233Z" transform="translate(-5211.04 -2277.896)" fill="#fff"/>
                      <path id="Trazado_107699" data-name="Trazado 107699" d="M5211.951,2279.187a.034.034,0,0,1-.032-.021c-.105-.265-.241-.4-.4-.4a.753.753,0,0,0-.5.317.034.034,0,0,1-.054-.042,4.964,4.964,0,0,0,.668-1.2.034.034,0,0,1,.032-.024.483.483,0,0,1,.411.165c.182.243.047.7-.05,1.036l-.042.146a.032.032,0,0,1-.031.025Zm-.433-.489c.171,0,.315.119.426.353l.016-.055c.094-.32.223-.76.061-.975a.4.4,0,0,0-.331-.137,4.635,4.635,0,0,1-.493.937A.551.551,0,0,1,5211.518,2278.7Z" transform="translate(-5210.958 -2277.815)" fill="#5985ac"/>
                    </g>
                    <g id="Grupo_70639" data-name="Grupo 70639">
                      <path id="Trazado_107700" data-name="Trazado 107700" d="M5208.741,2277.93a2.819,2.819,0,0,0,.547.962c-.277-.112-.575-.371-.816.342C5208.347,2278.778,5208,2277.93,5208.741,2277.93Z" transform="translate(-5208.246 -2277.896)" fill="#fff"/>
                      <path id="Trazado_107701" data-name="Trazado 107701" d="M5208.39,2279.187h0a.034.034,0,0,1-.033-.025c-.014-.051-.03-.106-.048-.165-.1-.348-.233-.781-.056-1.02a.477.477,0,0,1,.407-.163.034.034,0,0,1,.033.025,2.8,2.8,0,0,0,.54.949.036.036,0,0,1,0,.043.035.035,0,0,1-.041.012l-.108-.048a.714.714,0,0,0-.279-.089c-.1,0-.245.047-.384.458A.035.035,0,0,1,5208.39,2279.187Zm.244-1.3a.393.393,0,0,0-.326.135c-.157.211-.027.643.067.959l.019.065c.109-.275.242-.4.413-.4a.682.682,0,0,1,.28.082A2.852,2.852,0,0,1,5208.634,2277.884Z" transform="translate(-5208.165 -2277.815)" fill="#5985ac"/>
                    </g>
                  </g>
                  <rect id="Rectngulo_8703" data-name="Rectngulo 8703" width="1.854" height="0.443" transform="translate(0.639 9.498)" fill="#e8550d"/>
                  <rect id="Rectngulo_8704" data-name="Rectngulo 8704" width="1.854" height="0.443" transform="translate(3.611 9.498)" fill="#e8550d"/>
                  <g id="Grupo_70641" data-name="Grupo 70641" transform="translate(2.748 7.14)">
                    <path id="Trazado_107702" data-name="Trazado 107702" d="M5210.665,2301.877a.115.115,0,1,1,.115-.115A.116.116,0,0,1,5210.665,2301.877Z" transform="translate(-5210.549 -2301.646)" fill="#e8550d"/>
                    <path id="Trazado_107703" data-name="Trazado 107703" d="M5210.665,2306.684a.115.115,0,1,1-.116.115A.115.115,0,0,1,5210.665,2306.684Z" transform="translate(-5210.549 -2305.174)" fill="#e8550d"/>
                    <path id="Trazado_107704" data-name="Trazado 107704" d="M5210.665,2311.72a.115.115,0,1,1-.116.115A.115.115,0,0,1,5210.665,2311.72Z" transform="translate(-5210.549 -2308.701)" fill="#e8550d"/>
                  </g>
                  <g id="Grupo_70642" data-name="Grupo 70642" transform="translate(3.057 0.945)">
                    <path id="Trazado_107705" data-name="Trazado 107705" d="M5212.878,2283.088a5.276,5.276,0,0,1-.051-1.037l.308-1.083a9.332,9.332,0,0,1,.652,1.3,3.292,3.292,0,0,1-.552.245l.4.384s-1.062,3.186-1.971,4.07c0-.059,0-.154,0-.2-.032-.436-.081-.41-.081-.41A13.774,13.774,0,0,0,5212.878,2283.088Z" transform="translate(-5211.579 -2280.968)" fill="#e8550d"/>
                  </g>
                  <g id="Grupo_70643" data-name="Grupo 70643" transform="translate(0.849 0.945)">
                    <path id="Trazado_107706" data-name="Trazado 107706" d="M5205.119,2283.088a5.261,5.261,0,0,0,.051-1.037l-.309-1.083a9.412,9.412,0,0,0-.652,1.3,3.261,3.261,0,0,0,.553.245l-.4.384s1.063,3.186,1.972,4.07c0-.059,0-.154,0-.2.032-.436.081-.41.081-.41A13.767,13.767,0,0,1,5205.119,2283.088Z" transform="translate(-5204.209 -2280.968)" fill="#e8550d"/>
                  </g>
                  <g id="Grupo_70644" data-name="Grupo 70644" transform="translate(2.958 0.426)">
                    <path id="Trazado_107707" data-name="Trazado 107707" d="M5212.464,2279.36a10.324,10.324,0,0,1-.336,3.518,9.123,9.123,0,0,1-.759,1.9,6.884,6.884,0,0,1,.114.864s1.386-2.79,1.8-3.853a1.806,1.806,0,0,1-.435-.526l.549-.308S5213.053,2279.4,5212.464,2279.36Z" transform="translate(-5211.333 -2279.323)" fill="#f29100"/>
                    <path id="Trazado_107708" data-name="Trazado 107708" d="M5211.37,2285.687l0-.135a6.94,6.94,0,0,0-.114-.859l0-.012.007-.011a9,9,0,0,0,.756-1.887,11.536,11.536,0,0,0,.363-2.508,7.45,7.45,0,0,0-.028-1l-.006-.042.042,0c.607.046.948,1.553.962,1.617l.006.025-.543.305a2.308,2.308,0,0,0,.414.487l.016.016-.009.021c-.407,1.052-1.784,3.828-1.8,3.856Zm-.049-.994c.063.348.091.594.1.73.261-.528,1.365-2.775,1.732-3.716a1.787,1.787,0,0,1-.427-.523l-.009-.027.551-.31c-.046-.191-.359-1.431-.854-1.533a10.666,10.666,0,0,1-.341,3.487A9.115,9.115,0,0,1,5211.32,2284.693Z" transform="translate(-5211.248 -2279.235)" fill="#e53212"/>
                  </g>
                  <g id="Grupo_70645" data-name="Grupo 70645" transform="translate(1.063 0.426)">
                    <path id="Trazado_107709" data-name="Trazado 107709" d="M5206.667,2285.089s-1.086-2.241-1.5-3.3a1.831,1.831,0,0,0,.435-.526l-.549-.308s.342-1.546.931-1.59a10.957,10.957,0,0,0,.864,5.089,4.213,4.213,0,0,1,.209,1.7A4.393,4.393,0,0,0,5206.667,2285.089Z" transform="translate(-5205.015 -2279.323)" fill="#f29100"/>
                    <path id="Trazado_107710" data-name="Trazado 107710" d="M5206.985,2286.384l-.052-.313a4.452,4.452,0,0,0-.389-1.054c-.011-.023-1.091-2.255-1.5-3.307l-.008-.021.016-.016a2.265,2.265,0,0,0,.414-.487l-.543-.305.005-.025c.015-.064.355-1.571.962-1.617l.042,0-.006.042a8.456,8.456,0,0,0,0,1.5,11.751,11.751,0,0,0,.862,3.569,2.619,2.619,0,0,1,.126.453,5.09,5.09,0,0,1,.085,1.265Zm-1.867-4.677c.412,1.058,1.478,3.258,1.488,3.28a5.727,5.727,0,0,1,.334.831,3.991,3.991,0,0,0-.214-1.443,11.8,11.8,0,0,1-.867-3.593,8.854,8.854,0,0,1,0-1.47c-.493.1-.807,1.342-.854,1.533l.552.31-.01.027A1.789,1.789,0,0,1,5205.118,2281.707Z" transform="translate(-5204.924 -2279.235)" fill="#e53212"/>
                  </g>
                  <path id="Trazado_107711" data-name="Trazado 107711" d="M5211.333,2311.952s.463,1.286,1.217,1.606,1.543.085,1.481-1.721c0,0,.281,1.682.349,2.192-.9.1-2.1.094-2.1.094s-.574-.105-1.09-1.46A4.576,4.576,0,0,0,5211.333,2311.952Z" transform="translate(-5208.25 -2301.644)" fill="#e8550d"/>
                  <path id="Trazado_107712" data-name="Trazado 107712" d="M5204.459,2311.234s-.512,1.295-1.267,1.615-1.584-.23-1.522-2.036c0,0-.082.884-.115,1.133-.067.493-.134,1.051-.179,1.39a17.9,17.9,0,0,0,1.989.066s.608-.125.968-1.3A1.445,1.445,0,0,0,5204.459,2311.234Z" transform="translate(-5201.376 -2300.926)" fill="#e8550d"/>
                  <path id="Trazado_107713" data-name="Trazado 107713" d="M5211.276,2305.319l-.062-.031c.386-.779.134-4.057.131-4.09l.069-.006c0,.009.065.84.081,1.758A6.532,6.532,0,0,1,5211.276,2305.319Z" transform="translate(-5208.267 -2294.189)" fill="#e53212"/>
                </g>
              </g>
            </g>
          </g>
        </g>
        <path id="Trazado_107714" data-name="Trazado 107714" d="M5204.976,2271.249l-.014,0a.044.044,0,0,1-.03-.036c-.019-.065-.317-.781-.517-1.252a.045.045,0,0,1,.024-.059.045.045,0,0,1,.059.024s.133.315.261.626c.269.643.268.647.26.669A.045.045,0,0,1,5204.976,2271.249Z" transform="translate(-5197.222 -2264.858)" fill="#008fd5"/>
        <path id="Trazado_107715" data-name="Trazado 107715" d="M5205.448,2266.463a.045.045,0,0,1-.04-.023l-.652-1.183a.044.044,0,0,1,.018-.061.045.045,0,0,1,.061.018l.652,1.183a.045.045,0,0,1-.017.061A.051.051,0,0,1,5205.448,2266.463Z" transform="translate(-5197.459 -2261.563)" fill="#008fd5"/>
        <path id="Trazado_107716" data-name="Trazado 107716" d="M5216.71,2267.2a.047.047,0,0,1-.026-.009.045.045,0,0,1-.009-.063l.849-1.123a.046.046,0,0,1,.063-.009.045.045,0,0,1,.008.063l-.85,1.123A.046.046,0,0,1,5216.71,2267.2Z" transform="translate(-5205.805 -2262.122)" fill="#008fd5"/>
        <path id="Trazado_107717" data-name="Trazado 107717" d="M5217.662,2271.877a.048.048,0,0,1-.021,0,.046.046,0,0,1-.019-.061l.514-1.008a.045.045,0,0,1,.06-.02.045.045,0,0,1,.02.06l-.513,1.008A.047.047,0,0,1,5217.662,2271.877Z" transform="translate(-5206.471 -2265.477)" fill="#008fd5"/>
        <path id="Trazado_107718" data-name="Trazado 107718" d="M5209.419,2268.626a5.84,5.84,0,0,0-1.432-.513h-.081a8.439,8.439,0,0,0-1.477.31,6.647,6.647,0,0,0-.23,1.567,1.988,1.988,0,0,0,1.668.705l.152.009a1.855,1.855,0,0,0,1.675-.714A3.647,3.647,0,0,0,5209.419,2268.626Z" transform="translate(-5198.474 -2263.609)" fill="#3bbeef"/>
        <path id="Trazado_107719" data-name="Trazado 107719" d="M5210.345,2270.161c0,.017-.8-.179-1.258-.2a7.905,7.905,0,0,0-1.113.075s.588.044,1.121.053C5209.766,2270.106,5210.345,2270.161,5210.345,2270.161Z" transform="translate(-5199.717 -2264.906)" fill="#008fd5"/>
        <path id="Trazado_107720" data-name="Trazado 107720" d="M5210.421,2271.943a11.875,11.875,0,0,0-1.252-.152c-.459-.017-1.118.031-1.118.031a10.274,10.274,0,0,0,1.113.094C5209.586,2271.924,5209.637,2271.945,5210.421,2271.943Z" transform="translate(-5199.771 -2266.183)" fill="#008fd5"/>
        <path id="Trazado_107721" data-name="Trazado 107721" d="M5210.345,2273.359c0,.017-.815-.115-1.274-.128s-1.1.029-1.1.029a8.137,8.137,0,0,0,1.1.1C5209.746,2273.366,5210.345,2273.359,5210.345,2273.359Z" transform="translate(-5199.715 -2267.192)" fill="#008fd5"/>
        <path id="Trazado_107722" data-name="Trazado 107722" d="M5207.554,2274.546a5.17,5.17,0,0,0,1.262.2c.508,0,1.361-.075,1.361-.075s-.772-.044-1.361-.053C5208.074,2274.6,5207.554,2274.546,5207.554,2274.546Z" transform="translate(-5199.422 -2268.115)" fill="#008fd5"/>
        <g id="Grupo_70652" data-name="Grupo 70652" transform="translate(6.927 0)">
          <path id="Trazado_107723" data-name="Trazado 107723" d="M5204.257,2254.633a2.2,2.2,0,0,1,2.407-1.552c2.079-.013,3.407.991,2.563,1.792A25.175,25.175,0,0,1,5204.257,2254.633Z" transform="translate(-5204.041 -2253.082)" fill="#3bbeef"/>
          <g id="Grupo_70651" data-name="Grupo 70651" transform="translate(0.787 0.462)">
            <path id="Trazado_107724" data-name="Trazado 107724" d="M5207.063,2254.7c.314-.167-.029.013-.378.413a4.993,4.993,0,0,0-.392.654c-.146.135-.134-.01-.134-.01A2,2,0,0,1,5207.063,2254.7Z" transform="translate(-5206.16 -2254.632)" fill="#008fd5"/>
            <path id="Trazado_107725" data-name="Trazado 107725" d="M5212.016,2255.829c-.115.161-.133.016-.133.016a1.79,1.79,0,0,1,.638-1.128C5212.943,2254.363,5212.167,2255.089,5212.016,2255.829Z" transform="translate(-5210.169 -2254.625)" fill="#008fd5"/>
            <path id="Trazado_107726" data-name="Trazado 107726" d="M5218.578,2257.679c-.116.161-.133.016-.133.016a1.814,1.814,0,0,1,.31-.628C5218.866,2256.95,5218.647,2257.382,5218.578,2257.679Z" transform="translate(-5214.764 -2256.321)" fill="#008fd5"/>
            <path id="Trazado_107727" data-name="Trazado 107727" d="M5215.476,2256.859c-.116.161-.133.016-.133.016a1.582,1.582,0,0,1,.461-.88C5215.926,2255.89,5215.542,2256.362,5215.476,2256.859Z" transform="translate(-5212.591 -2255.573)" fill="#008fd5"/>
            <path id="Trazado_107728" data-name="Trazado 107728" d="M5209.463,2256.967c-.116.162-.133.017-.133.017a1.812,1.812,0,0,1,.311-.629C5209.751,2256.239,5209.533,2256.67,5209.463,2256.967Z" transform="translate(-5208.38 -2255.823)" fill="#008fd5"/>
          </g>
          <path id="Trazado_107729" data-name="Trazado 107729" d="M5203.63,2258.975a33.19,33.19,0,0,0,5.2.3.641.641,0,0,0-.11-.788s-4.794-.321-5.041-.229C5203.5,2258.324,5203.492,2258.963,5203.63,2258.975Z" transform="translate(-5203.535 -2256.696)" fill="#a6dbf7"/>
        </g>
      </g>
    </g>
    <g id="Trazado_773763" data-name="Trazado 773763" transform="translate(1210 3684)" fill="none">
      <path d="M42.5,0A42.5,42.5,0,1,1,0,42.5,42.5,42.5,0,0,1,42.5,0Z" stroke="none"/>
      <path d="M 42.5 4 C 37.3007698059082 4 32.25918579101562 5.017387390136719 27.51528549194336 7.023887634277344 C 22.93121337890625 8.962783813476562 18.81345367431641 11.73932647705078 15.27638244628906 15.27638244628906 C 11.73932647705078 18.81345367431641 8.962783813476562 22.93121337890625 7.023887634277344 27.51528549194336 C 5.017387390136719 32.25918579101562 4 37.3007698059082 4 42.5 C 4 47.6992301940918 5.017387390136719 52.74081420898438 7.023887634277344 57.48471450805664 C 8.962783813476562 62.06878662109375 11.73932647705078 66.18653869628906 15.27638244628906 69.72361755371094 C 18.81345367431641 73.26067352294922 22.93121337890625 76.03721618652344 27.51528549194336 77.97611236572266 C 32.25918579101562 79.98261260986328 37.3007698059082 81 42.5 81 C 47.6992301940918 81 52.74081420898438 79.98261260986328 57.48471450805664 77.97611236572266 C 62.06878662109375 76.03721618652344 66.18653869628906 73.26067352294922 69.72361755371094 69.72361755371094 C 73.26067352294922 66.18653869628906 76.03721618652344 62.06878662109375 77.97611236572266 57.48471450805664 C 79.98261260986328 52.74081420898438 81 47.6992301940918 81 42.5 C 81 37.3007698059082 79.98261260986328 32.25918579101562 77.97611236572266 27.51528549194336 C 76.03721618652344 22.93121337890625 73.26067352294922 18.81345367431641 69.72361755371094 15.27638244628906 C 66.18653869628906 11.73932647705078 62.06878662109375 8.962783813476562 57.48471450805664 7.023887634277344 C 52.74081420898438 5.017387390136719 47.6992301940918 4 42.5 4 M 42.5 0 C 65.97209930419922 0 85 19.02790069580078 85 42.5 C 85 65.97209930419922 65.97209930419922 85 42.5 85 C 19.02790069580078 85 0 65.97209930419922 0 42.5 C 0 19.02790069580078 19.02790069580078 0 42.5 0 Z" stroke="none" fill="#25ced1"/>
    </g>
  </g>
</svg>
