<svg xmlns="http://www.w3.org/2000/svg" width="458" height="129.53" viewBox="0 0 458 129.53">
  <g id="Grupo_1052780" data-name="Grupo 1052780" transform="translate(-227 -990)">
    <g id="Grupo_1052779" data-name="Grupo 1052779">
      <g id="Grupo_1043276" data-name="Grupo 1043276" transform="translate(-299.271 801.036)">
        <g id="Grupo_70301" data-name="Grupo 70301" transform="translate(526.271 196.056)">
          <g id="Grupo_70234" data-name="Grupo 70234" transform="translate(58.985)">
            <g id="Grupo_70222" data-name="Grupo 70222" transform="translate(7.675)">
              <path id="Trazado_107191" data-name="Trazado 107191" d="M607.577,199.052l2.489,1.437,2.489-1.437-2.489-1.437Z" transform="translate(-607.577 -197.614)" fill="#bdd4cf"/>
            </g>
            <g id="Grupo_70233" data-name="Grupo 70233" transform="translate(0 1.437)">
              <g id="Grupo_70223" data-name="Grupo 70223" transform="translate(30.235 72.568)">
                <path id="Trazado_107192" data-name="Trazado 107192" d="M635.094,293.508l2.489,1.437v-5.629l-2.489-1.437Z" transform="translate(-635.094 -287.88)" fill="#9cafab"/>
              </g>
              <g id="Grupo_70224" data-name="Grupo 70224" transform="translate(0.094 52.843)">
                <path id="Trazado_107193" data-name="Trazado 107193" d="M598.331,266.24l32.63,18.743v-2.419l-32.63-18.743Z" transform="translate(-598.331 -263.821)" fill="#9cafab"/>
              </g>
              <g id="Grupo_70227" data-name="Grupo 70227" transform="translate(0.094)">
                <g id="Grupo_70225" data-name="Grupo 70225" transform="translate(0 51.406)">
                  <path id="Trazado_107194" data-name="Trazado 107194" d="M598.331,263.505l32.63,18.743,2.489-1.437-32.63-18.743Z" transform="translate(-598.331 -262.068)" fill="#bdd4cf"/>
                </g>
                <g id="Grupo_70226" data-name="Grupo 70226" transform="translate(10.07)">
                  <path id="Trazado_107195" data-name="Trazado 107195" d="M610.613,200.8v57.21l2.489-1.437v-57.21Z" transform="translate(-610.613 -199.367)" fill="#5b6664"/>
                </g>
              </g>
              <g id="Grupo_70228" data-name="Grupo 70228" transform="translate(7.675)">
                <path id="Trazado_107196" data-name="Trazado 107196" d="M607.577,199.367v57.21l2.489,1.437V200.8Z" transform="translate(-607.577 -199.367)" fill="#9cafab"/>
              </g>
              <g id="Grupo_70229" data-name="Grupo 70229" transform="translate(32.724 70.148)">
                <path id="Trazado_107197" data-name="Trazado 107197" d="M640.62,284.929v2.419l-2.489,1.437v-2.419Z" transform="translate(-638.13 -284.929)" fill="#5b6664"/>
              </g>
              <g id="Grupo_70230" data-name="Grupo 70230" transform="translate(32.724 72.568)">
                <path id="Trazado_107198" data-name="Trazado 107198" d="M638.13,289.317v5.629l2.489-1.437V287.88Z" transform="translate(-638.13 -287.88)" fill="#5b6664"/>
              </g>
              <g id="Grupo_70231" data-name="Grupo 70231" transform="translate(0 55.1)">
                <path id="Trazado_107199" data-name="Trazado 107199" d="M598.331,272.4l2.489,1.437v-5.629l-2.489-1.437Z" transform="translate(-598.237 -266.61)" fill="#fff"/>
                <path id="Trazado_107200" data-name="Trazado 107200" d="M600.893,273.965l-2.677-1.546v-5.845l2.677,1.545Zm-2.489-1.654,2.3,1.329v-5.412l-2.3-1.329Z" transform="translate(-598.216 -266.574)" fill="#231f20"/>
              </g>
              <g id="Grupo_70232" data-name="Grupo 70232" transform="translate(2.49 56.537)">
                <path id="Trazado_107201" data-name="Trazado 107201" d="M601.367,268.524v5.629l2.489-1.437v-2.755Z" transform="translate(-601.273 -268.363)" fill="#fff"/>
                <path id="Trazado_107202" data-name="Trazado 107202" d="M601.253,274.281v-5.954l2.676,1.545v2.863Zm.187-5.629v5.3l2.3-1.329V269.98Z" transform="translate(-601.253 -268.327)" fill="#231f20"/>
              </g>
            </g>
          </g>
          <g id="Grupo_70245" data-name="Grupo 70245" transform="translate(9.917 52.041)">
            <g id="Grupo_70236" data-name="Grupo 70236" transform="translate(51.126 2.669)">
              <g id="Grupo_70235" data-name="Grupo 70235">
                <path id="Trazado_107203" data-name="Trazado 107203" d="M601.684,273.186l12.193-7.039a.965.965,0,1,0-.965-1.672l-12.186,7.035A4.428,4.428,0,0,0,601.684,273.186Z" transform="translate(-600.726 -264.345)" fill="#9cafab"/>
              </g>
            </g>
            <g id="Grupo_70244" data-name="Grupo 70244">
              <g id="Grupo_70241" data-name="Grupo 70241" transform="translate(0 27.98)">
                <g id="Grupo_70239" data-name="Grupo 70239">
                  <g id="Grupo_70237" data-name="Grupo 70237">
                    <path id="Trazado_107204" data-name="Trazado 107204" d="M551.715,307.689c0,4.257-2.988,5.982-6.674,3.853a14.752,14.752,0,0,1-6.674-11.56c0-4.256,2.988-5.981,6.674-3.853A14.753,14.753,0,0,1,551.715,307.689Z" transform="translate(-538.367 -295.218)" fill="#0075a4"/>
                  </g>
                  <g id="Grupo_70238" data-name="Grupo 70238" transform="translate(4.816 6.218)">
                    <path id="Trazado_107205" data-name="Trazado 107205" d="M547.957,306.275c0,1.185-.832,1.665-1.858,1.073a4.108,4.108,0,0,1-1.859-3.219c0-1.186.832-1.666,1.859-1.073A4.109,4.109,0,0,1,547.957,306.275Z" transform="translate(-544.241 -302.802)" fill="#5b6664"/>
                  </g>
                </g>
                <g id="Grupo_70240" data-name="Grupo 70240" transform="translate(4.816 6.229)">
                  <path id="Trazado_107206" data-name="Trazado 107206" d="M547.362,306.428a4.1,4.1,0,0,1-1.858-3.218,2.115,2.115,0,0,1,.033-.366c-.749-.157-1.3.33-1.3,1.287a4.108,4.108,0,0,0,1.859,3.219c.912.526,1.667.2,1.824-.708A1.882,1.882,0,0,1,547.362,306.428Z" transform="translate(-544.241 -302.816)" fill="#9cafab"/>
                </g>
              </g>
              <g id="Grupo_70243" data-name="Grupo 70243" transform="translate(1.958)">
                <g id="Grupo_70242" data-name="Grupo 70242">
                  <path id="Trazado_107207" data-name="Trazado 107207" d="M600.6,273.558A14.751,14.751,0,0,0,593.921,262c-1.807-1.044-3.443-1.156-4.645-.5l0,0-.057.034-.026.015-48.435,27.973c1.208-.7,2.875-.594,4.717.469a14.753,14.753,0,0,1,6.674,11.56c0,2.041-.691,3.491-1.813,4.222l0,.006,48.208-27.845c.062-.034.124-.069.184-.107l.107-.061-.006-.009A4.812,4.812,0,0,0,600.6,273.558Z" transform="translate(-540.755 -261.09)" fill="#003950"/>
                </g>
              </g>
            </g>
          </g>
          <g id="Grupo_70256" data-name="Grupo 70256" transform="translate(9.917 35.166)">
            <g id="Grupo_70247" data-name="Grupo 70247" transform="translate(51.126 2.669)">
              <g id="Grupo_70246" data-name="Grupo 70246">
                <path id="Trazado_107208" data-name="Trazado 107208" d="M601.684,252.6l12.193-7.04a.965.965,0,0,0-.965-1.672l-12.186,7.036A4.441,4.441,0,0,0,601.684,252.6Z" transform="translate(-600.726 -243.763)" fill="#9cafab"/>
              </g>
            </g>
            <g id="Grupo_70255" data-name="Grupo 70255">
              <g id="Grupo_70252" data-name="Grupo 70252" transform="translate(0 27.98)">
                <g id="Grupo_70250" data-name="Grupo 70250">
                  <g id="Grupo_70248" data-name="Grupo 70248">
                    <path id="Trazado_107209" data-name="Trazado 107209" d="M551.715,287.107c0,4.256-2.988,5.981-6.674,3.853a14.755,14.755,0,0,1-6.674-11.56c0-4.257,2.988-5.982,6.674-3.853A14.75,14.75,0,0,1,551.715,287.107Z" transform="translate(-538.367 -274.635)" fill="#25ced1"/>
                  </g>
                  <g id="Grupo_70249" data-name="Grupo 70249" transform="translate(4.816 6.219)">
                    <path id="Trazado_107210" data-name="Trazado 107210" d="M547.957,285.692c0,1.186-.832,1.666-1.858,1.073a4.107,4.107,0,0,1-1.859-3.219c0-1.185.832-1.665,1.859-1.073A4.11,4.11,0,0,1,547.957,285.692Z" transform="translate(-544.241 -282.22)" fill="#5b6664"/>
                  </g>
                </g>
                <g id="Grupo_70251" data-name="Grupo 70251" transform="translate(4.816 6.23)">
                  <path id="Trazado_107211" data-name="Trazado 107211" d="M547.362,285.846a4.105,4.105,0,0,1-1.858-3.219,2.106,2.106,0,0,1,.033-.365c-.749-.157-1.3.329-1.3,1.286a4.108,4.108,0,0,0,1.859,3.219c.912.526,1.667.2,1.824-.708A1.856,1.856,0,0,1,547.362,285.846Z" transform="translate(-544.241 -282.234)" fill="#9cafab"/>
                </g>
              </g>
              <g id="Grupo_70254" data-name="Grupo 70254" transform="translate(1.958)">
                <g id="Grupo_70253" data-name="Grupo 70253">
                  <path id="Trazado_107212" data-name="Trazado 107212" d="M600.6,252.975a14.754,14.754,0,0,0-6.674-11.56c-1.807-1.044-3.443-1.155-4.645-.5l0,0-.057.033-.026.016L540.755,268.93c1.208-.7,2.875-.594,4.717.469a14.75,14.75,0,0,1,6.674,11.56c0,2.04-.691,3.49-1.813,4.221l0,.007,48.208-27.845c.062-.034.124-.069.184-.107l.107-.062-.006-.009A4.812,4.812,0,0,0,600.6,252.975Z" transform="translate(-540.755 -240.507)" fill="#046163"/>
                </g>
              </g>
            </g>
          </g>
          <g id="Grupo_70267" data-name="Grupo 70267" transform="translate(9.917 18.291)">
            <g id="Grupo_70258" data-name="Grupo 70258" transform="translate(51.126 2.669)">
              <g id="Grupo_70257" data-name="Grupo 70257">
                <path id="Trazado_107213" data-name="Trazado 107213" d="M601.684,232.021l12.193-7.039a.965.965,0,1,0-.965-1.672l-12.186,7.035A4.428,4.428,0,0,0,601.684,232.021Z" transform="translate(-600.726 -223.18)" fill="#9cafab"/>
              </g>
            </g>
            <g id="Grupo_70266" data-name="Grupo 70266">
              <g id="Grupo_70263" data-name="Grupo 70263" transform="translate(0 27.98)">
                <g id="Grupo_70261" data-name="Grupo 70261">
                  <g id="Grupo_70259" data-name="Grupo 70259">
                    <path id="Trazado_107214" data-name="Trazado 107214" d="M551.715,266.524c0,4.256-2.988,5.982-6.674,3.853a14.753,14.753,0,0,1-6.674-11.56c0-4.256,2.988-5.981,6.674-3.853A14.753,14.753,0,0,1,551.715,266.524Z" transform="translate(-538.367 -254.053)" fill="#ff8a5b"/>
                  </g>
                  <g id="Grupo_70260" data-name="Grupo 70260" transform="translate(4.816 6.218)">
                    <path id="Trazado_107215" data-name="Trazado 107215" d="M547.957,265.11c0,1.185-.832,1.665-1.858,1.072a4.106,4.106,0,0,1-1.859-3.218c0-1.186.832-1.666,1.859-1.073A4.109,4.109,0,0,1,547.957,265.11Z" transform="translate(-544.241 -261.637)" fill="#5b6664"/>
                  </g>
                </g>
                <g id="Grupo_70262" data-name="Grupo 70262" transform="translate(4.816 6.229)">
                  <path id="Trazado_107216" data-name="Trazado 107216" d="M547.362,265.263a4.1,4.1,0,0,1-1.858-3.219,2.114,2.114,0,0,1,.033-.365c-.749-.157-1.3.33-1.3,1.286a4.106,4.106,0,0,0,1.859,3.219c.912.527,1.667.2,1.824-.708A1.882,1.882,0,0,1,547.362,265.263Z" transform="translate(-544.241 -261.651)" fill="#9cafab"/>
                </g>
              </g>
              <g id="Grupo_70265" data-name="Grupo 70265" transform="translate(1.958)">
                <g id="Grupo_70264" data-name="Grupo 70264">
                  <path id="Trazado_107217" data-name="Trazado 107217" d="M600.6,232.393a14.751,14.751,0,0,0-6.674-11.559c-1.807-1.044-3.443-1.156-4.645-.5l0,0-.057.034-.026.015-48.435,27.973c1.208-.7,2.875-.594,4.717.469a14.753,14.753,0,0,1,6.674,11.56c0,2.041-.691,3.491-1.813,4.222l0,.006,48.208-27.845c.062-.034.124-.069.184-.107l.107-.061-.006-.009A4.813,4.813,0,0,0,600.6,232.393Z" transform="translate(-540.755 -219.925)" fill="#ff6324"/>
                </g>
              </g>
            </g>
          </g>
          <g id="Grupo_70278" data-name="Grupo 70278" transform="translate(9.917 1.417)">
            <g id="Grupo_70269" data-name="Grupo 70269" transform="translate(51.126 2.669)">
              <g id="Grupo_70268" data-name="Grupo 70268">
                <path id="Trazado_107218" data-name="Trazado 107218" d="M601.684,211.439l12.193-7.04a.965.965,0,0,0-.965-1.672l-12.186,7.035A4.438,4.438,0,0,0,601.684,211.439Z" transform="translate(-600.726 -202.598)" fill="#9cafab"/>
              </g>
            </g>
            <g id="Grupo_70277" data-name="Grupo 70277">
              <g id="Grupo_70274" data-name="Grupo 70274" transform="translate(0 27.98)">
                <g id="Grupo_70272" data-name="Grupo 70272">
                  <g id="Grupo_70270" data-name="Grupo 70270">
                    <path id="Trazado_107219" data-name="Trazado 107219" d="M551.715,245.941c0,4.257-2.988,5.982-6.674,3.854a14.755,14.755,0,0,1-6.674-11.56c0-4.257,2.988-5.982,6.674-3.853A14.75,14.75,0,0,1,551.715,245.941Z" transform="translate(-538.367 -233.47)" fill="#ea526f"/>
                  </g>
                  <g id="Grupo_70271" data-name="Grupo 70271" transform="translate(4.816 6.219)">
                    <path id="Trazado_107220" data-name="Trazado 107220" d="M547.957,244.527c0,1.186-.832,1.666-1.858,1.073a4.108,4.108,0,0,1-1.859-3.219c0-1.185.832-1.665,1.859-1.073A4.11,4.11,0,0,1,547.957,244.527Z" transform="translate(-544.241 -241.055)" fill="#5b6664"/>
                  </g>
                </g>
                <g id="Grupo_70273" data-name="Grupo 70273" transform="translate(4.816 6.23)">
                  <path id="Trazado_107221" data-name="Trazado 107221" d="M547.362,244.681a4.105,4.105,0,0,1-1.858-3.219,2.106,2.106,0,0,1,.033-.365c-.749-.157-1.3.329-1.3,1.286A4.108,4.108,0,0,0,546.1,245.6c.912.526,1.667.2,1.824-.708A1.857,1.857,0,0,1,547.362,244.681Z" transform="translate(-544.241 -241.069)" fill="#9cafab"/>
                </g>
              </g>
              <g id="Grupo_70276" data-name="Grupo 70276" transform="translate(1.958)">
                <g id="Grupo_70275" data-name="Grupo 70275">
                  <path id="Trazado_107222" data-name="Trazado 107222" d="M600.6,211.811a14.752,14.752,0,0,0-6.674-11.56c-1.807-1.044-3.443-1.155-4.645-.5l0,0-.057.033-.026.016-48.435,27.973c1.208-.7,2.875-.594,4.717.469a14.75,14.75,0,0,1,6.674,11.559c0,2.041-.691,3.491-1.813,4.222l0,.007,48.208-27.845c.062-.034.124-.07.184-.107l.107-.062-.006-.009A4.811,4.811,0,0,0,600.6,211.811Z" transform="translate(-540.755 -199.342)" fill="#981d34"/>
                </g>
              </g>
            </g>
          </g>
          <g id="Grupo_70291" data-name="Grupo 70291" transform="translate(0 34.114)">
            <g id="Grupo_70279" data-name="Grupo 70279" transform="translate(7.581)">
              <path id="Trazado_107223" data-name="Trazado 107223" d="M535.518,240.661l2.489,1.437,2.489-1.437-2.489-1.437Z" transform="translate(-535.518 -239.224)" fill="#bdd4cf"/>
            </g>
            <g id="Grupo_70290" data-name="Grupo 70290" transform="translate(0 1.437)">
              <g id="Grupo_70280" data-name="Grupo 70280" transform="translate(30.141 72.568)">
                <path id="Trazado_107224" data-name="Trazado 107224" d="M563.035,335.117l2.489,1.437v-5.629l-2.489-1.437Z" transform="translate(-563.035 -329.489)" fill="#9cafab"/>
              </g>
              <g id="Grupo_70281" data-name="Grupo 70281" transform="translate(0 52.843)">
                <path id="Trazado_107225" data-name="Trazado 107225" d="M526.271,307.849l32.63,18.743v-2.419l-32.63-18.743Z" transform="translate(-526.271 -305.43)" fill="#9cafab"/>
              </g>
              <g id="Grupo_70284" data-name="Grupo 70284">
                <g id="Grupo_70282" data-name="Grupo 70282" transform="translate(0 51.406)">
                  <path id="Trazado_107226" data-name="Trazado 107226" d="M526.271,305.114l32.63,18.743,2.489-1.437-32.63-18.743Z" transform="translate(-526.271 -303.677)" fill="#bdd4cf"/>
                </g>
                <g id="Grupo_70283" data-name="Grupo 70283" transform="translate(10.07)">
                  <path id="Trazado_107227" data-name="Trazado 107227" d="M538.554,242.414v57.21l2.489-1.437v-57.21Z" transform="translate(-538.554 -240.977)" fill="#5b6664"/>
                </g>
              </g>
              <g id="Grupo_70285" data-name="Grupo 70285" transform="translate(7.581)">
                <path id="Trazado_107228" data-name="Trazado 107228" d="M535.518,240.977v57.21l2.489,1.437v-57.21Z" transform="translate(-535.518 -240.977)" fill="#9cafab"/>
              </g>
              <g id="Grupo_70286" data-name="Grupo 70286" transform="translate(32.63 70.148)">
                <path id="Trazado_107229" data-name="Trazado 107229" d="M568.56,326.538v2.419l-2.489,1.437v-2.419Z" transform="translate(-566.071 -326.538)" fill="#5b6664"/>
              </g>
              <g id="Grupo_70287" data-name="Grupo 70287" transform="translate(32.63 72.568)">
                <path id="Trazado_107230" data-name="Trazado 107230" d="M566.071,330.926v5.629l2.489-1.437v-5.629Z" transform="translate(-566.071 -329.489)" fill="#5b6664"/>
              </g>
              <g id="Grupo_70288" data-name="Grupo 70288" transform="translate(0 55.262)">
                <path id="Trazado_107231" data-name="Trazado 107231" d="M526.271,314.01l2.489,1.437v-5.629l-2.489-1.437Z" transform="translate(-526.271 -308.381)" fill="#9cafab"/>
              </g>
              <g id="Grupo_70289" data-name="Grupo 70289" transform="translate(2.489 56.699)">
                <path id="Trazado_107232" data-name="Trazado 107232" d="M529.307,310.134v5.629l2.489-1.437v-2.755Z" transform="translate(-529.307 -310.134)" fill="#5b6664"/>
              </g>
            </g>
          </g>
          <g id="Grupo_70300" data-name="Grupo 70300" transform="translate(4.654 36.479)">
            <g id="Grupo_70293" data-name="Grupo 70293" transform="translate(0 50.624)">
              <g id="Grupo_70292" data-name="Grupo 70292">
                <path id="Trazado_107233" data-name="Trazado 107233" d="M544.623,303.856,532.43,310.9a.965.965,0,0,0,.965,1.672l12.185-7.035A4.424,4.424,0,0,0,544.623,303.856Z" transform="translate(-531.948 -303.856)" fill="#bdd4cf"/>
              </g>
            </g>
            <g id="Grupo_70295" data-name="Grupo 70295" transform="translate(0 33.75)">
              <g id="Grupo_70294" data-name="Grupo 70294">
                <path id="Trazado_107234" data-name="Trazado 107234" d="M544.623,283.274l-12.193,7.04a.965.965,0,1,0,.965,1.671l12.185-7.035A4.415,4.415,0,0,0,544.623,283.274Z" transform="translate(-531.948 -283.274)" fill="#bdd4cf"/>
              </g>
            </g>
            <g id="Grupo_70297" data-name="Grupo 70297" transform="translate(0 16.874)">
              <g id="Grupo_70296" data-name="Grupo 70296">
                <path id="Trazado_107235" data-name="Trazado 107235" d="M544.623,262.691l-12.193,7.04a.965.965,0,0,0,.965,1.672l12.185-7.035A4.424,4.424,0,0,0,544.623,262.691Z" transform="translate(-531.948 -262.691)" fill="#bdd4cf"/>
              </g>
            </g>
            <g id="Grupo_70299" data-name="Grupo 70299">
              <g id="Grupo_70298" data-name="Grupo 70298">
                <path id="Trazado_107236" data-name="Trazado 107236" d="M544.623,242.109l-12.193,7.039a.965.965,0,1,0,.965,1.672l12.185-7.035A4.414,4.414,0,0,0,544.623,242.109Z" transform="translate(-531.948 -242.109)" fill="#bdd4cf"/>
              </g>
            </g>
          </g>
        </g>
        <g id="Grupo_70373" data-name="Grupo 70373" transform="translate(669.316 188.964)">
          <g id="Grupo_70370" data-name="Grupo 70370">
            <g id="Grupo_70315" data-name="Grupo 70315" transform="translate(72.273 27.042)">
              <g id="Grupo_70305" data-name="Grupo 70305" transform="translate(0 23.154)">
                <g id="Grupo_70302" data-name="Grupo 70302" transform="translate(0 1.397)">
                  <path id="Trazado_107237" data-name="Trazado 107237" d="M757.186,251.892v2.465l58.488,33.764v-2.465Z" transform="translate(-757.186 -251.892)" fill="#9cafab"/>
                </g>
                <g id="Grupo_70303" data-name="Grupo 70303">
                  <path id="Trazado_107238" data-name="Trazado 107238" d="M757.186,251.585l2.421-1.4,58.487,33.764-2.421,1.4Z" transform="translate(-757.186 -250.188)" fill="#bdd4cf"/>
                </g>
                <g id="Grupo_70304" data-name="Grupo 70304" transform="translate(58.488 33.764)">
                  <path id="Trazado_107239" data-name="Trazado 107239" d="M828.524,295.233l2.421-1.383v-2.48l-2.421,1.4Z" transform="translate(-828.524 -291.37)" fill="#5b6664"/>
                </g>
              </g>
              <g id="Grupo_70308" data-name="Grupo 70308" transform="translate(8.404)">
                <g id="Grupo_70306" data-name="Grupo 70306">
                  <path id="Trazado_107240" data-name="Trazado 107240" d="M769.187,223.089v28.9l-1.636-.945v-28.9Z" transform="translate(-767.457 -221.983)" fill="#fff"/>
                  <path id="Trazado_107241" data-name="Trazado 107241" d="M769.259,252.121l-1.823-1.054V221.947L769.259,223Zm-1.636-1.162,1.449.837V223.108l-1.449-.837Z" transform="translate(-767.436 -221.947)" fill="#231f20"/>
                </g>
                <g id="Grupo_70307" data-name="Grupo 70307" transform="translate(1.636)">
                  <path id="Trazado_107242" data-name="Trazado 107242" d="M771.182,222.145v28.9l-1.636.945v-28.9Z" transform="translate(-769.453 -221.983)" fill="#fff"/>
                  <path id="Trazado_107243" data-name="Trazado 107243" d="M769.432,252.121V223l1.823-1.053v29.121Zm.187-29.013V251.8l1.449-.837V222.271Z" transform="translate(-769.432 -221.947)" fill="#231f20"/>
                </g>
              </g>
              <g id="Grupo_70311" data-name="Grupo 70311" transform="translate(27.492 10.994)">
                <g id="Grupo_70309" data-name="Grupo 70309">
                  <path id="Trazado_107244" data-name="Trazado 107244" d="M792.468,236.5v28.9l-1.636-.945v-28.9Z" transform="translate(-790.739 -235.392)" fill="#fff"/>
                  <path id="Trazado_107245" data-name="Trazado 107245" d="M792.541,265.53l-1.823-1.053V235.356l1.823,1.053Zm-1.636-1.161,1.448.836V236.517l-1.448-.836Z" transform="translate(-790.718 -235.356)" fill="#231f20"/>
                </g>
                <g id="Grupo_70310" data-name="Grupo 70310" transform="translate(1.636)">
                  <path id="Trazado_107246" data-name="Trazado 107246" d="M794.464,235.554v28.9l-1.636.945V236.5Z" transform="translate(-792.734 -235.392)" fill="#fff"/>
                  <path id="Trazado_107247" data-name="Trazado 107247" d="M792.713,265.53V236.409l1.824-1.053v29.121Zm.188-29.013v28.689l1.449-.836V235.681Z" transform="translate(-792.713 -235.356)" fill="#231f20"/>
                </g>
              </g>
              <g id="Grupo_70314" data-name="Grupo 70314" transform="translate(46.673 22.15)">
                <g id="Grupo_70312" data-name="Grupo 70312">
                  <path id="Trazado_107248" data-name="Trazado 107248" d="M815.75,249.908v28.9l-1.636-.945v-28.9Z" transform="translate(-814.114 -248.964)" fill="#9cafab"/>
                </g>
                <g id="Grupo_70313" data-name="Grupo 70313" transform="translate(1.636)">
                  <path id="Trazado_107249" data-name="Trazado 107249" d="M817.746,248.964v28.9l-1.636.945v-28.9Z" transform="translate(-816.11 -248.964)" fill="#5b6664"/>
                </g>
              </g>
            </g>
            <g id="Grupo_70329" data-name="Grupo 70329" transform="translate(0 68.912)">
              <g id="Grupo_70319" data-name="Grupo 70319" transform="translate(0 22.992)">
                <g id="Grupo_70316" data-name="Grupo 70316" transform="translate(0 1.397)">
                  <path id="Trazado_107250" data-name="Trazado 107250" d="M669.033,302.765v2.465l58.487,33.764v-2.465Z" transform="translate(-669.033 -302.765)" fill="#9cafab"/>
                </g>
                <g id="Grupo_70317" data-name="Grupo 70317">
                  <path id="Trazado_107251" data-name="Trazado 107251" d="M669.033,302.458l2.421-1.4,58.487,33.764-2.421,1.4Z" transform="translate(-669.033 -301.061)" fill="#bdd4cf"/>
                </g>
                <g id="Grupo_70318" data-name="Grupo 70318" transform="translate(58.487 33.764)">
                  <path id="Trazado_107252" data-name="Trazado 107252" d="M740.371,346.105l2.421-1.382v-2.48l-2.421,1.4Z" transform="translate(-740.371 -342.243)" fill="#5b6664"/>
                </g>
              </g>
              <g id="Grupo_70322" data-name="Grupo 70322" transform="translate(8.497)">
                <g id="Grupo_70320" data-name="Grupo 70320">
                  <path id="Trazado_107253" data-name="Trazado 107253" d="M681.034,273.962v28.9l-1.636-.945v-28.9Z" transform="translate(-679.397 -273.017)" fill="#9cafab"/>
                </g>
                <g id="Grupo_70321" data-name="Grupo 70321" transform="translate(1.636)">
                  <path id="Trazado_107254" data-name="Trazado 107254" d="M683.029,273.017v28.9l-1.636.945v-28.9Z" transform="translate(-681.393 -273.017)" fill="#5b6664"/>
                </g>
              </g>
              <g id="Grupo_70325" data-name="Grupo 70325" transform="translate(27.585 10.994)">
                <g id="Grupo_70323" data-name="Grupo 70323">
                  <path id="Trazado_107255" data-name="Trazado 107255" d="M704.315,287.372v28.9l-1.636-.945v-28.9Z" transform="translate(-702.679 -286.427)" fill="#9cafab"/>
                </g>
                <g id="Grupo_70324" data-name="Grupo 70324" transform="translate(1.636)">
                  <path id="Trazado_107256" data-name="Trazado 107256" d="M706.311,286.427v28.9l-1.636.945v-28.9Z" transform="translate(-704.675 -286.427)" fill="#5b6664"/>
                </g>
              </g>
              <g id="Grupo_70328" data-name="Grupo 70328" transform="translate(46.673 21.988)">
                <g id="Grupo_70326" data-name="Grupo 70326">
                  <path id="Trazado_107257" data-name="Trazado 107257" d="M727.6,300.781v28.9l-1.636-.945v-28.9Z" transform="translate(-725.961 -299.836)" fill="#9cafab"/>
                </g>
                <g id="Grupo_70327" data-name="Grupo 70327" transform="translate(1.636)">
                  <path id="Trazado_107258" data-name="Trazado 107258" d="M729.593,299.836v28.9l-1.636.945v-28.9Z" transform="translate(-727.957 -299.836)" fill="#5b6664"/>
                </g>
              </g>
            </g>
            <g id="Grupo_70333" data-name="Grupo 70333" transform="translate(72.18 19.263)">
              <g id="Grupo_70330" data-name="Grupo 70330" transform="translate(0 1.235)">
                <path id="Trazado_107259" data-name="Trazado 107259" d="M757.186,214.164v2.465l58.488,33.764v-2.465Z" transform="translate(-757.093 -214.002)" fill="#fff"/>
                <path id="Trazado_107260" data-name="Trazado 107260" d="M815.747,250.519l-.141-.08-58.534-33.791v-2.682l.14.081,58.535,33.791Zm-58.488-33.98,58.3,33.656v-2.249l-58.3-33.655Z" transform="translate(-757.072 -213.966)" fill="#231f20"/>
              </g>
              <g id="Grupo_70331" data-name="Grupo 70331" transform="translate(0.093)">
                <path id="Trazado_107261" data-name="Trazado 107261" d="M757.186,213.857l2.421-1.4,58.487,33.764-2.421,1.4Z" transform="translate(-757.186 -212.459)" fill="#bdd4cf"/>
              </g>
              <g id="Grupo_70332" data-name="Grupo 70332" transform="translate(58.581 33.764)">
                <path id="Trazado_107262" data-name="Trazado 107262" d="M828.524,257.5l2.421-1.383v-2.48l-2.421,1.4Z" transform="translate(-828.524 -253.642)" fill="#5b6664"/>
              </g>
            </g>
            <g id="Grupo_70340" data-name="Grupo 70340" transform="translate(2.421 20.66)">
              <g id="Grupo_70336" data-name="Grupo 70336">
                <g id="Grupo_70334" data-name="Grupo 70334" transform="translate(28.274 16.324)">
                  <path id="Trazado_107263" data-name="Trazado 107263" d="M776.326,236.539l-69.855,40.327V274.4l69.855-40.327Z" transform="translate(-706.472 -234.074)" fill="#b3a584"/>
                </g>
                <g id="Grupo_70335" data-name="Grupo 70335">
                  <path id="Trazado_107264" data-name="Trazado 107264" d="M770.114,230.487l-69.855,40.327L671.986,254.49l69.854-40.327Z" transform="translate(-671.986 -214.163)" fill="#f3e8cc"/>
                </g>
              </g>
              <g id="Grupo_70339" data-name="Grupo 70339" transform="translate(30.214 17.44)">
                <g id="Grupo_70337" data-name="Grupo 70337" transform="translate(28.274 16.324)">
                  <path id="Trazado_107265" data-name="Trazado 107265" d="M813.178,257.811l-69.855,40.327v-2.465l69.855-40.327Z" transform="translate(-743.324 -255.345)" fill="#b3a584"/>
                </g>
                <g id="Grupo_70338" data-name="Grupo 70338">
                  <path id="Trazado_107266" data-name="Trazado 107266" d="M806.966,251.759l-69.854,40.327-28.274-16.324,69.855-40.327Z" transform="translate(-708.838 -235.434)" fill="#f3e8cc"/>
                </g>
              </g>
            </g>
            <g id="Grupo_70343" data-name="Grupo 70343" transform="translate(78.345 0.183)">
              <g id="Grupo_70342" data-name="Grupo 70342">
                <g id="Grupo_70341" data-name="Grupo 70341">
                  <path id="Trazado_107267" data-name="Trazado 107267" d="M774.815,219.5a.532.532,0,0,1-.266-.071l-9.69-5.594a.533.533,0,0,1-.266-.462V189.72a.533.533,0,0,1,1.066,0v23.341l9.423,5.44a.533.533,0,0,1-.266,1Z" transform="translate(-764.592 -189.187)" fill="#9cafab"/>
                </g>
              </g>
            </g>
            <g id="Grupo_70344" data-name="Grupo 70344" transform="translate(8.352 6.098)">
              <path id="Trazado_107268" data-name="Trazado 107268" d="M760.537,223.771a38.444,38.444,0,0,1-16.112-18.142l-3.958-9.228L679.22,231.7l3.958,9.228a38.455,38.455,0,0,0,16.112,18.143l24.363,14.066L784.9,237.839Z" transform="translate(-679.22 -196.402)" fill="#0075a4"/>
            </g>
            <g id="Grupo_70348" data-name="Grupo 70348" transform="translate(0 60.972)">
              <g id="Grupo_70345" data-name="Grupo 70345" transform="translate(0 1.397)">
                <path id="Trazado_107269" data-name="Trazado 107269" d="M669.033,265.036V267.5l58.487,33.764V298.8Z" transform="translate(-669.033 -265.036)" fill="#9cafab"/>
              </g>
              <g id="Grupo_70346" data-name="Grupo 70346">
                <path id="Trazado_107270" data-name="Trazado 107270" d="M669.033,264.73l2.421-1.4L729.941,297.1l-2.421,1.4Z" transform="translate(-669.033 -263.332)" fill="#bdd4cf"/>
              </g>
              <g id="Grupo_70347" data-name="Grupo 70347" transform="translate(58.487 33.764)">
                <path id="Trazado_107271" data-name="Trazado 107271" d="M740.371,308.377l2.421-1.382v-2.48l-2.421,1.4Z" transform="translate(-740.371 -304.515)" fill="#5b6664"/>
              </g>
            </g>
            <g id="Grupo_70359" data-name="Grupo 70359" transform="translate(7.802)">
              <g id="Grupo_70350" data-name="Grupo 70350" transform="translate(63.075 1.831)">
                <g id="Grupo_70349" data-name="Grupo 70349">
                  <path id="Trazado_107272" data-name="Trazado 107272" d="M756.14,197.26l8.363-4.828a.662.662,0,0,0-.331-1.235.667.667,0,0,0-.331.089l-8.357,4.825A3.032,3.032,0,0,0,756.14,197.26Z" transform="translate(-755.483 -191.197)" fill="#bdd4cf"/>
                </g>
              </g>
              <g id="Grupo_70358" data-name="Grupo 70358">
                <g id="Grupo_70355" data-name="Grupo 70355" transform="translate(0 35.294)">
                  <g id="Grupo_70353" data-name="Grupo 70353">
                    <g id="Grupo_70351" data-name="Grupo 70351">
                      <path id="Trazado_107273" data-name="Trazado 107273" d="M687.7,240.566c0,2.92-2.049,4.1-4.577,2.643a10.12,10.12,0,0,1-4.577-7.929c0-2.919,2.05-4.1,4.577-2.642A10.116,10.116,0,0,1,687.7,240.566Z" transform="translate(-678.549 -232.013)" fill="#118dbf"/>
                    </g>
                    <g id="Grupo_70352" data-name="Grupo 70352" transform="translate(3.303 4.265)">
                      <path id="Trazado_107274" data-name="Trazado 107274" d="M685.127,239.6c0,.813-.571,1.142-1.275.736a2.818,2.818,0,0,1-1.274-2.208c0-.812.571-1.142,1.274-.735A2.815,2.815,0,0,1,685.127,239.6Z" transform="translate(-682.578 -237.215)" fill="#440301"/>
                    </g>
                  </g>
                  <g id="Grupo_70354" data-name="Grupo 70354" transform="translate(3.303 4.272)">
                    <path id="Trazado_107275" data-name="Trazado 107275" d="M684.719,239.7a2.817,2.817,0,0,1-1.275-2.208,1.482,1.482,0,0,1,.023-.25c-.514-.107-.889.225-.889.882a2.818,2.818,0,0,0,1.274,2.208c.626.361,1.144.139,1.252-.485A1.3,1.3,0,0,1,684.719,239.7Z" transform="translate(-682.578 -237.224)" fill="#a90d01"/>
                  </g>
                </g>
                <g id="Grupo_70357" data-name="Grupo 70357" transform="translate(1.343)">
                  <g id="Grupo_70356" data-name="Grupo 70356">
                    <path id="Trazado_107276" data-name="Trazado 107276" d="M749.239,197.515a10.116,10.116,0,0,0-4.577-7.928,3.242,3.242,0,0,0-3.186-.344l0,0-.039.023-.018.01-61.23,35.289a3.218,3.218,0,0,1,3.234.321A10.116,10.116,0,0,1,688,232.811a3.277,3.277,0,0,1-1.243,2.9l0,0,61.074-35.2c.043-.023.085-.048.126-.073l.074-.043,0-.007A3.3,3.3,0,0,0,749.239,197.515Z" transform="translate(-680.187 -188.964)" fill="#035b7e"/>
                  </g>
                </g>
              </g>
            </g>
            <g id="Grupo_70361" data-name="Grupo 70361" transform="translate(8.493 40.604)">
              <g id="Grupo_70360" data-name="Grupo 70360">
                <path id="Trazado_107277" data-name="Trazado 107277" d="M689.614,268.8a.537.537,0,0,1-.266-.071l-9.69-5.595a.532.532,0,0,1-.266-.462V239.024a.533.533,0,1,1,1.066,0v23.341l9.423,5.44a.533.533,0,0,1-.267.995Z" transform="translate(-679.392 -238.49)" fill="#9cafab"/>
              </g>
            </g>
            <g id="Grupo_70363" data-name="Grupo 70363" transform="translate(4.192 40.151)">
              <g id="Grupo_70362" data-name="Grupo 70362">
                <path id="Trazado_107278" data-name="Trazado 107278" d="M682.84,237.937l-8.363,4.828a.662.662,0,0,0,.662,1.147l8.357-4.826A3.032,3.032,0,0,0,682.84,237.937Z" transform="translate(-674.147 -237.937)" fill="#bdd4cf"/>
              </g>
            </g>
            <g id="Grupo_70365" data-name="Grupo 70365" transform="translate(78.72 11.679)">
              <g id="Grupo_70364" data-name="Grupo 70364">
                <path id="Trazado_107279" data-name="Trazado 107279" d="M777.474,211.127a.523.523,0,0,1-.262-.07l-11.9-6.871a.523.523,0,0,1,.523-.907l11.9,6.872a.523.523,0,0,1-.261.976Z" transform="translate(-765.049 -203.209)" fill="#5b6664"/>
              </g>
            </g>
            <g id="Grupo_70367" data-name="Grupo 70367" transform="translate(20.798 18.556)">
              <g id="Grupo_70366" data-name="Grupo 70366">
                <path id="Trazado_107280" data-name="Trazado 107280" d="M694.924,253.061a.524.524,0,0,0,.262-.07l69.823-40.418a.523.523,0,0,0-.523-.906l-69.823,40.418a.523.523,0,0,0,.262.976Z" transform="translate(-694.401 -211.597)" fill="#9cafab"/>
              </g>
            </g>
            <g id="Grupo_70369" data-name="Grupo 70369" transform="translate(8.868 52.101)">
              <g id="Grupo_70368" data-name="Grupo 70368">
                <path id="Trazado_107281" data-name="Trazado 107281" d="M692.273,260.431a.525.525,0,0,1-.262-.07l-11.9-6.871a.523.523,0,0,1,.523-.907l11.9,6.872a.523.523,0,0,1-.262.976Z" transform="translate(-679.849 -252.513)" fill="#bdd4cf"/>
              </g>
            </g>
          </g>
        </g>
        <g id="Grupo_70473" data-name="Grupo 70473" transform="translate(857.051 200.135)">
          <g id="Grupo_70451" data-name="Grupo 70451">
            <g id="Grupo_70443" data-name="Grupo 70443">
              <g id="Grupo_70393" data-name="Grupo 70393">
                <g id="Grupo_70381" data-name="Grupo 70381" transform="translate(24.264 44.132)">
                  <g id="Grupo_70374" data-name="Grupo 70374">
                    <path id="Trazado_107284" data-name="Trazado 107284" d="M915.73,283.561v-4.413l-39.346-22.73v4.413l9.337,5.391v31.5l-9.337-5.391v4.413l39.346,22.73v-2.206l-4.8-4.975-21.393-12.365v-31.5Z" transform="translate(-876.383 -256.418)" fill="#9cafab"/>
                  </g>
                  <g id="Grupo_70375" data-name="Grupo 70375" transform="translate(39.346 59.34)">
                    <path id="Trazado_107285" data-name="Trazado 107285" d="M924.374,330.306l2.62-1.51V331l-2.62,1.51Z" transform="translate(-924.374 -328.796)" fill="#5b6664"/>
                  </g>
                  <g id="Grupo_70376" data-name="Grupo 70376" transform="translate(34.551 54.365)">
                    <path id="Trazado_107286" data-name="Trazado 107286" d="M918.526,324.238l2.62-1.51,4.8,4.975-2.62,1.51Z" transform="translate(-918.526 -322.728)" fill="#b1c7c2"/>
                  </g>
                  <g id="Grupo_70377" data-name="Grupo 70377" transform="translate(13.159 42)">
                    <path id="Trazado_107287" data-name="Trazado 107287" d="M895.052,307.646l-2.62,1.51,21.393,12.365,2.62-1.51Z" transform="translate(-892.432 -307.646)" fill="#bdd4cf"/>
                  </g>
                  <g id="Grupo_70378" data-name="Grupo 70378" transform="translate(13.159 28.688)">
                    <path id="Trazado_107288" data-name="Trazado 107288" d="M892.433,291.41l2.62,1.513v11.8l-2.62,1.51Z" transform="translate(-892.432 -291.41)" fill="#5b6664"/>
                  </g>
                  <g id="Grupo_70379" data-name="Grupo 70379" transform="translate(0 34.403)">
                    <path id="Trazado_107289" data-name="Trazado 107289" d="M879,298.38l-2.62,1.51,9.337,5.391v-3.023Z" transform="translate(-876.383 -298.38)" fill="#bdd4cf"/>
                  </g>
                  <g id="Grupo_70380" data-name="Grupo 70380" transform="translate(39.254 21.059)">
                    <path id="Trazado_107290" data-name="Trazado 107290" d="M924.375,288.223l2.62-1.51V282.3l-2.62,1.51Z" transform="translate(-924.281 -282.139)" fill="#fff"/>
                    <path id="Trazado_107291" data-name="Trazado 107291" d="M924.261,288.351v-4.63l2.807-1.617v4.627Zm.187-4.521v4.2l2.432-1.4v-4.2Z" transform="translate(-924.261 -282.104)" fill="#231f20"/>
                  </g>
                </g>
                <g id="Grupo_70389" data-name="Grupo 70389" transform="translate(77.196 13.475)">
                  <g id="Grupo_70382" data-name="Grupo 70382" transform="translate(0.188)">
                    <path id="Trazado_107292" data-name="Trazado 107292" d="M980.522,246.168v-4.413l-39.346-22.73v4.413l9.337,5.391v31.5l-9.337-5.391v4.413l39.347,22.73v-2.206l-4.8-4.975-21.393-12.365v-31.5Z" transform="translate(-941.175 -219.025)" fill="#9cafab"/>
                  </g>
                  <g id="Grupo_70383" data-name="Grupo 70383" transform="translate(39.534 59.34)">
                    <path id="Trazado_107293" data-name="Trazado 107293" d="M989.167,292.913l2.62-1.51v2.206l-2.62,1.51Z" transform="translate(-989.167 -291.403)" fill="#5b6664"/>
                  </g>
                  <g id="Grupo_70384" data-name="Grupo 70384" transform="translate(34.739 54.365)">
                    <path id="Trazado_107294" data-name="Trazado 107294" d="M983.318,286.845l2.62-1.51,4.8,4.975-2.62,1.51Z" transform="translate(-983.318 -285.335)" fill="#b1c7c2"/>
                  </g>
                  <g id="Grupo_70385" data-name="Grupo 70385" transform="translate(13.346 42)">
                    <path id="Trazado_107295" data-name="Trazado 107295" d="M959.845,270.253l-2.62,1.51,21.393,12.365,2.62-1.51Z" transform="translate(-957.225 -270.253)" fill="#bdd4cf"/>
                  </g>
                  <g id="Grupo_70386" data-name="Grupo 70386" transform="translate(13.253 28.526)">
                    <path id="Trazado_107296" data-name="Trazado 107296" d="M957.225,254.017l2.62,1.513v11.8l-2.62,1.51Z" transform="translate(-957.132 -253.855)" fill="#fff"/>
                    <path id="Trazado_107297" data-name="Trazado 107297" d="M957.111,268.966V253.819l2.807,1.621v11.908Zm.187-14.822v14.5l2.433-1.4V255.548Z" transform="translate(-957.111 -253.819)" fill="#231f20"/>
                  </g>
                  <g id="Grupo_70387" data-name="Grupo 70387" transform="translate(0 34.295)">
                    <path id="Trazado_107298" data-name="Trazado 107298" d="M943.8,260.987l-2.62,1.51,9.337,5.391v-3.023Z" transform="translate(-940.987 -260.88)" fill="#fff"/>
                    <path id="Trazado_107299" data-name="Trazado 107299" d="M950.565,268.027l-9.619-5.554,2.808-1.618,6.811,3.931Zm-9.243-5.554,9.056,5.228V264.9l-6.624-3.823Z" transform="translate(-940.946 -260.856)" fill="#231f20"/>
                  </g>
                  <g id="Grupo_70388" data-name="Grupo 70388" transform="translate(39.535 21.22)">
                    <path id="Trazado_107300" data-name="Trazado 107300" d="M989.167,250.831l2.62-1.51v-4.413l-2.62,1.51Z" transform="translate(-989.167 -244.908)" fill="#5b6664"/>
                  </g>
                </g>
                <g id="Grupo_70390" data-name="Grupo 70390" transform="translate(45.37 26.195)">
                  <path id="Trazado_107301" data-name="Trazado 107301" d="M983.978,238.5l-81.851,47.258V281.8l81.851-47.258Z" transform="translate(-902.127 -234.54)" fill="#b3a584"/>
                </g>
                <g id="Grupo_70391" data-name="Grupo 70391">
                  <path id="Trazado_107302" data-name="Trazado 107302" d="M974.009,228.784l-81.851,47.258-45.37-26.195,81.851-47.258Z" transform="translate(-846.788 -202.59)" fill="#f3e8cc"/>
                </g>
                <g id="Grupo_70392" data-name="Grupo 70392" transform="translate(0 47.258)">
                  <path id="Trazado_107303" data-name="Trazado 107303" d="M846.788,260.231v3.956l45.37,26.195v-3.956Z" transform="translate(-846.788 -260.231)" fill="#d4c398"/>
                </g>
              </g>
              <g id="Grupo_70394" data-name="Grupo 70394" transform="translate(8.778 5.068)">
                <path id="Trazado_107304" data-name="Trazado 107304" d="M967.16,234.966l-64.3,37.122-45.37-26.2,64.3-37.122Z" transform="translate(-857.495 -208.771)" fill="#0075a4"/>
              </g>
              <g id="Grupo_70395" data-name="Grupo 70395" transform="translate(54.148 31.263)">
                <path id="Trazado_107305" data-name="Trazado 107305" d="M912.833,277.844v25.722l64.3-37.122V240.722Z" transform="translate(-912.833 -240.722)" fill="#005171"/>
              </g>
              <g id="Grupo_70402" data-name="Grupo 70402" transform="translate(39.028 24.205)">
                <g id="Grupo_70398" data-name="Grupo 70398">
                  <g id="Grupo_70396" data-name="Grupo 70396" transform="translate(0 12.796)">
                    <path id="Trazado_107306" data-name="Trazado 107306" d="M917.368,254.3l-11.655,6.729-11.208-6.471,11.655-6.729Z" transform="translate(-894.412 -247.74)" fill="#0075a4"/>
                    <path id="Trazado_107307" data-name="Trazado 107307" d="M905.693,261.107a.1.1,0,0,1-.047-.012l-11.208-6.47a.094.094,0,0,1,0-.163l11.654-6.729a.1.1,0,0,1,.093,0l11.208,6.47a.1.1,0,0,1,.047.081.094.094,0,0,1-.047.081l-11.655,6.729A.092.092,0,0,1,905.693,261.107Zm-11.021-6.565,11.021,6.363,11.467-6.621-11.021-6.362Z" transform="translate(-894.391 -247.72)" fill="#fff"/>
                  </g>
                  <g id="Grupo_70397" data-name="Grupo 70397" transform="translate(11.655)">
                    <path id="Trazado_107308" data-name="Trazado 107308" d="M919.929,251.493l16.558-16.031-5.6-3.236-22.162,12.8Z" transform="translate(-908.627 -232.133)" fill="#0075a4"/>
                    <path id="Trazado_107309" data-name="Trazado 107309" d="M919.908,251.567a.1.1,0,0,1-.047-.013l-11.208-6.47a.093.093,0,0,1-.047-.081.092.092,0,0,1,.047-.081l22.162-12.8a.1.1,0,0,1,.094,0l5.6,3.235a.094.094,0,0,1,.018.148L919.974,251.54A.093.093,0,0,1,919.908,251.567ZM908.888,245l11.006,6.354,16.418-15.9-5.449-3.146Z" transform="translate(-908.607 -232.113)" fill="#fff"/>
                  </g>
                </g>
                <g id="Grupo_70401" data-name="Grupo 70401" transform="translate(18.071 7.198)">
                  <g id="Grupo_70399" data-name="Grupo 70399" transform="translate(16.559)">
                    <path id="Trazado_107310" data-name="Trazado 107310" d="M936.743,247.735l11.655-6.729,11.208,6.471-11.655,6.729Z" transform="translate(-936.65 -240.913)" fill="#0075a4"/>
                    <path id="Trazado_107311" data-name="Trazado 107311" d="M947.931,254.28a.1.1,0,0,1-.047-.012L936.676,247.8a.095.095,0,0,1,0-.163l11.655-6.729a.1.1,0,0,1,.093,0l11.208,6.471a.094.094,0,0,1,.048.081.093.093,0,0,1-.048.081l-11.654,6.729A.1.1,0,0,1,947.931,254.28Zm-11.021-6.565,11.021,6.363,11.467-6.621-11.021-6.363Z" transform="translate(-936.629 -240.892)" fill="#fff"/>
                  </g>
                  <g id="Grupo_70400" data-name="Grupo 70400" transform="translate(0 6.729)">
                    <path id="Trazado_107312" data-name="Trazado 107312" d="M933.105,249.214l-16.558,16.031,5.6,3.236,22.162-12.8Z" transform="translate(-916.453 -249.12)" fill="#0075a4"/>
                    <path id="Trazado_107313" data-name="Trazado 107313" d="M922.13,268.554a.1.1,0,0,1-.047-.012l-5.6-3.236a.093.093,0,0,1-.019-.148l16.559-16.032a.1.1,0,0,1,.112-.014l11.208,6.472a.094.094,0,0,1,.047.081.1.1,0,0,1-.047.081l-22.162,12.8A.093.093,0,0,1,922.13,268.554Zm-5.45-3.349,5.45,3.147L944.1,255.665,933.1,249.31Z" transform="translate(-916.432 -249.1)" fill="#fff"/>
                  </g>
                </g>
              </g>
              <g id="Grupo_70442" data-name="Grupo 70442" transform="translate(65.73 4.481)">
                <g id="Grupo_70403" data-name="Grupo 70403" transform="translate(0 1.437)">
                  <path id="Trazado_107314" data-name="Trazado 107314" d="M970.281,236.063,926.96,211.051v-1.243l43.322,25.012Z" transform="translate(-926.96 -209.808)" fill="#d6973a"/>
                </g>
                <g id="Grupo_70440" data-name="Grupo 70440">
                  <g id="Grupo_70404" data-name="Grupo 70404">
                    <path id="Trazado_107315" data-name="Trazado 107315" d="M970.281,234.5,926.96,209.492l2.489-1.437,43.322,25.012Z" transform="translate(-926.96 -208.055)" fill="#f5b659"/>
                  </g>
                  <g id="Grupo_70439" data-name="Grupo 70439" transform="translate(4.144 1.732)">
                    <g id="Grupo_70405" data-name="Grupo 70405">
                      <path id="Trazado_107316" data-name="Trazado 107316" d="M932.108,211.17a.092.092,0,0,1-.081-.047.093.093,0,0,1,.034-.128l1.413-.816a.1.1,0,0,1,.128.034.094.094,0,0,1-.034.128l-1.413.816A.1.1,0,0,1,932.108,211.17Z" transform="translate(-932.014 -210.167)" fill="#a90d01"/>
                    </g>
                    <g id="Grupo_70406" data-name="Grupo 70406" transform="translate(1.817 0.647)">
                      <path id="Trazado_107317" data-name="Trazado 107317" d="M934.324,211.558a.094.094,0,0,1-.047-.175l.717-.415a.094.094,0,0,1,.094.163l-.718.414A.093.093,0,0,1,934.324,211.558Z" transform="translate(-934.23 -210.956)" fill="#a90d01"/>
                    </g>
                    <g id="Grupo_70407" data-name="Grupo 70407" transform="translate(2.937 1.294)">
                      <path id="Trazado_107318" data-name="Trazado 107318" d="M935.69,212.348a.094.094,0,0,1-.047-.175l.718-.413a.092.092,0,0,1,.128.034.1.1,0,0,1-.034.128l-.717.414A.108.108,0,0,1,935.69,212.348Z" transform="translate(-935.597 -211.746)" fill="#a90d01"/>
                    </g>
                    <g id="Grupo_70408" data-name="Grupo 70408" transform="translate(4.059 1.943)">
                      <path id="Trazado_107319" data-name="Trazado 107319" d="M937.058,213.138a.093.093,0,0,1-.081-.047.1.1,0,0,1,.034-.128l.717-.415a.094.094,0,0,1,.094.163l-.718.414A.1.1,0,0,1,937.058,213.138Z" transform="translate(-936.965 -212.537)" fill="#a90d01"/>
                    </g>
                    <g id="Grupo_70409" data-name="Grupo 70409" transform="translate(5.18 2.589)">
                      <path id="Trazado_107320" data-name="Trazado 107320" d="M938.426,213.927a.094.094,0,0,1-.047-.175l.717-.414a.094.094,0,0,1,.094.162l-.718.414A.1.1,0,0,1,938.426,213.927Z" transform="translate(-938.332 -213.326)" fill="#a90d01"/>
                    </g>
                    <g id="Grupo_70410" data-name="Grupo 70410" transform="translate(5.606 3.237)">
                      <path id="Trazado_107321" data-name="Trazado 107321" d="M938.945,215.118a.094.094,0,0,1-.047-.175l1.413-.816a.1.1,0,0,1,.128.034.093.093,0,0,1-.034.128l-1.413.816A.1.1,0,0,1,938.945,215.118Z" transform="translate(-938.852 -214.115)" fill="#a90d01"/>
                    </g>
                    <g id="Grupo_70411" data-name="Grupo 70411" transform="translate(7.422 3.884)">
                      <path id="Trazado_107322" data-name="Trazado 107322" d="M941.161,215.506a.094.094,0,0,1-.048-.175l.718-.415a.094.094,0,0,1,.094.163l-.717.414A.1.1,0,0,1,941.161,215.506Z" transform="translate(-941.067 -214.905)" fill="#a90d01"/>
                    </g>
                    <g id="Grupo_70412" data-name="Grupo 70412" transform="translate(8.543 4.531)">
                      <path id="Trazado_107323" data-name="Trazado 107323" d="M942.529,216.3a.094.094,0,0,1-.047-.175l.717-.414a.094.094,0,1,1,.094.162l-.718.415A.1.1,0,0,1,942.529,216.3Z" transform="translate(-942.435 -215.694)" fill="#a90d01"/>
                    </g>
                    <g id="Grupo_70413" data-name="Grupo 70413" transform="translate(9.664 5.178)">
                      <path id="Trazado_107324" data-name="Trazado 107324" d="M943.9,217.085a.094.094,0,0,1-.047-.175l.717-.415a.094.094,0,1,1,.094.163l-.717.414A.1.1,0,0,1,943.9,217.085Z" transform="translate(-943.802 -216.483)" fill="#a90d01"/>
                    </g>
                    <g id="Grupo_70414" data-name="Grupo 70414" transform="translate(10.786 5.826)">
                      <path id="Trazado_107325" data-name="Trazado 107325" d="M945.263,217.875a.094.094,0,0,1-.047-.175l.717-.413a.094.094,0,1,1,.094.162l-.717.413A.088.088,0,0,1,945.263,217.875Z" transform="translate(-945.17 -217.274)" fill="#a90d01"/>
                    </g>
                    <g id="Grupo_70415" data-name="Grupo 70415" transform="translate(11.212 6.474)">
                      <path id="Trazado_107326" data-name="Trazado 107326" d="M945.783,219.066a.094.094,0,0,1-.047-.175l1.413-.816a.1.1,0,0,1,.128.034.1.1,0,0,1-.034.128l-1.413.816A.1.1,0,0,1,945.783,219.066Z" transform="translate(-945.69 -218.064)" fill="#a90d01"/>
                    </g>
                    <g id="Grupo_70416" data-name="Grupo 70416" transform="translate(13.028 7.121)">
                      <path id="Trazado_107327" data-name="Trazado 107327" d="M948,219.454a.094.094,0,0,1-.047-.175l.717-.414a.094.094,0,1,1,.094.162l-.718.414A.1.1,0,0,1,948,219.454Z" transform="translate(-947.904 -218.853)" fill="#a90d01"/>
                    </g>
                    <g id="Grupo_70417" data-name="Grupo 70417" transform="translate(14.149 7.768)">
                      <path id="Trazado_107328" data-name="Trazado 107328" d="M949.366,220.244a.094.094,0,0,1-.048-.175l.717-.414a.094.094,0,1,1,.094.162l-.717.415A.106.106,0,0,1,949.366,220.244Z" transform="translate(-949.272 -219.642)" fill="#a90d01"/>
                    </g>
                    <g id="Grupo_70418" data-name="Grupo 70418" transform="translate(15.27 8.415)">
                      <path id="Trazado_107329" data-name="Trazado 107329" d="M950.734,221.033a.094.094,0,0,1-.047-.175l.717-.415a.1.1,0,0,1,.128.034.093.093,0,0,1-.035.128l-.717.415A.094.094,0,0,1,950.734,221.033Z" transform="translate(-950.64 -220.432)" fill="#a90d01"/>
                    </g>
                    <g id="Grupo_70419" data-name="Grupo 70419" transform="translate(16.391 9.062)">
                      <path id="Trazado_107330" data-name="Trazado 107330" d="M952.1,221.823a.094.094,0,0,1-.047-.175l.718-.414a.094.094,0,1,1,.093.162l-.717.414A.1.1,0,0,1,952.1,221.823Z" transform="translate(-952.007 -221.221)" fill="#a90d01"/>
                    </g>
                    <g id="Grupo_70420" data-name="Grupo 70420" transform="translate(16.817 9.71)">
                      <path id="Trazado_107331" data-name="Trazado 107331" d="M952.62,223.013a.094.094,0,0,1-.047-.175l1.413-.816a.1.1,0,0,1,.128.034.093.093,0,0,1-.034.128l-1.413.816A.1.1,0,0,1,952.62,223.013Z" transform="translate(-952.527 -222.01)" fill="#a90d01"/>
                    </g>
                    <g id="Grupo_70421" data-name="Grupo 70421" transform="translate(18.634 10.356)">
                      <path id="Trazado_107332" data-name="Trazado 107332" d="M954.836,223.4a.094.094,0,0,1-.047-.175l.717-.414a.093.093,0,0,1,.128.034.1.1,0,0,1-.034.129l-.717.413A.1.1,0,0,1,954.836,223.4Z" transform="translate(-954.742 -222.799)" fill="#a90d01"/>
                    </g>
                    <g id="Grupo_70422" data-name="Grupo 70422" transform="translate(19.755 11.005)">
                      <path id="Trazado_107333" data-name="Trazado 107333" d="M956.2,224.192a.094.094,0,0,1-.047-.175l.717-.414a.094.094,0,1,1,.094.162l-.718.415A.1.1,0,0,1,956.2,224.192Z" transform="translate(-956.11 -223.59)" fill="#a90d01"/>
                    </g>
                    <g id="Grupo_70423" data-name="Grupo 70423" transform="translate(20.876 11.652)">
                      <path id="Trazado_107334" data-name="Trazado 107334" d="M957.57,224.981a.094.094,0,0,1-.047-.175l.718-.415a.094.094,0,0,1,.094.163l-.717.414A.1.1,0,0,1,957.57,224.981Z" transform="translate(-957.477 -224.379)" fill="#a90d01"/>
                    </g>
                    <g id="Grupo_70424" data-name="Grupo 70424" transform="translate(21.997 12.299)">
                      <path id="Trazado_107335" data-name="Trazado 107335" d="M958.938,225.77a.093.093,0,0,1-.081-.047.1.1,0,0,1,.034-.128l.717-.414a.094.094,0,1,1,.094.162l-.717.414A.094.094,0,0,1,958.938,225.77Z" transform="translate(-958.845 -225.169)" fill="#a90d01"/>
                    </g>
                    <g id="Grupo_70425" data-name="Grupo 70425" transform="translate(22.423 12.947)">
                      <path id="Trazado_107336" data-name="Trazado 107336" d="M959.458,226.961a.094.094,0,0,1-.047-.175l1.413-.816a.1.1,0,0,1,.128.034.094.094,0,0,1-.035.128l-1.413.816A.1.1,0,0,1,959.458,226.961Z" transform="translate(-959.364 -225.959)" fill="#a90d01"/>
                    </g>
                    <g id="Grupo_70426" data-name="Grupo 70426" transform="translate(24.24 13.593)">
                      <path id="Trazado_107337" data-name="Trazado 107337" d="M961.673,227.349a.093.093,0,0,1-.047-.175l.717-.415a.094.094,0,0,1,.093.163l-.717.414A.1.1,0,0,1,961.673,227.349Z" transform="translate(-961.58 -226.747)" fill="#a90d01"/>
                    </g>
                    <g id="Grupo_70427" data-name="Grupo 70427" transform="translate(25.361 14.241)">
                      <path id="Trazado_107338" data-name="Trazado 107338" d="M963.041,228.139a.094.094,0,0,1-.048-.175l.718-.414a.094.094,0,0,1,.093.162l-.717.415A.107.107,0,0,1,963.041,228.139Z" transform="translate(-962.947 -227.537)" fill="#a90d01"/>
                    </g>
                    <g id="Grupo_70428" data-name="Grupo 70428" transform="translate(26.482 14.889)">
                      <path id="Trazado_107339" data-name="Trazado 107339" d="M964.408,228.928a.094.094,0,0,1-.047-.175l.717-.414a.094.094,0,0,1,.094.163l-.718.413A.085.085,0,0,1,964.408,228.928Z" transform="translate(-964.315 -228.327)" fill="#a90d01"/>
                    </g>
                    <g id="Grupo_70429" data-name="Grupo 70429" transform="translate(27.603 15.536)">
                      <path id="Trazado_107340" data-name="Trazado 107340" d="M965.776,229.719a.094.094,0,0,1-.047-.175l.717-.414a.094.094,0,1,1,.094.162l-.717.414A.1.1,0,0,1,965.776,229.719Z" transform="translate(-965.682 -229.117)" fill="#a90d01"/>
                    </g>
                    <g id="Grupo_70430" data-name="Grupo 70430" transform="translate(28.029 16.183)">
                      <path id="Trazado_107341" data-name="Trazado 107341" d="M966.3,230.909a.093.093,0,0,1-.081-.047.1.1,0,0,1,.034-.128l1.413-.816a.1.1,0,0,1,.128.034.093.093,0,0,1-.034.128l-1.413.816A.1.1,0,0,1,966.3,230.909Z" transform="translate(-966.202 -229.906)" fill="#a90d01"/>
                    </g>
                    <g id="Grupo_70431" data-name="Grupo 70431" transform="translate(29.845 16.83)">
                      <path id="Trazado_107342" data-name="Trazado 107342" d="M968.511,231.3a.092.092,0,0,1-.081-.047.094.094,0,0,1,.034-.128l.718-.414a.094.094,0,0,1,.128.034.1.1,0,0,1-.034.129l-.717.414A.1.1,0,0,1,968.511,231.3Z" transform="translate(-968.417 -230.696)" fill="#a90d01"/>
                    </g>
                    <g id="Grupo_70432" data-name="Grupo 70432" transform="translate(30.966 17.478)">
                      <path id="Trazado_107343" data-name="Trazado 107343" d="M969.878,232.087a.094.094,0,0,1-.047-.175l.717-.414a.094.094,0,1,1,.094.162l-.717.415A.107.107,0,0,1,969.878,232.087Z" transform="translate(-969.784 -231.485)" fill="#a90d01"/>
                    </g>
                    <g id="Grupo_70433" data-name="Grupo 70433" transform="translate(32.087 18.125)">
                      <path id="Trazado_107344" data-name="Trazado 107344" d="M971.246,232.876a.094.094,0,0,1-.048-.175l.717-.415a.094.094,0,1,1,.094.163l-.717.414A.1.1,0,0,1,971.246,232.876Z" transform="translate(-971.152 -232.274)" fill="#a90d01"/>
                    </g>
                    <g id="Grupo_70434" data-name="Grupo 70434" transform="translate(33.209 18.772)">
                      <path id="Trazado_107345" data-name="Trazado 107345" d="M972.613,233.666a.094.094,0,0,1-.047-.175l.717-.414a.094.094,0,0,1,.093.162l-.717.414A.1.1,0,0,1,972.613,233.666Z" transform="translate(-972.52 -233.064)" fill="#a90d01"/>
                    </g>
                    <g id="Grupo_70435" data-name="Grupo 70435" transform="translate(33.635 19.42)">
                      <path id="Trazado_107346" data-name="Trazado 107346" d="M973.133,234.857a.094.094,0,0,1-.047-.175l1.412-.816a.1.1,0,0,1,.129.034.1.1,0,0,1-.034.128l-1.413.816A.1.1,0,0,1,973.133,234.857Z" transform="translate(-973.039 -233.854)" fill="#a90d01"/>
                    </g>
                    <g id="Grupo_70436" data-name="Grupo 70436" transform="translate(35.451 20.067)">
                      <path id="Trazado_107347" data-name="Trazado 107347" d="M975.348,235.245a.093.093,0,0,1-.081-.047.094.094,0,0,1,.034-.128l.717-.415a.1.1,0,0,1,.128.034.094.094,0,0,1-.034.129l-.717.414A.1.1,0,0,1,975.348,235.245Z" transform="translate(-975.255 -234.644)" fill="#a90d01"/>
                    </g>
                    <g id="Grupo_70437" data-name="Grupo 70437" transform="translate(36.572 20.714)">
                      <path id="Trazado_107348" data-name="Trazado 107348" d="M976.716,236.035a.094.094,0,0,1-.048-.175l.718-.414a.094.094,0,0,1,.094.162l-.718.415A.106.106,0,0,1,976.716,236.035Z" transform="translate(-976.622 -235.433)" fill="#a90d01"/>
                    </g>
                    <g id="Grupo_70438" data-name="Grupo 70438" transform="translate(37.693 21.361)">
                      <path id="Trazado_107349" data-name="Trazado 107349" d="M978.083,236.824a.094.094,0,0,1-.047-.175l.717-.415a.094.094,0,0,1,.094.163l-.718.414A.1.1,0,0,1,978.083,236.824Z" transform="translate(-977.989 -236.222)" fill="#a90d01"/>
                    </g>
                  </g>
                </g>
                <g id="Grupo_70441" data-name="Grupo 70441" transform="translate(43.321 25.012)">
                  <path id="Trazado_107350" data-name="Trazado 107350" d="M979.8,240v1.243l2.489-1.437v-1.243Z" transform="translate(-979.8 -238.563)" fill="#bf7b17"/>
                </g>
              </g>
            </g>
            <g id="Grupo_70450" data-name="Grupo 70450" transform="translate(36.472 18.715)">
              <g id="Grupo_70446" data-name="Grupo 70446" transform="translate(0 6.7)">
                <g id="Grupo_70444" data-name="Grupo 70444">
                  <path id="Trazado_107351" data-name="Trazado 107351" d="M899.573,233.7l5.574,1.507,2.611,3.218-8.184,4.725-8.184-4.725Z" transform="translate(-891.295 -233.61)" fill="#0075a4"/>
                  <path id="Trazado_107352" data-name="Trazado 107352" d="M899.552,243.228a.094.094,0,0,1-.047-.012l-8.184-4.726a.093.093,0,0,1-.047-.081.094.094,0,0,1,.047-.081l8.184-4.726a.093.093,0,0,1,.071-.01l5.573,1.508a.087.087,0,0,1,.048.031l2.611,3.219a.094.094,0,0,1,.019.076.093.093,0,0,1-.045.064l-8.185,4.726A.094.094,0,0,1,899.552,243.228Zm-8-4.819,8,4.617,8.043-4.643-2.523-3.11-5.507-1.49Z" transform="translate(-891.274 -233.589)" fill="#fff"/>
                </g>
                <g id="Grupo_70445" data-name="Grupo 70445" transform="translate(2.393 3.345)">
                  <path id="Trazado_107353" data-name="Trazado 107353" d="M902.471,242.582a.094.094,0,0,1-.047-.012l-8.185-4.726a.1.1,0,0,1-.034-.128.1.1,0,0,1,.129-.034l8.184,4.725a.094.094,0,0,1-.047.175Z" transform="translate(-894.193 -237.669)" fill="#fff"/>
                </g>
              </g>
              <g id="Grupo_70449" data-name="Grupo 70449" transform="translate(11.605)">
                <g id="Grupo_70447" data-name="Grupo 70447">
                  <path id="Trazado_107354" data-name="Trazado 107354" d="M913.728,225.532l5.574,1.507,2.611,3.218-8.184,4.725-8.184-4.725Z" transform="translate(-905.45 -225.438)" fill="#0075a4"/>
                  <path id="Trazado_107355" data-name="Trazado 107355" d="M913.707,235.055a.1.1,0,0,1-.048-.012l-8.184-4.725a.1.1,0,0,1-.047-.082.1.1,0,0,1,.047-.081l8.184-4.725a.09.09,0,0,1,.071-.01l5.574,1.508a.1.1,0,0,1,.048.031l2.61,3.218a.095.095,0,0,1-.025.141l-8.185,4.725A.1.1,0,0,1,913.707,235.055Zm-8-4.819,8,4.617,8.042-4.644-2.523-3.108-5.506-1.49Z" transform="translate(-905.429 -225.417)" fill="#fff"/>
                </g>
                <g id="Grupo_70448" data-name="Grupo 70448" transform="translate(2.393 3.345)">
                  <path id="Trazado_107356" data-name="Trazado 107356" d="M916.625,234.409a.1.1,0,0,1-.047-.012l-8.184-4.726a.094.094,0,0,1-.034-.128.1.1,0,0,1,.128-.034l8.185,4.726a.094.094,0,0,1-.048.175Z" transform="translate(-908.348 -229.496)" fill="#fff"/>
                </g>
              </g>
            </g>
          </g>
          <g id="Grupo_70472" data-name="Grupo 70472" transform="translate(34.786 55.781)">
            <g id="Grupo_70471" data-name="Grupo 70471">
              <g id="Grupo_70469" data-name="Grupo 70469">
                <g id="Grupo_70452" data-name="Grupo 70452" transform="translate(4.818 9.188)">
                  <path id="Trazado_107357" data-name="Trazado 107357" d="M895.093,281.833v.458h.2v-.365Z" transform="translate(-895.093 -281.833)" fill="#161313"/>
                </g>
                <g id="Grupo_70453" data-name="Grupo 70453" transform="translate(0 6.468)">
                  <path id="Trazado_107358" data-name="Trazado 107358" d="M889.217,278.516v.469l.2.071-.1-.54Z" transform="translate(-889.217 -278.516)" fill="#161313"/>
                </g>
                <g id="Grupo_70468" data-name="Grupo 70468">
                  <g id="Grupo_70454" data-name="Grupo 70454" transform="translate(7.03 0.017)">
                    <path id="Trazado_107359" data-name="Trazado 107359" d="M899.338,276.829l4.083-6.027v-.154a1.657,1.657,0,0,0-.987.4c-.408.366-4.643,4.534-4.643,4.534l.991.7-.2.523Z" transform="translate(-897.791 -270.647)" fill="#5f6a73"/>
                  </g>
                  <g id="Grupo_70455" data-name="Grupo 70455" transform="translate(7.03)">
                    <path id="Trazado_107360" data-name="Trazado 107360" d="M899.338,276.672l4.083-6.027a1.237,1.237,0,0,0-.987.248c-.408.366-4.643,4.533-4.643,4.533l.991.7-.2.524Z" transform="translate(-897.791 -270.627)" fill="#d1d1d1"/>
                  </g>
                  <g id="Grupo_70456" data-name="Grupo 70456" transform="translate(5.062 8.299)">
                    <path id="Trazado_107361" data-name="Trazado 107361" d="M895.391,280.8v.407l.385-.462Z" transform="translate(-895.391 -280.749)" fill="#161313"/>
                  </g>
                  <g id="Grupo_70457" data-name="Grupo 70457" transform="translate(9.337 7.666)">
                    <path id="Trazado_107362" data-name="Trazado 107362" d="M900.912,279.977v.527l-.307-.12Z" transform="translate(-900.605 -279.977)" fill="#161313"/>
                  </g>
                  <g id="Grupo_70458" data-name="Grupo 70458" transform="translate(6.333 1.402)">
                    <path id="Trazado_107363" data-name="Trazado 107363" d="M896.941,275.808l9.583-3.471s.275.394-.278.691-6.907,3.439-6.907,3.439l-1.371-.439-.856.209Z" transform="translate(-896.941 -272.337)" fill="#5f6a73"/>
                  </g>
                  <g id="Grupo_70459" data-name="Grupo 70459" transform="translate(6.333 1.363)">
                    <path id="Trazado_107364" data-name="Trazado 107364" d="M896.941,275.673l9.553-3.384s.305.307-.248.6-6.907,3.439-6.907,3.439l-1.371-.439-.856.208Z" transform="translate(-896.941 -272.289)" fill="#e1e1e1"/>
                  </g>
                  <g id="Grupo_70460" data-name="Grupo 70460" transform="translate(7.966 4.344)">
                    <path id="Trazado_107365" data-name="Trazado 107365" d="M899.084,276.433a.8.8,0,0,0,.728,0,.222.222,0,0,0,0-.421.808.808,0,0,0-.728,0A.222.222,0,0,0,899.084,276.433Z" transform="translate(-898.933 -275.925)" fill="#5f6a73"/>
                  </g>
                  <g id="Grupo_70461" data-name="Grupo 70461" transform="translate(7.966 4.212)">
                    <ellipse id="Elipse_4476" data-name="Elipse 4476" cx="0.515" cy="0.297" rx="0.515" ry="0.297" fill="#d1d1d1"/>
                  </g>
                  <g id="Grupo_70463" data-name="Grupo 70463" transform="translate(8.166 4.345)">
                    <g id="Grupo_70462" data-name="Grupo 70462">
                      <path id="Trazado_107366" data-name="Trazado 107366" d="M899.243,276.228a.069.069,0,0,0,.022,0l.487-.171a.066.066,0,0,0-.044-.125l-.487.171a.066.066,0,0,0,.022.129Z" transform="translate(-899.177 -275.926)" fill="#5f6a73"/>
                    </g>
                  </g>
                  <g id="Grupo_70464" data-name="Grupo 70464" transform="translate(4.818 5.948)">
                    <path id="Trazado_107367" data-name="Trazado 107367" d="M897.407,282.289a4.311,4.311,0,0,0,2.255-1.4,1.016,1.016,0,0,0-.3-1.591c-.2-.083-.657-.264-.543-.494a2.131,2.131,0,0,1,.343-.462v-.462l-1.3.371-1.9,2.052-.243.008-.385.437.157.09s-.8.726-.143,1.2A2.915,2.915,0,0,0,897.407,282.289Zm-.348-2.1a3.621,3.621,0,0,1,.826-.669s.977-.234,1.163.573-1.406,1.553-1.406,1.553a2.154,2.154,0,0,1-1.427.173C895.671,281.618,896.5,280.724,897.06,280.194Z" transform="translate(-895.093 -277.881)" fill="#161313"/>
                  </g>
                  <g id="Grupo_70465" data-name="Grupo 70465" transform="translate(0 4.86)">
                    <path id="Trazado_107368" data-name="Trazado 107368" d="M890.1,279.566a3.009,3.009,0,0,0,2-.338l.188.069.656-.311-.038-.139,3.065-1.509v-.462l-.431-.252a4.888,4.888,0,0,1-.708.292,1.337,1.337,0,0,1-.953-.2,3.994,3.994,0,0,0-2.755.171,3.082,3.082,0,0,0-1.888,1.572C889.184,278.618,889.15,279.3,890.1,279.566Zm.184-.534c-.517-.293-.012-.842-.012-.842a3.61,3.61,0,0,1,2.328-1.126c1.406-.068,1.218.534,1.218.534a4.336,4.336,0,0,1-.955.609C892.083,278.637,890.749,279.3,890.284,279.033Z" transform="translate(-889.217 -276.554)" fill="#161313"/>
                  </g>
                  <g id="Grupo_70466" data-name="Grupo 70466" transform="translate(4.818 5.857)">
                    <path id="Trazado_107369" data-name="Trazado 107369" d="M897.407,281.808a4.306,4.306,0,0,0,2.255-1.4,1.016,1.016,0,0,0-.3-1.591c-.2-.083-.657-.264-.543-.494a2.129,2.129,0,0,1,.343-.462l-1.3-.091-1.9,2.052-.243.008-.385.437.157.09s-.8.726-.143,1.2A2.915,2.915,0,0,0,897.407,281.808Zm-.348-2.1a3.643,3.643,0,0,1,.826-.669s.977-.235,1.163.573-1.406,1.554-1.406,1.554a2.16,2.16,0,0,1-1.427.173C895.671,281.136,896.5,280.243,897.06,279.712Z" transform="translate(-895.093 -277.77)" fill="#354645"/>
                  </g>
                  <g id="Grupo_70467" data-name="Grupo 70467" transform="translate(0 4.399)">
                    <path id="Trazado_107370" data-name="Trazado 107370" d="M890.1,279a3.009,3.009,0,0,0,2-.338l.188.069.656-.311-.038-.139,3.065-1.509-.431-.713a4.886,4.886,0,0,1-.708.292,1.336,1.336,0,0,1-.953-.2,3.991,3.991,0,0,0-2.755.171,3.082,3.082,0,0,0-1.888,1.571C889.184,278.056,889.15,278.735,890.1,279Zm.184-.534c-.517-.293-.012-.842-.012-.842A3.614,3.614,0,0,1,892.6,276.5c1.406-.068,1.218.534,1.218.534a4.337,4.337,0,0,1-.955.609C892.083,278.075,890.749,278.733,890.284,278.47Z" transform="translate(-889.217 -275.992)" fill="#354645"/>
                  </g>
                </g>
              </g>
              <g id="Grupo_70470" data-name="Grupo 70470" transform="translate(3.074 6.831)">
                <path id="Trazado_107371" data-name="Trazado 107371" d="M893.623,278.958v.461l-.656.311v-.461Z" transform="translate(-892.967 -278.958)" fill="#161313"/>
              </g>
            </g>
          </g>
        </g>
      </g>
    </g>
  </g>
</svg>
