<svg xmlns="http://www.w3.org/2000/svg" width="118" height="118" viewBox="0 0 118 118">
  <g id="Grupo_1052744" data-name="Grupo 1052744" transform="translate(-241 -4944)">
    <g id="Grupo_1052740" data-name="Grupo 1052740" transform="translate(168 896)">
      <circle id="Elipse_8038" data-name="Elipse 8038" cx="59" cy="59" r="59" transform="translate(73 4048)" fill="#9b1f36"/>
    </g>
    <g id="bombilla" transform="translate(251.371 4956.983)">
      <g id="Grupo_1052742" data-name="Grupo 1052742" transform="translate(6.963 0)">
        <path id="Trazado_773768" data-name="Trazado 773768" d="M222.369,460.583V462.8a5.321,5.321,0,0,1-.031.58,5.225,5.225,0,0,1-5.191,4.643h-8.008a5.225,5.225,0,0,1-5.191-4.643,5.313,5.313,0,0,1-.031-.58v-2.219a5.544,5.544,0,0,0,2.263.479h13.926A5.544,5.544,0,0,0,222.369,460.583Z" transform="translate(-169.632 -380.406)" fill="#50758d"/>
        <g id="Grupo_1052741" data-name="Grupo 1052741" transform="translate(0 0)">
          <path id="Trazado_773769" data-name="Trazado 773769" d="M249.223,11.413a1.305,1.305,0,0,1-1.306-1.306v-8.8a1.306,1.306,0,1,1,2.611,0v8.8A1.305,1.305,0,0,1,249.223,11.413Z" transform="translate(-205.972 0)" fill="#ffe7c9"/>
          <path id="Trazado_773770" data-name="Trazado 773770" d="M85.066,79.409a1.3,1.3,0,0,1-.923-.382L77.919,72.8a1.306,1.306,0,0,1,1.846-1.846l6.224,6.224a1.305,1.305,0,0,1-.923,2.229Z" transform="translate(-65.251 -58.289)" fill="#ffe7c9"/>
          <path id="Trazado_773771" data-name="Trazado 773771" d="M17.071,243.564h-8.8a1.306,1.306,0,1,1,0-2.611h8.8a1.306,1.306,0,0,1,0,2.611Z" transform="translate(-6.963 -199.009)" fill="#ffe7c9"/>
          <path id="Trazado_773772" data-name="Trazado 773772" d="M78.842,384.415a1.306,1.306,0,0,1-.923-2.229l6.224-6.224a1.306,1.306,0,0,1,1.846,1.846l-6.224,6.224A1.3,1.3,0,0,1,78.842,384.415Z" transform="translate(-65.251 -310.2)" fill="#ffe7c9"/>
          <path id="Trazado_773773" data-name="Trazado 773773" d="M390.071,384.415a1.3,1.3,0,0,1-.923-.382l-6.224-6.224a1.306,1.306,0,0,1,1.846-1.846l6.224,6.224a1.306,1.306,0,0,1-.923,2.229Z" transform="translate(-317.162 -310.2)" fill="#ffe7c9"/>
          <path id="Trazado_773774" data-name="Trazado 773774" d="M448.414,243.564h-8.8a1.306,1.306,0,0,1,0-2.611h8.8a1.306,1.306,0,1,1,0,2.611Z" transform="translate(-363.22 -199.009)" fill="#ffe7c9"/>
          <path id="Trazado_773775" data-name="Trazado 773775" d="M383.847,79.409a1.305,1.305,0,0,1-.923-2.229l6.224-6.224a1.306,1.306,0,0,1,1.846,1.846l-6.224,6.224A1.3,1.3,0,0,1,383.847,79.409Z" transform="translate(-317.162 -58.289)" fill="#ffe7c9"/>
        </g>
        <path id="Trazado_773776" data-name="Trazado 773776" d="M213.143,453.333s-8.535,1.57-9.226,1.262v2.219a5.314,5.314,0,0,0,.031.58,5.225,5.225,0,0,0,5.191,4.643H211.4a5.225,5.225,0,0,1-4.923-3.475.524.524,0,0,1,.491-.7h13.135a5.542,5.542,0,0,0,2.232-.465,5.322,5.322,0,0,0,.031-.58V454.6C221.678,454.9,213.143,453.333,213.143,453.333Z" transform="translate(-169.632 -374.418)" fill="#2b597f"/>
        <path id="Trazado_773777" data-name="Trazado 773777" d="M209.522,383.429a5.566,5.566,0,0,1-5.57,5.57H190.025a5.566,5.566,0,0,1-5.57-5.57s-.082-8.136-.1-8.349v-.007l12.631-1.741,12.487,1.741Z" transform="translate(-153.477 -308.344)" fill="#50758d"/>
        <path id="Trazado_773778" data-name="Trazado 773778" d="M194.377,397.259h-4.352a5.566,5.566,0,0,1-5.57-5.57s-.082-8.136-.1-8.349v-.007h4.352v.007c.016.212.1,8.349.1,8.349a5.566,5.566,0,0,0,5.57,5.57Z" transform="translate(-153.477 -316.604)" fill="#2b597f"/>
        <path id="Trazado_773779" data-name="Trazado 773779" d="M301.662,418.444h-4.439a1.306,1.306,0,1,1,0-2.611h4.425l.007,1.306Z" transform="translate(-245.617 -343.446)" fill="#2b597f"/>
        <path id="Trazado_773780" data-name="Trazado 773780" d="M200.609,417.139a1.306,1.306,0,0,1-1.306,1.306H184.767l-.03-2.611H199.3A1.306,1.306,0,0,1,200.609,417.139Z" transform="translate(-153.791 -343.446)" fill="#2b597f"/>
        <path id="Trazado_773781" data-name="Trazado 773781" d="M139.247,90.488h0C125.8,90.28,114.5,102,114.739,115.344a24.97,24.97,0,0,0,7.066,17.469c2.575,2.648,4.8,5.1,5.05,8.65l25.118.042c.141-3.659,2.221-6.131,4.813-8.838a24.967,24.967,0,0,0,6.925-17.322A24.673,24.673,0,0,0,139.247,90.488Z" transform="translate(-95.974 -74.733)" fill="#fad207"/>
        <path id="Trazado_773782" data-name="Trazado 773782" d="M151.971,141.5v.007l-25.118-.042c-.247-3.555-2.475-6-5.05-8.65a24.97,24.97,0,0,1-7.066-17.469C114.5,102,125.8,90.283,139.246,90.49c.679,0,1.351.03,2.016.084a24.988,24.988,0,0,0-15.106,42.242c2.575,2.648,4.8,5.1,5.05,8.65Z" transform="translate(-95.974 -74.736)" fill="#faa515"/>
        <path id="Trazado_773783" data-name="Trazado 773783" d="M195.739,212.574a2.871,2.871,0,0,1-2.161,1.109l-.107,0a2.872,2.872,0,0,1-2.131-.946l-8.182-9.052a2.872,2.872,0,0,1,4.262-3.852l5.884,6.51,9.387-12.09a2.872,2.872,0,1,1,4.537,3.523Z" transform="translate(-151.874 -159.522)" fill="#faa515"/>
      </g>
      <g id="Grupo_1052743" data-name="Grupo 1052743" transform="translate(6.963 0)">
        <path id="Trazado_773784" data-name="Trazado 773784" d="M249.223,11.413a1.305,1.305,0,0,0,1.306-1.306v-8.8a1.306,1.306,0,1,0-2.611,0v8.8A1.305,1.305,0,0,0,249.223,11.413Z" transform="translate(-205.972 0)"/>
        <path id="Trazado_773785" data-name="Trazado 773785" d="M84.143,79.027a1.306,1.306,0,1,0,1.846-1.846l-6.224-6.224A1.306,1.306,0,0,0,77.919,72.8Z" transform="translate(-65.251 -58.289)"/>
        <path id="Trazado_773786" data-name="Trazado 773786" d="M17.071,240.953h-8.8a1.306,1.306,0,1,0,0,2.611h8.8a1.306,1.306,0,0,0,0-2.611Z" transform="translate(-6.963 -199.009)"/>
        <path id="Trazado_773787" data-name="Trazado 773787" d="M84.143,375.962l-6.224,6.224a1.306,1.306,0,0,0,1.846,1.846l6.224-6.224a1.306,1.306,0,0,0-1.846-1.846Z" transform="translate(-65.251 -310.2)"/>
        <path id="Trazado_773788" data-name="Trazado 773788" d="M384.771,375.961a1.306,1.306,0,0,0-1.846,1.846l6.224,6.224A1.306,1.306,0,0,0,391,382.185Z" transform="translate(-317.163 -310.199)"/>
        <path id="Trazado_773789" data-name="Trazado 773789" d="M448.414,240.953h-8.8a1.306,1.306,0,0,0,0,2.611h8.8a1.306,1.306,0,1,0,0-2.611Z" transform="translate(-363.22 -199.009)"/>
        <path id="Trazado_773790" data-name="Trazado 773790" d="M389.149,70.956l-6.224,6.224a1.306,1.306,0,0,0,1.846,1.846L391,72.8a1.306,1.306,0,0,0-1.846-1.846Z" transform="translate(-317.163 -58.289)"/>
        <path id="Trazado_773791" data-name="Trazado 773791" d="M158.838,109.163A26.008,26.008,0,0,0,133.047,83a25.436,25.436,0,0,0-13.983,4.175,26.106,26.106,0,0,0-9.343,10.811,1.306,1.306,0,1,0,2.366,1.1,23.126,23.126,0,0,1,44.14,10.073,23.623,23.623,0,0,1-6.563,16.42c-2.439,2.548-4.516,4.982-5.05,8.393H121.821c-.673-3.541-3.088-6.025-5.259-8.256a23.6,23.6,0,0,1-6.7-16.557,24.122,24.122,0,0,1,.438-4.58,1.306,1.306,0,1,0-2.563-.5,26.724,26.724,0,0,0-.486,5.077,26.2,26.2,0,0,0,7.435,18.378c2.754,2.83,4.7,5.089,4.7,8.4,0,.012,0,.023,0,.035l.075,7.662a6.879,6.879,0,0,0,3.307,5.875v1.436a6.535,6.535,0,0,0,6.528,6.528h8.008a6.535,6.535,0,0,0,6.528-6.528v-1.436a6.879,6.879,0,0,0,3.307-5.875s-.009-8.534-.027-8.619c.248-3.026,2.082-5.177,4.43-7.629A26.224,26.224,0,0,0,158.838,109.163Zm-17.61,41.785a3.921,3.921,0,0,1-3.917,3.917H129.3a3.921,3.921,0,0,1-3.917-3.917v-.5a6.894,6.894,0,0,0,.957.068h13.926a6.925,6.925,0,0,0,.957-.068Zm-.957-3.046H126.345a4.27,4.27,0,0,1-4.265-4.265v-.087h13.23a1.306,1.306,0,0,0,0-2.611H122.08v-4.352H144.5l.04,4.352H141.4a1.306,1.306,0,0,0,0,2.611h3.133v.087A4.27,4.27,0,0,1,140.271,147.9Z" transform="translate(-89.797 -68.552)"/>
        <path id="Trazado_773792" data-name="Trazado 773792" d="M197.416,194.105a1.305,1.305,0,0,0,2.062,1.6l2.585-3.329a4.178,4.178,0,0,0-6.6-5.124l-8.432,10.86-4.839-5.354a4.178,4.178,0,0,0-6.2,5.6l8.182,9.052a4.2,4.2,0,0,0,6.4-.239l5.167-6.655a1.306,1.306,0,0,0-2.062-1.6l-5.167,6.655a1.576,1.576,0,0,1-2.4.09l-8.182-9.052a1.567,1.567,0,1,1,2.325-2.1l5.884,6.51a1.315,1.315,0,0,0,2-.075l9.387-12.09A1.567,1.567,0,1,1,200,190.777Z" transform="translate(-145.678 -153.322)"/>
      </g>
    </g>
  </g>
</svg>
