<svg xmlns="http://www.w3.org/2000/svg" width="1030" height="65" viewBox="0 0 1030 65">
  <g id="Grupo_1052745" data-name="Grupo 1052745" transform="translate(-289 -667)">
    <g id="Grupo_1043410" data-name="Grupo 1043410" transform="translate(-28 -136.062)">
      <path id="Trazado_773688" data-name="Trazado 773688" d="M0,0H1030V38.469C1030,53.122,1012.091,65,990,65H40C17.909,65,0,53.122,0,38.469Z" transform="translate(317 803.062)" fill="#fad1d9"/>
    </g>
    <g id="Grupo_78243" data-name="Grupo 78243" transform="translate(0.5 -123.104)">
      <line id="Línea_334" data-name="Línea 334" x1="315" transform="translate(338.5 853.5)" fill="none" stroke="#707070" stroke-width="2" stroke-dasharray="3 3"/>
      <g id="Grupo_70740" data-name="Grupo 70740" transform="translate(351.136 813.104)">
        <g id="Grupo_70163" data-name="Grupo 70163">
          <path id="Trazado_106989" data-name="Trazado 106989" d="M24.326,298.391a16.116,16.116,0,0,0,11.486,1.83c4.2-.376,4.444-.822,9.74-.982a13.925,13.925,0,0,1,10.75,4.668c.382.409.764.789,1.147,1.151,4.318-4.059,8.708-5.272,13.835-5.807-2.107-.328-4.188-.619-6.22-.866a31.983,31.983,0,0,1-12.468-5.61,29.884,29.884,0,0,1-6.392-7.454,15.842,15.842,0,0,0-7.95-11.275c-7.365-4.213-16.48-2.18-20.321,4.531a12.887,12.887,0,0,0-1.65,5.22h0a15.428,15.428,0,0,0,8.043,14.594Zm-1.164-16.366c2.417-4.224,8.14-5.494,12.782-2.839q.423.243.816.517c3.948,2.831,5.359,7.931,3.11,11.863-2.416,4.224-8.139,5.495-12.781,2.838-.283-.161-.554-.334-.816-.518C22.325,291.056,20.914,285.955,23.162,282.025Z" transform="translate(-16.222 -271.85)" fill="#ff8a5b"/>
        </g>
        <g id="Grupo_70164" data-name="Grupo 70164" transform="translate(35.719 26.404)">
          <path id="Trazado_106990" data-name="Trazado 106990" d="M121.949,300.9a.324.324,0,0,0-.122-.254l.062-.018c.135-1.15-10.13-3.972-39.1-1.174-4.387.423-8.219.476-11.709.839-5.129.535-9.519,1.749-13.837,5.807-.328.31-.656.629-.984.971a15.051,15.051,0,0,1-4.314,3.176h29.6c6.594-1.193,13.114-2.581,18.928-3.916C112.793,303.5,121.949,300.9,121.949,300.9Zm-56.071,8.218a2.909,2.909,0,1,1,3.169-2.622,2.909,2.909,0,0,1-3.169,2.622Z" transform="translate(-51.942 -298.255)" fill="#ff8a5b"/>
        </g>
        <g id="Grupo_70165" data-name="Grupo 70165" transform="translate(47.602 32.059)">
          <path id="Trazado_106991" data-name="Trazado 106991" d="M63.835,306a2.326,2.326,0,0,0,1.639,2.446l.429-4.539A2.322,2.322,0,0,0,63.835,306Z" transform="translate(-63.824 -303.909)" fill="#ff8a5b"/>
        </g>
        <g id="Grupo_70166" data-name="Grupo 70166" transform="translate(50.178 32.146)">
          <path id="Trazado_106992" data-name="Trazado 106992" d="M66.829,304l-.428,4.54a2.327,2.327,0,0,0,.428-4.54Z" transform="translate(-66.401 -303.996)" fill="#ff8a5b"/>
        </g>
      </g>
    </g>
    <g id="Grupo_78243-2" data-name="Grupo 78243" transform="translate(928 690)">
      <line id="Línea_334-2" data-name="Línea 334" x2="315" transform="translate(0 40.396)" fill="none" stroke="#707070" stroke-width="2" stroke-dasharray="3 3"/>
      <g id="Grupo_70740-2" data-name="Grupo 70740" transform="translate(196.638 0)">
        <g id="Grupo_70163-2" data-name="Grupo 70163" transform="translate(50.664 0)">
          <path id="Trazado_106989-2" data-name="Trazado 106989" d="M63.206,298.391a16.116,16.116,0,0,1-11.486,1.83c-4.2-.376-4.444-.822-9.74-.982a13.925,13.925,0,0,0-10.75,4.668c-.382.409-.764.789-1.147,1.151-4.318-4.059-8.708-5.272-13.835-5.807,2.107-.328,4.188-.619,6.22-.866a31.983,31.983,0,0,0,12.468-5.61,29.885,29.885,0,0,0,6.392-7.454,15.842,15.842,0,0,1,7.95-11.275c7.365-4.213,16.48-2.18,20.321,4.531a12.887,12.887,0,0,1,1.65,5.22h0a15.428,15.428,0,0,1-8.043,14.594Zm1.164-16.366c-2.417-4.224-8.14-5.494-12.782-2.839q-.423.243-.816.517c-3.948,2.831-5.359,7.931-3.11,11.863,2.416,4.224,8.139,5.495,12.781,2.838.283-.161.554-.334.816-.518C65.207,291.056,66.618,285.955,64.37,282.025Z" transform="translate(-16.248 -271.85)" fill="#ff8a5b"/>
        </g>
        <g id="Grupo_70164-2" data-name="Grupo 70164" transform="translate(0 26.403)">
          <path id="Trazado_106990-2" data-name="Trazado 106990" d="M51.945,300.9a.324.324,0,0,1,.122-.254L52,300.628c-.135-1.15,10.13-3.972,39.1-1.174,4.387.423,8.219.476,11.709.839,5.129.535,9.519,1.749,13.837,5.807.328.31.656.629.984.971a15.051,15.051,0,0,0,4.314,3.176h-29.6c-6.594-1.193-13.114-2.581-18.928-3.916C61.1,303.5,51.945,300.9,51.945,300.9Zm56.071,8.218a2.909,2.909,0,1,0-3.169-2.622,2.909,2.909,0,0,0,3.169,2.622Z" transform="translate(-51.945 -298.255)" fill="#ff8a5b"/>
        </g>
        <g id="Grupo_70165-2" data-name="Grupo 70165" transform="translate(56.045 32.057)">
          <path id="Trazado_106991-2" data-name="Trazado 106991" d="M65.892,306a2.326,2.326,0,0,1-1.639,2.446l-.429-4.539A2.322,2.322,0,0,1,65.892,306Z" transform="translate(-63.824 -303.907)" fill="#ff8a5b"/>
        </g>
        <g id="Grupo_70166-2" data-name="Grupo 70166" transform="translate(53.47 32.15)">
          <path id="Trazado_106992-2" data-name="Trazado 106992" d="M68.051,304l.428,4.54a2.327,2.327,0,0,1-.428-4.54Z" transform="translate(-66.401 -304)" fill="#ff8a5b"/>
        </g>
      </g>
    </g>
  </g>
</svg>
