<svg xmlns="http://www.w3.org/2000/svg" xmlns:xlink="http://www.w3.org/1999/xlink" width="1030" height="61" viewBox="0 0 1030 61">
  <defs>
    <clipPath id="clip-path">
      <rect id="Rectángulo_8823" data-name="Rectángulo 8823" width="78.513" height="51.165" fill="#fff" stroke="#707070" stroke-width="1"/>
    </clipPath>
    <clipPath id="clip-path-2">
      <rect id="Rectángulo_8823-2" data-name="Rectángulo 8823" width="79.253" height="51.648" fill="#fff" stroke="#707070" stroke-width="1"/>
    </clipPath>
  </defs>
  <g id="Grupo_1052763" data-name="Grupo 1052763" transform="translate(117 11039)">
    <path id="Rectángulo_356149" data-name="Rectángulo 356149" d="M0,0H1030a0,0,0,0,1,0,0V21a40,40,0,0,1-40,40H40A40,40,0,0,1,0,21V0A0,0,0,0,1,0,0Z" transform="translate(-117 -11039)" fill="#fad1d9"/>
    <g id="Grupo_78248" data-name="Grupo 78248" transform="translate(-2775.5 -114)">
      <line id="Línea_349" data-name="Línea 349" x1="213" transform="translate(2734.5 -10865.5)" fill="none" stroke="#707070" stroke-width="2" stroke-dasharray="3 3"/>
      <g id="Enmascarar_grupo_83" data-name="Enmascarar grupo 83" transform="translate(2742 -10915.165)" clip-path="url(#clip-path)">
        <g id="hand-saw" transform="translate(32.525 -17.555) rotate(33.007)">
          <path id="Trazado_107993" data-name="Trazado 107993" d="M34.974,6.769h3.385a12.275,12.275,0,0,0,2.008,6.769H6.769A6.769,6.769,0,1,1,6.769,0H12.41V3.385H25.949V0H37.757A14.579,14.579,0,0,0,36.1,6.769Z" transform="translate(1.127 34.973)" fill="#ffaf46"/>
          <path id="Sustracción_4" data-name="Sustracción 4" d="M4.511,14.667H0A14.65,14.65,0,0,1,5.641,3.116,13.8,13.8,0,0,1,10.153.722,14.277,14.277,0,0,1,14.644,0h.024A14.672,14.672,0,0,1,29,11.548l-4.187,2.72a10.153,10.153,0,1,0-20.3.4Z" transform="translate(37.231 27.075)" fill="#bebec2"/>
          <path id="Sustracción_5" data-name="Sustracción 5" d="M5.78,20.842h0A12.41,12.41,0,0,1,0,10.354H2.256a10.153,10.153,0,1,1,20.3-.4L5.781,20.842h0ZM12.41,6.966A3.385,3.385,0,1,0,15.8,10.35,3.385,3.385,0,0,0,12.41,6.966Z" transform="translate(39.487 31.39)" fill="#e7e7e8"/>
          <ellipse id="Elipse_4529" data-name="Elipse 4529" cx="3.433" cy="3.188" rx="3.433" ry="3.188" transform="translate(48.561 38.602)" fill="#96949c"/>
          <path id="Trazado_107996" data-name="Trazado 107996" d="M13.539,0H0V3.385H13.539Z" transform="translate(13.538 34.973)" fill="#ffaf46"/>
          <path id="Trazado_107997" data-name="Trazado 107997" d="M0,0H4.513V4.106A13.883,13.883,0,0,0,0,6.5Z" transform="translate(42.871 23.691)" fill="#e7e7e8"/>
          <path id="Trazado_107998" data-name="Trazado 107998" d="M0,22.564l1.128-2.241V2.457L0,0H9.025L7.9,2.457V20.307l1.128,2.257H0Z" transform="translate(40.615 1.127)" fill="#96949c"/>
          <path id="Sustracción_6" data-name="Sustracción 6" d="M44.248,52.9h0a13.449,13.449,0,0,1-3.317-3.257H7.9a7.9,7.9,0,1,1,0-15.792l30.346,0a15.622,15.622,0,0,1,3.5-4.174V24.822H40.616a1.126,1.126,0,0,1-1.007-1.639l1.008-2V3.836L39.588,1.6a1.132,1.132,0,0,1,.55-1.5,1.147,1.147,0,0,1,.478-.1h9.025a1.129,1.129,0,0,1,1.127,1.127,1.141,1.141,0,0,1-.1.472L49.641,3.836V21.172l1.008,2.016a1.131,1.131,0,0,1-.505,1.513,1.147,1.147,0,0,1-.5.117h-1.13v1.507a15.682,15.682,0,0,1,13.2,3.051,15.886,15.886,0,0,1,5.522,8.594L65.21,39.284A13.556,13.556,0,0,0,51.9,28.2H51.87a13.147,13.147,0,0,0-4.148.671,12.716,12.716,0,0,0-4.159,2.2,13.578,13.578,0,0,0-5.16,9.527h2.27a11.286,11.286,0,0,1,11.211-10.15c.374,0,.757.019,1.14.057a11.292,11.292,0,0,1,10.1,10.1h.037L60.92,42.068v-.326a9.026,9.026,0,0,0-18.052,0v1.131H40.694c0,.037.006.075.008.113V43a1.549,1.549,0,0,0,.012.164c.018.148.044.3.07.441v.011l.014.081c.055.321.123.637.208.962.046.169.1.353.151.529.1.308.221.629.362.955.026.059.049.119.073.176.031.078.07.176.113.265a11.174,11.174,0,0,0,.726,1.287l.012.021a11.292,11.292,0,0,0,3.882,3.657L44.257,52.9Zm-39.7-6.64h0A5.587,5.587,0,0,0,7.9,47.384H39.584a.431.431,0,0,1-.018-.042l-.014-.036c-.009-.023-.018-.047-.028-.07-.138-.308-.248-.578-.338-.828-.03-.083-.058-.168-.082-.24l-.04-.119c-.067-.2-.144-.441-.208-.678-.035-.129-.072-.265-.1-.4-.05-.207-.1-.424-.148-.682l-.008-.045h0c-.021-.118-.041-.229-.06-.344-.041-.245-.069-.49-.1-.781a.6.6,0,0,0-.013-.1v-.009c-.006-.042-.013-.088-.017-.136H36.1V40.613h.053v-.056c.012-.161.027-.344.047-.52s.042-.322.066-.477l.005-.035c.055-.391.129-.794.225-1.221.041-.184.078-.353.122-.52.123-.479.272-.962.441-1.436.011-.031.021-.063.032-.1s.02-.066.033-.1a.088.088,0,0,1,.014-.041V36.1H28.2v2.256a1.129,1.129,0,0,1-1.127,1.127H13.538a1.129,1.129,0,0,1-1.127-1.127V36.1H7.9a5.669,5.669,0,0,0-5.528,4.51H5.64a1.129,1.129,0,0,1,0,2.257H2.369a5.426,5.426,0,0,0,.45,1.3A1.105,1.105,0,0,1,3.385,44H7.9a1.129,1.129,0,1,1,0,2.258H4.545ZM14.665,36.1v1.125H25.949V36.1ZM44,24.819v3.234c.049-.027.1-.054.152-.079l.112-.056c.164-.094.332-.176.494-.265l.013-.007c.213-.106.434-.21.678-.318.176-.077.347-.151.529-.228l.106-.045c.057-.026.116-.052.176-.072V24.819ZM42.376,2.256l.393.86a1.105,1.105,0,0,1,.1.471V21.451a1.147,1.147,0,0,1-.12.508l-.306.606h5.367l-.313-.625a1.147,1.147,0,0,1-.117-.5V3.586a1.133,1.133,0,0,1,.1-.471l.393-.86Zm9.52,44a4.513,4.513,0,1,1,4.513-4.513A4.513,4.513,0,0,1,51.9,46.256Zm0-6.771a2.257,2.257,0,1,0,2.257,2.258A2.257,2.257,0,0,0,51.9,39.486Z" transform="translate(0 0)" fill="#024b68"/>
        </g>
      </g>
    </g>
    <g id="Grupo_78248-2" data-name="Grupo 78248" transform="translate(636 -11036)">
      <line id="Línea_349-2" data-name="Línea 349" x2="213" transform="translate(0 56.5)" fill="none" stroke="#707070" stroke-width="2" stroke-dasharray="3 3"/>
      <g id="Enmascarar_grupo_83-2" data-name="Enmascarar grupo 83" transform="translate(116.5 6.352)" clip-path="url(#clip-path-2)">
        <g id="hand-saw-2" data-name="hand-saw" transform="translate(75.522 27.079) rotate(146.993)">
          <path id="Trazado_107993-2" data-name="Trazado 107993" d="M35.321,6.836h3.418A12.4,12.4,0,0,1,40.767,0H6.836a6.836,6.836,0,0,0,0,13.672h5.7V10.253H26.206v3.418H38.131a14.724,14.724,0,0,1-1.675-6.836Z" transform="translate(1.139 4.429)" fill="#ffaf46"/>
          <path id="Sustracción_4-2" data-name="Sustracción 4" d="M4.556,0H0A14.8,14.8,0,0,0,5.7,11.666a13.934,13.934,0,0,0,4.557,2.418,14.419,14.419,0,0,0,4.536.729h.024A14.818,14.818,0,0,0,29.287,3.15L25.059.4A10.252,10.252,0,0,1,14.606,10.456,10.255,10.255,0,0,1,4.555,0Z" transform="translate(37.6 11.265)" fill="#bebec2"/>
          <path id="Sustracción_5-2" data-name="Sustracción 5" d="M5.837,0h0A12.533,12.533,0,0,0,0,10.592H2.278a10.253,10.253,0,1,0,20.5.4L5.838,0h0Zm6.7,14.014A3.418,3.418,0,1,1,15.952,10.6a3.418,3.418,0,0,1-3.418,3.418Z" transform="translate(39.878 0.671)" fill="#e7e7e8"/>
          <ellipse id="Elipse_4529-2" data-name="Elipse 4529" cx="3.467" cy="3.22" rx="3.467" ry="3.22" transform="translate(49.043 7.997)" fill="#96949c"/>
          <path id="Trazado_107996-2" data-name="Trazado 107996" d="M13.673,3.418H0V0H13.673Z" transform="translate(13.672 14.682)" fill="#ffaf46"/>
          <path id="Trazado_107997-2" data-name="Trazado 107997" d="M0,6.562H4.558V2.415A14.02,14.02,0,0,1,0,0Z" transform="translate(43.296 22.932)" fill="#e7e7e8"/>
          <path id="Trazado_107998-2" data-name="Trazado 107998" d="M0,0,1.139,2.263V20.306L0,22.788H9.115L7.975,20.306V2.279L9.115,0H0Z" transform="translate(41.017 29.494)" fill="#96949c"/>
          <path id="Sustracción_6-2" data-name="Sustracción 6" d="M44.687,0h0a13.583,13.583,0,0,0-3.35,3.289H7.975a7.975,7.975,0,1,0,0,15.949l30.647,0a15.777,15.777,0,0,0,3.532,4.216v4.9H41.018A1.137,1.137,0,0,0,40,30.008l1.018,2.021V49.547L39.98,51.8a1.143,1.143,0,0,0,.555,1.513,1.158,1.158,0,0,0,.483.1h9.115a1.14,1.14,0,0,0,1.139-1.139,1.152,1.152,0,0,0-.1-.477l-1.034-2.258V32.039L51.152,30a1.142,1.142,0,0,0-.51-1.528,1.158,1.158,0,0,0-.508-.118H48.992V26.835a15.838,15.838,0,0,0,13.332-3.082A16.044,16.044,0,0,0,67.9,15.074l-2.044-1.327A13.691,13.691,0,0,1,52.41,24.937h-.026A13.277,13.277,0,0,1,48.2,24.26a12.842,12.842,0,0,1-4.2-2.227,13.713,13.713,0,0,1-5.211-9.622h2.292A11.4,11.4,0,0,0,52.4,22.662c.378,0,.764-.02,1.151-.058a11.4,11.4,0,0,0,10.2-10.2h.037l-2.265-1.47v.329a9.115,9.115,0,0,1-18.231,0V10.123H41.1c0-.037.006-.076.008-.114V9.992a1.565,1.565,0,0,1,.012-.166c.018-.15.045-.3.07-.445V9.37l.014-.082c.055-.324.124-.643.21-.972.046-.171.1-.356.152-.535.1-.311.224-.635.365-.965.026-.06.05-.12.074-.178.031-.078.07-.178.114-.267a11.285,11.285,0,0,1,.733-1.3l.012-.021a11.4,11.4,0,0,1,3.92-3.694L44.7,0ZM4.59,6.706h0A5.642,5.642,0,0,1,7.975,5.567h32a.436.436,0,0,0-.018.043l-.014.037c-.009.023-.018.047-.029.07-.139.311-.25.584-.341.837-.03.084-.059.169-.083.242l-.04.12c-.068.206-.145.445-.21.684-.036.13-.073.267-.1.4-.051.209-.1.429-.15.689l-.008.045h0c-.021.119-.042.232-.061.347-.041.248-.069.494-.1.788a.6.6,0,0,1-.013.1v.009c-.006.043-.013.089-.017.137H36.46v2.287h.053v.057c.012.163.028.347.047.526s.043.325.067.482l.005.036c.055.395.13.8.227,1.233.041.186.078.356.123.525.124.484.274.972.445,1.45.012.031.021.063.032.1s.02.067.033.1a.089.089,0,0,0,.014.042v.007H28.484V14.682a1.14,1.14,0,0,0-1.139-1.139H13.672a1.14,1.14,0,0,0-1.139,1.139V16.96H7.975a5.725,5.725,0,0,1-5.582-4.555H5.7a1.14,1.14,0,0,0,0-2.28h-3.3a5.48,5.48,0,0,1,.454-1.311,1.116,1.116,0,0,0,.571.172H7.975a1.14,1.14,0,1,0,0-2.281H4.59ZM14.81,16.96V15.824h11.4V16.96Zm29.624,11.4V25.09c.05.028.1.054.153.079l.113.056c.166.094.335.178.5.267l.013.007c.215.107.438.212.684.322.178.078.35.152.535.23l.107.045c.058.026.117.053.178.073v2.186ZM42.8,51.143l.4-.869a1.116,1.116,0,0,0,.1-.476V31.757a1.158,1.158,0,0,0-.121-.513l-.309-.612h5.42l-.316.632a1.158,1.158,0,0,0-.118.51V49.8a1.145,1.145,0,0,0,.1.476l.4.869ZM52.41,6.706a4.558,4.558,0,1,0,4.558,4.558A4.558,4.558,0,0,0,52.41,6.706Zm0,6.838a2.279,2.279,0,1,1,2.28-2.281,2.279,2.279,0,0,1-2.28,2.281Z" transform="translate(0 0)" fill="#024b68"/>
        </g>
      </g>
    </g>
  </g>
</svg>
