<svg xmlns="http://www.w3.org/2000/svg" width="93" height="93" viewBox="0 0 93 93">
  <g id="Grupo_80211" data-name="Grupo 80211" transform="translate(-1217.333 -378)">
    <path id="Trazado_113937" data-name="Trazado 113937" d="M46.5,0A46.5,46.5,0,1,1,0,46.5,46.5,46.5,0,0,1,46.5,0Z" transform="translate(1217.333 378)" fill="#9f0925"/>
    <g id="Grupo_1052693" data-name="Grupo 1052693" transform="translate(145.431 -104.344)">
      <path id="Trazado_771681" data-name="Trazado 771681" d="M1151.09,532.549V510.934a4.724,4.724,0,0,0-4.725-4.724H1095.63a4.723,4.723,0,0,0-4.724,4.724v20.521c-.014.147-.021.3-.021.445v.751c0,.151.007.3.021.447v19.893a4.724,4.724,0,0,0,4.713,4.725l50.517.125h.136a4.724,4.724,0,0,0,2.722-8.586l-4.887-3.445a8.6,8.6,0,0,0,1.343-2,8.9,8.9,0,0,0,.426-6.537h.491A4.724,4.724,0,0,0,1151.09,532.549Z" transform="translate(-1.544 -1.9)" opacity="0.4"/>
      <path id="Trazado_771682" data-name="Trazado 771682" d="M1147.464,528.086V506.471a4.724,4.724,0,0,0-4.725-4.725H1092a4.724,4.724,0,0,0-4.725,4.725v20.522c-.014.146-.021.295-.021.444v.751q0,.226.021.446v19.895a4.724,4.724,0,0,0,4.712,4.723l50.518.125h.136a4.723,4.723,0,0,0,2.722-8.584l-4.887-3.446a8.565,8.565,0,0,0,1.342-2,8.891,8.891,0,0,0,.425-6.536h.493A4.724,4.724,0,0,0,1147.464,528.086Z" transform="translate(0 0)" fill="#fff"/>
      <g id="Grupo_1042778" data-name="Grupo 1042778" transform="translate(1091.983 506.471)">
        <rect id="Rectángulo_355702" data-name="Rectángulo 355702" width="50.735" height="21.615" transform="translate(0.021)" fill="#f9cb9d"/>
        <g id="Grupo_1042776" data-name="Grupo 1042776" transform="translate(3.779 9.151)">
          <g id="Grupo_1042775" data-name="Grupo 1042775" transform="translate(0 3.863)">
            <path id="Trazado_771683" data-name="Trazado 771683" d="M1134.142,539.368a3.579,3.579,0,0,1-1.09-2.073l-29.792,13.023a.054.054,0,0,0,0,.019C1117.2,555.252,1130.192,543.5,1134.142,539.368Z" transform="translate(-1102.571 -534.614)" fill="#a0a0a0"/>
            <path id="Trazado_771684" data-name="Trazado 771684" d="M1133.435,544.045c-3.933-3.871-17.46-15.423-31.373-9.99a.08.08,0,0,0,0,.02l30.5,12.214A4,4,0,0,1,1133.435,544.045Z" transform="translate(-1102.062 -532.628)" fill="#afafaf"/>
            <path id="Trazado_771685" data-name="Trazado 771685" d="M1141.331,544.788a1.14,1.14,0,1,1-1.341.858A1.125,1.125,0,0,1,1141.331,544.788Z" transform="translate(-1118.191 -537.791)" fill="#ef4136"/>
          </g>
          <path id="Trazado_771686" data-name="Trazado 771686" d="M1156.109,526.877c3.611-1.749,7.547-1.082,8.792,1.488s-.673,6.073-4.282,7.822-7.547,1.083-8.793-1.488S1152.5,528.627,1156.109,526.877Zm-2.09,6.76c.828,1.71,3.445,2.152,5.845.99s3.675-3.491,2.847-5.2-3.445-2.152-5.847-.99S1153.19,531.928,1154.019,533.638Z" transform="translate(-1123.079 -525.902)" fill="#ef4136"/>
          <path id="Trazado_771687" data-name="Trazado 771687" d="M1151.805,550.769c1.245-2.571,5.181-3.237,8.79-1.488s5.528,5.251,4.282,7.822-5.182,3.237-8.791,1.488S1150.559,553.339,1151.805,550.769Zm5.037,6.261c2.4,1.164,5.018.72,5.845-.988s-.446-4.038-2.847-5.2-5.017-.719-5.845.99S1154.443,555.868,1156.843,557.03Z" transform="translate(-1123.07 -535.436)" fill="#ef4136"/>
        </g>
        <path id="Trazado_771688" data-name="Trazado 771688" d="M1146.036,568.012l-50.516-.125V547.233h21.143Z" transform="translate(-1095.499 -525.829)" fill="#f9cb9d"/>
        <path id="Trazado_771689" data-name="Trazado 771689" d="M1132.256,547.151l.249,20.7,29.291.128Z" transform="translate(-1111.133 -525.794)" fill="#ea9c5c"/>
        <g id="Grupo_1042777" data-name="Grupo 1042777" transform="translate(0 20.966)">
          <rect id="Rectángulo_355703" data-name="Rectángulo 355703" width="2.315" height="0.751" fill="#ea9c5c"/>
          <rect id="Rectángulo_355704" data-name="Rectángulo 355704" width="2.316" height="0.751" transform="translate(4.506)" fill="#ea9c5c"/>
          <rect id="Rectángulo_355705" data-name="Rectángulo 355705" width="2.315" height="0.751" transform="translate(9.012)" fill="#ea9c5c"/>
          <rect id="Rectángulo_355706" data-name="Rectángulo 355706" width="2.315" height="0.751" transform="translate(13.362)" fill="#ea9c5c"/>
          <rect id="Rectángulo_355707" data-name="Rectángulo 355707" width="2.315" height="0.751" transform="translate(17.805 0.031)" fill="#ea9c5c"/>
        </g>
      </g>
      <path id="Trazado_771690" data-name="Trazado 771690" d="M1145.89,509.621v21.616h-18.759c.636.52,1.209,1.014,1.716,1.469a5.933,5.933,0,0,1,3.564-1.058,9.319,9.319,0,0,1,4.027.968c3.611,1.749,5.528,5.251,4.282,7.822-.776,1.6-2.6,2.464-4.731,2.464a9.4,9.4,0,0,1-4.06-.976c-.28-.135-.53-.3-.79-.454L1145.8,551.8h-.125l-50.516-.125V531.338h-.021v-.751h.021V509.621Zm0-.472h-50.735a.472.472,0,0,0-.472.472v20.833a.417.417,0,0,0-.021.133v.751a.447.447,0,0,0,.021.139v20.2a.473.473,0,0,0,.471.472l50.516.125h.126a.473.473,0,0,0,.272-.859l-11.6-8.175a9.128,9.128,0,0,0,1.518.132c2.4,0,4.329-1.022,5.157-2.73a5,5,0,0,0-.33-4.653,9.379,9.379,0,0,0-4.171-3.8,10.585,10.585,0,0,0-1.167-.482h10.412a.473.473,0,0,0,.472-.472V509.621a.472.472,0,0,0-.472-.472Zm-17.461,22.56h1.212a5.384,5.384,0,0,0-.755.4c-.152-.133-.3-.267-.457-.4Z" transform="translate(-3.151 -3.151)"/>
    </g>
  </g>
</svg>
