<svg xmlns="http://www.w3.org/2000/svg" width="96" height="96" viewBox="0 0 96 96">
  <g id="Grupo_1043428" data-name="Grupo 1043428" transform="translate(-864.001 -413.901)">
    <g id="Grupo_80214" data-name="Grupo 80214" transform="translate(-40.332 31.406)">
      <path id="Trazado_113935" data-name="Trazado 113935" d="M48,0A48,48,0,1,1,0,48,48,48,0,0,1,48,0Z" transform="translate(904.333 382.495)" fill="#9f0925"/>
    </g>
    <g id="Grupo_1042793" data-name="Grupo 1042793" transform="translate(-339.543 -24.744)">
      <g id="Grupo_1043426" data-name="Grupo 1043426" transform="translate(13 9.781)">
        <g id="Grupo_1042789" data-name="Grupo 1042789" transform="translate(1203.542 446.714)">
          <path id="Trazado_771691" data-name="Trazado 771691" d="M1273.833,464.2h-16.591V461.64a4.043,4.043,0,0,0-4.043-4.043h-13.3v-3.113a4.044,4.044,0,0,0-4.043-4.043h-25.239a4.043,4.043,0,0,0-4.043,4.043v35.061a4.043,4.043,0,0,0,4.043,4.043h13.305V496.7a4.043,4.043,0,0,0,4.043,4.043h16.591v2.562a4.045,4.045,0,0,0,4.043,4.043h.006l19.249-.026a4.048,4.048,0,0,0,2.853-1.184l5.971-5.971a4.042,4.042,0,0,0,1.185-2.856l.018-29.064a4.043,4.043,0,0,0-4.043-4.046Z" transform="translate(-1204.787 -448.247)" opacity="0.4"/>
          <path id="Trazado_771692" data-name="Trazado 771692" d="M1270.806,460.476h-16.592v-2.562a4.043,4.043,0,0,0-4.042-4.043h-13.3v-3.113a4.043,4.043,0,0,0-4.043-4.043h-25.239a4.044,4.044,0,0,0-4.043,4.043v35.061a4.044,4.044,0,0,0,4.043,4.043h13.305v3.113a4.043,4.043,0,0,0,4.043,4.043h16.593v2.562a4.043,4.043,0,0,0,4.043,4.043h.006l19.248-.026a4.048,4.048,0,0,0,2.853-1.184l5.971-5.971a4.038,4.038,0,0,0,1.184-2.856l.018-29.064a4.043,4.043,0,0,0-4.043-4.046Z" transform="translate(-1203.542 -446.714)" fill="#fff"/>
          <g id="Grupo_1042788" data-name="Grupo 1042788" transform="translate(4.043 4.043)">
            <g id="Grupo_1042781" data-name="Grupo 1042781">
              <rect id="Rect치ngulo_355708" data-name="Rect치ngulo 355708" width="25.239" height="35.061" fill="#1c75bc"/>
              <g id="Grupo_1042780" data-name="Grupo 1042780">
                <path id="Trazado_771693" data-name="Trazado 771693" d="M1222.477,453.581l-12.068,12.069v-2.877l9.192-9.192Z" transform="translate(-1210.409 -453.581)" fill="#00aeef"/>
                <path id="Trazado_771694" data-name="Trazado 771694" d="M1235.307,453.581l-24.9,24.9V475.6l22.023-22.022Z" transform="translate(-1210.409 -453.581)" fill="#00aeef"/>
                <path id="Trazado_771695" data-name="Trazado 771695" d="M1235.946,470.987v2.877L1214.01,495.8h-2.876Z" transform="translate(-1210.707 -460.738)" fill="#00aeef"/>
                <path id="Trazado_771696" data-name="Trazado 771696" d="M1244.906,492.778v2.876l-9.106,9.106h-2.876Z" transform="translate(-1219.667 -469.699)" fill="#00aeef"/>
              </g>
            </g>
            <rect id="Rect치ngulo_355709" data-name="Rect치ngulo 355709" width="25.238" height="35.061" transform="translate(17.348 7.156)" fill="#8dc63f"/>
            <g id="Grupo_1042786" data-name="Grupo 1042786" transform="translate(19.759 9.655)">
              <g id="Grupo_1042782" data-name="Grupo 1042782">
                <path id="Trazado_771697" data-name="Trazado 771697" d="M1246.6,471.3a1.318,1.318,0,1,1-1.318-1.318A1.319,1.319,0,0,1,1246.6,471.3Z" transform="translate(-1243.967 -469.979)" fill="#d7df23"/>
                <path id="Trazado_771698" data-name="Trazado 771698" d="M1256.213,471.3a1.319,1.319,0,1,1-1.318-1.318A1.319,1.319,0,0,1,1256.213,471.3Z" transform="translate(-1247.918 -469.979)" fill="#d7df23"/>
                <path id="Trazado_771699" data-name="Trazado 771699" d="M1266.687,471.3a1.319,1.319,0,1,1-1.319-1.318A1.319,1.319,0,0,1,1266.687,471.3Z" transform="translate(-1252.225 -469.979)" fill="#d7df23"/>
                <path id="Trazado_771700" data-name="Trazado 771700" d="M1276.3,471.3a1.319,1.319,0,1,1-1.32-1.318A1.319,1.319,0,0,1,1276.3,471.3Z" transform="translate(-1256.176 -469.979)" fill="#d7df23"/>
                <path id="Trazado_771701" data-name="Trazado 771701" d="M1251.409,479.116a1.319,1.319,0,1,1-1.319-1.318A1.319,1.319,0,0,1,1251.409,479.116Z" transform="translate(-1245.943 -473.194)" fill="#d7df23"/>
                <path id="Trazado_771702" data-name="Trazado 771702" d="M1261.881,479.116a1.319,1.319,0,1,1-1.318-1.318A1.319,1.319,0,0,1,1261.881,479.116Z" transform="translate(-1250.249 -473.194)" fill="#d7df23"/>
                <path id="Trazado_771703" data-name="Trazado 771703" d="M1271.491,479.116a1.319,1.319,0,1,1-1.318-1.318A1.318,1.318,0,0,1,1271.491,479.116Z" transform="translate(-1254.2 -473.194)" fill="#d7df23"/>
              </g>
              <g id="Grupo_1042783" data-name="Grupo 1042783" transform="translate(0 9.146)">
                <path id="Trazado_771704" data-name="Trazado 771704" d="M1246.6,486.831a1.318,1.318,0,1,1-1.318-1.318A1.318,1.318,0,0,1,1246.6,486.831Z" transform="translate(-1243.967 -485.513)" fill="#d7df23"/>
                <path id="Trazado_771705" data-name="Trazado 771705" d="M1256.213,486.831a1.319,1.319,0,1,1-1.318-1.318A1.319,1.319,0,0,1,1256.213,486.831Z" transform="translate(-1247.918 -485.513)" fill="#d7df23"/>
                <path id="Trazado_771706" data-name="Trazado 771706" d="M1266.687,486.831a1.319,1.319,0,1,1-1.319-1.318A1.319,1.319,0,0,1,1266.687,486.831Z" transform="translate(-1252.225 -485.513)" fill="#d7df23"/>
                <path id="Trazado_771707" data-name="Trazado 771707" d="M1276.3,486.831a1.319,1.319,0,1,1-1.32-1.318A1.319,1.319,0,0,1,1276.3,486.831Z" transform="translate(-1256.176 -485.513)" fill="#d7df23"/>
                <path id="Trazado_771708" data-name="Trazado 771708" d="M1251.409,494.649a1.319,1.319,0,1,1-1.319-1.318A1.319,1.319,0,0,1,1251.409,494.649Z" transform="translate(-1245.943 -488.728)" fill="#d7df23"/>
                <path id="Trazado_771709" data-name="Trazado 771709" d="M1261.881,494.649a1.319,1.319,0,1,1-1.318-1.318A1.319,1.319,0,0,1,1261.881,494.649Z" transform="translate(-1250.249 -488.728)" fill="#d7df23"/>
                <path id="Trazado_771710" data-name="Trazado 771710" d="M1271.491,494.649a1.319,1.319,0,1,1-1.318-1.318A1.319,1.319,0,0,1,1271.491,494.649Z" transform="translate(-1254.2 -488.728)" fill="#d7df23"/>
              </g>
              <g id="Grupo_1042784" data-name="Grupo 1042784" transform="translate(0 17.785)">
                <path id="Trazado_771711" data-name="Trazado 771711" d="M1246.6,501.5a1.318,1.318,0,1,1-1.318-1.319A1.318,1.318,0,0,1,1246.6,501.5Z" transform="translate(-1243.967 -500.184)" fill="#d7df23"/>
                <path id="Trazado_771712" data-name="Trazado 771712" d="M1256.213,501.5a1.319,1.319,0,1,1-1.318-1.319A1.319,1.319,0,0,1,1256.213,501.5Z" transform="translate(-1247.918 -500.184)" fill="#d7df23"/>
                <path id="Trazado_771713" data-name="Trazado 771713" d="M1266.687,501.5a1.319,1.319,0,1,1-1.319-1.319A1.319,1.319,0,0,1,1266.687,501.5Z" transform="translate(-1252.225 -500.184)" fill="#d7df23"/>
                <path id="Trazado_771714" data-name="Trazado 771714" d="M1276.3,501.5a1.319,1.319,0,1,1-1.32-1.319A1.319,1.319,0,0,1,1276.3,501.5Z" transform="translate(-1256.176 -500.184)" fill="#d7df23"/>
                <path id="Trazado_771715" data-name="Trazado 771715" d="M1251.409,509.32A1.319,1.319,0,1,1,1250.09,508,1.319,1.319,0,0,1,1251.409,509.32Z" transform="translate(-1245.943 -503.399)" fill="#d7df23"/>
                <path id="Trazado_771716" data-name="Trazado 771716" d="M1261.881,509.32a1.319,1.319,0,1,1-1.318-1.318A1.319,1.319,0,0,1,1261.881,509.32Z" transform="translate(-1250.249 -503.399)" fill="#d7df23"/>
                <path id="Trazado_771717" data-name="Trazado 771717" d="M1271.491,509.32a1.319,1.319,0,1,1-1.318-1.318A1.319,1.319,0,0,1,1271.491,509.32Z" transform="translate(-1254.2 -503.399)" fill="#d7df23"/>
              </g>
              <g id="Grupo_1042785" data-name="Grupo 1042785" transform="translate(0 27.439)">
                <path id="Trazado_771718" data-name="Trazado 771718" d="M1246.6,517.9a1.318,1.318,0,1,1-1.318-1.319A1.317,1.317,0,0,1,1246.6,517.9Z" transform="translate(-1243.967 -516.58)" fill="#d7df23"/>
                <path id="Trazado_771719" data-name="Trazado 771719" d="M1256.213,517.9a1.319,1.319,0,1,1-1.318-1.319A1.318,1.318,0,0,1,1256.213,517.9Z" transform="translate(-1247.918 -516.58)" fill="#d7df23"/>
                <path id="Trazado_771720" data-name="Trazado 771720" d="M1266.687,517.9a1.319,1.319,0,1,1-1.319-1.319A1.318,1.318,0,0,1,1266.687,517.9Z" transform="translate(-1252.225 -516.58)" fill="#d7df23"/>
                <path id="Trazado_771721" data-name="Trazado 771721" d="M1276.3,517.9a1.319,1.319,0,1,1-1.32-1.319A1.318,1.318,0,0,1,1276.3,517.9Z" transform="translate(-1256.176 -516.58)" fill="#d7df23"/>
              </g>
            </g>
            <g id="Grupo_1042787" data-name="Grupo 1042787" transform="translate(37.984 13.762)">
              <path id="Trazado_771722" data-name="Trazado 771722" d="M1294.166,511.989l-19.248.026V476.954h25.237l-.019,29.064Z" transform="translate(-1274.918 -476.954)" fill="#f7941e"/>
              <path id="Trazado_771723" data-name="Trazado 771723" d="M1284.892,486.631a1.871,1.871,0,0,0,.993-1.364,1.544,1.544,0,0,0-1.518-.45,1.674,1.674,0,0,0-.865.859,1.034,1.034,0,0,0-.2-.135,1.37,1.37,0,0,0,.422-.927,1.661,1.661,0,0,0-.954-1.391,1.434,1.434,0,0,0-.931,1.282,1.624,1.624,0,0,0,.5,1.038,1,1,0,0,0-.218.151,1.384,1.384,0,0,0-.674-.781,1.661,1.661,0,0,0-1.661.29,1.431,1.431,0,0,0,.779,1.379,1.674,1.674,0,0,0,1.224-.047,1.051,1.051,0,0,0,.055.265,1.359,1.359,0,0,0-.9.468,1.662,1.662,0,0,0-.11,1.682,1.43,1.43,0,0,0,1.524-.432,1.569,1.569,0,0,0,.257-1.041,2.214,2.214,0,0,0,.5-.027,1.376,1.376,0,0,0,.264.948,1.87,1.87,0,0,0,1.609.5,1.543,1.543,0,0,0-.06-1.583,1.7,1.7,0,0,0-1.124-.548,1.032,1.032,0,0,0,.044-.218A1.394,1.394,0,0,0,1284.892,486.631Z" transform="translate(-1276.912 -479.532)" fill="#ef4136"/>
              <path id="Trazado_771724" data-name="Trazado 771724" d="M1308.193,486.631a1.873,1.873,0,0,0,.993-1.364,1.545,1.545,0,0,0-1.519-.45,1.675,1.675,0,0,0-.864.859,1.065,1.065,0,0,0-.2-.135,1.369,1.369,0,0,0,.422-.927,1.663,1.663,0,0,0-.953-1.391,1.432,1.432,0,0,0-.931,1.282,1.621,1.621,0,0,0,.5,1.038,1.03,1.03,0,0,0-.218.151,1.385,1.385,0,0,0-.673-.781,1.661,1.661,0,0,0-1.661.29,1.43,1.43,0,0,0,.778,1.379,1.675,1.675,0,0,0,1.224-.047,1.024,1.024,0,0,0,.054.265,1.357,1.357,0,0,0-.9.468,1.659,1.659,0,0,0-.11,1.682,1.43,1.43,0,0,0,1.523-.432,1.573,1.573,0,0,0,.257-1.041,2.221,2.221,0,0,0,.5-.027,1.369,1.369,0,0,0,.264.948,1.868,1.868,0,0,0,1.609.5,1.542,1.542,0,0,0-.061-1.583,1.693,1.693,0,0,0-1.123-.548,1.039,1.039,0,0,0,.044-.218A1.4,1.4,0,0,0,1308.193,486.631Z" transform="translate(-1286.494 -479.532)" fill="#ef4136"/>
              <path id="Trazado_771725" data-name="Trazado 771725" d="M1296.833,498.7a1.867,1.867,0,0,0,.992-1.362,1.544,1.544,0,0,0-1.518-.451,1.668,1.668,0,0,0-.864.86,1.056,1.056,0,0,0-.2-.137,1.366,1.366,0,0,0,.422-.927,1.66,1.66,0,0,0-.954-1.39,1.429,1.429,0,0,0-.931,1.281,1.617,1.617,0,0,0,.5,1.037,1.044,1.044,0,0,0-.218.152,1.379,1.379,0,0,0-.673-.781,1.659,1.659,0,0,0-1.661.291,1.429,1.429,0,0,0,.779,1.378,1.674,1.674,0,0,0,1.223-.048,1.02,1.02,0,0,0,.055.265,1.367,1.367,0,0,0-.9.468,1.659,1.659,0,0,0-.11,1.682,1.428,1.428,0,0,0,1.524-.432,1.573,1.573,0,0,0,.256-1.04,2.064,2.064,0,0,0,.5-.028,1.374,1.374,0,0,0,.264.95,1.872,1.872,0,0,0,1.609.5,1.548,1.548,0,0,0-.061-1.583,1.694,1.694,0,0,0-1.124-.548,1.03,1.03,0,0,0,.043-.218A1.391,1.391,0,0,0,1296.833,498.7Z" transform="translate(-1281.823 -484.496)" fill="#ef4136"/>
              <path id="Trazado_771726" data-name="Trazado 771726" d="M1284.892,512.521a1.871,1.871,0,0,0,.993-1.364,1.542,1.542,0,0,0-1.518-.45,1.674,1.674,0,0,0-.865.858,1.033,1.033,0,0,0-.2-.135,1.37,1.37,0,0,0,.422-.927,1.66,1.66,0,0,0-.954-1.391,1.433,1.433,0,0,0-.931,1.282,1.616,1.616,0,0,0,.5,1.038.976.976,0,0,0-.218.151,1.375,1.375,0,0,0-.674-.781,1.661,1.661,0,0,0-1.661.29,1.431,1.431,0,0,0,.779,1.378,1.661,1.661,0,0,0,1.224-.048,1.024,1.024,0,0,0,.055.266,1.363,1.363,0,0,0-.9.468,1.662,1.662,0,0,0-.11,1.682,1.429,1.429,0,0,0,1.524-.432,1.569,1.569,0,0,0,.257-1.04,2.129,2.129,0,0,0,.5-.029,1.378,1.378,0,0,0,.264.949,1.869,1.869,0,0,0,1.609.5,1.543,1.543,0,0,0-.06-1.583,1.688,1.688,0,0,0-1.124-.548,1.03,1.03,0,0,0,.044-.218A1.394,1.394,0,0,0,1284.892,512.521Z" transform="translate(-1276.912 -490.177)" fill="#ef4136"/>
              <path id="Trazado_771727" data-name="Trazado 771727" d="M1308.193,512.521a1.873,1.873,0,0,0,.993-1.364,1.543,1.543,0,0,0-1.519-.45,1.675,1.675,0,0,0-.864.858,1.064,1.064,0,0,0-.2-.135,1.369,1.369,0,0,0,.422-.927,1.662,1.662,0,0,0-.953-1.391,1.431,1.431,0,0,0-.931,1.282,1.613,1.613,0,0,0,.5,1.038,1.008,1.008,0,0,0-.218.151,1.376,1.376,0,0,0-.673-.781,1.661,1.661,0,0,0-1.661.29,1.43,1.43,0,0,0,.778,1.378,1.663,1.663,0,0,0,1.224-.048,1,1,0,0,0,.054.266,1.36,1.36,0,0,0-.9.468,1.659,1.659,0,0,0-.11,1.682,1.429,1.429,0,0,0,1.523-.432,1.573,1.573,0,0,0,.257-1.04,2.136,2.136,0,0,0,.5-.029,1.372,1.372,0,0,0,.264.949,1.867,1.867,0,0,0,1.609.5,1.542,1.542,0,0,0-.061-1.583,1.685,1.685,0,0,0-1.123-.548,1.038,1.038,0,0,0,.044-.218A1.4,1.4,0,0,0,1308.193,512.521Z" transform="translate(-1286.494 -490.177)" fill="#ef4136"/>
              <path id="Trazado_771728" data-name="Trazado 771728" d="M1296.833,524.592a1.869,1.869,0,0,0,.992-1.362,1.543,1.543,0,0,0-1.518-.451,1.671,1.671,0,0,0-.864.858,1.111,1.111,0,0,0-.2-.135,1.369,1.369,0,0,0,.422-.927,1.659,1.659,0,0,0-.954-1.39,1.429,1.429,0,0,0-.931,1.281,1.618,1.618,0,0,0,.5,1.037.986.986,0,0,0-.218.153,1.38,1.38,0,0,0-.673-.783,1.664,1.664,0,0,0-1.661.29,1.43,1.43,0,0,0,.779,1.38,1.677,1.677,0,0,0,1.223-.048,1.02,1.02,0,0,0,.055.265,1.367,1.367,0,0,0-.9.468,1.657,1.657,0,0,0-.11,1.682,1.43,1.43,0,0,0,1.524-.432,1.574,1.574,0,0,0,.256-1.04,2.186,2.186,0,0,0,.5-.028,1.372,1.372,0,0,0,.264.949,1.868,1.868,0,0,0,1.609.5,1.547,1.547,0,0,0-.061-1.583,1.693,1.693,0,0,0-1.124-.547,1.046,1.046,0,0,0,.043-.218A1.4,1.4,0,0,0,1296.833,524.592Z" transform="translate(-1281.823 -495.141)" fill="#ef4136"/>
              <path id="Trazado_771729" data-name="Trazado 771729" d="M1307.608,532.286l5.97-5.971h-5.97Z" transform="translate(-1288.36 -497.251)" fill="#d87100"/>
            </g>
          </g>
          <path id="Trazado_771730" data-name="Trazado 771730" d="M1235.365,453.3v7.156h17.348v6.606h20.634l-.019,29.064-5.97,5.971-19.248.026v-6.606h-20.635V488.36h-17.348V453.3h25.239Zm0-.4h-25.239a.4.4,0,0,0-.4.4V488.36a.4.4,0,0,0,.4.4h16.945v6.752a.4.4,0,0,0,.4.4h20.231v6.2a.405.405,0,0,0,.4.4h0l19.249-.026a.4.4,0,0,0,.284-.119l5.971-5.969a.41.41,0,0,0,.119-.287l.018-29.064a.41.41,0,0,0-.118-.286.405.405,0,0,0-.286-.119h-20.231v-6.2a.4.4,0,0,0-.4-.4H1235.77V453.3a.4.4,0,0,0-.4-.4Z" transform="translate(-1206.083 -449.256)"/>
        </g>
        <g id="Grupo_1042792" data-name="Grupo 1042792" transform="translate(1217.799 492.968)">
          <g id="Grupo_1042790" data-name="Grupo 1042790" transform="translate(0)">
            <path id="Trazado_771731" data-name="Trazado 771731" d="M1232.534,525.269c-2.639,0-4.779,1.855-4.779,4.143s2.14,4.143,4.779,4.143a5.168,5.168,0,0,0,3.338-1.177,4.072,4.072,0,0,0,1.255-1.815,3.577,3.577,0,0,0,.188-1.151C1237.315,527.124,1235.175,525.269,1232.534,525.269Zm0,6.987a2.874,2.874,0,1,1,3.283-2.844,2.219,2.219,0,0,1-.021.313,2.733,2.733,0,0,1-1.112,1.836A3.566,3.566,0,0,1,1232.534,532.256Z" transform="translate(-1227.755 -525.269)" fill="#3baf31" stroke="#fff" stroke-miterlimit="10" stroke-width="1"/>
            <path id="Trazado_771732" data-name="Trazado 771732" d="M1237.126,545.7a4.059,4.059,0,0,0-1.255-1.814,5.162,5.162,0,0,0-3.338-1.178c-2.639,0-4.779,1.854-4.779,4.141s2.14,4.144,4.779,4.144,4.781-1.855,4.781-4.144A3.578,3.578,0,0,0,1237.126,545.7Zm-4.592,4a2.874,2.874,0,1,1,0-5.69,3.572,3.572,0,0,1,2.151.7,2.734,2.734,0,0,1,1.111,1.837,2.181,2.181,0,0,1,.021.311A3.087,3.087,0,0,1,1232.534,549.694Z" transform="translate(-1227.755 -532.44)" fill="#037225" stroke="#fff" stroke-miterlimit="10" stroke-width="1"/>
          </g>
          <g id="Grupo_1042791" data-name="Grupo 1042791" transform="translate(6.93 1.546)">
            <path id="Trazado_771733" data-name="Trazado 771733" d="M1245.941,536.331l-1.987,1.325-3.242-2.168-1.028-.685a1.082,1.082,0,0,1-.16-.131,2.743,2.743,0,0,0,1.113-1.836,1.038,1.038,0,0,1,.273.133l1.056.705,3.029,2.024Z" transform="translate(-1239.524 -529.927)" fill="#3baf31" stroke="#fff" stroke-miterlimit="10" stroke-width="1"/>
            <path id="Trazado_771734" data-name="Trazado 771734" d="M1261.254,548.263a1.1,1.1,0,0,1-1.53.3l-9.3-6.217,1.986-1.327,8.545,5.71A1.105,1.105,0,0,1,1261.254,548.263Z" transform="translate(-1244.004 -533.293)" fill="#037225" stroke="#fff" stroke-miterlimit="10" stroke-width="1"/>
            <path id="Trazado_771735" data-name="Trazado 771735" d="M1260.952,529.915l-7.811,5.219-.734.491-1.984-1.325.945-.632,8.357-5.587a1.1,1.1,0,0,1,1.227,1.835Z" transform="translate(-1244.006 -527.895)" fill="#3baf31" stroke="#fff" stroke-miterlimit="10" stroke-width="1"/>
            <path id="Trazado_771736" data-name="Trazado 771736" d="M1251.019,541.023l-1.986,1.327-1.985-1.327Z" transform="translate(-1242.618 -533.293)" fill="#037225" stroke="#fff" stroke-miterlimit="10" stroke-width="1"/>
            <path id="Trazado_771737" data-name="Trazado 771737" d="M1245.939,542.35l-3.973,2.656-1.056.706a1.088,1.088,0,0,1-.273.131,2.745,2.745,0,0,0-1.112-1.835,1.028,1.028,0,0,1,.16-.129l1.027-.688,3.243-2.168Z" transform="translate(-1239.524 -533.293)" fill="#037225" stroke="#fff" stroke-miterlimit="10" stroke-width="1"/>
          </g>
          <path id="Trazado_771738" data-name="Trazado 771738" d="M1251.019,540.1h-3.971l1.987-1.325Z" transform="translate(-1235.688 -530.821)" fill="#3baf31" stroke="#fff" stroke-miterlimit="10" stroke-width="1"/>
          <path id="Trazado_771739" data-name="Trazado 771739" d="M1250.75,540.476a.824.824,0,1,1-.824-.824A.825.825,0,0,1,1250.75,540.476Z" transform="translate(-1236.533 -531.183)" fill="#343534" stroke="#fff" stroke-miterlimit="10" stroke-width="1"/>
          <path id="Trazado_771740" data-name="Trazado 771740" d="M1250.657,540.691a.516.516,0,1,1-.516-.516A.516.516,0,0,1,1250.657,540.691Z" transform="translate(-1236.748 -531.398)" fill="#5d5d5d" stroke="#fff" stroke-miterlimit="10" stroke-width="1"/>
        </g>
      </g>
    </g>
  </g>
</svg>
