<svg xmlns="http://www.w3.org/2000/svg" width="77" height="77" viewBox="0 0 77 77">
  <g id="Grupo_80250" data-name="Grupo 80250" transform="translate(-1233.333 -184.355)">
    <path id="Trazado_113939" data-name="Trazado 113939" d="M38.5,0A38.5,38.5,0,1,1,0,38.5,38.5,38.5,0,0,1,38.5,0Z" transform="translate(1233.333 184.355)" fill="#9f0925"/>
    <g id="Grupo_1042799" data-name="Grupo 1042799" transform="translate(-19.557 -396.688)">
      <path id="Trazado_771741" data-name="Trazado 771741" d="M1317.958,607.228a2.891,2.891,0,0,0-2.077-2.764l.007-5.428h0v-.827h-46.109a2.9,2.9,0,0,0-2.9,2.895v1.161a2.876,2.876,0,0,0,.233,1.133v6.493h-2.3v26.524h50.244c1.372,0,2.76-.8,2.76-2.166V608.858a2.854,2.854,0,0,0,.135-.828Z" transform="translate(0)" fill="#fff" stroke="#fff" stroke-miterlimit="10" stroke-width="5.058"/>
      <path id="Trazado_771742" data-name="Trazado 771742" d="M1317.393,607.228a2.886,2.886,0,0,0-2.055-2.764l.008-5.428h0v-.827h-45.619a2.883,2.883,0,0,0-2.865,2.895v1.161a2.909,2.909,0,0,0,.23,1.133v6.493h-2.276v26.524h49.709c1.357,0,2.731-.8,2.731-2.166V608.858a2.878,2.878,0,0,0,.134-.828Z" transform="translate(0)" stroke="#000" stroke-miterlimit="10" stroke-width="0.719"/>
      <g id="Grupo_1042798" data-name="Grupo 1042798" transform="translate(1265.077 598.684)">
        <path id="Trazado_771743" data-name="Trazado 771743" d="M1314.978,599.123l-.024,17.338h-47.481l.126-14.919a2.483,2.483,0,0,1,2.419-2.419Z" transform="translate(-1265.179 -598.719)" fill="#dcb414"/>
        <path id="Trazado_771744" data-name="Trazado 771744" d="M1267.42,602.817a3.666,3.666,0,0,0,3.781,2.42h42.969a2.419,2.419,0,0,1,2.42,2.421v11.77h-49.17Z" transform="translate(-1265.177 -598.862)" fill="#dcb414"/>
        <path id="Trazado_771745" data-name="Trazado 771745" d="M1265.926,611.1v25.259h48.186c1.338,0,2.692-.776,2.692-2.112V608.985a3.43,3.43,0,0,1-3.12,2.112Z" transform="translate(-1265.119 -599.101)" fill="#ffd21e"/>
        <path id="Trazado_771746" data-name="Trazado 771746" d="M1314.114,611.1h-48.188V610.3h48.188a2.018,2.018,0,0,0,2.015-2.016V607.5a2.019,2.019,0,0,0-2.015-2.018h-44.156a2.827,2.827,0,0,1-2.823-2.822v-1.133a2.827,2.827,0,0,1,2.823-2.822h44.961v.807h-44.961a2.018,2.018,0,0,0-2.016,2.016v1.133a2.018,2.018,0,0,0,2.016,2.017h44.156a2.826,2.826,0,0,1,2.822,2.823v.783A2.826,2.826,0,0,1,1314.114,611.1Z" transform="translate(-1265.119 -598.703)" fill="#ffe632"/>
        <rect id="Rectángulo_355710" data-name="Rectángulo 355710" width="0.806" height="12.826" transform="translate(6.358 24.429)" fill="#b69031"/>
        <rect id="Rectángulo_355711" data-name="Rectángulo 355711" width="0.805" height="19.513" transform="translate(12.311 17.742)" fill="#b69031"/>
        <rect id="Rectángulo_355712" data-name="Rectángulo 355712" width="0.806" height="12.826" transform="translate(18.263 24.429)" fill="#b69031"/>
        <rect id="Rectángulo_355713" data-name="Rectángulo 355713" width="0.806" height="19.513" transform="translate(24.215 17.742)" fill="#b69031"/>
        <rect id="Rectángulo_355714" data-name="Rectángulo 355714" width="0.806" height="12.826" transform="translate(30.169 24.429)" fill="#b69031"/>
        <rect id="Rectángulo_355715" data-name="Rectángulo 355715" width="0.806" height="19.513" transform="translate(36.121 17.742)" fill="#b69031"/>
        <rect id="Rectángulo_355716" data-name="Rectángulo 355716" width="0.806" height="12.826" transform="translate(42.073 24.429)" fill="#b69031"/>
        <rect id="Rectángulo_355717" data-name="Rectángulo 355717" width="0.806" height="19.513" transform="translate(48.025 17.742)" fill="#b69031"/>
        <g id="Grupo_1042794" data-name="Grupo 1042794" transform="translate(5.523 16.155)">
          <path id="Trazado_771747" data-name="Trazado 771747" d="M1271.927,615.508h.575v6.936h-.811V616.6a.855.855,0,0,1-.378.25,1.4,1.4,0,0,1-.481.089v-.567a1.379,1.379,0,0,0,.636-.272A1.429,1.429,0,0,0,1271.927,615.508Z" transform="translate(-1270.832 -615.508)" fill="#b69031"/>
        </g>
        <g id="Grupo_1042795" data-name="Grupo 1042795" transform="translate(17.804 16.081)">
          <path id="Trazado_771748" data-name="Trazado 771748" d="M1283.608,617.821a3.534,3.534,0,0,1,.339-2,1.337,1.337,0,0,1,.262-.229,1.316,1.316,0,0,1,.717-.165q1.138,0,1.139,1.918a4,4,0,0,1-.492,1.882c-.145.267-.29.531-.437.787a5.375,5.375,0,0,0-.693,1.812h1.516v.61h-2.3v-.387a5.758,5.758,0,0,1,.788-2.312s.088-.165.256-.491.269-.512.3-.558a2.382,2.382,0,0,0,.21-.642,4.117,4.117,0,0,0,.08-.815,3.2,3.2,0,0,0-.059-.678.736.736,0,0,0-.145-.348.289.289,0,0,0-.207-.086.367.367,0,0,0-.2.048q-.284.174-.284,1.173v.9h-.795Z" transform="translate(-1283.608 -615.431)" fill="#b69031"/>
        </g>
        <g id="Grupo_1042796" data-name="Grupo 1042796" transform="translate(29.241 16.081)">
          <path id="Trazado_771749" data-name="Trazado 771749" d="M1297.513,618.79q.715.326.717,1.741a2.68,2.68,0,0,1-.335,1.5,1.2,1.2,0,0,1-1.064.488,1.126,1.126,0,0,1-1.029-.468,2.828,2.828,0,0,1-.3-1.477v-.308h.787v.32a3.187,3.187,0,0,0,.1.99.425.425,0,0,0,.444.255.455.455,0,0,0,.465-.292,3.069,3.069,0,0,0,.121-1.045,2.421,2.421,0,0,0-.164-1.059.6.6,0,0,0-.58-.3h-.226v-.651h.217a.839.839,0,0,0,.441-.094c.2-.127.3-.5.3-1.113v-.025a1.75,1.75,0,0,0-.155-.905.488.488,0,0,0-.424-.217.415.415,0,0,0-.393.247,2.209,2.209,0,0,0-.123.887v.166h-.8v-.178a2.464,2.464,0,0,1,.3-1.375,1.147,1.147,0,0,1,1.017-.44,1.211,1.211,0,0,1,1.043.451,2.311,2.311,0,0,1,.331,1.364Q1298.214,618.529,1297.513,618.79Z" transform="translate(-1295.505 -615.431)" fill="#b69031"/>
        </g>
        <g id="Grupo_1042797" data-name="Grupo 1042797" transform="translate(40.931 16.155)">
          <path id="Trazado_771750" data-name="Trazado 771750" d="M1309.205,615.508h.838v4.982h.572v.646h-.572v1.311h-.739v-1.311h-1.639v-.57Zm.1,4.982v-3.606l-.97,3.606Z" transform="translate(-1307.665 -615.508)" fill="#b69031"/>
        </g>
        <rect id="Rectángulo_355718" data-name="Rectángulo 355718" width="2.243" height="25.864" transform="translate(0 11.391)" fill="#c8c8c8"/>
      </g>
    </g>
  </g>
</svg>
