<svg xmlns="http://www.w3.org/2000/svg" width="71" height="63.51" viewBox="0 0 71 63.51">
  <g id="www_1_" data-name="www (1)" transform="translate(0 -0.5)">
    <path id="Trazado_773793" data-name="Trazado 773793" d="M67.41,37.125h6.656a4.16,4.16,0,0,0,4.16-4.16V14.66a4.16,4.16,0,0,0-4.16-4.16H14.16A4.16,4.16,0,0,0,10,14.66v18.3a4.16,4.16,0,0,0,4.16,4.16Zm0,0" transform="translate(-8.614 -8.613)" fill="#ffc66c"/>
    <path id="Trazado_773794" data-name="Trazado 773794" d="M378.094,329.282,389.616,340.8a3.315,3.315,0,0,0,4.689-4.688l-11.522-11.523Zm0,0" transform="translate(-325.663 -279.151)" fill="#ff5d5d"/>
    <path id="Trazado_773795" data-name="Trazado 773795" d="M223.285,153.141A16.641,16.641,0,1,1,206.645,136.5,16.641,16.641,0,0,1,223.285,153.141Zm0,0" transform="translate(-163.656 -117.141)" fill="#fff"/>
    <path id="Trazado_773796" data-name="Trazado 773796" d="M253.637,189.316A10.816,10.816,0,1,1,242.82,178.5,10.816,10.816,0,0,1,253.637,189.316Zm0,0" transform="translate(-199.832 -153.316)" fill="#72d8ff"/>
    <path id="Trazado_773797" data-name="Trazado 773797" d="M234.207,168.5a12.2,12.2,0,1,0,12.2,12.2A12.217,12.217,0,0,0,234.207,168.5Zm0,21.633a9.43,9.43,0,1,1,9.43-9.43A9.44,9.44,0,0,1,234.207,190.133Zm0,0" transform="translate(-191.219 -144.703)"/>
    <path id="Trazado_773798" data-name="Trazado 773798" d="M301.391,211.5a1.387,1.387,0,0,0,0,2.773,3.47,3.47,0,0,1,3.466,3.466,1.387,1.387,0,0,0,2.773,0A6.246,6.246,0,0,0,301.391,211.5Zm0,0" transform="translate(-258.402 -181.744)"/>
    <path id="Trazado_773799" data-name="Trazado 773799" d="M45.38,71.246a1.387,1.387,0,1,0-2.463,1.275l3.733,7.211a1.387,1.387,0,0,0,2.481-.037l2.26-4.705,2.454,4.742a1.388,1.388,0,0,0,1.232.749H55.1a1.388,1.388,0,0,0,1.23-.787l3.463-7.211a1.387,1.387,0,1,0-2.5-1.2l-2.26,4.705-2.455-4.742a1.387,1.387,0,0,0-2.481.037l-2.259,4.705Zm0,0" transform="translate(-36.832 -60.29)"/>
    <path id="Trazado_773800" data-name="Trazado 773800" d="M117.375,3.273a1.387,1.387,0,0,0,.98-2.367,1.386,1.386,0,1,0-1.96,1.961A1.4,1.4,0,0,0,117.375,3.273Zm0,0" transform="translate(-99.904)"/>
    <path id="Trazado_773801" data-name="Trazado 773801" d="M71,24.352V6.047A5.553,5.553,0,0,0,65.453.5H23.295a1.387,1.387,0,0,0,0,2.773H65.453a2.777,2.777,0,0,1,2.773,2.773v18.3a2.777,2.777,0,0,1-2.773,2.773H58.8c-.04,0-.079,0-.118.006a18.123,18.123,0,0,0-9.748-8.151l2.056-4.28,2.455,4.742a1.385,1.385,0,0,0,1.231.749h.021a1.387,1.387,0,0,0,1.229-.787l3.463-7.211a1.387,1.387,0,0,0-2.5-1.2L54.626,15.7l-2.455-4.742a1.387,1.387,0,0,0-2.481.037L47.43,15.7l-2.454-4.742a1.387,1.387,0,0,0-2.464,1.275l3.069,5.929a18.055,18.055,0,0,0-7.512.5l3.1-6.461a1.387,1.387,0,0,0-2.5-1.2L36.413,15.7l-2.455-4.742a1.387,1.387,0,0,0-2.481.037L29.217,15.7l-2.455-4.742A1.387,1.387,0,0,0,24.3,12.231l3.733,7.211a1.387,1.387,0,0,0,2.481-.037l2.26-4.7,2.454,4.742a1.354,1.354,0,0,0,.146.22A18.148,18.148,0,0,0,27.3,27.125H5.546a2.777,2.777,0,0,1-2.773-2.773V6.047A2.777,2.777,0,0,1,5.546,3.273h5.684a1.387,1.387,0,1,0,0-2.773H5.546A5.553,5.553,0,0,0,0,6.047v18.3A5.553,5.553,0,0,0,5.546,29.9H26.025a18.023,18.023,0,0,0,25.941,21.73L62.972,62.635a4.7,4.7,0,0,0,6.65-6.65L65.3,51.66a1.387,1.387,0,0,0-1.961,1.961l4.324,4.325a1.929,1.929,0,0,1-2.727,2.728L54.292,50.032A18.011,18.011,0,0,0,59.952,29.9h5.5A5.553,5.553,0,0,0,71,24.351Zm-28.011,26.9A15.254,15.254,0,1,1,58.242,36,15.271,15.271,0,0,1,42.988,51.254Zm0,0"/>
    <path id="Trazado_773802" data-name="Trazado 773802" d="M430.5,343.188a1.386,1.386,0,1,0,.98-.406A1.4,1.4,0,0,0,430.5,343.188Zm0,0" transform="translate(-370.449 -294.817)"/>
  </g>
</svg>
