<svg xmlns="http://www.w3.org/2000/svg" width="820" height="256" viewBox="0 0 820 256">
  <g id="Grupo_1052763" data-name="Grupo 1052763" transform="translate(-390 -1096)">
    <g id="Grupo_1052762" data-name="Grupo 1052762">
      <g id="Trazado_773803" data-name="Trazado 773803" transform="translate(390 1096)" fill="#fff">
        <path d="M 171 255.5 L 17 255.5 C 12.59270000457764 255.5 8.449166297912598 253.7837066650391 5.332733154296875 250.6672668457031 C 2.216300010681152 247.5508270263672 0.5 243.4073028564453 0.5 239 L 0.5 17 C 0.5 12.59270000457764 2.216300010681152 8.449166297912598 5.332733154296875 5.332733154296875 C 8.449166297912598 2.216300010681152 12.59270000457764 0.5 17 0.5 L 171 0.5 C 175.4073028564453 0.5 179.5508270263672 2.216300010681152 182.6672668457031 5.332733154296875 C 185.7837066650391 8.449166297912598 187.5 12.59270000457764 187.5 17 L 187.5 239 C 187.5 243.4073028564453 185.7837066650391 247.5508270263672 182.6672668457031 250.6672668457031 C 179.5508270263672 253.7837066650391 175.4073028564453 255.5 171 255.5 Z" stroke="none"/>
        <path d="M 17 1 C 12.72622680664062 1 8.708297729492188 2.664306640625 5.686294555664062 5.686294555664062 C 2.664306640625 8.708297729492188 1 12.72622680664062 1 17 L 1 239 C 1 243.2737731933594 2.664306640625 247.2917022705078 5.686294555664062 250.3137054443359 C 8.708297729492188 253.335693359375 12.72622680664062 255 17 255 L 171 255 C 175.2737731933594 255 179.2917022705078 253.335693359375 182.3137054443359 250.3137054443359 C 185.335693359375 247.2917022705078 187 243.2737731933594 187 239 L 187 17 C 187 12.72622680664062 185.335693359375 8.708297729492188 182.3137054443359 5.686294555664062 C 179.2917022705078 2.664306640625 175.2737731933594 1 171 1 L 17 1 M 17 0 L 171 0 C 180.3888397216797 0 188 7.611160278320312 188 17 L 188 239 C 188 248.3888397216797 180.3888397216797 256 171 256 L 17 256 C 7.611160278320312 256 0 248.3888397216797 0 239 L 0 17 C 0 7.611160278320312 7.611160278320312 0 17 0 Z" stroke="none" fill="#9f0925"/>
      </g>
      <path id="Trazado_773807" data-name="Trazado 773807" d="M-34.8.205a4.78,4.78,0,0,1-2.476-.687,4.451,4.451,0,0,1-1.656-1.933A7.281,7.281,0,0,1-39.6-5.281a13.612,13.612,0,0,1,.277-3.066,10.514,10.514,0,0,1,1.169-3.292,7.417,7.417,0,0,1,2.02-2.348,5.814,5.814,0,0,1,3.671-1.148,4.417,4.417,0,0,1,3.445,1.512A6.289,6.289,0,0,1-27.66-9.639,14.667,14.667,0,0,1-27.88-6.9a11.334,11.334,0,0,1-.933,3.086,7.7,7.7,0,0,1-1.707,2.389A5.872,5.872,0,0,1-34.8.205Zm5.24-9.372a5.174,5.174,0,0,0-.708-3.133,2.694,2.694,0,0,0-2.287-1.154,3.889,3.889,0,0,0-2.456.738,5.589,5.589,0,0,0-1.774,2.333,12.02,12.02,0,0,0-.877,3.932l-.031.667a5.218,5.218,0,0,0,.718,3.148A2.671,2.671,0,0,0-34.7-1.456a3.95,3.95,0,0,0,3.215-1.4,7.949,7.949,0,0,0,1.7-4.076A18.365,18.365,0,0,0-29.557-9.167Zm6.337,3.322L-24.235,0h-1.928l2.594-14.93,4.983.01a4.873,4.873,0,0,1,3.558,1.225,3.855,3.855,0,0,1,1.077,3.256,4.648,4.648,0,0,1-1.707,3.374,6.193,6.193,0,0,1-4.014,1.23Zm.277-1.61,3.322.01a4.041,4.041,0,0,0,2.574-.79,3.159,3.159,0,0,0,1.179-2.194,2.475,2.475,0,0,0-.523-2.046,2.632,2.632,0,0,0-2-.825l-3.538-.01ZM-.887-13.32H-5.532L-7.839,0H-9.757l2.307-13.32h-4.645l.287-1.61H-.6ZM1.1,0H-.815L1.779-14.93H3.7Zm15.9-13.32H12.361L10.054,0H8.136l2.307-13.32H5.8l.287-1.61H17.293ZM26.337-6.9H20.062L19.139-1.61h7.3L26.153,0H16.934l2.594-14.93h9.116l-.287,1.61H21.169l-.831,4.809h6.275Zm8.5-2.317L39.2-14.93h2.379l-5.814,7.5L39.237,0H37.073L34.427-5.814,29.936,0H27.557l5.937-7.619L30.111-14.93h2.133Z" transform="translate(484 1297)" fill="#12263f"/>
      <path id="Trazado_773808" data-name="Trazado 773808" d="M58,0c32.033,0,58,26.191,58,58.5S90.033,117,58,117,0,90.809,0,58.5,25.967,0,58,0Z" transform="translate(426 1145)" fill="#ff6e33"/>
      <path id="Trazado_773809" data-name="Trazado 773809" d="M52.5,0A52.5,52.5,0,1,1,0,52.5,52.5,52.5,0,0,1,52.5,0Z" transform="translate(431 1151)" fill="#effefe"/>
      <path id="Trazado_772498" data-name="Trazado 772498" d="M1571.009,1733.352A46.384,46.384,0,1,0,1601.9,1814.3l14.514-44.044A46.461,46.461,0,0,0,1571.009,1733.352Zm.615,73.909a28.141,28.141,0,1,1,28.142-28.141A28.173,28.173,0,0,1,1571.624,1807.262Z" transform="translate(-1088.003 -576.443)" fill="#12263f"/>
      <g id="Trazado_773804" data-name="Trazado 773804" transform="translate(597 1096)" fill="#fff">
        <path d="M 171 255.5 L 17 255.5 C 12.59270000457764 255.5 8.449166297912598 253.7837066650391 5.332733154296875 250.6672668457031 C 2.216300010681152 247.5508270263672 0.5 243.4073028564453 0.5 239 L 0.5 17 C 0.5 12.59270000457764 2.216300010681152 8.449166297912598 5.332733154296875 5.332733154296875 C 8.449166297912598 2.216300010681152 12.59270000457764 0.5 17 0.5 L 171 0.5 C 175.4073028564453 0.5 179.5508270263672 2.216300010681152 182.6672668457031 5.332733154296875 C 185.7837066650391 8.449166297912598 187.5 12.59270000457764 187.5 17 L 187.5 239 C 187.5 243.4073028564453 185.7837066650391 247.5508270263672 182.6672668457031 250.6672668457031 C 179.5508270263672 253.7837066650391 175.4073028564453 255.5 171 255.5 Z" stroke="none"/>
        <path d="M 17 1 C 12.72622680664062 1 8.708297729492188 2.664306640625 5.686294555664062 5.686294555664062 C 2.664306640625 8.708297729492188 1 12.72622680664062 1 17 L 1 239 C 1 243.2737731933594 2.664306640625 247.2917022705078 5.686294555664062 250.3137054443359 C 8.708297729492188 253.335693359375 12.72622680664062 255 17 255 L 171 255 C 175.2737731933594 255 179.2917022705078 253.335693359375 182.3137054443359 250.3137054443359 C 185.335693359375 247.2917022705078 187 243.2737731933594 187 239 L 187 17 C 187 12.72622680664062 185.335693359375 8.708297729492188 182.3137054443359 5.686294555664062 C 179.2917022705078 2.664306640625 175.2737731933594 1 171 1 L 17 1 M 17 0 L 171 0 C 180.3888397216797 0 188 7.611160278320312 188 17 L 188 239 C 188 248.3888397216797 180.3888397216797 256 171 256 L 17 256 C 7.611160278320312 256 0 248.3888397216797 0 239 L 0 17 C 0 7.611160278320312 7.611160278320312 0 17 0 Z" stroke="none" fill="#9f0925"/>
      </g>
      <path id="Trazado_773810" data-name="Trazado 773810" d="M-36.2-3.907h-6.255L-43.856,0h-2.03l5.7-14.93h1.723L-32.751,0h-2.02Zm-5.66-1.61h5.076L-39.324-12.5Zm21.451-9.413V-4.778a4.762,4.762,0,0,1-1.328,3.456A5.351,5.351,0,0,1-25.307.185l-.523.021a5.588,5.588,0,0,1-3.907-1.323,4.731,4.731,0,0,1-1.477-3.64V-14.93h1.948v10.11A3.415,3.415,0,0,0-28.373-2.3a3.429,3.429,0,0,0,2.543.9A3.452,3.452,0,0,0-23.271-2.3a3.408,3.408,0,0,0,.887-2.512V-14.93ZM-17.3,0V-14.93h4.214a6.784,6.784,0,0,1,3.445.861,5.825,5.825,0,0,1,2.312,2.451A7.977,7.977,0,0,1-6.5-7.967v.954a8,8,0,0,1-.815,3.7A5.734,5.734,0,0,1-9.644-.872,7.216,7.216,0,0,1-13.166,0Zm1.969-13.32V-1.61h2.071A4.507,4.507,0,0,0-9.716-3.026,5.851,5.851,0,0,0-8.449-7.059v-.872a5.944,5.944,0,0,0-1.195-3.956,4.251,4.251,0,0,0-3.389-1.432ZM4.5-3.907H-1.753L-3.158,0h-2.03l5.7-14.93H2.235L7.947,0H5.927Zm-5.66-1.61H3.917L1.374-12.5Zm21.984.779a5.493,5.493,0,0,1-1.748,3.656A5.73,5.73,0,0,1,15.166.205a5.261,5.261,0,0,1-4.24-1.9A7.632,7.632,0,0,1,9.331-6.768V-8.2a8.506,8.506,0,0,1,.743-3.661,5.553,5.553,0,0,1,2.107-2.425,5.867,5.867,0,0,1,3.158-.846,5.4,5.4,0,0,1,3.814,1.328,5.559,5.559,0,0,1,1.671,3.676H18.847a4.29,4.29,0,0,0-1.113-2.592,3.366,3.366,0,0,0-2.394-.8,3.522,3.522,0,0,0-2.958,1.4A6.407,6.407,0,0,0,11.31-8.158v1.447a6.586,6.586,0,0,0,1.015,3.869A3.28,3.28,0,0,0,15.166-1.4a3.789,3.789,0,0,0,2.517-.743,4.125,4.125,0,0,0,1.164-2.589ZM31.951-6.9h-6.47V-1.61H33V0H23.512V-14.93h9.382v1.61H25.481v4.809h6.47Zm7.9.246A9.257,9.257,0,0,1,36.16-8.444a3.419,3.419,0,0,1-1.154-2.62,3.611,3.611,0,0,1,1.41-2.917,5.6,5.6,0,0,1,3.666-1.154,6.116,6.116,0,0,1,2.743.595A4.51,4.51,0,0,1,44.692-12.9a4.2,4.2,0,0,1,.661,2.287H43.374a2.73,2.73,0,0,0-.861-2.135,3.5,3.5,0,0,0-2.43-.777,3.586,3.586,0,0,0-2.271.642A2.142,2.142,0,0,0,37-11.1a1.927,1.927,0,0,0,.774,1.546A7.593,7.593,0,0,0,40.406-8.4a12.227,12.227,0,0,1,2.912,1.155,4.419,4.419,0,0,1,1.559,1.471,3.756,3.756,0,0,1,.508,1.979A3.488,3.488,0,0,1,43.969-.887,6.033,6.033,0,0,1,40.185.205a7.018,7.018,0,0,1-2.871-.59A4.832,4.832,0,0,1,35.258-2a3.941,3.941,0,0,1-.723-2.328h1.979a2.571,2.571,0,0,0,1,2.138,4.21,4.21,0,0,0,2.671.784,3.87,3.87,0,0,0,2.389-.636A2.065,2.065,0,0,0,43.4-3.773a2.027,2.027,0,0,0-.769-1.7A8.866,8.866,0,0,0,39.847-6.655Z" transform="translate(691 1297)" fill="#12263f"/>
      <path id="Trazado_773811" data-name="Trazado 773811" d="M59,0c32.585,0,59,26.191,59,58.5S91.585,117,59,117,0,90.809,0,58.5,26.415,0,59,0Z" transform="translate(633 1145)" fill="#ea526f"/>
      <path id="Trazado_773812" data-name="Trazado 773812" d="M53,0c29.271,0,53,23.505,53,52.5S82.271,105,53,105,0,81.495,0,52.5,23.729,0,53,0Z" transform="translate(639 1151)" fill="#effefe"/>
      <path id="Trazado_772499" data-name="Trazado 772499" d="M1867.817,1247.725c-5.809.088-12.832-1.661-19.459-5.069-2.951-1.518-3.256-2.315-1.822-5.324q9.584-20.1,19.227-40.172a5.3,5.3,0,0,0,.018-5.2c-1.43-2.742-2.635-5.6-4.016-8.371a7.989,7.989,0,0,0-1.44-1.6,8.312,8.312,0,0,0-1.422,1.647q-6.306,13.122-12.533,26.283-4.762,10.007-9.534,20.009c-1.149,2.4-1.936,2.515-3.524.46a46.271,46.271,0,0,1-10-26.192,46.445,46.445,0,0,1,31.244-46.909c1.856-.655,2.9-.218,3.788,1.675q16.531,35.152,33.207,70.236c1.231,2.6,2.431,5.217,3.685,7.808.852,1.762.511,2.969-1.258,4.01C1886.179,1245.609,1878.6,1247.734,1867.817,1247.725Z" transform="translate(-1178.06 2.386)" fill="#0071cd"/>
      <path id="Trazado_772500" data-name="Trazado 772500" d="M1937.676,1152.2c17.038,1.963,30.037,10.243,37.61,25.719,7.932,16.208,6.464,32.164-3.462,47.268-1.546,2.353-2.476,2.207-3.707-.388q-16.6-35-33.211-70C1933.733,1152.323,1933.983,1152.088,1937.676,1152.2Z" transform="translate(-1242.116 5.17)" fill="#0071cd"/>
      <g id="Trazado_773805" data-name="Trazado 773805" transform="translate(805 1096)" fill="#fff">
        <path d="M 171 255.5 L 17 255.5 C 12.59270000457764 255.5 8.449166297912598 253.7837066650391 5.332733154296875 250.6672668457031 C 2.216300010681152 247.5508270263672 0.5 243.4073028564453 0.5 239 L 0.5 17 C 0.5 12.59270000457764 2.216300010681152 8.449166297912598 5.332733154296875 5.332733154296875 C 8.449166297912598 2.216300010681152 12.59270000457764 0.5 17 0.5 L 171 0.5 C 175.4073028564453 0.5 179.5508270263672 2.216300010681152 182.6672668457031 5.332733154296875 C 185.7837066650391 8.449166297912598 187.5 12.59270000457764 187.5 17 L 187.5 239 C 187.5 243.4073028564453 185.7837066650391 247.5508270263672 182.6672668457031 250.6672668457031 C 179.5508270263672 253.7837066650391 175.4073028564453 255.5 171 255.5 Z" stroke="none"/>
        <path d="M 17 1 C 12.72622680664062 1 8.708297729492188 2.664306640625 5.686294555664062 5.686294555664062 C 2.664306640625 8.708297729492188 1 12.72622680664062 1 17 L 1 239 C 1 243.2737731933594 2.664306640625 247.2917022705078 5.686294555664062 250.3137054443359 C 8.708297729492188 253.335693359375 12.72622680664062 255 17 255 L 171 255 C 175.2737731933594 255 179.2917022705078 253.335693359375 182.3137054443359 250.3137054443359 C 185.335693359375 247.2917022705078 187 243.2737731933594 187 239 L 187 17 C 187 12.72622680664062 185.335693359375 8.708297729492188 182.3137054443359 5.686294555664062 C 179.2917022705078 2.664306640625 175.2737731933594 1 171 1 L 17 1 M 17 0 L 171 0 C 180.3888397216797 0 188 7.611160278320312 188 17 L 188 239 C 188 248.3888397216797 180.3888397216797 256 171 256 L 17 256 C 7.611160278320312 256 0 248.3888397216797 0 239 L 0 17 C 0 7.611160278320312 7.611160278320312 0 17 0 Z" stroke="none" fill="#9f0925"/>
      </g>
      <path id="Trazado_773813" data-name="Trazado 773813" d="M-27.178-2.062A4.944,4.944,0,0,1-29.46-.36a8.924,8.924,0,0,1-3.421.575A5.357,5.357,0,0,1-35.567-.5a4.75,4.75,0,0,1-1.8-1.971,7.293,7.293,0,0,1-.752-2.917,15.511,15.511,0,0,1,.317-3.459,10.773,10.773,0,0,1,1.37-3.771,6.863,6.863,0,0,1,2.444-2.428,6.418,6.418,0,0,1,3.357-.806,4.936,4.936,0,0,1,3.475,1.294,5.289,5.289,0,0,1,1.477,3.518h-2a3.579,3.579,0,0,0-.892-2.285,2.978,2.978,0,0,0-2.138-.841,4.117,4.117,0,0,0-3.378,1.453,8.437,8.437,0,0,0-1.789,4.466l-.2,1.506-.032.818a5.362,5.362,0,0,0,.87,3.277,2.93,2.93,0,0,0,2.438,1.178,5.066,5.066,0,0,0,3.6-1.117l.645-3.513h-3.523l.3-1.687h5.5Zm12.8-5.167h-6.574l-.967,5.543h7.648L-14.566,0h-9.657l2.718-15.641h9.55l-.3,1.687h-7.53l-.87,5.038h6.574Zm9.109.913H-8.873L-9.969,0H-12l2.718-15.641,4.705.011A5.244,5.244,0,0,1-.827-14.382,3.892,3.892,0,0,1,.258-11.016,4.456,4.456,0,0,1-.811-8.424a5.839,5.839,0,0,1-2.53,1.688l2.428,6.6L-.924,0H-3.072Zm-3.319-1.7L-5.618-8a4.141,4.141,0,0,0,2.61-.822,3.2,3.2,0,0,0,1.246-2.2A2.526,2.526,0,0,0-2.3-13.127a2.87,2.87,0,0,0-2.127-.806l-3.126-.011ZM1.257,0,3.975-15.641l4.587.011a5.215,5.215,0,0,1,3.588,1.074,3.438,3.438,0,0,1,1.042,3Q13-9.313,10.366-8.175a2.911,2.911,0,0,1,1.574,1.4A3.9,3.9,0,0,1,12.364-4.6a4.562,4.562,0,0,1-1.7,3.357A6.127,6.127,0,0,1,6.692,0ZM4.544-7.315,3.566-1.7l3.19.011a3.822,3.822,0,0,0,2.449-.783,3.049,3.049,0,0,0,1.149-2.112,2.5,2.5,0,0,0-.44-1.973A2.4,2.4,0,0,0,8.057-7.3Zm.29-1.654,2.911.011a3.75,3.75,0,0,0,2.3-.7,2.743,2.743,0,0,0,1.1-1.927,1.967,1.967,0,0,0-.446-1.722,2.854,2.854,0,0,0-1.939-.635l-3.072-.011ZM24.5-7.229H17.929l-.967,5.543H24.61L24.31,0H14.652L17.37-15.641h9.55l-.3,1.687h-7.53l-.87,5.038h6.574Zm9.109.913H30L28.907,0h-2.03l2.718-15.641,4.705.011a5.244,5.244,0,0,1,3.749,1.248,3.892,3.892,0,0,1,1.085,3.366,4.456,4.456,0,0,1-1.069,2.592,5.839,5.839,0,0,1-2.53,1.688l2.428,6.6L37.952,0H35.8Zm-3.319-1.7L33.258-8a4.141,4.141,0,0,0,2.61-.822,3.2,3.2,0,0,0,1.246-2.2,2.526,2.526,0,0,0-.537-2.105,2.87,2.87,0,0,0-2.127-.806l-3.126-.011Z" transform="translate(896 1296.999)" fill="#12263f"/>
      <path id="Trazado_773814" data-name="Trazado 773814" d="M58.5,0A58.5,58.5,0,1,1,0,58.5,58.5,58.5,0,0,1,58.5,0Z" transform="translate(841 1144)" fill="#7897ea"/>
      <path id="Trazado_773815" data-name="Trazado 773815" d="M52.5,0A52.5,52.5,0,1,1,0,52.5,52.5,52.5,0,0,1,52.5,0Z" transform="translate(846 1150)" fill="#effefe"/>
      <path id="Trazado_772501" data-name="Trazado 772501" d="M1891.1,1606.567l-.3-.251h0c-.289-.292-4.8-4.825-6.715-6.853a2.923,2.923,0,0,0-2.357-.966q-21.144.042-42.288.023c-.47,0-.94.052-1.41.079-.635.056-.4.56-.4.871-.014,9.96,0,19.92-.027,29.879,0,.811.245,1.053,1.05,1.051,10.906-.021,21.813-.011,32.719-.026.35,0,.922.274.963-.458q.029-5.787.053-11.575c0-.256.084-.591-.334-.646h0c-.519-.021-1.037-.061-1.555-.061q-9.437-.007-18.872-.01a.884.884,0,0,1-.326-.073,1.623,1.623,0,0,1-.974-1.479,36.172,36.172,0,0,1,.139-4.743l.012-.01c8.953.008,17.906.034,26.859,0,1.053,0,1.349.245,1.342,1.324q-.075,11.375,0,22.751c.01,1.2-.4,1.363-1.449,1.361q-22.25-.046-44.5.006c-1.132,0-1.4-.307-1.4-1.413q.06-21.471.031-42.942a.3.3,0,0,0,.142-.209c.031-.013.063-.025.093-.035a3.329,3.329,0,0,0,1.166.041q21.141.013,42.282.006a4.848,4.848,0,0,0,1.131-.04c.22-.053.245-.246.111-.437-.169-.087-8.73-8.691-12.159-12.087h0c-.432-.441-.985-.245-1.481-.245q-19.16-.017-38.32,0a17.264,17.264,0,0,0-2.769.427h0a3.561,3.561,0,0,0-2.731,2.763c.018.425.055,41.736.052,61.966,0,.661-.04,1.322-.062,1.982.155,1.875,2.695,3.218,4.927,3.22q31.277.03,62.554.008a4.792,4.792,0,0,0,4.879-3.814C1891.156,1645.473,1891.1,1619.221,1891.1,1606.567Z" transform="translate(-953.26 -413.914)" fill="#f3aa14"/>
      <g id="Trazado_773806" data-name="Trazado 773806" transform="translate(1022 1096)" fill="#fff">
        <path d="M 171 255.5 L 17 255.5 C 12.59270000457764 255.5 8.449166297912598 253.7837066650391 5.332733154296875 250.6672668457031 C 2.216300010681152 247.5508270263672 0.5 243.4073028564453 0.5 239 L 0.5 17 C 0.5 12.59270000457764 2.216300010681152 8.449166297912598 5.332733154296875 5.332733154296875 C 8.449166297912598 2.216300010681152 12.59270000457764 0.5 17 0.5 L 171 0.5 C 175.4073028564453 0.5 179.5508270263672 2.216300010681152 182.6672668457031 5.332733154296875 C 185.7837066650391 8.449166297912598 187.5 12.59270000457764 187.5 17 L 187.5 239 C 187.5 243.4073028564453 185.7837066650391 247.5508270263672 182.6672668457031 250.6672668457031 C 179.5508270263672 253.7837066650391 175.4073028564453 255.5 171 255.5 Z" stroke="none"/>
        <path d="M 17 1 C 12.72622680664062 1 8.708297729492188 2.664306640625 5.686294555664062 5.686294555664062 C 2.664306640625 8.708297729492188 1 12.72622680664062 1 17 L 1 239 C 1 243.2737731933594 2.664306640625 247.2917022705078 5.686294555664062 250.3137054443359 C 8.708297729492188 253.335693359375 12.72622680664062 255 17 255 L 171 255 C 175.2737731933594 255 179.2917022705078 253.335693359375 182.3137054443359 250.3137054443359 C 185.335693359375 247.2917022705078 187 243.2737731933594 187 239 L 187 17 C 187 12.72622680664062 185.335693359375 8.708297729492188 182.3137054443359 5.686294555664062 C 179.2917022705078 2.664306640625 175.2737731933594 1 171 1 L 17 1 M 17 0 L 171 0 C 180.3888397216797 0 188 7.611160278320312 188 17 L 188 239 C 188 248.3888397216797 180.3888397216797 256 171 256 L 17 256 C 7.611160278320312 256 0 248.3888397216797 0 239 L 0 17 C 0 7.611160278320312 7.611160278320312 0 17 0 Z" stroke="none" fill="#9f0925"/>
      </g>
      <path id="Trazado_773816" data-name="Trazado 773816" d="M-35.8-1.687h7.412V0h-9.485V-15.641H-35.8Zm18.605-5.543h-6.778v5.543H-16.1V0h-9.937V-15.641H-16.2v1.687h-7.767v5.038h6.778ZM-2.025-4.963a5.754,5.754,0,0,1-1.832,3.83A6,6,0,0,1-7.955.215,5.511,5.511,0,0,1-12.4-1.772a8,8,0,0,1-1.67-5.317v-1.5a8.911,8.911,0,0,1,.779-3.835,5.817,5.817,0,0,1,2.208-2.541,6.147,6.147,0,0,1,3.309-.886,5.652,5.652,0,0,1,4,1.391,5.823,5.823,0,0,1,1.751,3.851H-4.1a4.494,4.494,0,0,0-1.166-2.715,3.526,3.526,0,0,0-2.508-.84,3.69,3.69,0,0,0-3.1,1.462,6.712,6.712,0,0,0-1.123,4.161V-7.03A6.9,6.9,0,0,0-10.93-2.977,3.436,3.436,0,0,0-7.955-1.472,3.969,3.969,0,0,0-5.317-2.25,4.322,4.322,0,0,0-4.1-4.963Zm13.31-8.991H6.257V0H4.206V-13.954H-.811v-1.687h12.1Zm8.057,7.627H15.667V0H13.594V-15.641h5.178a6.128,6.128,0,0,1,4.066,1.2,4.329,4.329,0,0,1,1.423,3.5,4.211,4.211,0,0,1-.79,2.546,4.713,4.713,0,0,1-2.2,1.622L24.949-.129V0H22.736ZM15.667-8.014h3.169a3.574,3.574,0,0,0,2.444-.8,2.693,2.693,0,0,0,.908-2.131,2.836,2.836,0,0,0-.865-2.228,3.662,3.662,0,0,0-2.5-.786H15.667Zm20.12,3.921H29.235L27.763,0H25.636l5.973-15.641h1.8L39.4,0H37.281Zm-5.93-1.687h5.317l-2.664-7.315Z" transform="translate(1118 1296.999)" fill="#12263f"/>
      <path id="Trazado_773817" data-name="Trazado 773817" d="M58,0c32.033,0,58,26.191,58,58.5S90.033,117,58,117,0,90.809,0,58.5,25.967,0,58,0Z" transform="translate(1058 1144)" fill="#0ce6ea"/>
      <path id="Trazado_773818" data-name="Trazado 773818" d="M52.5,0A52.5,52.5,0,1,1,0,52.5,52.5,52.5,0,0,1,52.5,0Z" transform="translate(1064 1150)" fill="#effefe"/>
      <path id="Trazado_773819" data-name="Trazado 773819" d="M0,0H56.537V11.269H0Z" transform="translate(1089.411 1163.229)" fill="#a22428"/>
      <path id="Trazado_772502" data-name="Trazado 772502" d="M1752.832,1654.46v-23.08h23.292v-10.8h-34.091v44.678h56.536v-10.8Z" transform="translate(-652.621 -423.003)" fill="#0c0c0e"/>
    </g>
  </g>
</svg>
