<svg xmlns="http://www.w3.org/2000/svg" xmlns:xlink="http://www.w3.org/1999/xlink" width="85" height="85" viewBox="0 0 85 85">
  <defs>
    <linearGradient id="linear-gradient" x1="0.5" x2="0.5" y2="1" gradientUnits="objectBoundingBox">
      <stop offset="0" stop-color="#0075a4"/>
      <stop offset="0.263" stop-color="#0075a4"/>
      <stop offset="0.498" stop-color="#25ced1"/>
      <stop offset="0.745" stop-color="#ea526f"/>
      <stop offset="1" stop-color="#ff8a5b"/>
    </linearGradient>
  </defs>
  <g id="Grupo_1052683" data-name="Grupo 1052683" transform="translate(2705 8118)">
    <g id="Grupo_1052824" data-name="Grupo 1052824">
      <g id="Grupo_1052804" data-name="Grupo 1052804">
        <g id="Grupo_1052803" data-name="Grupo 1052803">
          <g id="Grupo_1052802" data-name="Grupo 1052802">
            <g id="Elipse_8048" data-name="Elipse 8048" transform="translate(-2705 -8118)" fill="#fff" stroke="#25ced1" stroke-width="4">
              <circle cx="42.5" cy="42.5" r="42.5" stroke="none"/>
              <circle cx="42.5" cy="42.5" r="40.5" fill="none"/>
            </g>
          </g>
        </g>
      </g>
    </g>
    <g id="Grupo_1043322" data-name="Grupo 1043322" transform="translate(-2691 -8104)">
      <g id="Grupo_70370" data-name="Grupo 70370">
        <g id="Grupo_70315" data-name="Grupo 70315" transform="translate(31.098 11.636)">
          <g id="Grupo_70305" data-name="Grupo 70305" transform="translate(0 9.963)">
            <g id="Grupo_70302" data-name="Grupo 70302" transform="translate(0 0.601)">
              <path id="Trazado_107237" data-name="Trazado 107237" d="M757.186,251.892v1.061l25.166,14.528V266.42Z" transform="translate(-757.186 -251.892)" fill="#9cafab"/>
            </g>
            <g id="Grupo_70303" data-name="Grupo 70303">
              <path id="Trazado_107238" data-name="Trazado 107238" d="M757.186,250.789l1.042-.6,25.166,14.528-1.042.6Z" transform="translate(-757.186 -250.188)" fill="#bdd4cf"/>
            </g>
            <g id="Grupo_70304" data-name="Grupo 70304" transform="translate(25.166 14.528)">
              <path id="Trazado_107239" data-name="Trazado 107239" d="M828.524,293.032l1.042-.595V291.37l-1.042.6Z" transform="translate(-828.524 -291.37)" fill="#5b6664"/>
            </g>
          </g>
          <g id="Grupo_70308" data-name="Grupo 70308" transform="translate(3.616)">
            <g id="Grupo_70306" data-name="Grupo 70306">
              <path id="Trazado_107240" data-name="Trazado 107240" d="M768.255,222.551v12.437l-.7-.406V222.145Z" transform="translate(-767.51 -222.075)" fill="#fff"/>
              <path id="Trazado_107241" data-name="Trazado 107241" d="M768.221,234.931l-.785-.453v-12.53l.785.453Zm-.7-.5.623.36V222.447l-.623-.36Z" transform="translate(-767.436 -221.947)" fill="#231f20"/>
            </g>
            <g id="Grupo_70307" data-name="Grupo 70307" transform="translate(0.704)">
              <path id="Trazado_107242" data-name="Trazado 107242" d="M770.25,222.145v12.437l-.7.406V222.551Z" transform="translate(-769.506 -222.075)" fill="#fff"/>
              <path id="Trazado_107243" data-name="Trazado 107243" d="M769.432,234.931V222.4l.785-.453v12.53Zm.08-12.484v12.344l.623-.36V222.086Z" transform="translate(-769.432 -221.947)" fill="#231f20"/>
            </g>
          </g>
          <g id="Grupo_70311" data-name="Grupo 70311" transform="translate(11.829 4.73)">
            <g id="Grupo_70309" data-name="Grupo 70309">
              <path id="Trazado_107244" data-name="Trazado 107244" d="M791.536,235.96V248.4l-.7-.406V235.554Z" transform="translate(-790.792 -235.484)" fill="#fff"/>
              <path id="Trazado_107245" data-name="Trazado 107245" d="M791.5,248.34l-.785-.453V235.356l.785.453Zm-.7-.5.623.36V235.856l-.623-.36Z" transform="translate(-790.718 -235.356)" fill="#231f20"/>
            </g>
            <g id="Grupo_70310" data-name="Grupo 70310" transform="translate(0.704)">
              <path id="Trazado_107246" data-name="Trazado 107246" d="M793.532,235.554v12.437l-.7.406V235.96Z" transform="translate(-792.787 -235.484)" fill="#fff"/>
              <path id="Trazado_107247" data-name="Trazado 107247" d="M792.713,248.34V235.809l.785-.453v12.531Zm.081-12.484V248.2l.623-.36V235.5Z" transform="translate(-792.713 -235.356)" fill="#231f20"/>
            </g>
          </g>
          <g id="Grupo_70314" data-name="Grupo 70314" transform="translate(20.083 9.531)">
            <g id="Grupo_70312" data-name="Grupo 70312">
              <path id="Trazado_107248" data-name="Trazado 107248" d="M814.818,249.37v12.437l-.7-.406V248.964Z" transform="translate(-814.114 -248.964)" fill="#9cafab"/>
            </g>
            <g id="Grupo_70313" data-name="Grupo 70313" transform="translate(0.704)">
              <path id="Trazado_107249" data-name="Trazado 107249" d="M816.814,248.964V261.4l-.7.406V249.37Z" transform="translate(-816.11 -248.964)" fill="#5b6664"/>
            </g>
          </g>
        </g>
        <g id="Grupo_70329" data-name="Grupo 70329" transform="translate(0 29.652)">
          <g id="Grupo_70319" data-name="Grupo 70319" transform="translate(0 9.893)">
            <g id="Grupo_70316" data-name="Grupo 70316" transform="translate(0 0.601)">
              <path id="Trazado_107250" data-name="Trazado 107250" d="M669.033,302.765v1.061L694.2,318.354v-1.061Z" transform="translate(-669.033 -302.765)" fill="#9cafab"/>
            </g>
            <g id="Grupo_70317" data-name="Grupo 70317">
              <path id="Trazado_107251" data-name="Trazado 107251" d="M669.033,301.662l1.042-.6,25.166,14.528-1.042.6Z" transform="translate(-669.033 -301.061)" fill="#bdd4cf"/>
            </g>
            <g id="Grupo_70318" data-name="Grupo 70318" transform="translate(25.166 14.528)">
              <path id="Trazado_107252" data-name="Trazado 107252" d="M740.371,343.905l1.042-.595v-1.067l-1.042.6Z" transform="translate(-740.371 -342.243)" fill="#5b6664"/>
            </g>
          </g>
          <g id="Grupo_70322" data-name="Grupo 70322" transform="translate(3.656)">
            <g id="Grupo_70320" data-name="Grupo 70320">
              <path id="Trazado_107253" data-name="Trazado 107253" d="M680.1,273.424v12.437l-.7-.406V273.017Z" transform="translate(-679.397 -273.017)" fill="#9cafab"/>
            </g>
            <g id="Grupo_70321" data-name="Grupo 70321" transform="translate(0.704)">
              <path id="Trazado_107254" data-name="Trazado 107254" d="M682.1,273.017v12.437l-.7.406V273.424Z" transform="translate(-681.393 -273.017)" fill="#5b6664"/>
            </g>
          </g>
          <g id="Grupo_70325" data-name="Grupo 70325" transform="translate(11.87 4.731)">
            <g id="Grupo_70323" data-name="Grupo 70323">
              <path id="Trazado_107255" data-name="Trazado 107255" d="M703.383,286.833v12.437l-.7-.406V286.427Z" transform="translate(-702.679 -286.427)" fill="#9cafab"/>
            </g>
            <g id="Grupo_70324" data-name="Grupo 70324" transform="translate(0.704)">
              <path id="Trazado_107256" data-name="Trazado 107256" d="M705.379,286.427v12.437l-.7.406V286.833Z" transform="translate(-704.675 -286.427)" fill="#5b6664"/>
            </g>
          </g>
          <g id="Grupo_70328" data-name="Grupo 70328" transform="translate(20.083 9.461)">
            <g id="Grupo_70326" data-name="Grupo 70326">
              <path id="Trazado_107257" data-name="Trazado 107257" d="M726.665,300.243V312.68l-.7-.406V299.836Z" transform="translate(-725.961 -299.836)" fill="#9cafab"/>
            </g>
            <g id="Grupo_70327" data-name="Grupo 70327" transform="translate(0.704)">
              <path id="Trazado_107258" data-name="Trazado 107258" d="M728.661,299.836v12.437l-.7.406V300.243Z" transform="translate(-727.957 -299.836)" fill="#5b6664"/>
            </g>
          </g>
        </g>
        <g id="Grupo_70333" data-name="Grupo 70333" transform="translate(31.058 8.289)">
          <g id="Grupo_70330" data-name="Grupo 70330" transform="translate(0 0.531)">
            <path id="Trazado_107259" data-name="Trazado 107259" d="M757.186,214.164v1.061l25.166,14.528v-1.061Z" transform="translate(-757.146 -214.094)" fill="#fff"/>
            <path id="Trazado_107260" data-name="Trazado 107260" d="M782.319,229.694l-.061-.035-25.186-14.54v-1.154l.06.035,25.187,14.54Zm-25.167-14.621,25.086,14.482v-.968l-25.086-14.481Z" transform="translate(-757.072 -213.966)" fill="#231f20"/>
          </g>
          <g id="Grupo_70331" data-name="Grupo 70331" transform="translate(0.04)">
            <path id="Trazado_107261" data-name="Trazado 107261" d="M757.186,213.061l1.042-.6,25.166,14.528-1.042.6Z" transform="translate(-757.186 -212.459)" fill="#bdd4cf"/>
          </g>
          <g id="Grupo_70332" data-name="Grupo 70332" transform="translate(25.207 14.528)">
            <path id="Trazado_107262" data-name="Trazado 107262" d="M828.524,255.3l1.042-.595v-1.067l-1.042.6Z" transform="translate(-828.524 -253.642)" fill="#5b6664"/>
          </g>
        </g>
        <g id="Grupo_70340" data-name="Grupo 70340" transform="translate(1.042 8.89)">
          <g id="Grupo_70336" data-name="Grupo 70336">
            <g id="Grupo_70334" data-name="Grupo 70334" transform="translate(12.166 7.024)">
              <path id="Trazado_107263" data-name="Trazado 107263" d="M736.529,235.135l-30.057,17.352v-1.061l30.057-17.352Z" transform="translate(-706.472 -234.074)" fill="#b3a584"/>
            </g>
            <g id="Grupo_70335" data-name="Grupo 70335">
              <path id="Trazado_107264" data-name="Trazado 107264" d="M714.209,221.187l-30.057,17.352-12.166-7.024,30.057-17.352Z" transform="translate(-671.986 -214.163)" fill="#f3e8cc"/>
            </g>
          </g>
          <g id="Grupo_70339" data-name="Grupo 70339" transform="translate(13.001 7.504)">
            <g id="Grupo_70337" data-name="Grupo 70337" transform="translate(12.166 7.024)">
              <path id="Trazado_107265" data-name="Trazado 107265" d="M773.381,256.406l-30.057,17.352V272.7l30.057-17.352Z" transform="translate(-743.324 -255.345)" fill="#b3a584"/>
            </g>
            <g id="Grupo_70338" data-name="Grupo 70338">
              <path id="Trazado_107266" data-name="Trazado 107266" d="M751.061,242.458,721,259.81l-12.166-7.024L738.9,235.434Z" transform="translate(-708.838 -235.434)" fill="#f3e8cc"/>
            </g>
          </g>
        </g>
        <g id="Grupo_70343" data-name="Grupo 70343" transform="translate(33.711 0.079)">
          <g id="Grupo_70342" data-name="Grupo 70342">
            <g id="Grupo_70341" data-name="Grupo 70341">
              <path id="Trazado_107267" data-name="Trazado 107267" d="M768.991,202.229a.229.229,0,0,1-.115-.031l-4.169-2.407a.229.229,0,0,1-.115-.2V189.416a.229.229,0,1,1,.459,0V199.46l4.055,2.341a.23.23,0,0,1-.115.428Z" transform="translate(-764.592 -189.187)" fill="#9cafab"/>
            </g>
          </g>
        </g>
        <g id="Grupo_70344" data-name="Grupo 70344" transform="translate(3.594 2.624)" style="isolation: isolate">
          <path id="Trazado_107268" data-name="Trazado 107268" d="M714.21,208.179a16.541,16.541,0,0,1-6.933-7.806l-1.7-3.97L679.22,211.588l1.7,3.97a16.547,16.547,0,0,0,6.933,7.807l10.483,6.053,26.354-15.186Z" transform="translate(-679.22 -196.402)" fill="url(#linear-gradient)"/>
        </g>
        <g id="Grupo_70348" data-name="Grupo 70348" transform="translate(0 26.235)">
          <g id="Grupo_70345" data-name="Grupo 70345" transform="translate(0 0.601)">
            <path id="Trazado_107269" data-name="Trazado 107269" d="M669.033,265.036V266.1L694.2,280.625v-1.061Z" transform="translate(-669.033 -265.036)" fill="#9cafab"/>
          </g>
          <g id="Grupo_70346" data-name="Grupo 70346">
            <path id="Trazado_107270" data-name="Trazado 107270" d="M669.033,263.934l1.042-.6,25.166,14.528-1.042.6Z" transform="translate(-669.033 -263.332)" fill="#bdd4cf"/>
          </g>
          <g id="Grupo_70347" data-name="Grupo 70347" transform="translate(25.166 14.528)">
            <path id="Trazado_107271" data-name="Trazado 107271" d="M740.371,306.177l1.042-.595v-1.067l-1.042.6Z" transform="translate(-740.371 -304.515)" fill="#5b6664"/>
          </g>
        </g>
        <g id="Grupo_70359" data-name="Grupo 70359" transform="translate(3.357)">
          <g id="Grupo_70350" data-name="Grupo 70350" transform="translate(27.14 0.788)">
            <g id="Grupo_70349" data-name="Grupo 70349">
              <path id="Trazado_107272" data-name="Trazado 107272" d="M755.766,193.806l3.6-2.077a.285.285,0,0,0-.143-.531.287.287,0,0,0-.143.038l-3.6,2.076A1.3,1.3,0,0,0,755.766,193.806Z" transform="translate(-755.483 -191.197)" fill="#bdd4cf"/>
            </g>
          </g>
          <g id="Grupo_70358" data-name="Grupo 70358">
            <g id="Grupo_70355" data-name="Grupo 70355" transform="translate(0 15.186)">
              <g id="Grupo_70353" data-name="Grupo 70353">
                <g id="Grupo_70351" data-name="Grupo 70351">
                  <path id="Trazado_107273" data-name="Trazado 107273" d="M682.488,235.693c0,1.256-.882,1.765-1.969,1.137a4.354,4.354,0,0,1-1.97-3.412c0-1.256.882-1.765,1.97-1.137A4.353,4.353,0,0,1,682.488,235.693Z" transform="translate(-678.549 -232.013)" fill="#118dbf"/>
                </g>
                <g id="Grupo_70352" data-name="Grupo 70352" transform="translate(1.421 1.835)">
                  <path id="Trazado_107274" data-name="Trazado 107274" d="M683.675,238.239c0,.35-.246.491-.549.317a1.213,1.213,0,0,1-.548-.95c0-.35.246-.491.548-.316A1.212,1.212,0,0,1,683.675,238.239Z" transform="translate(-682.578 -237.215)" fill="#440301"/>
                </g>
              </g>
              <g id="Grupo_70354" data-name="Grupo 70354" transform="translate(1.421 1.838)">
                <path id="Trazado_107275" data-name="Trazado 107275" d="M683.5,238.29a1.212,1.212,0,0,1-.549-.95.641.641,0,0,1,.01-.108c-.221-.046-.382.1-.382.38a1.213,1.213,0,0,0,.548.95c.269.155.492.06.539-.209A.562.562,0,0,1,683.5,238.29Z" transform="translate(-682.578 -237.224)" fill="#a90d01"/>
              </g>
            </g>
            <g id="Grupo_70357" data-name="Grupo 70357" transform="translate(0.578)">
              <g id="Grupo_70356" data-name="Grupo 70356">
                <path id="Trazado_107276" data-name="Trazado 107276" d="M709.9,192.643a4.353,4.353,0,0,0-1.97-3.411,1.4,1.4,0,0,0-1.371-.148h0l-.017.01-.008,0-26.346,15.184a1.385,1.385,0,0,1,1.392.138,4.353,4.353,0,0,1,1.97,3.411,1.41,1.41,0,0,1-.535,1.246v0l26.279-15.146.054-.031.032-.018v0A1.42,1.42,0,0,0,709.9,192.643Z" transform="translate(-680.187 -188.964)" fill="#035b7e"/>
              </g>
            </g>
          </g>
        </g>
        <g id="Grupo_70361" data-name="Grupo 70361" transform="translate(3.654 17.472)">
          <g id="Grupo_70360" data-name="Grupo 70360">
            <path id="Trazado_107277" data-name="Trazado 107277" d="M683.79,251.532a.231.231,0,0,1-.114-.03l-4.169-2.407a.229.229,0,0,1-.115-.2V238.72a.229.229,0,1,1,.459,0v10.043l4.055,2.341a.229.229,0,0,1-.115.428Z" transform="translate(-679.392 -238.49)" fill="#9cafab"/>
          </g>
        </g>
        <g id="Grupo_70363" data-name="Grupo 70363" transform="translate(1.804 17.276)">
          <g id="Grupo_70362" data-name="Grupo 70362">
            <path id="Trazado_107278" data-name="Trazado 107278" d="M677.887,237.937l-3.6,2.077a.285.285,0,0,0,.285.494l3.6-2.076A1.306,1.306,0,0,0,677.887,237.937Z" transform="translate(-674.147 -237.937)" fill="#bdd4cf"/>
          </g>
        </g>
        <g id="Grupo_70365" data-name="Grupo 70365" transform="translate(33.872 5.025)">
          <g id="Grupo_70364" data-name="Grupo 70364">
            <path id="Trazado_107279" data-name="Trazado 107279" d="M770.4,206.616a.225.225,0,0,1-.113-.03l-5.121-2.957a.225.225,0,0,1,.225-.39l5.121,2.957a.225.225,0,0,1-.113.42Z" transform="translate(-765.049 -203.209)" fill="#5b6664"/>
          </g>
        </g>
        <g id="Grupo_70367" data-name="Grupo 70367" transform="translate(8.949 7.984)">
          <g id="Grupo_70366" data-name="Grupo 70366">
            <path id="Trazado_107280" data-name="Trazado 107280" d="M694.626,229.438a.226.226,0,0,0,.112-.03l30.044-17.391a.225.225,0,0,0-.225-.39l-30.044,17.391a.225.225,0,0,0,.113.42Z" transform="translate(-694.401 -211.597)" fill="#9cafab"/>
          </g>
        </g>
        <g id="Grupo_70369" data-name="Grupo 70369" transform="translate(3.816 22.418)">
          <g id="Grupo_70368" data-name="Grupo 70368">
            <path id="Trazado_107281" data-name="Trazado 107281" d="M685.195,255.92a.226.226,0,0,1-.113-.03l-5.121-2.957a.225.225,0,0,1,.225-.39l5.121,2.957a.225.225,0,0,1-.113.42Z" transform="translate(-679.849 -252.513)" fill="#bdd4cf"/>
          </g>
        </g>
      </g>
    </g>
  </g>
</svg>
