<svg xmlns="http://www.w3.org/2000/svg" xmlns:xlink="http://www.w3.org/1999/xlink" width="382.842" height="307.045" viewBox="0 0 382.842 307.045">
  <defs>
    <clipPath id="clip-path">
      <path id="Trazado_107491" data-name="Trazado 107491" d="M6853.02,2011.707a.148.148,0,0,1-.1.009l-2.169-.521a.154.154,0,0,1-.011-.3l1.483-.484-.386-.791a.148.148,0,0,1-.006-.12.152.152,0,0,1,.08-.088l1.287-.594-.294-.524a.154.154,0,0,1,.063-.212l1.224-.645-.264-.412a.153.153,0,0,1-.008-.152.156.156,0,0,1,.127-.085l1.643-.127a.154.154,0,0,1,.083.29l-1.141.6.371.579a.154.154,0,0,1-.067.223l-1.3.6.514.919a.128.128,0,0,1,.027.041.154.154,0,0,1-.077.2l0,0-.018.007-1.418.463.424.869a.15.15,0,0,1,.021.034.161.161,0,0,1-.079.205Zm-1.667-.684,1.32.317-.315-.645Zm1.166-.7,1.28-.418-.452-.808-1.166.537Zm.731-2.033.228.408,1.166-.538-.288-.452Zm1.075-1.2.138.217.5-.267Z" transform="translate(-6850.632 -2006.665)" fill="#272a2d"/>
    </clipPath>
    <clipPath id="clip-path-2">
      <path id="Trazado_107500" data-name="Trazado 107500" d="M6684.621,2027.047a.155.155,0,0,1-.095-.033l-1.751-1.388a.155.155,0,0,1,.115-.275l1.548.183-.019-.884a.152.152,0,0,1,.043-.112.158.158,0,0,1,.111-.047h1.416l-.047-.6a.155.155,0,0,1,.146-.167l1.382-.073-.067-.487a.155.155,0,0,1,.208-.166l1.546.576a.155.155,0,0,1-.046.3l-1.288.069.093.684a.15.15,0,0,1-.037.122.153.153,0,0,1-.116.053h-1.438l.083,1.056a.19.19,0,0,1,.008.048.156.156,0,0,1-.156.154h-.022l-1.482-.175.022.972a.193.193,0,0,1,0,.039.161.161,0,0,1-.157.154Zm-1.227-1.325,1.065.845-.015-.721Zm1.354-.152,1.338.157-.072-.927h-1.283Zm1.515-1.547.037.467h1.284l-.073-.534Zm1.481-.647.035.257.57-.031Z" transform="translate(-6682.716 -2022.986)" fill="#272a2d"/>
    </clipPath>
  </defs>
  <g id="Grupo_1043336" data-name="Grupo 1043336" transform="translate(-5039.137 -660.988)">
    <path id="Trazado_107372" data-name="Trazado 107372" d="M5057.372,1718.445s-26.09,1.053-15.855,24.442,49.274,78.142,49.274,78.142l107.894-24.872s-9.339-28.506-10.075-33.066,98.107,49.113,98.107,49.113,18.172,14.186,45.516,0,88.044-44.472,89.7-52.67-45.8-13.485-45.8-13.485,40.186-14.745,42.717-19.392-6.895-14.328-76.052-26.919C5206.456,1689.45,5057.372,1718.445,5057.372,1718.445Z" transform="translate(0 -852.996)" fill="#809aaa"/>
    <path id="Trazado_107373" data-name="Trazado 107373" d="M6837.431,1679.863l-60.983-16.17,4.427-4.886,58.418,14.634Z" transform="translate(-1429.676 -821.13)" fill="#0059a5"/>
    <path id="Trazado_107374" data-name="Trazado 107374" d="M6749.008,1738.354l-46.087-12.546,4.427-4.886,43.522,11.01Z" transform="translate(-1369.17 -872.246)" fill="#0059a5"/>
    <path id="Trazado_107375" data-name="Trazado 107375" d="M6549.047,1373.345c-16.775-3.647-17.78-10.523-17.78-20.806a16.163,16.163,0,0,1,16.163-16.162l59.193-1.854s-16.938,3.586-18.319,19.137,16.2,22.727,16.2,22.727Z" transform="translate(-1227.911 -554.268)" fill="#dddb00"/>
    <path id="Trazado_107376" data-name="Trazado 107376" d="M6880.285,1355.508a20.986,20.986,0,1,1-20.986-20.985A20.986,20.986,0,0,1,6880.285,1355.508Z" transform="translate(-1480.587 -554.268)" fill="#b6cc00"/>
    <path id="Trazado_107377" data-name="Trazado 107377" d="M6934.567,1433.3a5.41,5.41,0,1,1,0-10.82h13.993v10.82Z" transform="translate(-1555.344 -626.649)" fill="#009ee2"/>
    <g id="Grupo_70503" data-name="Grupo 70503" transform="translate(5046.209 660.989)">
      <path id="Trazado_107378" data-name="Trazado 107378" d="M6306.573,1545.921l76.2-23.883V1477.3l8.769-7.874,6.172-17.759v-35.8h-91.138Z" transform="translate(-6089.214 -1282.196)" fill="#0059a5"/>
      <path id="Trazado_107379" data-name="Trazado 107379" d="M5848.559,1576.507,5750,1526.486v-73.452l98.555,11.221Z" transform="translate(-5631.199 -1312.782)" fill="#006fb6"/>
      <path id="Trazado_107380" data-name="Trazado 107380" d="M5958.215,1553.439l-74.959-27.752v-55.526l74.959,8.93Z" transform="translate(-5740.856 -1326.877)" fill="#0059a5"/>
      <path id="Trazado_107381" data-name="Trazado 107381" d="M5858.162,1487.953s-81.172-12.657-90.583-14.2c-8.425-1.381-7.612-11.642,1.068-10.729s89.52,10.146,89.52,10.146Z" transform="translate(-5640.808 -1320.956)" fill="#81cff4"/>
      <path id="Trazado_107382" data-name="Trazado 107382" d="M5747.43,1592.475v10.663c9.621,2.271,99,26.843,99,26.843l.005-14.783S5756.566,1594.21,5747.43,1592.475Z" transform="translate(-5629.081 -1427.532)" fill="#81cff4"/>
      <path id="Trazado_107383" data-name="Trazado 107383" d="M5747.43,1775.758v10.663c10.349,3.893,99,43.733,99,43.733l.005-14.783S5757.428,1779.105,5747.43,1775.758Z" transform="translate(-5629.081 -1578.36)" fill="#81cff4"/>
      <path id="Trazado_107384" data-name="Trazado 107384" d="M5322.443,931.782l-93.866-21.7v16.453l83.374,28.53v44.168l2.625-6.1H5331.5V943.7Z" transform="translate(-5202.104 -865.975)" fill="#006fb6"/>
      <path id="Trazado_107385" data-name="Trazado 107385" d="M5301.511,708.9s-58.865,30.813-64.767,36.53-2.148,6.5,1.785,4.174,62.982-34.2,62.982-34.2Z" transform="translate(-5206.301 -700.414)" fill="#009ee2"/>
      <path id="Trazado_107386" data-name="Trazado 107386" d="M5301.511,754.666s-58.865,30.813-64.767,36.53-2.148,6.5,1.785,4.173,62.982-34.2,62.982-34.2Z" transform="translate(-5206.301 -738.078)" fill="#009ee2"/>
      <path id="Trazado_107387" data-name="Trazado 107387" d="M5800.443,1399.643v-13.767l-101.028-10.435v12.654Z" transform="translate(-5589.569 -1248.93)" fill="#009ee2"/>
      <path id="Trazado_107388" data-name="Trazado 107388" d="M5800.443,1359.6v-9.48l-101.028-7.872v5.8Z" transform="translate(-5589.569 -1221.611)" fill="#006fb6"/>
      <path id="Trazado_107389" data-name="Trazado 107389" d="M5391.674,1802.525v17.523c0,3.923,7.061,4.08,7.061,0s.022-13.243.022-13.243l-.045-5.125Z" transform="translate(-5336.32 -1599.692)" fill="#00529d"/>
      <path id="Trazado_107390" data-name="Trazado 107390" d="M5168.9,1860.682l50.727-10.235-3.574-2.782-49.231,10.15Z" transform="translate(-5151.286 -1637.534)" fill="#807773"/>
      <g id="Grupo_70489" data-name="Grupo 70489" transform="translate(65.426 199.71)">
        <path id="Trazado_107391" data-name="Trazado 107391" d="M5462.9,1799.236c.813,6.222.381,11.408-5.558,12.184s-7.689-4.125-8.5-10.346-.162-11.436,5.558-12.183S5462.089,1793.015,5462.9,1799.236Z" transform="translate(-5448.557 -1788.814)" fill="#1d1d1b"/>
        <path id="Trazado_107392" data-name="Trazado 107392" d="M5462.338,1822.53c.51,3.907.276,7.158-.523,7.263s-1.861-2.978-2.372-6.884-.276-7.158.523-7.262S5461.828,1818.624,5462.338,1822.53Z" transform="translate(-5457.293 -1810.893)" fill="#bfb8b9"/>
      </g>
      <path id="Trazado_107393" data-name="Trazado 107393" d="M5242.347,1795.893l-2.931,6.066L5172.162,1750s-49.056,8.527-49.386,8.637l-2.542-5.992,47.857-7.822-2.487-11.094,7.82,3.6,1.957,7.914Z" transform="translate(-5112.946 -1543.773)" fill="#00529d"/>
      <path id="Trazado_107394" data-name="Trazado 107394" d="M5139.944,1385.457a30.749,30.749,0,0,1,13.75-58.25h39.917s-32.218,6.821-34.846,36.4,18.678,40.022,18.678,40.022Z" transform="translate(-5115.181 -1209.236)" fill="#dddb00"/>
      <circle id="Elipse_4477" data-name="Elipse 4477" cx="39.918" cy="39.918" r="39.918" transform="matrix(0.045, -0.999, 0.999, 0.045, 36.745, 195.956)" fill="#b6cc00"/>
      <path id="Trazado_107395" data-name="Trazado 107395" d="M5481.124,1495.795l-11.415-1.084A10.706,10.706,0,0,0,5459,1505.417c0,5.913,4.4,9.807,10.706,10.706l10.694,1.463s5.376-.484,5.376-10.2C5485.779,1496.357,5481.124,1495.795,5481.124,1495.795Z" transform="translate(-5391.727 -1347.08)" fill="#837877"/>
      <path id="Trazado_107396" data-name="Trazado 107396" d="M5540.117,1511.726a10.9,10.9,0,1,1-10.9-10.9A10.9,10.9,0,0,1,5540.117,1511.726Z" transform="translate(-5440.546 -1352.116)" fill="#aea5a3"/>
      <path id="Trazado_107397" data-name="Trazado 107397" d="M5232.12,1633.966a5.547,5.547,0,0,0-.24-2.525l-30.986-88.166-1.807.207a8.735,8.735,0,1,0-16.36,1.872l-4.4.5s-24.056,68.293-31.792,94.794l-35.563-49.045L5122,1552.7l-3.945-3.133s-9.383,28.933-12.888,41.844c.738,2.582,39.1,58.1,39.1,58.1v18.076c0,4.612,8.3,4.8,8.3,0v-16.047s57.024-9.876,71.305-12.456v14.568c0,4.611,8.3,4.8,8.3,0v-19.7Zm-77.885,8.326,29.709-89.764,12.339-1.136,27.591,78.943Z" transform="translate(-5100.545 -1378.411)" fill="#006fb6"/>
      <g id="Grupo_70490" data-name="Grupo 70490" transform="translate(0 212.203)">
        <path id="Trazado_107398" data-name="Trazado 107398" d="M5094.159,1870.065c1.031,6.489.729,11.93-5.465,12.915s-8.168-4.1-9.2-10.584-.5-11.967,5.464-12.915S5093.128,1863.576,5094.159,1870.065Z" transform="translate(-5079.076 -1859.366)" fill="#1d1d1b"/>
        <path id="Trazado_107399" data-name="Trazado 107399" d="M5093.581,1895.3c.647,4.074.5,7.484-.338,7.617s-2.034-3.063-2.682-7.138-.5-7.485.338-7.617S5092.933,1891.228,5093.581,1895.3Z" transform="translate(-5088.196 -1883.063)" fill="#bfb8b9"/>
      </g>
      <path id="Trazado_107400" data-name="Trazado 107400" d="M5576.715,1563.61a4.307,4.307,0,1,1-4.307-4.307A4.307,4.307,0,0,1,5576.715,1563.61Z" transform="translate(-5481.506 -1400.234)" fill="#009ee2"/>
      <path id="Trazado_107401" data-name="Trazado 107401" d="M5230.008,743.664s-6.571,2.552-25.177,12.72-21.86,13.47-21.86,13.47-6.914,9.217-8.021,40.2-5.5,29.8-11.712,38.273c-5.473,7.454-1.991,5.867,19.459,5.164s20.481-.7,20.481-.7-2.841-1.247,2.758-7.943c9.892-11.828,11.168-20.2,14.664-51.668C5225.581,748.36,5230.008,743.664,5230.008,743.664Z" transform="translate(-5146.444 -729.024)" fill="#b1ca07"/>
      <path id="Trazado_107402" data-name="Trazado 107402" d="M5395.722,1315.638s2.068.426,5.25-3.863a14.433,14.433,0,0,1,12.035-5.672h-13.232S5392.548,1313.69,5395.722,1315.638Z" transform="translate(-5338.989 -1191.87)" fill="#80ba27"/>
      <path id="Trazado_107403" data-name="Trazado 107403" d="M5449.2,1306.087a28.739,28.739,0,0,1,16.695,5.662c-5.007-1.658-11.062-1.925-15.719-1.925H5438.9S5442.131,1306.087,5449.2,1306.087Z" transform="translate(-5375.186 -1191.854)" fill="#4ead33"/>
      <g id="Grupo_70491" data-name="Grupo 70491" transform="translate(217.359 228.903)">
        <path id="Trazado_107404" data-name="Trazado 107404" d="M6306.573,1976.5l75.988-22.824,47.678,11.412-78.009,34.617Z" transform="translate(-6306.573 -1953.678)" fill="#006fb6"/>
        <path id="Trazado_107405" data-name="Trazado 107405" d="M6352.839,2118.151l-46.266-23.578v-12l46.266,22.9Z" transform="translate(-6306.573 -2059.75)" fill="#00529d"/>
        <path id="Trazado_107406" data-name="Trazado 107406" d="M6645.25,2031l-77.4,34.215v-12.673l77.4-34.215Z" transform="translate(-6521.583 -2006.877)" fill="#00529d"/>
      </g>
      <path id="Trazado_107407" data-name="Trazado 107407" d="M6371.008,940.333a24.443,24.443,0,0,1-4.124-.352.692.692,0,0,1,.255-1.36h0c.068.013,6.784,1.234,9.9-1.141a3.744,3.744,0,0,0,1.5-2.822,4.3,4.3,0,0,0-1.212-3.421c-1.259-1.368-3.517-2.477-6.527-3.208a29.648,29.648,0,0,0-6.39-.825.692.692,0,1,1,0-1.383,31.128,31.128,0,0,1,6.716.864c3.323.806,5.752,2.023,7.218,3.615a5.693,5.693,0,0,1,1.574,4.471,5.123,5.123,0,0,1-2.043,3.81C6376.036,939.982,6373.294,940.333,6371.008,940.333Z" transform="translate(-6136.238 -878.926)" fill="#00529d"/>
      <path id="Trazado_107408" data-name="Trazado 107408" d="M5497.86,878.352s11.712,5.719,40.042-3.715c19.58-6.291,30.363-7.657,46.047-13.077l-27.619-10.19s-33.417.7-54.127-4.208C5498.557,866.951,5497.86,878.352,5497.86,878.352Z" transform="translate(-5423.704 -814.195)" fill="#80ba27"/>
      <path id="Trazado_107409" data-name="Trazado 107409" d="M5556.029,778.443" transform="translate(-5471.572 -757.645)" fill="#4ead33"/>
      <path id="Trazado_107410" data-name="Trazado 107410" d="M5525.525,784.234a23.6,23.6,0,0,1,4.508-7.267c2.963-3.065,2.224-2.665,2.224-2.665l-5.18,2.8S5525.783,782.881,5525.525,784.234Z" transform="translate(-5446.47 -754.224)" fill="#4ead33"/>
      <path id="Trazado_107411" data-name="Trazado 107411" d="M5747.627,976.131V966.79s-88.314,18.88-100.119,22.005c-8.484,2.573-5.949,8.093,0,6.929Z" transform="translate(-5542.365 -912.64)" fill="#009ee2"/>
      <path id="Trazado_107412" data-name="Trazado 107412" d="M5622.783,933.592,5608.9,928.47s-64,17.958-75.571,21.861c-8.294,3.131-5.4,8.471.46,6.914Z" transform="translate(-5448.653 -881.106)" fill="#009ee2"/>
      <g id="Grupo_70494" data-name="Grupo 70494" transform="translate(26.473)">
        <path id="Trazado_107413" data-name="Trazado 107413" d="M5750.079,691.809l-133.327-30.82v23.369l115.665,42.674v85.437l6.484.734V778.959h24.047V708.743Z" transform="translate(-5548.016 -660.989)" fill="#006fb6"/>
        <path id="Trazado_107414" data-name="Trazado 107414" d="M5616.753,678.6v17.289s18.194,4.122,18.194,1.33V687.78C5634.947,682.461,5616.753,678.6,5616.753,678.6Z" transform="translate(-5548.017 -675.485)" fill="#81cff4"/>
        <path id="Trazado_107415" data-name="Trazado 107415" d="M5660.407,721.495c-.03,2.292-1.583,4.129-3.467,4.1s-3.388-1.9-3.357-4.2,1.583-4.129,3.467-4.1S5660.438,719.2,5660.407,721.495Z" transform="translate(-5578.325 -707.328)" fill="#006fb6"/>
        <path id="Trazado_107416" data-name="Trazado 107416" d="M5598.31,678.6s-3.969.861-3.969,9.438c0,7.124,3.969,7.851,3.969,7.851Z" transform="translate(-5529.573 -675.485)" fill="#d3ecfb"/>
        <path id="Trazado_107417" data-name="Trazado 107417" d="M5228.577,915.732s3.654-1.191,3.654,5.773c0,5.785-3.654,8.265-3.654,8.265Z" transform="translate(-5228.577 -870.56)" fill="#d3ecfb"/>
        <g id="Grupo_70492" data-name="Grupo 70492" transform="translate(162.432 25.71)">
          <path id="Trazado_107418" data-name="Trazado 107418" d="M6168.295,806.184v17.289s13.868,3.591,13.868.8v-9.442C6182.163,809.509,6168.295,806.184,6168.295,806.184Z" transform="translate(-6164.326 -806.184)" fill="#81cff4"/>
          <path id="Trazado_107419" data-name="Trazado 107419" d="M6194.883,846.11c-.03,2.292-1.583,4.129-3.467,4.1s-3.387-1.9-3.356-4.2,1.583-4.129,3.467-4.1S6194.914,843.818,6194.883,846.11Z" transform="translate(-6180.591 -835.588)" fill="#006fb6"/>
          <path id="Trazado_107420" data-name="Trazado 107420" d="M6149.853,806.184s-3.968.862-3.968,9.438c0,7.124,3.968,7.85,3.968,7.85Z" transform="translate(-6145.885 -806.184)" fill="#d3ecfb"/>
        </g>
        <g id="Grupo_70493" data-name="Grupo 70493" transform="translate(190.303 40.07)">
          <path id="Trazado_107421" data-name="Trazado 107421" d="M6307.111,892.475s.778-5.2-3.833-5.2v17.688c4.61,0,3.833-5.2,3.833-5.2s4.037.051,4.069-3.647C6311.148,892.424,6307.111,892.475,6307.111,892.475Z" transform="translate(-6303.279 -887.278)" fill="#81cff4"/>
          <path id="Trazado_107422" data-name="Trazado 107422" d="M6347.9,937.023c0,.014,0,.028,0,.042v-.086C6347.907,936.995,6347.9,937.008,6347.9,937.023Z" transform="translate(-6340.003 -928.179)" fill="#009ee2"/>
        </g>
        <path id="Trazado_107423" data-name="Trazado 107423" d="M6260.488,887.278h-4.5v5.37s-4.7-.748-4.7,3.581c0,3.88,4.6,3.421,4.6,3.421v5.315h4.6Z" transform="translate(-6070.186 -847.208)" fill="#d3ecfb"/>
        <path id="Trazado_107424" data-name="Trazado 107424" d="M6294.741,1005.175a3.228,3.228,0,0,1-3.228,3.228h-2.951a3.228,3.228,0,0,1-3.228-3.228h0a3.228,3.228,0,0,1,3.228-3.228h2.951a3.228,3.228,0,0,1,3.228,3.228Z" transform="translate(-6098.208 -941.572)" fill="#81cff4"/>
        <path id="Trazado_107425" data-name="Trazado 107425" d="M6350.467,983.821a3.228,3.228,0,0,1-3.228,3.228h-2.951a3.229,3.229,0,0,1-3.229-3.228h0a3.228,3.228,0,0,1,3.229-3.228h2.951a3.228,3.228,0,0,1,3.228,3.228Z" transform="translate(-6144.067 -923.999)" fill="#81cff4"/>
        <path id="Trazado_107426" data-name="Trazado 107426" d="M6332.32,957.626a23.128,23.128,0,0,1-3.3-.254,34.882,34.882,0,0,1-6.894-1.768.692.692,0,1,1,.5-1.289,34.14,34.14,0,0,0,6.615,1.692c3.16.455,7.385.468,9.567-2.053,2.026-2.342,2.624-4.923,1.638-7.079-.628-1.373-2.919-4.565-10.627-4.565a.692.692,0,1,1,0-1.383c5.992,0,10.324,1.958,11.886,5.373,1.22,2.67.546,5.79-1.851,8.559a8.175,8.175,0,0,1-5.01,2.572A15.333,15.333,0,0,1,6332.32,957.626Z" transform="translate(-6128.124 -891.356)" fill="#00529d"/>
      </g>
      <path id="Trazado_107427" data-name="Trazado 107427" d="M5841.239,1026.707c-1.811-12.946-7.444-62.394-7.444-62.394l-18.744-6.916-53.234,14.08s4.825,37.246,6.934,52.44c1.4,10.071,6.364,11.828,6.364,11.828l74.24,7.151S5843.084,1039.895,5841.239,1026.707Z" transform="translate(-5640.92 -904.91)" fill="#b6cc00"/>
      <path id="Trazado_107428" data-name="Trazado 107428" d="M5799.382,1101.549v-10.488l-101.256,17.4v7.061Z" transform="translate(-5588.507 -1014.907)" fill="#009ee2"/>
      <g id="Grupo_70495" data-name="Grupo 70495" transform="translate(217.359 117.97)">
        <path id="Trazado_107429" data-name="Trazado 107429" d="M6320.631,1371.77l-14.058-3.12v-41.445h14.058Z" transform="translate(-6306.573 -1327.206)" fill="#009ee2"/>
        <path id="Trazado_107430" data-name="Trazado 107430" d="M6418.774,1368.567l-32.812,3.2v-44.564h32.812Z" transform="translate(-6371.904 -1327.206)" fill="#81cff4"/>
        <path id="Trazado_107431" data-name="Trazado 107431" d="M6430.545,1371.913l-26.357,1.153v-24.255h26.357Z" transform="translate(-6386.903 -1344.986)" fill="#006fb6"/>
        <path id="Trazado_107432" data-name="Trazado 107432" d="M6442.648,1383.686l-19.72.646v-17.292h19.72Z" transform="translate(-6402.324 -1359.986)" fill="#d3ecfb"/>
        <circle id="Elipse_4478" data-name="Elipse 4478" cx="3.897" cy="3.897" r="3.897" transform="translate(17.285 32.636)" fill="#006fb6"/>
        <path id="Trazado_107433" data-name="Trazado 107433" d="M6474.017,1521.64a1.688,1.688,0,1,1-1.687-1.687A1.687,1.687,0,0,1,6474.017,1521.64Z" transform="translate(-6441.589 -1485.822)" fill="#006fb6"/>
        <path id="Trazado_107434" data-name="Trazado 107434" d="M6505.164,1519.8a1.688,1.688,0,1,1-1.687-1.687A1.687,1.687,0,0,1,6505.164,1519.8Z" transform="translate(-6467.221 -1484.311)" fill="#006fb6"/>
        <path id="Trazado_107435" data-name="Trazado 107435" d="M6534.745,1517.968a1.687,1.687,0,1,1-1.687-1.688A1.687,1.687,0,0,1,6534.745,1517.968Z" transform="translate(-6491.564 -1482.8)" fill="#006fb6"/>
        <path id="Trazado_107436" data-name="Trazado 107436" d="M6430.412,1524.458a1.95,1.95,0,0,1-1.95,1.95h-3.583a1.95,1.95,0,0,1-1.95-1.95h0a1.95,1.95,0,0,1,1.95-1.95h3.583a1.95,1.95,0,0,1,1.95,1.95Z" transform="translate(-6402.324 -1487.925)" fill="#d3ecfb"/>
      </g>
      <path id="Trazado_107437" data-name="Trazado 107437" d="M6255.081,1542.84a13.719,13.719,0,0,1-6.068-1.261,8.05,8.05,0,0,1-4.412-5.559c-.635-2.761-.128-6.235,1.506-10.326a119.677,119.677,0,0,0,6.741-21.49c1.066-5.728.881-9.862-.538-11.957a3.839,3.839,0,0,0-3.438-1.676v-1.66a5.459,5.459,0,0,1,4.813,2.406c4.131,6.1-1,22.4-6.036,34.994-2.779,6.956-2.053,11.721,2.1,13.781,2.638,1.309,6.625,1.435,10.664.339,3.854-1.046,7.03-3,8.289-5.1a15.952,15.952,0,0,0,1.862-9.427,38.693,38.693,0,0,0-2.362-10.312,67.829,67.829,0,0,0-5.581-11.662l1.406-.884a68.381,68.381,0,0,1,5.728,11.955,40.408,40.408,0,0,1,2.465,10.775,17.566,17.566,0,0,1-2.094,10.409c-1.493,2.488-4.961,4.672-9.276,5.844A22.183,22.183,0,0,1,6255.081,1542.84Z" transform="translate(-6037.997 -1342.307)" fill="#d3ecfb"/>
      <path id="Trazado_107438" data-name="Trazado 107438" d="M6278.976,1527.585a8.107,8.107,0,0,1-3.036-.6,6.358,6.358,0,0,1-3.7-3.6,11.155,11.155,0,0,1-.5-5.44c.444-3.948,2.173-8.787,3.844-13.467,1.756-4.913,3.571-9.995,3.879-13.97a9.586,9.586,0,0,0-2.092-7.364c-2.848-3.233-7.6-3.5-7.645-3.5l.081-1.658c.222.011,5.5.309,8.81,4.062a11.181,11.181,0,0,1,2.5,8.59c-.326,4.2-2.178,9.383-3.971,14.4-1.639,4.59-3.335,9.338-3.757,13.094-.443,3.946.564,6.271,3.169,7.315,1.909.766,4.837,1,7.938-2.227,5.062-5.269,7.7-17.264,3.137-27.455l1.515-.679a30.154,30.154,0,0,1,2.172,16.469c-.758,5.21-2.809,9.882-5.627,12.815A9.351,9.351,0,0,1,6278.976,1527.585Z" transform="translate(-6058.891 -1333.31)" fill="#d3ecfb"/>
      <path id="Trazado_107439" data-name="Trazado 107439" d="M6227.635,1531.5q-.432,0-.87-.02a19.614,19.614,0,0,1-11.224-4.2,15.046,15.046,0,0,1-5.583-9.581c-.641-4.323.521-9.034,3.454-14q1.116-1.889,2.2-3.72c8.065-13.594,15.031-25.333,12.285-30.155-1.028-1.806-3.468-2.685-7.459-2.685v-1.66c4.64,0,7.552,1.152,8.9,3.523,1.514,2.657.938,6.739-1.809,12.847-2.4,5.347-6.152,11.663-10.491,18.976q-1.084,1.828-2.2,3.717c-2.736,4.632-3.826,8.977-3.242,12.915a13.411,13.411,0,0,0,4.986,8.534,17.915,17.915,0,0,0,10.253,3.831,13.079,13.079,0,0,0,9.574-3.074c2.721-2.5,5.537-8.7,3.507-24.083a128.782,128.782,0,0,0-3.74-17.757l1.59-.478a130.8,130.8,0,0,1,3.8,18.017,62.52,62.52,0,0,1,.474,14.439c-.543,5.111-2.059,8.841-4.5,11.085A14.455,14.455,0,0,1,6227.635,1531.5Z" transform="translate(-6009.566 -1323.02)" fill="#d3ecfb"/>
      <g id="Grupo_70497" data-name="Grupo 70497" transform="translate(263.473 155.542)">
        <circle id="Elipse_4479" data-name="Elipse 4479" cx="11.303" cy="11.303" r="11.303" transform="translate(0 0.305) rotate(-0.774)" fill="#81cff4"/>
        <g id="Grupo_70496" data-name="Grupo 70496" transform="translate(0.152 0.152)">
          <path id="Trazado_107440" data-name="Trazado 107440" d="M6572.584,1551.547a11.3,11.3,0,0,1,8.935-11.052,11.3,11.3,0,1,0,0,22.1A11.305,11.305,0,0,1,6572.584,1551.547Z" transform="translate(-6567.849 -1540.245)" fill="#009ee2"/>
        </g>
      </g>
      <g id="Grupo_70499" data-name="Grupo 70499" transform="translate(258.788 180.313)">
        <path id="Trazado_107441" data-name="Trazado 107441" d="M6551.415,1684.715a5.442,5.442,0,1,1-5.441-5.442A5.442,5.442,0,0,1,6551.415,1684.715Z" transform="translate(-6540.532 -1679.274)" fill="#81cff4"/>
        <g id="Grupo_70498" data-name="Grupo 70498">
          <path id="Trazado_107442" data-name="Trazado 107442" d="M6542.812,1684.715a5.443,5.443,0,0,1,4.3-5.321,5.442,5.442,0,1,0,0,10.642A5.443,5.443,0,0,1,6542.812,1684.715Z" transform="translate(-6540.532 -1679.274)" fill="#009ee2"/>
        </g>
      </g>
      <g id="Grupo_70501" data-name="Grupo 70501" transform="translate(237.963 181.788)">
        <path id="Trazado_107443" data-name="Trazado 107443" d="M6433.812,1693.048a5.442,5.442,0,1,1-5.442-5.442A5.442,5.442,0,0,1,6433.812,1693.048Z" transform="translate(-6422.928 -1687.606)" fill="#81cff4"/>
        <g id="Grupo_70500" data-name="Grupo 70500">
          <path id="Trazado_107444" data-name="Trazado 107444" d="M6425.208,1693.048a5.443,5.443,0,0,1,4.3-5.321,5.442,5.442,0,1,0,0,10.643A5.443,5.443,0,0,1,6425.208,1693.048Z" transform="translate(-6422.928 -1687.606)" fill="#009ee2"/>
        </g>
      </g>
      <g id="Grupo_70502" data-name="Grupo 70502" transform="translate(244.529 209.566)">
        <path id="Trazado_107445" data-name="Trazado 107445" d="M6498.159,1850.433a6.956,6.956,0,0,1-4.814,7.1l-24.578,9.584c-4.544.122-8.278-2.815-8.572-5.9l-.159-1.674a6.957,6.957,0,0,1,4.814-7.1l27.276-7.749c2.951-.838,9.009.62,9.378,5.692Z" transform="translate(-6460.01 -1844.475)" fill="#006fb6"/>
        <path id="Trazado_107446" data-name="Trazado 107446" d="M6517.949,1859.722a6.956,6.956,0,0,1-4.813,7.1l-27.276,7.75a4.477,4.477,0,0,1-5.874-4.061l-.159-1.674a6.957,6.957,0,0,1,4.814-7.1l27.276-7.749a4.476,4.476,0,0,1,5.873,4.061Z" transform="translate(-6476.297 -1852.134)" fill="#81cff4"/>
      </g>
    </g>
    <path id="Trazado_107447" data-name="Trazado 107447" d="M7019,1427.889a5.41,5.41,0,1,1-5.411-5.41A5.411,5.411,0,0,1,7019,1427.889Z" transform="translate(-1620.376 -626.649)" fill="#d3ecfb"/>
    <path id="Trazado_107448" data-name="Trazado 107448" d="M6975.479,1441.613c-1.216-2.9-4.6-3.468-5.56,0-.2.727-13.093,63.463-13.093,63.463v12.335c0,3.289,6.547,1.365,6.547-2.085V1505.6l19.4-6.254v8.594c0,3.753,6.089,1.876,6.089-1.4v-11.883S6976.694,1444.511,6975.479,1441.613Zm-11.4,57.591,9.268-44.6,9.27,38.516Z" transform="translate(-1578.113 -640.427)" fill="#006fb6"/>
    <g id="Grupo_70564" data-name="Grupo 70564" transform="translate(5293.865 712.197)">
      <g id="Grupo_70561" data-name="Grupo 70561" transform="translate(0 2.381)">
        <g id="Grupo_70507" data-name="Grupo 70507" transform="translate(0 92.036)">
          <g id="Grupo_70506" data-name="Grupo 70506">
            <g id="Grupo_70505" data-name="Grupo 70505">
              <g id="Grupo_70504" data-name="Grupo 70504">
                <path id="Trazado_107449" data-name="Trazado 107449" d="M6491.624,1484.671l.026.028c-1.249-.495-3.466-1.645-4.967-1.219s-1.808,1.295-1.058,3.373c-7.5,3.626-8.615,3.615-7.668,5.3.682,1.014,6.1-1.879,6.1-1.879s-.449.486.354,1.446,1.344.52,1.344.52-.223.612.782,1.306c.833.575,1.219.164,1.219.164s.078,1.3,1.076,1.595,4.722-1.359,6.68-5.962Z" transform="translate(-6477.669 -1483.387)" fill="#f7c4bd"/>
                <path id="Trazado_107450" data-name="Trazado 107450" d="M6548.562,1511.717s.571-1.652-2.662-3.1c1.748.55,2.627-.332,2.691-.667s-.417.477-1.906.077-1.576-.68-1.576-.68a.937.937,0,0,1-.116,1.163,1.278,1.278,0,0,1,.407.858,1.37,1.37,0,0,1,1.441,1.2C6548.053,1510.253,6548.562,1511.717,6548.562,1511.717Z" transform="translate(-6533.072 -1503.1)" fill="#f3aea9"/>
                <path id="Trazado_107451" data-name="Trazado 107451" d="M6517.862,1504.139a9.778,9.778,0,0,1-2.583-2.492,7.676,7.676,0,0,0,1.348,1.872c-.74.365-2.92,1.486-2.92,1.486a19.567,19.567,0,0,0,3.085-1.316,5.523,5.523,0,0,0,1.077.87,2.193,2.193,0,0,0,1.424-.728c.3.465.015.659-.47,1-.5.349-3.423,2.186-3.423,2.186-.185.341,3.27-1.7,4.183-2.346a1.206,1.206,0,0,1,1.355,1.062c-.02.99-3.51,2.712-3.51,2.712-.471.4,2.532-.95,3.4-1.855a1.475,1.475,0,0,0,.44-.845,1.6,1.6,0,0,1,1.3.9c.162.343.243.39.26-.044a1.462,1.462,0,0,0-1.565-1.134c-.153-.79-.669-.95-1.49-1.165a.956.956,0,0,0-.234-.8.865.865,0,0,0,.1-.666c1.379.668,2.9.391,2.041.17-1.563-.017-3.357-1.658-3.357-1.658C6520.172,1503.2,6518.683,1503.839,6517.862,1504.139Z" transform="translate(-6507.318 -1498.163)" fill="#e98a88"/>
              </g>
            </g>
          </g>
        </g>
        <g id="Grupo_70560" data-name="Grupo 70560" transform="translate(13.954)">
          <g id="Grupo_70515" data-name="Grupo 70515" transform="translate(25.921)">
            <g id="Grupo_70514" data-name="Grupo 70514">
              <g id="Grupo_70513" data-name="Grupo 70513">
                <g id="Grupo_70511" data-name="Grupo 70511">
                  <path id="Trazado_107452" data-name="Trazado 107452" d="M6782.6,1189.352l-5.827-.358s-.232,1.536-.468,2.59a32.047,32.047,0,0,0,3.422,5.877s1.586-2.881,3.021-5.481C6782.644,1190.9,6782.6,1189.352,6782.6,1189.352Z" transform="translate(-6763.301 -1149.087)" fill="#f3aea9"/>
                  <path id="Trazado_107453" data-name="Trazado 107453" d="M6778.012,1189.671a6.823,6.823,0,0,0,6.072,1.159c-.055-1.127-.1-2.027-.1-2.027l-5.783-.224Z" transform="translate(-6764.705 -1148.746)" fill="#e98a88"/>
                  <path id="Trazado_107454" data-name="Trazado 107454" d="M6733.745,1027.455s-2.717-6.414-2.916-11.045c-3.452,1.683-8.876,1.392-9.76,1.332v0l-.063,0-.063,0v0c-.886-.048-6.3-.424-9.524-2.517-.765,4.572-4.247,10.6-4.247,10.6-6.478-.749-4.817,8.755-.5,8.179,1.111,10.23,7.231,12,12.514,12.345h0l.064,0,.063,0h0c5.287.3,11.576-.7,13.933-10.719C6737.455,1036.734,6740.267,1027.505,6733.745,1027.455Z" transform="translate(-6702.86 -1006.082)" fill="#f7c4bd"/>
                  <g id="Grupo_70508" data-name="Grupo 70508" transform="translate(1.547 21.72)">
                    <path id="Trazado_107455" data-name="Trazado 107455" d="M6714.086,1086.981c.058-.927-2.333-1.255-2.483,1.191a2.192,2.192,0,0,0,2.253,2.543s-1.027-.942-.737-1.881S6714.029,1087.908,6714.086,1086.981Z" transform="translate(-6711.595 -1086.29)" fill="#e98a88"/>
                    <path id="Trazado_107456" data-name="Trazado 107456" d="M6877.125,1096.858c-.057.927.56.991.733,1.958s-.962,1.776-.962,1.776a2.191,2.191,0,0,0,2.547-2.247C6879.594,1095.9,6877.182,1095.931,6877.125,1096.858Z" transform="translate(-6847.625 -1094.508)" fill="#e98a88"/>
                  </g>
                  <g id="Grupo_70509" data-name="Grupo 70509" transform="translate(3.808 8.064)">
                    <path id="Trazado_107457" data-name="Trazado 107457" d="M6726.069,1124.453a11.677,11.677,0,0,0-1.7-3.162c.292,6.793,4.61,11.28,9.67,11.99C6728.169,1131.321,6727.705,1128.293,6726.069,1124.453Z" transform="translate(-6724.366 -1101.437)" fill="#f3aea9"/>
                    <path id="Trazado_107458" data-name="Trazado 107458" d="M6753.646,1022.476c-1.211-6.472-2.629-12.087-2.629-12.087s-7.384-.788-9.822.176c-.057.022-.109.046-.163.071-.05-.031-.1-.061-.153-.09-2.3-1.256-9.728-1.378-9.728-1.378s-2.094,5.4-4.089,11.675c0,0,3.332-3.995,4.51-7.427,4.419,1.337,15.652,1.892,18.4.688A15.068,15.068,0,0,0,6753.646,1022.476Z" transform="translate(-6726.584 -1009.168)" fill="#f3aea9"/>
                    <path id="Trazado_107459" data-name="Trazado 107459" d="M6820.7,1133.43c-2.094,3.61-2.925,6.558-8.99,7.785,5.11-.085,9.943-4.01,11.067-10.716A11.669,11.669,0,0,0,6820.7,1133.43Z" transform="translate(-6796.247 -1109.014)" fill="#f3aea9"/>
                  </g>
                  <g id="Grupo_70510" data-name="Grupo 70510" transform="translate(2.149)">
                    <path id="Trazado_107460" data-name="Trazado 107460" d="M6806.541,963.827l.5.032.5.029Z" transform="translate(-6790.331 -963.792)" fill="#511414"/>
                    <path id="Trazado_107461" data-name="Trazado 107461" d="M6743.272,969.331c-3.575-4.742-7.552-5.362-11.556-5.636-4.007-.23-8.03-.111-12.168,4.146-7.4,6.722-3.553,15.479-3.553,15.479l1.124.027c1.868-1.856,4.1-7.593,4.259-10.6,1.386,1.311,6.847,2.619,9.569,2.789l.05,0c2.72.171,8.3-.444,9.842-1.571-.219,3,1.281,8.974,2.9,11.049l1.118.114S6749.775,976.926,6743.272,969.331Z" transform="translate(-6714.995 -963.627)" fill="#62433f"/>
                    <path id="Trazado_107462" data-name="Trazado 107462" d="M6743.272,969.331c-3.575-4.742-7.552-5.362-11.556-5.636-4.007-.23-8.03-.111-12.168,4.146-7.4,6.722-3.553,15.479-3.553,15.479s-2.784-9.309,4.234-14.978c2.359-2.215,5.95-3.667,11.392-3.332,5.527.34,8.933,2.278,10.99,4.827,6.062,5.941,2.248,15.3,2.248,15.3S6749.775,976.926,6743.272,969.331Z" transform="translate(-6714.995 -963.627)" fill="#7b5c59"/>
                  </g>
                  <path id="Trazado_107463" data-name="Trazado 107463" d="M6784.326,1077.015a15.938,15.938,0,0,0-2.563,4.715c-.663,2.121-1.429,3.569,2.683,3.822-1.271-.48-2.249-.382-1.723-2.653C6783.417,1079.9,6784.613,1076.612,6784.326,1077.015Z" transform="translate(-6767.357 -1056.909)" fill="#f3aea9"/>
                  <path id="Trazado_107464" data-name="Trazado 107464" d="M6790.594,1077.049s.438-.557-.48,3.445-.179,4.641,2.062,4.327c-.587,1.141-3.347.74-3.322-1.03S6790.594,1077.049,6790.594,1077.049Z" transform="translate(-6773.626 -1056.943)" fill="#fbdfde"/>
                  <path id="Trazado_107465" data-name="Trazado 107465" d="M6791.169,1088.978c0,.3,0,.579-.016.834-.067,1.1-1.841.843-1.841.843s-1.793.043-1.725-1.062a33.824,33.824,0,0,1,1.138-5.462c.2-.669-.337.143-.75,1.531a20.455,20.455,0,0,0-.87,4.065c-.024.947.718,1.422,2.17,1.512s2.248-.292,2.34-1.235a5.243,5.243,0,0,0-.114-1.02s-.008-.2-.119-.227C6791.144,1088.709,6791.169,1088.978,6791.169,1088.978Z" transform="translate(-6772.188 -1062.597)" fill="#e98a88"/>
                  <path id="Trazado_107466" data-name="Trazado 107466" d="M6707.131,1075.325a3.858,3.858,0,0,0-4.256,3.064c.119-1.922,1.018-3.823,4.271-3.532A.235.235,0,1,1,6707.131,1075.325Z" transform="translate(-6702.872 -1055.136)" fill="#fbdfde"/>
                  <path id="Trazado_107467" data-name="Trazado 107467" d="M6876.212,1084.71a3.857,3.857,0,0,1,3.849,3.562c.117-1.922-.543-3.919-3.806-4.029A.235.235,0,1,0,6876.212,1084.71Z" transform="translate(-6845.328 -1062.884)" fill="#fbdfde"/>
                </g>
                <g id="Grupo_70512" data-name="Grupo 70512" transform="translate(9.101 15.608)">
                  <path id="Trazado_107468" data-name="Trazado 107468" d="M6758.7,1052.133a5.243,5.243,0,0,0-4.172.153c-.417.127-.318.593.01.513a5.03,5.03,0,0,1,4.038.2C6759.3,1053.319,6759.53,1052.453,6758.7,1052.133Z" transform="translate(-6754.254 -1051.773)" fill="#000100"/>
                  <path id="Trazado_107469" data-name="Trazado 107469" d="M6828.641,1056.517a5.244,5.244,0,0,0-4.068-.934c-.874.158-.81,1.053-.042.874a5.032,5.032,0,0,1,4,.563C6828.841,1057.16,6829.026,1056.721,6828.641,1056.517Z" transform="translate(-6811.598 -1054.838)" fill="#000100"/>
                </g>
              </g>
              <path id="Trazado_107470" data-name="Trazado 107470" d="M6825.746,1074.6a1.871,1.871,0,1,0,1.487,1.991A1.762,1.762,0,0,0,6825.746,1074.6Z" transform="translate(-6802.496 -1054.944)" fill="#000100"/>
              <path id="Trazado_107471" data-name="Trazado 107471" d="M6828.866,1080.154a.387.387,0,1,1-.354-.418A.388.388,0,0,1,6828.866,1080.154Z" transform="translate(-6805.917 -1059.175)" fill="#fff"/>
              <path id="Trazado_107472" data-name="Trazado 107472" d="M6757.025,1069.256a1.871,1.871,0,1,0,1.487,1.991A1.764,1.764,0,0,0,6757.025,1069.256Z" transform="translate(-6745.943 -1050.547)" fill="#000100"/>
              <path id="Trazado_107473" data-name="Trazado 107473" d="M6760.145,1074.812a.387.387,0,1,1-.353-.418A.387.387,0,0,1,6760.145,1074.812Z" transform="translate(-6749.365 -1054.778)" fill="#fff"/>
            </g>
          </g>
          <g id="Grupo_70559" data-name="Grupo 70559" transform="translate(0 42.215)">
            <g id="Grupo_70520" data-name="Grupo 70520" transform="translate(57.738 7.644)">
              <g id="Grupo_70519" data-name="Grupo 70519">
                <g id="Grupo_70518" data-name="Grupo 70518" transform="translate(0.003)">
                  <path id="Trazado_107474" data-name="Trazado 107474" d="M6918.138,1551.106c-.389-1.534-1.052-4.417-1.637-5.981l-6-.062s-2.283,5.478-3.255,8.185c1.673.773,2.61-.371,3.479-2.545,1,2.466-.332,7.9-.75,8.668s1.1,1.674,1.49.885a24.456,24.456,0,0,0,1.588-6.391,35.918,35.918,0,0,1-.283,6.628c-.106.842,1.594,1.292,1.782.111a54.71,54.71,0,0,0,.572-6.967,25.274,25.274,0,0,1,.262,6.4c-.1.877,1.5,1.068,1.7.16.582-2.608-.156-7.15-.156-7.15s.792,4.132.885,5.09,1.657.6,1.55-.314A67.042,67.042,0,0,0,6918.138,1551.106Z" transform="translate(-6902.877 -1491.964)" fill="#f7c4bd"/>
                  <path id="Trazado_107475" data-name="Trazado 107475" d="M6922.4,1545.063l5.989.024.593,1.9a25.519,25.519,0,0,0-7.277-.243Z" transform="translate(-6914.776 -1491.964)" fill="#f3aea9"/>
                  <g id="Grupo_70517" data-name="Grupo 70517">
                    <g id="Grupo_70516" data-name="Grupo 70516">
                      <path id="Trazado_107476" data-name="Trazado 107476" d="M6883.837,1271.093c3.57,4.641,6.292,19.644,6.87,29.2l6.958.028s2.509-40.03-13.828-52.815C6883.837,1247.5,6883.562,1253.058,6883.837,1271.093Z" transform="translate(-6883.509 -1247.093)" fill="#f29100"/>
                      <path id="Trazado_107477" data-name="Trazado 107477" d="M6896.9,1298.627l-7.347-.029-.012-.193a115.006,115.006,0,0,0-2.308-16.408c-1.325-6.108-2.931-10.609-4.519-12.674l-.042-.054v-.069c-.273-17.835,0-23.55,0-23.606l.02-.4.314.245c3.757,2.94,6.824,7.562,9.118,13.737a78.253,78.253,0,0,1,4,17.6,133.341,133.341,0,0,1,.789,21.651Zm-6.958-.44,6.568.026a133.773,133.773,0,0,0-.8-21.387,77.9,77.9,0,0,0-3.977-17.506c-2.2-5.925-5.116-10.4-8.667-13.3-.054,1.572-.217,7.94.015,23.1,1.149,1.523,2.858,4.975,4.552,12.783A115.986,115.986,0,0,1,6889.946,1298.187Z" transform="translate(-6882.554 -1245.197)" fill="#f29100"/>
                    </g>
                  </g>
                </g>
                <path id="Trazado_107478" data-name="Trazado 107478" d="M6887.023,1311.288c-.892-7.863-3.036-12.371-4.363-17.807-.244,5.482-.057,9.749.025,15.605,0,0,2.936,3.432,5.338,16.554.993,5.427,1.453,12.677,1.453,12.677l7.361.056C6890.152,1337.466,6891.735,1332.973,6887.023,1311.288Z" transform="translate(-6882.54 -1284.931)" fill="#e8550d"/>
              </g>
            </g>
            <g id="Grupo_70527" data-name="Grupo 70527" transform="translate(0 7.609)">
              <g id="Grupo_70523" data-name="Grupo 70523">
                <g id="Grupo_70522" data-name="Grupo 70522">
                  <g id="Grupo_70521" data-name="Grupo 70521">
                    <path id="Trazado_107479" data-name="Trazado 107479" d="M6583.34,1274.485c-.871,3.406.149,6.995-21.823,19.368-1.806-.471-5.042-5.358-5.042-5.358s16.156-11.49,18.093-17.3c3.094-16.764,5.933-23.959,8.717-26.2,0,0,.162,1.987.2,11.861C6583.505,1262.057,6583.445,1266.651,6583.34,1274.485Z" transform="translate(-6556.474 -1244.998)" fill="#f29100"/>
                  </g>
                </g>
              </g>
              <g id="Grupo_70526" data-name="Grupo 70526" transform="translate(0 11.861)">
                <g id="Grupo_70525" data-name="Grupo 70525">
                  <g id="Grupo_70524" data-name="Grupo 70524">
                    <path id="Trazado_107480" data-name="Trazado 107480" d="M6556.474,1343.619s3.237,4.887,5.042,5.358c22.642-12.8,20.952-15.962,21.823-19.368.105-7.834.166-12.428.146-17.625,0,0-2,12.664-3.252,16.074s-1.962,8-9.279,12.314S6560.373,1347.179,6556.474,1343.619Z" transform="translate(-6556.474 -1311.983)" fill="#e8550d"/>
                  </g>
                </g>
              </g>
            </g>
            <g id="Grupo_70543" data-name="Grupo 70543" transform="translate(15.809 58.492)">
              <g id="Grupo_70528" data-name="Grupo 70528" transform="translate(10.919)">
                <path id="Trazado_107481" data-name="Trazado 107481" d="M6707.616,1541.514c.771-7.427,1.832-9.164,1.832-9.164s2.449,1.605,13.263,1.648c10.875.043,13.276-1.543,13.276-1.543s1.047,1.744,1.76,9.178c.317,3.31.069,17.679,1.281,32.757,1.511,18.777,4.5,38.575,4.5,38.575l-7.506,3.357s-4.925-20.182-7.776-37.57c-2.528-15.416-3.233-26.535-4.172-32.15l-2.82-.011c-2.7,8.864-4.691,72.5-4.691,72.5l-8-.032S6706.845,1548.942,6707.616,1541.514Z" transform="translate(-6707.417 -1532.35)" fill="#847018"/>
                <path id="Trazado_107482" data-name="Trazado 107482" d="M6710.442,1538.737c.711-5.084,1.5-6.369,1.5-6.369s2.448,1.6,13.3,1.645c10.821.043,13.24-1.54,13.24-1.54s.735,1.306,1.434,6.446c0,0-4.61-1.047-14.725-1.087S6712.041,1538.5,6710.442,1538.737Z" transform="translate(-6709.906 -1532.365)" fill="#3a6c8e"/>
                <path id="Trazado_107483" data-name="Trazado 107483" d="M6723,1603.318c-8.665-2.1-.844-1.827,5.055-1.837h.038c5.9.057,13.721-.149,5.04,1.877,2.068,60.03,15.79,66.492,15.79,66.492l-7.506,3.356c-9.968-41.817-9.968-54-11.948-69.72l-2.806-.011c-2.7,8.864-4.464,72.5-4.464,72.5l-8.224-.032S6722.06,1672.785,6723,1603.318Z" transform="translate(-6712.81 -1589.234)" fill="#665517"/>
              </g>
              <g id="Grupo_70533" data-name="Grupo 70533" transform="translate(31.746 80.545)">
                <path id="Trazado_107484" data-name="Trazado 107484" d="M6825.316,2029.991s-.144.282.333,1.157c.307.424,2.115,1.32,6.246-.565a69.172,69.172,0,0,0,7.546-4.554l.418.917,4.66-2.127-.835-1.83a12.44,12.44,0,0,0-3.845,1.162C6835.526,2026.19,6828.766,2029.854,6825.316,2029.991Z" transform="translate(-6825.249 -2016.654)" fill="#4d5357"/>
                <g id="Grupo_70529" data-name="Grupo 70529" transform="translate(0 0.276)">
                  <path id="Trazado_107485" data-name="Trazado 107485" d="M6839.76,1988.772l-6.321,2.886-4.2,5.263a8.444,8.444,0,0,1-1.335,1.33c-3.036,2.346-3.016,2.5-2.778,3.824,0,0,1.365,2.394,7.012-.792,4.287-2.419,5.84-3.947,7.77-4.827l3.529-1.612A34.584,34.584,0,0,0,6839.76,1988.772Z" transform="translate(-6825.033 -1988.772)" fill="#000100"/>
                  <path id="Trazado_107486" data-name="Trazado 107486" d="M6898.734,2041.072l-.419-.917-1.477.826Z" transform="translate(-6884.123 -2031.056)" fill="#000100"/>
                </g>
                <path id="Trazado_107487" data-name="Trazado 107487" d="M6853.9,2002.737l-3.015,6.191-2.089-.515,4.2-5.263Z" transform="translate(-6844.588 -1999.988)" fill="#4d5357"/>
                <path id="Trazado_107488" data-name="Trazado 107488" d="M6861.155,2033.753l-1.7-.618-.071.193,1.806.657.045-.037c.028-.024,3.006-2.386,5.534-.574l.12-.167C6864.416,2031.432,6861.556,2033.452,6861.155,2033.753Z" transform="translate(-6853.304 -2024.469)" fill="#4d5357"/>
                <g id="Grupo_70532" data-name="Grupo 70532" transform="translate(4.374)">
                  <g id="Grupo_70531" data-name="Grupo 70531" transform="translate(0.159 3.444)">
                    <path id="Trazado_107489" data-name="Trazado 107489" d="M6853.02,2011.707a.148.148,0,0,1-.1.009l-2.169-.521a.154.154,0,0,1-.011-.3l1.483-.484-.386-.791a.148.148,0,0,1-.006-.12.152.152,0,0,1,.08-.088l1.287-.594-.294-.524a.154.154,0,0,1,.063-.212l1.224-.645-.264-.412a.153.153,0,0,1-.008-.152.156.156,0,0,1,.127-.085l1.643-.127a.154.154,0,0,1,.083.29l-1.141.6.371.579a.154.154,0,0,1-.067.223l-1.3.6.514.919a.128.128,0,0,1,.027.041.154.154,0,0,1-.077.2l0,0-.018.007-1.418.463.424.869a.15.15,0,0,1,.021.034.161.161,0,0,1-.079.205Zm-1.667-.684,1.32.317-.315-.645Zm1.166-.7,1.28-.418-.452-.808-1.166.537Zm.731-2.033.228.408,1.166-.538-.288-.452Zm1.075-1.2.138.217.5-.267Z" transform="translate(-6850.632 -2006.665)" fill="#272a2d"/>
                    <g id="Grupo_70530" data-name="Grupo 70530" clip-path="url(#clip-path)">
                      <path id="Trazado_107490" data-name="Trazado 107490" d="M6853.045,2000.724h0c-.33,0-1.11-.044-1.249-.452-.071-.208.044-.43.341-.659a1.46,1.46,0,0,1,.906-.322,2.55,2.55,0,0,1,1.656.858.156.156,0,0,1-.046.24A3.734,3.734,0,0,1,6853.045,2000.724Zm0-1.123a1.156,1.156,0,0,0-.717.257c-.2.156-.254.267-.237.315.034.1.354.242.956.242h0a3.742,3.742,0,0,0,1.269-.214A2.056,2.056,0,0,0,6853.044,1999.6Z" transform="translate(-6851.573 -2000.597)" fill="#272a2d"/>
                    </g>
                  </g>
                  <path id="Trazado_107492" data-name="Trazado 107492" d="M6855.882,1987.231a2.153,2.153,0,0,0-.665.178c-1.162.531-1.322,1.977-1.307,2.835a7.554,7.554,0,0,0-.869-1.031c-.848-.828-1.654-1.1-2.33-.795a.155.155,0,0,0-.077.2.153.153,0,0,0,.2.076c.694-.316,1.463.226,1.986.736a7.2,7.2,0,0,1,.8.938,4.205,4.205,0,0,0-3.39-.273c-.321.146-.5.35-.5.574,0,.256.219.482.649.676l.032.014a1.412,1.412,0,0,0-.15.323.154.154,0,0,0,.1.192.156.156,0,0,0,.192-.1,1.017,1.017,0,0,1,.147-.3,4.1,4.1,0,0,0,3.005-.205,3.719,3.719,0,0,0,.46-.247,4.215,4.215,0,0,0,.854-.286c1.492-.681,2.362-2.085,2.142-2.885C6857.1,1987.575,6856.827,1987.126,6855.882,1987.231Zm-5.372,3.836c-.434-.195-.466-.352-.466-.4,0-.093.118-.2.316-.293a3.8,3.8,0,0,1,2.65.059c-.2,0-.4,0-.608.02a2.8,2.8,0,0,0-1.783.655C6850.583,1991.1,6850.547,1991.084,6850.51,1991.067Zm3.075-.078a3.825,3.825,0,0,1-2.64.238,2.869,2.869,0,0,1,1.481-.463,7.273,7.273,0,0,1,1.286.021c.041.027.083.051.124.08C6853.767,1990.9,6853.684,1990.944,6853.585,1990.989Zm3.287-3.055c.184.667-.638,1.914-1.972,2.523a4.016,4.016,0,0,1-.437.166.239.239,0,0,0-.083-.042h0c-.034-.01-.084-.021-.146-.033-.045-.689-.028-2.338,1.11-2.858a1.843,1.843,0,0,1,.57-.152C6856.29,1987.5,6856.762,1987.531,6856.872,1987.934Z" transform="translate(-6849.733 -1987.215)" fill="#272a2d"/>
                </g>
              </g>
              <g id="Grupo_70538" data-name="Grupo 70538" transform="translate(0 83.637)">
                <path id="Trazado_107493" data-name="Trazado 107493" d="M6645.949,2054.62s-.249.2-.183,1.195c.1.517,1.367,2.094,5.908,2.113a68.734,68.734,0,0,0,8.76-.978l0,1.013,5.122.02.008-2.02a12.386,12.386,0,0,0-3.977-.558C6656.811,2055.449,6649.138,2055.946,6645.949,2054.62Z" transform="translate(-6645.755 -2045.776)" fill="#4d5357"/>
                <g id="Grupo_70534" data-name="Grupo 70534" transform="translate(0.117 3.073)">
                  <path id="Trazado_107494" data-name="Trazado 107494" d="M6665.277,2022.053l-6.949-.027-6.017,3.034a8.438,8.438,0,0,1-1.77.651c-3.739.863-3.785,1.011-4.125,2.319,0,0,.238,2.759,6.7,2.228,4.907-.4,6.958-1.142,9.077-1.134l3.881.015A34.978,34.978,0,0,0,6665.277,2022.053Z" transform="translate(-6646.417 -2022.026)" fill="#000100"/>
                  <path id="Trazado_107495" data-name="Trazado 107495" d="M6720.81,2068.787l0-1.013-1.687.132Z" transform="translate(-6706.252 -2059.673)" fill="#000100"/>
                </g>
                <path id="Trazado_107496" data-name="Trazado 107496" d="M6686.718,2022.03l-5.332,4.378-1.682-1.349,6.017-3.034Z" transform="translate(-6673.693 -2018.953)" fill="#4d5357"/>
                <path id="Trazado_107497" data-name="Trazado 107497" d="M6689.726,2046.3l-1.281-1.278-.146.147,1.364,1.36.056-.015c.038-.01,3.729-.912,5.266,1.806l.18-.1C6693.66,2045.557,6690.215,2046.2,6689.726,2046.3Z" transform="translate(-6680.765 -2037.879)" fill="#4d5357"/>
                <g id="Grupo_70537" data-name="Grupo 70537" transform="translate(6.545)">
                  <g id="Grupo_70536" data-name="Grupo 70536" transform="translate(0 3.243)">
                    <path id="Trazado_107498" data-name="Trazado 107498" d="M6684.621,2027.047a.155.155,0,0,1-.095-.033l-1.751-1.388a.155.155,0,0,1,.115-.275l1.548.183-.019-.884a.152.152,0,0,1,.043-.112.158.158,0,0,1,.111-.047h1.416l-.047-.6a.155.155,0,0,1,.146-.167l1.382-.073-.067-.487a.155.155,0,0,1,.208-.166l1.546.576a.155.155,0,0,1-.046.3l-1.288.069.093.684a.15.15,0,0,1-.037.122.153.153,0,0,1-.116.053h-1.438l.083,1.056a.19.19,0,0,1,.008.048.156.156,0,0,1-.156.154h-.022l-1.482-.175.022.972a.193.193,0,0,1,0,.039.161.161,0,0,1-.157.154Zm-1.227-1.325,1.065.845-.015-.721Zm1.354-.152,1.338.157-.072-.927h-1.283Zm1.515-1.547.037.467h1.284l-.073-.534Zm1.481-.647.035.257.57-.031Z" transform="translate(-6682.716 -2022.986)" fill="#272a2d"/>
                    <g id="Grupo_70535" data-name="Grupo 70535" clip-path="url(#clip-path-2)">
                      <path id="Trazado_107499" data-name="Trazado 107499" d="M6697.519,2012.12h0c-.937,0-2.395-.646-2.461-1.227-.02-.18.065-.421.586-.541a1.577,1.577,0,0,1,1.718.775,3.157,3.157,0,0,1,.383.793.155.155,0,0,1-.142.2Zm-1.512-1.5a1.336,1.336,0,0,0-.294.035c-.223.051-.355.13-.347.2.035.306,1.1.888,2.008.947C6697.214,2011.421,6696.787,2010.62,6696.007,2010.62Z" transform="translate(-6692.871 -2012.556)" fill="#272a2d"/>
                    </g>
                  </g>
                  <path id="Trazado_107501" data-name="Trazado 107501" d="M6699.147,2005.767a2.18,2.18,0,0,0-.677-.118c-1.278,0-2.029,1.248-2.376,2.036a7.4,7.4,0,0,0-.356-1.306c-.424-1.112-1.041-1.7-1.781-1.705a.155.155,0,1,0,0,.309c.762,0,1.232.821,1.493,1.506a7.038,7.038,0,0,1,.331,1.191,4.2,4.2,0,0,0-2.963-1.676.7.7,0,0,0-.692.315c-.107.233,0,.531.3.889l.025.027a1.34,1.34,0,0,0-.273.23.155.155,0,1,0,.232.2,1.051,1.051,0,0,1,.258-.21,4.094,4.094,0,0,0,2.816,1.077,3.688,3.688,0,0,0,.521-.031,4.24,4.24,0,0,0,.9.1c1.641.007,3.02-.908,3.155-1.731C6700.105,2006.591,6700.05,2006.069,6699.147,2005.767Zm-6.484,1.239c-.312-.359-.275-.517-.258-.557.039-.085.192-.135.41-.135a3.809,3.809,0,0,1,2.382,1.169c-.179-.085-.367-.167-.56-.238a2.8,2.8,0,0,0-1.895-.154C6692.717,2007.063,6692.689,2007.036,6692.663,2007.006Zm2.825,1.222a3.818,3.818,0,0,1-2.5-.894,2.843,2.843,0,0,1,1.538.2,7.064,7.064,0,0,1,1.158.56c.028.041.055.081.079.124C6695.69,2008.225,6695.6,2008.229,6695.488,2008.228Zm4.265-1.4c-.112.685-1.381,1.477-2.848,1.471a4.093,4.093,0,0,1-.467-.032.21.21,0,0,0-.058-.073h0a1.487,1.487,0,0,0-.118-.091c.248-.648.954-2.145,2.206-2.14a1.854,1.854,0,0,1,.58.1C6699.407,2006.18,6699.822,2006.411,6699.753,2006.825Z" transform="translate(-6690.425 -2004.674)" fill="#272a2d"/>
                </g>
              </g>
              <g id="Grupo_70542" data-name="Grupo 70542" transform="translate(12.724 0.646)">
                <g id="Grupo_70539" data-name="Grupo 70539">
                  <path id="Trazado_107502" data-name="Trazado 107502" d="M6757.921,1542.729a2.308,2.308,0,0,0,.519,2.018l-3.494-.014.125-2.016Z" transform="translate(-6748.335 -1541.527)" fill="#000100"/>
                  <path id="Trazado_107503" data-name="Trazado 107503" d="M6718.286,1536a15.492,15.492,0,0,0,4.869,1.044s.063,2.224-.134,2.157c-.1-.035-5.411-.313-5.411-.313Z" transform="translate(-6717.61 -1535.998)" fill="#000100"/>
                </g>
                <g id="Grupo_70540" data-name="Grupo 70540" transform="translate(16.857 0.499)">
                  <path id="Trazado_107504" data-name="Trazado 107504" d="M6813.344,1542.956a2.309,2.309,0,0,1-.533,2.014l3.491.014-.108-2.017Z" transform="translate(-6812.811 -1542.223)" fill="#000100"/>
                  <path id="Trazado_107505" data-name="Trazado 107505" d="M6843.444,1538.815a20.994,20.994,0,0,1-4.879.783s-.075,2.048.122,1.983c.1-.034,5.221-.153,5.221-.153Z" transform="translate(-6833.993 -1538.815)" fill="#000100"/>
                </g>
                <g id="Grupo_70541" data-name="Grupo 70541" transform="translate(9.195 0.994)">
                  <path id="Trazado_107506" data-name="Trazado 107506" d="M6770.812,1542.778l3.416.013,1.2,0,3.416.014s.624,2.413-1.215,2.405l-2.21-.008-1.2-.005-2.211-.009C6770.168,1545.185,6770.812,1542.778,6770.812,1542.778Z" transform="translate(-6770.496 -1542.572)" fill="#fff"/>
                  <path id="Trazado_107507" data-name="Trazado 107507" d="M6776.675,1544.464h-.009l-2.209-.008-1.2-.005-2.21-.009a1.394,1.394,0,0,1-1.17-.516,2.9,2.9,0,0,1-.225-2.159.207.207,0,0,1,.2-.153h0l8.028.031a.206.206,0,0,1,.2.155,2.891,2.891,0,0,1-.24,2.155A1.389,1.389,0,0,1,6776.675,1544.464Zm-6.656-2.436a2.289,2.289,0,0,0,.188,1.649.993.993,0,0,0,.843.353l2.21.009,1.2,0,2.209.008.008.206v-.206a.988.988,0,0,0,.84-.348,2.291,2.291,0,0,0,.2-1.645Z" transform="translate(-6769.538 -1541.614)" fill="#5985ac"/>
                </g>
              </g>
            </g>
            <g id="Grupo_70558" data-name="Grupo 70558" transform="translate(23.841)">
              <path id="Trazado_107508" data-name="Trazado 107508" d="M6766.756,1215.2a6.589,6.589,0,0,1,3.933.837c.86,7.851,1.694,30.75-6.413,33.362-8-1.981-6.541-30.634-5.957-33.362a19.188,19.188,0,0,1,3.746-.748c.6.923,2.1,3.729,2.328,3.729C6765.4,1219.018,6766.271,1215.2,6766.756,1215.2Z" transform="translate(-6746.013 -1212.837)" fill="#fff"/>
              <g id="Grupo_70557" data-name="Grupo 70557">
                <path id="Trazado_107509" data-name="Trazado 107509" d="M6774.14,1282.67s-1.321,13.526-6.449,20.93c-2.69-7.616-4.473-11.388-5.419-20.207,2.1,6.352,5.485,16,5.485,16S6772.3,1290.458,6774.14,1282.67Z" transform="translate(-6749.671 -1268.39)" fill="#a7d1e7"/>
                <path id="Trazado_107510" data-name="Trazado 107510" d="M6771.219,1211.908s1.733,5.034-1.467,8.311c-.877-1.883-4.224-3.617-6.459-.609a3.349,3.349,0,0,1,1.255-2.224s-2.432-.882-4.007,2.833a9.257,9.257,0,0,1-1.167-8.311l.1,2.431.8,3.871s1.4-4.73,5.1-2.057l-.558,1s2.964-3.849,5.291.821A18.988,18.988,0,0,0,6771.219,1211.908Z" transform="translate(-6746.873 -1210.158)" fill="#a7d1e7"/>
                <g id="Grupo_70545" data-name="Grupo 70545" transform="translate(17.796 56.193)">
                  <g id="Grupo_70544" data-name="Grupo 70544">
                    <path id="Trazado_107511" data-name="Trazado 107511" d="M6792.505,1519.366l-.447,0-.447,0Z" transform="translate(-6791.611 -1519.366)" fill="#eee9e3"/>
                  </g>
                </g>
                <g id="Grupo_70546" data-name="Grupo 70546" transform="translate(17.589 3.854)">
                  <path id="Trazado_107512" data-name="Trazado 107512" d="M6799.831,1225.347s5.106,1.479,7.9,3.775c.269,9.035.086,22.146-.118,28.752-.321,10.35,1.509,27.854,1.509,27.854s1.376,9.632,1.307,9.838-4.556.482-12.315.482c-4.193-1.652-6.5-9.237-6.5-9.237v-27.4S6799.9,1247.953,6799.831,1225.347Z" transform="translate(-6791.404 -1225.072)" fill="#f29100"/>
                  <path id="Trazado_107513" data-name="Trazado 107513" d="M6797.152,1294.975h-.04l-.036-.014c-4.237-1.669-6.527-9.055-6.623-9.369l-.008-.029v-27.5l.04-.054a38.174,38.174,0,0,0,4.115-8.522,74.186,74.186,0,0,0,4.065-25.418v-.276l.265.077c.21.061,5.18,1.517,7.971,3.814l.072.06,0,.094c.274,9.263.073,22.559-.12,28.764-.315,10.218,1.491,27.652,1.51,27.827,0,.016.346,2.429.678,4.835.676,4.916.645,5.013.618,5.09-.053.165-.1.308-3.459.459C6804.545,1294.886,6801.63,1294.975,6797.152,1294.975Zm-6.293-9.475c.16.507,2.431,7.488,6.333,9.062a103.823,103.823,0,0,0,12.067-.409c-.065-.868-.8-6.142-1.3-9.676-.019-.183-1.829-17.645-1.511-27.89.19-6.179.391-19.4.121-28.644a26.208,26.208,0,0,0-7.487-3.6,74.432,74.432,0,0,1-4.1,25.3,39.467,39.467,0,0,1-4.123,8.549Z" transform="translate(-6790.445 -1223.794)" fill="#f29100"/>
                </g>
                <g id="Grupo_70547" data-name="Grupo 70547" transform="translate(0.027 4.138)">
                  <path id="Trazado_107514" data-name="Trazado 107514" d="M6702.69,1226.889s-4.735,1.253-7.472,3.419c-.105,5.333-.021,23.875-.021,30.483,0,9.737-1.472,26.205-1.472,26.205s-1.376,9.632-1.308,9.838,3.987.482,11.747.482c4.816-1.789,6.71-11.766,6.71-11.766v-20.778a34.562,34.562,0,0,0-2.466-10.8C6703.613,1242.51,6702.69,1226.889,6702.69,1226.889Z" transform="translate(-6692.21 -1226.625)" fill="#f29100"/>
                  <path id="Trazado_107515" data-name="Trazado 107515" d="M6703.253,1296.294h-.037c-4.446,0-7.223-.089-8.767-.164-3.071-.148-3.122-.3-3.176-.459-.026-.078-.058-.175.619-5.09.324-2.35.661-4.706.679-4.837.034-.375,1.472-16.628,1.472-26.182,0-1.739-.006-4.287-.013-7.238-.019-8.152-.044-19.317.034-23.249v-.1l.077-.06c2.739-2.168,7.353-3.405,7.548-3.457l.243-.065.016.252c.009.156.976,15.719,5.7,27.013a35.062,35.062,0,0,1,2.483,10.875v20.8l0,.019a32.671,32.671,0,0,1-1.56,5.25c-1.45,3.663-3.228,5.908-5.281,6.671Zm-11.575-.817c.6.147,3.887.4,11.5.4,4.531-1.727,6.446-11.1,6.542-11.579v-20.759a34.679,34.679,0,0,0-2.452-10.723c-4.418-10.562-5.567-24.817-5.715-26.893a24.079,24.079,0,0,0-7.078,3.254c-.077,4.012-.052,15.058-.032,23.142.007,2.951.013,5.5.013,7.239,0,9.635-1.459,26.059-1.473,26.224l0,.01C6692.477,1289.336,6691.742,1294.62,6691.678,1295.477Z" transform="translate(-6691.263 -1225.397)" fill="#f29100"/>
                </g>
                <g id="Grupo_70548" data-name="Grupo 70548" transform="translate(17.258 9.11)">
                  <path id="Trazado_107516" data-name="Trazado 107516" d="M6789.957,1254.166a.693.693,0,1,1-.693-.694A.693.693,0,0,1,6789.957,1254.166Z" transform="translate(-6788.572 -1253.472)" fill="#8db8d6"/>
                  <path id="Trazado_107517" data-name="Trazado 107517" d="M6789.957,1320.021a.693.693,0,1,1-.693-.693A.693.693,0,0,1,6789.957,1320.021Z" transform="translate(-6788.572 -1307.667)" fill="#8db8d6"/>
                </g>
                <path id="Trazado_107518" data-name="Trazado 107518" d="M6785.4,1260.063a.155.155,0,0,1-.154-.153c0-.191-.26-19.129-.26-21.579,0-.543-.01-1.013-.019-1.427a7.779,7.779,0,0,1,.327-3.168,8.963,8.963,0,0,0-1.909,1.59l-.021.019a2.726,2.726,0,0,0-.578.742,4.92,4.92,0,0,0-.579,2.439c0,2.6-.045,19.333-.046,19.5a.154.154,0,0,1-.154.154h0a.155.155,0,0,1-.155-.155c0-.168.047-16.9.047-19.5a4.371,4.371,0,0,1,1.262-3.414,8.348,8.348,0,0,1,2.37-1.843.154.154,0,0,1,.2.2,6.985,6.985,0,0,0-.458,3.425c.009.416.021.888.021,1.434,0,2.448.257,21.384.26,21.575a.156.156,0,0,1-.153.157Z" transform="translate(-6765.786 -1227.725)" fill="#8db8d6"/>
                <g id="Grupo_70551" data-name="Grupo 70551" transform="translate(12.241)">
                  <g id="Grupo_70549" data-name="Grupo 70549" transform="translate(5.037)">
                    <path id="Trazado_107519" data-name="Trazado 107519" d="M6795.619,1211.039c-1.861-4.69-4.83-1.631-5.77-.554a29.48,29.48,0,0,0,4.051-7.292C6798.354,1203.193,6796.366,1208.3,6795.619,1211.039Z" transform="translate(-6789.643 -1202.986)" fill="#fff"/>
                    <path id="Trazado_107520" data-name="Trazado 107520" d="M6794.659,1210.286a.207.207,0,0,1-.191-.13c-.633-1.593-1.445-2.4-2.415-2.4-.878,0-1.918.659-3.007,1.906a.206.206,0,0,1-.324-.255,29.708,29.708,0,0,0,4.021-7.234.207.207,0,0,1,.2-.145,2.9,2.9,0,0,1,2.472.992c1.095,1.461.287,4.219-.3,6.234-.091.313-.178.609-.252.88a.205.205,0,0,1-.187.152Zm-2.606-2.944c1.032,0,1.894.714,2.565,2.125q.046-.161.1-.33c.565-1.931,1.338-4.575.368-5.87a2.4,2.4,0,0,0-1.994-.825,27.917,27.917,0,0,1-2.966,5.639A3.326,3.326,0,0,1,6792.053,1207.342Z" transform="translate(-6788.685 -1202.027)" fill="#5985ac"/>
                  </g>
                  <g id="Grupo_70550" data-name="Grupo 70550">
                    <path id="Trazado_107521" data-name="Trazado 107521" d="M6764.185,1203.193a16.959,16.959,0,0,0,3.293,5.788c-1.667-.672-3.464-2.235-4.914,2.057C6761.817,1208.3,6759.732,1203.193,6764.185,1203.193Z" transform="translate(-6761.211 -1202.986)" fill="#fff"/>
                    <path id="Trazado_107522" data-name="Trazado 107522" d="M6761.593,1210.286h-.007a.206.206,0,0,1-.193-.152c-.083-.3-.183-.639-.289-.993-.625-2.095-1.4-4.7-.337-6.134a2.865,2.865,0,0,1,2.445-.979.206.206,0,0,1,.2.149,16.915,16.915,0,0,0,3.25,5.71.206.206,0,0,1-.232.327c-.218-.088-.438-.191-.653-.291a4.307,4.307,0,0,0-1.678-.532c-.592,0-1.476.285-2.31,2.754A.206.206,0,0,1,6761.593,1210.286Zm1.468-7.844a2.36,2.36,0,0,0-1.962.811c-.942,1.265-.165,3.868.4,5.769q.06.2.116.391c.658-1.658,1.456-2.435,2.482-2.435a4.16,4.16,0,0,1,1.684.492A17.227,17.227,0,0,1,6763.061,1202.442Z" transform="translate(-6760.24 -1202.027)" fill="#5985ac"/>
                  </g>
                </g>
                <rect id="Rectngulo_8696" data-name="Rectngulo 8696" width="11.157" height="2.665" transform="translate(3.843 57.16)" fill="#e8550d"/>
                <rect id="Rectngulo_8697" data-name="Rectngulo 8697" width="11.158" height="2.665" transform="translate(21.732 57.16)" fill="#e8550d"/>
                <g id="Grupo_70552" data-name="Grupo 70552" transform="translate(16.54 42.968)">
                  <path id="Trazado_107523" data-name="Trazado 107523" d="M6785.212,1446.069a.693.693,0,1,1,.692-.693A.692.692,0,0,1,6785.212,1446.069Z" transform="translate(-6784.52 -1444.683)" fill="#e8550d"/>
                  <path id="Trazado_107524" data-name="Trazado 107524" d="M6785.212,1495.971a.693.693,0,1,1-.692.693A.692.692,0,0,1,6785.212,1495.971Z" transform="translate(-6784.52 -1486.889)" fill="#e8550d"/>
                  <path id="Trazado_107525" data-name="Trazado 107525" d="M6785.212,1547.262a.693.693,0,1,1-.692.693A.692.692,0,0,1,6785.212,1547.262Z" transform="translate(-6784.52 -1529.098)" fill="#e8550d"/>
                </g>
                <g id="Grupo_70553" data-name="Grupo 70553" transform="translate(18.396 5.684)">
                  <path id="Trazado_107526" data-name="Trazado 107526" d="M6802.816,1246.885a31.849,31.849,0,0,1-.306-6.241l1.855-6.516a56.426,56.426,0,0,1,3.924,7.845,19.617,19.617,0,0,1-3.325,1.474l2.4,2.312s-6.393,19.172-11.866,24.492c-.019-.357,0-.932-.018-1.223-.193-2.621-.486-2.469-.486-2.469S6802.612,1252.154,6802.816,1246.885Z" transform="translate(-6794.999 -1234.128)" fill="#e8550d"/>
                </g>
                <g id="Grupo_70554" data-name="Grupo 70554" transform="translate(5.108 5.684)">
                  <path id="Trazado_107527" data-name="Trazado 107527" d="M6725.433,1246.885a31.886,31.886,0,0,0,.307-6.241l-1.855-6.516a56.5,56.5,0,0,0-3.925,7.845,19.628,19.628,0,0,0,3.325,1.474l-2.4,2.312s6.395,19.172,11.866,24.492c.02-.357,0-.932.018-1.223.194-2.621.486-2.469.486-2.469S6725.637,1252.154,6725.433,1246.885Z" transform="translate(-6719.959 -1234.128)" fill="#e8550d"/>
                </g>
                <g id="Grupo_70555" data-name="Grupo 70555" transform="translate(17.799 2.561)">
                  <path id="Trazado_107528" data-name="Trazado 107528" d="M6799.444,1217.757a62.1,62.1,0,0,1-2.019,21.171,54.762,54.762,0,0,1-4.572,11.409,40.853,40.853,0,0,1,.692,5.2s8.34-16.789,10.817-23.188c-2.271-2.2-2.615-3.165-2.615-3.165l3.3-1.858S6802.989,1218.024,6799.444,1217.757Z" transform="translate(-6792.636 -1217.532)" fill="#f29100"/>
                  <path id="Trazado_107529" data-name="Trazado 107529" d="M6792.361,1255.312l-.031-.812a41.383,41.383,0,0,0-.688-5.171l-.014-.075.038-.066a54.278,54.278,0,0,0,4.551-11.357,69.32,69.32,0,0,0,2.184-15.091,43.8,43.8,0,0,0-.169-6l-.032-.25.251.019c3.655.276,5.708,9.346,5.792,9.732l.033.149-3.266,1.838a13.687,13.687,0,0,0,2.487,2.932l.1.1-.048.127c-2.453,6.334-10.743,23.037-10.826,23.2Zm-.3-5.982c.38,2.1.55,3.572.625,4.393,1.571-3.182,8.21-16.7,10.424-22.366-2.19-2.143-2.553-3.107-2.566-3.148l-.059-.164,3.32-1.867c-.276-1.153-2.167-8.609-5.137-9.226a64.214,64.214,0,0,1-2.052,20.982A55.058,55.058,0,0,1,6792.063,1249.33Z" transform="translate(-6791.629 -1216.487)" fill="#e53212"/>
                </g>
                <g id="Grupo_70556" data-name="Grupo 70556" transform="translate(6.398 2.561)">
                  <path id="Trazado_107530" data-name="Trazado 107530" d="M6738.267,1252.234s-6.536-13.486-9.013-19.884c2.27-2.2,2.614-3.165,2.614-3.165l-3.3-1.858s2.061-9.3,5.6-9.571c0,0-1.752,13.974,5.2,30.625,0,0,1.582,3.75,1.256,10.252A26.452,26.452,0,0,0,6738.267,1252.234Z" transform="translate(-6728.332 -1217.532)" fill="#f29100"/>
                  <path id="Trazado_107531" data-name="Trazado 107531" d="M6739.646,1259.5l-.314-1.882a26.549,26.549,0,0,0-2.339-6.342c-.065-.135-6.568-13.567-9.02-19.9l-.05-.127.1-.1a13.708,13.708,0,0,0,2.488-2.932l-3.267-1.838.032-.149c.087-.386,2.137-9.456,5.793-9.732l.251-.019-.031.25a49.99,49.99,0,0,0-.006,9.04,70.594,70.594,0,0,0,5.188,21.48,15.645,15.645,0,0,1,.761,2.726,30.9,30.9,0,0,1,.511,7.616Zm-11.239-28.146c2.482,6.369,8.893,19.608,8.957,19.742a34.12,34.12,0,0,1,2.008,5,24.086,24.086,0,0,0-1.283-8.684,71.043,71.043,0,0,1-5.219-21.62,53.18,53.18,0,0,1-.021-8.843c-2.97.616-4.86,8.073-5.136,9.226l3.319,1.867-.059.164C6730.959,1228.25,6730.6,1229.215,6728.406,1231.358Z" transform="translate(-6727.242 -1216.487)" fill="#e53212"/>
                </g>
                <path id="Trazado_107532" data-name="Trazado 107532" d="M6791.9,1549.145s2.786,7.74,7.328,9.667,9.285.516,8.908-10.355c0,0,1.693,10.125,2.1,13.187-5.4.573-12.643.567-12.643.567s-3.45-.633-6.552-8.786A27.915,27.915,0,0,0,6791.9,1549.145Z" transform="translate(-6773.353 -1487.113)" fill="#e8550d"/>
                <path id="Trazado_107533" data-name="Trazado 107533" d="M6709.663,1540.551s-3.08,7.791-7.621,9.718-9.54-1.384-9.164-12.255c0,0-.489,5.32-.69,6.817-.4,2.97-.8,6.328-1.075,8.363a107.648,107.648,0,0,0,11.968.4s3.665-.749,5.828-7.818C6710.226,1542.195,6709.663,1540.551,6709.663,1540.551Z" transform="translate(-6691.112 -1478.519)" fill="#e8550d"/>
                <path id="Trazado_107534" data-name="Trazado 107534" d="M6791.669,1464.9l-.37-.183c2.319-4.69.8-24.415.788-24.613l.412-.032c0,.05.392,5.052.485,10.574C6793.111,1458.089,6792.668,1462.885,6791.669,1464.9Z" transform="translate(-6773.559 -1397.923)" fill="#e53212"/>
              </g>
            </g>
          </g>
        </g>
      </g>
      <path id="Trazado_107535" data-name="Trazado 107535" d="M6725.418,1129.53a.266.266,0,0,1-.084-.014.27.27,0,0,1-.182-.219c-.115-.389-1.913-4.7-3.106-7.537a.269.269,0,1,1,.5-.209c.008.019.8,1.9,1.576,3.766,1.609,3.87,1.6,3.894,1.557,4.028A.27.27,0,0,1,6725.418,1129.53Z" transform="translate(-6678.755 -1091.07)" fill="#008fd5"/>
      <path id="Trazado_107536" data-name="Trazado 107536" d="M6729.67,1081.132a.269.269,0,0,1-.236-.139l-3.926-7.12a.269.269,0,1,1,.471-.26l3.928,7.12a.269.269,0,0,1-.236.4Z" transform="translate(-6681.594 -1051.641)" fill="#008fd5"/>
      <path id="Trazado_107537" data-name="Trazado 107537" d="M6847.067,1088.9a.269.269,0,0,1-.214-.432l5.113-6.758a.269.269,0,0,1,.429.325l-5.113,6.758A.269.269,0,0,1,6847.067,1088.9Z" transform="translate(-6781.435 -1058.334)" fill="#008fd5"/>
      <path id="Trazado_107538" data-name="Trazado 107538" d="M6856.759,1136.989a.263.263,0,0,1-.121-.029.269.269,0,0,1-.118-.362l3.09-6.066a.269.269,0,0,1,.48.244l-3.09,6.066A.27.27,0,0,1,6856.759,1136.989Z" transform="translate(-6789.411 -1098.474)" fill="#008fd5"/>
      <path id="Trazado_107539" data-name="Trazado 107539" d="M6759.6,1106.317s-6.673-3.219-8.62-3.087h-.487c-1.947-.132-8.888,1.866-8.888,1.866a40.081,40.081,0,0,0-1.384,9.428c2.3,2.923,5.683,4.245,10.038,4.245l.913.051c4.7.205,7.777-1.373,10.081-4.3A22.013,22.013,0,0,0,6759.6,1106.317Z" transform="translate(-6693.732 -1076.123)" fill="#3bbeef"/>
      <path id="Trazado_107540" data-name="Trazado 107540" d="M6772.566,1123.267c0,.1-4.812-1.077-7.572-1.178a47.654,47.654,0,0,0-6.7.45s3.54.268,6.741.324C6769.079,1122.934,6772.566,1123.267,6772.566,1123.267Z" transform="translate(-6708.605 -1091.638)" fill="#008fd5"/>
      <path id="Trazado_107541" data-name="Trazado 107541" d="M6773.341,1141.589a72.115,72.115,0,0,0-7.541-.917c-2.759-.1-6.727.189-6.727.189a61.137,61.137,0,0,0,6.693.568C6768.317,1141.473,6768.619,1141.6,6773.341,1141.589Z" transform="translate(-6709.244 -1106.923)" fill="#008fd5"/>
      <path id="Trazado_107542" data-name="Trazado 107542" d="M6772.555,1156.109c0,.1-4.9-.7-7.664-.771s-6.61.173-6.61.173a48.648,48.648,0,0,0,6.632.607C6768.954,1156.151,6772.555,1156.109,6772.555,1156.109Z" transform="translate(-6708.592 -1118.997)" fill="#008fd5"/>
      <path id="Trazado_107543" data-name="Trazado 107543" d="M6754.01,1168.73a30.834,30.834,0,0,0,7.6,1.178c3.055,0,8.189-.45,8.189-.45s-4.647-.267-8.189-.323C6757.138,1169.064,6754.01,1168.73,6754.01,1168.73Z" transform="translate(-6705.077 -1130.025)" fill="#008fd5"/>
      <g id="Grupo_70563" data-name="Grupo 70563" transform="translate(41.687 0)">
        <path id="Trazado_107544" data-name="Trazado 107544" d="M6720.453,959.517s1.775-9.255,14.482-9.337c12.512-.08,20.5,5.963,15.422,10.783C6731.984,961.64,6720.453,959.517,6720.453,959.517Z" transform="translate(-6719.148 -950.18)" fill="#3bbeef"/>
        <g id="Grupo_70562" data-name="Grupo 70562" transform="translate(4.733 2.782)">
          <path id="Trazado_107545" data-name="Trazado 107545" d="M6745.254,966.365c1.89-1.008-.175.08-2.275,2.484a30.722,30.722,0,0,0-2.356,3.932c-.874.815-.805-.063-.805-.063A12.073,12.073,0,0,1,6745.254,966.365Z" transform="translate(-6739.816 -965.972)" fill="#008fd5"/>
          <path id="Trazado_107546" data-name="Trazado 107546" d="M6798.9,973.135c-.7.971-.8.1-.8.1a10.763,10.763,0,0,1,3.843-6.788C6804.48,964.315,6799.8,968.683,6798.9,973.135Z" transform="translate(-6787.776 -965.888)" fill="#008fd5"/>
          <path id="Trazado_107547" data-name="Trazado 107547" d="M6865.713,994.362c-.7.971-.8.1-.8.1a10.884,10.884,0,0,1,1.867-3.783C6867.448,989.979,6866.13,992.574,6865.713,994.362Z" transform="translate(-6842.76 -986.191)" fill="#008fd5"/>
          <path id="Trazado_107548" data-name="Trazado 107548" d="M6834.127,984.984c-.7.972-.8.1-.8.1a9.507,9.507,0,0,1,2.779-5.3C6836.838,979.154,6834.526,982,6834.127,984.984Z" transform="translate(-6816.767 -977.25)" fill="#008fd5"/>
          <path id="Trazado_107549" data-name="Trazado 107549" d="M6772.9,987.113c-.7.972-.8.1-.8.1a10.871,10.871,0,0,1,1.867-3.783C6774.633,982.73,6773.315,985.326,6772.9,987.113Z" transform="translate(-6766.38 -980.225)" fill="#008fd5"/>
        </g>
        <path id="Trazado_107550" data-name="Trazado 107550" d="M6713.663,1007.139a200.024,200.024,0,0,0,31.3,1.807,3.867,3.867,0,0,0-.666-4.741s-28.854-1.93-30.338-1.381C6712.881,1003.222,6712.829,1007.067,6713.663,1007.139Z" transform="translate(-6713.087 -993.421)" fill="#a6dbf7"/>
      </g>
    </g>
  </g>
</svg>
