<svg xmlns="http://www.w3.org/2000/svg" width="221.34" height="221.396" viewBox="0 0 221.34 221.396">
  <g id="Grupo_1043444" data-name="Grupo 1043444" transform="translate(-180 -4400.694)">
    <g id="Grupo_1043072" data-name="Grupo 1043072" transform="translate(180 4400.694)">
      <g id="Grupo_1043071" data-name="Grupo 1043071" transform="translate(0 0)">
        <g id="Grupo_1043060" data-name="Grupo 1043060" transform="translate(0 61.418)">
          <g id="Grupo_1043057" data-name="Grupo 1043057" transform="translate(0 3.234)" opacity="0.34" style="mix-blend-mode: multiply;isolation: isolate">
            <g id="Grupo_1043056" data-name="Grupo 1043056">
              <path id="Trazado_772865" data-name="Trazado 772865" d="M50.306,350.395H269.76L236.8,479.338h-30.44l14.005,27.8-46.262-27.8H83.268ZM230.244,470.9,258.89,358.835H61.176L89.822,470.9Z" transform="translate(-50.306 -350.395)" fill="#252a30"/>
            </g>
          </g>
          <g id="Grupo_1043059" data-name="Grupo 1043059" transform="translate(5.773 0)">
            <g id="Grupo_1043058" data-name="Grupo 1043058">
              <path id="Trazado_772866" data-name="Trazado 772866" d="M56.256,348.992h202.03a6.764,6.764,0,0,1,6.554,8.44l-29.5,115.416a6.765,6.765,0,0,1-6.554,5.09H214.346a7.752,7.752,0,0,0-7.354,10.2l5.761,17.3a1.088,1.088,0,0,1-1.69,1.21l-35.8-27.139a7.751,7.751,0,0,0-4.682-1.575H85.76a6.765,6.765,0,0,1-6.554-5.09L49.7,357.432A6.766,6.766,0,0,1,56.256,348.992ZM227.922,467.776,255.4,360.286a2.287,2.287,0,0,0-2.215-2.852H61.358a2.287,2.287,0,0,0-2.215,2.852L86.62,467.776a2.288,2.288,0,0,0,2.215,1.72H225.707A2.286,2.286,0,0,0,227.922,467.776Z" transform="translate(-49.488 -348.992)" fill="#ff6e33"/>
            </g>
          </g>
        </g>
        <g id="Grupo_1043067" data-name="Grupo 1043067" transform="translate(65.317)">
          <path id="Trazado_772867" data-name="Trazado 772867" d="M141.191,344.165c-.173-.532-.369-1.086-.6-1.694-.362-.943-.761-1.854-1.185-2.709-.233-.463-.477-.927-.731-1.379-.288-.516-.618-1.058-1.005-1.658-.4-.622-.835-1.243-1.291-1.849-.224-.3-.456-.592-.692-.883a31.074,31.074,0,0,0-2.617-2.856c-.357-.346-.733-.689-1.12-1.028-.426-.371-.89-.749-1.415-1.157-.659-.512-1.342-1-2.026-1.448-.516-.339-.991-.632-1.45-.9s-.95-.533-1.5-.814c-.728-.371-1.489-.721-2.257-1.04-.62-.258-1.18-.475-1.715-.659-.475-.166-.959-.323-1.441-.463a31.579,31.579,0,0,0-3.778-.858c-.369-.06-.74-.115-1.114-.164-.747-.095-1.5-.164-2.241-.205-.715-.039-1.351-.055-1.943-.051-.519,0-1.044.021-1.561.051-.954.053-1.943.159-2.937.311-.643.1-1.224.2-1.771.318-.526.111-1.051.237-1.568.373-.41.108-.811.228-1.183.346-.263.081-.526.164-.781.251a31.409,31.409,0,0,0-7.084,56.115l.115.074.281.168.226.1a10.392,10.392,0,0,1,1.058.643,19.032,19.032,0,0,1,3.343,2.944c.115.127.228.258.343.39a6.938,6.938,0,0,0-.129,4.009l.641,2.418a6.942,6.942,0,0,0,.606,1.521l.007.012a6.857,6.857,0,0,0,.233,1.655l.641,2.418a6.869,6.869,0,0,0,.609,1.526,7.046,7.046,0,0,0,2.04,2.328c.113.083.228.164.383.263a6.564,6.564,0,0,0,.6.337c.166.083.334.159.549.247.189.074.378.141.567.2.219.065.44.12.687.168.173.032.346.062.521.081a6.306,6.306,0,0,0,.763.044c.173,0,.348,0,.53-.014a6.9,6.9,0,0,0,.692-.083l.168-.014,3.241-.86.261.286a8.686,8.686,0,0,0,8.677,2.557l4.938-1.309a8.661,8.661,0,0,0,3.181-1.6,8.708,8.708,0,0,0,2.252-2.686,8.672,8.672,0,0,0,.837-2.241l.085-.376,2.8-.745a6.979,6.979,0,0,0,4.482-3.691l.076-.159a7.112,7.112,0,0,0,.36-.971l.037-.122.035-.145a7.007,7.007,0,0,0,.166-.941c.018-.159.028-.32.032-.482a6.508,6.508,0,0,0-.009-.752,7,7,0,0,0-.214-1.286l-.641-2.418a7.026,7.026,0,0,0-.615-1.552c0-.106-.007-.221-.016-.348a6.866,6.866,0,0,0-.212-1.289l-.643-2.418a6.942,6.942,0,0,0-2.285-3.578,18.614,18.614,0,0,1,1.409-4.046c.129-.265.256-.5.367-.705a8.4,8.4,0,0,1,.459-.749l.173-.226.238-.41.06-.117c.214-.417.422-.837.618-1.263a31.335,31.335,0,0,0,2.674-16.8c-.058-.489-.127-.978-.207-1.462-.164-.984-.376-1.973-.632-2.939C141.507,345.2,141.355,344.679,141.191,344.165Z" transform="translate(-75.141 -322.351)" fill="#252a30" opacity="0.34"/>
          <path id="Trazado_772868" data-name="Trazado 772868" d="M119.784,404.081a8.683,8.683,0,0,1-8.677-2.557l-.26-.286-3.241.86-.168.016a6.926,6.926,0,0,1-.692.083c-.18.012-.355.016-.53.012a6.686,6.686,0,0,1-.761-.042c-.178-.021-.35-.048-.521-.083a6.723,6.723,0,0,1-.689-.168c-.189-.058-.378-.122-.565-.2-.217-.085-.385-.164-.551-.247a6.322,6.322,0,0,1-.6-.337c-.154-.1-.27-.18-.383-.263a7.065,7.065,0,0,1-2.04-2.326,7.165,7.165,0,0,1-.609-1.528l-.641-2.418a6.953,6.953,0,0,1-.233-1.655l0-.009a7.01,7.01,0,0,1-.609-1.524l-.641-2.418a6.939,6.939,0,0,1,.129-4.009c-.113-.132-.228-.261-.343-.39a19.118,19.118,0,0,0-3.34-2.944,10.141,10.141,0,0,0-1.06-.641l-.226-.106-.281-.168-.115-.074a31.408,31.408,0,0,1,7.084-56.115c.258-.085.519-.171.782-.251.371-.118.775-.235,1.183-.344.516-.138,1.044-.263,1.568-.373.549-.118,1.127-.221,1.771-.321.994-.152,1.983-.256,2.937-.311.519-.03,1.042-.046,1.563-.051.593,0,1.226.014,1.941.053.74.039,1.5.108,2.243.2.373.048.742.1,1.113.166a31.211,31.211,0,0,1,3.778.855c.48.143.964.3,1.439.463.535.187,1.1.4,1.715.659.77.318,1.531.669,2.257,1.04.551.281,1.042.549,1.5.814s.934.563,1.45.9c.685.452,1.367.938,2.026,1.45.526.406.991.786,1.418,1.157.385.337.761.682,1.12,1.026a31.381,31.381,0,0,1,2.614,2.856c.235.29.468.586.694.885.454.6.888,1.224,1.291,1.849.385.6.715,1.139,1.005,1.655.254.454.5.915.728,1.381.424.853.823,1.764,1.187,2.709.233.606.429,1.16.6,1.695.164.512.316,1.033.454,1.549.256.966.468,1.955.632,2.937q.121.726.207,1.464a31.31,31.31,0,0,1-2.677,16.8q-.294.64-.618,1.263l-.06.118-.237.41-.173.226c-.042.062-.217.318-.459.749-.111.2-.235.44-.367.708a18.711,18.711,0,0,0-1.409,4.044,6.968,6.968,0,0,1,2.287,3.578l.641,2.418a7.065,7.065,0,0,1,.214,1.289c.009.127.012.242.014.35a6.937,6.937,0,0,1,.618,1.551l.641,2.416a6.843,6.843,0,0,1,.212,1.286,6.029,6.029,0,0,1,.009.751c0,.164-.014.323-.03.484a7,7,0,0,1-.166.938l-.035.147-.037.12a7.014,7.014,0,0,1-.362.971l-.074.161a6.992,6.992,0,0,1-4.484,3.689l-2.8.745-.083.376a8.712,8.712,0,0,1-6.271,6.522Z" transform="translate(-77.82 -321.641)" fill="#fff"/>
          <g id="Grupo_1043066" data-name="Grupo 1043066" transform="translate(4.102 6.595)">
            <g id="Grupo_1043061" data-name="Grupo 1043061" transform="translate(1.231)">
              <path id="Trazado_772869" data-name="Trazado 772869" d="M92.026,373.162a13.788,13.788,0,0,1,1.766,1.047,25.909,25.909,0,0,1,7.665,8.375l24.1-6.391a25.174,25.174,0,0,1,2.464-10.628,15.058,15.058,0,0,1,1.346-2.31l0,0a26.069,26.069,0,1,0-37.356,9.906Z" transform="translate(-80.133 -325.211)" fill="#f4c811"/>
              <path id="Trazado_772870" data-name="Trazado 772870" d="M94.813,374.437a14.307,14.307,0,0,0-1.766-1.049l-.007,0a26.071,26.071,0,0,1,19.4-47.414,26.073,26.073,0,0,0-20.423,47.188l.009,0a13.8,13.8,0,0,1,1.766,1.047,25.934,25.934,0,0,1,7.665,8.375l.763-.2A25.861,25.861,0,0,0,94.813,374.437Z" transform="translate(-80.133 -325.211)" fill="#fff" opacity="0.28" style="mix-blend-mode: overlay;isolation: isolate"/>
              <path id="Trazado_772871" data-name="Trazado 772871" d="M89.471,326.089c-.556.145-1.1.316-1.635.5a26.056,26.056,0,0,1,2.5,50.9c-.768.2-1.535.364-2.3.5a27.513,27.513,0,0,1,3.368,4.6l24.1-6.391a25.175,25.175,0,0,1,2.464-10.628,15.059,15.059,0,0,1,1.346-2.31l0,0a26.07,26.07,0,0,0-29.845-37.162Z" transform="translate(-70.077 -325.211)" fill="#ffb600"/>
            </g>
            <g id="Grupo_1043065" data-name="Grupo 1043065" transform="translate(20.183 50.095)">
              <g id="Grupo_1043062" data-name="Grupo 1043062" transform="translate(9.577 11.865)">
                <path id="Trazado_772872" data-name="Trazado 772872" d="M104.181,359.5l-4.94,1.31a3.373,3.373,0,0,1-3.359-.989l-3.373-3.707,15.192-4.027-1.093,4.89A3.372,3.372,0,0,1,104.181,359.5Z" transform="translate(-92.509 -352.088)" fill="#3f454f"/>
                <path id="Trazado_772873" data-name="Trazado 772873" d="M92.509,356.115h0l11.854-3.142-1.093,4.89a3.372,3.372,0,0,1-2.428,2.524l-1.6.424h0l4.94-1.31a3.372,3.372,0,0,0,2.428-2.524l1.093-4.89Z" transform="translate(-92.509 -352.088)" fill="#252a30"/>
              </g>
              <g id="Grupo_1043063" data-name="Grupo 1043063" transform="translate(0 0)">
                <rect id="Rect치ngulo_355948" data-name="Rect치ngulo 355948" width="30.032" height="5.802" rx="0.716" transform="translate(0 7.698) rotate(-14.852)" fill="#3f454f"/>
                <path id="Trazado_772874" data-name="Trazado 772874" d="M117.121,348.328a1.649,1.649,0,0,0-2.02-1.171l-4.562,1.21a1.649,1.649,0,0,1,2.017,1.171v0a2.906,2.906,0,0,1-2.066,3.532L88.88,358.8a1.646,1.646,0,0,0,1.872.811l21.274-5.641,4.562-1.21a1.7,1.7,0,0,0,.293-.108c.032-.016.062-.037.092-.053a1.316,1.316,0,0,0,.164-.1,1.225,1.225,0,0,0,.1-.083,1.35,1.35,0,0,0,.118-.111,1.114,1.114,0,0,0,.1-.111c.028-.035.053-.071.078-.108a1.47,1.47,0,0,0,.088-.143c.016-.03.028-.06.041-.09a1.636,1.636,0,0,0,.1-1.107Z" transform="translate(-87.669 -346.733)" fill="#252a30"/>
              </g>
              <g id="Grupo_1043064" data-name="Grupo 1043064" transform="translate(1.487 5.607)">
                <rect id="Rect치ngulo_355949" data-name="Rect치ngulo 355949" width="30.032" height="5.802" rx="0.716" transform="translate(0 7.698) rotate(-14.852)" fill="#3f454f"/>
                <path id="Trazado_772875" data-name="Trazado 772875" d="M117.766,350.759a1.651,1.651,0,0,0-2.019-1.171l-4.562,1.21a1.649,1.649,0,0,1,2.017,1.171v0a2.905,2.905,0,0,1-2.066,3.532l-21.61,5.731a1.651,1.651,0,0,0,1.872.814l21.274-5.643,4.562-1.21a1.528,1.528,0,0,0,.293-.108c.032-.016.062-.037.092-.053a1.3,1.3,0,0,0,.164-.1.884.884,0,0,0,.1-.083,1.348,1.348,0,0,0,.118-.111,1.116,1.116,0,0,0,.1-.111c.028-.035.053-.072.078-.108s.06-.092.088-.143c.016-.028.028-.06.042-.09a1.635,1.635,0,0,0,.1-1.107Z" transform="translate(-88.314 -349.165)" fill="#252a30"/>
              </g>
            </g>
            <path id="Trazado_772876" data-name="Trazado 772876" d="M111.858,337.518a4.994,4.994,0,1,0-8.8,4.3l-7.414,1.966a4.993,4.993,0,1,0-3.67,4.175c.069-.018.138-.039.207-.06l0,0,1.487-.394,7.841,21.723,3.015-.8-7.841-21.726,6.642-1.761L107.28,367.7l3.015-.8-3.956-22.754,2.271-.6,0-.009A5,5,0,0,0,111.858,337.518Zm-23.005,6.1a1.9,1.9,0,1,1,2.324,1.351A1.9,1.9,0,0,1,88.853,343.618Zm18.666-2.983a1.9,1.9,0,1,1,1.349-2.324A1.9,1.9,0,0,1,107.52,340.634Z" transform="translate(-71.643 -313.997)" fill="#3f454f"/>
            <ellipse id="Elipse_8026" data-name="Elipse 8026" cx="15.803" cy="11.439" rx="15.803" ry="11.439" transform="translate(0 31.608) rotate(-69.538)" fill="#fff" opacity="0.28" style="mix-blend-mode: overlay;isolation: isolate"/>
          </g>
        </g>
      </g>
    </g>
    <g id="Grupo_1043073" data-name="Grupo 1043073" transform="translate(216.863 4487.275)">
      <path id="Trazado_106580" data-name="Trazado 106580" d="M18.7,30.871a3.247,3.247,0,0,0-1.227-2.7,15.252,15.252,0,0,0-4.312-2,41.367,41.367,0,0,1-5.044-2q-6.372-3.13-6.372-8.6a7.713,7.713,0,0,1,1.587-4.807A10.267,10.267,0,0,1,7.82,7.511a17.481,17.481,0,0,1,6.53-1.16,15.291,15.291,0,0,1,6.338,1.261A10.035,10.035,0,0,1,25.045,11.2,9.378,9.378,0,0,1,26.6,16.528H18.718a3.963,3.963,0,0,0-1.227-3.107,4.783,4.783,0,0,0-3.321-1.1,5.394,5.394,0,0,0-3.344.934,2.752,2.752,0,0,0,.124,4.661A17.037,17.037,0,0,0,15.7,20.029a29.1,29.1,0,0,1,5.584,2.353Q26.6,25.445,26.6,30.826a8,8,0,0,1-3.242,6.755q-3.242,2.454-8.894,2.454a17.645,17.645,0,0,1-7.216-1.43,10.88,10.88,0,0,1-4.863-3.918A10.208,10.208,0,0,1,.75,28.957H8.676a5.028,5.028,0,0,0,1.362,3.884,6.439,6.439,0,0,0,4.424,1.25,5.086,5.086,0,0,0,3.1-.844A2.787,2.787,0,0,0,18.7,30.871Zm25.331,8.714a8.567,8.567,0,0,1-.721-2.184,7.056,7.056,0,0,1-5.854,2.634A8.644,8.644,0,0,1,31.6,37.952a6.629,6.629,0,0,1-2.409-5.235,6.813,6.813,0,0,1,2.927-5.989Q35.042,24.7,40.626,24.7h2.342v-1.29q0-3.371-2.9-3.371a2.374,2.374,0,0,0-2.7,2.67H29.773a6.8,6.8,0,0,1,3.006-5.735,12.632,12.632,0,0,1,7.667-2.2,11.075,11.075,0,0,1,7.363,2.274,7.907,7.907,0,0,1,2.769,6.237V34.068A11.045,11.045,0,0,0,51.614,39.2v.383Zm-4.751-4.954a4.233,4.233,0,0,0,2.353-.608,3.81,3.81,0,0,0,1.34-1.373v-3.9H40.761q-3.963,0-3.963,3.558a2.172,2.172,0,0,0,.7,1.677A2.526,2.526,0,0,0,39.275,34.631Zm38.12-7.025q0,5.989-2.477,9.209a8.3,8.3,0,0,1-6.98,3.22,7.2,7.2,0,0,1-5.989-2.95l-.315,2.5h-6.8V5h7.588V17.181a6.946,6.946,0,0,1,5.471-2.409,8.3,8.3,0,0,1,7.025,3.265q2.477,3.265,2.477,9.187Zm-7.61-.484a9.9,9.9,0,0,0-.934-5,3.15,3.15,0,0,0-2.871-1.495,3.633,3.633,0,0,0-3.558,1.956v9.666a3.653,3.653,0,0,0,3.6,1.933,3.222,3.222,0,0,0,3.4-2.608A18.724,18.724,0,0,0,69.784,27.122ZM89.013,39.585H81.38V15.222h7.633ZM86.176,5.45h8.016l-6.259,7.07-6.192-.011Zm21.435,34.134a8.567,8.567,0,0,1-.721-2.184,7.056,7.056,0,0,1-5.854,2.634,8.644,8.644,0,0,1-5.854-2.083,6.629,6.629,0,0,1-2.409-5.235A6.813,6.813,0,0,1,95.7,26.728q2.927-2.026,8.511-2.026h2.342v-1.29q0-3.371-2.9-3.371a2.374,2.374,0,0,0-2.7,2.67H93.359a6.8,6.8,0,0,1,3.006-5.735,12.632,12.632,0,0,1,7.667-2.2,11.076,11.076,0,0,1,7.363,2.274,7.907,7.907,0,0,1,2.769,6.237V34.068A11.045,11.045,0,0,0,115.2,39.2v.383Zm-4.751-4.954a4.233,4.233,0,0,0,2.353-.608,3.81,3.81,0,0,0,1.34-1.373v-3.9h-2.207q-3.963,0-3.963,3.558a2.172,2.172,0,0,0,.7,1.677A2.526,2.526,0,0,0,102.86,34.631Z" transform="translate(-0.75 -5)" fill="#ff6e33"/>
      <path id="Trazado_106581" data-name="Trazado 106581" d="M.609,22.47q0-5.809,2.522-9.1a8.283,8.283,0,0,1,6.957-3.287,7.074,7.074,0,0,1,5.989,3.062l.54-2.612h6.575V44.265h-7.61V32.872a7.063,7.063,0,0,1-5.539,2.477,8.21,8.21,0,0,1-6.879-3.344Q.609,28.662.609,22.47Zm7.588.473q0,6.552,3.783,6.552a3.663,3.663,0,0,0,3.6-1.981V17.877a3.585,3.585,0,0,0-3.558-1.936q-3.535,0-3.805,5.652Zm33.8,9.322a7.823,7.823,0,0,1-6.507,3.085,7.673,7.673,0,0,1-6.068-2.33q-2.06-2.33-2.06-6.7V10.536h7.588V26.365q0,3.13,3.04,3.13A3.966,3.966,0,0,0,41.7,27.626V10.536h7.633V34.9H42.219Zm23.282,3.085A12.524,12.524,0,0,1,56.2,32.005a11.546,11.546,0,0,1-3.467-8.7v-.63a14.962,14.962,0,0,1,1.385-6.6,10.132,10.132,0,0,1,4.042-4.424,12.2,12.2,0,0,1,6.3-1.565,10.546,10.546,0,0,1,8.106,3.186q2.972,3.186,2.972,8.883V25.1H60.457a5.469,5.469,0,0,0,1.779,3.22,5.293,5.293,0,0,0,3.558,1.171,6.82,6.82,0,0,0,5.629-2.522l3.467,4.1a9.693,9.693,0,0,1-4.019,3.118A13.582,13.582,0,0,1,65.276,35.349ZM64.42,15.94q-3.332,0-3.963,4.413h7.655v-.585a3.759,3.759,0,0,0-.923-2.826A3.674,3.674,0,0,0,64.42,15.94Zm19.116,11.6a4.32,4.32,0,0,1,2.995,1.07,3.732,3.732,0,0,1,0,5.471,4.724,4.724,0,0,1-6-.011,3.731,3.731,0,0,1,0-5.449A4.283,4.283,0,0,1,83.536,27.536Zm11.01,0a4.32,4.32,0,0,1,2.995,1.07,3.732,3.732,0,0,1,0,5.471,4.724,4.724,0,0,1-6-.011,3.731,3.731,0,0,1,0-5.449A4.283,4.283,0,0,1,94.547,27.536Zm10.988,0a4.32,4.32,0,0,1,2.995,1.07,3.732,3.732,0,0,1,0,5.471,4.724,4.724,0,0,1-6-.011,3.731,3.731,0,0,1,0-5.449A4.283,4.283,0,0,1,105.534,27.536Z" transform="translate(43.938 40.691)" fill="#ff6e33"/>
    </g>
  </g>
</svg>
