<svg xmlns="http://www.w3.org/2000/svg" xmlns:xlink="http://www.w3.org/1999/xlink" width="213" height="58" viewBox="0 0 213 58">
  <defs>
    <clipPath id="clip-path">
      <rect id="Rectángulo_8823" data-name="Rectángulo 8823" width="89" height="58" fill="#fff" stroke="#707070" stroke-width="1"/>
    </clipPath>
  </defs>
  <g id="Grupo_78248" data-name="Grupo 78248" transform="translate(-2734.5 10922)">
    <line id="Línea_349" data-name="Línea 349" x1="213" transform="translate(2734.5 -10865.5)" fill="none" stroke="#707070" stroke-width="2" stroke-dasharray="3 3"/>
    <g id="Enmascarar_grupo_83" data-name="Enmascarar grupo 83" transform="translate(2742 -10922)" clip-path="url(#clip-path)">
      <g id="hand-saw" transform="translate(36.869 -19.9) rotate(33.007)">
        <path id="Trazado_107993" data-name="Trazado 107993" d="M39.646,7.673h3.837a13.915,13.915,0,0,0,2.276,7.673H7.673A7.673,7.673,0,1,1,7.673,0h6.395V3.837H29.415V0H42.8a16.527,16.527,0,0,0-1.88,7.673Z" transform="translate(1.279 39.645)" fill="#ffaf46"/>
        <path id="Sustracción_4" data-name="Sustracción 4" d="M5.114,16.626H0A16.606,16.606,0,0,1,6.394,3.532,15.64,15.64,0,0,1,11.509.818,16.184,16.184,0,0,1,16.6,0h.027A16.632,16.632,0,0,1,32.873,13.09l-4.746,3.083a11.51,11.51,0,1,0-23.015.452Z" transform="translate(42.205 30.692)" fill="#bebec2"/>
        <path id="Sustracción_5" data-name="Sustracción 5" d="M6.552,23.4h0A14.068,14.068,0,0,1,0,11.511H2.557a11.509,11.509,0,1,1,23.013-.454L6.553,23.4h0ZM14.068,7.67A3.837,3.837,0,1,0,17.9,11.507,3.837,3.837,0,0,0,14.068,7.67Z" transform="translate(44.762 35.809)" fill="#e7e7e8"/>
        <ellipse id="Elipse_4529" data-name="Elipse 4529" cx="3.892" cy="3.614" rx="3.892" ry="3.614" transform="translate(55.049 43.758)" fill="#96949c"/>
        <path id="Trazado_107996" data-name="Trazado 107996" d="M15.347,0H0V3.837H15.347Z" transform="translate(15.347 39.645)" fill="#ffaf46"/>
        <path id="Trazado_107997" data-name="Trazado 107997" d="M0,0H5.116V4.655A15.737,15.737,0,0,0,0,7.366Z" transform="translate(48.599 26.856)" fill="#e7e7e8"/>
        <path id="Trazado_107998" data-name="Trazado 107998" d="M0,25.578l1.279-2.54V2.785L0,0H10.231L8.952,2.785V23.02l1.279,2.558H0Z" transform="translate(46.041 1.278)" fill="#96949c"/>
        <path id="Sustracción_6" data-name="Sustracción 6" d="M50.16,59.962h0A15.246,15.246,0,0,1,46.4,56.27H8.953a8.951,8.951,0,1,1,0-17.9l34.4,0a17.709,17.709,0,0,1,3.965-4.732v-5.5H46.042A1.276,1.276,0,0,1,44.9,26.28l1.143-2.269V4.348L44.877,1.815A1.283,1.283,0,0,1,45.5.117,1.3,1.3,0,0,1,46.042,0H56.273a1.28,1.28,0,0,1,1.278,1.278,1.293,1.293,0,0,1-.117.535L56.273,4.348V24l1.143,2.285A1.282,1.282,0,0,1,56.843,28a1.3,1.3,0,0,1-.57.133H54.992v1.708A17.777,17.777,0,0,1,69.956,33.3a18.008,18.008,0,0,1,6.26,9.742l-2.294,1.489a15.367,15.367,0,0,0-15.093-12.56H58.8a14.9,14.9,0,0,0-4.7.761,14.414,14.414,0,0,0-4.715,2.5,15.392,15.392,0,0,0-5.849,10.8h2.573A12.793,12.793,0,0,1,58.816,34.525c.424,0,.858.022,1.292.065a12.8,12.8,0,0,1,11.45,11.447H71.6l-2.542,1.65v-.369a10.231,10.231,0,1,0-20.463,0V48.6H46.131c0,.042.007.085.009.128v.019a1.756,1.756,0,0,0,.014.186c.02.168.05.337.079.5v.012l.016.092c.062.364.139.722.236,1.091.052.192.108.4.171.6.114.349.251.713.41,1.083.029.067.056.135.083.2.035.088.079.2.128.3A12.666,12.666,0,0,0,48.1,54.27l.014.024a12.8,12.8,0,0,0,4.4,4.146L50.17,59.962ZM5.153,52.435h0a6.333,6.333,0,0,0,3.8,1.278H44.872a.489.489,0,0,1-.02-.048l-.016-.041c-.01-.026-.02-.053-.032-.079-.156-.349-.281-.655-.383-.939-.034-.094-.066-.19-.093-.272l-.045-.135c-.076-.231-.163-.5-.236-.768-.04-.146-.082-.3-.117-.453-.057-.235-.111-.481-.168-.773l-.009-.051h0c-.024-.134-.047-.26-.068-.39-.046-.278-.078-.555-.111-.885a.677.677,0,0,0-.015-.11v-.01c-.007-.048-.015-.1-.019-.154H40.926V46.038h.06v-.064c.014-.183.031-.39.053-.59.021-.184.048-.365.075-.541l.006-.04c.062-.443.146-.9.255-1.384.046-.209.088-.4.138-.589.139-.543.308-1.091.5-1.628.013-.035.024-.071.036-.11s.023-.075.037-.112a.1.1,0,0,1,.016-.047v-.008H31.973v2.557a1.28,1.28,0,0,1-1.278,1.278H15.347a1.28,1.28,0,0,1-1.278-1.278V40.925H8.953a6.426,6.426,0,0,0-6.266,5.113H6.394a1.28,1.28,0,0,1,0,2.559H2.687a6.151,6.151,0,0,0,.51,1.472,1.253,1.253,0,0,1,.641-.193H8.953a1.28,1.28,0,1,1,0,2.56h-3.8Zm11.472-11.51V42.2H29.416V40.925ZM49.876,28.134V31.8c.056-.031.115-.061.172-.089l.127-.063c.186-.106.376-.2.56-.3l.015-.008c.241-.12.492-.238.768-.361.2-.087.393-.171.6-.258l.12-.051c.065-.029.131-.059.2-.082V28.134ZM48.037,2.557l.445.975a1.253,1.253,0,0,1,.117.534v20.25a1.3,1.3,0,0,1-.136.576l-.347.687H54.2l-.355-.709a1.3,1.3,0,0,1-.133-.572V4.065a1.285,1.285,0,0,1,.117-.534l.445-.975ZM58.829,52.435a5.116,5.116,0,1,1,5.116-5.116,5.116,5.116,0,0,1-5.116,5.116Zm0-7.675a2.558,2.558,0,1,0,2.559,2.56,2.558,2.558,0,0,0-2.559-2.56Z" fill="#024b68"/>
      </g>
    </g>
  </g>
</svg>
